<svg width="1440" height="2037" viewBox="0 0 1440 2037" fill="none" xmlns="http://www.w3.org/2000/svg">
<g clip-path="url(#clip0_8867_46039)">
<path d="M878.341 -96.0005L878.336 -96.039L878.328 -96.0771C876.251 -106.419 875.125 -117.718 874.071 -128.294C874.023 -128.781 873.975 -129.266 873.926 -129.75H1549.27V719.454C1549.06 719.39 1548.85 719.32 1548.63 719.246L1548.61 719.24C1548.2 719.103 1547.74 718.952 1547.32 718.836C1546.98 718.744 1546.59 718.654 1546.2 718.625C1351.62 647.785 1198.34 543.835 1086.87 407.798C975.374 271.721 905.661 103.474 878.341 -96.0005Z" stroke="#0AB7A7" stroke-width="2.5"/>
<path d="M686.159 2755.75H-149.75V1738.64L691.599 1971.25V1971.63V1972.08V1972.52V1972.97V1973.41V1973.86V1974.3V1974.75V1975.2V1975.64V1976.09V1976.53V1976.98V1977.42V1977.87V1978.31V1978.76V1979.21V1979.65V1980.1V1980.54V1980.99V1981.43V1981.88V1982.33V1982.77V1983.22V1983.66V1984.11V1984.55V1985V1985.45V1985.89V1986.34V1986.78V1987.23V1987.68V1988.12V1988.57V1989.02V1989.46V1989.91V1990.35V1990.8V1991.25V1991.69V1992.14V1992.59V1993.03V1993.48V1993.93V1994.37V1994.82V1995.26V1995.71V1996.16V1996.6V1997.05V1997.5V1997.94V1998.39V1998.84V1999.28V1999.73V2000.18V2000.62V2001.07V2001.52V2001.96V2002.41V2002.86V2003.31V2003.75V2004.2V2004.65V2005.09V2005.54V2005.99V2006.43V2006.88V2007.33V2007.77V2008.22V2008.67V2009.12V2009.56V2010.01V2010.46V2010.9V2011.35V2011.8V2012.25V2012.69V2013.14V2013.59V2014.03V2014.48V2014.93V2015.38V2015.82V2016.27V2016.72V2017.17V2017.61V2018.06V2018.51V2018.95V2019.4V2019.85V2020.3V2020.74V2021.19V2021.64V2022.09V2022.53V2022.98V2023.43V2023.88V2024.32V2024.77V2025.22V2025.67V2026.11V2026.56V2027.01V2027.46V2027.9V2028.35V2028.8V2029.25V2029.69V2030.14V2030.59V2031.04V2031.48V2031.93V2032.38V2032.83V2033.28V2033.72V2034.17V2034.62V2035.07V2035.51V2035.96V2036.41V2036.86V2037.3V2037.75V2038.2V2038.65V2039.1V2039.54V2039.99V2040.44V2040.89V2041.33V2041.78V2042.23V2042.68V2043.12V2043.57V2044.02V2044.47V2044.92V2045.36V2045.81V2046.26V2046.71V2047.15V2047.6V2048.05V2048.5V2048.94V2049.39V2049.84V2050.29V2050.74V2051.18V2051.63V2052.08V2052.53V2052.97V2053.42V2053.87V2054.32V2054.76V2055.21V2055.66V2056.11V2056.56V2057V2057.45V2057.9V2058.35V2058.79V2059.24V2059.69V2060.14V2060.58V2061.03V2061.48V2061.93V2062.37V2062.82V2063.27V2063.72V2064.16V2064.61V2065.06V2065.51V2065.96V2066.4V2066.85V2067.3V2067.75V2068.19V2068.64V2069.09V2069.54V2069.98V2070.43V2070.88V2071.33V2071.77V2072.22V2072.67V2073.11V2073.56V2074.01V2074.46V2074.9V2075.35V2075.8V2076.25V2076.69V2077.14V2077.59V2078.04V2078.48V2078.93V2079.38V2079.82V2080.27V2080.72V2081.17V2081.61V2082.06V2082.51V2082.95V2083.4V2083.85V2084.3V2084.74V2085.19V2085.64V2086.08V2086.53V2086.98V2087.42V2087.87V2088.32V2088.77V2089.21V2089.66V2090.11V2090.55V2091V2091.45V2091.89V2092.34V2092.79V2093.23V2093.68V2094.13V2094.57V2095.02V2095.47V2095.91V2096.36V2096.81V2097.25V2097.7V2098.15V2098.59V2099.04V2099.49V2099.93V2100.38V2100.83V2101.27V2101.72V2102.16V2102.61V2103.06V2103.5V2103.95V2104.4V2104.84V2105.29V2105.73V2106.18V2106.63V2107.07V2107.52V2107.96V2108.41V2108.86V2109.3V2109.75V2110.19V2110.64V2111.09V2111.53V2111.98V2112.42V2112.87V2113.31V2113.76V2114.21V2114.65V2115.1V2115.54V2115.99V2116.43V2116.88V2117.32V2117.77V2118.22V2118.66V2119.11V2119.55V2120V2120.44V2120.89V2121.33V2121.78V2122.22V2122.67V2123.11V2123.56V2124V2124.45V2124.89V2125.34V2125.78V2126.23V2126.67V2127.12V2127.56V2128.01V2128.45V2128.9V2129.34V2129.78V2130.23V2130.67V2131.12V2131.56V2132.01V2132.45V2132.9V2133.34V2133.78V2134.23V2134.67V2135.12V2135.56V2136V2136.45V2136.89V2137.34V2137.78V2138.22V2138.67V2139.11V2139.56V2140V2140.44V2140.89V2141.33V2141.77V2142.22V2142.66V2143.1V2143.55V2143.99V2144.44V2144.88V2145.32V2145.76V2146.21V2146.65V2147.09V2147.54V2147.98V2148.42V2148.87V2149.31V2149.75V2150.2V2150.64V2151.08V2151.52V2151.97V2152.41V2152.85V2153.29V2153.74V2154.18V2154.62V2155.06V2155.51V2155.95V2156.39V2156.83V2157.27V2157.72V2158.16V2158.6V2159.04V2159.48V2159.93V2160.37V2160.81V2161.25V2161.69V2162.13V2162.58V2163.02V2163.46V2163.9V2164.34V2164.78V2165.22V2165.67V2166.11V2166.55V2166.99V2167.43V2167.87V2168.31V2168.75V2169.19V2169.63V2170.08V2170.52V2170.96V2171.4V2171.84V2172.28V2172.72V2173.16V2173.6V2174.04V2174.48V2174.92V2175.36V2175.8V2176.24V2176.68V2177.12V2177.56V2178V2178.44V2178.88V2179.32V2179.76V2180.2V2180.64V2181.08V2181.52V2181.96V2182.4V2182.83V2183.27V2183.71V2184.15V2184.59V2185.03V2185.47V2185.91V2186.35V2186.78V2187.22V2187.66V2188.1V2188.54V2188.98V2189.42V2189.85V2190.29V2190.73V2191.17V2191.61V2192.04V2192.48V2192.92V2193.36V2193.8V2194.23V2194.67V2195.11V2195.55V2195.98V2196.42V2196.86V2197.3V2197.73V2198.17C691.599 2226.52 691.636 2255.06 691.674 2283.73C691.863 2427.91 692.057 2575.54 687.516 2720.34L687.516 2720.36V2720.38C687.516 2726.44 687.178 2732.51 686.837 2738.62L686.836 2738.64C686.52 2744.32 686.201 2750.03 686.159 2755.75Z" stroke="#0AB7A7" stroke-width="2.5"/>
</g>
<defs>
<clipPath id="clip0_8867_46039">
<rect width="1440" height="2037" fill="white"/>
</clipPath>
</defs>
</svg>
