<svg width="24" height="24" viewBox="0 0 24 24" fill="none" xmlns="http://www.w3.org/2000/svg">
  <circle cx="12" cy="12" r="12" fill="#E9E954"/>
  <circle cx="12" cy="12" r="11" stroke="#1B1C4D" stroke-width="2"/>
  <path fill="#1B1C4D" transform="translate(-6.11035,4.35779) scale(0.62744)" d="M28.7799,20.952C22.8519,20.952,20.2839,18.888,20.0199,15.144L24.2199,15.144L24.2199,15.168C24.4839,16.752,25.9959,17.616,29.0199,17.616C32.1639,17.616,33.7719,16.728,33.7719,14.784C33.7719,12.768,32.1159,12,29.6199,12C27.1479,12,25.3479,12.696,24.1719,13.56C24.1719,13.584,23.6919,13.872,23.6919,13.896L20.2839,12.768L21.7239,3.408L36.7959,3.408L36.7959,3.528C36.7959,6.384,36.0519,6.744,32.5239,6.744L24.6039,6.744C24.4119,8.064,24.1479,9.816,23.9559,11.088C25.2759,9.84,27.4839,8.928,30.4119,8.928C34.9959,8.928,37.7079,10.68,37.7079,14.832C37.7079,18.912,34.3479,20.952,28.7799,20.952z"/>
</svg>
