<svg width="24" height="24" viewBox="0 0 24 24" fill="none" xmlns="http://www.w3.org/2000/svg">
  <circle cx="12" cy="12" r="12" fill="#E9E954"/>
  <circle cx="12" cy="12" r="11" stroke="#1B1C4D" stroke-width="2"/>
  <path fill="#1B1C4D" transform="translate(-5.94698,4.65902) scale(0.73483)" d="M32.1632,12.6199C32.1632,15.4999,29.5631,17.48,24.8032,17.48C19.2833,17.48,16.6832,15.0999,16.6832,10.3L16.6832,10.06C16.6832,4.94,19.6432,2.5,24.9632,2.5C28.9232,2.5,31.4233,3.96,32.1432,6.82L28.5232,6.82C28.1433,5.88,27.3031,5.22,24.9232,5.22C21.3832,5.22,19.8232,6.72,19.8232,9.96L19.8232,10.64C20.8232,9.2,23.0432,7.98,26.0432,7.98C30.0032,7.98,32.1632,9.58,32.1632,12.6199zM24.7832,14.62C27.803,14.62,28.8232,13.9,28.8232,12.58C28.8232,11.16,27.7231,10.58,25.0232,10.58C22.9032,10.58,21.1032,11.36,20.1832,12.5399C20.7832,14.0799,22.2032,14.62,24.7832,14.62z"/>
</svg>
