<svg width="24" height="24" viewBox="0 0 24 24" fill="none" xmlns="http://www.w3.org/2000/svg">
<circle cx="12" cy="12" r="12" fill="#E9E954"/>
<circle cx="12" cy="12" r="11" stroke="#1B1C4D" stroke-width="2"/>
<path d="M15.9531 13.9453C15.9531 14.9766 15.6146 15.7734 14.9375 16.3359C14.2604 16.8984 13.2969 17.1797 12.0469 17.1797C10.8646 17.1797 9.92448 16.9089 9.22656 16.3672C8.52865 15.8203 8.11979 15.0339 8 14.0078L10.2344 13.8125C10.375 14.8698 10.9766 15.3984 12.0391 15.3984C12.5651 15.3984 12.974 15.2682 13.2656 15.0078C13.5573 14.7474 13.7031 14.349 13.7031 13.8125C13.7031 13.3229 13.526 12.9479 13.1719 12.6875C12.8177 12.4271 12.2917 12.2969 11.5938 12.2969H10.8281V10.5234H11.5469C12.1771 10.5234 12.651 10.3958 12.9688 10.1406C13.2865 9.88021 13.4453 9.51042 13.4453 9.03125C13.4453 8.57812 13.3177 8.22396 13.0625 7.96875C12.8125 7.70833 12.4453 7.57812 11.9609 7.57812C11.5078 7.57812 11.1406 7.70312 10.8594 7.95312C10.5833 8.20312 10.4245 8.55729 10.3828 9.01562L8.1875 8.85938C8.30208 7.91146 8.69531 7.16927 9.36719 6.63281C10.0391 6.09635 10.9167 5.82812 12 5.82812C13.151 5.82812 14.0495 6.08854 14.6953 6.60938C15.3464 7.125 15.6719 7.84115 15.6719 8.75781C15.6719 9.44531 15.4688 10.0104 15.0625 10.4531C14.6615 10.8958 14.0807 11.1901 13.3203 11.3359V11.3672C14.1641 11.4661 14.8125 11.7448 15.2656 12.2031C15.724 12.6562 15.9531 13.237 15.9531 13.9453Z" fill="#1B1C4D"/>
</svg>
