<svg width="24" height="24" viewBox="0 0 24 24" fill="none" xmlns="http://www.w3.org/2000/svg">
<circle cx="12" cy="12" r="12" fill="#E9E954"/>
<circle cx="12" cy="12" r="11" stroke="#1B1C4D" stroke-width="2"/>
<path d="M15.4531 13.3359C15.4531 14.5026 15.0885 15.4323 14.3594 16.125C13.6354 16.8125 12.6406 17.1562 11.375 17.1562C10.2708 17.1562 9.38542 16.9089 8.71875 16.4141C8.05729 15.9141 7.64844 15.1927 7.49219 14.25L9.6875 14.0703C9.80208 14.5391 10.0052 14.8802 10.2969 15.0938C10.5885 15.3073 10.9557 15.4141 11.3984 15.4141C11.9453 15.4141 12.3802 15.2396 12.7031 14.8906C13.0312 14.5417 13.1953 14.0391 13.1953 13.3828C13.1953 12.8047 13.0417 12.3438 12.7344 12C12.4271 11.651 11.9974 11.4766 11.4453 11.4766C11.1432 11.4766 10.8672 11.5365 10.6172 11.6562C10.3672 11.7708 10.1458 11.9479 9.95312 12.1875H7.8125L8.19531 5.99219H14.8125V7.625H10.1875L10.0078 10.4062C10.5391 9.9375 11.2031 9.70312 12 9.70312C12.6979 9.70312 13.3047 9.85156 13.8203 10.1484C14.3411 10.4401 14.7422 10.8568 15.0234 11.3984C15.3099 11.9401 15.4531 12.5859 15.4531 13.3359Z" fill="#1B1C4D"/>
</svg>
