<svg width="24" height="24" viewBox="0 0 24 24" fill="none" xmlns="http://www.w3.org/2000/svg">
<circle cx="12" cy="12" r="12" fill="#E9E954"/>
<circle cx="12" cy="12" r="11" stroke="#1B1C4D" stroke-width="2"/>
<path d="M15.9033 15.1953V17H8.2002V15.4766C8.3929 15.0547 8.6377 14.6432 8.93457 14.2422C9.23145 13.8359 9.58561 13.4297 9.99707 13.0234C10.4137 12.612 10.8877 12.1901 11.4189 11.7578C11.8044 11.4453 12.1325 11.1615 12.4033 10.9062C12.6742 10.6458 12.8851 10.4141 13.0361 10.2109C13.1924 10.0078 13.3096 9.80729 13.3877 9.60938C13.4658 9.40625 13.5049 9.20833 13.5049 9.01562C13.5049 8.53646 13.3825 8.17708 13.1377 7.9375C12.8981 7.69792 12.5387 7.57812 12.0596 7.57812C11.5908 7.57812 11.2314 7.70573 10.9814 7.96094C10.7367 8.21094 10.5778 8.58854 10.5049 9.09375L8.29395 8.96875C8.41895 7.94792 8.79915 7.16927 9.43457 6.63281C10.0752 6.09635 10.945 5.82812 12.0439 5.82812C13.2314 5.82812 14.1429 6.09896 14.7783 6.64062C15.4137 7.18229 15.7314 7.94271 15.7314 8.92188C15.7314 9.47396 15.6169 9.96875 15.3877 10.4062C15.1585 10.8438 14.8669 11.2474 14.5127 11.6172C14.221 11.9349 13.8903 12.237 13.5205 12.5234C13.1559 12.8099 12.8018 13.0885 12.458 13.3594C12.0934 13.651 11.7601 13.9453 11.458 14.2422C11.1611 14.5391 10.9398 14.8568 10.7939 15.1953H15.9033Z" fill="#1B1C4D"/>
</svg>
