<svg width="24" height="24" viewBox="0 0 24 24" fill="none" xmlns="http://www.w3.org/2000/svg">
<circle cx="12" cy="12" r="12" fill="#E9E954"/>
<circle cx="12" cy="12" r="11" stroke="#1B1C4D" stroke-width="2"/>
<path fill="#1B1C4D" d="M11.9473,17.5039C8.2278,17.5039,6.6166,16.2089,6.4509,13.8597L9.0862,13.8597L9.0862,13.8748C9.2518,14.8687,10.2005,15.4108,12.0979,15.4108C14.0706,15.4108,15.0795,14.8536,15.0795,13.6339C15.0795,12.3689,14.0405,11.8871,12.4744,11.8871C10.9233,11.8871,9.7939,12.3238,9.0561,12.8659C9.0561,12.8809,8.7549,13.0616,8.7549,13.0767L6.6166,12.3689L7.5201,6.4961L16.9769,6.4961L16.9769,6.5714C16.9769,8.3634,16.5101,8.5892,14.2964,8.5892L9.3271,8.5892C9.2067,9.4175,9.041,10.5167,8.9205,11.3148C9.7488,10.5318,11.1341,9.9596,12.9713,9.9596C15.8475,9.9596,17.5491,11.0589,17.5491,13.664C17.5491,16.2239,15.4409,17.5039,11.9473,17.5039z"/>
</svg>
