<svg width="24" height="24" viewBox="0 0 24 24" fill="none" xmlns="http://www.w3.org/2000/svg">
<circle cx="12" cy="12" r="12" fill="#E9E954"/>
<circle cx="12" cy="12" r="11" stroke="#1B1C4D" stroke-width="2"/>
<path fill="#1B1C4D" d="M17.6875,13.9325C17.6875,16.0488,15.7769,17.5038,12.2792,17.5038C8.223,17.5038,6.3123,15.7549,6.3123,12.2278L6.3123,12.0514C6.3123,8.2891,8.4874,6.4961,12.3967,6.4961C15.3067,6.4961,17.1438,7.5689,17.6728,9.6706L15.0127,9.6706C14.7336,8.9798,14.1162,8.4948,12.3673,8.4948C9.766,8.4948,8.6197,9.5971,8.6197,11.9779L8.6197,12.4776C9.3545,11.4195,10.9859,10.523,13.1903,10.523C16.1003,10.523,17.6875,11.6987,17.6875,13.9325M12.2645,15.4022C14.4835,15.4022,15.2332,14.8732,15.2332,13.9032C15.2332,12.8597,14.4248,12.4335,12.4408,12.4335C10.883,12.4335,9.5603,13.0067,8.8842,13.8737C9.3251,15.0054,10.3686,15.4022,12.2645,15.4022z"/>
</svg>
