<svg width="24" height="24" viewBox="0 0 24 24" fill="none" xmlns="http://www.w3.org/2000/svg">
<circle cx="12" cy="12" r="12" fill="#E9E954"/>
<circle cx="12" cy="12" r="11" stroke="#1B1C4D" stroke-width="2"/>
<path d="M15.3203 13.3984C15.3203 14.5703 14.9922 15.4896 14.3359 16.1562C13.6797 16.8229 12.7734 17.1562 11.6172 17.1562C10.3203 17.1562 9.32292 16.7031 8.625 15.7969C7.93229 14.8854 7.58594 13.5365 7.58594 11.75C7.58594 9.78646 7.9375 8.3099 8.64062 7.32031C9.34896 6.32552 10.3594 5.82812 11.6719 5.82812C12.6042 5.82812 13.3385 6.03385 13.875 6.44531C14.4167 6.85677 14.7995 7.49479 15.0234 8.35938L12.9531 8.64844C12.7604 7.92448 12.3177 7.5625 11.625 7.5625C11.0365 7.5625 10.5729 7.85677 10.2344 8.44531C9.90104 9.03385 9.73438 9.92708 9.73438 11.125C9.96875 10.7344 10.2943 10.4349 10.7109 10.2266C11.1276 10.0182 11.599 9.91406 12.125 9.91406C13.1094 9.91406 13.888 10.2266 14.4609 10.8516C15.0339 11.4766 15.3203 12.3255 15.3203 13.3984ZM13.1172 13.4609C13.1172 12.8359 12.9714 12.3594 12.6797 12.0312C12.3932 11.6979 11.9974 11.5312 11.4922 11.5312C11.0078 11.5312 10.6198 11.6875 10.3281 12C10.0365 12.3073 9.89062 12.7161 9.89062 13.2266C9.89062 13.6536 9.95833 14.0339 10.0938 14.3672C10.2344 14.7005 10.4297 14.9635 10.6797 15.1562C10.9297 15.349 11.2188 15.4453 11.5469 15.4453C12.0417 15.4453 12.4271 15.2708 12.7031 14.9219C12.9792 14.5677 13.1172 14.0807 13.1172 13.4609Z" fill="#1B1C4D"/>
</svg>
