<svg width="73" height="24" viewBox="0 0 73 24" fill="none" xmlns="http://www.w3.org/2000/svg">
<rect width="73" height="24" rx="12" fill="#0AB7A7"/>
<path d="M12.5312 7.74414V16H10.8027V7.74414H12.5312ZM15.6777 11.1309V16H14.1426V7.74414H16.1172L19.7676 14.1543C19.6973 13.5605 19.6621 13.0234 19.6621 12.543V7.74414H21.1973V16H19.1699L15.5723 9.64258C15.6074 9.95117 15.6328 10.2305 15.6484 10.4805C15.668 10.7266 15.6777 10.9434 15.6777 11.1309ZM24.543 12.9707V16H22.8145V7.74414H28.9023V9.08008H24.543V11.6348H28.7676V12.9707H24.543ZM38.1777 11.834C38.1777 12.6934 38.0039 13.4453 37.6562 14.0898C37.3125 14.7305 36.8262 15.2285 36.1973 15.584C35.5723 15.9395 34.8379 16.1172 33.9941 16.1172C33.1309 16.1172 32.3887 15.9453 31.7676 15.6016C31.1465 15.2539 30.6699 14.7598 30.3379 14.1191C30.0059 13.4785 29.8398 12.7168 29.8398 11.834C29.8398 10.9512 30.0039 10.1953 30.332 9.56641C30.6641 8.9375 31.1406 8.45703 31.7617 8.125C32.3867 7.78906 33.1348 7.62109 34.0059 7.62109C34.8809 7.62109 35.6289 7.79102 36.25 8.13086C36.8711 8.4668 37.3477 8.94922 37.6797 9.57812C38.0117 10.207 38.1777 10.959 38.1777 11.834ZM36.4141 11.834C36.4141 10.9434 36.2031 10.2461 35.7812 9.74219C35.3594 9.23438 34.7676 8.98047 34.0059 8.98047C33.2324 8.98047 32.6348 9.23242 32.2129 9.73633C31.791 10.2363 31.5801 10.9355 31.5801 11.834C31.5801 12.4355 31.6777 12.9551 31.873 13.3926C32.0684 13.8301 32.3457 14.168 32.7051 14.4062C33.0684 14.6406 33.498 14.7578 33.9941 14.7578C34.7676 14.7578 35.3633 14.5039 35.7812 13.9961C36.2031 13.4883 36.4141 12.7676 36.4141 11.834Z" fill="white"/>
<circle cx="55" cy="12" r="7.25" stroke="white" stroke-width="1.5"/>
<path d="M55.7969 8V9.07812H54.2969V8H55.7969ZM55.7969 10.0938V15.7292H54.2969V10.0938H55.7969Z" fill="white"/>
</svg>
