<svg width="36" height="32" viewBox="0 0 36 32" fill="none" xmlns="http://www.w3.org/2000/svg">
<path d="M30.9232 22.5414H32.1789C33.1846 22.5414 34 21.6887 34 20.637V17.7869C34 17.1042 33.6513 16.4738 33.0846 16.1353L30.2578 14.4401C29.8716 14.2091 29.5438 13.8852 29.2993 13.4973L27.3366 8.54996C26.7282 7.5825 25.6933 7 24.5862 7H14.6059C13.6002 7 12.6501 7.48082 12.0264 8.30301L9.02597 13.1728C8.76344 13.52 8.40367 13.7742 7.99805 13.9006L3.30157 16.2791C2.52924 16.5203 2 17.2625 2 18.1051V20.6385C2 21.6902 2.81539 22.5429 3.82109 22.5429H5.03236" stroke="#1B1C4D" stroke-width="2.5" stroke-miterlimit="10"/>
<path d="M12.0564 22.5428H23.0278" stroke="#1B1C4D" stroke-width="2.5" stroke-miterlimit="10"/>
<path d="M26.6853 26.2C28.7051 26.2 30.3425 24.5627 30.3425 22.5429C30.3425 20.5231 28.7051 18.8857 26.6853 18.8857C24.6656 18.8857 23.0282 20.5231 23.0282 22.5429C23.0282 24.5627 24.6656 26.2 26.6853 26.2Z" stroke="#0AB7A7" stroke-width="2.5" stroke-miterlimit="10"/>
<path d="M9.31437 26.2C11.3342 26.2 12.9715 24.5627 12.9715 22.5429C12.9715 20.5231 11.3342 18.8857 9.31437 18.8857C7.29458 18.8857 5.65723 20.5231 5.65723 22.5429C5.65723 24.5627 7.29458 26.2 9.31437 26.2Z" stroke="#0AB7A7" stroke-width="2.5" stroke-miterlimit="10"/>
</svg>
