<svg width="32" height="32" viewBox="0 0 32 32" fill="none" xmlns="http://www.w3.org/2000/svg">
<mask id="path-1-inside-1_8843_20919" fill="white">
<path fill-rule="evenodd" clip-rule="evenodd" d="M4.11941 17.9702L4.11829 17.9713L14.5832 28.4154C14.963 28.7944 15.4573 28.9893 15.9549 29.0001C16.4826 29.0122 17.0141 28.8173 17.4167 28.4154L27.8816 17.9713L27.8805 17.9702L28.5394 17.3125C31.8201 14.0384 31.8201 8.72984 28.5394 5.45565C25.2587 2.18145 19.9396 2.18145 16.6589 5.45564L15.9999 6.11325L15.3411 5.4557C12.0604 2.1815 6.74126 2.1815 3.46054 5.45569C0.179821 8.72989 0.179819 14.0384 3.46054 17.3126L4.11941 17.9702Z"/>
</mask>
<path d="M4.11829 17.9713L2.35204 16.202L0.57948 17.9715L2.35229 19.7408L4.11829 17.9713ZM4.11941 17.9702L5.88566 19.7394L7.65822 17.9699L5.88541 16.2006L4.11941 17.9702ZM14.5832 28.4154L16.3492 26.6458L16.3492 26.6458L14.5832 28.4154ZM15.9549 29.0001L16.0121 26.5007L16.0093 26.5007L15.9549 29.0001ZM17.4167 28.4154L15.6507 26.6459L15.6507 26.6459L17.4167 28.4154ZM27.8816 17.9713L29.6476 19.7408L31.4204 17.9716L29.648 16.2021L27.8816 17.9713ZM27.8805 17.9702L26.1145 16.2006L24.3417 17.9698L26.1142 19.7394L27.8805 17.9702ZM28.5394 17.3125L30.3054 19.0821L28.5394 17.3125ZM28.5394 5.45565L30.3054 3.68612V3.68612L28.5394 5.45565ZM16.6589 5.45564L18.4249 7.22517L18.4249 7.22517L16.6589 5.45564ZM15.9999 6.11325L14.2339 7.88278L15.9999 9.64527L17.7659 7.88278L15.9999 6.11325ZM15.3411 5.4557L17.1071 3.68617V3.68617L15.3411 5.4557ZM3.46054 5.45569L5.22655 7.22522V7.22522L3.46054 5.45569ZM3.46054 17.3126L1.69453 19.0821H1.69453L3.46054 17.3126ZM5.88454 19.7405L5.88566 19.7394L2.35316 16.2009L2.35204 16.202L5.88454 19.7405ZM16.3492 26.6458L5.8843 16.2017L2.35229 19.7408L12.8172 30.1849L16.3492 26.6458ZM16.0093 26.5007C16.1283 26.5033 16.2551 26.5519 16.3492 26.6458L12.8172 30.1849C13.6708 31.0368 14.7863 31.4753 15.9006 31.4995L16.0093 26.5007ZM15.6507 26.6459C15.751 26.5458 15.887 26.4979 16.0121 26.5007L15.8978 31.4994C17.0781 31.5264 18.2771 31.0888 19.1827 30.1849L15.6507 26.6459ZM26.1156 16.2018L15.6507 26.6459L19.1827 30.1849L29.6476 19.7408L26.1156 16.2018ZM26.1142 19.7394L26.1153 19.7405L29.648 16.2021L29.6468 16.2009L26.1142 19.7394ZM26.7734 15.543L26.1145 16.2006L29.6465 19.7397L30.3054 19.0821L26.7734 15.543ZM26.7734 7.22517C29.0754 9.52265 29.0754 13.2455 26.7734 15.543L30.3054 19.0821C34.5648 14.8312 34.5648 7.93702 30.3054 3.68612L26.7734 7.22517ZM18.4249 7.22517C20.7297 4.92494 24.4686 4.92494 26.7734 7.22517L30.3054 3.68612C26.0488 -0.562038 19.1495 -0.562041 14.8929 3.68612L18.4249 7.22517ZM17.7659 7.88278L18.4249 7.22517L14.8929 3.68612L14.2339 4.34373L17.7659 7.88278ZM13.5751 7.22522L14.2339 7.88278L17.7659 4.34373L17.1071 3.68617L13.5751 7.22522ZM5.22655 7.22522C7.53136 4.92499 11.2703 4.92499 13.5751 7.22522L17.1071 3.68617C12.8505 -0.561989 5.95116 -0.561989 1.69453 3.68617L5.22655 7.22522ZM5.22654 15.5431C2.92448 13.2456 2.92449 9.5227 5.22655 7.22522L1.69453 3.68617C-2.56484 7.93707 -2.56485 14.8312 1.69453 19.0821L5.22654 15.5431ZM5.88541 16.2006L5.22654 15.5431L1.69453 19.0821L2.3534 19.7397L5.88541 16.2006Z" fill="#1B1C4D" mask="url(#path-1-inside-1_8843_20919)"/>
<path d="M7 15.5H12L14 12L17 19L19 15.5H24" stroke="#0AB7A7" stroke-width="2.5"/>
</svg>
