<svg width="763" height="320" viewBox="0 0 763 320" fill="none" xmlns="http://www.w3.org/2000/svg">
<path d="M756.159 1018.75H-79.75V1.64248L761.599 234.249V234.633V235.078V235.524V235.969V236.414V236.859V237.305V237.75V238.195V238.641V239.086V239.532V239.977V240.423V240.868V241.314V241.759V242.205V242.651V243.096V243.542V243.988V244.434V244.88V245.325V245.771V246.217V246.663V247.109V247.555V248.001V248.447V248.893V249.339V249.785V250.231V250.677V251.123V251.569V252.016V252.462V252.908V253.354V253.801V254.247V254.693V255.14V255.586V256.032V256.479V256.925V257.372V257.818V258.265V258.711V259.158V259.604V260.051V260.498V260.944V261.391V261.838V262.284V262.731V263.178V263.624V264.071V264.518V264.965V265.412V265.858V266.305V266.752V267.199V267.646V268.093V268.54V268.987V269.434V269.881V270.328V270.775V271.222V271.669V272.116V272.563V273.01V273.457V273.904V274.351V274.799V275.246V275.693V276.14V276.587V277.035V277.482V277.929V278.376V278.824V279.271V279.718V280.166V280.613V281.06V281.508V281.955V282.402V282.85V283.297V283.745V284.192V284.639V285.087V285.534V285.982V286.429V286.877V287.324V287.772V288.219V288.667V289.114V289.562V290.009V290.457V290.904V291.352V291.799V292.247V292.695V293.142V293.59V294.037V294.485V294.933V295.38V295.828V296.275V296.723V297.171V297.618V298.066V298.514V298.961V299.409V299.857V300.304V300.752V301.2V301.647V302.095V302.543V302.99V303.438V303.886V304.333V304.781V305.229V305.677V306.124V306.572V307.02V307.467V307.915V308.363V308.811V309.258V309.706V310.154V310.601V311.049V311.497V311.945V312.392V312.84V313.288V313.735V314.183V314.631V315.078V315.526V315.974V316.422V316.869V317.317V317.765V318.212V318.66V319.108V319.555V320.003V320.451V320.898V321.346V321.794V322.241V322.689V323.137V323.584V324.032V324.479V324.927V325.375V325.822V326.27V326.717V327.165V327.612V328.06V328.508V328.955V329.403V329.85V330.298V330.745V331.193V331.64V332.088V332.535V332.983V333.43V333.878V334.325V334.772V335.22V335.667V336.115V336.562V337.009V337.457V337.904V338.352V338.799V339.246V339.693V340.141V340.588V341.035V341.483V341.93V342.377V342.824V343.271V343.719V344.166V344.613V345.06V345.507V345.954V346.401V346.849V347.296V347.743V348.19V348.637V349.084V349.531V349.978V350.425V350.872V351.319V351.766V352.212V352.659V353.106V353.553V354V354.447V354.893V355.34V355.787V356.234V356.68V357.127V357.574V358.02V358.467V358.914V359.36V359.807V360.253V360.7V361.146V361.593V362.039V362.486V362.932V363.379V363.825V364.271V364.718V365.164V365.61V366.057V366.503V366.949V367.395V367.841V368.288V368.734V369.18V369.626V370.072V370.518V370.964V371.41V371.856V372.302V372.748V373.194V373.64V374.085V374.531V374.977V375.423V375.868V376.314V376.76V377.205V377.651V378.097V378.542V378.988V379.433V379.879V380.324V380.77V381.215V381.66V382.106V382.551V382.996V383.441V383.887V384.332V384.777V385.222V385.667V386.112V386.557V387.002V387.447V387.892V388.337V388.782V389.227V389.672V390.116V390.561V391.006V391.451V391.895V392.34V392.784V393.229V393.673V394.118V394.562V395.007V395.451V395.895V396.34V396.784V397.228V397.672V398.117V398.561V399.005V399.449V399.893V400.337V400.781V401.225V401.668V402.112V402.556V403V403.443V403.887V404.331V404.774V405.218V405.661V406.105V406.548V406.992V407.435V407.878V408.322V408.765V409.208V409.651V410.094V410.537V410.98V411.423V411.866V412.309V412.752V413.195V413.638V414.081V414.523V414.966V415.409V415.851V416.294V416.736V417.179V417.621V418.063V418.506V418.948V419.39V419.832V420.274V420.716V421.158V421.6V422.042V422.484V422.926V423.368V423.81V424.251V424.693V425.135V425.576V426.018V426.459V426.901V427.342V427.783V428.225V428.666V429.107V429.548V429.989V430.43V430.871V431.312V431.753V432.194V432.635V433.076V433.516V433.957V434.398V434.838V435.279V435.719V436.159V436.6V437.04V437.48V437.92V438.361V438.801V439.241V439.681V440.121V440.56V441V441.44V441.88V442.319V442.759V443.198V443.638V444.077V444.517V444.956V445.395V445.834V446.274V446.713V447.152V447.591V448.03V448.469V448.907V449.346V449.785V450.223V450.662V451.101V451.539V451.977V452.416V452.854V453.292V453.73V454.169V454.607V455.045V455.483V455.92V456.358V456.796V457.234V457.671V458.109V458.546V458.984V459.421V459.859V460.296V460.733V461.17C761.599 489.521 761.636 518.056 761.674 546.728C761.863 690.913 762.057 838.541 757.516 983.339L757.516 983.358V983.378C757.516 989.441 757.178 995.51 756.837 1001.62L756.836 1001.64C756.52 1007.31 756.201 1013.03 756.159 1018.75Z" stroke="#0AB7A7" stroke-width="2.5"/>
</svg>
