<svg width="127" height="40" viewBox="0 0 127 40" fill="none" xmlns="http://www.w3.org/2000/svg">
<g clip-path="url(#clip0_5803_51989)">
<path d="M0 20.0137C0.0266134 20.2798 0.0532269 20.5726 0.106454 20.8387C1.3839 30.2066 6.62675 36.6471 15.7285 39.9738C15.7552 39.9738 15.8084 40.0004 15.835 40.0004V20.0137H0Z" fill="#1B1C4D"/>
<path d="M32.3363 4.57751V9.04857C32.3363 12.4019 32.3629 15.8882 32.2564 19.2947C32.2564 19.5343 32.2298 19.7738 32.2298 20.0133H15.8359V0L32.3363 4.57751Z" fill="#00B9A6"/>
<path d="M92.2156 31.4835C90.1131 31.4835 88.3566 31.0577 86.9461 30.1794C85.5356 29.3012 84.4711 28.1036 83.7525 26.6132V38.5094H80V9.3145H83.2468L83.6194 14.0783C84.338 12.4549 85.4291 11.1508 86.8929 10.1661C88.3566 9.18144 90.1929 8.67578 92.322 8.67578C93.3599 8.67578 94.318 8.78224 95.2229 9.02176C96.1277 9.26128 96.9528 9.58064 97.7512 10.0065C99.2947 10.9113 100.492 12.2154 101.317 13.9186C102.169 15.6219 102.595 17.6711 102.595 20.0929V20.4655C102.595 21.6631 102.488 22.7543 102.249 23.739C102.009 24.7237 101.69 25.6552 101.264 26.4802C100.386 28.1302 99.1617 29.3544 97.5915 30.2061C96.0213 31.0577 94.2382 31.4835 92.2156 31.4835ZM91.0712 28.1302C93.5196 28.1302 95.4092 27.4649 96.7132 26.1076C98.0173 24.7503 98.6826 22.8607 98.6826 20.4123V20.0663C98.6826 17.4848 97.9907 15.4888 96.6334 14.0783C95.2761 12.6678 93.4664 11.9492 91.2309 11.9492C90.4857 11.9492 89.7671 12.0291 89.0752 12.2154C88.3832 12.4017 87.7711 12.6412 87.2122 12.9605C86.0679 13.6525 85.1896 14.584 84.5509 15.8082C83.9122 17.0324 83.5928 18.4163 83.5928 19.9865V20.226C83.5928 22.6212 84.2582 24.5374 85.5888 25.9745C86.9195 27.4116 88.7558 28.1302 91.0712 28.1302Z" fill="#1B1C4D"/>
<path d="M65.7907 31.537C62.0914 31.537 59.2438 30.5523 57.2744 28.6095C55.305 26.6401 54.3203 23.9255 54.3203 20.4392V20.0134C54.3203 18.7891 54.4534 17.6714 54.6929 16.6601C54.9324 15.6487 55.3316 14.6907 55.8373 13.839C56.8486 12.1358 58.2325 10.8583 59.9624 9.98009C61.6922 9.10184 63.6616 8.64941 65.8705 8.64941C68.9577 8.64941 71.486 9.39459 73.4554 10.8849C75.4248 12.3753 76.6224 14.6374 76.995 17.6714V17.7512H72.8965V17.6714C72.5771 15.7286 71.8053 14.2915 70.5811 13.36C69.3569 12.4285 67.8133 11.9495 65.8972 11.9495C63.6882 11.9495 61.8519 12.6414 60.4148 14.0253C58.9777 15.4092 58.2857 17.4052 58.2857 20.0134V20.3593C58.2857 22.8078 58.951 24.6973 60.2817 26.0546C61.6124 27.4119 63.4753 28.0772 65.8705 28.0772C67.8932 28.0772 69.49 27.5982 70.6876 26.6667C71.8852 25.7086 72.6304 24.2981 72.9497 22.4086V22.3819H77.0482V22.4086C76.7288 25.4957 75.5578 27.7845 73.5352 29.2748C71.5126 30.7918 68.9311 31.537 65.7907 31.537Z" fill="#1B1C4D"/>
<path d="M126.385 12.6682V9.20847H119.306V3.35352H116.006C116.006 3.56642 116.006 3.88578 115.98 4.3116C115.98 4.73741 115.953 5.18984 115.926 5.61566C115.926 5.82857 115.926 6.01486 115.9 6.20115C115.873 6.38745 115.873 6.52051 115.873 6.65358C115.82 7.42537 115.74 7.98425 115.607 8.38346C115.474 8.75604 115.261 9.02218 114.915 9.15525C114.755 9.20847 114.569 9.2617 114.33 9.28831C114.09 9.31493 113.797 9.34154 113.478 9.34154C113.159 9.34154 112.733 9.34154 112.227 9.36815C111.855 9.36815 110.338 9.39477 109.433 9.39477H105.414V31.0581H109.433V12.6682H115.66V22.2224C115.66 24.458 115.9 26.2411 116.379 27.5185C116.858 28.796 117.656 29.7274 118.801 30.2597C119.36 30.5524 120.051 30.7387 120.876 30.8718C121.701 31.0049 122.606 31.0581 123.618 31.0581H126.359V27.4387H124.496C123.085 27.4387 122.021 27.3056 121.276 27.0395C120.53 26.7733 119.998 26.2145 119.732 25.3628C119.599 24.9636 119.493 24.4314 119.439 23.8193C119.36 23.2071 119.333 22.462 119.333 21.6636V12.6682H126.385Z" fill="#00B9A6"/>
</g>
<defs>
<clipPath id="clip0_5803_51989">
<rect width="126.387" height="40" fill="white"/>
</clipPath>
</defs>
</svg>
