<svg width="474" height="151" viewBox="0 0 474 151" fill="none" xmlns="http://www.w3.org/2000/svg">
<g clip-path="url(#clip0_10081_44839)">
<path d="M0 75.0542C0.0991707 76.0549 0.198341 77.1458 0.396683 78.1465C5.18392 113.28 24.8468 137.433 58.9885 149.91C59.0877 149.91 59.2861 150.009 59.3852 150.009V75.0542H0Z" fill="#1B1C4D"/>
<path d="M121.268 17.1656V33.9344C121.268 46.5111 121.367 59.5836 120.97 72.3586C120.97 73.2601 120.871 74.1527 120.871 75.0542H59.3853V0L121.268 17.1656Z" fill="#0AB7A7"/>
<path d="M345.844 118.076C337.956 118.076 331.374 116.481 326.082 113.19C320.79 109.899 316.796 105.4 314.101 99.8198V144.438H300.027V34.9351H312.207L313.605 52.8039C316.3 46.7184 320.393 41.823 325.884 38.1356C331.374 34.4483 338.262 32.546 346.241 32.546C350.136 32.546 353.724 32.9427 357.123 33.8443C360.512 34.7458 363.614 35.9359 366.607 37.5406C372.395 40.9305 376.885 45.8259 379.977 52.2089C383.168 58.6009 384.764 66.2821 384.764 75.3607V76.7581C384.764 81.2479 384.368 85.3409 383.466 89.0373C382.564 92.7336 381.374 96.2226 379.77 99.315C376.479 105.5 371.881 110.098 365.994 113.289C360.107 116.481 353.417 118.076 345.835 118.076H345.844ZM341.553 105.5C350.74 105.5 357.826 103.002 362.712 97.9176C367.599 92.8328 370.096 85.7376 370.096 76.5598V75.2616C370.096 65.5789 367.499 58.096 362.415 52.8039C357.33 47.5118 350.541 44.8161 342.157 44.8161C339.362 44.8161 336.666 45.1137 334.07 45.8169C331.473 46.5201 329.184 47.4126 327.083 48.6117C322.792 51.2081 319.501 54.6972 317.103 59.2951C314.705 63.893 313.506 69.0769 313.506 74.964V75.8656C313.506 84.8451 316.003 92.0304 320.988 97.4217C325.974 102.813 332.862 105.509 341.553 105.509V105.5Z" fill="#1B1C4D"/>
<path d="M246.728 118.275C232.853 118.275 222.178 114.578 214.786 107.294C207.402 99.91 203.706 89.7315 203.706 76.65V75.0542C203.706 70.4653 204.201 66.2731 205.103 62.4776C206.005 58.682 207.501 55.0939 209.394 51.8933C213.19 45.5013 218.374 40.7141 224.865 37.4234C231.356 34.1328 238.74 32.4288 247.025 32.4288C258.601 32.4288 268.085 35.2236 275.469 40.8133C282.853 46.4029 287.343 54.8865 288.74 66.2641V66.5616H273.368V66.2641C272.169 58.9795 269.275 53.5883 264.687 50.0993C260.098 46.6102 254.31 44.8071 247.124 44.8071C238.839 44.8071 231.951 47.4036 226.56 52.5966C221.169 57.7895 218.572 65.2724 218.572 75.0542V76.3524C218.572 85.5393 221.069 92.6255 226.055 97.7102C231.041 102.795 238.037 105.292 247.016 105.292C254.598 105.292 260.594 103.498 265.083 100C269.573 96.403 272.368 91.1199 273.567 84.0337V83.9345H288.938V84.0337C287.739 95.6096 283.349 104.192 275.767 109.782C268.185 115.471 258.502 118.266 246.719 118.266L246.728 118.275Z" fill="#1B1C4D"/>
<path d="M474 47.5118V34.5385H447.449V12.5767H435.071C435.071 13.379 435.071 14.5691 434.972 16.1739C434.972 17.7696 434.873 19.4645 434.774 21.0603C434.774 21.8626 434.774 22.5568 434.674 23.2601C434.575 23.9633 434.575 24.4591 434.575 24.955C434.377 27.849 434.079 29.9496 433.574 31.4461C433.079 32.8435 432.276 33.8443 430.978 34.3401C430.383 34.5385 429.68 34.7368 428.778 34.836C427.877 34.9351 426.786 35.0343 425.587 35.0343C424.388 35.0343 422.792 35.0343 420.899 35.1335C419.501 35.1335 413.812 35.2327 410.423 35.2327H395.349V116.481H410.423V47.5118H433.782V83.3395C433.782 91.7239 434.683 98.4134 436.477 103.201C438.272 107.988 441.265 111.486 445.556 113.478C447.648 114.578 450.244 115.272 453.345 115.777C456.447 116.282 459.837 116.472 463.623 116.472H473.901V102.894H466.914C461.622 102.894 457.628 102.398 454.833 101.398C452.038 100.397 450.046 98.3052 449.045 95.1138C448.549 93.6172 448.144 91.6247 447.945 89.3258C447.648 87.0268 447.549 84.232 447.549 81.2389V47.5028H474V47.5118Z" fill="#0AB7A7"/>
<path d="M411.216 12.5767H395.349V25.7483H411.216V12.5767Z" fill="#0AB7A7"/>
</g>
<defs>
<clipPath id="clip0_10081_44839">
<rect width="474" height="150.018" fill="white"/>
</clipPath>
</defs>
</svg>
