<?xml version="1.0" encoding="UTF-8"?>
<svg xmlns="http://www.w3.org/2000/svg" xmlns:xlink="http://www.w3.org/1999/xlink" width="127px" height="40px" viewBox="0 0 125 40" version="1.1">
<defs>
<clipPath id="clip1">
  <path d="M 0 19 L 16 19 L 16 39.738281 L 0 39.738281 Z M 0 19 "/>
</clipPath>
</defs>
<g id="surface1">
<g clip-path="url(#clip1)" clip-rule="nonzero">
<path style=" stroke:none;fill-rule:nonzero;fill:rgb(10.588235%,10.980392%,30.196078%);fill-opacity:1;" d="M 0 19.882812 C 0.0273438 20.148438 0.0507812 20.4375 0.105469 20.699219 C 1.367188 30.007812 6.550781 36.40625 15.554688 39.710938 C 15.582031 39.710938 15.632812 39.738281 15.660156 39.738281 L 15.660156 19.882812 Z M 0 19.882812 "/>
</g>
<path style=" stroke:none;fill-rule:nonzero;fill:rgb(3.921569%,71.764706%,65.490196%);fill-opacity:1;" d="M 31.980469 4.546875 L 31.980469 8.988281 C 31.980469 12.320312 32.007812 15.785156 31.902344 19.167969 C 31.902344 19.40625 31.875 19.644531 31.875 19.882812 L 15.660156 19.882812 L 15.660156 0 Z M 31.980469 4.546875 "/>
<path style=" stroke:none;fill-rule:nonzero;fill:rgb(10.588235%,10.980392%,30.196078%);fill-opacity:1;" d="M 91.203125 31.277344 C 89.125 31.277344 87.386719 30.855469 85.992188 29.984375 C 84.597656 29.113281 83.542969 27.921875 82.832031 26.441406 L 82.832031 38.261719 L 79.121094 38.261719 L 79.121094 9.253906 L 82.332031 9.253906 L 82.703125 13.988281 C 83.414062 12.375 84.492188 11.078125 85.941406 10.101562 C 87.386719 9.125 89.203125 8.621094 91.308594 8.621094 C 92.335938 8.621094 93.28125 8.726562 94.179688 8.964844 C 95.070312 9.203125 95.890625 9.519531 96.679688 9.945312 C 98.207031 10.84375 99.390625 12.140625 100.203125 13.832031 C 101.046875 15.523438 101.46875 17.558594 101.46875 19.964844 L 101.46875 20.332031 C 101.46875 21.523438 101.363281 22.605469 101.125 23.585938 C 100.886719 24.566406 100.574219 25.488281 100.148438 26.308594 C 99.28125 27.945312 98.070312 29.164062 96.515625 30.011719 C 94.964844 30.855469 93.199219 31.277344 91.203125 31.277344 Z M 90.070312 27.945312 C 92.496094 27.945312 94.363281 27.285156 95.652344 25.9375 C 96.941406 24.589844 97.597656 22.710938 97.597656 20.28125 L 97.597656 19.9375 C 97.597656 17.371094 96.914062 15.390625 95.574219 13.988281 C 94.234375 12.585938 92.441406 11.871094 90.230469 11.871094 C 89.496094 11.871094 88.785156 11.949219 88.097656 12.136719 C 87.414062 12.324219 86.808594 12.558594 86.257812 12.878906 C 85.125 13.566406 84.257812 14.488281 83.625 15.707031 C 82.992188 16.925781 82.675781 18.296875 82.675781 19.859375 L 82.675781 20.097656 C 82.675781 22.476562 83.335938 24.378906 84.648438 25.808594 C 85.964844 27.234375 87.78125 27.949219 90.070312 27.949219 Z M 90.070312 27.945312 "/>
<path style=" stroke:none;fill-rule:nonzero;fill:rgb(10.588235%,10.980392%,30.196078%);fill-opacity:1;" d="M 65.066406 31.332031 C 61.40625 31.332031 58.589844 30.351562 56.640625 28.421875 C 54.695312 26.464844 53.71875 23.769531 53.71875 20.304688 L 53.71875 19.882812 C 53.71875 18.667969 53.851562 17.554688 54.089844 16.550781 C 54.328125 15.542969 54.722656 14.59375 55.21875 13.746094 C 56.222656 12.054688 57.589844 10.785156 59.300781 9.914062 C 61.011719 9.042969 62.957031 8.589844 65.144531 8.589844 C 68.195312 8.589844 70.699219 9.332031 72.644531 10.8125 C 74.59375 12.292969 75.777344 14.539062 76.144531 17.554688 L 76.144531 17.632812 L 72.089844 17.632812 L 72.089844 17.554688 C 71.773438 15.625 71.011719 14.195312 69.800781 13.269531 C 68.589844 12.347656 67.066406 11.871094 65.167969 11.871094 C 62.984375 11.871094 61.167969 12.558594 59.746094 13.933594 C 58.324219 15.308594 57.640625 17.289062 57.640625 19.882812 L 57.640625 20.226562 C 57.640625 22.660156 58.296875 24.535156 59.613281 25.882812 C 60.929688 27.230469 62.773438 27.890625 65.140625 27.890625 C 67.140625 27.890625 68.722656 27.417969 69.90625 26.488281 C 71.089844 25.539062 71.828125 24.136719 72.144531 22.261719 L 72.144531 22.234375 L 76.195312 22.234375 L 76.195312 22.261719 C 75.878906 25.328125 74.722656 27.601562 72.722656 29.082031 C 70.722656 30.589844 68.171875 31.328125 65.0625 31.328125 Z M 65.066406 31.332031 "/>
<path style=" stroke:none;fill-rule:nonzero;fill:rgb(3.921569%,71.764706%,65.490196%);fill-opacity:1;" d="M 125 12.585938 L 125 9.148438 L 118 9.148438 L 118 3.332031 L 114.734375 3.332031 C 114.734375 3.542969 114.734375 3.859375 114.707031 4.285156 C 114.707031 4.707031 114.683594 5.15625 114.65625 5.578125 C 114.65625 5.792969 114.65625 5.976562 114.628906 6.160156 C 114.601562 6.347656 114.601562 6.480469 114.601562 6.609375 C 114.550781 7.378906 114.472656 7.933594 114.339844 8.332031 C 114.207031 8.699219 113.996094 8.964844 113.65625 9.097656 C 113.496094 9.148438 113.3125 9.203125 113.074219 9.226562 C 112.835938 9.253906 112.550781 9.28125 112.234375 9.28125 C 111.917969 9.28125 111.496094 9.28125 110.996094 9.308594 C 110.628906 9.308594 109.128906 9.332031 108.234375 9.332031 L 104.257812 9.332031 L 104.257812 30.855469 L 108.234375 30.855469 L 108.234375 12.585938 L 114.394531 12.585938 L 114.394531 22.078125 C 114.394531 24.296875 114.632812 26.070312 115.105469 27.339844 C 115.578125 28.605469 116.367188 29.53125 117.5 30.058594 C 118.050781 30.351562 118.734375 30.535156 119.554688 30.667969 C 120.371094 30.804688 121.265625 30.851562 122.261719 30.851562 L 124.972656 30.851562 L 124.972656 27.257812 L 123.132812 27.257812 C 121.734375 27.257812 120.683594 27.125 119.945312 26.859375 C 119.207031 26.59375 118.683594 26.042969 118.417969 25.195312 C 118.289062 24.800781 118.179688 24.269531 118.128906 23.664062 C 118.050781 23.054688 118.023438 22.3125 118.023438 21.519531 L 118.023438 12.582031 L 125 12.582031 Z M 125 12.585938 "/>
<path style=" stroke:none;fill-rule:nonzero;fill:rgb(3.921569%,71.764706%,65.490196%);fill-opacity:1;" d="M 108.441406 3.332031 L 104.257812 3.332031 L 104.257812 6.820312 L 108.441406 6.820312 Z M 108.441406 3.332031 "/>
</g>
</svg>
