<svg width="32" height="32" viewBox="0 0 32 32" fill="none" xmlns="http://www.w3.org/2000/svg">
    <path d="M8.51025 31.6877V20.3718" stroke="#0AB7A7" stroke-width="2.5" stroke-miterlimit="10"/>
    <path d="M23.3446 31.6877C23.3446 30.3018 23.0783 29.5196 23.6108 28.3785C23.9722 27.5892 24.5237 26.9046 24.9611 26.1533C26.2354 24.0043 26.6157 21.3417 25.9976 18.9263C25.1323 15.5411 22.2795 12.4316 18.5995 12.4506C17.2967 12.4506 15.4614 12.403 14.2633 12.8975C13.2838 13.2969 11.924 14.0196 11.0301 14.6092C9.79394 15.4079 8.42462 16.007 7.33106 17.0055C6.79854 17.4905 6.35161 18.08 6.1329 18.7742C5.89517 19.554 5.91419 20.5239 6.71296 20.9708C6.94118 21.0944 7.18842 21.18 7.44517 21.2086C8.41511 21.3227 9.27094 20.7806 10.0887 20.3432C11.1062 19.8012 12.0191 18.6886 13.1982 18.5365C13.8544 18.4509 14.4535 18.9834 14.4535 19.649V31.6972" stroke="#1B1C4D" stroke-width="2.5" stroke-miterlimit="10"/>
    <path d="M17.7529 9.16994C19.7309 9.16994 21.3379 7.56288 21.3379 5.58497C21.3379 3.60706 19.7309 2 17.7529 2C15.775 2 14.168 3.60706 14.168 5.58497C14.168 7.56288 15.775 9.16994 17.7529 9.16994Z" stroke="#1B1C4D" stroke-width="2.5" stroke-miterlimit="10"/>
</svg>
