<svg width="117" height="24" viewBox="0 0 117 24" fill="none" xmlns="http://www.w3.org/2000/svg">
<rect width="117" height="24" rx="12" fill="#1B1C4D"/>
<path d="M19.4922 18.543C18.7188 18.543 18.0957 18.3945 17.623 18.0977C17.1543 17.8047 16.8652 17.3848 16.7559 16.8379L18.4023 16.6445C18.4609 16.8984 18.5859 17.0977 18.7773 17.2422C18.9727 17.3867 19.2266 17.459 19.5391 17.459C19.9961 17.459 20.3301 17.3184 20.541 17.0371C20.752 16.7559 20.8574 16.3379 20.8574 15.7832L20.8691 14.8223H20.8574C20.6777 15.2129 20.418 15.5059 20.0781 15.7012C19.7383 15.8926 19.3184 15.9883 18.8184 15.9883C18.0801 15.9883 17.5078 15.7109 17.1016 15.1562C16.6953 14.6016 16.4922 13.8086 16.4922 12.7773C16.4922 11.7422 16.7012 10.9434 17.1191 10.3809C17.5371 9.81836 18.1445 9.53711 18.9414 9.53711C19.4023 9.53711 19.791 9.63281 20.1074 9.82422C20.4277 10.0117 20.6777 10.2969 20.8574 10.6797H20.8867C20.8867 10.5859 20.8906 10.4688 20.8984 10.3281C20.9062 10.1875 20.916 10.0527 20.9277 9.92383C20.9434 9.79492 20.957 9.70703 20.9688 9.66016H22.5273C22.5039 10.082 22.4922 10.5703 22.4922 11.125V15.8066C22.4922 16.709 22.2363 17.3906 21.7246 17.8516C21.2129 18.3125 20.4688 18.543 19.4922 18.543ZM20.8691 12.7422C20.8691 12.0898 20.752 11.582 20.5176 11.2188C20.2871 10.8516 19.957 10.668 19.5273 10.668C19.0898 10.668 18.7598 10.8438 18.5371 11.1953C18.3184 11.5469 18.209 12.0742 18.209 12.7773C18.209 13.4648 18.3164 13.9824 18.5312 14.3301C18.75 14.6738 19.0781 14.8457 19.5156 14.8457C19.9531 14.8457 20.2871 14.6641 20.5176 14.3008C20.752 13.9336 20.8691 13.4141 20.8691 12.7422ZM25.5332 13.1465C25.5332 13.7637 25.6465 14.2305 25.873 14.5469C26.1035 14.8594 26.4297 15.0156 26.8516 15.0156C27.1406 15.0156 27.377 14.9531 27.5605 14.8281C27.748 14.6992 27.8789 14.5098 27.9531 14.2598L29.5059 14.3945C29.0566 15.543 28.1445 16.1172 26.7695 16.1172C25.8164 16.1172 25.084 15.8359 24.5723 15.2734C24.0605 14.707 23.8047 13.8828 23.8047 12.8008C23.8047 11.7539 24.0645 10.9492 24.584 10.3867C25.1035 9.82422 25.8398 9.54297 26.793 9.54297C27.7031 9.54297 28.3984 9.8457 28.8789 10.4512C29.3594 11.0527 29.5996 11.9355 29.5996 13.0996V13.1465H25.5332ZM28.0059 12.1152C27.9746 11.6035 27.8516 11.2207 27.6367 10.9668C27.4219 10.709 27.1328 10.5801 26.7695 10.5801C26.3828 10.5801 26.084 10.7148 25.873 10.9844C25.666 11.2539 25.5566 11.6309 25.5449 12.1152H28.0059ZM34.3809 12.1445L33.3613 16H31.6211L29.9805 9.66016H31.5273L32.3359 13.4102C32.375 13.5898 32.4141 13.7715 32.4531 13.9551C32.4922 14.1387 32.5312 14.3223 32.5703 14.5059C32.6094 14.3184 32.6445 14.1309 32.6758 13.9434C32.707 13.7559 32.748 13.5703 32.7988 13.3867L33.7949 9.66016H35.5586L36.5312 13.3867C36.5586 13.4883 36.5918 13.6328 36.6309 13.8203C36.6738 14.0039 36.7207 14.2324 36.7715 14.5059C36.8145 14.3184 36.8555 14.1328 36.8945 13.9492C36.9375 13.7617 36.9785 13.5742 37.0176 13.3867L37.8496 9.66016H39.373L37.709 16H35.9688L34.9609 12.1328C34.9375 12.043 34.9023 11.8906 34.8555 11.6758C34.8086 11.457 34.752 11.1758 34.6855 10.832C34.6348 11.0508 34.5859 11.2695 34.5391 11.4883C34.4922 11.707 34.4395 11.9258 34.3809 12.1445ZM41.6113 16.1172C40.998 16.1172 40.5195 15.9512 40.1758 15.6191C39.832 15.2832 39.6602 14.8125 39.6602 14.207C39.6602 13.5508 39.873 13.0527 40.2988 12.7129C40.7285 12.373 41.3496 12.1953 42.1621 12.1797L43.5273 12.1562V11.834C43.5273 11.4199 43.4551 11.1133 43.3105 10.9141C43.166 10.7109 42.9297 10.6094 42.6016 10.6094C42.2969 10.6094 42.0723 10.6797 41.9277 10.8203C41.7871 10.957 41.6992 11.1855 41.6641 11.5059L39.9473 11.4238C40.1621 10.1699 41.0703 9.54297 42.6719 9.54297C43.4727 9.54297 44.0898 9.74023 44.5234 10.1348C44.957 10.5293 45.1738 11.0898 45.1738 11.8164V14.125C45.1738 14.4805 45.2129 14.7266 45.291 14.8633C45.373 14.9961 45.5078 15.0625 45.6953 15.0625C45.8203 15.0625 45.9414 15.0508 46.0586 15.0273V15.918C45.8555 15.9688 45.6816 16.0059 45.5371 16.0293C45.3926 16.0566 45.2148 16.0703 45.0039 16.0703C44.5898 16.0703 44.2832 15.9688 44.084 15.7656C43.8887 15.5625 43.7715 15.2637 43.7324 14.8691H43.6973C43.4668 15.2832 43.1777 15.5957 42.8301 15.8066C42.4824 16.0137 42.0762 16.1172 41.6113 16.1172ZM43.5273 13.0645L42.6836 13.0762C42.2969 13.0957 42.0254 13.1367 41.8691 13.1992C41.709 13.2695 41.5859 13.375 41.5 13.5156C41.418 13.6562 41.377 13.8438 41.377 14.0781C41.377 14.3789 41.4453 14.6035 41.582 14.752C41.7227 14.8965 41.9082 14.9688 42.1387 14.9688C42.3965 14.9688 42.6328 14.8984 42.8477 14.7578C43.0586 14.6172 43.2246 14.4238 43.3457 14.1777C43.4668 13.9277 43.5273 13.6641 43.5273 13.3867V13.0645ZM44.5234 7.69141V8.97461H43.252V7.69141H44.5234ZM41.9629 7.69141V8.97461H40.709V7.69141H41.9629ZM48.4961 10.9258C48.7188 10.4414 48.998 10.0898 49.334 9.87109C49.6699 9.65234 50.0703 9.54297 50.5352 9.54297C51.207 9.54297 51.7227 9.75 52.082 10.1641C52.4414 10.5781 52.6211 11.1836 52.6211 11.9805V16H50.9805V12.4492C50.9805 11.8906 50.8867 11.4727 50.6992 11.1953C50.5117 10.918 50.2285 10.7793 49.8496 10.7793C49.4512 10.7793 49.1289 10.9512 48.8828 11.2949C48.6406 11.6348 48.5195 12.0723 48.5195 12.6074V16H46.873V7.30469H48.5195V9.67773C48.5195 9.81836 48.5176 9.95898 48.5137 10.0996C48.5098 10.2402 48.5039 10.3789 48.4961 10.5156C48.4922 10.6523 48.4844 10.7891 48.4727 10.9258H48.4961ZM55.8555 7.30469V16H54.209V7.30469H55.8555ZM60.5605 15.9062C60.1621 16.0391 59.6992 16.1055 59.1719 16.1055C58.6875 16.1055 58.3145 15.9746 58.0527 15.7129C57.791 15.4473 57.6602 15.0469 57.6602 14.5117V10.7734H56.8574V9.66016H57.7422L58.2578 8.17188H59.2891V9.66016H60.4902V10.7734H59.2891V14.0664C59.2891 14.375 59.3477 14.6035 59.4648 14.752C59.582 14.8965 59.7637 14.9688 60.0098 14.9688C60.127 14.9688 60.3105 14.9414 60.5605 14.8867V15.9062ZM62.9043 13.1465C62.9043 13.7637 63.0176 14.2305 63.2441 14.5469C63.4746 14.8594 63.8008 15.0156 64.2227 15.0156C64.5117 15.0156 64.748 14.9531 64.9316 14.8281C65.1191 14.6992 65.25 14.5098 65.3242 14.2598L66.877 14.3945C66.4277 15.543 65.5156 16.1172 64.1406 16.1172C63.1875 16.1172 62.4551 15.8359 61.9434 15.2734C61.4316 14.707 61.1758 13.8828 61.1758 12.8008C61.1758 11.7539 61.4355 10.9492 61.9551 10.3867C62.4746 9.82422 63.2109 9.54297 64.1641 9.54297C65.0742 9.54297 65.7695 9.8457 66.25 10.4512C66.7305 11.0527 66.9707 11.9355 66.9707 13.0996V13.1465H62.9043ZM65.377 12.1152C65.3457 11.6035 65.2227 11.2207 65.0078 10.9668C64.793 10.709 64.5039 10.5801 64.1406 10.5801C63.7539 10.5801 63.4551 10.7148 63.2441 10.9844C63.0371 11.2539 62.9277 11.6309 62.916 12.1152H65.377ZM69.8711 12.8887V16H68.2246V11.1484C68.2246 10.8008 68.2188 10.5117 68.207 10.2812C68.1992 10.0469 68.1895 9.83984 68.1777 9.66016H69.748C69.7559 9.69531 69.7637 9.77344 69.7715 9.89453C69.7793 10.0156 69.7871 10.1523 69.7949 10.3047C69.8027 10.4531 69.8086 10.5938 69.8125 10.7266C69.8203 10.8594 69.8242 10.9551 69.8242 11.0137H69.8477C70.0039 10.5762 70.1465 10.2617 70.2754 10.0703C70.4004 9.88672 70.5488 9.75195 70.7207 9.66602C70.8926 9.58008 71.1074 9.53711 71.3652 9.53711C71.5762 9.53711 71.7461 9.56641 71.875 9.625V11.002C71.6133 10.9434 71.3789 10.9141 71.1719 10.9141C70.7617 10.9141 70.4414 11.0801 70.2109 11.4121C69.9844 11.7441 69.8711 12.2363 69.8711 12.8887ZM79.9316 9.08008V16H78.2031V9.08008H75.5371V7.74414H82.6035V9.08008H79.9316ZM84.1504 16.1172C83.5371 16.1172 83.0586 15.9512 82.7148 15.6191C82.3711 15.2832 82.1992 14.8125 82.1992 14.207C82.1992 13.5508 82.4121 13.0527 82.8379 12.7129C83.2676 12.373 83.8887 12.1953 84.7012 12.1797L86.0664 12.1562V11.834C86.0664 11.4199 85.9941 11.1133 85.8496 10.9141C85.7051 10.7109 85.4688 10.6094 85.1406 10.6094C84.8359 10.6094 84.6113 10.6797 84.4668 10.8203C84.3262 10.957 84.2383 11.1855 84.2031 11.5059L82.4863 11.4238C82.7012 10.1699 83.6094 9.54297 85.2109 9.54297C86.0117 9.54297 86.6289 9.74023 87.0625 10.1348C87.4961 10.5293 87.7129 11.0898 87.7129 11.8164V14.125C87.7129 14.4805 87.752 14.7266 87.8301 14.8633C87.9121 14.9961 88.0469 15.0625 88.2344 15.0625C88.3594 15.0625 88.4805 15.0508 88.5977 15.0273V15.918C88.3945 15.9688 88.2207 16.0059 88.0762 16.0293C87.9316 16.0566 87.7539 16.0703 87.543 16.0703C87.1289 16.0703 86.8223 15.9688 86.623 15.7656C86.4277 15.5625 86.3105 15.2637 86.2715 14.8691H86.2363C86.0059 15.2832 85.7168 15.5957 85.3691 15.8066C85.0215 16.0137 84.6152 16.1172 84.1504 16.1172ZM86.0664 13.0645L85.2227 13.0762C84.8359 13.0957 84.5645 13.1367 84.4082 13.1992C84.248 13.2695 84.125 13.375 84.0391 13.5156C83.957 13.6562 83.916 13.8438 83.916 14.0781C83.916 14.3789 83.9844 14.6035 84.1211 14.752C84.2617 14.8965 84.4473 14.9688 84.6777 14.9688C84.9355 14.9688 85.1719 14.8984 85.3867 14.7578C85.5977 14.6172 85.7637 14.4238 85.8848 14.1777C86.0059 13.9277 86.0664 13.6641 86.0664 13.3867V13.0645ZM91.0117 12.8887V16H89.3652V11.1484C89.3652 10.8008 89.3594 10.5117 89.3477 10.2812C89.3398 10.0469 89.3301 9.83984 89.3184 9.66016H90.8887C90.8965 9.69531 90.9043 9.77344 90.9121 9.89453C90.9199 10.0156 90.9277 10.1523 90.9355 10.3047C90.9434 10.4531 90.9492 10.5938 90.9531 10.7266C90.9609 10.8594 90.9648 10.9551 90.9648 11.0137H90.9883C91.1445 10.5762 91.2871 10.2617 91.416 10.0703C91.541 9.88672 91.6895 9.75195 91.8613 9.66602C92.0332 9.58008 92.248 9.53711 92.5059 9.53711C92.7168 9.53711 92.8867 9.56641 93.0156 9.625V11.002C92.7539 10.9434 92.5195 10.9141 92.3125 10.9141C91.9023 10.9141 91.582 11.0801 91.3516 11.4121C91.125 11.7441 91.0117 12.2363 91.0117 12.8887ZM95.6875 7.30469V8.51758H94.041V7.30469H95.6875ZM95.6875 9.66016V16H94.041V9.66016H95.6875ZM99.3145 10.7734V16H97.6738V10.7734H96.748V9.66016H97.6738V8.99805C97.6738 8.42383 97.8262 7.99805 98.1309 7.7207C98.4355 7.44336 98.8984 7.30469 99.5195 7.30469C99.8398 7.30469 100.188 7.33594 100.562 7.39844V8.45898C100.406 8.42383 100.246 8.40625 100.082 8.40625C99.8008 8.40625 99.6016 8.46289 99.4844 8.57617C99.3711 8.68555 99.3145 8.88086 99.3145 9.16211V9.66016H100.562V10.7734H99.3145Z" fill="white"/>
</svg>
