<svg width="24" height="24" viewBox="0 0 24 24" fill="none" xmlns="http://www.w3.org/2000/svg">
<circle opacity="0.2" cx="12" cy="12" r="12" fill="#0AB7A7"/>
<path d="M12.0209 21C9.11163 21 6.87209 20.2256 5.32325 18.6977C3.77442 17.1488 3 15.014 3 12.2721V11.9372C3 10.9744 3.10465 10.0953 3.29302 9.3C3.48139 8.50465 3.79535 7.75116 4.19302 7.0814C4.98837 5.74186 6.07674 4.73721 7.43721 4.04651C8.79767 3.35581 10.3465 3 12.0837 3C14.5116 3 16.5 3.58605 18.0488 4.75814C19.5977 5.93023 20.5395 7.7093 20.8326 10.0953V10.1581H17.6093V10.0953C17.3581 8.56744 16.7512 7.43721 15.7884 6.70465C14.8256 5.97209 13.6116 5.59535 12.1046 5.59535C10.3674 5.59535 8.92325 6.13953 7.79302 7.22791C6.66279 8.31628 6.1186 9.88605 6.1186 11.9372V12.2093C6.1186 14.1349 6.64186 15.6209 7.68837 16.6884C8.73488 17.7558 10.2 18.2791 12.0837 18.2791C13.6744 18.2791 14.9302 17.9023 15.8721 17.1698C16.814 16.4163 17.4 15.307 17.6512 13.8209V13.8H20.8744V13.8209C20.6233 16.2488 19.7023 18.0488 18.1116 19.2209C16.5209 20.414 14.4907 21 12.0209 21Z" fill="#0AB7A7"/>
</svg>
