<svg width="127" height="40" viewBox="0 0 280 68" fill="none" xmlns="http://www.w3.org/2000/svg">
<path d="M213.584 0.917969H227.185V34.7566L262.581 0.917969H280L246.964 32.1215L280 66.2947H261.895L237.182 41.3654L227.185 50.7766V66.2947H213.584V0.917969Z" fill="#FF3D00"/>
<path d="M115.883 45.4668C115.883 44.1004 116.026 42.748 116.312 41.4095C116.598 40.071 117.084 38.6767 117.771 37.2267C118.486 35.7767 119.415 34.2569 120.559 32.6675C121.732 31.0501 123.205 29.2794 124.979 27.3553C123.977 25.7659 123.248 24.2183 122.79 22.7125C122.361 21.1788 122.147 19.6172 122.147 18.0278C122.147 15.4066 122.69 12.9945 123.777 10.7916C124.864 8.58863 126.394 6.69244 128.368 5.10298C130.342 3.48565 132.701 2.23081 135.447 1.33849C138.193 0.446163 141.225 0 144.543 0C148.09 0 151.279 0.501933 154.111 1.5058C156.971 2.50966 159.402 3.8621 161.405 5.56309C163.407 7.26409 164.937 9.25787 165.995 11.5445C167.082 13.8032 167.626 16.1873 167.626 18.697C167.626 20.2307 167.411 21.7783 166.982 23.3399C166.582 24.8736 165.967 26.477 165.137 28.1501C164.308 29.7953 163.278 31.5242 162.048 33.3367C160.818 35.1493 159.388 37.0873 157.758 39.1508L167.926 46.5543C170.129 44.0167 171.974 41.1306 173.461 37.8959C174.977 34.6334 176.15 31.1059 176.979 27.3135H172.646V16.9402H200.963V27.3135H188.263C187.262 32.1098 185.889 36.6969 184.144 41.0748C182.399 45.4249 180.111 49.3846 177.279 52.9539C178.595 53.6789 179.839 54.2506 181.012 54.6689C182.213 55.0593 183.372 55.3381 184.487 55.5054C185.603 55.6727 186.69 55.7424 187.748 55.7146C188.835 55.6867 189.951 55.5891 191.095 55.4218L194.956 66.2551C192.496 66.7292 190.179 67.0359 188.006 67.1754C185.86 67.3148 183.715 67.2172 181.57 66.8826C179.453 66.5758 177.265 65.9902 175.005 65.1258C172.774 64.2614 170.357 63.0344 167.755 61.445C164.78 63.2575 161.448 64.6657 157.758 65.6696C154.097 66.6734 149.963 67.1754 145.358 67.1754C140.467 67.1754 136.177 66.6037 132.487 65.4604C128.797 64.3171 125.722 62.7695 123.262 60.8175C120.803 58.8377 118.958 56.5372 117.728 53.916C116.498 51.2669 115.883 48.4505 115.883 45.4668ZM148.576 32.4165C150.636 29.7674 152.094 27.4251 152.952 25.3894C153.839 23.3259 154.283 21.374 154.283 19.5336C154.283 17.9999 154.011 16.6893 153.467 15.6017C152.952 14.4863 152.252 13.5801 151.365 12.8829C150.478 12.1858 149.434 11.6699 148.233 11.3353C147.06 11.0007 145.816 10.8334 144.5 10.8334C143.07 10.8334 141.797 11.0146 140.682 11.3771C139.566 11.7118 138.622 12.1858 137.85 12.7993C137.078 13.4128 136.491 14.1378 136.091 14.9743C135.69 15.8109 135.49 16.7172 135.49 17.6931C135.49 18.4181 135.619 19.1989 135.876 20.0355C136.162 20.8442 136.663 21.7504 137.378 22.7543C138.122 23.7582 139.137 24.8596 140.424 26.0587C141.74 27.2577 143.413 28.6102 145.444 30.116L148.576 32.4165ZM129.226 44.5466C129.226 46.1081 129.555 47.6 130.213 49.0221C130.899 50.4443 131.929 51.6991 133.302 52.7866C134.704 53.8741 136.448 54.7386 138.536 55.3799C140.653 56.0213 143.142 56.342 146.002 56.342C148.119 56.342 150.121 56.1607 152.009 55.7982C153.896 55.4357 155.698 54.9059 157.415 54.2088L136.477 38.6907C135.819 38.2166 135.19 37.7426 134.589 37.2685C133.989 36.7945 133.402 36.3204 132.83 35.8464C131.686 37.2406 130.799 38.6488 130.17 40.071C129.541 41.4652 129.226 42.9571 129.226 44.5466Z" fill="#FF3D00"/>
<path d="M0 0.916992H14.845L33.0366 43.1212L37.2413 53.3272L40.5449 43.1212L47.2381 27.7286L35.1818 0.916992H49.1688L54.1028 13.6745L58.6936 0.916992H72.6805L60.6243 27.7286L67.4462 43.4558L71.565 53.3272L74.74 43.2885L93.0174 0.916992H107.862L78.2581 66.2938H64.7861L58.8223 53.3272L53.9741 40.737L49.1259 53.3272L43.0763 66.2938H29.6042L0 0.916992Z" fill="#FF3D00"/>
</svg>
