<svg version="1.1" id="Ebene_1" xmlns="http://www.w3.org/2000/svg" x="0" y="0" viewBox="0 0 453.5 255.1" xml:space="preserve" width="267" height="150"><style>.st0{fill-rule:evenodd;clip-rule:evenodd}.st0,.st1{fill:#003874}</style><path class="st0" d="M37.4 166.3c-3.1 0-11.1-1.1-15.3-6.1-3.7-4.5-4.3-11.3-4.3-15.5 0-11.9 3.9-22.7 18.6-22.7 11.5 0 19.9 8.3 23.4 14.4h2.5v-16.5h-2.7c-1 1.8-1.9 3.2-4.6 3.2-2.6 0-10.3-3.5-19.4-3.5-21.1 0-35.6 11-35.6 25.3 0 13.2 12.7 24.8 36.1 24.8 12.9 0 20.7-4.4 28-10.3l-3-1.8c-8.3 6.6-15.9 8.7-23.7 8.7zM109.1 119.6c-19.4 0-35.6 9.7-35.6 25.1 0 3.5.8 6.8 2.4 9.7 5 9.4 17.5 15.4 33.2 15.4 15.7 0 28.2-6 33.2-15.4 1.6-2.9 2.4-6.2 2.4-9.7 0-15.4-16.2-25.1-35.6-25.1zm16.8 34.7c-1.6 6.4-5.9 13.1-16.7 13.1-10.9 0-15.1-6.6-16.7-13.1-1-3.7-1-7.4-1-9.7 0-10.3 3.7-22.7 17.8-22.7 14.1 0 17.8 12.4 17.8 22.7-.2 2.3-.3 6-1.2 9.7zM199.7 122.4c8.1.4 9.3 2.8 9.3 7v21.4h-.2L174 120.6h-21.2v1.8c1.3 0 2.9.2 8.5 5.1V161c0 4.7-2.8 5.2-8.8 5.6v1.8h22.8v-1.8c-7.4-.6-9.5-1.9-9.5-7v-28.2h.2l44.7 38.3h2.8V128c0-3.4.6-5 7.8-5.6v-1.8h-21.6v1.8zM257.9 120.6h-30.6v1.8c3.9.3 8.3.4 8.3 4.7v34.8c0 2.6-2 4.7-8.3 4.7v1.8H259c25.3-.6 36.2-11.6 36.2-24.6 0-10.9-9.1-23.2-37.3-23.2zm-.3 45.3c-4.8 0-5.7-1.3-5.7-4.1v-35.4c-.1-1.6-.2-3.3 6.2-3.3 17.3 0 19.6 15 19.6 21.5 0 16.8-8.8 21.3-20.1 21.3zM340.2 119.6c-19.4 0-35.6 9.7-35.6 25.1 0 3.5.8 6.8 2.4 9.7 5 9.4 17.5 15.4 33.2 15.4 15.7 0 28.2-6 33.2-15.4 1.6-2.9 2.4-6.2 2.4-9.7 0-15.4-16.2-25.1-35.6-25.1zm16.7 34.7c-1.6 6.4-5.9 13.1-16.7 13.1-10.9 0-15.1-6.6-16.7-13.1-1-3.7-1-7.4-1-9.7 0-10.3 3.7-22.7 17.8-22.7 14.1 0 17.8 12.4 17.8 22.7-.1 2.3-.2 6-1.2 9.7zM449.4 165.3l-20.2-20.1c5.4-1.2 15.8-3.4 15.8-12.1 0-11.9-21.3-12.4-28.3-12.4h-32.4v1.8c5.7.3 8.8.4 8.8 6.5v31.2c0 5.7-2 5.9-8.8 6.5v1.8h34v-1.8c-6.6-.6-8.8-.8-8.8-6.5v-13.8h2.7l20.8 22.1h20.6v-1.8c-1.3-.1-2.8-.2-4.2-1.4zm-40-21.3v-18c.5-2.2.7-3 6.2-3 8 0 12.2 3 12.2 10.2 0 9.2-5.2 10.7-18.4 10.8z"/><g><path class="st1" d="M67.5 198.2c.8 0 1.4.1 1.8.2.6.2.9.5.9 1.1 0 .2-.1.5-.2.8-.1.3-.3.7-.5 1.2l-5.2 10.3-5.7-9.6c-.6-.9-1-1.6-1.2-2-.2-.4-.3-.7-.3-.9 0-.4.3-.7.9-.9.3-.1 1-.1 1.9-.1v-.5h-9.8v.5c.9 0 1.6.2 2 .5.5.3 1.1 1.1 1.8 2.4l9 15.1h.6l8.1-15.4c.5-1.1 1.1-1.8 1.7-2.1.4-.2.9-.4 1.7-.5v-.5h-7.5v.4zM95 214.1c-1.2.4-3 .6-5.5.6-2.3 0-3.7 0-4.1-.1-.5-.1-.7-.4-.7-1v-6.8h5.6c1.6 0 2.5.2 3 .5.4.3.8 1 1.1 2.1h.9V203h-.9c-.3 1.1-.6 1.8-1 2.1s-1.4.5-3 .5h-5.6v-6.1c0-.4.1-.6.2-.7.1-.1.5-.2 1-.2h5c2.1 0 3.5.2 4.2.5.6.4 1.1 1.1 1.4 2.4h.9l-.1-3.9H77.8v.5c1.4.1 2.2.3 2.6.6.4.3.6.9.6 1.9v12.2c0 1-.2 1.7-.6 1.9-.4.3-1.3.4-2.6.5v.5h19.8l1.7-4.6h-1c-1 1.6-2.1 2.6-3.3 3zM123.3 214l-7.6-7c2-.2 3.7-.7 4.8-1.4 1.2-.7 1.8-1.8 1.8-3.2 0-2-1.3-3.4-4-4.2-1.4-.4-3.2-.6-5.3-.6h-10.1v.5c1.3.1 2.2.3 2.6.6.4.3.6.9.6 1.9v11.9c0 1.1-.2 1.9-.5 2.2-.3.3-1.2.5-2.6.6v.5h10.2v-.5c-1.4-.1-2.3-.3-2.7-.5-.4-.3-.6-.9-.6-1.9v-5.4l2-.1 8.7 8.4h5.9v-.5c-.7-.1-1.3-.2-1.8-.4s-.9-.5-1.4-.9zm-13.5-7.6v-6.8c0-.4.1-.7.3-.8.2-.1.9-.2 1.9-.2 1.5 0 2.8.2 3.7.5 1.7.6 2.6 1.7 2.6 3.3 0 1.7-1 2.8-2.9 3.4-1.1.3-2.9.5-5.6.6zM140.2 205.8l-3.2-1.5c-1.2-.6-2.1-1.1-2.7-1.6-.6-.5-.9-1.1-.9-1.8 0-.8.4-1.4 1.1-1.8.8-.4 1.6-.7 2.6-.7 1.3 0 2.6.3 3.9 1 1.3.7 2.3 1.9 2.9 3.7h.9l-.8-5.8h-.8c-.1.3-.2.5-.4.7-.2.2-.5.2-.9.2-.2 0-.8-.2-2-.5s-2.2-.5-3-.5c-2 0-3.7.5-4.9 1.4-1.2.9-1.8 2.1-1.8 3.5 0 1 .5 2 1.6 2.9.6.5 1.3.9 2.3 1.4l3.1 1.5c1.8.8 3 1.5 3.5 1.9.9.7 1.3 1.4 1.3 2.3 0 1-.4 1.8-1.3 2.3-.8.6-1.9.8-3 .8-2.2 0-4-.6-5.4-1.9-.8-.7-1.6-1.7-2.2-2.9h-.8l1.1 5.8h.8c0-.2.1-.4.3-.6.2-.2.4-.3.9-.3.2 0 .9.2 2.1.5 1.2.3 2.4.5 3.6.5 2.3 0 4.1-.5 5.5-1.4 1.5-1 2.2-2.2 2.2-3.6 0-1.1-.4-2-1.2-2.8-.9-.9-2.3-1.8-4.4-2.7zM150.2 198.2c1.5.1 2.5.2 2.9.5.4.3.7.9.7 1.9v12.2c0 1.1-.2 1.7-.7 2-.4.2-1.4.4-2.9.5v.5H161v-.5c-1.5-.1-2.5-.2-2.9-.5-.4-.3-.7-.9-.7-2v-12.2c0-1 .2-1.7.7-1.9.4-.3 1.4-.5 2.9-.5v-.5h-10.8v.5zM182.8 214c-1.6.7-3.3 1-5.2 1-2.6 0-4.8-.7-6.5-2.2-1.7-1.5-2.6-3.4-2.6-5.9 0-2.7.8-4.8 2.4-6.3 1.6-1.5 3.7-2.3 6.3-2.3 2.5 0 4.6.7 6.1 2.1.8.8 1.4 1.7 1.9 3h.8l-.3-6.2h-.7c-.1.3-.3.5-.6.7-.3.1-.6.2-1 .2-.2 0-.9-.1-2.3-.4-1.4-.3-2.8-.4-4.1-.4-3.8 0-6.9 1-9.3 2.9-2.3 1.8-3.4 4.1-3.4 6.7 0 2.6 1.1 4.8 3.2 6.5 2.3 1.9 5.4 2.8 9.4 2.8 2.4 0 4.6-.5 6.7-1.5 1.2-.6 2.2-1.3 3-2l-.7-.5c-1.1.8-2.2 1.4-3.1 1.8zM205.3 198.2c1.4.1 2.2.3 2.6.5.4.3.6.9.6 1.9v5.3h-11.1v-5.3c0-1 .2-1.6.6-1.9.4-.3 1.3-.5 2.6-.5v-.5h-10.2v.5c1.3.1 2.2.3 2.6.5.4.3.6.9.6 1.9v11.9c0 1.2-.2 1.9-.5 2.2-.4.3-1.3.5-2.7.6v.5h10.2v-.5c-1.3-.1-2.2-.3-2.6-.5-.4-.3-.6-.9-.6-1.9v-5.7h11.1v5.3c0 1.2-.2 1.9-.5 2.2-.3.3-1.2.5-2.7.6v.5h10.2v-.5c-1.3-.1-2.2-.3-2.6-.5-.4-.3-.6-.9-.6-1.9v-12.2c0-1 .2-1.6.6-1.9.4-.3 1.3-.5 2.6-.5v-.5h-10.2v.4zM236.9 214.1c-1.2.4-3 .6-5.5.6-2.3 0-3.7 0-4.1-.1-.5-.1-.7-.4-.7-1v-6.8h5.6c1.6 0 2.5.2 3 .5.4.3.8 1 1.1 2.1h.9V203h-.9c-.3 1.1-.6 1.8-1 2.1-.4.3-1.4.5-3 .5h-5.6v-6.1c0-.4.1-.6.2-.7.1-.1.5-.2 1-.2h5c2.1 0 3.5.2 4.2.5.6.4 1.1 1.1 1.4 2.4h.9l-.1-3.9h-19.5v.5c1.4.1 2.2.3 2.6.6.4.3.6.9.6 1.9v12.2c0 1-.2 1.7-.6 1.9-.4.3-1.3.4-2.6.5v.5h19.8l1.7-4.6h-1c-1.1 1.6-2.2 2.6-3.4 3zM265.1 214l-7.6-7c2-.2 3.7-.7 4.8-1.4 1.2-.7 1.8-1.8 1.8-3.2 0-2-1.3-3.4-4-4.2-1.4-.4-3.2-.6-5.3-.6h-10.1v.5c1.3.1 2.2.3 2.6.6.4.3.6.9.6 1.9v11.9c0 1.1-.2 1.9-.5 2.2-.3.3-1.2.5-2.6.6v.5H255v-.5c-1.4-.1-2.3-.3-2.7-.5-.4-.3-.6-.9-.6-1.9v-5.4l2-.1 8.7 8.4h5.9v-.5c-.7-.1-1.3-.2-1.8-.4s-1-.5-1.4-.9zm-13.5-7.6v-6.8c0-.4.1-.7.3-.8.2-.1.9-.2 1.9-.2 1.5 0 2.8.2 3.7.5 1.7.6 2.6 1.7 2.6 3.3 0 1.7-1 2.8-2.9 3.4-1.1.3-3 .5-5.6.6zM285.4 198.2c1.3.1 2.2.3 2.7.7.5.4.7 1.3.7 2.8v7.1c0 1.8-.3 3-.9 3.9-1 1.5-3 2.2-6 2.2-2.7 0-4.6-.7-5.6-2.2-.5-.8-.8-1.9-.8-3.4v-8.8c0-1 .2-1.7.6-1.9.4-.3 1.3-.5 2.7-.5v-.5h-10.4v.5c1.4.1 2.3.3 2.7.5.4.3.6.9.6 1.9v8.6c0 1.7.4 3.1 1.2 4.1 1.4 1.9 4.1 2.9 8.1 2.9s6.7-1 8.2-2.9c.8-1.1 1.2-2.5 1.2-4.4v-7.1c0-1.4.2-2.4.6-2.7.4-.4 1.4-.7 2.8-.8v-.5h-8.5v.5zM313.7 198.2c1.3.1 2.2.3 2.6.6.6.5.9 1.4.9 3v9.2l-14.1-13.2h-6.3v.5c.7 0 1.3.1 1.7.2.4.1.8.4 1.4.9l.5.4v12.1c0 1.4-.2 2.4-.6 2.8-.4.4-1.4.6-2.9.8v.5h8.6v-.5c-1.3-.1-2.2-.3-2.6-.6-.6-.5-.9-1.4-.9-2.9v-10.7l16.2 15.1h.6V202c0-1.4.2-2.4.7-2.8.5-.4 1.4-.7 2.8-.8v-.5h-8.6v.3zM340.3 206.6c1.3.1 2.2.2 2.6.5.4.3.6.9.6 2v4.4c0 .3-.1.5-.3.7-.2.2-.8.3-1.6.5-.5.1-1.1.2-1.7.3-.6.1-1.1.1-1.6.1-2.6 0-4.8-.7-6.6-2.1-1.8-1.4-2.7-3.4-2.7-5.9 0-3.1.9-5.3 2.7-6.6 1.8-1.3 3.9-2 6.2-2 2.3 0 4.2.6 5.6 1.7.8.7 1.6 1.6 2.3 3h.8l-.3-5.8h-.8c-.2.3-.3.5-.6.7-.2.2-.6.2-1.1.2-.2 0-1-.1-2.4-.4-1.4-.3-2.8-.4-4.2-.4-3.9 0-7.1 1-9.4 3-2.2 1.8-3.2 4-3.2 6.6 0 2.9 1.4 5.2 4.1 6.9 2.5 1.6 5.5 2.3 9.1 2.3 1.9 0 4-.3 6.1-.8 2.1-.5 3.2-1 3.2-1.3v-5.4c0-.9.3-1.5.8-1.8.3-.2.9-.3 1.8-.3v-.5h-9.3v.4zM369.6 214.1c-1.2.4-3 .6-5.5.6-2.3 0-3.7 0-4.1-.1-.5-.1-.7-.4-.7-1v-6.8h5.6c1.6 0 2.5.2 3 .5.4.3.8 1 1.1 2.1h.9V203h-.9c-.3 1.1-.6 1.8-1 2.1-.4.3-1.4.5-3 .5h-5.6v-6.1c0-.4.1-.6.2-.7.1-.1.5-.2 1-.2h5c2.1 0 3.5.2 4.2.5.6.4 1.1 1.1 1.4 2.4h.9l-.1-3.9h-19.5v.5c1.4.1 2.2.3 2.6.6.4.3.6.9.6 1.9v12.2c0 1-.2 1.7-.6 1.9-.4.3-1.3.4-2.6.5v.5h19.8l1.7-4.6h-1c-1.1 1.6-2.2 2.6-3.4 3zM394 197.7v.5c1.3.1 2.2.3 2.6.6.6.5.9 1.4.9 3v9.2l-14.1-13.2h-6.3v.5c.8 0 1.3.1 1.7.2.4.1.8.4 1.4.9l.5.4v12.1c0 1.4-.2 2.4-.6 2.8-.4.4-1.4.6-2.9.8v.5h8.6v-.5c-1.3-.1-2.2-.3-2.6-.6-.6-.5-.9-1.4-.9-2.9v-10.7l16.2 15.1h.6V202c0-1.4.2-2.4.7-2.8.5-.4 1.4-.7 2.8-.8v-.5H394z"/></g><path class="st1" d="M321.5 42.7c-.2.1-17.9 10.1-78.1 11.4.9-3.1 1.2-5.1 1.2-5.2l.1-.6H232c-1.6-3.5-3.1-6.1-4-7.7l4.4 2.5v-4.8h-6l-.3.6c-2.2 2.7-4 6-5.6 9.4H208l.1.6c.3 1.8.7 3.5 1.2 5.1-60.2-1.3-77.9-11.3-78.1-11.4l-1-.6 10.5 52.7.7-.5c17.2-13.2 65.8-23.4 72.4-24.8-1.5 7.3-2.1 13-2.2 14.1l-5.8 5h40.8l-5.1-4.9c-.3-4.8-1.1-9.5-2.2-14 6.6 1.3 54.6 11.5 71.8 24.7l.7.5 10.5-52.7-.8.6zm-12.9 5.5c-4.7 1.7-10.8 3.8-18.1 5.9-3.2.9-6.6 1.8-10.3 2.8h-.1c-3.4.9-7 1.7-10.7 2.6-5.5 1.2-11.4 2.4-17.7 3.5-3.3-1.1-6.7-2.3-10.2-3.4.7-1.6 1.3-3.1 1.7-4.5 33.4-.7 53.8-4 65.4-6.9zM241 60.5c3 .9 5.8 1.9 8.6 2.8-3.5.6-7.2 1.2-11 1.8.9-1.6 1.7-3.1 2.4-4.6zm-3 3.6c-.5-1.6-1-3.2-1.5-4.7.7-2.7 1.5-8.4 1.8-10h5.3c-.4 1.8-1.7 7.8-5.6 14.7zm-.8-14.7c-.2 1.5-.8 5.4-1.4 8.2-1.1-3-2.3-5.8-3.4-8.2h4.8zm-5.8-10v2l-3.5-2h3.5zm-4.9.7c.7 1.2 2.4 4.1 4.3 8.2h-9.2c1.5-2.9 3.1-5.7 4.9-8.2zm-6.4 9.3c-1.2 2.8-2.3 5.6-3.2 8.5-.8-3-1.3-7-1.4-8.5h4.6zm-10.8 0h5.2c.2 1.6.9 7.1 1.9 10.3-.5 1.6-.9 3.2-1.3 4.8-2.5-4.2-4.7-9.3-5.8-15.1zm5 15.7c-3.8-.6-7.5-1.1-11-1.8 2.8-.9 5.6-1.9 8.6-2.8.7 1.7 1.5 3.2 2.4 4.6zm-4.6-10c.5 1.6 1.1 3 1.7 4.5-3.6 1.1-7 2.3-10.2 3.4-26.1-4.6-45.2-10.5-56.7-14.7 11.6 2.9 31.9 6.1 65.2 6.8zm-52-1.4c-9.4-1.1-22.8-4.5-25-5.1l-.9-4.3c2.7 1.3 11.5 5.1 25.9 9.4zm4.6 1.4c1.8.5 3.6 1 5.6 1.6-10.3-.6-31-2-34.1-2.2l-.9-4.7c3.9 1 20.8 5.2 29.4 5.3zm10.4 2.8c1 .3 2 .5 3 .8-9.9.6-37 1.3-40.7 1.4l-.9-4.6c4.6.3 32.8 2.3 38.6 2.4zm6.2 1.5l1.5.3c-14.3 1.6-40.5 5.3-44.3 5.8l-.9-4.5c5.1 0 38.9-1 43.7-1.6zm4.6 1.1c.5.1 1.1.2 1.6.4-26.9 4.2-44.6 9.3-47.9 10.3l-.9-4.5c4.3-.7 33.9-4.9 47.2-6.2zm4.4.9l1.5.3c-28 5.9-44.9 12.1-51.1 14.7l-.9-4.3c3-.9 21.8-6.4 50.5-10.7zm4 .9c.3.1.6.1.9.2-31.3 7.6-50 17.4-53.5 19.3l-.9-4.3c6.2-2.6 23.9-9.2 53.5-15.2zm3.3.6c.3.1.6.1.8.2-35.1 9.5-52.2 21.7-55.6 24.3l-.9-4.6c2.6-1.5 22.2-12 55.7-19.9zm3.2.6c.3.1.6.1.9.2-37.1 13.1-54.3 26.1-57.8 29l-.8-4.1c2.1-1.8 19.5-15.1 57.7-25.1zM148.2 89c8.5-5.6 25.3-15.3 53.1-25 4.3.8 8.7 1.5 13.4 2.2-.2.8-.4 1.6-.5 2.3-4.1.8-44.4 9.1-66 20.5zm60.5-1.4l3.5-2.9 2.3 2.9h-5.8zm7.6 0h-.5l-3-3.8c.1-1.3.8-8.2 2.8-16.7.9 1.4 1.8 2.6 2.7 3.7-.5 1.3-2.4 8.5-2 16.8zm2.7-15.8c1.1 1.3 2.1 2.4 3 3.4-.2.9-.9 3.6-.5 7.6l-4.1 4.2c-.4-7 1-13 1.6-15.2zm-.9 15.8l6.5-6.6-3.8 6.6h-2.7zm4.7-11.6c1.3 1.2 2.3 2.1 2.8 2.5l-3.2 3.3c-.2-2.7.2-4.8.4-5.8zm3 11.6H222l3.8-6.7v6.7zm-10-21.9c1.3-5.3 3-11 5.4-16.3h10.1c2 4.3 4.1 9.7 5.9 15.9-2.5 4.2-6 8.6-10.9 12.5-1.2-1-6.1-5.2-10.5-12.1zM235.5 87l-4.1-4.2c.3-4.1-.3-6.8-.6-7.7 1.1-1.1 2.1-2.2 3-3.3 2 6.6 1.9 12.8 1.7 15.2zm-5.1-5.2l-3.3-3.3c1-.8 1.9-1.7 2.8-2.5.3 1 .6 3.1.5 5.8zm-3.5 5.8v-6.7l3.9 6.7h-3.9zm5 0l-3.9-6.7 6.6 6.7h-2.7zm6.4 0l2.9-3 3 3h-5.9zm2.4-3.8l-3.8 3.9h-.5c.2-2 .6-9.2-1.8-16.8 1.1-1.4 2.1-2.9 3-4.3 1.5 5.3 2.6 11.1 3.1 17.2zm-1.5-15.2c-.2-.8-.4-1.7-.7-2.5 4.5-.7 8.8-1.4 13-2.1 27.6 9.6 44.5 19.3 53 24.9-21.5-11.3-61.4-19.5-65.3-20.3zm72.1 24c-3.5-2.8-20.7-15.8-57.8-28.9.3-.1.6-.1.9-.2 38.2 10 55.6 23.3 57.7 25l-.8 4.1zm1.1-5.2c-3.4-2.7-20.5-14.8-55.6-24.3.3-.1.6-.1.8-.2 33.5 7.8 53.1 18.4 55.7 19.9l-.9 4.6zm1.1-5.7C310 79.8 291.3 70 260 62.4c.3-.1.6-.1.9-.2 29.6 6 47.2 12.6 53.4 15.1l-.8 4.4zm1.1-5.3c-6.2-2.5-23.1-8.8-51.1-14.6l1.5-.3c28.6 4.3 47.4 9.8 50.5 10.7l-.9 4.2zm1-5.3c-3.3-1-21-6.1-47.8-10.3.5-.1 1.1-.2 1.6-.4 13.3 1.3 42.8 5.5 47.1 6.1l-.9 4.6zm1.1-5.5c-3.8-.5-29.9-4.2-44.2-5.8l1.5-.3c5.1.6 38.6 1.5 43.7 1.6l-1 4.5zm1.1-5.5c-3.7-.1-30.6-.8-40.6-1.4 1-.3 2.1-.5 3.1-.8 6-.1 33.8-2.1 38.5-2.4l-1 4.6zm1.2-5.6c-3 .2-23.6 1.6-33.9 2.2 1.9-.5 3.8-1 5.6-1.6 8.7-.2 25.4-4.4 29.3-5.4l-1 4.8zm1.1-5.9c-2.2.6-15.4 3.9-24.8 5.1 14.3-4.4 23-8.2 25.7-9.4l-.9 4.3z"/></svg>
