<svg width="128" height="64" viewBox="0 0 128 64" fill="none" xmlns="http://www.w3.org/2000/svg">
<g clip-path="url(#clip0_44244_153494)">
<path d="M31.5983 38.9834H29.9653L28.9923 34.7444H28.9651C28.795 35.4316 28.6385 36.1392 28.4888 36.8673C28.3391 37.5953 28.1826 38.2961 28.0125 38.9902H26.3523L24.522 32.2948H26.4135L27.2573 36.2141H27.2845L28.203 32.2948H29.836L30.7546 36.2141H30.7818L31.6392 32.2948H33.5035L31.5983 38.9902V38.9834ZM38.2188 32.288H40.124V36.3774C40.124 37.3776 39.8654 38.092 39.3483 38.5343C38.8312 38.9766 38.0827 39.1943 37.0961 39.2011C36.5586 39.2011 36.1027 39.1331 35.7353 39.0038C35.3951 38.8881 35.0821 38.6976 34.8303 38.4458C34.5922 38.2077 34.4153 37.9083 34.32 37.5817C34.2111 37.2211 34.1635 36.84 34.1703 36.4658V32.288H36.1231V36.1596C36.1231 36.391 36.1367 36.6223 36.1776 36.8469C36.2048 37.0033 36.266 37.1462 36.3545 37.2755C36.4361 37.3844 36.5518 37.4592 36.6811 37.5001C36.8444 37.5477 37.0077 37.5681 37.1778 37.5613C37.5452 37.5613 37.8106 37.4592 37.9671 37.2619C38.1304 37.0646 38.212 36.6836 38.212 36.1324V32.288H38.2188ZM35.538 31.5464C35.2454 31.56 34.9596 31.4511 34.7487 31.247C34.3404 30.8456 34.3404 30.1924 34.7419 29.7841L34.7487 29.7773C34.9596 29.5732 35.2454 29.4643 35.538 29.4779C35.8169 29.4711 36.0891 29.58 36.2864 29.7773C36.6879 30.1855 36.6879 30.8388 36.2864 31.247C36.0891 31.4443 35.8169 31.5532 35.538 31.5464ZM38.8312 31.5464C38.5386 31.56 38.2528 31.4511 38.0351 31.247C37.6268 30.8456 37.6268 30.1924 38.0283 29.7841L38.0351 29.7773C38.246 29.5732 38.5318 29.4643 38.8244 29.4779C39.1034 29.4711 39.3755 29.58 39.5728 29.7773C39.9743 30.1855 39.9743 30.8388 39.5728 31.247C39.3755 31.4443 39.1034 31.5532 38.8244 31.5464H38.8312ZM44.4719 32.1315C44.6147 32.1315 44.7508 32.1384 44.8937 32.1588C45.0026 32.1724 45.1046 32.1928 45.2135 32.22V34.0095C45.0434 33.9483 44.8733 33.9074 44.6964 33.8802C44.5467 33.8598 44.397 33.8462 44.2405 33.8394C44.084 33.8394 43.9343 33.8598 43.7846 33.9006C43.6349 33.9415 43.5057 34.0163 43.3968 34.1252C43.2743 34.2477 43.1791 34.3973 43.1246 34.5606C43.0498 34.7784 43.0158 35.0097 43.0226 35.2411V38.9698H41.1718V32.2812H42.9477V32.9344C43.1246 32.7031 43.3424 32.5058 43.5941 32.3629C43.8595 32.2064 44.1657 32.1315 44.4719 32.1315ZM50.0105 38.8881C49.7927 38.9834 49.5546 39.0446 49.3164 39.0786C49.0647 39.1126 48.8061 39.1331 48.5476 39.1399C47.9012 39.1399 47.4045 38.9834 47.0506 38.6704C46.6968 38.3574 46.5267 37.8811 46.5267 37.2415V33.8054H45.7238V32.288H46.5267V30.1924H48.4319V32.288H49.8744V33.8054H48.4319V36.7924C48.4319 37.1122 48.4999 37.3368 48.636 37.466C48.7857 37.5953 48.9762 37.6634 49.1736 37.6497C49.4593 37.6361 49.7383 37.5749 50.0037 37.4728V38.8881H50.0105ZM54.6577 38.8881C54.44 38.9834 54.2019 39.0446 53.9637 39.0786C53.712 39.1126 53.4534 39.1331 53.1948 39.1399C52.5484 39.1399 52.0517 38.9834 51.6979 38.6704C51.3441 38.3574 51.174 37.8811 51.174 37.2415V33.8054H50.3711V32.288H51.174V30.1924H53.0792V32.288H54.5216V33.8054H53.0792V36.7924C53.0792 37.1122 53.1472 37.3368 53.2833 37.466C53.433 37.5953 53.6235 37.6634 53.8208 37.6497C54.1066 37.6361 54.3856 37.5749 54.6509 37.4728V38.8881H54.6577ZM58.3728 32.1315C59.2846 32.1315 59.9854 32.4241 60.4889 33.0093C60.9856 33.5944 61.2374 34.4314 61.2374 35.5132V35.8466C61.2374 35.9487 61.2238 36.0576 61.2034 36.18H57.1277C57.1413 36.5951 57.2637 36.9285 57.4815 37.1735C57.6992 37.4184 58.0258 37.5409 58.4613 37.5409C58.7539 37.5409 59.0464 37.4592 59.2914 37.3027C59.4955 37.1735 59.6792 37.017 59.8425 36.8332L60.9924 38.0716C60.591 38.4731 60.1759 38.7452 59.7473 38.8949C59.3322 39.0446 58.8899 39.1195 58.4477 39.1195C57.8965 39.1195 57.4134 39.0378 57.012 38.8745C56.6241 38.7248 56.2839 38.4867 56.0118 38.1805C55.7396 37.8675 55.5423 37.4932 55.4266 37.0986C55.2973 36.6427 55.2293 36.1664 55.2361 35.6833C55.2361 35.1866 55.3041 34.6967 55.4538 34.2272C55.5899 33.8122 55.8008 33.4311 56.0866 33.1045C56.3588 32.7916 56.699 32.5398 57.08 32.3765C57.4951 32.1996 57.9374 32.1111 58.3864 32.1179L58.3728 32.1315ZM58.2708 33.6557C58.1007 33.6557 57.9305 33.6829 57.7741 33.7577C57.6448 33.819 57.5291 33.9142 57.4338 34.0231C57.3454 34.1388 57.2705 34.2681 57.2229 34.4041C57.1685 34.5538 57.1345 34.7103 57.1208 34.8668H59.3934C59.3866 34.5062 59.2846 34.2204 59.1009 33.9891C58.9104 33.7646 58.6382 33.6489 58.2708 33.6489V33.6557ZM69.9604 38.9766V35.1866C69.9604 34.6423 69.8719 34.2749 69.7018 34.0912C69.5317 33.9074 69.2731 33.8122 68.9193 33.8122C68.5655 33.8122 68.3273 33.9142 68.164 34.1252C68.0007 34.3361 67.9191 34.6831 67.9191 35.1662V38.9834H66.0139V35.1322C66.0139 34.6355 65.9323 34.2953 65.769 34.098C65.6057 33.9006 65.3539 33.8054 65.0137 33.8054C64.6735 33.8054 64.4081 33.9142 64.238 34.1252C64.0679 34.3361 63.9795 34.6899 63.9795 35.173V38.9766H62.0743V32.2812H63.857V32.88C64.0611 32.6351 64.3197 32.4445 64.6191 32.3221C64.9185 32.1928 65.2382 32.1247 65.558 32.1247C66.4426 32.1247 67.055 32.4309 67.3816 33.0433C67.504 32.914 67.6265 32.7916 67.7626 32.6827C67.9055 32.567 68.0552 32.465 68.2253 32.3901C68.409 32.3085 68.6063 32.2404 68.8036 32.1996C69.0486 32.152 69.2935 32.1247 69.5385 32.1315C69.9672 32.1315 70.321 32.1928 70.6068 32.3153C70.8789 32.4241 71.1171 32.6078 71.294 32.8324C71.4777 33.0705 71.607 33.3427 71.6682 33.6285C71.7499 33.9687 71.7839 34.3089 71.7839 34.6559V38.9698H69.9467L69.9604 38.9766ZM78.867 35.6357C78.867 36.1052 78.8126 36.5747 78.6901 37.0306C78.5881 37.4252 78.4112 37.7994 78.173 38.1328C77.9553 38.439 77.6695 38.6908 77.3429 38.8677C77.0027 39.0514 76.6217 39.1399 76.2406 39.1331C75.9208 39.1331 75.601 39.0786 75.3084 38.963C75.0499 38.8541 74.8117 38.6976 74.6212 38.4935L74.56 38.9766H72.8862V30.1924H74.7505V32.6419C74.941 32.499 75.152 32.3833 75.3765 32.2948C75.6827 32.1792 76.0093 32.1247 76.3359 32.1315C76.6693 32.1315 77.0027 32.1928 77.3089 32.3221C77.6219 32.4581 77.9008 32.6623 78.1186 32.9276C78.3771 33.2474 78.5609 33.6149 78.6765 34.0095C78.8126 34.4518 78.8806 34.9961 78.8806 35.6357H78.867ZM76.9891 35.5677C76.9891 34.9553 76.887 34.4994 76.6761 34.2C76.4924 33.9142 76.1794 33.7441 75.8392 33.7509C75.6282 33.7509 75.4241 33.7918 75.2336 33.8734C75.0499 33.9551 74.8866 34.0639 74.7437 34.2V37.0102C74.8866 37.1394 75.0431 37.2551 75.2132 37.3436C75.4037 37.4524 75.6214 37.5069 75.846 37.5069C76.1862 37.5205 76.5128 37.3504 76.6965 37.0646C76.8938 36.772 76.9959 36.2685 76.9959 35.5609L76.9891 35.5677ZM82.7046 32.1315C83.6164 32.1315 84.3172 32.4241 84.8207 33.0093C85.3242 33.5944 85.5692 34.4314 85.5692 35.5132V35.8466C85.5692 35.9487 85.5556 36.0576 85.5352 36.18H81.4594C81.473 36.5951 81.5955 36.9285 81.8133 37.1735C82.031 37.4184 82.3576 37.5409 82.7931 37.5409C83.0856 37.5409 83.3782 37.466 83.6232 37.3027C83.8273 37.1735 84.011 37.017 84.1743 36.8332L85.3242 38.0716C84.9228 38.4731 84.5077 38.7452 84.0791 38.8949C83.664 39.0446 83.2217 39.1195 82.7795 39.1195C82.2283 39.1195 81.7452 39.0378 81.3438 38.8745C80.9559 38.7248 80.6089 38.4867 80.3367 38.1805C80.0646 37.8675 79.8673 37.4932 79.7516 37.0986C79.6155 36.6427 79.5543 36.1664 79.5611 35.6833C79.5611 35.1866 79.6291 34.6967 79.7788 34.2272C79.9149 33.8122 80.1258 33.4311 80.4116 33.1045C80.6838 32.7916 81.024 32.5398 81.405 32.3765C81.8201 32.1996 82.2623 32.1111 82.7114 32.1179L82.7046 32.1315ZM82.6025 33.6489C82.4324 33.6489 82.2623 33.6761 82.1058 33.7509C81.9766 33.8122 81.8609 33.9074 81.7656 34.0163C81.6704 34.132 81.6023 34.2613 81.5547 34.3973C81.5003 34.547 81.4662 34.7035 81.4526 34.86H83.7252C83.7184 34.4994 83.6164 34.2136 83.4327 33.9823C83.2421 33.7577 82.97 33.6421 82.6025 33.6421V33.6489ZM89.7265 32.1315C89.8694 32.1315 90.0055 32.1384 90.1484 32.1588C90.2573 32.1724 90.3661 32.1928 90.4682 32.22V34.0095C90.2981 33.9483 90.128 33.9074 89.9511 33.8802C89.8014 33.8598 89.6517 33.8462 89.4952 33.8394C89.3387 33.8394 89.189 33.8598 89.0393 33.9006C88.8964 33.9415 88.7603 34.0163 88.6515 34.1252C88.529 34.2477 88.4405 34.3973 88.3861 34.5606C88.3113 34.7784 88.2772 35.0097 88.284 35.2411V38.9698H86.4333V32.2812H88.2092V32.9344C88.3861 32.7031 88.6038 32.5058 88.8556 32.3629C89.121 32.2064 89.4203 32.1315 89.7333 32.1315H89.7265ZM96.8097 38.5275C96.8097 38.9698 96.7757 39.412 96.6872 39.8475C96.6192 40.2013 96.4627 40.5347 96.2381 40.8205C96 41.0995 95.687 41.3104 95.34 41.4193C94.959 41.5554 94.4691 41.6234 93.8703 41.6234C93.3668 41.6234 92.8701 41.5554 92.3802 41.4193C91.9243 41.3036 91.4888 41.1131 91.0942 40.8613L91.7202 39.4801C92.0468 39.657 92.387 39.8135 92.7408 39.9428C93.1014 40.072 93.4824 40.1333 93.8635 40.1333C94.2921 40.1333 94.5779 40.0312 94.7276 39.8339C94.8773 39.6298 94.9522 39.3236 94.9522 38.8949V38.5003C94.7889 38.6568 94.5983 38.7792 94.3874 38.8609C94.122 38.9493 93.8499 38.997 93.5709 38.9902C93.2171 38.9902 92.8565 38.9357 92.5231 38.8133C92.1964 38.6908 91.9039 38.4935 91.6657 38.2417C91.4004 37.9423 91.1962 37.5885 91.0806 37.2007C90.9377 36.772 90.8696 36.2413 90.8696 35.6085C90.8696 35.1186 90.9241 34.6355 91.0601 34.166C91.169 33.7714 91.3595 33.4039 91.6045 33.0841C91.829 32.7916 92.1216 32.5534 92.455 32.3969C92.802 32.2336 93.1831 32.152 93.5641 32.152C94.1697 32.152 94.6732 32.3493 95.0746 32.7507V32.3017H96.7961V38.5479L96.8097 38.5275ZM94.959 34.1592C94.8161 34.0299 94.646 33.9279 94.4691 33.853C94.2921 33.7714 94.1084 33.7305 93.9111 33.7237C93.5301 33.7237 93.2443 33.8734 93.047 34.166C92.8565 34.4586 92.7612 34.9213 92.7612 35.5541C92.7612 36.7856 93.1286 37.4048 93.8703 37.4048C94.0948 37.4116 94.3126 37.3708 94.5235 37.2891C94.68 37.2211 94.8297 37.1258 94.959 37.017V34.1592ZM106.472 36.9489C106.478 37.2891 106.417 37.6293 106.281 37.9423C106.159 38.2145 105.975 38.4458 105.737 38.6227C105.485 38.8065 105.199 38.9357 104.9 39.0106C104.553 39.099 104.199 39.1399 103.838 39.1399C103.566 39.1399 103.294 39.1195 103.022 39.0786C102.75 39.0378 102.484 38.9834 102.226 38.9153C101.974 38.8473 101.729 38.7588 101.491 38.6568C101.28 38.5683 101.069 38.4594 100.879 38.3302L101.491 36.9013C101.845 37.0918 102.212 37.2619 102.593 37.3912C102.967 37.5341 103.362 37.6089 103.764 37.6157C104.036 37.6157 104.233 37.5817 104.356 37.5137C104.478 37.4456 104.539 37.3231 104.539 37.1462C104.539 36.9693 104.444 36.8196 104.253 36.7244C104.063 36.6291 103.73 36.5203 103.253 36.391C102.995 36.3229 102.743 36.2413 102.478 36.146C102.226 36.0576 101.988 35.9283 101.777 35.7718C101.566 35.6085 101.389 35.4112 101.26 35.1798C101.124 34.9417 101.056 34.6355 101.056 34.2613C101.056 33.6081 101.287 33.0909 101.75 32.7099C102.212 32.3289 102.872 32.1452 103.723 32.1384C104.219 32.1384 104.709 32.2132 105.186 32.3561C105.614 32.4786 106.023 32.6759 106.383 32.9412L105.58 34.2545C105.261 34.0707 104.927 33.921 104.573 33.8054C104.294 33.7101 104.002 33.6625 103.709 33.6489C103.233 33.6489 102.995 33.785 102.995 34.0571C102.995 34.3293 103.09 34.3565 103.28 34.4382C103.593 34.5674 103.906 34.6763 104.233 34.7716C104.532 34.8668 104.811 34.9689 105.084 35.071C105.342 35.173 105.58 35.3091 105.791 35.4792C105.995 35.6425 106.159 35.8466 106.281 36.078C106.41 36.3433 106.478 36.6427 106.465 36.9353L106.472 36.9489ZM113.221 37.7518C113.065 37.9423 112.888 38.1192 112.697 38.2825C112.5 38.4526 112.282 38.5955 112.051 38.7248C111.806 38.8541 111.554 38.9561 111.282 39.0242C110.99 39.099 110.683 39.1331 110.384 39.1331C109.935 39.1331 109.486 39.0582 109.071 38.8949C108.69 38.7452 108.35 38.5139 108.071 38.2145C107.785 37.8947 107.574 37.5273 107.438 37.119C107.281 36.6495 107.206 36.1528 107.213 35.6561C107.213 35.173 107.281 34.6899 107.438 34.2272C107.574 33.8122 107.798 33.4311 108.091 33.1114C108.377 32.7984 108.731 32.5534 109.125 32.3901C109.561 32.2132 110.03 32.1247 110.5 32.1315C110.806 32.1315 111.112 32.1724 111.405 32.254C111.67 32.3289 111.922 32.4377 112.16 32.5806C112.378 32.7099 112.589 32.8664 112.772 33.0433C112.949 33.2066 113.113 33.3903 113.255 33.5808L112.051 34.7444C111.949 34.6151 111.84 34.4994 111.731 34.3837C111.622 34.2681 111.507 34.166 111.377 34.0775C111.112 33.887 110.792 33.785 110.466 33.7918C110.085 33.785 109.717 33.9483 109.465 34.2408C109.2 34.5402 109.071 35.0165 109.071 35.6697C109.071 36.3229 109.2 36.7992 109.465 37.0918C109.717 37.3776 110.078 37.5409 110.466 37.5341C110.786 37.5409 111.105 37.4524 111.371 37.2755C111.643 37.0918 111.888 36.8673 112.099 36.6087L113.215 37.7586L113.221 37.7518ZM118.175 38.9766V35.2887C118.175 34.7171 118.08 34.3293 117.896 34.1184C117.705 33.9074 117.447 33.8054 117.107 33.8054C116.732 33.8054 116.453 33.921 116.263 34.1456C116.072 34.3701 115.984 34.7716 115.984 35.3499V38.9766H114.079V30.1924H115.984V32.8392C116.195 32.6214 116.453 32.4513 116.732 32.3357C117.066 32.1996 117.426 32.1315 117.787 32.1384C118.604 32.1384 119.189 32.3765 119.549 32.8528C119.91 33.3291 120.087 34.0163 120.087 34.9213V38.9834H118.182L118.175 38.9766ZM124.135 32.1315C125.047 32.1315 125.748 32.4241 126.251 33.0093C126.755 33.5944 127 34.4314 127 35.5132V35.8466C127 35.9555 126.986 36.0712 126.966 36.18H122.89C122.911 36.5951 123.026 36.9285 123.244 37.1735C123.462 37.4184 123.788 37.5409 124.224 37.5409C124.516 37.5409 124.809 37.466 125.054 37.3027C125.258 37.1735 125.442 37.017 125.605 36.8332L126.755 38.0716C126.353 38.4731 125.938 38.7452 125.51 38.8949C125.095 39.0446 124.652 39.1195 124.21 39.1195C123.659 39.1195 123.176 39.0378 122.774 38.8745C122.387 38.7248 122.046 38.4867 121.767 38.1805C121.495 37.8675 121.298 37.4932 121.182 37.0986C121.053 36.6427 120.985 36.1664 120.992 35.6833C120.985 35.1866 121.06 34.6967 121.21 34.2272C121.346 33.8122 121.557 33.4311 121.842 33.1045C122.114 32.7916 122.455 32.5398 122.836 32.3765C123.251 32.1996 123.693 32.1111 124.142 32.1179L124.135 32.1315ZM124.033 33.6489C123.863 33.6489 123.693 33.6761 123.537 33.7509C123.407 33.8122 123.292 33.9074 123.196 34.0163C123.101 34.132 123.033 34.2613 122.985 34.3973C122.931 34.547 122.897 34.7035 122.883 34.86H125.156C125.149 34.4994 125.047 34.2136 124.863 33.9823C124.673 33.7577 124.401 33.6421 124.033 33.6489ZM98.9938 31.5396C98.7013 31.5532 98.4155 31.4443 98.2045 31.2402C97.7963 30.8388 97.7963 30.1855 98.1978 29.7773L98.2045 29.7705C98.4155 29.5664 98.7013 29.4575 98.9938 29.4711C99.2728 29.4643 99.545 29.5732 99.7423 29.7705C100.144 30.1787 100.144 30.8319 99.7423 31.2402C99.545 31.4443 99.2728 31.5532 98.9938 31.5464V31.5396ZM98.0208 38.9766V32.288H99.926V38.9834H98.0208V38.9766Z" fill="black"/>
<path d="M20.2899 22H1V41.2899H20.2899V22Z" fill="white"/>
<path d="M1 22V41.2899H20.2899V22H1ZM10.4442 37.3775L11.3083 38.3573C11.0294 38.8064 10.6075 38.8064 10.6075 38.8064C10.6075 38.8064 10.0224 38.8472 9.9271 38.2552C9.86586 37.8946 10.1857 37.5952 10.4442 37.3775ZM10.2265 36.037C10.2197 35.8261 10.3353 35.588 10.5939 35.5471C10.8253 35.5063 11.0022 35.69 11.043 35.8942C11.1246 36.3092 10.6143 36.6018 10.6143 36.6018C10.6143 36.6018 10.2333 36.3636 10.2197 36.0438L10.2265 36.037ZM17.6158 38.7859H15.4181L14.4247 34.4108L13.4789 38.7859H12.6828L12.1385 38.194C12.3086 37.8606 12.431 37.5136 12.5127 37.1461H11.8935C11.8459 37.3435 11.771 37.5272 11.6758 37.7041L11.0498 36.9964C11.0498 36.9964 11.8255 36.5338 11.669 35.7853C11.5737 35.3226 11.1314 34.8803 10.4646 34.9824C9.91349 35.0709 9.50524 35.622 9.65493 36.2616C9.72297 36.5065 9.85906 36.7243 10.0496 36.8876C10.0496 36.8876 9.02214 37.4795 9.17183 38.4389C9.19225 38.5614 9.23987 38.6771 9.30792 38.7859H7.83821L6.8448 34.4108L5.89221 38.7859H3.68766L2.06826 32.2879H4.07549L4.99406 36.7447L5.98747 32.2879H7.72934L8.74317 36.7379L9.66854 32.2879H11.6622L12.5807 36.7447L13.5741 32.2879H15.316L16.3298 36.7379L17.2484 32.2879H19.2488L17.6294 38.7927L17.6158 38.7859Z" fill="#F84914"/>
</g>
<defs>
<clipPath id="clip0_44244_153494">
<rect width="126" height="19.6233" fill="white" transform="translate(1 22)"/>
</clipPath>
</defs>
</svg>
