<?xml version="1.0" encoding="UTF-8" standalone="no"?>
<!-- Created with Inkscape (http://www.inkscape.org/) -->
<svg
   xmlns:svg="http://www.w3.org/2000/svg"
   xmlns="http://www.w3.org/2000/svg"
   version="1.0"
   width="191.29875"
   height="52.588749"
   id="svg2646">
  <defs
     id="defs3">
    <clipPath
       id="clipPath2502">
      <path
         d="M 985.852,805.57 L 985.852,749.119 L 1138.891,749.119 L 1138.891,805.57"
         id="path2504" />
    </clipPath>
    <clipPath
       id="clipPath2496">
      <path
         d="M 981.241,811.803 L 1140.947,811.803 L 1140.947,757.945 L 981.241,757.945 L 981.241,811.803 z"
         id="path2498" />
    </clipPath>
    <clipPath
       id="clipPath2490">
      <path
         d="M -31.179,841 L 1743.311,841 L 1743.311,-0.89 L -31.179,-0.89 L -31.179,841 z"
         id="path2492" />
    </clipPath>
    <clipPath
       id="clipPath2484">
      <path
         d="M -31.179,841.89 L 1743.321,841.89 L 1743.321,0 L -31.179,0 L -31.179,841.89 z"
         id="path2486" />
    </clipPath>
  </defs>
  <g
     transform="translate(0,-999.7734)"
     id="layer1">
    <g
       transform="matrix(1.25,0,0,-1.25,-1232.315,2006.7359)"
       id="g2480">
      <g
         clip-path="url(#clipPath2484)"
         id="g2482">
        <g
           clip-path="url(#clipPath2490)"
           id="g2488">
          <g
             clip-path="url(#clipPath2496)"
             id="g2494">
            <g
               clip-path="url(#clipPath2502)"
               id="g2500">
              <g
                 id="g2506">
                <path
                   d="M 1041.661,796.777 C 1041.661,796.777 1042.371,795.539 1044.251,793.477 C 1045.051,792.605 1046.201,791.425 1047.501,790.567 C 1048.741,789.645 1050.191,788.777 1051.571,788.182 C 1054.401,786.882 1058.031,785.991 1062.141,786.242 C 1064.211,786.369 1065.051,786.718 1065.051,786.718 C 1065.051,786.718 1062.951,786.879 1061.141,787.617 C 1059.451,788.288 1058.561,788.986 1057.531,789.722 C 1056.571,790.414 1055.232,791.889 1054.521,792.974 C 1053.621,794.345 1053.291,795.542 1053.291,795.542 C 1053.291,795.542 1051.451,795.281 1050.111,795.259 C 1048.681,795.235 1046.681,795.283 1045.181,795.683 C 1043.381,796.16 1041.661,796.777 1041.661,796.777"
                   id="path2508"
                   style="fill:#be2f37;fill-opacity:1;fill-rule:nonzero;stroke:none" />
                <path
                   d="M 1058.821,800.816 C 1058.821,803.446 1060.961,805.576 1063.591,805.57 C 1066.221,805.566 1068.351,803.429 1068.341,800.798 C 1068.341,798.168 1066.201,796.038 1063.571,796.044 C 1060.942,796.048 1058.812,798.184 1058.821,800.816"
                   id="path2510"
                   style="fill:#be2f37;fill-opacity:1;fill-rule:nonzero;stroke:none" />
                <path
                   d="M 1060.691,788.739 C 1062.621,789.318 1064.042,790.065 1065.631,791.266 C 1066.942,792.25 1067.531,792.963 1068.431,794.299 C 1069.171,795.401 1069.511,796.093 1069.961,797.344 C 1070.341,798.389 1070.491,799.009 1070.651,800.108 C 1072.391,799.658 1073.552,799.546 1075.301,799.52 C 1077.351,799.49 1078.351,799.675 1080.261,800.064 C 1080.261,800.064 1080.121,799.54 1079.651,798.545 C 1079.131,797.486 1078.621,796.438 1078.072,795.599 C 1077.031,794.003 1076.361,793.122 1074.951,791.832 C 1073.711,790.688 1073.062,790.053 1071.631,789.253 C 1070.332,788.527 1069.541,788.161 1068.082,787.863 C 1066.901,787.621 1066.201,787.593 1064.991,787.67 C 1063.261,787.78 1062.351,788.055 1060.691,788.739"
                   id="path2512"
                   style="fill:#be2f37;fill-opacity:1;fill-rule:nonzero;stroke:none" />
                <path
                   d="M 992.271,776.287 C 992.561,775.224 992.841,774.161 993.151,773.119 C 993.461,772.08 993.811,771.061 994.161,770.043 L 990.091,770.019 L 992.271,776.287 z M 991.801,768.65 C 992.311,768.65 992.841,768.672 993.361,768.672 C 993.732,768.672 994.081,768.65 994.451,768.604 C 994.711,767.74 994.961,766.878 995.201,766.014 C 995.371,765.35 995.531,764.665 995.681,763.977 C 996.372,764.044 997.051,764.09 997.752,764.09 C 998.321,764.09 998.901,764.044 999.471,764.022 C 999.211,764.708 998.941,765.373 998.711,766.08 C 998.361,767.055 998.081,768.074 997.752,769.07 C 997.482,769.888 997.211,770.683 996.951,771.481 C 996.621,772.501 996.352,773.542 996.041,774.581 C 995.801,775.467 995.531,776.33 995.271,777.215 C 995.041,778.056 994.811,778.875 994.591,779.694 C 994.181,779.671 993.771,779.628 993.361,779.628 C 992.862,779.628 992.391,779.694 991.921,779.738 C 991.571,778.543 991.201,777.325 990.791,776.151 C 990.281,774.668 989.701,773.23 989.131,771.77 C 988.581,770.353 988.041,768.893 987.431,767.475 C 986.961,766.347 986.401,765.218 985.852,764.09 C 987.161,764.155 987.301,764.112 988.081,764.022 C 988.351,764.886 988.621,765.75 988.901,766.591 C 989.131,767.299 989.371,767.963 989.602,768.65 L 991.801,768.65"
                   id="path2514"
                   style="fill:#be2f37;fill-opacity:1;fill-rule:evenodd;stroke:none" />
                <path
                   d="M 1005.291,765.786 C 1005.271,768.021 1005.252,770.258 1005.271,772.493 C 1005.271,774.883 1005.381,777.296 1005.481,779.686 C 1004.881,779.642 1004.311,779.598 1003.711,779.598 C 1003.102,779.598 1002.461,779.664 1001.851,779.731 C 1001.871,778.845 1001.911,777.982 1001.931,777.098 L 1001.931,774.728 C 1001.911,773.224 1001.891,771.696 1001.891,770.213 C 1001.891,768.132 1001.801,766.051 1001.721,763.97 C 1003.061,764.015 1004.391,764.082 1005.732,764.082 C 1007.161,764.082 1008.621,763.993 1010.051,763.882 L 1010.081,766.008 L 1005.291,765.786"
                   id="path2516"
                   style="fill:#be2f37;fill-opacity:1;fill-rule:nonzero;stroke:none" />
                <path
                   d="M 1013.301,775.804 C 1013.321,773.766 1013.301,771.661 1013.301,769.601 C 1013.301,766.402 1013.281,765.942 1013.051,764.057 C 1014.011,764.167 1014.521,764.21 1014.991,764.21 C 1015.741,764.21 1016.691,764.034 1016.851,764.013 C 1016.791,764.714 1016.751,765.416 1016.711,766.117 C 1016.631,767.563 1016.611,769.031 1016.611,770.477 C 1016.611,772.911 1016.611,775.32 1016.631,777.731 C 1017.321,777.731 1018.031,777.709 1018.722,777.665 C 1019.331,777.621 1019.941,777.533 1020.551,777.467 C 1020.511,777.95 1020.471,778.169 1020.471,778.629 C 1020.471,778.98 1020.492,779.331 1020.531,779.659 C 1018.831,779.637 1017.121,779.616 1015.411,779.616 C 1013.341,779.616 1011.252,779.659 1009.151,779.725 C 1009.242,778.805 1009.261,778.52 1009.191,777.533 C 1009.901,777.6 1010.602,777.665 1011.311,777.731 C 1011.961,777.753 1012.591,777.774 1013.241,777.774 L 1013.301,775.804"
                   id="path2518"
                   style="fill:#be2f37;fill-opacity:1;fill-rule:nonzero;stroke:none" />
                <path
                   d="M 1026.341,777.915 C 1027.161,777.915 1027.951,777.915 1028.761,777.871 C 1029.531,777.828 1030.331,777.739 1031.101,777.651 C 1031.081,777.982 1031.042,778.313 1031.042,778.624 C 1031.042,779.023 1031.081,779.333 1031.141,779.731 C 1030.531,779.731 1029.941,779.708 1029.331,779.686 C 1028.441,779.664 1027.521,779.62 1026.631,779.62 C 1025.371,779.62 1024.131,779.686 1022.871,779.753 C 1022.911,778.89 1022.932,778.027 1022.951,777.162 C 1022.991,775.813 1022.991,774.44 1022.991,773.068 C 1022.991,771.387 1023.011,769.726 1022.971,768.066 C 1022.951,766.717 1022.891,765.365 1022.811,763.993 C 1024.111,764.038 1025.391,764.082 1026.691,764.082 C 1028.131,764.082 1029.551,764.038 1031.001,763.993 C 1030.981,764.324 1030.931,764.657 1030.931,765.012 C 1030.931,765.365 1030.981,765.742 1031.001,766.096 L 1026.322,765.831 L 1026.322,771.453 C 1027.011,771.432 1027.711,771.432 1028.401,771.408 C 1029.271,771.387 1030.141,771.32 1031.042,771.253 C 1030.981,771.673 1030.911,771.963 1030.911,772.383 C 1030.911,772.759 1030.961,773.002 1031.001,773.378 C 1030.251,773.312 1029.511,773.246 1028.761,773.2 C 1027.951,773.156 1027.161,773.135 1026.341,773.135 L 1026.341,777.915"
                   id="path2520"
                   style="fill:#be2f37;fill-opacity:1;fill-rule:nonzero;stroke:none" />
                <path
                   d="M 1043.261,765.721 C 1043.241,767.945 1043.221,770.171 1043.241,772.392 C 1043.241,774.772 1043.341,777.172 1043.451,779.551 C 1042.851,779.507 1042.281,779.462 1041.682,779.462 C 1041.071,779.462 1040.431,779.529 1039.811,779.594 C 1039.831,778.713 1039.881,777.855 1039.901,776.974 L 1039.901,774.618 C 1039.881,773.121 1039.861,771.6 1039.861,770.125 C 1039.861,768.057 1039.771,765.985 1039.691,763.915 C 1041.021,763.958 1042.362,764.024 1043.692,764.024 C 1045.131,764.024 1046.591,763.936 1048.021,763.826 L 1048.041,765.94 L 1043.261,765.721"
                   id="path2522"
                   style="fill:#be2f37;fill-opacity:1;fill-rule:nonzero;stroke:none" />
                <path
                   d="M 1053.972,777.915 C 1054.791,777.915 1055.601,777.915 1056.421,777.87 C 1057.211,777.827 1058.011,777.739 1058.792,777.65 C 1058.771,777.981 1058.731,778.313 1058.731,778.623 C 1058.731,779.022 1058.771,779.332 1058.841,779.731 C 1058.221,779.731 1057.621,779.708 1057.001,779.686 C 1056.091,779.663 1055.161,779.62 1054.261,779.62 C 1052.982,779.62 1051.722,779.686 1050.442,779.752 C 1050.481,778.889 1050.501,778.027 1050.521,777.162 C 1050.571,775.813 1050.571,774.44 1050.571,773.068 C 1050.571,771.387 1050.591,769.726 1050.542,768.066 C 1050.521,766.717 1050.461,765.365 1050.381,763.993 C 1051.701,764.038 1053.001,764.084 1054.321,764.084 C 1055.781,764.084 1057.231,764.038 1058.692,763.993 C 1058.671,764.326 1058.631,764.657 1058.631,765.012 C 1058.631,765.365 1058.671,765.742 1058.692,766.096 L 1053.951,765.831 L 1053.951,771.453 C 1054.651,771.432 1055.352,771.432 1056.051,771.408 C 1056.941,771.387 1057.831,771.32 1058.731,771.253 C 1058.671,771.673 1058.611,771.963 1058.611,772.383 C 1058.611,772.759 1058.651,773.002 1058.692,773.378 C 1057.931,773.312 1057.181,773.246 1056.421,773.2 C 1055.601,773.156 1054.791,773.135 1053.972,773.135 L 1053.972,777.915"
                   id="path2524"
                   style="fill:#be2f37;fill-opacity:1;fill-rule:nonzero;stroke:none" />
                <path
                   d="M 1065.082,775.126 C 1065.121,776.698 1065.181,778.27 1065.251,779.819 C 1064.291,779.686 1063.921,779.642 1063.421,779.642 C 1062.841,779.642 1062.261,779.708 1061.681,779.774 C 1061.721,778.624 1061.792,777.473 1061.831,776.301 C 1061.851,775.194 1061.851,774.065 1061.851,772.936 L 1061.851,769.327 C 1061.851,768.597 1061.851,767.89 1061.831,767.159 C 1061.812,766.096 1061.751,765.012 1061.681,763.948 C 1062.301,764.015 1062.931,764.059 1063.531,764.059 C 1064.112,764.059 1064.692,764.015 1065.271,763.948 C 1065.231,764.744 1065.161,765.543 1065.141,766.339 C 1065.061,768.309 1065.082,770.279 1065.082,772.249 L 1065.082,775.126"
                   id="path2526"
                   style="fill:#be2f37;fill-opacity:1;fill-rule:nonzero;stroke:none" />
                <path
                   d="M 1072.441,778.215 C 1073.441,778.26 1074.291,778.26 1074.901,777.268 C 1075.331,776.606 1075.351,775.815 1075.351,775.572 C 1075.351,774.12 1074.901,773.283 1074.581,772.886 C 1073.821,772.027 1072.722,772.114 1072.381,772.114 C 1072.362,773.105 1072.362,774.075 1072.362,775.045 C 1072.362,776.101 1072.401,777.157 1072.441,778.215 z M 1068.931,779.668 C 1068.972,778.721 1069.011,777.797 1069.052,776.849 C 1069.081,775.792 1069.101,774.713 1069.101,773.656 C 1069.101,772.268 1069.081,770.88 1069.052,769.516 C 1069.052,768.591 1069.052,767.687 1069.031,766.785 C 1069.001,765.86 1068.931,764.935 1068.871,764.011 C 1069.421,764.032 1069.971,764.078 1070.521,764.078 C 1071.421,764.078 1072.111,763.944 1072.482,763.899 C 1072.441,765.135 1072.381,766.345 1072.362,767.577 C 1072.342,768.591 1072.362,769.603 1072.362,770.639 C 1073.951,770.66 1075.561,770.66 1076.961,771.563 C 1077.141,771.696 1077.631,772.006 1078.041,772.555 C 1078.822,773.635 1078.881,774.933 1078.881,775.396 C 1078.881,776.651 1078.451,777.51 1078.201,777.884 C 1077.701,778.743 1076.901,779.426 1074.961,779.603 C 1074.562,779.646 1074.151,779.646 1073.721,779.668 L 1068.931,779.668"
                   id="path2528"
                   style="fill:#be2f37;fill-opacity:1;fill-rule:evenodd;stroke:none" />
                <path
                   d="M 1091.291,779.774 C 1089.461,779.708 1087.632,779.642 1085.801,779.642 C 1083.832,779.642 1081.841,779.686 1079.871,779.752 C 1079.891,779.575 1079.971,779.089 1079.971,778.579 C 1079.971,778.18 1079.891,777.538 1079.891,777.494 C 1080.741,777.56 1081.582,777.627 1082.431,777.694 C 1083.832,777.782 1085.232,777.827 1086.631,777.87 C 1085.481,775.792 1084.301,773.687 1083.161,771.585 C 1082.431,770.236 1081.722,768.864 1080.961,767.534 C 1080.381,766.516 1079.792,765.519 1079.182,764.524 L 1079.161,763.882 C 1081.271,763.948 1083.361,764.038 1085.481,764.038 C 1087.432,764.038 1089.381,763.993 1091.352,763.948 C 1091.261,764.88 1091.261,765.167 1091.301,766.096 C 1090.171,766.008 1089.011,765.897 1087.851,765.831 C 1086.492,765.766 1085.221,765.766 1083.861,765.766 C 1084.101,766.251 1084.351,766.738 1084.611,767.225 C 1085.221,768.332 1085.851,769.417 1086.442,770.501 C 1087.371,772.183 1088.291,773.888 1089.222,775.57 C 1089.931,776.786 1090.551,778.004 1091.261,779.199 L 1091.291,779.774"
                   id="path2530"
                   style="fill:#be2f37;fill-opacity:1;fill-rule:nonzero;stroke:none" />
                <path
                   d="M 1097.191,775.11 C 1097.232,776.674 1097.291,778.238 1097.361,779.779 C 1096.401,779.647 1096.021,779.603 1095.521,779.603 C 1094.941,779.603 1094.361,779.669 1093.771,779.735 C 1093.822,778.59 1093.881,777.444 1093.921,776.279 C 1093.942,775.177 1093.942,774.054 1093.942,772.931 L 1093.942,769.341 C 1093.942,768.614 1093.942,767.908 1093.921,767.182 C 1093.901,766.125 1093.841,765.047 1093.771,763.989 C 1094.401,764.054 1095.021,764.099 1095.631,764.099 C 1096.211,764.099 1096.802,764.054 1097.382,763.989 C 1097.341,764.781 1097.271,765.573 1097.251,766.367 C 1097.171,768.326 1097.191,770.287 1097.191,772.249 L 1097.191,775.11"
                   id="path2532"
                   style="fill:#be2f37;fill-opacity:1;fill-rule:nonzero;stroke:none" />
                <path
                   d="M 1112.361,776.072 C 1112.511,777.531 1112.631,777.886 1112.831,778.705 C 1112.421,778.97 1112.301,779.036 1112.062,779.126 C 1111.711,779.28 1111.362,779.369 1110.991,779.479 C 1109.501,779.9 1108.791,779.922 1108.031,779.922 C 1104.952,779.922 1103.051,778.794 1102.031,777.819 C 1099.702,775.652 1099.602,772.596 1099.602,771.511 C 1099.602,767.859 1101.071,766.133 1102.201,765.204 C 1103.891,763.764 1105.651,763.499 1107.711,763.499 C 1109.671,763.499 1111.081,763.875 1112.932,764.385 C 1112.891,765.357 1112.831,766.354 1112.831,767.328 C 1112.831,768.214 1112.891,769.099 1112.961,769.962 L 1113.102,771.181 C 1112.121,771.025 1111.711,770.98 1111.201,770.98 C 1110.651,770.98 1110.102,771.047 1109.541,771.091 C 1109.611,770.184 1109.651,769.276 1109.651,768.369 C 1109.651,767.351 1109.611,766.354 1109.561,765.357 C 1109.241,765.247 1108.731,765.07 1107.911,765.07 C 1106.951,765.07 1106.301,765.27 1105.931,765.424 C 1105.362,765.668 1104.832,766.088 1104.442,766.62 C 1103.191,768.324 1103.171,771.136 1103.171,771.579 C 1103.171,775.01 1104.641,776.846 1105.751,777.598 C 1106.731,778.239 1107.732,778.306 1108.122,778.306 C 1110.011,778.306 1110.911,777.289 1111.381,776.712 C 1111.551,776.491 1111.711,776.293 1111.851,776.072 L 1112.361,776.072"
                   id="path2534"
                   style="fill:#be2f37;fill-opacity:1;fill-rule:nonzero;stroke:none" />
                <path
                   d="M 1119.721,777.819 C 1120.531,777.819 1121.321,777.819 1122.132,777.775 C 1122.901,777.731 1123.702,777.643 1124.471,777.553 C 1124.452,777.886 1124.411,778.217 1124.411,778.528 C 1124.411,778.926 1124.452,779.236 1124.511,779.634 C 1123.901,779.634 1123.312,779.612 1122.701,779.59 C 1121.812,779.568 1120.891,779.524 1120.001,779.524 C 1118.742,779.524 1117.501,779.59 1116.241,779.657 C 1116.281,778.794 1116.302,777.93 1116.322,777.066 C 1116.361,775.718 1116.361,774.346 1116.361,772.973 C 1116.361,771.289 1116.381,769.631 1116.341,767.971 C 1116.322,766.62 1116.261,765.27 1116.181,763.897 C 1117.482,763.94 1118.761,763.985 1120.061,763.985 C 1121.501,763.985 1122.921,763.94 1124.371,763.897 C 1124.352,764.229 1124.301,764.561 1124.301,764.917 C 1124.301,765.27 1124.352,765.646 1124.371,766 L 1119.691,765.734 L 1119.691,771.357 C 1120.381,771.334 1121.081,771.334 1121.761,771.312 C 1122.641,771.289 1123.511,771.224 1124.411,771.157 C 1124.352,771.579 1124.281,771.866 1124.281,772.286 C 1124.281,772.662 1124.332,772.905 1124.371,773.283 C 1123.611,773.217 1122.882,773.15 1122.132,773.105 C 1121.321,773.06 1120.531,773.039 1119.721,773.039 L 1119.721,777.819"
                   id="path2536"
                   style="fill:#be2f37;fill-opacity:1;fill-rule:nonzero;stroke:none" />
                <path
                   d="M 1130.831,778.12 C 1131.921,778.163 1132.861,778.185 1133.541,777.149 C 1133.761,776.798 1134.011,776.247 1134.011,775.279 C 1134.011,773.23 1132.841,772.481 1132.061,772.284 C 1131.711,772.194 1131.511,772.173 1130.851,772.194 L 1130.831,778.12 z M 1134.322,771.469 C 1135.491,771.998 1136.641,772.549 1137.191,773.891 C 1137.501,774.597 1137.542,775.257 1137.542,775.566 C 1137.542,776.688 1137.151,777.459 1136.921,777.811 C 1135.901,779.485 1134.011,779.573 1132.371,779.64 L 1130.112,779.508 C 1128.612,779.508 1128.221,779.552 1127.421,779.64 C 1127.461,778.759 1127.501,777.876 1127.521,776.996 C 1127.591,775.5 1127.591,774.024 1127.591,772.549 C 1127.591,771.095 1127.631,769.641 1127.631,768.21 C 1127.631,767.68 1127.631,767.175 1127.611,766.666 C 1127.591,765.742 1127.521,764.816 1127.461,763.891 C 1128.061,763.934 1128.671,764.003 1129.292,764.003 C 1129.861,764.003 1130.461,763.958 1131.031,763.913 C 1130.971,764.949 1130.911,765.964 1130.891,766.997 C 1130.871,767.767 1130.871,768.538 1130.871,769.309 C 1130.851,770.037 1130.831,770.764 1130.771,771.469 L 1134.811,763.848 C 1135.531,763.934 1136.251,764.024 1136.961,764.024 C 1137.581,764.024 1137.832,763.979 1138.891,763.826 C 1138.151,765.082 1137.421,766.315 1136.681,767.548 C 1136.211,768.298 1135.751,769.023 1135.301,769.752 L 1134.322,771.469"
                   id="path2538"
                   style="fill:#be2f37;fill-opacity:1;fill-rule:evenodd;stroke:none" />
              </g>
            </g>
          </g>
        </g>
      </g>
    </g>
  </g>
</svg>
