<?xml version="1.0" encoding="UTF-8"?>
<svg xmlns="http://www.w3.org/2000/svg" xmlns:xlink="http://www.w3.org/1999/xlink" width="128px" height="64px" viewBox="0 0 128 64" version="1.1">
<g id="surface1">
<path style=" stroke:none;fill-rule:nonzero;fill:rgb(74.509804%,18.431373%,21.568627%);fill-opacity:1;" d="M 46.75 13.273438 C 46.75 13.273438 47.347656 15.140625 48.921875 18.253906 C 49.589844 19.570312 50.554688 21.351562 51.644531 22.644531 C 52.683594 24.039062 53.898438 25.347656 55.050781 26.246094 C 57.421875 28.207031 60.464844 29.554688 63.90625 29.175781 C 65.640625 28.984375 66.34375 28.457031 66.34375 28.457031 C 66.34375 28.457031 64.585938 28.210938 63.070312 27.097656 C 61.652344 26.085938 60.90625 25.03125 60.046875 23.921875 C 59.242188 22.878906 58.121094 20.652344 57.523438 19.011719 C 56.769531 16.945312 56.492188 15.136719 56.492188 15.136719 C 56.492188 15.136719 54.953125 15.53125 53.828125 15.5625 C 52.632812 15.601562 50.957031 15.527344 49.699219 14.921875 C 48.191406 14.203125 46.75 13.273438 46.75 13.273438 "/>
<path style=" stroke:none;fill-rule:nonzero;fill:rgb(74.509804%,18.431373%,21.568627%);fill-opacity:1;" d="M 61.125 7.175781 C 61.125 3.207031 62.917969 -0.0078125 65.121094 0 C 67.324219 0.0078125 69.109375 3.230469 69.101562 7.203125 C 69.101562 11.171875 67.308594 14.386719 65.105469 14.378906 C 62.902344 14.371094 61.117188 11.148438 61.125 7.175781 "/>
<path style=" stroke:none;fill-rule:nonzero;fill:rgb(74.509804%,18.431373%,21.568627%);fill-opacity:1;" d="M 62.691406 25.40625 C 64.308594 24.53125 65.5 23.402344 66.832031 21.589844 C 67.929688 20.105469 68.421875 19.03125 69.175781 17.011719 C 69.796875 15.347656 70.082031 14.304688 70.457031 12.417969 C 70.777344 10.839844 70.902344 9.902344 71.035156 8.246094 C 72.492188 8.921875 73.464844 9.09375 74.929688 9.132812 C 76.648438 9.175781 77.484375 8.898438 79.085938 8.3125 C 79.085938 8.3125 78.96875 9.101562 78.574219 10.605469 C 78.140625 12.203125 77.710938 13.785156 77.253906 15.050781 C 76.378906 17.460938 75.820312 18.789062 74.636719 20.738281 C 73.597656 22.464844 73.054688 23.421875 71.855469 24.628906 C 70.769531 25.726562 70.105469 26.277344 68.882812 26.726562 C 67.894531 27.09375 67.308594 27.136719 66.292969 27.019531 C 64.84375 26.851562 64.082031 26.4375 62.691406 25.40625 "/>
<path style=" stroke:none;fill-rule:evenodd;fill:rgb(74.509804%,18.431373%,21.568627%);fill-opacity:1;" d="M 5.378906 44.199219 C 5.621094 45.804688 5.855469 47.410156 6.113281 48.984375 C 6.375 50.550781 6.667969 52.089844 6.960938 53.625 L 3.550781 53.660156 Z M 4.984375 55.726562 C 5.410156 55.726562 5.855469 55.695312 6.289062 55.695312 C 6.601562 55.695312 6.894531 55.726562 7.203125 55.796875 C 7.421875 57.101562 7.628906 58.402344 7.832031 59.707031 C 7.972656 60.710938 8.109375 61.742188 8.234375 62.78125 C 8.8125 62.679688 9.382812 62.609375 9.96875 62.609375 C 10.445312 62.609375 10.929688 62.679688 11.410156 62.714844 C 11.191406 61.679688 10.964844 60.675781 10.773438 59.609375 C 10.480469 58.136719 10.246094 56.597656 9.96875 55.09375 C 9.742188 53.859375 9.515625 52.660156 9.296875 51.457031 C 9.019531 49.914062 8.796875 48.34375 8.535156 46.777344 C 8.335938 45.4375 8.109375 44.136719 7.890625 42.800781 C 7.699219 41.53125 7.503906 40.292969 7.320312 39.058594 C 6.976562 39.09375 6.632812 39.15625 6.289062 39.15625 C 5.871094 39.15625 5.476562 39.058594 5.082031 38.992188 C 4.789062 40.796875 4.480469 42.632812 4.136719 44.40625 C 3.710938 46.644531 3.222656 48.816406 2.746094 51.019531 C 2.285156 53.15625 1.832031 55.363281 1.324219 57.5 C 0.929688 59.203125 0.460938 60.910156 0 62.609375 C 1.097656 62.511719 1.214844 62.578125 1.867188 62.714844 C 2.09375 61.410156 2.320312 60.105469 2.554688 58.835938 C 2.746094 57.765625 2.949219 56.765625 3.140625 55.726562 L 4.984375 55.726562 "/>
<path style=" stroke:none;fill-rule:nonzero;fill:rgb(74.509804%,18.431373%,21.568627%);fill-opacity:1;" d="M 16.285156 60.050781 C 16.265625 56.679688 16.25 53.300781 16.265625 49.925781 C 16.265625 46.320312 16.359375 42.679688 16.441406 39.070312 C 15.941406 39.136719 15.464844 39.203125 14.960938 39.203125 C 14.449219 39.203125 13.914062 39.101562 13.402344 39.003906 C 13.417969 40.339844 13.453125 41.640625 13.46875 42.976562 L 13.46875 46.554688 C 13.453125 48.824219 13.4375 51.128906 13.4375 53.367188 C 13.4375 56.511719 13.359375 59.652344 13.292969 62.792969 C 14.414062 62.722656 15.53125 62.625 16.652344 62.625 C 17.851562 62.625 19.074219 62.757812 20.269531 62.925781 L 20.296875 59.714844 L 16.285156 60.050781 "/>
<path style=" stroke:none;fill-rule:nonzero;fill:rgb(74.509804%,18.431373%,21.568627%);fill-opacity:1;" d="M 22.992188 44.929688 C 23.011719 48.007812 22.992188 51.183594 22.992188 54.292969 C 22.992188 59.121094 22.976562 59.816406 22.785156 62.660156 C 23.589844 62.496094 24.015625 62.429688 24.410156 62.429688 C 25.039062 62.429688 25.832031 62.695312 25.96875 62.726562 C 25.917969 61.667969 25.882812 60.609375 25.851562 59.550781 C 25.785156 57.367188 25.765625 55.152344 25.765625 52.96875 C 25.765625 49.296875 25.765625 45.660156 25.785156 42.019531 C 26.363281 42.019531 26.957031 42.054688 27.535156 42.121094 C 28.046875 42.1875 28.554688 42.320312 29.066406 42.417969 C 29.035156 41.691406 29 41.359375 29 40.664062 C 29 40.136719 29.019531 39.605469 29.050781 39.109375 C 27.625 39.144531 26.195312 39.175781 24.761719 39.175781 C 23.027344 39.175781 21.277344 39.109375 19.515625 39.011719 C 19.59375 40.398438 19.609375 40.832031 19.550781 42.320312 C 20.144531 42.21875 20.734375 42.121094 21.328125 42.019531 C 21.871094 41.988281 22.398438 41.957031 22.945312 41.957031 L 22.992188 44.929688 "/>
<path style=" stroke:none;fill-rule:nonzero;fill:rgb(74.509804%,18.431373%,21.568627%);fill-opacity:1;" d="M 33.917969 41.742188 C 34.605469 41.742188 35.265625 41.742188 35.945312 41.808594 C 36.589844 41.875 37.261719 42.007812 37.90625 42.140625 C 37.886719 41.640625 37.855469 41.144531 37.855469 40.671875 C 37.855469 40.070312 37.886719 39.601562 37.9375 39.003906 C 37.425781 39.003906 36.933594 39.035156 36.421875 39.070312 C 35.675781 39.101562 34.90625 39.167969 34.160156 39.167969 C 33.105469 39.167969 32.066406 39.070312 31.011719 38.96875 C 31.042969 40.273438 31.0625 41.574219 31.078125 42.878906 C 31.109375 44.917969 31.109375 46.988281 31.109375 49.058594 C 31.109375 51.597656 31.128906 54.105469 31.09375 56.609375 C 31.078125 58.644531 31.027344 60.6875 30.960938 62.757812 C 32.050781 62.691406 33.121094 62.625 34.210938 62.625 C 35.417969 62.625 36.605469 62.691406 37.820312 62.757812 C 37.804688 62.257812 37.761719 61.753906 37.761719 61.21875 C 37.761719 60.6875 37.804688 60.117188 37.820312 59.582031 L 33.902344 59.984375 L 33.902344 51.496094 C 34.480469 51.527344 35.066406 51.527344 35.644531 51.566406 C 36.371094 51.597656 37.101562 51.699219 37.855469 51.800781 C 37.804688 51.164062 37.746094 50.726562 37.746094 50.09375 C 37.746094 49.527344 37.789062 49.160156 37.820312 48.589844 C 37.191406 48.691406 36.574219 48.789062 35.945312 48.859375 C 35.265625 48.925781 34.605469 48.957031 33.917969 48.957031 L 33.917969 41.742188 "/>
<path style=" stroke:none;fill-rule:nonzero;fill:rgb(74.509804%,18.431373%,21.568627%);fill-opacity:1;" d="M 48.089844 60.148438 C 48.074219 56.792969 48.058594 53.433594 48.074219 50.078125 C 48.074219 46.488281 48.160156 42.863281 48.25 39.273438 C 47.746094 39.339844 47.269531 39.410156 46.769531 39.410156 C 46.257812 39.410156 45.71875 39.308594 45.203125 39.210938 C 45.21875 40.539062 45.261719 41.832031 45.277344 43.164062 L 45.277344 46.71875 C 45.261719 48.980469 45.242188 51.277344 45.242188 53.5 C 45.242188 56.625 45.167969 59.75 45.101562 62.875 C 46.214844 62.8125 47.339844 62.710938 48.453125 62.710938 C 49.65625 62.710938 50.878906 62.84375 52.078125 63.011719 L 52.09375 59.820312 L 48.089844 60.148438 "/>
<path style=" stroke:none;fill-rule:nonzero;fill:rgb(74.509804%,18.431373%,21.568627%);fill-opacity:1;" d="M 57.0625 41.742188 C 57.75 41.742188 58.429688 41.742188 59.117188 41.8125 C 59.777344 41.875 60.449219 42.007812 61.101562 42.144531 C 61.082031 41.644531 61.050781 41.144531 61.050781 40.675781 C 61.050781 40.074219 61.082031 39.605469 61.144531 39.003906 C 60.625 39.003906 60.121094 39.035156 59.601562 39.070312 C 58.839844 39.105469 58.058594 39.167969 57.304688 39.167969 C 56.234375 39.167969 55.179688 39.070312 54.105469 38.96875 C 54.140625 40.273438 54.15625 41.574219 54.171875 42.878906 C 54.214844 44.917969 54.214844 46.988281 54.214844 49.058594 C 54.214844 51.597656 54.230469 54.105469 54.191406 56.609375 C 54.171875 58.644531 54.121094 60.6875 54.054688 62.757812 C 55.160156 62.691406 56.25 62.621094 57.355469 62.621094 C 58.578125 62.621094 59.792969 62.691406 61.019531 62.757812 C 61 62.253906 60.964844 61.753906 60.964844 61.21875 C 60.964844 60.6875 61 60.117188 61.019531 59.582031 L 57.046875 59.984375 L 57.046875 51.496094 C 57.632812 51.527344 58.21875 51.527344 58.804688 51.566406 C 59.550781 51.597656 60.296875 51.699219 61.050781 51.800781 C 61 51.164062 60.949219 50.726562 60.949219 50.09375 C 60.949219 49.527344 60.984375 49.160156 61.019531 48.589844 C 60.378906 48.691406 59.753906 48.789062 59.117188 48.859375 C 58.429688 48.925781 57.75 48.957031 57.0625 48.957031 L 57.0625 41.742188 "/>
<path style=" stroke:none;fill-rule:nonzero;fill:rgb(74.509804%,18.431373%,21.568627%);fill-opacity:1;" d="M 66.371094 45.953125 C 66.402344 43.582031 66.453125 41.207031 66.511719 38.871094 C 65.707031 39.070312 65.398438 39.136719 64.980469 39.136719 C 64.492188 39.136719 64.007812 39.035156 63.523438 38.9375 C 63.554688 40.671875 63.613281 42.410156 63.648438 44.179688 C 63.664062 45.851562 63.664062 47.554688 63.664062 49.257812 L 63.664062 54.707031 C 63.664062 55.808594 63.664062 56.875 63.648438 57.980469 C 63.632812 59.582031 63.582031 61.21875 63.523438 62.824219 C 64.042969 62.722656 64.570312 62.65625 65.070312 62.65625 C 65.558594 62.65625 66.042969 62.722656 66.527344 62.824219 C 66.496094 61.625 66.4375 60.417969 66.421875 59.214844 C 66.351562 56.242188 66.371094 53.269531 66.371094 50.296875 L 66.371094 45.953125 "/>
<path style=" stroke:none;fill-rule:evenodd;fill:rgb(74.509804%,18.431373%,21.568627%);fill-opacity:1;" d="M 72.535156 41.289062 C 73.371094 41.222656 74.085938 41.222656 74.597656 42.71875 C 74.957031 43.71875 74.972656 44.914062 74.972656 45.28125 C 74.972656 47.472656 74.597656 48.734375 74.328125 49.335938 C 73.691406 50.632812 72.769531 50.5 72.484375 50.5 C 72.46875 49.003906 72.46875 47.539062 72.46875 46.074219 C 72.46875 44.480469 72.5 42.886719 72.535156 41.289062 Z M 69.59375 39.097656 C 69.628906 40.527344 69.660156 41.921875 69.695312 43.351562 C 69.71875 44.949219 69.738281 46.578125 69.738281 48.171875 C 69.738281 50.265625 69.71875 52.363281 69.695312 54.421875 C 69.695312 55.816406 69.695312 57.183594 69.679688 58.542969 C 69.652344 59.941406 69.59375 61.335938 69.542969 62.730469 C 70.003906 62.699219 70.464844 62.628906 70.925781 62.628906 C 71.679688 62.628906 72.257812 62.832031 72.570312 62.898438 C 72.535156 61.035156 72.484375 59.207031 72.46875 57.347656 C 72.453125 55.816406 72.46875 54.289062 72.46875 52.726562 C 73.800781 52.695312 75.148438 52.695312 76.320312 51.332031 C 76.472656 51.128906 76.882812 50.664062 77.226562 49.832031 C 77.878906 48.203125 77.929688 46.246094 77.929688 45.546875 C 77.929688 43.652344 77.570312 42.355469 77.359375 41.789062 C 76.941406 40.492188 76.269531 39.460938 74.644531 39.195312 C 74.3125 39.128906 73.96875 39.128906 73.609375 39.097656 L 69.59375 39.097656 "/>
<path style=" stroke:none;fill-rule:nonzero;fill:rgb(74.509804%,18.431373%,21.568627%);fill-opacity:1;" d="M 88.324219 38.9375 C 86.792969 39.035156 85.261719 39.136719 83.726562 39.136719 C 82.078125 39.136719 80.410156 39.070312 78.757812 38.96875 C 78.777344 39.238281 78.84375 39.972656 78.84375 40.742188 C 78.84375 41.34375 78.777344 42.3125 78.777344 42.378906 C 79.488281 42.277344 80.191406 42.179688 80.902344 42.078125 C 82.078125 41.945312 83.25 41.875 84.421875 41.8125 C 83.457031 44.949219 82.46875 48.125 81.515625 51.296875 C 80.902344 53.335938 80.308594 55.40625 79.671875 57.414062 C 79.1875 58.949219 78.691406 60.453125 78.183594 61.957031 L 78.164062 62.925781 C 79.933594 62.824219 81.683594 62.691406 83.457031 62.691406 C 85.09375 62.691406 86.726562 62.757812 88.378906 62.824219 C 88.300781 61.417969 88.300781 60.984375 88.335938 59.582031 C 87.386719 59.714844 86.414062 59.882812 85.445312 59.984375 C 84.304688 60.082031 83.242188 60.082031 82.101562 60.082031 C 82.304688 59.347656 82.511719 58.613281 82.730469 57.878906 C 83.242188 56.207031 83.769531 54.570312 84.265625 52.933594 C 85.042969 50.394531 85.8125 47.820312 86.59375 45.28125 C 87.1875 43.449219 87.707031 41.609375 88.300781 39.804688 L 88.324219 38.9375 "/>
<path style=" stroke:none;fill-rule:nonzero;fill:rgb(74.509804%,18.431373%,21.568627%);fill-opacity:1;" d="M 93.269531 45.976562 C 93.300781 43.617188 93.351562 41.253906 93.410156 38.929688 C 92.605469 39.128906 92.289062 39.195312 91.871094 39.195312 C 91.382812 39.195312 90.898438 39.097656 90.402344 38.996094 C 90.445312 40.722656 90.496094 42.453125 90.527344 44.210938 C 90.546875 45.875 90.546875 47.570312 90.546875 49.265625 L 90.546875 54.683594 C 90.546875 55.78125 90.546875 56.847656 90.527344 57.945312 C 90.511719 59.539062 90.460938 61.167969 90.402344 62.765625 C 90.929688 62.664062 91.449219 62.597656 91.960938 62.597656 C 92.449219 62.597656 92.941406 62.664062 93.429688 62.765625 C 93.394531 61.566406 93.335938 60.371094 93.320312 59.175781 C 93.25 56.21875 93.269531 53.257812 93.269531 50.296875 L 93.269531 45.976562 "/>
<path style=" stroke:none;fill-rule:nonzero;fill:rgb(74.509804%,18.431373%,21.568627%);fill-opacity:1;" d="M 105.976562 44.523438 C 106.101562 42.324219 106.203125 41.789062 106.371094 40.550781 C 106.027344 40.152344 105.925781 40.050781 105.726562 39.914062 C 105.429688 39.683594 105.140625 39.546875 104.828125 39.382812 C 103.582031 38.746094 102.984375 38.714844 102.347656 38.714844 C 99.769531 38.714844 98.175781 40.417969 97.324219 41.886719 C 95.371094 45.160156 95.289062 49.773438 95.289062 51.410156 C 95.289062 56.921875 96.519531 59.527344 97.464844 60.929688 C 98.878906 63.101562 100.355469 63.503906 102.082031 63.503906 C 103.722656 63.503906 104.902344 62.9375 106.453125 62.167969 C 106.421875 60.699219 106.371094 59.195312 106.371094 57.722656 C 106.371094 56.386719 106.421875 55.050781 106.480469 53.746094 L 106.597656 51.90625 C 105.773438 52.144531 105.429688 52.210938 105.003906 52.210938 C 104.542969 52.210938 104.082031 52.109375 103.613281 52.042969 C 103.671875 53.414062 103.707031 54.785156 103.707031 56.152344 C 103.707031 57.6875 103.671875 59.195312 103.628906 60.699219 C 103.363281 60.863281 102.933594 61.132812 102.25 61.132812 C 101.445312 61.132812 100.898438 60.832031 100.589844 60.597656 C 100.113281 60.230469 99.667969 59.59375 99.34375 58.792969 C 98.292969 56.21875 98.277344 51.976562 98.277344 51.308594 C 98.277344 46.128906 99.507812 43.355469 100.4375 42.222656 C 101.261719 41.253906 102.097656 41.152344 102.425781 41.152344 C 104.007812 41.152344 104.761719 42.6875 105.15625 43.558594 C 105.296875 43.894531 105.429688 44.191406 105.550781 44.523438 L 105.976562 44.523438 "/>
<path style=" stroke:none;fill-rule:nonzero;fill:rgb(74.509804%,18.431373%,21.568627%);fill-opacity:1;" d="M 112.140625 41.886719 C 112.820312 41.886719 113.480469 41.886719 114.160156 41.953125 C 114.804688 42.019531 115.476562 42.152344 116.121094 42.289062 C 116.105469 41.789062 116.070312 41.289062 116.070312 40.816406 C 116.070312 40.21875 116.105469 39.75 116.152344 39.148438 C 115.644531 39.148438 115.148438 39.183594 114.636719 39.214844 C 113.894531 39.25 113.121094 39.316406 112.375 39.316406 C 111.320312 39.316406 110.28125 39.214844 109.226562 39.113281 C 109.261719 40.417969 109.277344 41.722656 109.292969 43.023438 C 109.328125 45.058594 109.328125 47.128906 109.328125 49.203125 C 109.328125 51.746094 109.34375 54.246094 109.308594 56.753906 C 109.292969 58.792969 109.242188 60.832031 109.175781 62.902344 C 110.265625 62.835938 111.335938 62.769531 112.425781 62.769531 C 113.632812 62.769531 114.820312 62.835938 116.035156 62.902344 C 116.019531 62.402344 115.976562 61.898438 115.976562 61.363281 C 115.976562 60.832031 116.019531 60.261719 116.035156 59.726562 L 112.117188 60.128906 L 112.117188 51.640625 C 112.695312 51.675781 113.28125 51.675781 113.851562 51.710938 C 114.585938 51.746094 115.316406 51.84375 116.070312 51.945312 C 116.019531 51.308594 115.960938 50.875 115.960938 50.238281 C 115.960938 49.671875 116.003906 49.304688 116.035156 48.734375 C 115.398438 48.835938 114.789062 48.9375 114.160156 49.003906 C 113.480469 49.070312 112.820312 49.101562 112.140625 49.101562 L 112.140625 41.886719 "/>
<path style=" stroke:none;fill-rule:evenodd;fill:rgb(74.509804%,18.431373%,21.568627%);fill-opacity:1;" d="M 121.449219 41.433594 C 122.363281 41.367188 123.148438 41.335938 123.71875 42.898438 C 123.902344 43.429688 124.113281 44.261719 124.113281 45.722656 C 124.113281 48.816406 123.132812 49.945312 122.480469 50.242188 C 122.1875 50.378906 122.019531 50.410156 121.464844 50.378906 Z M 124.371094 51.472656 C 125.351562 50.675781 126.316406 49.84375 126.777344 47.816406 C 127.035156 46.75 127.070312 45.753906 127.070312 45.289062 C 127.070312 43.59375 126.742188 42.433594 126.550781 41.898438 C 125.695312 39.375 124.113281 39.242188 122.738281 39.140625 L 120.847656 39.339844 C 119.589844 39.339844 119.261719 39.273438 118.59375 39.140625 C 118.625 40.46875 118.660156 41.800781 118.675781 43.128906 C 118.734375 45.390625 118.734375 47.617188 118.734375 49.84375 C 118.734375 52.039062 118.769531 54.234375 118.769531 56.390625 C 118.769531 57.191406 118.769531 57.953125 118.75 58.722656 C 118.734375 60.117188 118.675781 61.515625 118.625 62.910156 C 119.128906 62.847656 119.640625 62.742188 120.160156 62.742188 C 120.636719 62.742188 121.136719 62.8125 121.617188 62.878906 C 121.566406 61.316406 121.515625 59.78125 121.5 58.222656 C 121.480469 57.0625 121.480469 55.898438 121.480469 54.734375 C 121.464844 53.632812 121.449219 52.539062 121.398438 51.472656 L 124.78125 62.976562 C 125.386719 62.847656 125.988281 62.710938 126.582031 62.710938 C 127.101562 62.710938 127.3125 62.777344 128.199219 63.011719 C 127.582031 61.113281 126.96875 59.253906 126.347656 57.390625 C 125.957031 56.257812 125.570312 55.164062 125.191406 54.066406 L 124.371094 51.472656 "/>
</g>
</svg>
