<?xml version="1.0" encoding="utf-8"?>
<!-- Generator: Adobe Illustrator 28.3.0, SVG Export Plug-In . SVG Version: 6.00 Build 0)  -->
<svg version="1.1" id="svg2646" xmlns:svg="http://www.w3.org/2000/svg"
	 xmlns="http://www.w3.org/2000/svg" xmlns:xlink="http://www.w3.org/1999/xlink" x="0px" y="0px" viewBox="0 0 128 64"
	 style="enable-background:new 0 0 128 64;" xml:space="preserve">
<style type="text/css">
	.st0{fill:#BE2F37;}
	.st1{fill-rule:evenodd;clip-rule:evenodd;fill:#BE2F37;}
</style>
<g id="g2500">
	<g id="g2506">
		<path id="path2508" class="st0" d="M46,21.1c0,0,0.6,1,2.1,2.7c0.7,0.7,1.6,1.7,2.7,2.4c1,0.8,2.2,1.5,3.4,2
			c2.3,1.1,5.3,1.8,8.7,1.6c1.7-0.1,2.4-0.4,2.4-0.4s-1.7-0.1-3.2-0.7c-1.4-0.6-2.1-1.1-3-1.7c-0.8-0.6-1.9-1.8-2.5-2.7
			c-0.7-1.1-1-2.1-1-2.1s-1.5,0.2-2.6,0.2c-1.2,0-2.8,0-4.1-0.3C47.4,21.6,46,21.1,46,21.1"/>
		<path id="path2510" class="st0" d="M60.2,17.8c0-2.2,1.8-3.9,3.9-3.9c2.2,0,3.9,1.8,3.9,3.9c0,2.2-1.8,3.9-3.9,3.9
			C61.9,21.7,60.2,20,60.2,17.8"/>
		<path id="path2512" class="st0" d="M61.7,27.7c1.6-0.5,2.8-1.1,4.1-2.1c1.1-0.8,1.6-1.4,2.3-2.5c0.6-0.9,0.9-1.5,1.3-2.5
			c0.3-0.9,0.4-1.4,0.6-2.3c1.4,0.4,2.4,0.5,3.8,0.5c1.7,0,2.5-0.1,4.1-0.4c0,0-0.1,0.4-0.5,1.3c-0.4,0.9-0.8,1.7-1.3,2.4
			c-0.9,1.3-1.4,2-2.6,3.1c-1,0.9-1.6,1.5-2.7,2.1c-1.1,0.6-1.7,0.9-2.9,1.1c-1,0.2-1.6,0.2-2.5,0.2C63.8,28.5,63.1,28.3,61.7,27.7"
			/>
		<path id="path2514" class="st1" d="M5.3,38c0.2,0.9,0.5,1.8,0.7,2.6c0.3,0.9,0.5,1.7,0.8,2.5l-3.4,0L5.3,38z M4.9,44.3
			c0.4,0,0.9,0,1.3,0c0.3,0,0.6,0,0.9,0.1c0.2,0.7,0.4,1.4,0.6,2.1C7.8,47,8,47.6,8.1,48.2c0.6-0.1,1.1-0.1,1.7-0.1
			c0.5,0,0.9,0,1.4,0.1c-0.2-0.6-0.4-1.1-0.6-1.7c-0.3-0.8-0.5-1.6-0.8-2.5c-0.2-0.7-0.4-1.3-0.7-2c-0.3-0.8-0.5-1.7-0.8-2.6
			C8.2,38.7,8,38,7.8,37.2c-0.2-0.7-0.4-1.4-0.6-2c-0.3,0-0.7,0.1-1,0.1c-0.4,0-0.8-0.1-1.2-0.1c-0.3,1-0.6,2-0.9,3
			c-0.4,1.2-0.9,2.4-1.4,3.6c-0.5,1.2-0.9,2.4-1.4,3.5c-0.4,0.9-0.8,1.9-1.3,2.8c1.1-0.1,1.2,0,1.8,0.1c0.2-0.7,0.4-1.4,0.7-2.1
			c0.2-0.6,0.4-1.1,0.6-1.7H4.9"/>
		<path id="path2516" class="st0" d="M16,46.7c0-1.8,0-3.7,0-5.5c0-2,0.1-4,0.2-5.9c-0.5,0-1,0.1-1.5,0.1c-0.5,0-1-0.1-1.5-0.1
			c0,0.7,0,1.4,0.1,2.2v2c0,1.2,0,2.5,0,3.7c0,1.7-0.1,3.4-0.1,5.1c1.1,0,2.2-0.1,3.3-0.1c1.2,0,2.4,0.1,3.6,0.2l0-1.8L16,46.7"/>
		<path id="path2518" class="st0" d="M22.6,38.4c0,1.7,0,3.4,0,5.1c0,2.6,0,3-0.2,4.6C23.2,48,23.6,48,24,48c0.6,0,1.4,0.1,1.5,0.2
			c0-0.6-0.1-1.2-0.1-1.7c-0.1-1.2-0.1-2.4-0.1-3.6c0-2,0-4,0-6c0.6,0,1.2,0,1.7,0.1c0.5,0,1,0.1,1.5,0.2c0-0.4-0.1-0.6-0.1-1
			c0-0.3,0-0.6,0-0.8c-1.4,0-2.8,0-4.2,0c-1.7,0-3.4,0-5.2-0.1c0.1,0.8,0.1,1,0,1.8c0.6-0.1,1.2-0.1,1.7-0.2c0.5,0,1.1,0,1.6,0
			L22.6,38.4"/>
		<path id="path2520" class="st0" d="M33.4,36.7c0.7,0,1.3,0,2,0c0.6,0,1.3,0.1,1.9,0.2c0-0.3,0-0.5,0-0.8c0-0.3,0-0.6,0.1-0.9
			c-0.5,0-1,0-1.5,0c-0.7,0-1.5,0.1-2.2,0.1c-1,0-2.1-0.1-3.1-0.1c0,0.7,0.1,1.4,0.1,2.1c0,1.1,0,2.2,0,3.4c0,1.4,0,2.8,0,4.1
			c0,1.1-0.1,2.2-0.1,3.4c1.1,0,2.1-0.1,3.2-0.1c1.2,0,2.4,0,3.6,0.1c0-0.3-0.1-0.5-0.1-0.8c0-0.3,0-0.6,0.1-0.9l-3.9,0.2V42
			c0.6,0,1.1,0,1.7,0c0.7,0,1.4,0.1,2.2,0.1c-0.1-0.3-0.1-0.6-0.1-0.9c0-0.3,0-0.5,0.1-0.8c-0.6,0.1-1.2,0.1-1.8,0.1
			c-0.7,0-1.3,0.1-2,0.1V36.7"/>
		<path id="path2522" class="st0" d="M47.3,46.7c0-1.8,0-3.7,0-5.5c0-2,0.1-3.9,0.2-5.9c-0.5,0-1,0.1-1.5,0.1c-0.5,0-1-0.1-1.5-0.1
			c0,0.7,0.1,1.4,0.1,2.2v1.9c0,1.2,0,2.5,0,3.7c0,1.7-0.1,3.4-0.1,5.1c1.1,0,2.2-0.1,3.3-0.1c1.2,0,2.4,0.1,3.6,0.2l0-1.7
			L47.3,46.7"/>
		<path id="path2524" class="st0" d="M56.2,36.7c0.7,0,1.3,0,2,0c0.7,0,1.3,0.1,2,0.2c0-0.3-0.1-0.5-0.1-0.8c0-0.3,0-0.6,0.1-0.9
			c-0.5,0-1,0-1.5,0c-0.8,0-1.5,0.1-2.3,0.1c-1.1,0-2.1-0.1-3.1-0.1c0,0.7,0,1.4,0.1,2.1c0,1.1,0,2.2,0,3.4c0,1.4,0,2.8,0,4.1
			c0,1.1-0.1,2.2-0.1,3.4c1.1,0,2.2-0.1,3.2-0.1c1.2,0,2.4,0,3.6,0.1c0-0.3-0.1-0.5-0.1-0.8c0-0.3,0-0.6,0.1-0.9l-3.9,0.2V42
			c0.6,0,1.2,0,1.7,0c0.7,0,1.5,0.1,2.2,0.1c0-0.3-0.1-0.6-0.1-0.9c0-0.3,0-0.5,0.1-0.8c-0.6,0.1-1.2,0.1-1.9,0.1
			c-0.7,0-1.3,0.1-2,0.1V36.7"/>
		<path id="path2526" class="st0" d="M65.3,39c0-1.3,0.1-2.6,0.1-3.9c-0.8,0.1-1.1,0.1-1.5,0.1c-0.5,0-1-0.1-1.4-0.1
			c0,0.9,0.1,1.9,0.1,2.9c0,0.9,0,1.8,0,2.8v3c0,0.6,0,1.2,0,1.8c0,0.9-0.1,1.8-0.1,2.6c0.5-0.1,1-0.1,1.5-0.1c0.5,0,1,0,1.4,0.1
			c0-0.7-0.1-1.3-0.1-2c-0.1-1.6,0-3.2,0-4.9V39"/>
		<path id="path2528" class="st1" d="M71.4,36.4c0.8,0,1.5,0,2,0.8c0.4,0.5,0.4,1.2,0.4,1.4c0,1.2-0.4,1.9-0.6,2.2
			c-0.6,0.7-1.5,0.6-1.8,0.6c0-0.8,0-1.6,0-2.4C71.3,38.2,71.4,37.3,71.4,36.4z M68.5,35.2c0,0.8,0.1,1.5,0.1,2.3c0,0.9,0,1.8,0,2.6
			c0,1.1,0,2.3,0,3.4c0,0.8,0,1.5,0,2.3c0,0.8-0.1,1.5-0.1,2.3c0.5,0,0.9-0.1,1.4-0.1c0.7,0,1.3,0.1,1.6,0.1c0-1-0.1-2-0.1-3
			c0-0.8,0-1.7,0-2.5c1.3,0,2.6,0,3.8-0.8c0.1-0.1,0.6-0.4,0.9-0.8c0.6-0.9,0.7-2,0.7-2.3c0-1-0.4-1.7-0.6-2.1
			c-0.4-0.7-1.1-1.3-2.7-1.4c-0.3,0-0.7,0-1-0.1H68.5"/>
		<path id="path2530" class="st0" d="M86.9,35.1c-1.5,0.1-3,0.1-4.5,0.1c-1.6,0-3.3,0-4.9-0.1c0,0.1,0.1,0.5,0.1,1
			c0,0.3-0.1,0.9-0.1,0.9c0.7-0.1,1.4-0.1,2.1-0.2c1.2-0.1,2.3-0.1,3.5-0.1c-0.9,1.7-1.9,3.4-2.9,5.2c-0.6,1.1-1.2,2.2-1.8,3.3
			c-0.5,0.8-1,1.7-1.5,2.5l0,0.5c1.7-0.1,3.5-0.1,5.2-0.1c1.6,0,3.2,0,4.8,0.1c-0.1-0.8-0.1-1,0-1.8c-0.9,0.1-1.9,0.2-2.8,0.2
			c-1.1,0.1-2.2,0.1-3.3,0.1c0.2-0.4,0.4-0.8,0.6-1.2c0.5-0.9,1-1.8,1.5-2.7c0.8-1.4,1.5-2.8,2.3-4.2c0.6-1,1.1-2,1.7-3L86.9,35.1"
			/>
		<path id="path2532" class="st0" d="M91.8,39c0-1.3,0.1-2.6,0.1-3.8c-0.8,0.1-1.1,0.1-1.5,0.1c-0.5,0-1-0.1-1.4-0.1
			c0,0.9,0.1,1.9,0.1,2.8c0,0.9,0,1.8,0,2.8v3c0,0.6,0,1.2,0,1.8c0,0.9-0.1,1.8-0.1,2.6c0.5-0.1,1-0.1,1.5-0.1c0.5,0,1,0,1.4,0.1
			c0-0.7-0.1-1.3-0.1-2c-0.1-1.6,0-3.2,0-4.8V39"/>
		<path id="path2534" class="st0" d="M104.3,38.2c0.1-1.2,0.2-1.5,0.4-2.2c-0.3-0.2-0.4-0.3-0.6-0.3c-0.3-0.1-0.6-0.2-0.9-0.3
			c-1.2-0.3-1.8-0.4-2.4-0.4c-2.5,0-4.1,0.9-4.9,1.7c-1.9,1.8-2,4.3-2,5.2c0,3,1.2,4.4,2.1,5.2c1.4,1.2,2.8,1.4,4.5,1.4
			c1.6,0,2.8-0.3,4.3-0.7c0-0.8-0.1-1.6-0.1-2.4c0-0.7,0-1.5,0.1-2.2l0.1-1c-0.8,0.1-1.1,0.2-1.6,0.2c-0.5,0-0.9-0.1-1.4-0.1
			c0.1,0.7,0.1,1.5,0.1,2.2c0,0.8,0,1.7-0.1,2.5c-0.3,0.1-0.7,0.2-1.4,0.2c-0.8,0-1.3-0.2-1.6-0.3c-0.5-0.2-0.9-0.5-1.2-1
			c-1-1.4-1-3.7-1-4.1c0-2.8,1.2-4.3,2.1-5c0.8-0.5,1.6-0.6,2-0.6c1.6,0,2.3,0.8,2.7,1.3c0.1,0.2,0.3,0.3,0.4,0.5H104.3"/>
		<path id="path2536" class="st0" d="M110.4,36.8c0.7,0,1.3,0,2,0c0.6,0,1.3,0.1,1.9,0.2c0-0.3,0-0.5,0-0.8c0-0.3,0-0.6,0.1-0.9
			c-0.5,0-1,0-1.5,0c-0.7,0-1.5,0.1-2.2,0.1c-1,0-2.1-0.1-3.1-0.1c0,0.7,0.1,1.4,0.1,2.1c0,1.1,0,2.2,0,3.4c0,1.4,0,2.8,0,4.1
			c0,1.1-0.1,2.2-0.1,3.4c1.1,0,2.1-0.1,3.2-0.1c1.2,0,2.4,0,3.6,0.1c0-0.3-0.1-0.5-0.1-0.8c0-0.3,0-0.6,0.1-0.9l-3.9,0.2v-4.6
			c0.6,0,1.1,0,1.7,0c0.7,0,1.4,0.1,2.2,0.1c0-0.3-0.1-0.6-0.1-0.9c0-0.3,0-0.5,0.1-0.8c-0.6,0.1-1.2,0.1-1.8,0.1
			c-0.7,0-1.3,0.1-2,0.1V36.8"/>
		<path id="path2538" class="st1" d="M119.5,36.5c0.9,0,1.7-0.1,2.2,0.8c0.2,0.3,0.4,0.7,0.4,1.5c0,1.7-1,2.3-1.6,2.5
			c-0.3,0.1-0.5,0.1-1,0.1L119.5,36.5z M122.4,42c1-0.4,1.9-0.9,2.4-2c0.3-0.6,0.3-1.1,0.3-1.4c0-0.9-0.3-1.6-0.5-1.9
			c-0.8-1.4-2.4-1.5-3.8-1.5l-1.9,0.1c-1.2,0-1.6,0-2.2-0.1c0,0.7,0.1,1.5,0.1,2.2c0.1,1.2,0.1,2.5,0.1,3.7c0,1.2,0,2.4,0,3.6
			c0,0.4,0,0.9,0,1.3c0,0.8-0.1,1.5-0.1,2.3c0.5,0,1-0.1,1.5-0.1c0.5,0,1,0,1.4,0.1c0-0.9-0.1-1.7-0.1-2.5c0-0.6,0-1.3,0-1.9
			c0-0.6,0-1.2-0.1-1.8l3.3,6.3c0.6-0.1,1.2-0.1,1.8-0.1c0.5,0,0.7,0,1.6,0.2c-0.6-1-1.2-2.1-1.8-3.1c-0.4-0.6-0.8-1.2-1.1-1.8
			L122.4,42"/>
	</g>
</g>
</svg>
