<?xml version="1.0" encoding="UTF-8"?>
<svg xmlns="http://www.w3.org/2000/svg" xmlns:xlink="http://www.w3.org/1999/xlink" width="128px" height="36px" viewBox="0 0 129 36" version="1.1">
<g id="surface1">
<path style=" stroke:none;fill-rule:nonzero;fill:rgb(74.509804%,18.431373%,21.568627%);fill-opacity:1;" d="M 47.117188 7.464844 C 47.117188 7.464844 47.714844 8.515625 49.304688 10.269531 C 49.976562 11.007812 50.949219 12.011719 52.046875 12.738281 C 53.09375 13.519531 54.316406 14.257812 55.484375 14.761719 C 57.871094 15.867188 60.9375 16.625 64.40625 16.410156 C 66.152344 16.304688 66.863281 16.007812 66.863281 16.007812 C 66.863281 16.007812 65.089844 15.871094 63.5625 15.242188 C 62.136719 14.671875 61.382812 14.082031 60.515625 13.457031 C 59.703125 12.867188 58.574219 11.617188 57.972656 10.695312 C 57.214844 9.53125 56.933594 8.515625 56.933594 8.515625 C 56.933594 8.515625 55.382812 8.734375 54.25 8.753906 C 53.042969 8.773438 51.355469 8.734375 50.089844 8.394531 C 48.566406 7.988281 47.117188 7.464844 47.117188 7.464844 "/>
<path style=" stroke:none;fill-rule:nonzero;fill:rgb(74.509804%,18.431373%,21.568627%);fill-opacity:1;" d="M 61.601562 4.035156 C 61.601562 1.804688 63.410156 -0.00390625 65.628906 0 C 67.851562 0.00390625 69.648438 1.816406 69.640625 4.050781 C 69.640625 6.285156 67.832031 8.09375 65.613281 8.089844 C 63.394531 8.085938 61.597656 6.269531 61.601562 4.035156 "/>
<path style=" stroke:none;fill-rule:nonzero;fill:rgb(74.509804%,18.431373%,21.568627%);fill-opacity:1;" d="M 63.183594 14.289062 C 64.8125 13.800781 66.011719 13.164062 67.351562 12.144531 C 68.460938 11.308594 68.957031 10.703125 69.714844 9.570312 C 70.339844 8.632812 70.628906 8.046875 71.007812 6.984375 C 71.328125 6.097656 71.457031 5.570312 71.589844 4.636719 C 73.058594 5.019531 74.039062 5.113281 75.515625 5.136719 C 77.246094 5.164062 78.089844 5.003906 79.703125 4.675781 C 79.703125 4.675781 79.585938 5.121094 79.1875 5.964844 C 78.75 6.863281 78.320312 7.753906 77.855469 8.464844 C 76.976562 9.820312 76.410156 10.570312 75.222656 11.664062 C 74.175781 12.636719 73.625 13.175781 72.417969 13.855469 C 71.320312 14.46875 70.652344 14.78125 69.421875 15.035156 C 68.425781 15.238281 67.832031 15.261719 66.8125 15.199219 C 65.351562 15.105469 64.582031 14.871094 63.183594 14.289062 "/>
<path style=" stroke:none;fill-rule:evenodd;fill:rgb(74.509804%,18.431373%,21.568627%);fill-opacity:1;" d="M 5.417969 24.863281 C 5.664062 25.765625 5.902344 26.667969 6.164062 27.554688 C 6.425781 28.433594 6.71875 29.300781 7.015625 30.164062 L 3.578125 30.183594 Z M 5.023438 31.347656 C 5.453125 31.347656 5.902344 31.328125 6.339844 31.328125 C 6.652344 31.328125 6.945312 31.347656 7.257812 31.386719 C 7.480469 32.121094 7.691406 32.851562 7.894531 33.585938 C 8.035156 34.148438 8.171875 34.730469 8.296875 35.316406 C 8.882812 35.257812 9.453125 35.21875 10.046875 35.21875 C 10.527344 35.21875 11.015625 35.257812 11.496094 35.277344 C 11.277344 34.695312 11.050781 34.128906 10.855469 33.527344 C 10.5625 32.703125 10.324219 31.835938 10.046875 30.992188 C 9.820312 30.296875 9.589844 29.621094 9.371094 28.945312 C 9.089844 28.078125 8.863281 27.195312 8.601562 26.3125 C 8.398438 25.558594 8.171875 24.828125 7.953125 24.074219 C 7.757812 23.359375 7.5625 22.664062 7.378906 21.96875 C 7.03125 21.988281 6.683594 22.027344 6.339844 22.027344 C 5.917969 22.027344 5.519531 21.96875 5.125 21.933594 C 4.828125 22.949219 4.515625 23.980469 4.167969 24.976562 C 3.738281 26.238281 3.25 27.457031 2.769531 28.699219 C 2.304688 29.902344 1.847656 31.140625 1.332031 32.34375 C 0.9375 33.300781 0.464844 34.261719 0 35.21875 C 1.105469 35.164062 1.222656 35.199219 1.882812 35.277344 C 2.109375 34.542969 2.335938 33.808594 2.574219 33.09375 C 2.769531 32.496094 2.972656 31.929688 3.164062 31.347656 L 5.023438 31.347656 "/>
<path style=" stroke:none;fill-rule:nonzero;fill:rgb(74.509804%,18.431373%,21.568627%);fill-opacity:1;" d="M 16.410156 33.777344 C 16.394531 31.882812 16.378906 29.980469 16.394531 28.085938 C 16.394531 26.054688 16.488281 24.007812 16.570312 21.976562 C 16.066406 22.015625 15.582031 22.050781 15.078125 22.050781 C 14.5625 22.050781 14.023438 21.996094 13.507812 21.9375 C 13.523438 22.691406 13.558594 23.421875 13.574219 24.175781 L 13.574219 26.1875 C 13.558594 27.464844 13.539062 28.761719 13.539062 30.019531 C 13.539062 31.785156 13.464844 33.554688 13.398438 35.320312 C 14.527344 35.28125 15.652344 35.226562 16.785156 35.226562 C 17.988281 35.226562 19.222656 35.300781 20.429688 35.394531 L 20.457031 33.589844 L 16.410156 33.777344 "/>
<path style=" stroke:none;fill-rule:nonzero;fill:rgb(74.509804%,18.431373%,21.568627%);fill-opacity:1;" d="M 23.171875 25.273438 C 23.191406 27.003906 23.171875 28.789062 23.171875 30.539062 C 23.171875 33.253906 23.15625 33.644531 22.960938 35.246094 C 23.773438 35.152344 24.203125 35.117188 24.601562 35.117188 C 25.234375 35.117188 26.035156 35.265625 26.171875 35.285156 C 26.121094 34.6875 26.085938 34.09375 26.050781 33.496094 C 25.984375 32.269531 25.96875 31.023438 25.96875 29.796875 C 25.96875 27.730469 25.96875 25.683594 25.984375 23.636719 C 26.566406 23.636719 27.167969 23.65625 27.75 23.691406 C 28.265625 23.730469 28.78125 23.804688 29.292969 23.859375 C 29.261719 23.449219 29.226562 23.265625 29.226562 22.875 C 29.226562 22.578125 29.246094 22.277344 29.277344 22 C 27.84375 22.019531 26.398438 22.035156 24.953125 22.035156 C 23.207031 22.035156 21.445312 22 19.671875 21.945312 C 19.746094 22.726562 19.761719 22.96875 19.703125 23.804688 C 20.304688 23.75 20.894531 23.691406 21.492188 23.636719 C 22.042969 23.617188 22.574219 23.601562 23.121094 23.601562 L 23.171875 25.273438 "/>
<path style=" stroke:none;fill-rule:nonzero;fill:rgb(74.509804%,18.431373%,21.568627%);fill-opacity:1;" d="M 34.183594 23.480469 C 34.875 23.480469 35.542969 23.480469 36.226562 23.519531 C 36.875 23.554688 37.550781 23.628906 38.199219 23.703125 C 38.183594 23.421875 38.152344 23.144531 38.152344 22.878906 C 38.152344 22.539062 38.183594 22.277344 38.234375 21.9375 C 37.71875 21.9375 37.222656 21.957031 36.707031 21.976562 C 35.957031 21.996094 35.179688 22.03125 34.425781 22.03125 C 33.363281 22.03125 32.316406 21.976562 31.253906 21.921875 C 31.285156 22.652344 31.304688 23.386719 31.320312 24.121094 C 31.355469 25.265625 31.355469 26.429688 31.355469 27.597656 C 31.355469 29.023438 31.371094 30.433594 31.335938 31.84375 C 31.320312 32.988281 31.269531 34.136719 31.203125 35.300781 C 32.300781 35.261719 33.378906 35.226562 34.476562 35.226562 C 35.695312 35.226562 36.890625 35.261719 38.117188 35.300781 C 38.101562 35.019531 38.058594 34.738281 38.058594 34.4375 C 38.058594 34.136719 38.101562 33.816406 38.117188 33.515625 L 34.167969 33.742188 L 34.167969 28.96875 C 34.75 28.984375 35.339844 28.984375 35.921875 29.003906 C 36.65625 29.023438 37.390625 29.082031 38.152344 29.136719 C 38.101562 28.78125 38.039062 28.535156 38.039062 28.175781 C 38.039062 27.859375 38.082031 27.652344 38.117188 27.332031 C 37.484375 27.390625 36.859375 27.445312 36.226562 27.484375 C 35.542969 27.519531 34.875 27.539062 34.183594 27.539062 L 34.183594 23.480469 "/>
<path style=" stroke:none;fill-rule:nonzero;fill:rgb(74.509804%,18.431373%,21.568627%);fill-opacity:1;" d="M 48.46875 33.835938 C 48.449219 31.945312 48.433594 30.054688 48.449219 28.171875 C 48.449219 26.148438 48.535156 24.113281 48.628906 22.089844 C 48.121094 22.128906 47.640625 22.167969 47.132812 22.167969 C 46.617188 22.167969 46.078125 22.109375 45.554688 22.054688 C 45.570312 22.804688 45.613281 23.53125 45.628906 24.28125 L 45.628906 26.28125 C 45.613281 27.550781 45.597656 28.84375 45.597656 30.09375 C 45.597656 31.851562 45.519531 33.609375 45.453125 35.367188 C 46.574219 35.332031 47.707031 35.273438 48.832031 35.273438 C 50.046875 35.273438 51.277344 35.351562 52.484375 35.441406 L 52.503906 33.648438 L 48.46875 33.835938 "/>
<path style=" stroke:none;fill-rule:nonzero;fill:rgb(74.509804%,18.431373%,21.568627%);fill-opacity:1;" d="M 57.507812 23.480469 C 58.199219 23.480469 58.886719 23.480469 59.578125 23.519531 C 60.246094 23.554688 60.917969 23.628906 61.578125 23.707031 C 61.5625 23.425781 61.527344 23.144531 61.527344 22.878906 C 61.527344 22.539062 61.5625 22.277344 61.621094 21.9375 C 61.097656 21.9375 60.589844 21.957031 60.066406 21.976562 C 59.296875 21.996094 58.511719 22.03125 57.753906 22.03125 C 56.675781 22.03125 55.609375 21.976562 54.53125 21.921875 C 54.5625 22.652344 54.578125 23.386719 54.597656 24.121094 C 54.636719 25.265625 54.636719 26.429688 54.636719 27.597656 C 54.636719 29.023438 54.65625 30.433594 54.613281 31.84375 C 54.597656 32.988281 54.546875 34.136719 54.476562 35.300781 C 55.59375 35.261719 56.691406 35.222656 57.804688 35.222656 C 59.035156 35.222656 60.261719 35.261719 61.496094 35.300781 C 61.476562 35.019531 61.441406 34.738281 61.441406 34.4375 C 61.441406 34.136719 61.476562 33.816406 61.496094 33.515625 L 57.492188 33.742188 L 57.492188 28.96875 C 58.082031 28.984375 58.675781 28.984375 59.265625 29.003906 C 60.015625 29.023438 60.769531 29.082031 61.527344 29.136719 C 61.476562 28.78125 61.425781 28.535156 61.425781 28.175781 C 61.425781 27.859375 61.460938 27.652344 61.496094 27.332031 C 60.851562 27.390625 60.21875 27.445312 59.578125 27.484375 C 58.886719 27.519531 58.199219 27.539062 57.507812 27.539062 L 57.507812 23.480469 "/>
<path style=" stroke:none;fill-rule:nonzero;fill:rgb(74.509804%,18.431373%,21.568627%);fill-opacity:1;" d="M 66.890625 25.847656 C 66.921875 24.515625 66.972656 23.179688 67.03125 21.863281 C 66.222656 21.976562 65.910156 22.015625 65.488281 22.015625 C 64.996094 22.015625 64.507812 21.957031 64.019531 21.902344 C 64.050781 22.878906 64.113281 23.855469 64.144531 24.851562 C 64.160156 25.789062 64.160156 26.75 64.160156 27.707031 L 64.160156 30.773438 C 64.160156 31.390625 64.160156 31.992188 64.144531 32.613281 C 64.128906 33.515625 64.078125 34.4375 64.019531 35.339844 C 64.542969 35.28125 65.074219 35.246094 65.578125 35.246094 C 66.070312 35.246094 66.558594 35.28125 67.046875 35.339844 C 67.015625 34.664062 66.957031 33.984375 66.9375 33.308594 C 66.871094 31.636719 66.890625 29.964844 66.890625 28.292969 L 66.890625 25.847656 "/>
<path style=" stroke:none;fill-rule:evenodd;fill:rgb(74.509804%,18.431373%,21.568627%);fill-opacity:1;" d="M 73.101562 23.226562 C 73.945312 23.1875 74.664062 23.1875 75.179688 24.03125 C 75.542969 24.59375 75.558594 25.265625 75.558594 25.46875 C 75.558594 26.703125 75.179688 27.414062 74.910156 27.75 C 74.265625 28.480469 73.339844 28.40625 73.050781 28.40625 C 73.035156 27.566406 73.035156 26.742188 73.035156 25.917969 C 73.035156 25.019531 73.066406 24.125 73.101562 23.226562 Z M 70.140625 21.992188 C 70.171875 22.796875 70.207031 23.582031 70.242188 24.386719 C 70.265625 25.285156 70.28125 26.199219 70.28125 27.097656 C 70.28125 28.273438 70.265625 29.453125 70.242188 30.613281 C 70.242188 31.398438 70.242188 32.164062 70.222656 32.929688 C 70.199219 33.714844 70.140625 34.5 70.089844 35.285156 C 70.550781 35.269531 71.015625 35.230469 71.480469 35.230469 C 72.242188 35.230469 72.824219 35.34375 73.136719 35.382812 C 73.101562 34.332031 73.050781 33.304688 73.035156 32.257812 C 73.019531 31.398438 73.035156 30.539062 73.035156 29.660156 C 74.375 29.640625 75.734375 29.640625 76.917969 28.875 C 77.070312 28.761719 77.484375 28.496094 77.828125 28.03125 C 78.488281 27.113281 78.539062 26.011719 78.539062 25.621094 C 78.539062 24.554688 78.175781 23.824219 77.964844 23.507812 C 77.542969 22.777344 76.867188 22.199219 75.230469 22.046875 C 74.894531 22.011719 74.546875 22.011719 74.183594 21.992188 L 70.140625 21.992188 "/>
<path style=" stroke:none;fill-rule:nonzero;fill:rgb(74.509804%,18.431373%,21.568627%);fill-opacity:1;" d="M 89.015625 21.902344 C 87.472656 21.957031 85.925781 22.015625 84.382812 22.015625 C 82.71875 22.015625 81.039062 21.976562 79.375 21.921875 C 79.390625 22.070312 79.460938 22.484375 79.460938 22.917969 C 79.460938 23.253906 79.390625 23.800781 79.390625 23.839844 C 80.109375 23.78125 80.820312 23.726562 81.535156 23.667969 C 82.71875 23.59375 83.902344 23.554688 85.082031 23.519531 C 84.109375 25.285156 83.113281 27.070312 82.152344 28.855469 C 81.535156 30 80.9375 31.164062 80.292969 32.292969 C 79.804688 33.160156 79.308594 34.003906 78.792969 34.851562 L 78.773438 35.394531 C 80.554688 35.339844 82.320312 35.261719 84.109375 35.261719 C 85.757812 35.261719 87.402344 35.300781 89.066406 35.339844 C 88.992188 34.546875 88.992188 34.304688 89.023438 33.515625 C 88.070312 33.589844 87.089844 33.683594 86.113281 33.742188 C 84.964844 33.796875 83.890625 33.796875 82.742188 33.796875 C 82.945312 33.382812 83.15625 32.96875 83.375 32.558594 C 83.890625 31.617188 84.421875 30.695312 84.921875 29.777344 C 85.707031 28.347656 86.484375 26.898438 87.269531 25.472656 C 87.867188 24.4375 88.390625 23.40625 88.992188 22.390625 L 89.015625 21.902344 "/>
<path style=" stroke:none;fill-rule:nonzero;fill:rgb(74.509804%,18.431373%,21.568627%);fill-opacity:1;" d="M 93.996094 25.863281 C 94.03125 24.535156 94.082031 23.207031 94.140625 21.898438 C 93.328125 22.011719 93.007812 22.046875 92.585938 22.046875 C 92.097656 22.046875 91.609375 21.992188 91.109375 21.933594 C 91.152344 22.90625 91.203125 23.878906 91.234375 24.871094 C 91.253906 25.804688 91.253906 26.757812 91.253906 27.710938 L 91.253906 30.761719 C 91.253906 31.378906 91.253906 31.976562 91.234375 32.59375 C 91.21875 33.492188 91.167969 34.40625 91.109375 35.304688 C 91.640625 35.25 92.164062 35.210938 92.679688 35.210938 C 93.167969 35.210938 93.667969 35.25 94.15625 35.304688 C 94.125 34.632812 94.066406 33.960938 94.046875 33.285156 C 93.980469 31.621094 93.996094 29.957031 93.996094 28.292969 L 93.996094 25.863281 "/>
<path style=" stroke:none;fill-rule:nonzero;fill:rgb(74.509804%,18.431373%,21.568627%);fill-opacity:1;" d="M 106.804688 25.046875 C 106.929688 23.808594 107.03125 23.503906 107.199219 22.808594 C 106.855469 22.585938 106.753906 22.527344 106.550781 22.453125 C 106.253906 22.320312 105.960938 22.246094 105.648438 22.152344 C 104.390625 21.796875 103.789062 21.777344 103.148438 21.777344 C 100.550781 21.777344 98.945312 22.734375 98.082031 23.5625 C 96.117188 25.402344 96.03125 27.996094 96.03125 28.917969 C 96.03125 32.019531 97.273438 33.484375 98.226562 34.273438 C 99.652344 35.496094 101.140625 35.71875 102.878906 35.71875 C 104.53125 35.71875 105.722656 35.402344 107.285156 34.96875 C 107.25 34.144531 107.199219 33.296875 107.199219 32.46875 C 107.199219 31.71875 107.25 30.964844 107.3125 30.234375 L 107.429688 29.199219 C 106.601562 29.332031 106.253906 29.367188 105.824219 29.367188 C 105.359375 29.367188 104.898438 29.3125 104.421875 29.273438 C 104.480469 30.042969 104.515625 30.816406 104.515625 31.585938 C 104.515625 32.449219 104.480469 33.296875 104.441406 34.144531 C 104.171875 34.238281 103.738281 34.386719 103.046875 34.386719 C 102.238281 34.386719 101.6875 34.21875 101.375 34.085938 C 100.894531 33.878906 100.449219 33.523438 100.117188 33.070312 C 99.0625 31.625 99.046875 29.238281 99.046875 28.859375 C 99.046875 25.945312 100.285156 24.386719 101.222656 23.75 C 102.050781 23.207031 102.894531 23.148438 103.226562 23.148438 C 104.820312 23.148438 105.578125 24.011719 105.976562 24.503906 C 106.121094 24.691406 106.253906 24.859375 106.375 25.046875 L 106.804688 25.046875 "/>
<path style=" stroke:none;fill-rule:nonzero;fill:rgb(74.509804%,18.431373%,21.568627%);fill-opacity:1;" d="M 113.019531 23.5625 C 113.703125 23.5625 114.367188 23.5625 115.054688 23.597656 C 115.703125 23.636719 116.378906 23.710938 117.027344 23.789062 C 117.011719 23.503906 116.976562 23.222656 116.976562 22.960938 C 116.976562 22.621094 117.011719 22.359375 117.0625 22.019531 C 116.546875 22.019531 116.050781 22.039062 115.535156 22.058594 C 114.78125 22.078125 114.003906 22.113281 113.253906 22.113281 C 112.191406 22.113281 111.144531 22.058594 110.078125 22 C 110.113281 22.734375 110.132812 23.46875 110.148438 24.203125 C 110.179688 25.347656 110.179688 26.511719 110.179688 27.675781 C 110.179688 29.105469 110.199219 30.515625 110.164062 31.921875 C 110.148438 33.070312 110.097656 34.21875 110.027344 35.382812 C 111.128906 35.347656 112.207031 35.308594 113.304688 35.308594 C 114.519531 35.308594 115.71875 35.347656 116.945312 35.382812 C 116.925781 35.101562 116.882812 34.820312 116.882812 34.515625 C 116.882812 34.21875 116.925781 33.898438 116.945312 33.597656 L 112.992188 33.824219 L 112.992188 29.046875 C 113.574219 29.066406 114.164062 29.066406 114.738281 29.085938 C 115.484375 29.105469 116.21875 29.160156 116.976562 29.21875 C 116.925781 28.859375 116.867188 28.617188 116.867188 28.261719 C 116.867188 27.941406 116.910156 27.734375 116.945312 27.414062 C 116.300781 27.46875 115.6875 27.527344 115.054688 27.566406 C 114.367188 27.601562 113.703125 27.621094 113.019531 27.621094 L 113.019531 23.5625 "/>
<path style=" stroke:none;fill-rule:evenodd;fill:rgb(74.509804%,18.431373%,21.568627%);fill-opacity:1;" d="M 122.398438 23.304688 C 123.316406 23.269531 124.109375 23.25 124.683594 24.132812 C 124.871094 24.429688 125.082031 24.898438 125.082031 25.71875 C 125.082031 27.457031 124.09375 28.09375 123.4375 28.261719 C 123.140625 28.339844 122.972656 28.355469 122.414062 28.339844 Z M 125.34375 28.953125 C 126.332031 28.503906 127.300781 28.035156 127.765625 26.898438 C 128.027344 26.296875 128.0625 25.738281 128.0625 25.476562 C 128.0625 24.523438 127.734375 23.867188 127.539062 23.570312 C 126.675781 22.148438 125.082031 22.074219 123.699219 22.015625 L 121.789062 22.128906 C 120.523438 22.128906 120.195312 22.089844 119.519531 22.015625 C 119.550781 22.765625 119.585938 23.515625 119.601562 24.261719 C 119.660156 25.53125 119.660156 26.785156 119.660156 28.035156 C 119.660156 29.269531 119.695312 30.503906 119.695312 31.722656 C 119.695312 32.171875 119.695312 32.597656 119.679688 33.03125 C 119.660156 33.816406 119.601562 34.601562 119.550781 35.386719 C 120.058594 35.351562 120.574219 35.292969 121.097656 35.292969 C 121.578125 35.292969 122.085938 35.332031 122.566406 35.371094 C 122.515625 34.488281 122.464844 33.628906 122.449219 32.75 C 122.429688 32.097656 122.429688 31.441406 122.429688 30.789062 C 122.414062 30.167969 122.398438 29.550781 122.347656 28.953125 L 125.757812 35.425781 C 126.363281 35.351562 126.972656 35.273438 127.574219 35.273438 C 128.097656 35.273438 128.308594 35.3125 129.203125 35.441406 C 128.578125 34.375 127.960938 33.328125 127.335938 32.28125 C 126.9375 31.644531 126.550781 31.03125 126.171875 30.410156 L 125.34375 28.953125 "/>
</g>
</svg>
