<?xml version="1.0" encoding="UTF-8"?>
<svg xmlns="http://www.w3.org/2000/svg" xmlns:xlink="http://www.w3.org/1999/xlink" width="71px" height="71px" viewBox="0 0 71 71" version="1.1">
<g id="surface1">
<path style=" stroke:none;fill-rule:nonzero;fill:rgb(0%,0%,56.078431%);fill-opacity:1;" d="M 0 0 L 70.773438 0 L 70.773438 70.773438 L 0 70.773438 Z M 0 0 "/>
<path style=" stroke:none;fill-rule:nonzero;fill:rgb(100%,9.019608%,12.941176%);fill-opacity:1;" d="M 39.792969 34.949219 L 43.855469 34.949219 L 70.773438 0 L 66.796875 0 Z M 39.792969 34.949219 "/>
<path style=" stroke:none;fill-rule:nonzero;fill:rgb(100%,100%,100%);fill-opacity:1;" d="M 54.078125 50.546875 C 55.308594 54 57.851562 62.980469 58.863281 63.695312 L 52.191406 63.695312 C 52.167969 62.902344 52.066406 62.113281 51.875 61.339844 C 51.589844 60.3125 49.175781 52.546875 49.175781 52.546875 L 38.574219 52.546875 L 36.910156 54.910156 C 36.910156 54.910156 38.910156 61.175781 39.035156 61.484375 C 39.25 62.039062 40.207031 63.695312 40.207031 63.695312 L 33.8125 63.695312 C 33.8125 63.695312 33.644531 62.738281 33.582031 62.339844 C 33.53125 62.019531 32.976562 60.253906 32.976562 60.253906 C 32.976562 60.253906 31.527344 61.84375 31.132812 62.578125 C 30.734375 63.316406 30.558594 63.695312 30.558594 63.695312 L 25.554688 63.695312 C 25.554688 63.695312 25.386719 62.738281 25.324219 62.339844 C 25.277344 62.019531 24.664062 60.113281 24.664062 60.113281 C 24.664062 60.113281 23.261719 61.8125 22.863281 62.550781 C 22.46875 63.285156 22.296875 63.695312 22.296875 63.695312 L 17.351562 63.695312 C 17.351562 63.695312 18.75 62.363281 19.238281 61.792969 C 20.0625 60.824219 23.132812 56.808594 23.132812 56.808594 L 21.902344 52.546875 L 11.382812 52.546875 C 11.382812 52.546875 5.382812 60.429688 5.148438 60.671875 C 4.90625 60.914062 3.160156 63.421875 3.121094 63.695312 L 0 63.695312 L 0 61.710938 C 0.0390625 61.667969 0.078125 61.628906 0.125 61.589844 C 0.21875 61.519531 4.671875 55.996094 8.757812 50.546875 C 12.433594 45.796875 15.882812 41.175781 16.183594 40.738281 C 16.914062 39.671875 17.972656 37.375 17.972656 37.375 L 23.410156 37.375 C 23.410156 37.375 23.578125 39.488281 23.738281 40 C 23.878906 40.453125 27.191406 51.328125 27.269531 51.445312 L 29.101562 49.101562 L 25.96875 39.460938 C 25.96875 39.460938 25.234375 37.644531 24.996094 37.375 L 31.351562 37.375 C 31.328125 37.957031 31.398438 38.539062 31.558594 39.101562 C 31.816406 39.898438 33.175781 44.8125 33.175781 44.8125 C 33.175781 44.8125 37.507812 39.378906 37.761719 38.988281 C 38.070312 38.503906 38.253906 37.949219 38.296875 37.375 L 43.589844 37.375 C 43.589844 37.375 42.621094 38.082031 40.925781 40.230469 C 40.355469 40.953125 34.765625 48.058594 34.765625 48.058594 C 34.765625 48.058594 35.25 49.71875 35.488281 50.546875 C 35.554688 50.785156 35.597656 50.945312 35.597656 50.964844 C 35.597656 50.96875 35.722656 50.820312 35.933594 50.546875 C 37.375 48.71875 43.9375 40.117188 44.335938 39.382812 C 44.65625 38.789062 45.125 38.109375 45.402344 37.375 L 50.566406 37.375 C 50.566406 37.375 50.6875 38.917969 50.84375 39.34375 Z M 46.21875 42.40625 C 45.460938 44.035156 40.996094 49.46875 40.996094 49.46875 L 48.066406 49.46875 C 48.066406 49.46875 46.695312 45.25 46.457031 44.300781 C 46.335938 43.691406 46.289062 43.070312 46.316406 42.453125 C 46.316406 42.363281 46.300781 42.226562 46.21875 42.40625 Z M 19.0625 42.40625 C 18.304688 44.035156 13.839844 49.46875 13.839844 49.46875 L 20.910156 49.46875 C 20.910156 49.46875 19.539062 45.25 19.300781 44.300781 C 19.179688 43.691406 19.132812 43.070312 19.160156 42.453125 C 19.160156 42.363281 19.144531 42.226562 19.0625 42.40625 Z M 29.703125 58.878906 L 31.648438 56.207031 C 31.46875 56.015625 30.375 52.691406 30.375 52.691406 L 28.492188 55.132812 Z M 29.703125 58.878906 "/>
</g>
</svg>
