<?xml version="1.0" encoding="UTF-8"?>
<svg xmlns="http://www.w3.org/2000/svg" xmlns:xlink="http://www.w3.org/1999/xlink" width="90px" height="90px" viewBox="0 0 90 90" version="1.1">
<g id="surface1">
<path style=" stroke:none;fill-rule:nonzero;fill:rgb(0%,0%,56.078431%);fill-opacity:1;" d="M 0 0 L 89.710938 0 L 89.710938 89.710938 L 0 89.710938 Z M 0 0 "/>
<path style=" stroke:none;fill-rule:nonzero;fill:rgb(100%,9.019608%,12.941176%);fill-opacity:1;" d="M 50.441406 44.304688 L 55.59375 44.304688 L 89.710938 0 L 84.671875 0 Z M 50.441406 44.304688 "/>
<path style=" stroke:none;fill-rule:nonzero;fill:rgb(100%,100%,100%);fill-opacity:1;" d="M 68.546875 64.074219 C 70.113281 68.449219 73.332031 79.832031 74.613281 80.742188 L 66.15625 80.742188 C 66.128906 79.734375 65.996094 78.734375 65.757812 77.753906 C 65.394531 76.453125 62.335938 66.609375 62.335938 66.609375 L 48.898438 66.609375 L 46.785156 69.605469 C 46.785156 69.605469 49.324219 77.546875 49.480469 77.9375 C 49.753906 78.640625 50.964844 80.742188 50.964844 80.742188 L 42.859375 80.742188 C 42.859375 80.742188 42.648438 79.527344 42.570312 79.023438 C 42.507812 78.613281 41.800781 76.378906 41.800781 76.378906 C 41.800781 76.378906 39.964844 78.394531 39.464844 79.328125 C 38.957031 80.257812 38.734375 80.742188 38.734375 80.742188 L 32.394531 80.742188 C 32.394531 80.742188 32.179688 79.527344 32.101562 79.023438 C 32.039062 78.613281 31.265625 76.199219 31.265625 76.199219 C 31.265625 76.199219 29.488281 78.355469 28.984375 79.289062 C 28.480469 80.222656 28.265625 80.742188 28.265625 80.742188 L 21.992188 80.742188 C 21.992188 80.742188 23.765625 79.054688 24.386719 78.328125 C 25.429688 77.101562 29.320312 72.011719 29.320312 72.011719 L 27.761719 66.609375 L 14.425781 66.609375 C 14.425781 66.609375 6.824219 76.601562 6.523438 76.910156 C 6.222656 77.214844 4.003906 80.394531 3.957031 80.742188 L 0 80.742188 L 0 78.226562 C 0.0507812 78.171875 0.101562 78.121094 0.15625 78.074219 C 0.277344 77.984375 5.921875 70.980469 11.101562 64.074219 C 15.761719 58.050781 20.128906 52.195312 20.515625 51.636719 C 21.441406 50.289062 22.78125 47.375 22.78125 47.375 L 29.675781 47.375 C 29.675781 47.375 29.886719 50.054688 30.089844 50.707031 C 30.269531 51.28125 34.46875 65.0625 34.566406 65.210938 L 36.890625 62.238281 L 32.917969 50.019531 C 32.917969 50.019531 31.988281 47.71875 31.6875 47.375 L 39.738281 47.375 C 39.710938 48.113281 39.800781 48.855469 40 49.566406 C 40.328125 50.574219 42.054688 56.800781 42.054688 56.800781 C 42.054688 56.800781 47.546875 49.917969 47.867188 49.421875 C 48.257812 48.804688 48.492188 48.105469 48.546875 47.375 L 55.257812 47.375 C 55.257812 47.375 54.027344 48.273438 51.875 50.996094 C 51.152344 51.914062 44.066406 60.917969 44.066406 60.917969 C 44.066406 60.917969 44.6875 63.023438 44.988281 64.074219 C 45.070312 64.375 45.125 64.578125 45.125 64.601562 C 45.125 64.609375 45.28125 64.417969 45.550781 64.074219 C 47.378906 61.757812 55.695312 50.855469 56.199219 49.921875 C 56.605469 49.167969 57.203125 48.308594 57.554688 47.375 L 64.097656 47.375 C 64.097656 47.375 64.25 49.332031 64.449219 49.871094 Z M 58.585938 53.753906 C 57.625 55.820312 51.96875 62.707031 51.96875 62.707031 L 60.929688 62.707031 C 60.929688 62.707031 59.191406 57.359375 58.886719 56.15625 C 58.734375 55.382812 58.675781 54.597656 58.710938 53.8125 C 58.710938 53.703125 58.691406 53.523438 58.585938 53.753906 Z M 24.164062 53.753906 C 23.199219 55.820312 17.542969 62.707031 17.542969 62.707031 L 26.503906 62.707031 C 26.503906 62.707031 24.769531 57.359375 24.464844 56.15625 C 24.308594 55.382812 24.25 54.597656 24.289062 53.8125 C 24.289062 53.703125 24.265625 53.523438 24.164062 53.753906 Z M 37.652344 74.636719 L 40.117188 71.25 C 39.890625 71.003906 38.5 66.792969 38.5 66.792969 L 36.117188 69.886719 Z M 37.652344 74.636719 "/>
</g>
</svg>
