<?xml version="1.0" encoding="UTF-8"?>
<svg xmlns="http://www.w3.org/2000/svg" xmlns:xlink="http://www.w3.org/1999/xlink" width="87px" height="74px" viewBox="0 0 87 74" version="1.1">
<g id="surface1">
<path style=" stroke:none;fill-rule:nonzero;fill:rgb(0%,0%,56.078431%);fill-opacity:1;" d="M 0 0 L 86.71875 0 L 86.71875 73.761719 L 0 73.761719 Z M 0 0 "/>
<path style=" stroke:none;fill-rule:nonzero;fill:rgb(100%,9.019608%,12.941176%);fill-opacity:1;" d="M 48.757812 36.425781 L 53.738281 36.425781 L 86.71875 0 L 81.847656 0 Z M 48.757812 36.425781 "/>
<path style=" stroke:none;fill-rule:nonzero;fill:rgb(100%,100%,100%);fill-opacity:1;" d="M 66.261719 52.683594 C 67.773438 56.28125 70.890625 65.640625 72.128906 66.386719 L 63.949219 66.386719 C 63.925781 65.558594 63.796875 64.734375 63.566406 63.933594 C 63.214844 62.863281 60.257812 54.769531 60.257812 54.769531 L 47.269531 54.769531 L 45.226562 57.230469 C 45.226562 57.230469 47.679688 63.761719 47.832031 64.082031 C 48.09375 64.660156 49.265625 66.386719 49.265625 66.386719 L 41.429688 66.386719 C 41.429688 66.386719 41.226562 65.390625 41.152344 64.972656 C 41.089844 64.636719 40.410156 62.800781 40.410156 62.800781 C 40.410156 62.800781 38.632812 64.457031 38.148438 65.222656 C 37.660156 65.988281 37.441406 66.386719 37.441406 66.386719 L 31.3125 66.386719 C 31.3125 66.386719 31.109375 65.390625 31.03125 64.972656 C 30.972656 64.636719 30.222656 62.652344 30.222656 62.652344 C 30.222656 62.652344 28.507812 64.425781 28.015625 65.191406 C 27.53125 65.960938 27.324219 66.386719 27.324219 66.386719 L 21.257812 66.386719 C 21.257812 66.386719 22.972656 65 23.570312 64.402344 C 24.582031 63.394531 28.34375 59.210938 28.34375 59.210938 L 26.835938 54.769531 L 13.945312 54.769531 C 13.945312 54.769531 6.597656 62.984375 6.308594 63.238281 C 6.015625 63.488281 3.871094 66.101562 3.824219 66.386719 L 0 66.386719 L 0 64.316406 C 0.046875 64.273438 0.0976562 64.234375 0.152344 64.195312 C 0.269531 64.121094 5.722656 58.363281 10.734375 52.683594 C 15.234375 47.730469 19.460938 42.917969 19.832031 42.457031 C 20.726562 41.347656 22.023438 38.953125 22.023438 38.953125 L 28.683594 38.953125 C 28.683594 38.953125 28.890625 41.15625 29.085938 41.691406 C 29.257812 42.164062 33.320312 53.496094 33.414062 53.617188 L 35.660156 51.175781 L 31.820312 41.128906 C 31.820312 41.128906 30.921875 39.238281 30.628906 38.953125 L 38.414062 38.953125 C 38.386719 39.5625 38.472656 40.167969 38.667969 40.753906 C 38.984375 41.582031 40.652344 46.703125 40.652344 46.703125 C 40.652344 46.703125 45.960938 41.042969 46.273438 40.636719 C 46.648438 40.128906 46.875 39.550781 46.929688 38.953125 L 53.414062 38.953125 C 53.414062 38.953125 52.226562 39.691406 50.148438 41.929688 C 49.449219 42.683594 42.597656 50.085938 42.597656 50.085938 C 42.597656 50.085938 43.195312 51.820312 43.488281 52.683594 C 43.566406 52.929688 43.621094 53.097656 43.621094 53.117188 C 43.621094 53.125 43.773438 52.964844 44.03125 52.683594 C 45.800781 50.777344 53.835938 41.8125 54.324219 41.046875 C 54.71875 40.425781 55.296875 39.722656 55.636719 38.953125 L 61.960938 38.953125 C 61.960938 38.953125 62.109375 40.5625 62.300781 41.003906 Z M 56.632812 44.195312 C 55.703125 45.898438 50.234375 51.558594 50.234375 51.558594 L 58.898438 51.558594 C 58.898438 51.558594 57.21875 47.164062 56.925781 46.171875 C 56.777344 45.539062 56.71875 44.890625 56.753906 44.246094 C 56.753906 44.15625 56.734375 44.007812 56.632812 44.195312 Z M 23.355469 44.195312 C 22.429688 45.898438 16.960938 51.558594 16.960938 51.558594 L 25.621094 51.558594 C 25.621094 51.558594 23.941406 47.164062 23.648438 46.171875 C 23.5 45.539062 23.441406 44.890625 23.480469 44.246094 C 23.480469 44.15625 23.457031 44.007812 23.355469 44.195312 Z M 36.394531 61.367188 L 38.78125 58.582031 C 38.5625 58.382812 37.21875 54.917969 37.21875 54.917969 L 34.914062 57.460938 Z M 36.394531 61.367188 "/>
</g>
</svg>
