<?xml version="1.0" encoding="UTF-8"?>
<svg xmlns="http://www.w3.org/2000/svg" xmlns:xlink="http://www.w3.org/1999/xlink" width="74px" height="74px" viewBox="0 0 74 74" version="1.1">
<g id="surface1">
<path style=" stroke:none;fill-rule:nonzero;fill:rgb(0%,0%,56.078431%);fill-opacity:1;" d="M 0 0 L 73.761719 0 L 73.761719 73.761719 L 0 73.761719 Z M 0 0 "/>
<path style=" stroke:none;fill-rule:nonzero;fill:rgb(100%,9.019608%,12.941176%);fill-opacity:1;" d="M 41.472656 36.425781 L 45.710938 36.425781 L 73.761719 0 L 69.617188 0 Z M 41.472656 36.425781 "/>
<path style=" stroke:none;fill-rule:nonzero;fill:rgb(100%,100%,100%);fill-opacity:1;" d="M 56.363281 52.683594 C 57.648438 56.28125 60.296875 65.640625 61.351562 66.386719 L 54.394531 66.386719 C 54.375 65.558594 54.265625 64.734375 54.070312 63.933594 C 53.769531 62.863281 51.253906 54.769531 51.253906 54.769531 L 40.203125 54.769531 L 38.46875 57.230469 C 38.46875 57.230469 40.554688 63.761719 40.683594 64.082031 C 40.910156 64.660156 41.90625 66.386719 41.90625 66.386719 L 35.238281 66.386719 C 35.238281 66.386719 35.066406 65.390625 35.003906 64.972656 C 34.949219 64.636719 34.371094 62.800781 34.371094 62.800781 C 34.371094 62.800781 32.859375 64.457031 32.449219 65.222656 C 32.03125 65.988281 31.847656 66.386719 31.847656 66.386719 L 26.632812 66.386719 C 26.632812 66.386719 26.460938 65.390625 26.394531 64.972656 C 26.34375 64.636719 25.707031 62.652344 25.707031 62.652344 C 25.707031 62.652344 24.246094 64.425781 23.832031 65.191406 C 23.417969 65.960938 23.238281 66.386719 23.238281 66.386719 L 18.082031 66.386719 C 18.082031 66.386719 19.539062 65 20.050781 64.402344 C 20.910156 63.394531 24.109375 59.210938 24.109375 59.210938 L 22.824219 54.769531 L 11.863281 54.769531 C 11.863281 54.769531 5.609375 62.984375 5.363281 63.238281 C 5.117188 63.488281 3.292969 66.101562 3.253906 66.386719 L 0 66.386719 L 0 64.316406 C 0.0390625 64.273438 0.0820312 64.234375 0.128906 64.195312 C 0.230469 64.121094 4.867188 58.363281 9.128906 52.683594 C 12.957031 47.730469 16.550781 42.917969 16.867188 42.457031 C 17.628906 41.347656 18.730469 38.953125 18.730469 38.953125 L 24.398438 38.953125 C 24.398438 38.953125 24.574219 41.15625 24.738281 41.691406 C 24.886719 42.164062 28.339844 53.496094 28.421875 53.617188 L 30.332031 51.175781 L 27.066406 41.128906 C 27.066406 41.128906 26.300781 39.238281 26.054688 38.953125 L 32.675781 38.953125 C 32.652344 39.5625 32.722656 40.167969 32.890625 40.753906 C 33.160156 41.582031 34.578125 46.703125 34.578125 46.703125 C 34.578125 46.703125 39.09375 41.042969 39.359375 40.636719 C 39.679688 40.128906 39.871094 39.550781 39.917969 38.953125 L 45.433594 38.953125 C 45.433594 38.953125 44.421875 39.691406 42.652344 41.929688 C 42.058594 42.683594 36.234375 50.085938 36.234375 50.085938 C 36.234375 50.085938 36.742188 51.820312 36.988281 52.683594 C 37.054688 52.929688 37.105469 53.097656 37.105469 53.117188 C 37.105469 53.125 37.230469 52.964844 37.453125 52.683594 C 38.957031 50.777344 45.792969 41.8125 46.207031 41.046875 C 46.542969 40.425781 47.03125 39.722656 47.320312 38.953125 L 52.703125 38.953125 C 52.703125 38.953125 52.828125 40.5625 52.992188 41.003906 Z M 48.171875 44.195312 C 47.382812 45.898438 42.730469 51.558594 42.730469 51.558594 L 50.097656 51.558594 C 50.097656 51.558594 48.667969 47.164062 48.417969 46.171875 C 48.292969 45.539062 48.242188 44.890625 48.273438 44.246094 C 48.273438 44.15625 48.257812 44.007812 48.171875 44.195312 Z M 19.867188 44.195312 C 19.078125 45.898438 14.425781 51.558594 14.425781 51.558594 L 21.792969 51.558594 C 21.792969 51.558594 20.363281 47.164062 20.117188 46.171875 C 19.988281 45.539062 19.941406 44.890625 19.972656 44.246094 C 19.972656 44.15625 19.953125 44.007812 19.867188 44.195312 Z M 30.957031 61.367188 L 32.984375 58.582031 C 32.796875 58.382812 31.65625 54.917969 31.65625 54.917969 L 29.695312 57.460938 Z M 30.957031 61.367188 "/>
</g>
</svg>
