<?xml version="1.0" encoding="UTF-8"?>
<svg id="Ebene_1" data-name="Ebene 1" xmlns="http://www.w3.org/2000/svg" viewBox="0 0 554.7 263.183">
  <defs>
    <style>
      .cls-1 {
        fill-rule: evenodd;
      }

      .cls-1, .cls-2 {
        fill: #003b75;
      }
    </style>
  </defs>
  <g id="CONDOR_Versicherungen" data-name="CONDOR Versicherungen">
    <path class="cls-2" d="M112.1,159.4c-8.3,6.6-15.9,8.7-23.7,8.7-3.1,0-11.1-1.1-15.3-6.1-3.7-4.5-4.3-11.3-4.3-15.5,0-11.9,3.9-22.7,18.6-22.7,11.5,0,19.9,8.3,23.4,14.4h2.5v-16.5h-2.7c-1,1.8-1.9,3.2-4.6,3.2-2.6,0-10.3-3.5-19.4-3.5-21.1,0-35.6,11-35.6,25.3,0,13.2,12.7,24.8,36.1,24.8,12.9,0,20.7-4.4,28-10.3l-3-1.8h0Z"/>
    <path class="cls-1" d="M195.7,146.4c0-15.4-16.2-25.1-35.6-25.1s-35.6,9.7-35.6,25.1c0,3.5.8,6.8,2.4,9.7h0c5,9.4,17.5,15.4,33.2,15.4s28.2-6,33.2-15.4h0c1.6-2.9,2.4-6.1,2.4-9.7ZM176.9,156.1c-1.6,6.4-5.9,13.1-16.7,13.1-10.9,0-15.1-6.6-16.7-13.1h0c-1-3.7-1-7.4-1-9.7,0-10.3,3.7-22.7,17.8-22.7s17.8,12.4,17.8,22.7c-.2,2.3-.3,6-1.2,9.7h0Z"/>
    <path class="cls-2" d="M203.5,170.2h22.8v-1.8c-7.4-.6-9.5-1.9-9.5-7v-28.2h.2l44.7,38.3h2.8v-41.6c0-3.4.6-5,7.8-5.6v-1.8h-21.6v1.8c8.1.4,9.3,2.8,9.3,7v21.4h-.2l-34.8-30.3h-21.2v1.8c1.3,0,2.9.2,8.5,5.1v33.5c0,4.7-2.8,5.2-8.8,5.6v1.8h0Z"/>
    <path class="cls-1" d="M278.3,170.2h31.7c25.3-.6,36.2-11.6,36.2-24.6,0-10.9-9.1-23.2-37.3-23.2h-30.6v1.8c3.9.3,8.3.4,8.3,4.7v34.8c0,2.6-2,4.7-8.3,4.7v1.8h0ZM302.9,128.2c-.1-1.6-.2-3.3,6.2-3.3,17.3,0,19.6,15,19.6,21.5,0,16.9-8.8,21.4-20.1,21.4-4.8,0-5.7-1.3-5.7-4.1v-35.5h0Z"/>
    <path class="cls-1" d="M426.8,146.4c0-15.4-16.2-25.1-35.6-25.1s-35.6,9.7-35.6,25.1c0,3.5.8,6.8,2.4,9.7h0c5,9.4,17.5,15.4,33.2,15.4s28.2-6,33.2-15.4h0c1.5-2.9,2.4-6.1,2.4-9.7ZM407.9,156.1c-1.6,6.4-5.9,13.1-16.7,13.1-10.9,0-15.1-6.6-16.7-13.1h0c-1-3.7-1-7.4-1-9.7,0-10.3,3.7-22.7,17.8-22.7s17.8,12.4,17.8,22.7c-.1,2.3-.2,6-1.2,9.7h0Z"/>
    <path class="cls-1" d="M460.4,127.8c.5-2.2.7-3,6.2-3,8,0,12.2,3,12.2,10.2,0,9.2-5.2,10.7-18.4,10.8v-18h0ZM504.6,168.4c-1.2,0-2.7-.1-4.1-1.3l-20.2-20.1c5.4-1.2,15.8-3.4,15.8-12.1,0-11.9-21.3-12.4-28.3-12.4h-32.4v1.8c5.7.3,8.8.4,8.8,6.5v31.2c0,5.7-2,5.9-8.8,6.5v1.8h34v-1.8c-6.6-.6-8.8-.8-8.8-6.5v-13.8h2.7l20.8,22.1h20.6v-1.9h-.1Z"/>
  </g>
  <g id="CONDOR">
    <path class="cls-2" d="M191.9,106.7l-10.5-52.7,1,.6c.2.1,18,10.2,78.8,11.4v1c-54.1-1.1-73.9-8.9-78.3-11l9.8,49c19.1-14,72.4-24.5,72.9-24.6l.2,1c-.5.1-54.8,10.8-73.1,24.9l-.8.4Z"/>
    <path class="cls-2" d="M266.2,78.1c-54.7-7.9-84-22.3-84.3-22.4l.5-.9c.3.1,29.5,14.4,84,22.3l-.2,1Z"/>
    <path class="cls-2" d="M213.4,66.9c-9.6-.1-29.4-5.3-30.3-5.6l.3-1c.2.1,20.5,5.4,30,5.5v1.1Z"/>
    <path class="cls-2" d="M223.7,69.7c-6.2-.1-39-2.4-39.3-2.5l.1-1c.3,0,33.1,2.3,39.2,2.5v1Z"/>
    <path class="cls-2" d="M185.6,72.9v-1c.4,0,39.7-1.1,44.3-1.7l.1,1c-4.7.7-42.8,1.7-44.4,1.7Z"/>
    <path class="cls-2" d="M186.7,78.5l-.1-1c.3,0,33.7-4.8,47.9-6.2l.1,1c-14.2,1.4-47.5,6.2-47.9,6.2Z"/>
    <path class="cls-2" d="M187.9,84.1l-.3-1c.2-.1,19.9-6.2,51.2-10.9l.2,1c-31.3,4.7-50.9,10.8-51.1,10.9Z"/>
    <path class="cls-2" d="M189,89.4l-.3-1s.2-.1.3-.1c6.2-2.6,24-9.2,53.8-15.2l.2,1c-29.7,6.1-47.4,12.6-53.6,15.2-.2,0-.3.1-.4.1Z"/>
    <path class="cls-2" d="M191.4,100.5l-.7-.8c.2-.1,17.4-14.7,58.5-25.5l.3,1c-40.8,10.7-57.9,25.2-58.1,25.3Z"/>
    <path class="cls-2" d="M192.5,105.8l-.7-.8c.2-.2,20.2-17.7,71.2-33.8l.3,1c-50.8,16-70.6,33.4-70.8,33.6Z"/>
    <path class="cls-2" d="M190.2,94.8l-.5-.9c.2-.1,20.3-11.8,56.4-20.2l.2,1c-35.9,8.4-55.9,20-56.1,20.1Z"/>
    <path class="cls-2" d="M277.4,90.9l-.3-.2c-.1-.1-14.5-11-17.9-29.9l-.1-.6h36.6l-.1.6c0,.2-2.3,17.3-17.9,29.9l-.3.2ZM260.3,61.2c3.2,16.6,15,26.8,17.1,28.4,13.5-11,16.6-25.4,17.2-28.4h-34.3Z"/>
    <path class="cls-2" d="M267.4,71.6c-1.3-3.6-2-10.6-2-10.9l1-.1c0,.1.7,7.1,2,10.6l-1,.4Z"/>
    <path class="cls-2" d="M287.5,71.3l-1-.3c.8-3,1.8-10.4,1.8-10.5l1,.1c0,.5-1,7.6-1.8,10.7Z"/>
    <path class="cls-2" d="M267.4,100c-.6-9.5,1.9-17.5,1.9-17.6l1,.3c0,.1-2.5,8-1.9,17.2l-1,.1Z"/>
    <path class="cls-2" d="M272.5,94.8c-.5-5,.6-8,.6-8.2l1,.3s-1,3-.6,7.7l-1,.2Z"/>
    <path class="cls-2" d="M287.4,100l-1-.1c0-.1,1.1-8.4-1.8-17.1l1-.3c2.9,8.8,1.8,17.4,1.8,17.5Z"/>
    <path class="cls-2" d="M282.4,94.9l-1-.1c.4-4.8-.6-7.7-.6-7.8l1-.3c0,.1,1,3.1.6,8.2Z"/>
    <path class="cls-2" d="M286.5,100.3l-9.2-9.3-9.2,9.3-.7-.7,9.5-9.6c.2-.2.5-.2.7,0l9.5,9.6-.6.7Z"/>
    <polygon class="cls-2" points="282.2 100.2 277.4 91.8 272.6 100.2 271.7 99.7 277.4 89.8 283.1 99.7 282.2 100.2"/>
    <rect class="cls-2" x="276.8" y="90.8" width="1" height="9.1"/>
    <path class="cls-2" d="M256.9,100.5l6.4-5.4,4.3,5.4h-10.7ZM263.2,96.5l-3.5,2.9h5.8l-2.3-2.9Z"/>
    <path class="cls-2" d="M288.4,100.4h-22.1l-3.6-4.5v-.2c0-.3,2.6-30.1,14.5-45l.4-.6.4.6c.1.2,13,20.8,14.7,45v.2l-4.3,4.5ZM266.8,99.4h21.1l3.8-3.9c-1.5-21.4-12-40-14.1-43.6-10.9,14.3-13.6,41.1-13.8,43.7l3,3.8Z"/>
    <path class="cls-2" d="M286.9,100.4l5.3-5.4,5.6,5.4h-10.9ZM292.2,96.5l-2.9,3h5.9l-3-3Z"/>
    <path class="cls-2" d="M283.4,55l-6.4-3.7.5-1.1h6v4.8h-.1ZM278.9,51.2l3.5,2v-2h-3.5Z"/>
    <path class="cls-2" d="M362.9,106.7l-.7-.5c-18.4-14.1-72-24.7-72.5-24.8l.2-1c.5.1,53.2,10.5,72.3,24.5l9.8-49c-4.4,2.1-24.3,9.9-78.3,11v-1c60.9-1.3,78.6-11.3,78.8-11.4l1-.6-10.6,52.8Z"/>
    <path class="cls-2" d="M289,78l-.1-1c54.5-7.9,83.3-22.1,83.6-22.3l.5.9c-.3.2-29.3,14.5-84,22.4Z"/>
    <path class="cls-2" d="M341.5,66.9v-1c9.5-.1,29.8-5.5,30-5.5l.3,1c-.9.2-20.7,5.4-30.3,5.5Z"/>
    <path class="cls-2" d="M331.1,69.7v-1c6.1-.1,38.9-2.4,39.3-2.5l.1,1c-.4.1-33.2,2.4-39.4,2.5Z"/>
    <path class="cls-2" d="M369.3,72.9c-1.6,0-39.8-1.1-44.5-1.7l.1-1c4.6.6,43.9,1.7,44.3,1.7l.1,1Z"/>
    <path class="cls-2" d="M368.1,78.5c-.3,0-33.6-4.8-47.8-6.2l.1-1c14.2,1.4,47.5,6.2,47.9,6.2l-.2,1Z"/>
    <path class="cls-2" d="M366.9,84.1c-.2-.1-19.8-6.2-51.1-10.9l.2-1c31.3,4.7,51,10.8,51.2,10.9l-.3,1Z"/>
    <path class="cls-2" d="M365.8,89.4s-.2-.1-.4-.2c-6.2-2.6-23.8-9.1-53.6-15.2l.2-1c29.8,6.1,47.6,12.7,53.8,15.2.2.1.3.1.3.1l-.3,1.1Z"/>
    <path class="cls-2" d="M363.4,100.5c-.2-.1-17.3-14.6-58.1-25.2l.3-1c41.1,10.7,58.3,25.3,58.5,25.5l-.7.7Z"/>
    <path class="cls-2" d="M362.3,105.8c-.2-.2-20-17.6-70.8-33.6l.3-1c51,16.1,71,33.6,71.2,33.8l-.7.8Z"/>
    <path class="cls-2" d="M364.6,94.8c-.2-.1-20.2-11.7-56.1-20.1l.2-1c36.1,8.4,56.2,20.1,56.4,20.2l-.5.9Z"/>
  </g>
  <g>
    <path class="cls-2" d="M56.701,202.177v8.094h-4.283v-21.007h6.613c4,0,6.457,2.205,6.457,6.457s-2.457,6.456-6.457,6.456h-2.33ZM56.701,199.028h1.543c1.732,0,2.96-.725,2.96-3.307s-1.228-3.308-2.96-3.308h-1.543v6.614Z"/>
    <path class="cls-2" d="M67.379,195.405l3.748-.378v1.291c.157-.188,1.322-1.291,3.338-1.291h.41l-.346,3.433s-.41-.126-1.103-.126c-1.291,0-2.079.441-2.299.599v11.338h-3.748v-14.865Z"/>
    <path class="cls-2" d="M81.49,210.649c-4.22,0-6.614-2.457-6.614-7.811s2.394-7.811,6.614-7.811,6.614,2.457,6.614,7.811-2.394,7.811-6.614,7.811ZM81.49,207.972c1.795,0,2.708-1.732,2.708-5.134s-.913-5.134-2.708-5.134-2.708,1.732-2.708,5.134.913,5.134,2.708,5.134Z"/>
    <path class="cls-2" d="M95.098,195.028c1.701,0,2.929.945,3.275,1.229v-6.992l3.748-.378v21.385h-3.748v-.851c-.315.283-1.543,1.229-3.275,1.229-3.338,0-5.732-2.488-5.732-7.811s2.394-7.811,5.732-7.811ZM98.374,206.712v-7.716c-.283-.221-1.229-.914-2.268-.914-1.638,0-2.834,1.197-2.834,4.756s1.197,4.756,2.834,4.756c1.008,0,1.984-.662,2.268-.882Z"/>
    <path class="cls-2" d="M116.863,210.271h-3.748v-.787c-.347.22-1.921,1.165-3.969,1.165-3.118,0-4.535-1.732-4.535-4.882v-10.361l3.748-.378v10.109c0,1.386.504,2.457,2.299,2.457,1.134,0,2.142-.662,2.457-.882v-11.307h3.748v14.865Z"/>
    <path class="cls-2" d="M119.385,189.264l3.748-.378v11.622l3.811-5.103h4.314l-4.881,6.33,6.205,8.535h-4.473l-4.976-7.055v7.055h-3.748v-21.007Z"/>
    <path class="cls-2" d="M131.796,195.405h1.701v-2.331l3.748-.504v2.835h2.646v2.425l-2.646.283v8.599c0,.882.566,1.26,1.417,1.26.693,0,1.229-.284,1.229-.284v2.552s-1.103.409-2.614.409c-2.708,0-3.779-1.008-3.779-3.465v-9.07l-1.701-.283v-2.425Z"/>
    <path class="cls-2" d="M153.34,195.028c1.701,0,2.929.945,3.275,1.229v-6.992l3.748-.378v21.385h-3.748v-.851c-.315.283-1.543,1.229-3.275,1.229-3.338,0-5.732-2.488-5.732-7.811s2.394-7.811,5.732-7.811ZM156.616,206.712v-7.716c-.283-.221-1.229-.914-2.268-.914-1.638,0-2.834,1.197-2.834,4.756s1.197,4.756,2.834,4.756c1.008,0,1.984-.662,2.268-.882Z"/>
    <path class="cls-2" d="M174.885,202.649c0,.599-.063,1.544-.063,1.544h-8.692c.378,2.33,1.764,3.779,4.473,3.779,1.826,0,3.244-.63,3.244-.63l.63,2.456s-1.575.851-4.094.851c-4.756,0-8.125-2.236-8.125-8,0-4.755,2.457-7.621,6.457-7.621,3.905,0,6.173,2.614,6.173,7.338v.283ZM168.807,197.704c-1.543,0-2.583,1.134-2.771,4h5.291c0-2.551-.819-4-2.52-4Z"/>
    <path class="cls-2" d="M176.777,195.405l3.748-.378v1.291c.157-.188,1.322-1.291,3.338-1.291h.41l-.346,3.433s-.41-.126-1.103-.126c-1.291,0-2.079.441-2.299.599v11.338h-3.748v-14.865Z"/>
    <path class="cls-2" d="M197.062,200.98v9.291h-4.283v-21.007h7.338c3.842,0,6.047,1.922,6.047,5.574,0,3.339-1.543,5.197-4.756,5.543l6.74,9.89h-5.071l-6.015-9.291ZM197.062,198.082h1.858c1.732,0,2.96-.566,2.96-2.834s-1.229-2.835-2.96-2.835h-1.858v5.669Z"/>
    <path class="cls-2" d="M214.669,205.42v3.56h-2.646v-3.56h-3.559v-2.645h3.559v-3.56h2.646v3.56h3.559v2.645h-3.559Z"/>
    <path class="cls-2" d="M218.703,189.264h4.441l3.401,16.598,3.37-16.598h4.504l-5.228,21.007h-5.197l-5.291-21.007Z"/>
    <path class="cls-2" d="M242.454,189.264h4.283v17.637l7.086.441v2.929h-11.369v-21.007Z"/>
    <path class="cls-2" d="M266.927,202.649c0,.599-.063,1.544-.063,1.544h-8.692c.378,2.33,1.764,3.779,4.473,3.779,1.826,0,3.243-.63,3.243-.63l.631,2.456s-1.575.851-4.095.851c-4.756,0-8.125-2.236-8.125-8,0-4.755,2.457-7.621,6.457-7.621,3.905,0,6.173,2.614,6.173,7.338v.283ZM260.848,197.704c-1.543,0-2.582,1.134-2.771,4h5.291c0-2.551-.818-4-2.52-4Z"/>
    <path class="cls-2" d="M275.842,210.649c-1.764,0-3.023-1.008-3.307-1.26l-.284.882h-3.433v-21.007l3.748-.378v7.37c.283-.252,1.512-1.229,3.275-1.229,3.337,0,5.731,2.488,5.731,7.811s-2.394,7.811-5.731,7.811ZM272.567,198.996v7.716c.252.22,1.229.882,2.268.882,1.638,0,2.834-1.197,2.834-4.756s-1.196-4.756-2.834-4.756c-1.039,0-1.984.693-2.268.914Z"/>
    <path class="cls-2" d="M295.465,202.649c0,.599-.062,1.544-.062,1.544h-8.692c.378,2.33,1.764,3.779,4.472,3.779,1.827,0,3.244-.63,3.244-.63l.63,2.456s-1.575.851-4.095.851c-4.755,0-8.125-2.236-8.125-8,0-4.755,2.457-7.621,6.456-7.621,3.905,0,6.173,2.614,6.173,7.338v.283ZM289.387,197.704c-1.543,0-2.582,1.134-2.771,4h5.291c0-2.551-.818-4-2.52-4Z"/>
    <path class="cls-2" d="M297.357,195.405l3.748-.378v1.197c.314-.221,1.89-1.197,3.968-1.197,3.118,0,4.535,1.764,4.535,4.913v10.33h-3.747v-9.7c0-1.386-.504-2.488-2.3-2.488-1.165,0-2.173.693-2.456.945v11.243h-3.748v-14.865Z"/>
    <path class="cls-2" d="M312.162,206.807s1.731.787,3.842.787c1.26,0,2.614-.315,2.614-1.67,0-2.52-7.244-1.228-7.244-6.424,0-2.646,1.984-4.473,5.48-4.473,2.614,0,4.976.913,4.976.913l-.787,2.897s-2.016-.756-3.874-.756c-1.196,0-2.047.41-2.047,1.354,0,2.173,7.37,1.039,7.37,6.33,0,3.401-2.866,4.882-6.299,4.882-2.961,0-4.882-.882-4.882-.882l.851-2.96Z"/>
    <path class="cls-2" d="M329.265,206.334l2.866-10.929h3.873l-4.503,14.865h-4.567l-4.44-14.896,3.843-.347,2.929,11.307Z"/>
    <path class="cls-2" d="M348.95,202.649c0,.599-.062,1.544-.062,1.544h-8.692c.378,2.33,1.764,3.779,4.472,3.779,1.827,0,3.244-.63,3.244-.63l.63,2.456s-1.574.851-4.094.851c-4.756,0-8.126-2.236-8.126-8,0-4.755,2.456-7.621,6.456-7.621,3.905,0,6.173,2.614,6.173,7.338v.283ZM342.872,197.704c-1.543,0-2.583,1.134-2.771,4h5.291c0-2.551-.819-4-2.52-4Z"/>
    <path class="cls-2" d="M350.843,195.405l3.748-.378v1.291c.157-.188,1.322-1.291,3.338-1.291h.409l-.346,3.433s-.41-.126-1.103-.126c-1.291,0-2.079.441-2.299.599v11.338h-3.748v-14.865Z"/>
    <path class="cls-2" d="M359.82,206.807s1.731.787,3.842.787c1.26,0,2.614-.315,2.614-1.67,0-2.52-7.244-1.228-7.244-6.424,0-2.646,1.984-4.473,5.48-4.473,2.614,0,4.976.913,4.976.913l-.787,2.897s-2.016-.756-3.874-.756c-1.196,0-2.047.41-2.047,1.354,0,2.173,7.37,1.039,7.37,6.33,0,3.401-2.866,4.882-6.299,4.882-2.961,0-4.882-.882-4.882-.882l.851-2.96Z"/>
    <path class="cls-2" d="M373.742,189.107c1.291,0,2.109.851,2.109,1.921s-.818,1.922-2.109,1.922-2.11-.851-2.11-1.922.819-1.921,2.11-1.921ZM371.853,195.405l3.747-.378v15.243h-3.747v-14.865Z"/>
    <path class="cls-2" d="M384.011,195.028c2.33,0,3.779,1.103,3.779,1.103l-.661,2.739s-1.008-.787-2.457-.787c-2.047,0-3.275,1.701-3.275,4.756,0,3.118,1.291,4.756,3.338,4.756,1.449,0,2.488-.819,2.488-.819l.662,2.74s-1.48,1.134-3.812,1.134c-4.346,0-6.582-3.181-6.582-7.811,0-4.566,2.173-7.811,6.52-7.811Z"/>
    <path class="cls-2" d="M389.304,189.264l3.748-.378v7.339c.314-.221,1.89-1.197,3.968-1.197,3.118,0,4.535,1.764,4.535,4.913v10.33h-3.748v-9.7c0-1.386-.504-2.488-2.299-2.488-1.165,0-2.173.693-2.456.945v11.243h-3.748v-21.007Z"/>
    <path class="cls-2" d="M416.044,202.649c0,.599-.062,1.544-.062,1.544h-8.692c.378,2.33,1.764,3.779,4.472,3.779,1.827,0,3.244-.63,3.244-.63l.63,2.456s-1.574.851-4.094.851c-4.756,0-8.126-2.236-8.126-8,0-4.755,2.456-7.621,6.456-7.621,3.905,0,6.173,2.614,6.173,7.338v.283ZM409.966,197.704c-1.543,0-2.583,1.134-2.771,4h5.291c0-2.551-.819-4-2.52-4Z"/>
    <path class="cls-2" d="M417.937,195.405l3.748-.378v1.291c.157-.188,1.322-1.291,3.338-1.291h.409l-.346,3.433s-.41-.126-1.103-.126c-1.291,0-2.079.441-2.299.599v11.338h-3.748v-14.865Z"/>
    <path class="cls-2" d="M438.913,210.271h-3.748v-.787c-.347.22-1.921,1.165-3.968,1.165-3.118,0-4.535-1.732-4.535-4.882v-10.361l3.748-.378v10.109c0,1.386.504,2.457,2.299,2.457,1.134,0,2.142-.662,2.456-.882v-11.307h3.748v14.865Z"/>
    <path class="cls-2" d="M441.435,195.405l3.748-.378v1.197c.314-.221,1.89-1.197,3.968-1.197,3.118,0,4.535,1.764,4.535,4.913v10.33h-3.748v-9.7c0-1.386-.504-2.488-2.299-2.488-1.165,0-2.173.693-2.456.945v11.243h-3.748v-14.865Z"/>
    <path class="cls-2" d="M461.593,195.028c1.827,0,3.339.535,4.409,1.449.314-.599.945-1.449,2.236-1.449.283,0,.504.062.504.062v2.93c-.189-.031-.378-.063-.567-.063-.378,0-.692.157-.882.315.252.63.41,1.322.41,2.109,0,3.275-2.426,5.354-6.11,5.354-.44,0-.851-.031-1.229-.063-.851.883-1.07,1.197-1.07,1.48,0,.378.692.504,3.275.535,2.614.063,5.795.063,5.795,3.717,0,3.118-2.331,4.661-6.74,4.661-4.346,0-6.361-1.386-6.361-4.63h3.181c.031,1.386.851,1.922,3.118,1.922,2.016,0,3.086-.599,3.086-1.764,0-1.48-1.952-1.229-3.086-1.292-4.095-.188-6.268-.472-6.268-1.921,0-.756,1.921-2.394,3.087-3.307-1.827-.851-2.898-2.488-2.898-4.693,0-3.275,2.426-5.354,6.11-5.354ZM461.656,203.499c1.322,0,2.393-1.039,2.393-3.055s-1.07-3.055-2.393-3.055-2.395,1.039-2.395,3.055,1.071,3.055,2.395,3.055Z"/>
    <path class="cls-2" d="M491.83,210.271h-4.503l-1.417-6.456h-4.851l-1.448,6.456h-4.441l5.669-21.007h5.386l5.605,21.007ZM481.689,200.885h3.559l-1.764-7.999-1.795,7.999Z"/>
    <path class="cls-2" d="M500.558,188.886c3.653,0,5.826,1.701,5.826,1.701l-1.07,2.708s-1.606-1.26-3.905-1.26c-4.314,0-5.039,3.938-5.039,7.717,0,3.685.504,7.747,4.661,7.747,1.008,0,1.826-.221,2.394-.44v-5.67h-3.874v-2.896h7.874v10.55s-2.646,1.606-7.023,1.606c-5.669,0-8.504-3.905-8.504-10.896,0-6.299,2.551-10.866,8.661-10.866Z"/>
  </g>
</svg>