<svg width="128" height="64" viewBox="0 0 128 64" fill="none" xmlns="http://www.w3.org/2000/svg">
<path d="M122.462 47.8458L94.1558 19.5398H122.462V47.8458Z" fill="#00FF66"/>
<path d="M5.73061 37.7823C4.87224 37.7986 4.02612 37.582 3.27811 37.161C2.57097 36.7563 1.98646 36.1595 1.59815 35.4442C1.1894 34.6635 0.980934 33.7888 1.00137 32.9059C0.989109 31.6183 1.49187 30.3757 2.39521 29.456C2.83257 29.0146 3.35577 28.663 3.93211 28.43C4.53706 28.1848 5.18698 28.0622 5.84098 28.0663C6.51133 28.0581 7.1735 28.1971 7.78663 28.475C8.37114 28.7284 8.88617 29.1167 9.29083 29.6113L8.06458 30.9725C7.76619 30.6496 7.41467 30.3839 7.02635 30.1795C6.65439 29.9915 6.24155 29.8934 5.82463 29.8975C4.80275 29.877 3.85445 30.4329 3.37212 31.3322C3.11461 31.8145 2.98381 32.354 2.99607 32.9018C2.98381 33.4577 3.11052 34.0054 3.36804 34.4959C3.60511 34.9414 3.97299 35.3093 4.41853 35.5505C4.90085 35.8039 5.4404 35.9306 5.98813 35.9184C6.41323 35.9184 6.83015 35.8284 7.21438 35.6486C7.58634 35.481 7.9256 35.2439 8.21173 34.9496L9.17638 36.4865C8.92704 36.7563 8.62866 36.9811 8.30166 37.1487C7.50868 37.5615 6.62987 37.7782 5.73879 37.7823H5.73061ZM17.0162 37.4185C17.5885 37.1855 18.1035 36.838 18.5327 36.3925C18.9619 35.947 19.3011 35.4197 19.53 34.8433C20.0083 33.6007 20.0083 32.2192 19.53 30.9766C19.3011 30.4002 18.9619 29.8729 18.5327 29.4274C18.1035 28.9859 17.5885 28.6344 17.0162 28.4014C15.79 27.915 14.4288 27.915 13.2026 28.4014C12.6344 28.6385 12.1194 28.9819 11.6861 29.4192C11.2569 29.8648 10.9177 30.388 10.6888 30.9643C10.2146 32.2192 10.2146 33.6007 10.6888 34.8556C10.9177 35.4319 11.2569 35.9551 11.6861 36.4007C12.1153 36.8421 12.6344 37.1855 13.2026 37.4185C14.4288 37.9049 15.79 37.9049 17.0162 37.4185ZM13.6726 35.5464C13.2516 35.2848 12.9124 34.9169 12.6835 34.4755C12.2093 33.4822 12.2093 32.3336 12.6835 31.3403C12.9083 30.8948 13.2516 30.5228 13.6726 30.2612C14.11 29.9915 14.6128 29.8484 15.1278 29.8525C15.6387 29.8484 16.1374 29.9874 16.5707 30.2612C16.9917 30.5269 17.331 30.8989 17.5599 31.3403C17.8051 31.8227 17.9318 32.3581 17.9196 32.8977C17.9277 33.4413 17.8051 33.9768 17.5599 34.4591C17.1021 35.3788 16.1538 35.9511 15.1278 35.9265C14.6169 35.9388 14.1141 35.808 13.6726 35.5464ZM26.7159 37.4266C27.2268 37.21 27.6642 36.8503 27.9789 36.3925C28.2936 35.9061 28.4531 35.3379 28.4326 34.7575C28.4571 34.0422 28.1301 33.3637 27.562 32.9304C26.863 32.4235 26.0619 32.0884 25.2117 31.9412C24.7539 31.8799 24.3042 31.7409 23.8914 31.5325C23.5971 31.3853 23.4132 31.0828 23.4132 30.7517C23.405 30.4493 23.5603 30.1631 23.8219 30.0037C24.1489 29.8075 24.525 29.7094 24.9051 29.7258C25.7717 29.7258 26.5769 30.1754 27.0347 30.9112L28.2896 29.6849C27.9707 29.1699 27.517 28.753 26.9775 28.4791C26.3235 28.1807 25.6082 28.0417 24.8928 28.0703C24.3001 28.0622 23.7156 28.1848 23.1761 28.4219C22.6856 28.6344 22.2564 28.9737 21.9294 29.3988C21.6147 29.8157 21.4471 30.3266 21.4552 30.8498C21.4225 31.557 21.6923 32.2478 22.1992 32.7464C22.8409 33.2983 23.6257 33.658 24.4637 33.7847C24.9664 33.8746 25.4487 34.0381 25.8984 34.2793C26.2376 34.4346 26.4543 34.7739 26.4584 35.1458C26.4584 35.4524 26.2908 35.7303 26.021 35.8734C25.694 36.0614 25.322 36.1554 24.946 36.1432C24.4514 36.1473 23.9609 36.0369 23.5194 35.8121C22.9962 35.5096 22.5466 35.0886 22.2114 34.5858L20.9852 35.9756C21.4021 36.556 21.9498 37.0302 22.5834 37.3572C23.2824 37.6923 24.0508 37.8558 24.8274 37.8354C25.4733 37.8354 26.115 37.6964 26.7036 37.4266H26.7159ZM32.2054 37.6637V32.7628C32.2054 32.3009 32.1645 31.8635 32.1195 31.4466L34.4903 35.1826H35.3814L37.7889 31.4221C37.7562 31.8635 37.7276 32.3173 37.7113 32.7914C37.6949 33.2656 37.6826 33.7724 37.6826 34.3201V37.6637H39.5833V28.2134H37.8666L34.9563 32.8772L32.095 28.2134H30.3088V37.6637H32.2054ZM48.0853 37.4348C48.6576 37.2018 49.1726 36.8544 49.6018 36.4089C50.031 35.9633 50.3703 35.436 50.5992 34.8597C51.0733 33.613 51.0733 32.2396 50.5992 30.9929C50.3703 30.4166 50.031 29.8893 49.6018 29.4437C49.1726 29.0023 48.6576 28.6508 48.0853 28.4178C46.8591 27.9314 45.498 27.9314 44.2717 28.4178C43.7035 28.6549 43.1885 28.9982 42.7552 29.4356C42.326 29.8811 41.9868 30.4043 41.7579 30.9806C41.2837 32.2355 41.2837 33.6171 41.7579 34.872C41.9868 35.4483 42.326 35.9715 42.7552 36.417C43.1844 36.8585 43.7035 37.2018 44.2717 37.4348C45.498 37.9212 46.8591 37.9212 48.0853 37.4348ZM44.7377 35.5464C44.3167 35.2848 43.9774 34.9169 43.7485 34.4755C43.2744 33.4822 43.2744 32.3336 43.7485 31.3403C44.2104 30.4125 45.1669 29.8402 46.201 29.8729C46.7119 29.8688 47.2106 30.0078 47.6439 30.2817C48.0649 30.5474 48.4042 30.9193 48.6331 31.3608C48.8783 31.8431 49.005 32.3786 48.9928 32.9181C49.0009 33.4618 48.8783 33.9972 48.6331 34.4796C47.8932 35.8366 46.1928 36.3394 44.8358 35.6036C44.8031 35.5873 44.7704 35.5668 44.7377 35.5464ZM57.7809 37.4266C58.2918 37.21 58.7292 36.8503 59.0439 36.3925C59.3587 35.9061 59.514 35.3338 59.4936 34.7575C59.5181 34.0422 59.1952 33.3637 58.627 32.9304C57.9281 32.4235 57.1228 32.0884 56.2726 31.9412C55.8148 31.8758 55.3693 31.7409 54.9564 31.5325C54.6621 31.3853 54.4782 31.0828 54.4782 30.7517C54.47 30.4493 54.6254 30.1631 54.887 30.0037C55.214 29.8034 55.5941 29.7094 55.9742 29.7258C56.8408 29.7258 57.646 30.1754 58.1038 30.9112L59.3546 29.6849C59.0358 29.1699 58.5821 28.753 58.0425 28.4791C57.3885 28.1807 56.6732 28.0417 55.9579 28.0703C55.3652 28.0622 54.7807 28.1848 54.2411 28.4219C53.7547 28.6385 53.3337 28.9737 53.0149 29.3988C52.7001 29.8157 52.5325 30.3266 52.5407 30.8498C52.508 31.557 52.7778 32.2478 53.2847 32.7464C53.9264 33.2983 54.7112 33.658 55.5491 33.7847C56.056 33.8623 56.5424 34.0177 57.0002 34.2466C57.3395 34.4019 57.5561 34.7412 57.5602 35.1131C57.5602 35.4197 57.3926 35.6976 57.1228 35.8407C56.7958 36.0287 56.4239 36.1227 56.0478 36.1105C55.5532 36.1146 55.0627 36.0042 54.6213 35.7794C54.0981 35.4769 53.6484 35.0559 53.3133 34.5531L52.087 35.9429C52.5039 36.5233 53.0517 36.9975 53.6852 37.3245C54.3842 37.6596 55.1526 37.8231 55.9293 37.8027C56.5628 37.8068 57.1923 37.6801 57.7727 37.4266H57.7809ZM68.5678 37.6637C69.4099 37.6842 70.2437 37.4757 70.9795 37.0629C71.6539 36.6705 72.2057 36.0982 72.5736 35.4074C72.966 34.6512 73.1663 33.8092 73.1458 32.9549C73.1622 32.1006 72.966 31.2586 72.5736 30.5024C72.2057 29.8075 71.6498 29.2312 70.9713 28.8388C70.2396 28.426 69.4099 28.2175 68.5678 28.2379H64.7256V37.6637H68.5678ZM70.4603 30.7967C70.9631 31.3976 71.2206 32.166 71.1797 32.9467C71.2247 33.7315 70.9672 34.5 70.4644 35.1009C69.9617 35.6527 69.2423 35.9511 68.4983 35.9184H66.6671V29.9792H68.4983C69.2382 29.9465 69.9576 30.2367 70.4603 30.7804V30.7967ZM79.4529 37.6637V35.9633H77.8465V29.8975H79.4242V28.2134H74.3598V29.8975H75.9212V35.9633H74.3598V37.6637H79.4529ZM83.2174 37.6637V34.2384H84.7952L86.7245 37.6637H88.9767L86.839 33.9564C87.3581 33.7193 87.8036 33.3391 88.1225 32.865C88.7397 31.9003 88.7683 30.6659 88.1879 29.6767C87.914 29.2271 87.5257 28.8592 87.0638 28.6058C86.5856 28.336 86.0419 28.1971 85.4942 28.1971H81.3331V37.6637H83.2174ZM83.2174 29.9302H85.159C85.5637 29.9097 85.9602 30.0446 86.2667 30.3062C86.5447 30.5637 86.6918 30.9275 86.6755 31.3036C86.6877 31.6551 86.5651 32.0025 86.3321 32.2682C86.0991 32.5257 85.7681 32.6647 85.4206 32.6524H83.2093L83.2174 29.9302ZM96.976 37.6637V35.9224H92.4797V33.6743H96.2402V32.0025H92.492V29.9588H96.8942V28.2134H90.5872V37.6637H96.976ZM112.263 37.6637V29.9792H115.08V28.2134H107.587V29.9792H110.322V37.6637H112.263ZM105.233 37.6637H107.742L102.711 32.6361L107.117 28.2298H104.73L100.843 32.117V28.2134H98.9012V37.6637H100.843V34.4877L101.456 33.8705L105.233 37.6637Z" fill="#000099"/>
<path d="M99.4609 16V17.1813H124.824V42.5402H126.001V16H99.4609Z" fill="#C5281C"/>
</svg>
