<svg width="128" height="64" viewBox="0 0 128 64" fill="none" xmlns="http://www.w3.org/2000/svg">
<path d="M19.4537 20.7929C15.8281 20.9551 9.22593 22.1998 3.48901 25.2844L1 20.36C7.49412 18.0865 14.2043 16.8965 20.9692 16.5715L22.268 13H28.4372L27.1924 16.4088C43.4278 18.9524 46.0796 25.3383 46.0796 29.6678C46.0796 31.7244 44.51 48.7163 10.849 48.7163H9.38803L19.4537 20.7929ZM16.5858 45.7946C31.1969 43.9547 37.691 36.2699 37.691 30.9125C37.691 25.9881 34.4442 21.983 25.6235 20.7928L16.5858 45.7946ZM58.8509 42.2771L56.2532 44.6586C52.3569 48.2301 50.679 49.042 48.0815 49.042C46.0796 49.042 42.995 49.042 42.995 43.2511C42.995 35.5135 50.571 29.6679 55.3335 29.6679C58.364 29.6679 58.5808 31.9407 58.5808 32.7525C58.5808 33.4564 58.364 38.5434 49.8133 39.8416V40.3833C49.8133 43.6847 51.437 43.8468 52.5737 43.8468C53.2768 43.8468 54.5756 43.6847 57.0651 41.5734L58.8509 40.0049V42.2771ZM54.8464 30.9666C54.1972 30.9666 51.3288 33.0226 50.1382 38.5434C54.6843 37.0818 55.3335 32.2109 55.3335 31.5623C55.3335 31.0748 54.9545 30.9666 54.8464 30.9666Z" fill="#239CD3"/>
<path d="M87.1324 44.0629C83.724 48.5004 79.9351 49.042 78.7449 49.042C77.717 49.042 73.7659 48.8799 73.7659 42.9268C73.7659 42.4405 73.8199 41.8448 73.8199 41.6285C73.8199 41.4651 73.6578 41.303 73.1702 41.303L72.6827 41.2491C72.4665 41.2491 72.3056 41.3572 71.818 42.3852C68.5166 49.0961 64.5121 49.042 63.4835 49.042C62.2388 49.042 58.3423 48.9879 58.3423 41.7895C58.3423 33.4022 67.921 16.7878 75.6597 16.7878C78.0412 16.7878 78.0952 18.7363 78.0952 19.7103C78.0952 21.6042 76.9051 26.0423 69.003 27.2871C65.4865 34.5924 64.8357 39.6255 64.8357 41.4113C64.8357 45.1451 66.7848 45.1451 67.1102 45.1451C68.7867 45.1451 70.6267 42.7648 70.6267 41.2492C70.6267 39.9498 67.8669 39.5715 67.8669 35.4042C67.8669 32.2662 69.8149 31.3997 70.6267 31.3997C71.3304 31.3997 73.7117 31.8867 73.7117 36.4863C73.7117 38.2732 73.2254 38.9217 73.2254 39.1932C73.2254 39.3553 73.2784 39.5174 73.4945 39.5715L73.8739 39.6255H74.2534C78.6896 31.1289 84.5357 29.9928 86.5365 29.9928C89.5137 29.9928 89.6758 32.4283 89.6758 33.2388C89.6758 34.7015 89.0272 39.3012 80.1523 41.1409C80.3132 44.4964 82.3704 44.4964 83.0202 44.4964C83.7767 44.4964 85.6718 44.0628 87.944 41.4112L90.7036 34.2139C96.9823 17.8164 104.288 16.7878 105.695 16.7878C108.185 16.7878 108.185 19.1693 108.185 19.7103C108.185 21.334 106.941 25.5012 99.3098 27.233C97.7942 30.2089 96.7111 33.1307 95.7911 36.6496C99.8503 30.9668 103.314 29.9928 105.695 29.9928C108.833 29.9928 108.833 32.6986 108.833 33.4022C108.833 34.9706 108.509 38.977 99.6882 41.7895C100.283 46.4444 101.69 47.4182 102.556 47.4182C103.314 47.4182 104.883 47.1481 106.561 42.7647C110.512 32.4823 118.467 29.9928 121.984 29.9928C124.582 29.9928 124.582 31.5078 124.582 31.9947C124.582 34.0507 121.064 35.4042 120.144 35.4042C119.928 35.4042 119.765 35.3503 119.711 35.2421C122.093 33.6726 122.634 32.319 122.634 31.6165C122.634 31.3457 122.634 30.9668 121.875 30.9668C118.467 30.9668 113.217 38.3814 113.217 41.141C113.217 42.7648 114.137 42.8728 114.732 42.8728C115.274 42.8728 116.735 42.9269 121.011 38.7597C122.795 37.0279 123.607 35.1882 124.258 35.1882C124.799 35.1882 123.499 37.3533 122.743 39.4094C121.823 41.8978 121.605 43.6847 121.605 44.2803C121.605 45.6867 122.255 45.7947 122.851 45.7947C124.149 45.7947 125.447 44.0629 125.99 44.0089C126.206 44.117 122.851 49.0961 119.116 49.042C117.384 49.042 115.977 48.1761 115.977 44.2802C112.73 48.2842 110.133 49.042 109.105 49.042C107.861 49.042 106.453 48.1761 106.074 45.6325C103.422 50.4481 101.15 51.3153 99.5799 51.3153C97.4698 51.3153 95.4126 49.6917 93.5729 43.6293H93.3026L91.679 48.7165H85.1842L87.1324 44.0629ZM75.3895 17.7624C73.3863 17.7624 69.3285 25.7174 69.3285 25.9883C69.3285 26.2585 69.3824 26.3125 69.4906 26.3125C71.1142 26.3125 75.8218 21.2799 75.8218 18.4115C75.8218 18.3033 75.7691 17.7624 75.3895 17.7624ZM80.5308 39.4092C82.4787 39.4092 86.4285 34.7545 86.4285 31.8867C86.4285 31.6165 86.2676 31.3997 85.8881 31.3997C83.7768 31.3997 80.2604 38.1651 80.2604 39.085C80.2606 39.3012 80.3687 39.4092 80.5308 39.4092ZM98.6589 40.5453C102.61 38.6514 102.665 36.6495 102.665 36.378C102.665 36.0538 102.665 34.8624 100.933 34.8624C97.7389 34.8624 93.6809 41.5192 93.6809 42.6565C93.6809 42.8727 93.7891 42.9268 93.7891 42.9268C93.9512 42.9268 94.2227 42.7647 94.5469 42.5484L98.6589 40.5453ZM105.478 17.7624C103.477 17.7624 99.7422 25.3926 99.7422 25.9883C99.7422 26.2585 99.7961 26.3125 99.9043 26.3125C101.203 26.3125 105.911 21.2799 105.911 18.4115C105.911 18.3033 105.857 17.7624 105.478 17.7624Z" fill="#239CD3"/>
</svg>
