<?xml version="1.0" encoding="utf-8"?>
<!-- Generator: Adobe Illustrator 28.3.0, SVG Export Plug-In . SVG Version: 6.00 Build 0)  -->
<svg version="1.1"
	 id="svg8" xmlns:svg="http://www.w3.org/2000/svg" xmlns:inkscape="http://www.inkscape.org/namespaces/inkscape" xmlns:rdf="http://www.w3.org/1999/02/22-rdf-syntax-ns#" xmlns:sodipodi="http://sodipodi.sourceforge.net/DTD/sodipodi-0.dtd" xmlns:dc="http://purl.org/dc/elements/1.1/" xmlns:cc="http://creativecommons.org/ns#"
	 xmlns="http://www.w3.org/2000/svg" xmlns:xlink="http://www.w3.org/1999/xlink" x="0px" y="0px" viewBox="0 0 128 64"
	 style="enable-background:new 0 0 128 64;" xml:space="preserve">
<style type="text/css">
	.st0{fill-rule:evenodd;clip-rule:evenodd;fill:#000D6E;}
</style>
<sodipodi:namedview  bordercolor="#666666" borderopacity="1.0" fit-margin-bottom="0" fit-margin-left="0" fit-margin-right="0" fit-margin-top="0" id="base" inkscape:current-layer="layer1" inkscape:cx="131.46973" inkscape:cy="-389.58457" inkscape:document-units="mm" inkscape:pageopacity="0" inkscape:pageshadow="2" inkscape:window-height="1001" inkscape:window-maximized="1" inkscape:window-width="1920" inkscape:window-x="-9" inkscape:window-y="-9" inkscape:zoom="0.7" pagecolor="#00ffff" showgrid="false">
	</sodipodi:namedview>
<path class="st0" d="M90.7,22.2c0-1.6,1.4-2.8,3-2.8c1.6,0,2.8,1.2,2.8,2.8c0,1.6-1.2,2.7-2.8,2.7C92,24.9,90.7,23.8,90.7,22.2z
	 M91.4,26.8h4.5V41h-4.5V26.8z M67.3,21.4h4.5V41h-4.5V21.4z M40.4,41.4c4.1,0,7.1-3.2,7.1-7.4c0-4.2-2.9-7.4-7-7.4
	c-1.5,0-2.8,0.5-3.9,1.3v-6.5h-4.5V41h4.2v-1.2C37.3,40.8,38.7,41.4,40.4,41.4z M39.7,30.4c1.9,0,3.3,1.5,3.3,3.5
	c0,2-1.4,3.5-3.3,3.5c-2,0-3.3-1.4-3.3-3.5C36.4,31.9,37.7,30.4,39.7,30.4z M64.3,41V26.8h-4.2v1.5c-1-1-2.4-1.5-4.1-1.5
	c-4.1,0-7.1,2.9-7.1,7.1c0,4.2,3,7.4,7.1,7.4c1.8,0,3.1-0.6,4.1-1.6V41H64.3z M56.7,30.4c2,0,3.3,1.4,3.3,3.5c0,2-1.3,3.5-3.3,3.5
	c-1.9,0-3.3-1.5-3.3-3.5C53.4,31.9,54.8,30.4,56.7,30.4z M81.5,26.5c-4.5,0-7.8,3.2-7.8,7.4c0,4.2,3.2,7.4,7.8,7.4
	c4.6,0,7.8-3.2,7.8-7.4C89.3,29.7,86.1,26.5,81.5,26.5z M81.6,30.5c2,0,3.2,1.4,3.2,3.4c0,2-1.3,3.5-3.2,3.5c-2,0-3.3-1.5-3.3-3.4
	C78.3,31.9,79.6,30.5,81.6,30.5z M101.4,36.1l-3.7,1.4c0.8,2.5,3.1,3.8,6.3,3.8c3.8,0,6.1-1.8,6.1-4.7c0-3.2-2.8-4-5-4.5
	c-1.3-0.4-2.4-0.6-2.4-1.4c0-0.6,0.5-0.9,1.4-0.9c0.9,0,1.6,0.5,1.9,1.3l3.7-1.5c-0.6-2-2.7-3.1-5.6-3.1c-3.6,0-5.9,1.7-5.9,4.4
	c0,2.9,2.6,3.7,4.8,4.3c1.4,0.4,2.7,0.8,2.7,1.7c0,0.6-0.5,1-1.6,1C102.8,38,101.8,37.3,101.4,36.1z M126.2,33.6
	c0-3.5-2.8-7.1-7.4-7.1c-4.1,0-7.4,3.4-7.4,7.4c0,4.2,3,7.4,7.7,7.4c3.1,0,4.9-1.2,6-2.5l-2.6-2.6c-0.8,1-1.7,1.5-3.3,1.5
	c-1.7,0-3-0.9-3.4-2.4h10.3C126.2,34.7,126.2,34.2,126.2,33.6z M115.7,32.5c0.4-1.7,1.5-2.6,3.2-2.6c1.6,0,2.7,1,3.1,2.6H115.7z
	 M15.5,20.2l11.3,11.3c0.1,0.1,0.2,0.2,0.2,0.3c0.1,0.1,0.1,0.3,0.1,0.4c0,0.1,0,0.3-0.1,0.4c-0.1,0.1-0.1,0.2-0.2,0.3l-3.1,3.1
	l-9-9l-5.2,5.2l5.2,5.2l3.2-3.2l3.8,3.8l-6.3,6.3c-0.1,0.1-0.2,0.2-0.3,0.2c-0.1,0.1-0.3,0.1-0.4,0.1c-0.1,0-0.3,0-0.4-0.1
	c-0.1-0.1-0.2-0.1-0.3-0.2L2.7,33c-0.2-0.2-0.3-0.5-0.3-0.7c0-0.3,0.1-0.6,0.3-0.7L14,20.2c0.1-0.1,0.2-0.2,0.3-0.2
	c0.1-0.1,0.3-0.1,0.4-0.1c0.1,0,0.3,0,0.4,0.1S15.4,20.1,15.5,20.2z"/>
</svg>
