<?xml version="1.0" encoding="UTF-8"?>
<svg xmlns="http://www.w3.org/2000/svg" xmlns:xlink="http://www.w3.org/1999/xlink" width="180px" height="90px" viewBox="0 0 180 90" version="1.1">
<g id="surface1">
<path style=" stroke:none;fill-rule:nonzero;fill:rgb(0.784314%,40.784314%,18.823529%);fill-opacity:1;" d="M 80.804688 80.171875 L 106.929688 80.171875 C 135.367188 80.171875 149.640625 65.390625 149.640625 44.59375 L 149.640625 44.394531 C 149.640625 23.597656 135.660156 9.828125 107.734375 9.828125 L 80.804688 9.828125 Z M 104.328125 60.917969 L 104.328125 29.082031 L 108.253906 29.082031 C 119.011719 29.082031 125.945312 33.875 125.945312 44.886719 L 125.945312 45.097656 C 125.945312 56.109375 119.011719 60.90625 108.253906 60.90625 L 104.328125 60.90625 Z M 104.328125 60.917969 "/>
<path style=" stroke:none;fill-rule:nonzero;fill:rgb(0.784314%,40.784314%,18.823529%);fill-opacity:1;" d="M 155.503906 80.171875 L 178.960938 80.171875 L 178.960938 9.828125 L 155.503906 9.828125 Z M 155.503906 80.171875 "/>
<path style=" stroke:none;fill-rule:nonzero;fill:rgb(89.019608%,1.960784%,11.372549%);fill-opacity:1;" d="M 24.511719 56.726562 L 47.96875 56.726562 L 47.96875 33.285156 L 24.511719 33.285156 C 24.511719 33.285156 24.511719 56.726562 24.511719 56.726562 Z M 24.511719 56.726562 "/>
<path style=" stroke:none;fill-rule:nonzero;fill:rgb(0.784314%,40.784314%,18.823529%);fill-opacity:1;" d="M 47.96875 80.171875 L 71.421875 80.171875 L 71.421875 9.828125 L 47.96875 9.828125 Z M 47.96875 80.171875 "/>
<path style=" stroke:none;fill-rule:nonzero;fill:rgb(0.784314%,40.784314%,18.823529%);fill-opacity:1;" d="M 1.039062 80.171875 L 24.496094 80.171875 L 24.496094 9.828125 L 1.039062 9.828125 Z M 1.039062 80.171875 "/>
</g>
</svg>
