<?xml version="1.0" encoding="UTF-8"?>
<svg xmlns="http://www.w3.org/2000/svg" xmlns:xlink="http://www.w3.org/1999/xlink" width="230px" height="115px" viewBox="0 0 230 115" version="1.1">
<g id="surface1">
<path style=" stroke:none;fill-rule:nonzero;fill:rgb(0.784314%,40.784314%,18.823529%);fill-opacity:1;" d="M 103.25 102.441406 L 136.632812 102.441406 C 172.96875 102.441406 191.207031 83.554688 191.207031 56.980469 L 191.207031 56.726562 C 191.207031 30.152344 173.34375 12.558594 137.660156 12.558594 L 103.25 12.558594 Z M 133.308594 77.839844 L 133.308594 37.160156 L 138.324219 37.160156 C 152.070312 37.160156 160.929688 43.285156 160.929688 57.355469 L 160.929688 57.625 C 160.929688 71.695312 152.070312 77.824219 138.324219 77.824219 L 133.308594 77.824219 Z M 133.308594 77.839844 "/>
<path style=" stroke:none;fill-rule:nonzero;fill:rgb(0.784314%,40.784314%,18.823529%);fill-opacity:1;" d="M 198.699219 102.441406 L 228.671875 102.441406 L 228.671875 12.558594 L 198.699219 12.558594 Z M 198.699219 102.441406 "/>
<path style=" stroke:none;fill-rule:nonzero;fill:rgb(89.019608%,1.960784%,11.372549%);fill-opacity:1;" d="M 31.320312 72.484375 L 61.292969 72.484375 L 61.292969 42.53125 L 31.320312 42.53125 C 31.320312 42.53125 31.320312 72.484375 31.320312 72.484375 Z M 31.320312 72.484375 "/>
<path style=" stroke:none;fill-rule:nonzero;fill:rgb(0.784314%,40.784314%,18.823529%);fill-opacity:1;" d="M 61.292969 102.441406 L 91.261719 102.441406 L 91.261719 12.558594 L 61.292969 12.558594 Z M 61.292969 102.441406 "/>
<path style=" stroke:none;fill-rule:nonzero;fill:rgb(0.784314%,40.784314%,18.823529%);fill-opacity:1;" d="M 1.328125 102.441406 L 31.300781 102.441406 L 31.300781 12.558594 L 1.328125 12.558594 Z M 1.328125 102.441406 "/>
</g>
</svg>
