<svg width="128" height="64" viewBox="0 0 128 64" fill="none" xmlns="http://www.w3.org/2000/svg">
<g clip-path="url(#clip0_16363_30932)">
<path d="M58.7285 52H73.7105C90.0157 52 98.1968 43.3892 98.1968 31.2638V31.148C98.1968 19.0226 90.1865 11 74.1706 11H58.7285V52ZM72.2118 40.7761V22.2239H74.4599C80.6253 22.2239 84.5996 25.0202 84.5996 31.4373V31.5627C84.5996 37.9798 80.6253 40.7761 74.4599 40.7761H72.2118Z" fill="#006729"/>
<path d="M101.555 52H115V11H101.555V52Z" fill="#006729"/>
<path d="M26.4551 38.3319H39.9005V24.6685H26.4551V38.3319Z" fill="#E60018"/>
<path d="M39.9048 52H53.3502V11H39.9048V52Z" fill="#006729"/>
<path d="M13 52H26.4454V11H13V52Z" fill="#006729"/>
</g>
<defs>
<clipPath id="clip0_16363_30932">
<rect width="102" height="41" fill="white" transform="translate(13 11)"/>
</clipPath>
</defs>
</svg>
