<?xml version="1.0" encoding="utf-8"?>
<!-- Generator: Adobe Illustrator 28.3.0, SVG Export Plug-In . SVG Version: 6.00 Build 0)  -->
<svg version="1.1" id="svg2" xmlns:svg="http://www.w3.org/2000/svg"
	 xmlns="http://www.w3.org/2000/svg" xmlns:xlink="http://www.w3.org/1999/xlink" x="0px" y="0px" viewBox="0 0 128 64"
	 style="enable-background:new 0 0 128 64;" xml:space="preserve">
<style type="text/css">
	.st0{fill-rule:evenodd;clip-rule:evenodd;fill:#2D3386;}
	.st1{fill:#2D3386;}
</style>
<g id="g6">
	<path id="path8" class="st0" d="M25.8,14.1c-2.3,0-4.2-1.9-4.2-4.2c0-2.3,1.9-4.2,4.2-4.2v1.2c-1.7,0-3.1,1.4-3.1,3.1
		c0,1.7,1.4,3.1,3.1,3.1V14.1 M25.8,5.6c2.3,0,4.2,1.9,4.2,4.2c0,2.3-1.9,4.2-4.2,4.2v-1.2c1.7,0,3.1-1.4,3.1-3.1
		c0-1.7-1.4-3.1-3.1-3.1V5.6z"/>
	<path id="path10" class="st1" d="M7.4,14.1c2.3,0,4.2-1.9,4.2-4.2c0-2.3-1.9-4.2-4.2-4.2S3.2,7.5,3.2,9.8
		C3.2,12.2,5.1,14.1,7.4,14.1"/>
	<path id="path12" class="st0" d="M23.5,14.8H4.1V28H1.9v5.7h11.4V28h-2v-7.6h10.9V28H20v5.7h3.5v-1.2h-2.3v-3h1.9V19.4h-6.5v-3.1
		h6.8V14.8 M31.6,33.7V28h-2.3V14.8h-5.7v1.4h4.6v13.2h2.2v3h-6.8v1.2L31.6,33.7L31.6,33.7z"/>
	<rect id="rect14" x="40.2" y="12.1" class="st1" width="4.9" height="21.7"/>
	<path id="path16" class="st1" d="M55.3,30c0.4,0.1,1.1,0.1,1.7,0.1c4.4,0,7.4-2.4,7.4-7.6c0-4.7-2.6-6.9-6.8-6.9
		c-1.1,0-1.8,0.1-2.2,0.2V30 M50.4,12.4c1.8-0.3,4.1-0.5,6.6-0.5c4.1,0,6.8,0.7,8.9,2.2c2.3,1.7,3.7,4.4,3.7,8.2
		c0,4.2-1.5,7-3.6,8.8c-2.3,1.9-5.8,2.8-10,2.8c-2.5,0-4.4-0.2-5.6-0.3V12.4L50.4,12.4z"/>
	<polyline id="polyline18" class="st1" points="86.1,24.5 78.1,24.5 78.1,29.7 87,29.7 87,33.7 73.2,33.7 73.2,12.1 86.6,12.1 
		86.6,16.1 78.1,16.1 78.1,20.6 86.1,20.6 86.1,24.5 	"/>
	<path id="path20" class="st1" d="M101.9,24.5l-1.3-4.6c-0.4-1.3-0.8-2.9-1.1-4.2h-0.1c-0.3,1.3-0.6,2.9-1,4.2l-1.3,4.6H101.9
		 M96.4,28.2l-1.5,5.6h-5.1l6.6-21.7h6.4l6.7,21.7h-5.3l-1.7-5.6H96.4z"/>
	<polyline id="polyline22" class="st1" points="112.6,12.1 117.5,12.1 117.5,29.6 126.1,29.6 126.1,33.7 112.6,33.7 112.6,12.1 	"/>
	<path id="path24" class="st1" d="M6.4,54.2L2.1,40.8h3.3L7,46.5c0.5,1.6,0.9,3.1,1.2,4.8h0c0.3-1.6,0.8-3.2,1.2-4.7l1.7-5.7h3.2
		L9.9,54.2L6.4,54.2"/>
	<path id="path26" class="st1" d="M21.3,48.2c0-0.7-0.3-2-1.7-2c-1.3,0-1.8,1.2-1.9,2H21.3 M17.7,50.3c0.1,1.3,1.3,1.9,2.8,1.9
		c1,0,1.9-0.1,2.7-0.4l0.4,2.1c-1,0.4-2.2,0.6-3.5,0.6c-3.3,0-5.2-1.9-5.2-5c0-2.5,1.5-5.2,4.9-5.2c3.2,0,4.4,2.5,4.4,4.9
		c0,0.5-0.1,1-0.1,1.2L17.7,50.3z"/>
	<path id="path28" class="st1" d="M26.6,47.7c0-1.4,0-2.4-0.1-3.2h2.6l0.1,1.8h0.1c0.5-1.4,1.7-2,2.6-2c0.3,0,0.4,0,0.6,0.1v2.9
		c-0.3-0.1-0.5-0.1-0.8-0.1c-1.1,0-1.9,0.6-2.1,1.5c0,0.2-0.1,0.4-0.1,0.7v4.9h-3L26.6,47.7"/>
	<path id="path30" class="st1" d="M34.9,51.6c0.6,0.3,1.7,0.7,2.6,0.7c0.9,0,1.3-0.3,1.3-0.8c0-0.5-0.3-0.8-1.4-1.1
		c-2-0.7-2.8-1.8-2.8-2.9c0-1.8,1.5-3.2,4-3.2c1.1,0,2.2,0.3,2.7,0.6l-0.5,2.1c-0.4-0.2-1.3-0.5-2.1-0.5c-0.7,0-1.2,0.3-1.2,0.8
		c0,0.5,0.4,0.7,1.6,1.1c1.9,0.6,2.6,1.6,2.6,3c0,1.8-1.4,3.2-4.2,3.2c-1.3,0-2.4-0.3-3.2-0.7L34.9,51.6"/>
	<path id="path32" class="st1" d="M44.2,54.2v-9.8h3v9.8H44.2 M45.7,43.2c-1,0-1.7-0.7-1.7-1.6c0-0.9,0.7-1.6,1.7-1.6
		c1,0,1.7,0.7,1.7,1.6C47.5,42.5,46.8,43.2,45.7,43.2L45.7,43.2z"/>
	<path id="path34" class="st1" d="M57.5,54c-0.5,0.3-1.6,0.5-2.7,0.5c-3.2,0-5.2-1.9-5.2-5c0-2.9,2-5.2,5.6-5.2
		c0.8,0,1.7,0.1,2.3,0.4l-0.5,2.3c-0.4-0.2-0.9-0.3-1.7-0.3c-1.6,0-2.6,1.1-2.6,2.7c0,1.8,1.2,2.7,2.7,2.7c0.7,0,1.3-0.1,1.7-0.3
		L57.5,54"/>
	<path id="path36" class="st1" d="M59.9,40.1h3v5.6h0c0.3-0.4,0.7-0.8,1.2-1c0.5-0.2,1-0.4,1.6-0.4c1.9,0,3.4,1.3,3.4,4.3v5.7h-3
		v-5.4c0-1.3-0.4-2.2-1.6-2.2c-0.8,0-1.3,0.5-1.5,1.1c-0.1,0.2-0.1,0.4-0.1,0.7v5.8h-3L59.9,40.1"/>
	<path id="path38" class="st1" d="M77.9,48.2c0-0.7-0.3-2-1.7-2c-1.3,0-1.8,1.2-1.9,2H77.9 M74.3,50.3c0.1,1.3,1.3,1.9,2.8,1.9
		c1,0,1.9-0.1,2.7-0.4l0.4,2.1c-1,0.4-2.2,0.6-3.5,0.6c-3.3,0-5.2-1.9-5.2-5c0-2.5,1.5-5.2,4.9-5.2c3.2,0,4.4,2.5,4.4,4.9
		c0,0.5-0.1,1-0.1,1.2L74.3,50.3z"/>
	<path id="path40" class="st1" d="M83.2,47.7c0-1.4,0-2.4-0.1-3.2h2.6l0.1,1.8h0.1c0.5-1.4,1.7-2,2.6-2c0.3,0,0.4,0,0.6,0.1v2.9
		c-0.3-0.1-0.5-0.1-0.8-0.1c-1.1,0-1.9,0.6-2.1,1.5c0,0.2-0.1,0.4-0.1,0.7v4.9h-3L83.2,47.7"/>
	<path id="path42" class="st1" d="M100.6,51.1c0,1.3,0,2.3,0.1,3.1H98l-0.1-1.4h-0.1c-0.4,0.6-1.3,1.6-3,1.6c-2,0-3.4-1.2-3.4-4.2
		v-5.7h3v5.2c0,1.4,0.5,2.3,1.5,2.3c0.8,0,1.3-0.6,1.5-1.1c0.1-0.2,0.1-0.4,0.1-0.6v-5.8h3L100.6,51.1"/>
	<path id="path44" class="st1" d="M103.7,47.6c0-1.2,0-2.2-0.1-3.1h2.6l0.1,1.4h0.1c0.4-0.6,1.4-1.6,3-1.6c2,0,3.5,1.3,3.5,4.2v5.8
		h-3v-5.4c0-1.3-0.4-2.1-1.5-2.1c-0.8,0-1.3,0.6-1.5,1.1c-0.1,0.2-0.1,0.5-0.1,0.7v5.6h-3L103.7,47.6"/>
	<path id="path46" class="st1" d="M122,48.5c0-0.2,0-0.4-0.1-0.6c-0.2-0.8-0.8-1.3-1.6-1.3c-1.1,0-2,1-2,2.8c0,1.5,0.7,2.6,2,2.6
		c0.8,0,1.4-0.5,1.6-1.2c0.1-0.2,0.1-0.6,0.1-0.8L122,48.5 M125,52.8c0,1.9-0.4,3.4-1.5,4.4c-1.1,0.9-2.5,1.2-4,1.2
		c-1.3,0-2.6-0.3-3.5-0.7l0.6-2.3c0.6,0.4,1.7,0.7,2.8,0.7c1.4,0,2.5-0.8,2.5-2.6v-0.6h0c-0.6,0.8-1.5,1.3-2.6,1.3
		c-2.4,0-4.1-2-4.1-4.8c0-3.1,2-5.1,4.4-5.1c1.3,0,2.2,0.6,2.7,1.4h0l0.1-1.2h2.6c0,0.6-0.1,1.5-0.1,2.9L125,52.8L125,52.8z"/>
</g>
</svg>
