<?xml version="1.0" encoding="UTF-8"?>
<svg xmlns="http://www.w3.org/2000/svg" xmlns:xlink="http://www.w3.org/1999/xlink" width="128px" height="55px" viewBox="0 0 129 55" version="1.1">
<g id="surface1">
<path style=" stroke:none;fill-rule:evenodd;fill:rgb(17.647059%,20%,52.54902%);fill-opacity:1;" d="M 25.027344 8.867188 C 22.613281 8.867188 20.644531 6.898438 20.644531 4.484375 C 20.644531 2.066406 22.613281 0.0976562 25.027344 0.0976562 L 25.027344 1.320312 C 23.273438 1.320312 21.859375 2.75 21.859375 4.484375 C 21.859375 6.234375 23.273438 7.644531 25.027344 7.644531 L 25.027344 8.867188 M 25.027344 0.0976562 C 27.441406 0.0976562 29.410156 2.066406 29.410156 4.484375 C 29.410156 6.898438 27.441406 8.867188 25.027344 8.867188 L 25.027344 7.644531 C 26.757812 7.644531 28.191406 6.234375 28.191406 4.484375 C 28.191406 2.75 26.757812 1.320312 25.027344 1.320312 Z M 25.027344 0.0976562 "/>
<path style=" stroke:none;fill-rule:nonzero;fill:rgb(17.647059%,20%,52.54902%);fill-opacity:1;" d="M 5.933594 8.867188 C 8.347656 8.867188 10.316406 6.898438 10.316406 4.484375 C 10.316406 2.066406 8.347656 0.0976562 5.933594 0.0976562 C 3.515625 0.0976562 1.546875 2.066406 1.546875 4.484375 C 1.546875 6.898438 3.515625 8.867188 5.933594 8.867188 "/>
<path style=" stroke:none;fill-rule:evenodd;fill:rgb(17.647059%,20%,52.54902%);fill-opacity:1;" d="M 22.632812 9.679688 L 2.488281 9.679688 L 2.488281 23.34375 L 0.222656 23.34375 L 0.222656 29.203125 L 12.027344 29.203125 L 12.027344 23.34375 L 9.910156 23.34375 L 9.910156 15.515625 L 21.15625 15.515625 L 21.15625 23.34375 L 18.996094 23.34375 L 18.996094 29.203125 L 22.632812 29.203125 L 22.632812 27.921875 L 20.28125 27.921875 L 20.28125 24.777344 L 22.289062 24.777344 L 22.289062 14.359375 L 15.574219 14.359375 L 15.574219 11.109375 L 22.632812 11.109375 L 22.632812 9.679688 M 30.949219 29.203125 L 30.949219 23.34375 L 28.535156 23.34375 L 28.535156 9.679688 L 22.632812 9.679688 L 22.632812 11.109375 L 27.402344 11.109375 L 27.402344 24.777344 L 29.667969 24.777344 L 29.667969 27.921875 L 22.632812 27.921875 L 22.632812 29.203125 Z M 30.949219 29.203125 "/>
<path style=" stroke:none;fill-rule:nonzero;fill:rgb(17.647059%,20%,52.54902%);fill-opacity:1;" d="M 39.828125 6.796875 L 44.898438 6.796875 L 44.898438 29.21875 L 39.828125 29.21875 Z M 39.828125 6.796875 "/>
<path style=" stroke:none;fill-rule:nonzero;fill:rgb(17.647059%,20%,52.54902%);fill-opacity:1;" d="M 55.542969 25.402344 C 55.980469 25.484375 56.691406 25.488281 57.304688 25.488281 C 61.898438 25.53125 64.917969 22.992188 64.917969 17.632812 C 64.925781 12.816406 62.199219 10.523438 57.839844 10.523438 C 56.734375 10.523438 55.988281 10.617188 55.542969 10.71875 L 55.542969 25.402344 M 50.476562 7.105469 C 52.34375 6.804688 54.773438 6.621094 57.3125 6.621094 C 61.566406 6.621094 64.34375 7.328125 66.492188 8.949219 C 68.820312 10.6875 70.28125 13.5 70.28125 17.464844 C 70.28125 21.761719 68.726562 24.734375 66.574219 26.550781 C 64.21875 28.515625 60.605469 29.453125 56.238281 29.453125 C 53.601562 29.453125 51.722656 29.296875 50.476562 29.125 Z M 50.476562 7.105469 "/>
<path style=" stroke:none;fill-rule:nonzero;fill:rgb(17.647059%,20%,52.54902%);fill-opacity:1;" d="M 87.390625 19.734375 L 79.144531 19.734375 L 79.144531 25.066406 L 88.367188 25.066406 L 88.367188 29.21875 L 74.074219 29.21875 L 74.074219 6.796875 L 87.886719 6.796875 L 87.886719 10.949219 L 79.144531 10.949219 L 79.144531 15.621094 L 87.390625 15.621094 L 87.390625 19.734375 "/>
<path style=" stroke:none;fill-rule:nonzero;fill:rgb(17.647059%,20%,52.54902%);fill-opacity:1;" d="M 103.722656 19.683594 L 102.328125 14.917969 C 101.941406 13.59375 101.542969 11.914062 101.199219 10.601562 L 101.128906 10.601562 C 100.800781 11.921875 100.464844 13.625 100.105469 14.925781 L 98.765625 19.683594 L 103.722656 19.683594 M 98.027344 23.464844 L 96.445312 29.21875 L 91.203125 29.21875 L 98.046875 6.796875 L 104.679688 6.796875 L 111.65625 29.21875 L 106.199219 29.21875 L 104.472656 23.464844 Z M 98.027344 23.464844 "/>
<path style=" stroke:none;fill-rule:nonzero;fill:rgb(17.647059%,20%,52.54902%);fill-opacity:1;" d="M 114.820312 6.796875 L 119.890625 6.796875 L 119.890625 24.96875 L 128.808594 24.96875 L 128.808594 29.21875 L 114.820312 29.21875 L 114.820312 6.796875 "/>
<path style=" stroke:none;fill-rule:nonzero;fill:rgb(17.647059%,20%,52.54902%);fill-opacity:1;" d="M 4.875 50.480469 L 0.410156 36.566406 L 3.855469 36.566406 L 5.539062 42.457031 C 6.023438 44.113281 6.449219 45.6875 6.792969 47.425781 L 6.839844 47.425781 C 7.191406 45.753906 7.640625 44.097656 8.113281 42.507812 L 9.878906 36.566406 L 13.222656 36.566406 L 8.546875 50.480469 L 4.875 50.480469 "/>
<path style=" stroke:none;fill-rule:nonzero;fill:rgb(17.647059%,20%,52.54902%);fill-opacity:1;" d="M 20.308594 44.265625 C 20.3125 43.507812 19.976562 42.21875 18.546875 42.21875 C 17.21875 42.21875 16.683594 43.433594 16.59375 44.265625 L 20.308594 44.265625 M 16.621094 46.417969 C 16.714844 47.722656 18.003906 48.34375 19.46875 48.34375 C 20.53125 48.34375 21.402344 48.199219 22.246094 47.914062 L 22.671875 50.039062 C 21.628906 50.464844 20.367188 50.679688 19.011719 50.679688 C 15.589844 50.679688 13.625 48.683594 13.625 45.535156 C 13.625 42.96875 15.226562 40.128906 18.714844 40.128906 C 21.992188 40.128906 23.226562 42.671875 23.226562 45.175781 C 23.226562 45.722656 23.167969 46.1875 23.113281 46.4375 Z M 16.621094 46.417969 "/>
<path style=" stroke:none;fill-rule:nonzero;fill:rgb(17.647059%,20%,52.54902%);fill-opacity:1;" d="M 25.835938 43.707031 C 25.835938 42.222656 25.808594 41.246094 25.75 40.375 L 28.449219 40.375 L 28.566406 42.246094 L 28.640625 42.246094 C 29.160156 40.769531 30.390625 40.148438 31.367188 40.148438 C 31.660156 40.148438 31.808594 40.15625 32.039062 40.207031 L 32.039062 43.164062 C 31.777344 43.109375 31.523438 43.074219 31.167969 43.074219 C 30.015625 43.074219 29.226562 43.6875 29.015625 44.667969 C 28.976562 44.871094 28.960938 45.113281 28.960938 45.367188 L 28.960938 50.480469 L 25.8125 50.480469 L 25.835938 43.707031 "/>
<path style=" stroke:none;fill-rule:nonzero;fill:rgb(17.647059%,20%,52.54902%);fill-opacity:1;" d="M 34.363281 47.742188 C 34.933594 48.09375 36.140625 48.492188 37.054688 48.492188 C 38.003906 48.492188 38.40625 48.175781 38.40625 47.660156 C 38.40625 47.136719 38.085938 46.882812 36.925781 46.492188 C 34.828125 45.800781 34.03125 44.65625 34.046875 43.472656 C 34.046875 41.574219 35.644531 40.148438 38.15625 40.148438 C 39.335938 40.148438 40.382812 40.425781 41 40.738281 L 40.453125 42.898438 C 39.996094 42.664062 39.117188 42.332031 38.261719 42.332031 C 37.496094 42.332031 37.058594 42.636719 37.058594 43.144531 C 37.058594 43.628906 37.457031 43.886719 38.695312 44.3125 C 40.613281 44.964844 41.417969 45.949219 41.429688 47.421875 C 41.429688 49.308594 39.957031 50.699219 37.066406 50.699219 C 35.746094 50.699219 34.5625 50.398438 33.792969 49.988281 L 34.363281 47.742188 "/>
<path style=" stroke:none;fill-rule:nonzero;fill:rgb(17.647059%,20%,52.54902%);fill-opacity:1;" d="M 44.058594 50.480469 L 44.058594 40.375 L 47.207031 40.375 L 47.207031 50.480469 L 44.058594 50.480469 M 45.605469 39.0625 C 44.554688 39.0625 43.863281 38.324219 43.867188 37.382812 C 43.863281 36.433594 44.566406 35.710938 45.632812 35.710938 C 46.710938 35.710938 47.386719 36.429688 47.402344 37.382812 C 47.402344 38.324219 46.714844 39.0625 45.625 39.0625 Z M 45.605469 39.0625 "/>
<path style=" stroke:none;fill-rule:nonzero;fill:rgb(17.647059%,20%,52.54902%);fill-opacity:1;" d="M 57.8125 50.226562 C 57.25 50.488281 56.195312 50.699219 55 50.699219 C 51.734375 50.699219 49.65625 48.699219 49.65625 45.527344 C 49.65625 42.570312 51.679688 40.15625 55.433594 40.15625 C 56.265625 40.15625 57.175781 40.308594 57.828125 40.554688 L 57.339844 42.890625 C 56.960938 42.722656 56.410156 42.570312 55.582031 42.570312 C 53.921875 42.570312 52.855469 43.746094 52.871094 45.398438 C 52.871094 47.253906 54.113281 48.238281 55.636719 48.238281 C 56.386719 48.238281 56.960938 48.109375 57.445312 47.910156 L 57.8125 50.226562 "/>
<path style=" stroke:none;fill-rule:nonzero;fill:rgb(17.647059%,20%,52.54902%);fill-opacity:1;" d="M 60.257812 35.824219 L 63.402344 35.824219 L 63.402344 41.589844 L 63.445312 41.589844 C 63.773438 41.152344 64.1875 40.789062 64.675781 40.550781 C 65.152344 40.296875 65.726562 40.148438 66.308594 40.148438 C 68.316406 40.148438 69.847656 41.539062 69.847656 44.585938 L 69.847656 50.480469 L 66.703125 50.480469 L 66.703125 44.929688 C 66.703125 43.601562 66.246094 42.691406 65.082031 42.691406 C 64.242188 42.691406 63.726562 43.226562 63.507812 43.800781 C 63.425781 43.988281 63.402344 44.261719 63.402344 44.488281 L 63.402344 50.480469 L 60.257812 50.480469 L 60.257812 35.824219 "/>
<path style=" stroke:none;fill-rule:nonzero;fill:rgb(17.647059%,20%,52.54902%);fill-opacity:1;" d="M 78.863281 44.265625 C 78.867188 43.507812 78.53125 42.21875 77.101562 42.21875 C 75.773438 42.21875 75.238281 43.433594 75.148438 44.265625 L 78.863281 44.265625 M 75.175781 46.417969 C 75.269531 47.722656 76.554688 48.34375 78.023438 48.34375 C 79.085938 48.34375 79.957031 48.199219 80.800781 47.914062 L 81.226562 50.039062 C 80.183594 50.464844 78.921875 50.679688 77.566406 50.679688 C 74.144531 50.679688 72.179688 48.683594 72.179688 45.535156 C 72.179688 42.96875 73.78125 40.128906 77.273438 40.128906 C 80.546875 40.128906 81.78125 42.671875 81.78125 45.175781 C 81.78125 45.722656 81.722656 46.1875 81.667969 46.4375 Z M 75.175781 46.417969 "/>
<path style=" stroke:none;fill-rule:nonzero;fill:rgb(17.647059%,20%,52.54902%);fill-opacity:1;" d="M 84.390625 43.707031 C 84.390625 42.222656 84.363281 41.246094 84.308594 40.375 L 87.003906 40.375 L 87.121094 42.246094 L 87.195312 42.246094 C 87.714844 40.769531 88.945312 40.148438 89.921875 40.148438 C 90.214844 40.148438 90.363281 40.15625 90.59375 40.207031 L 90.59375 43.164062 C 90.332031 43.109375 90.078125 43.074219 89.726562 43.074219 C 88.570312 43.074219 87.785156 43.6875 87.570312 44.667969 C 87.53125 44.871094 87.515625 45.113281 87.515625 45.367188 L 87.515625 50.480469 L 84.367188 50.480469 L 84.390625 43.707031 "/>
<path style=" stroke:none;fill-rule:nonzero;fill:rgb(17.647059%,20%,52.54902%);fill-opacity:1;" d="M 102.390625 47.242188 C 102.390625 48.554688 102.429688 49.640625 102.472656 50.480469 L 99.75 50.480469 L 99.605469 49.054688 L 99.542969 49.054688 C 99.144531 49.679688 98.203125 50.707031 96.390625 50.707031 C 94.339844 50.707031 92.84375 49.425781 92.84375 46.316406 L 92.84375 40.375 L 95.988281 40.375 L 95.988281 45.804688 C 95.988281 47.285156 96.464844 48.167969 97.570312 48.167969 C 98.425781 48.167969 98.929688 47.578125 99.132812 47.066406 C 99.210938 46.882812 99.246094 46.652344 99.246094 46.398438 L 99.246094 40.375 L 102.390625 40.375 L 102.390625 47.242188 "/>
<path style=" stroke:none;fill-rule:nonzero;fill:rgb(17.647059%,20%,52.54902%);fill-opacity:1;" d="M 105.640625 43.605469 C 105.640625 42.34375 105.601562 41.28125 105.554688 40.375 L 108.28125 40.375 L 108.425781 41.777344 L 108.492188 41.777344 C 108.902344 41.125 109.929688 40.148438 111.617188 40.148438 C 113.675781 40.148438 115.230469 41.523438 115.230469 44.5 L 115.230469 50.480469 L 112.085938 50.480469 L 112.085938 44.878906 C 112.085938 43.578125 111.621094 42.6875 110.488281 42.6875 C 109.625 42.6875 109.109375 43.292969 108.898438 43.875 C 108.8125 44.070312 108.785156 44.367188 108.785156 44.648438 L 108.785156 50.480469 L 105.640625 50.480469 L 105.640625 43.605469 "/>
<path style=" stroke:none;fill-rule:nonzero;fill:rgb(17.647059%,20%,52.54902%);fill-opacity:1;" d="M 124.515625 44.492188 C 124.515625 44.292969 124.496094 44.085938 124.453125 43.914062 C 124.234375 43.082031 123.636719 42.523438 122.765625 42.523438 C 121.621094 42.523438 120.707031 43.566406 120.707031 45.398438 C 120.707031 46.90625 121.453125 48.082031 122.757812 48.082031 C 123.570312 48.082031 124.21875 47.546875 124.425781 46.816406 C 124.492188 46.574219 124.515625 46.242188 124.515625 45.984375 L 124.515625 44.492188 M 127.65625 49.011719 C 127.65625 50.953125 127.265625 52.542969 126.117188 53.554688 C 125.011719 54.515625 123.511719 54.796875 122.023438 54.796875 C 120.691406 54.796875 119.296875 54.523438 118.394531 54.023438 L 119.015625 51.640625 C 119.652344 52.003906 120.761719 52.398438 121.941406 52.398438 C 123.425781 52.398438 124.5625 51.601562 124.5625 49.738281 L 124.5625 49.085938 L 124.523438 49.085938 C 123.929688 49.914062 122.960938 50.390625 121.796875 50.390625 C 119.304688 50.390625 117.527344 48.363281 117.527344 45.472656 C 117.527344 42.210938 119.621094 40.148438 122.101562 40.148438 C 123.488281 40.148438 124.355469 40.753906 124.867188 41.585938 L 124.914062 41.585938 L 125.015625 40.375 L 127.742188 40.375 C 127.695312 41.03125 127.65625 41.882812 127.65625 43.386719 Z M 127.65625 49.011719 "/>
</g>
</svg>
