<svg width="128" height="64" viewBox="0 0 128 64" fill="none" xmlns="http://www.w3.org/2000/svg">
<path d="M23.8311 29.6125L22.9551 29.5448V27.9224H27.617V29.5109L27.0895 29.5611C26.8096 29.6125 26.6922 29.6613 26.6922 30.0438V32.3413H30.282V29.5963L29.472 29.529V27.9228H34.0372V29.4965L33.5418 29.5453C33.2271 29.5967 33.1445 29.6618 33.1445 30.0578V37.2366L34.0042 37.3034V38.9263H29.3568V37.3364L29.8865 37.289C30.1967 37.237 30.2816 37.1553 30.2816 36.7588V34.3593H26.6917V37.2542L27.5515 37.3206V38.9268H22.9375V37.354L23.4324 37.3039C23.7485 37.2542 23.8311 37.1729 23.8311 36.7737V29.6125Z" fill="black"/>
<path d="M45.1144 35.5333C45.1144 37.7663 43.1293 39.1394 40.5496 39.1394C37.652 39.1394 35.922 37.9645 35.922 35.3021V29.6125L35.0447 29.5448V27.9224H39.7097V29.5109L39.1647 29.5611C38.8824 29.6125 38.7673 29.6613 38.7673 30.0424V35.401C38.7673 36.725 39.6894 37.1056 40.732 37.1056C41.725 37.1056 42.5197 36.5931 42.5197 35.4683V29.5976L41.7421 29.529V27.9228H46.0269V29.4965L45.5293 29.5453C45.2173 29.5981 45.1144 29.6618 45.1144 30.0429V35.5333Z" fill="black"/>
<path d="M54.1644 32.3115L56.3418 29.9603C56.4917 29.8099 56.6989 29.6239 56.9717 29.5629L57.402 29.4879V27.9229H53.2215V29.5114L53.7963 29.5629L50.5939 32.9378V29.9928C50.5939 29.7115 50.7289 29.5629 50.9741 29.5453L51.3896 29.5114V27.9229H46.8713V29.5453L47.7663 29.613V36.842C47.7663 37.1215 47.634 37.2718 47.3834 37.289L46.8708 37.3545V38.9254H51.2067V37.3206L50.5939 37.2718V35.8901L52.2042 34.2451L53.5493 36.8573C53.6668 37.0736 53.6668 37.2366 53.3994 37.2886L52.8842 37.354V38.925H57.8635V37.3035L56.6958 37.1712L54.1644 32.3115Z" fill="black"/>
<path d="M62.2693 33.054H57.9321V35.0914H62.2693V33.054Z" fill="black"/>
<path d="M111.925 32.9848C112.67 32.9848 113.507 32.5838 113.507 31.3497C113.507 30.2696 112.915 29.8483 111.937 29.8483H111.012V32.9843H111.925V32.9848ZM107.262 37.3486L107.798 37.2989C108.112 37.2502 108.18 37.1662 108.18 36.7702V29.6013L107.28 29.5349V27.9138H112.733C114.85 27.9138 116.403 28.8427 116.403 30.9316C116.403 32.8028 115.385 33.5253 114.276 33.7926C114.276 33.7926 115.295 33.9141 115.645 34.7887L116.463 37.2497L117.375 37.3436V38.9209H112.907V37.3486L113.273 37.2989C113.537 37.2502 113.56 37.084 113.443 36.8356L112.925 35.429C112.793 35.0407 112.201 34.7905 111.673 34.7905H111.005V37.2669L111.668 37.3604V38.9214H107.262L107.262 37.3486Z" fill="black"/>
<path d="M69.5246 29.8912C67.8701 29.8912 66.8595 30.9989 66.8595 33.3176C66.8595 35.3551 67.6321 36.8836 69.5928 36.9102C70.2453 36.9174 70.765 36.8213 70.765 36.8213L70.8522 35.2887H72.8526V38.5344C71.9698 38.8645 70.7501 39.1282 69.428 39.1282C65.9821 39.1282 64.0305 37.2082 64.0305 33.4996C64.0305 29.1457 66.71 27.6895 69.3602 27.6895C70.6679 27.6895 71.9576 27.9694 72.8024 28.3844V31.1597L70.8029 31.431L70.7149 30.4534C70.7149 30.206 70.7 30.0737 70.4855 30.0073C70.1694 29.9237 69.7901 29.8912 69.5246 29.8912Z" fill="black"/>
<path d="M79.0165 36.9175C80.6719 36.9175 81.119 35.1564 81.119 33.4838C81.119 32.0935 80.7387 29.8999 78.9492 29.8999C77.344 29.8999 76.7745 31.6609 76.7745 33.3172C76.7745 34.8575 77.1295 36.9175 79.0165 36.9175ZM78.8842 39.1287C75.7716 39.1287 73.9514 37.2087 73.9514 33.4351C73.9514 29.1963 76.6341 27.6899 79.1168 27.6899C81.7168 27.6899 83.9488 29.246 83.9488 33.4351C83.9493 37.2087 81.9792 39.1287 78.8842 39.1287Z" fill="black"/>
<path d="M88.8398 36.7905H89.8671C91.0746 36.7905 91.504 36.3015 91.504 35.374C91.504 34.446 90.9422 33.9425 89.8969 33.9425H88.8394V36.7905H88.8398ZM88.8398 32.1553H89.602C90.6429 32.1553 91.0926 31.6251 91.0926 30.7663C91.0926 29.8862 90.5625 29.5403 89.6526 29.5403H88.8403L88.8398 32.1553ZM90.264 27.9138C92.2694 27.9138 93.9866 28.5076 93.9866 30.5477C93.9866 31.7538 93.3093 32.5978 92.3172 32.9952C93.657 33.2765 94.5317 34.2202 94.5317 35.5451C94.5317 37.7478 92.9616 38.9214 90.0495 38.9214H85.0991V37.3504L85.6347 37.2989C85.9494 37.2502 86.0149 37.1662 86.0149 36.7702V29.6026L85.1145 29.5354V27.9143L90.264 27.9138Z" fill="black"/>
<path d="M105.14 35.5275C105.14 37.764 103.335 39.1377 100.755 39.1377C97.8541 39.1377 96.3495 37.9636 96.3495 35.2963V29.6013L95.4744 29.5349V27.9138H100.142V29.5028L99.5772 29.553C99.2968 29.6017 99.1821 29.6514 99.1821 30.0325V35.3965C99.1821 36.72 99.8919 37.0998 100.935 37.0998C101.929 37.0998 102.54 36.5886 102.54 35.4625V29.585L101.762 29.5177V27.9138H106.052V29.4861L105.552 29.5349C105.24 29.585 105.14 29.651 105.14 30.0325V35.5275Z" fill="black"/>
<path d="M124.54 36.7886V34.9905L123.53 34.9246V33.318H128V34.8916L127.57 34.9413C127.29 34.9901 127.173 35.0912 127.173 35.4037V38.3307C126.262 38.7746 124.755 39.1196 123.118 39.1196C119.94 39.1196 117.934 37.2664 117.934 33.4422C117.934 29.1723 120.668 27.697 123.513 27.697C124.905 27.697 126.263 28.0109 127.04 28.4096V31.1708L124.998 31.3971L124.955 30.4632C124.955 30.2144 124.921 30.0808 124.705 30.0158C124.392 29.9494 123.996 29.9169 123.615 29.9169C121.663 29.9169 120.762 31.3068 120.762 33.3442C120.762 35.643 121.545 36.9679 123.2 36.9679C123.647 36.9688 124.142 36.939 124.54 36.7886Z" fill="black"/>
<path d="M9.02727 46.5392L8.79698 46.4214C8.26324 46.1491 6.37845 45.1376 4.49953 43.5003C2.47611 41.7356 0.0634507 38.8691 0.0634507 35.2314C0.0634507 34.7541 0.0598382 25.1003 0.0571289 23.6942V23.3853L0.330771 23.2417C3.58964 21.5181 8.48585 21.0566 9.02817 21.0566C9.94709 21.0566 14.6193 21.6265 17.6745 23.2417L17.9482 23.3853V23.6942C17.9482 24.5819 17.9455 28.762 17.9432 31.8407L17.9419 35.2319C17.9419 38.9274 15.5432 41.7907 13.5306 43.5418C11.6756 45.1584 9.79175 46.1559 9.25801 46.4232L9.02727 46.5392Z" fill="#FDD319"/>
<path d="M1.77852 32.2224L1.39244 32.194V31.4814H3.44611V32.1791L3.21356 32.2003C3.08848 32.2229 3.03701 32.2455 3.03701 32.4116V33.424H4.617V32.2152L4.26072 32.1868V31.4814H6.27059V32.1728L6.05204 32.194C5.91431 32.2152 5.87819 32.245 5.87819 32.4189V35.5789L6.25569 35.6078V36.3226H4.20969V35.6227L4.4436 35.6001C4.58132 35.5784 4.61745 35.5414 4.61745 35.3684V34.3122H3.03746V35.5861L3.41496 35.6145V36.3217H1.38477V35.6294L1.60377 35.6069C1.7424 35.5856 1.77852 35.5477 1.77852 35.3738V32.2224Z" fill="black"/>
<path d="M11.1449 34.8289C11.1449 35.8123 10.2725 36.4165 9.13639 36.4165C7.86255 36.4165 7.10032 35.8999 7.10032 34.7277V32.2229L6.71289 32.1945V31.4819H8.76656V32.1796L8.52769 32.2008C8.40396 32.2234 8.35249 32.246 8.35249 32.4121V34.7706C8.35249 35.3536 8.75753 35.522 9.21631 35.522C9.65387 35.522 10.0025 35.2958 10.0025 34.8004V32.2157L9.65884 32.1873V31.4819H11.5463V32.1733L11.3278 32.1945C11.1905 32.2157 11.1454 32.2455 11.1454 32.4117L11.1449 34.8289Z" fill="black"/>
<path d="M15.1288 33.4116L16.0861 32.3766C16.1533 32.3107 16.2437 32.2267 16.3651 32.2005L16.5539 32.168V31.4817H14.7124V32.1793L14.9671 32.2005L13.5583 33.688V32.3902C13.5583 32.2665 13.6156 32.2001 13.7258 32.1938L13.9055 32.1789V31.4812H11.9182V32.1938L12.312 32.2213V35.4025C12.312 35.5285 12.2546 35.5935 12.1444 35.6003L11.9182 35.6301V36.321H13.8256V35.6152L13.5583 35.5935V34.9848L14.2645 34.261L14.8569 35.4111C14.9084 35.5073 14.9084 35.5782 14.791 35.5998L14.5648 35.6296V36.3205H16.7562V35.6071L16.2423 35.5479L15.1288 33.4116Z" fill="black"/>
<path d="M15.3176 25.299L14.3223 27.7176V28.5439C13.925 28.3877 13.4048 28.2129 13.1573 28.1325L12.8462 26.6487L9.10011 25.826L8.32388 27.5464C7.82401 27.5938 6.9489 27.7451 6.94529 27.7451L6.94619 26.4514L6.63145 26.2351C6.63145 26.2351 6.79627 26.0527 6.83781 25.975C6.94258 25.7786 6.94664 25.5835 6.94664 25.4887C6.94664 24.7238 6.03811 24.3413 6.03811 24.3413L5.91935 23.9412V23.8026C6.08191 23.6825 6.33433 23.5849 6.7019 23.58C7.37065 23.5736 7.39548 23.7163 7.88723 23.7999C8.83956 23.9624 9.37826 23.221 9.37826 23.221C9.37826 23.221 8.416 23.5646 7.9071 23.2851C7.50973 23.0652 7.18325 22.7712 6.56598 22.7785C6.01237 22.7861 5.74595 23.0413 5.74595 23.0413V23.9439L5.62449 24.3413C5.62449 24.3413 4.7146 24.7238 4.7146 25.4887C4.7146 25.5835 4.71822 25.779 4.82343 25.975C4.86452 26.0522 5.03069 26.2351 5.03069 26.2351L4.7146 26.4514L4.71325 28.3601C4.33439 28.5164 3.92709 28.7164 3.63945 28.8613V28.245L3.87968 27.8539V26.6564L3.46696 26.6338L2.68983 24.7025L1.94251 26.6365L1.52979 26.6605V27.8566L1.77453 28.2481V30.8057H2.28208V28.1032L2.03598 27.7108V27.1382L2.29743 27.122L2.69886 26.0829L3.1152 27.1206L3.37258 27.1355V27.7103L3.13235 28.1041V29.7053C3.19873 29.6665 4.19848 29.0953 5.22125 28.7078L5.22215 26.6528C5.22215 26.6528 5.43212 26.5024 5.49489 26.4288C5.53869 26.3724 5.53237 26.334 5.53237 26.2238C5.53237 26.0978 5.4687 26.0251 5.36123 25.9226C5.23886 25.7953 5.19912 25.6553 5.19912 25.4864C5.19912 25.029 5.8313 24.7251 5.8313 24.7251C5.8313 24.7251 6.46032 25.0285 6.46032 25.4864C6.46032 25.6553 6.42148 25.7953 6.29911 25.9226C6.19164 26.0251 6.12797 26.0978 6.12797 26.2238C6.12797 26.334 6.12165 26.3728 6.16545 26.4288C6.22776 26.5024 6.43819 26.6528 6.43819 26.6528L6.43683 28.3565C6.43683 28.3565 7.42935 28.1339 8.663 28.0255L9.39317 26.4103L12.4168 27.0727L12.7207 28.5263C13.2594 28.6798 14.3029 29.0415 14.8317 29.275V27.8187L15.323 26.6198L15.8242 27.8187V30.8026H16.3304V27.7153L15.3176 25.299Z" fill="black"/>
<path d="M15.1228 37.0291C14.0003 40.1416 10.6303 42.4703 9.02774 43.4303C7.42652 42.4703 4.05657 40.1416 2.934 37.0291H2.2666C3.43297 41.0253 8.98303 44.1641 9.02819 44.1641C9.07425 44.1641 14.6243 41.0253 15.7907 37.0291H15.1228Z" fill="black"/>
<path d="M17.43 35.2312C17.43 38.7303 15.1298 41.4712 13.1949 43.1565C11.3674 44.7477 9.51517 45.7217 9.02975 45.9656C8.54342 45.7181 6.6785 44.7202 4.8357 43.1154C2.89221 41.4202 0.575733 38.6766 0.575733 35.2312C0.575733 34.7526 0.570766 25.0992 0.569411 23.694C3.73707 22.0192 8.49194 21.569 9.02794 21.569C9.81681 21.569 14.4642 22.1239 17.4354 23.694C17.4363 25.0988 17.43 34.7526 17.43 35.2312ZM9.02884 21C6.68256 21.0623 2.3237 22.0174 0 23.3526C0 23.7861 0.00632177 34.716 0.00632177 35.2312C0.00632177 36.8555 0.478648 38.4616 1.41382 40.0105C2.15121 41.2378 3.18256 42.4304 4.47356 43.5543C6.66134 45.4607 8.81481 46.498 8.90467 46.5404L9.02704 46.5991L9.14941 46.5418C9.23927 46.5002 11.3819 45.4892 13.5584 43.5931C14.8435 42.4791 15.8672 41.287 16.6046 40.0538C17.5307 38.5014 18.0008 36.8789 18.0008 35.2312C18.0008 34.716 18.0071 23.5341 18.0071 23.3526C15.6161 21.9397 11.0726 21.0623 9.02884 21Z" fill="black"/>
</svg>
