<svg width="128" height="64" viewBox="0 0 128 64" fill="none" xmlns="http://www.w3.org/2000/svg">
<g clip-path="url(#clip0_34580_6226)">
<path d="M6.58644 30.6313C3.13556 30.6313 2.08733 30.7634 2.08733 30.7634L2 30.8513V45.103L2.08733 45.1909H5.84444L5.93178 45.103V40.6162H7.154C11.3911 40.6162 13.3131 38.8567 13.3131 35.8657V35.3378C13.3571 31.4672 10.0373 30.6313 6.58644 30.6313ZM9.29467 35.9536C9.29467 37.6691 8.72689 38.5047 7.11067 38.5047H5.97489V32.9186H7.02222C8.682 32.9186 9.29356 33.8423 9.29356 35.5144L9.29467 35.9536Z" fill="#005940"/>
<path d="M24.0587 40.7914C23.8436 40.3684 23.5635 39.9824 23.2287 39.6476C24.0424 39.3491 24.744 38.8038 25.2371 38.0868C25.73 37.3698 25.9898 36.5166 25.9807 35.6445V35.2057C25.9807 31.3343 22.5736 30.5872 19.1227 30.5872C16.0214 30.5872 14.7983 30.7192 14.7983 30.7192L14.7109 30.8071V45.0588L14.7983 45.1467H18.5554L18.6427 45.0588V40.7479H19.6912C19.9532 40.7479 20.128 40.9238 20.3027 41.2758L22.312 45.1906H26.2433V45.1026L24.0587 40.7914ZM22.0494 36.0408C22.0494 37.7563 21.3943 38.5041 19.778 38.5041H18.7296V32.9185H19.7776C21.4374 32.9185 22.0489 33.8422 22.0489 35.5143L22.0494 36.0408Z" fill="#005940"/>
<path d="M34.5861 30.1033C30.1743 30.1033 27.2041 32.9625 27.2041 37.7564V38.1523C27.2041 42.9469 30.1743 45.8054 34.5861 45.8054C38.9979 45.8054 41.9681 42.9024 41.9681 38.1523V37.7564C41.9683 33.0063 38.9979 30.1033 34.5861 30.1033ZM37.8621 38.1527C37.8621 41.6277 36.7701 43.3432 34.6297 43.3432C32.4892 43.3432 31.3974 41.5398 31.3974 38.1527V37.7564C31.3974 34.3696 32.4894 32.5659 34.6299 32.5659C36.7703 32.5659 37.8623 34.37 37.8623 37.7564L37.8621 38.1527Z" fill="#005940"/>
<path d="M50.6605 45.1908L55.247 30.8951L55.1596 30.7631H52.0576L49.3932 39.8242C49.2621 40.3081 49.1312 40.748 49.0437 41.055H48.9992L46.0303 30.7192H42.0116L41.9243 30.8072L46.4672 45.1908H50.6605Z" fill="#005940"/>
<path d="M60.1831 45.1908L60.3142 45.0588V30.8072L60.2258 30.7192H56.5575L56.4702 30.8072V45.0588L56.6013 45.1908H60.1831Z" fill="#005940"/>
<path d="M73.4623 45.1908H74.3797V30.8072L74.2924 30.7192H71.4968L71.4095 30.8072V38.5498H71.365C71.245 38.3657 71.1137 38.1896 70.9719 38.022L65.3812 31.423C64.9444 30.9392 64.6824 30.7192 63.8088 30.7192H62.8041L62.7168 30.8072V45.0588L62.8041 45.1468H65.5997L65.687 45.0588V37.3609H65.7315C65.8932 37.5769 66.0683 37.7825 66.2557 37.9768L72.0217 44.5748C72.5021 45.1027 72.6332 45.1906 72.8952 45.1906H73.463L73.4623 45.1908Z" fill="#005940"/>
<path d="M86.6538 45.1907L86.7849 45.0587V42.6394L86.6538 42.5074H80.7569V42.4627C80.9125 42.2903 81.0447 42.0981 81.1501 41.8909L86.4354 32.3457C86.6027 32.0507 86.6929 31.7178 86.6974 31.3781V30.8511L86.6101 30.7632H76.2576L76.1703 30.8511V33.359L76.2576 33.4469H81.8487V33.4917C81.6592 33.6785 81.5103 33.9032 81.4118 34.1514L76.3452 43.5204C76.1267 43.9163 75.9956 44.0922 75.9956 44.5762V45.06L76.1267 45.1921L86.6538 45.1907Z" fill="#005940"/>
<path d="M92.2012 45.1908L92.3323 45.0588V30.8072L92.2438 30.7192H88.5756L88.4883 30.8072V45.0588L88.6194 45.1908H92.2012Z" fill="#005940"/>
<path d="M102.597 30.8072L102.51 30.7192H98.4918L98.4045 30.8072L93.7305 45.0588L93.8178 45.1468H96.7882L97.356 43.2554H102.816L103.384 45.1468H107.403L107.49 45.0588L102.597 30.8072ZM98.1422 40.7041L99.8896 35.0739C99.934 34.898 99.9769 34.7219 100.021 34.5022H100.108L102.03 40.7044L98.1422 40.7041Z" fill="#005940"/>
<path d="M118.847 45.1029V42.5966L118.759 42.5087H112.775V30.8072L112.688 30.7192H108.933L108.845 30.8072V45.1029L108.933 45.1908H118.759L118.847 45.1029Z" fill="#005940"/>
<path d="M125.836 44.7948C125.181 42.3315 124.525 39.9564 124.176 37.4051C123.813 34.5026 123.711 31.5729 123.871 28.6519C123.958 27.1564 124.089 25.7047 124.133 24.2092C124.177 22.8455 124.264 21.35 123.827 20.0304C123.128 17.9191 120.857 16.7754 118.847 17.7432C116.358 18.8869 114.697 22.4938 113.518 26.5846C113.431 26.9366 113.563 27.2004 113.824 26.7166C116.838 20.4706 119.546 17.8755 121.468 19.8107C122.342 20.6903 122.255 22.317 122.167 23.4616C121.119 34.1064 122.473 39.8686 125.487 45.0589C125.574 45.2789 125.924 45.2348 125.837 44.7951L125.836 44.7948Z" fill="#FFDD00"/>
<path d="M120.856 24.2967C118.541 29.0032 118.148 36.437 120.07 41.4955C120.201 41.8914 120.42 41.8475 120.42 41.4076C120.201 36.1732 120.726 29.6631 121.162 24.3847C121.206 23.9449 121.031 23.9449 120.856 24.2967Z" fill="#FFDD00"/>
<path d="M119.415 22.8016C118.236 24.517 117.449 26.4963 116.882 28.4759C116.257 30.5742 115.934 32.7515 115.92 34.9419C115.927 35.6801 116 36.4163 116.139 37.1412C116.183 37.405 116.226 37.537 116.357 37.537C116.445 37.537 116.488 37.405 116.488 37.3611C117.362 33.3584 119.022 26.3645 119.721 23.0654C119.721 22.9775 119.808 22.6695 119.634 22.6695C119.546 22.5816 119.459 22.7575 119.415 22.8016Z" fill="#FFDD00"/>
<path d="M114.129 30.8951C114.129 31.115 114.042 32.6105 114.304 32.6105C114.391 32.6105 114.479 32.4785 114.522 32.2585C115.047 30.499 116.969 24.7808 117.667 22.7574C117.674 22.6954 117.658 22.6331 117.623 22.5816C117.536 22.5368 117.492 22.5816 117.361 22.6695C115.658 24.2091 114.304 26.8919 114.129 30.8951Z" fill="#FFDD00"/>
<path d="M108.626 29.3115C108.495 29.5315 107.796 30.807 107.534 30.6752C107.499 30.6149 107.481 30.5467 107.481 30.4773C107.481 30.4079 107.499 30.3396 107.534 30.2794C108.014 28.5198 109.368 22.6262 109.849 20.5583C109.858 20.5271 109.875 20.4988 109.898 20.4758C109.921 20.4527 109.949 20.4357 109.98 20.4263C110.067 20.4263 110.111 20.471 110.155 20.6462C110.81 22.8014 110.548 25.8365 108.626 29.3115Z" fill="#FFDD00"/>
<path d="M104.257 32.7425C104.563 32.3466 104.869 31.8628 104.956 31.7749C106.115 29.926 106.985 27.9083 107.534 25.7927C108.136 23.798 108.416 21.7188 108.364 19.6346C108.364 19.5466 108.364 19.3707 108.277 19.3267C108.145 19.2387 108.015 19.5466 108.015 19.6346C107.01 22.3177 105.219 27.684 103.865 31.599L104.257 32.7425Z" fill="#FFDD00"/>
<path d="M111.552 15.6317C110.33 13.7404 107.797 13.4763 106.092 14.928C105.044 15.8076 104.301 17.1272 103.646 18.3148C102.903 19.5903 102.248 20.9106 101.506 22.2296C100.114 24.804 98.4758 27.235 96.6136 29.4875C95.5651 30.7183 94.3858 31.9068 93.25 33.0064V34.2372C97.7056 31.4221 101.549 27.1115 105.699 18.71C106.18 17.6983 107.01 16.2467 108.188 15.9829C110.852 15.4111 111.77 19.0179 111.027 25.9239C110.983 26.4956 111.246 26.3197 111.333 25.9686C112.557 21.8778 113.081 17.963 111.552 15.6317Z" fill="#FFDD00"/>
<path d="M102.685 29.7512C104.65 26.7161 106.005 23.1532 106.31 20.0742C106.355 19.6784 106.179 19.5904 106.005 19.9863C104.476 23.0214 102.685 26.4964 100.807 29.7512H102.685Z" fill="#FFDD00"/>
</g>
<defs>
<clipPath id="clip0_34580_6226">
<rect width="124" height="32" fill="white" transform="translate(2 14)"/>
</clipPath>
</defs>
</svg>
