<?xml version="1.0" encoding="UTF-8"?>
<svg xmlns="http://www.w3.org/2000/svg" xmlns:xlink="http://www.w3.org/1999/xlink" width="128px" height="85px" viewBox="0 0 128 85" version="1.1">
<g id="surface1">
<path style=" stroke:none;fill-rule:nonzero;fill:rgb(100%,100%,100%);fill-opacity:1;" d="M 85.816406 24.828125 C 73.566406 24.972656 58.203125 28.113281 51.460938 34.757812 C 48.054688 38.117188 46.824219 42.207031 47.910156 46.808594 C 49.140625 51.921875 53.273438 54.769531 56.753906 55.71875 C 57.984375 56.082031 58.925781 56.082031 59.214844 56.007812 C 59 55.863281 58.417969 55.277344 58.417969 55.277344 L 57.695312 54.328125 C 57.113281 53.453125 56.679688 52.429688 56.390625 51.335938 C 56.171875 50.605469 56.101562 49.949219 56.101562 49.21875 C 56.101562 47.171875 56.96875 45.203125 58.5625 43.523438 C 62.40625 39.507812 70.59375 37.460938 82.917969 37.535156 L 90.238281 37.679688 L 90.382812 37.679688 L 90.453125 37.460938 C 90.671875 36.804688 91.46875 34.394531 91.757812 31.179688 C 91.976562 29.355469 91.902344 27.382812 91.6875 25.191406 L 91.613281 24.972656 L 91.46875 24.902344 C 89.875 24.902344 87.988281 24.828125 85.816406 24.828125 Z M 61.390625 0.292969 C 59.652344 0.4375 57.765625 0.804688 56.535156 1.167969 L 56.460938 1.167969 L 56.316406 1.242188 L 56.246094 1.386719 C 55.300781 4.601562 50.882812 8.105469 48.78125 9.859375 L 47.910156 10.589844 L 47.183594 11.246094 C 45.445312 12.707031 43.851562 14.09375 42.328125 15.699219 C 41.097656 17.015625 39.429688 18.984375 38.269531 21.03125 C 37.328125 22.710938 36.675781 24.609375 36.3125 26.726562 C 36.167969 27.75 36.023438 28.84375 36.023438 29.792969 C 36.023438 30.160156 36.023438 30.597656 36.097656 30.960938 L 36.097656 31.328125 C 36.167969 32.351562 36.386719 33.226562 36.53125 33.808594 C 36.53125 33.738281 36.605469 33.589844 36.605469 33.589844 L 36.894531 32.496094 L 36.964844 32.203125 L 37.328125 30.890625 C 38.199219 28.40625 39.503906 26.214844 41.316406 24.171875 C 45.15625 19.863281 49.214844 17.527344 53.199219 15.261719 C 56.246094 13.507812 59.144531 11.828125 61.824219 9.347656 C 65.449219 5.988281 66.753906 2.847656 67.550781 1.023438 L 67.769531 0.4375 L 67.625 0.4375 C 66.03125 0.21875 63.421875 0.144531 61.390625 0.292969 Z M 61.390625 0.292969 "/>
<path style=" stroke:none;fill-rule:nonzero;fill:rgb(100%,100%,100%);fill-opacity:1;" d="M 68.710938 14.019531 C 61.101562 15.480469 54.503906 18.035156 49.140625 21.542969 C 42.472656 25.921875 38.996094 30.304688 37.546875 36.292969 C 37.546875 36.4375 37.472656 36.585938 37.472656 36.804688 C 37.472656 37.753906 37.90625 39.140625 38.632812 40.746094 C 39.066406 41.625 39.503906 42.28125 39.9375 42.9375 C 39.9375 42.9375 40.011719 43.011719 40.011719 43.085938 L 40.011719 42.863281 C 40.082031 42.28125 40.300781 41.476562 40.664062 40.308594 C 41.53125 37.972656 43.488281 32.714844 52.476562 28.332031 C 57.476562 25.921875 63.347656 24.316406 70.449219 23.441406 C 78.785156 22.417969 85.960938 22.273438 91.324219 22.855469 L 91.394531 22.855469 L 91.394531 22.785156 C 90.890625 20.15625 89.730469 17.015625 88.496094 14.75 L 87.628906 13.289062 L 87.410156 12.925781 L 87.335938 12.777344 L 87.265625 12.707031 L 86.976562 12.632812 C 86.25 12.558594 84.582031 12.488281 82.265625 12.488281 C 78.351562 12.488281 73.710938 13 68.710938 14.019531 Z M 91.394531 22.855469 C 91.46875 22.855469 91.46875 22.855469 91.394531 22.855469 C 91.46875 22.855469 91.46875 22.855469 91.394531 22.855469 Z M 4.570312 69.300781 C 4.570312 70.613281 5.003906 71.710938 5.875 72.585938 C 6.816406 73.535156 7.683594 73.898438 10.222656 75.070312 C 13.554688 76.601562 15.148438 77.40625 15.148438 79.816406 C 15.148438 82.152344 13.265625 83.832031 10.730469 83.832031 C 8.988281 83.832031 7.324219 83.320312 6.234375 82.445312 C 5.292969 81.640625 4.640625 80.546875 4.351562 79.085938 L 4.277344 78.71875 C 3.699219 78.71875 3.699219 79.085938 3.699219 79.15625 C 3.699219 80.035156 3.988281 82.808594 4.207031 84.125 C 4.207031 84.269531 4.277344 84.488281 4.277344 84.488281 L 4.421875 84.488281 L 4.640625 84.414062 L 5.148438 84.195312 L 6.089844 84.34375 C 7.03125 84.488281 8.628906 84.707031 10.4375 84.707031 C 13.628906 84.707031 15.078125 83.976562 15.949219 83.246094 C 17.179688 82.296875 17.976562 80.765625 17.976562 79.085938 C 17.976562 75.578125 15.078125 74.265625 12.46875 73.097656 C 12.394531 73.097656 12.324219 73.023438 12.324219 73.023438 C 8.554688 71.34375 7.03125 70.6875 7.03125 68.132812 C 7.03125 65.867188 8.628906 64.335938 11.089844 64.335938 C 12.394531 64.335938 13.554688 64.625 14.351562 65.285156 C 15.511719 66.015625 15.875 67.183594 16.164062 68.132812 L 16.308594 68.570312 C 16.527344 68.570312 16.816406 68.496094 16.816406 68.351562 L 16.671875 66.890625 L 16.671875 66.597656 C 16.601562 65.941406 16.601562 64.625 16.601562 64.113281 L 16.601562 63.75 L 16.308594 63.824219 C 16.382812 63.824219 15.949219 63.96875 15.949219 63.96875 L 15.296875 63.894531 L 14.207031 63.75 C 13.265625 63.675781 12.179688 63.605469 11.382812 63.605469 C 7.25 63.75 4.570312 65.867188 4.570312 69.300781 Z M 36.386719 71.050781 C 36.3125 71.050781 36.3125 71.269531 36.3125 71.269531 L 36.3125 71.492188 L 36.53125 71.492188 C 37.039062 71.492188 38.269531 71.5625 38.269531 72.730469 C 38.269531 73.390625 37.835938 74.484375 37.472656 75.359375 L 37.402344 75.433594 L 34.648438 81.640625 C 34.648438 81.714844 34.5 81.785156 34.429688 81.785156 C 34.355469 81.785156 34.285156 81.714844 34.210938 81.640625 C 33.777344 80.328125 31.457031 73.390625 31.457031 72.730469 C 31.457031 71.78125 32.183594 71.710938 33.195312 71.636719 L 33.414062 71.5625 L 33.414062 71.125 L 27.253906 71.125 C 27.109375 71.125 27.035156 71.125 27.035156 71.34375 L 27.035156 71.492188 C 27.6875 71.5625 27.980469 71.636719 28.269531 72 C 28.558594 72.441406 28.992188 73.460938 29.644531 75.070312 L 29.644531 75.214844 L 26.601562 81.640625 C 26.601562 81.714844 26.457031 81.785156 26.382812 81.785156 C 26.3125 81.785156 26.238281 81.714844 26.167969 81.640625 L 24.574219 77.550781 L 24.066406 76.238281 L 23.921875 75.871094 C 23.414062 74.558594 22.976562 73.242188 22.976562 72.730469 C 22.976562 72 23.414062 71.636719 24.5 71.5625 L 24.71875 71.5625 L 24.71875 71.125 L 18.917969 71.125 L 18.917969 71.269531 C 18.917969 71.492188 18.917969 71.492188 19.210938 71.636719 C 19.570312 71.78125 19.859375 72.222656 20.441406 73.390625 C 21.601562 76.019531 23.484375 80.910156 24.644531 84.195312 C 24.644531 84.269531 24.863281 84.707031 24.863281 84.707031 L 25.949219 84.5625 L 26.023438 84.5625 L 26.09375 84.34375 C 27.109375 81.933594 27.617188 80.910156 29.789062 76.675781 C 29.863281 76.601562 29.9375 76.527344 30.007812 76.527344 C 30.082031 76.527344 30.152344 76.601562 30.226562 76.675781 C 31.457031 80.105469 32.253906 82.808594 32.617188 84.125 C 32.691406 84.34375 32.761719 84.707031 32.835938 84.707031 L 33.703125 84.5625 C 33.996094 84.5625 34.066406 84.414062 34.210938 84.269531 L 35.007812 82.445312 L 35.300781 81.859375 C 36.3125 79.667969 37.402344 77.257812 38.199219 75.800781 C 39.140625 73.972656 40.226562 72.074219 41.023438 71.710938 C 41.242188 71.636719 41.242188 71.5625 41.242188 71.34375 L 41.242188 71.199219 L 37.183594 71.199219 Z M 44.648438 64.335938 C 44.648438 64.992188 45.445312 65.722656 46.027344 65.722656 C 46.75 65.722656 47.546875 64.917969 47.546875 64.1875 C 47.546875 63.53125 46.75 62.726562 46.097656 62.726562 C 45.519531 62.800781 44.648438 63.605469 44.648438 64.335938 Z M 46.316406 70.761719 L 44.359375 71.636719 L 42.910156 72.292969 L 42.835938 72.367188 C 42.621094 72.511719 42.621094 72.511719 42.621094 72.660156 L 42.621094 72.804688 L 42.980469 72.878906 C 44.722656 73.097656 44.722656 73.679688 44.722656 77.113281 C 44.722656 79.085938 44.722656 81.714844 44.429688 82.589844 C 44.214844 83.394531 43.707031 83.6875 42.621094 83.90625 C 42.257812 83.976562 42.257812 83.976562 42.257812 84.195312 L 42.257812 84.34375 L 43.5625 84.34375 L 46.027344 84.269531 L 48.707031 84.34375 L 49.648438 84.34375 L 49.648438 83.90625 L 49.359375 83.832031 C 48.128906 83.757812 47.332031 83.6875 47.113281 82.589844 C 46.96875 82.078125 46.96875 80.328125 46.96875 77.257812 L 47.039062 72.585938 C 47.039062 72.511719 47.183594 70.613281 47.183594 70.613281 C 47.183594 70.542969 47.039062 70.542969 47.039062 70.542969 C 46.824219 70.542969 46.605469 70.613281 46.316406 70.761719 Z M 51.824219 74.410156 C 51.824219 76.601562 53.78125 77.550781 55.449219 78.355469 C 57.476562 79.304688 58.855469 80.105469 58.855469 81.640625 C 58.855469 82.734375 58.128906 84.050781 56.101562 84.050781 C 55.519531 84.050781 52.695312 83.90625 51.894531 80.910156 L 51.75 80.472656 C 51.460938 80.472656 51.316406 80.546875 51.316406 80.617188 L 51.390625 81.347656 L 51.460938 82.589844 L 51.460938 84.34375 L 51.894531 84.34375 L 52.257812 84.414062 L 52.695312 84.488281 C 53.273438 84.5625 54.359375 84.78125 55.59375 84.78125 C 56.535156 84.78125 61.171875 84.636719 61.171875 80.984375 C 61.171875 78.648438 59.070312 77.699219 57.332031 76.894531 C 54.867188 75.726562 53.851562 75.140625 53.851562 73.679688 C 53.851562 73.316406 54 71.492188 56.316406 71.492188 C 57.910156 71.492188 59.070312 72.367188 59.867188 73.972656 L 60.015625 74.265625 C 60.375 74.265625 60.449219 74.191406 60.449219 74.191406 L 60.449219 74.046875 L 60.304688 72.074219 L 60.230469 71.269531 C 60.230469 71.199219 60.160156 70.90625 60.160156 70.90625 L 59.941406 70.980469 L 59.722656 70.980469 L 59.214844 70.90625 C 58.636719 70.832031 57.765625 70.6875 56.96875 70.6875 C 52.042969 70.761719 51.824219 73.828125 51.824219 74.410156 Z M 63.855469 74.410156 C 63.855469 76.601562 65.8125 77.550781 67.480469 78.355469 C 69.507812 79.304688 70.886719 80.105469 70.886719 81.640625 C 70.886719 82.734375 70.160156 84.050781 68.132812 84.050781 C 67.550781 84.050781 64.726562 83.90625 63.925781 80.910156 L 63.78125 80.472656 C 63.492188 80.472656 63.347656 80.546875 63.347656 80.617188 L 63.421875 81.347656 L 63.492188 82.589844 L 63.492188 84.34375 L 63.925781 84.34375 L 64.289062 84.414062 L 64.726562 84.488281 C 65.304688 84.5625 66.390625 84.78125 67.625 84.78125 C 68.566406 84.78125 73.203125 84.636719 73.203125 80.984375 C 73.203125 78.648438 71.101562 77.699219 69.363281 76.894531 C 66.898438 75.726562 65.882812 75.140625 65.882812 73.679688 C 65.882812 73.316406 66.03125 71.492188 68.347656 71.492188 C 69.941406 71.492188 71.101562 72.367188 71.898438 73.972656 L 72.046875 74.265625 C 72.40625 74.265625 72.480469 74.191406 72.480469 74.191406 L 72.480469 74.046875 L 72.335938 72.074219 L 72.261719 71.269531 C 72.261719 71.199219 72.191406 70.90625 72.191406 70.90625 L 71.972656 70.980469 L 71.753906 70.980469 L 71.246094 70.90625 C 70.667969 70.832031 69.796875 70.6875 69 70.6875 C 64.074219 70.761719 63.855469 73.828125 63.855469 74.410156 Z M 82.625 64.113281 L 80.234375 64.1875 L 76.394531 64.042969 L 76.25 64.042969 L 76.25 64.40625 C 76.320312 64.480469 76.683594 64.480469 76.902344 64.554688 C 78.714844 64.84375 78.859375 65.648438 78.859375 67.839844 L 78.859375 72.585938 C 78.859375 75.289062 78.859375 79.378906 78.640625 81.347656 C 78.496094 82.445312 78.351562 83.757812 76.25 83.90625 L 75.886719 83.976562 L 75.886719 84.414062 L 76.394531 84.414062 C 77.117188 84.34375 78.859375 84.269531 83.277344 84.269531 C 87.84375 84.269531 89.292969 84.34375 90.019531 84.414062 L 90.597656 84.414062 C 90.746094 84.414062 90.816406 84.34375 90.960938 83.6875 C 91.6875 81.128906 91.832031 79.667969 91.832031 79.230469 C 91.832031 79.15625 91.832031 79.085938 91.324219 79.085938 C 91.25 79.085938 91.179688 79.378906 91.179688 79.597656 C 90.890625 80.617188 90.308594 81.933594 89.222656 82.515625 C 88.0625 83.246094 85.742188 83.246094 83.714844 83.246094 C 82.410156 83.246094 81.683594 83.246094 81.46875 82.296875 C 81.25 81.277344 81.175781 77.769531 81.175781 74.851562 C 81.175781 73.171875 81.175781 67.546875 81.46875 66.234375 C 81.683594 64.992188 82.480469 64.625 83.859375 64.554688 L 84.222656 64.480469 L 84.222656 64.1875 C 84.222656 64.042969 84.222656 64.042969 84.078125 64.042969 Z M 96.035156 64.335938 C 96.035156 64.992188 96.832031 65.722656 97.410156 65.722656 C 98.136719 65.722656 98.933594 64.917969 98.933594 64.1875 C 98.933594 63.53125 98.136719 62.726562 97.484375 62.726562 C 96.90625 62.800781 96.035156 63.605469 96.035156 64.335938 Z M 97.703125 70.761719 L 95.746094 71.636719 L 94.296875 72.292969 L 94.222656 72.367188 C 94.003906 72.511719 94.003906 72.511719 94.003906 72.660156 L 94.003906 72.804688 L 94.367188 72.878906 C 96.109375 73.097656 96.109375 73.679688 96.109375 77.113281 C 96.109375 79.085938 96.109375 81.714844 95.816406 82.589844 C 95.601562 83.394531 95.09375 83.6875 94.003906 83.90625 C 93.644531 83.976562 93.644531 83.976562 93.644531 84.195312 L 93.644531 84.34375 L 94.949219 84.34375 L 97.410156 84.269531 L 100.09375 84.34375 L 101.035156 84.34375 L 101.035156 83.90625 L 100.746094 83.832031 C 99.515625 83.757812 98.714844 83.6875 98.5 82.589844 C 98.355469 82.078125 98.355469 80.328125 98.355469 77.257812 L 98.425781 72.511719 L 98.570312 70.542969 C 98.570312 70.46875 98.425781 70.46875 98.425781 70.46875 C 98.210938 70.542969 97.917969 70.613281 97.703125 70.761719 Z M 106.472656 65.0625 C 105.023438 66.890625 105.023438 68.203125 104.949219 70.980469 C 104.949219 71.050781 104.878906 71.125 104.804688 71.199219 L 103.066406 72 L 102.992188 72.367188 L 102.992188 72.511719 L 104.660156 72.441406 C 104.730469 72.441406 104.730469 72.441406 104.804688 72.511719 C 104.878906 72.585938 104.878906 72.585938 104.878906 72.660156 L 104.804688 81.566406 C 104.730469 83.394531 104.515625 83.90625 102.992188 84.125 L 102.773438 84.195312 L 102.773438 84.636719 L 103.71875 84.5625 L 105.746094 84.488281 L 109.007812 84.5625 L 110.167969 84.5625 C 110.601562 84.5625 110.601562 84.5625 110.601562 84.269531 L 110.601562 84.050781 L 110.386719 84.050781 C 108.140625 84.050781 107.414062 83.757812 107.339844 81.785156 L 107.269531 72.660156 C 107.269531 72.585938 107.269531 72.585938 107.339844 72.511719 C 107.414062 72.441406 107.414062 72.441406 107.488281 72.441406 L 111.90625 72.441406 C 112.125 72.441406 112.125 72.441406 112.125 71.855469 L 112.125 71.269531 L 107.558594 71.269531 C 107.414062 71.269531 107.339844 71.199219 107.339844 71.050781 C 107.339844 66.015625 107.488281 63.605469 111.183594 63.605469 C 112.851562 63.605469 113.71875 64.1875 114.226562 64.554688 L 114.515625 64.773438 C 114.660156 64.917969 114.804688 65.0625 114.878906 65.0625 C 115.097656 65.0625 116.402344 64.480469 116.402344 63.894531 C 116.402344 63.09375 115.097656 61.996094 112.777344 61.996094 C 109.878906 61.777344 107.632812 63.457031 106.472656 65.0625 Z M 113.140625 78.429688 C 113.140625 79.886719 113.503906 84.707031 118.574219 84.707031 C 120.894531 84.707031 122.996094 83.613281 124.011719 82.664062 C 124.300781 82.445312 124.300781 82.371094 124.300781 82.226562 L 124.230469 81.933594 C 124.230469 81.933594 124.15625 81.785156 124.15625 81.859375 C 122.488281 83.101562 120.675781 83.246094 120.023438 83.246094 C 116.109375 83.246094 115.53125 79.304688 115.457031 77.625 C 115.457031 77.550781 115.53125 77.40625 115.605469 77.40625 C 117.921875 76.894531 120.96875 76.308594 124.15625 75.800781 L 124.15625 75.726562 C 124.15625 75.507812 124.082031 74.921875 123.867188 74.191406 C 123.140625 71.5625 120.96875 70.6875 119.300781 70.6875 C 116.328125 70.761719 113.140625 73.609375 113.140625 78.429688 Z M 115.53125 76.75 C 115.457031 76.675781 115.457031 76.675781 115.457031 76.601562 C 115.457031 74.046875 116.472656 71.492188 118.503906 71.492188 C 120.242188 71.492188 121.621094 73.460938 121.621094 74.703125 C 121.621094 75.214844 121.257812 75.507812 120.316406 75.726562 C 117.996094 76.308594 117.125 76.527344 115.75 76.75 C 115.675781 76.820312 115.605469 76.820312 115.53125 76.75 Z M 115.53125 76.75 "/>
<path style=" stroke:none;fill-rule:nonzero;fill:rgb(92.941176%,10.196078%,23.137255%);fill-opacity:1;" d="M 91.976562 31.328125 C 92.195312 29.429688 92.121094 27.382812 91.902344 25.265625 C 91.902344 25.121094 91.832031 25.046875 91.757812 24.972656 C 91.6875 24.902344 91.613281 24.902344 91.542969 24.902344 C 89.800781 24.753906 87.917969 24.683594 85.816406 24.753906 C 73.710938 24.828125 58.203125 27.894531 51.316406 34.6875 C 48.128906 37.828125 46.53125 41.914062 47.765625 46.953125 C 49.070312 52.648438 53.851562 55.207031 56.753906 56.007812 C 58.273438 56.449219 59.363281 56.300781 59.363281 56.300781 C 59.363281 56.300781 59.578125 56.300781 59.578125 56.230469 C 59.578125 56.15625 59.433594 56.007812 59.433594 56.007812 C 59.433594 56.007812 58.925781 55.570312 58.5625 55.207031 C 58.273438 54.839844 58.058594 54.621094 57.839844 54.257812 C 57.40625 53.527344 56.898438 52.578125 56.535156 51.261719 C 55.738281 48.488281 56.605469 45.785156 58.636719 43.742188 C 62.042969 40.164062 69.652344 37.753906 82.84375 37.828125 L 90.164062 37.972656 C 90.164062 37.972656 90.382812 37.972656 90.453125 37.898438 C 90.527344 37.828125 90.527344 37.828125 90.597656 37.605469 C 91.105469 36.367188 91.757812 34.027344 91.976562 31.328125 Z M 67.625 0.292969 C 66.03125 0 63.421875 -0.0742188 61.316406 0.144531 C 59.652344 0.292969 57.695312 0.65625 56.390625 1.023438 C 56.246094 1.09375 56.171875 1.09375 56.101562 1.167969 C 56.027344 1.167969 56.027344 1.242188 56.027344 1.386719 C 54.941406 5.113281 49.140625 9.199219 47.691406 10.441406 C 45.664062 12.195312 43.777344 13.730469 42.039062 15.554688 C 40.589844 17.160156 38.996094 19.058594 37.980469 20.957031 C 36.894531 22.929688 36.3125 24.828125 36.023438 26.726562 C 35.734375 28.332031 35.734375 29.867188 35.804688 31.035156 L 35.804688 31.398438 C 35.953125 33.078125 36.242188 33.808594 36.3125 33.957031 C 36.386719 34.101562 36.386719 34.25 36.53125 34.25 C 36.675781 34.25 36.675781 34.027344 36.675781 33.882812 C 36.75 33.738281 36.894531 33.078125 37.039062 32.570312 C 37.253906 31.910156 37.328125 31.621094 37.546875 30.960938 C 38.125 29.28125 39.210938 26.871094 41.460938 24.390625 C 48.273438 16.796875 55.738281 15.261719 61.96875 9.566406 C 65.882812 5.914062 67.117188 2.554688 67.914062 0.730469 C 67.984375 0.585938 68.058594 0.511719 67.984375 0.4375 C 67.914062 0.292969 67.839844 0.292969 67.625 0.292969 Z M 67.625 0.292969 "/>
<path style=" stroke:none;fill-rule:nonzero;fill:rgb(92.941176%,10.196078%,23.137255%);fill-opacity:1;" d="M 91.613281 22.785156 C 91.105469 20.300781 90.019531 17.085938 88.640625 14.75 C 88.351562 14.238281 87.84375 13.363281 87.554688 12.851562 C 87.410156 12.632812 87.484375 12.707031 87.410156 12.632812 C 87.265625 12.488281 86.976562 12.488281 86.976562 12.488281 C 86.179688 12.414062 84.367188 12.339844 82.265625 12.339844 C 78.496094 12.269531 73.855469 12.777344 68.710938 13.800781 C 61.101562 15.261719 54.433594 17.890625 49.070312 21.394531 C 43.269531 25.191406 38.996094 29.429688 37.402344 36.292969 C 37.109375 37.386719 37.835938 39.285156 38.558594 40.820312 C 38.996094 41.769531 39.503906 42.5 40.011719 43.230469 C 40.082031 43.304688 40.15625 43.449219 40.226562 43.375 C 40.300781 43.375 40.300781 43.304688 40.300781 43.15625 C 40.371094 42.644531 40.515625 41.695312 41.023438 40.382812 C 41.894531 37.972656 43.996094 32.789062 52.695312 28.550781 C 58.492188 25.703125 64.796875 24.390625 70.59375 23.734375 C 79.726562 22.636719 86.683594 22.5625 91.46875 23.148438 C 91.613281 23.148438 91.757812 23.222656 91.757812 23.148438 C 91.613281 23.003906 91.613281 22.929688 91.613281 22.785156 Z M 91.613281 22.785156 "/>
<path style=" stroke:none;fill-rule:nonzero;fill:rgb(100%,100%,100%);fill-opacity:1;" d="M 86.613281 27.019531 L 84.078125 27.019531 L 84.078125 29.941406 L 81.175781 29.941406 L 81.175781 32.496094 L 84.078125 32.496094 L 84.078125 35.417969 L 86.613281 35.417969 L 86.613281 32.496094 L 89.585938 32.496094 L 89.585938 29.941406 L 86.613281 29.941406 Z M 86.613281 27.019531 "/>
<path style=" stroke:none;fill-rule:nonzero;fill:rgb(0%,0%,0%);fill-opacity:1;" d="M 16.09375 83.464844 C 15.078125 84.195312 13.554688 84.925781 10.4375 84.925781 C 7.828125 84.925781 5.65625 84.414062 5.148438 84.414062 C 4.785156 84.414062 4.714844 84.707031 4.351562 84.707031 C 4.0625 84.707031 3.988281 84.636719 3.917969 84.125 C 3.699219 82.734375 3.410156 80.035156 3.410156 79.15625 C 3.410156 78.867188 3.625 78.5 4.207031 78.5 C 4.421875 78.5 4.496094 78.71875 4.496094 79.011719 C 4.785156 80.328125 5.367188 81.496094 6.308594 82.226562 C 7.394531 83.101562 8.988281 83.539062 10.730469 83.539062 C 13.121094 83.539062 14.933594 82.007812 14.933594 79.742188 C 14.933594 77.480469 13.410156 76.675781 10.078125 75.140625 C 7.539062 73.972656 6.671875 73.609375 5.65625 72.585938 C 4.496094 71.492188 4.277344 70.175781 4.277344 69.152344 C 4.277344 65.792969 6.742188 63.457031 11.382812 63.457031 C 12.25 63.457031 13.339844 63.53125 14.207031 63.605469 C 15.078125 63.675781 15.800781 63.824219 15.875 63.824219 C 16.019531 63.824219 16.09375 63.75 16.164062 63.675781 L 16.453125 63.675781 C 16.671875 63.675781 16.671875 63.824219 16.671875 63.96875 C 16.671875 64.1875 16.601562 65.792969 16.671875 66.671875 C 16.746094 67.328125 16.816406 68.277344 16.816406 68.421875 C 16.816406 68.714844 16.382812 68.863281 16.09375 68.863281 C 15.875 68.863281 15.875 68.789062 15.730469 68.277344 C 15.441406 67.328125 15.078125 66.234375 13.992188 65.503906 C 13.195312 64.917969 12.035156 64.625 10.875 64.625 C 8.699219 64.625 7.03125 65.941406 7.03125 68.203125 C 7.03125 70.613281 8.554688 71.269531 12.324219 72.949219 C 14.933594 74.121094 17.976562 75.433594 17.976562 79.085938 C 18.195312 81.203125 17.179688 82.664062 16.09375 83.464844 Z M 41.097656 71.710938 C 40.371094 72.074219 39.210938 74.191406 38.34375 75.726562 C 37.546875 77.257812 36.242188 80.105469 35.226562 82.371094 C 35.007812 82.957031 34.5 84.050781 34.429688 84.195312 C 34.285156 84.488281 34.066406 84.636719 33.777344 84.636719 L 32.980469 84.707031 C 32.761719 84.707031 32.691406 84.707031 32.542969 83.976562 C 32.183594 82.515625 31.3125 79.742188 30.152344 76.601562 C 27.980469 80.910156 27.472656 81.933594 26.457031 84.269531 C 26.3125 84.636719 26.3125 84.636719 26.09375 84.636719 L 24.933594 84.78125 C 24.789062 84.78125 24.789062 84.707031 24.574219 84.195312 C 23.484375 80.984375 21.601562 76.019531 20.367188 73.390625 C 19.859375 72.367188 19.570312 71.929688 19.28125 71.78125 C 18.917969 71.5625 18.847656 71.5625 18.847656 71.199219 C 18.847656 70.90625 18.917969 70.832031 19.210938 70.832031 L 24.933594 70.832031 C 25.078125 70.832031 25.078125 71.050781 25.078125 71.269531 C 25.078125 71.636719 25.078125 71.710938 24.644531 71.710938 C 23.628906 71.78125 23.339844 72.148438 23.339844 72.660156 C 23.339844 73.242188 23.921875 74.703125 24.355469 76.089844 C 24.863281 77.40625 25.371094 78.867188 26.457031 81.566406 C 27.035156 80.328125 28.847656 76.601562 29.5 75.140625 C 28.921875 73.609375 28.484375 72.511719 28.195312 72.148438 C 27.90625 71.855469 27.6875 71.78125 27.109375 71.710938 C 26.890625 71.710938 26.890625 71.5625 26.890625 71.34375 C 26.890625 71.050781 26.964844 70.90625 27.253906 70.90625 L 33.269531 70.90625 C 33.558594 70.90625 33.632812 71.050781 33.632812 71.34375 C 33.632812 71.710938 33.632812 71.78125 33.195312 71.855469 C 32.183594 71.929688 31.675781 71.929688 31.675781 72.730469 C 31.675781 73.316406 33.777344 79.816406 34.429688 81.566406 C 35.371094 79.449219 36.53125 76.96875 37.183594 75.433594 C 37.546875 74.558594 38.054688 73.390625 38.054688 72.730469 C 38.054688 71.855469 37.253906 71.78125 36.53125 71.710938 C 36.097656 71.710938 36.097656 71.710938 36.097656 71.34375 C 36.097656 71.050781 36.097656 70.90625 36.386719 70.90625 L 41.023438 70.90625 C 41.242188 70.90625 41.316406 71.050781 41.316406 71.269531 C 41.386719 71.492188 41.316406 71.5625 41.097656 71.710938 Z M 49.503906 84.636719 C 49.070312 84.636719 47.621094 84.5625 46.027344 84.5625 C 44.792969 84.5625 42.980469 84.636719 42.328125 84.636719 C 42.113281 84.636719 42.039062 84.5625 42.039062 84.269531 C 42.039062 83.90625 42.113281 83.832031 42.546875 83.757812 C 43.632812 83.539062 43.996094 83.320312 44.214844 82.589844 C 44.503906 81.785156 44.503906 79.085938 44.503906 77.1875 C 44.503906 73.828125 44.503906 73.316406 42.980469 73.171875 C 42.472656 73.097656 42.402344 73.097656 42.402344 72.730469 C 42.402344 72.367188 42.546875 72.367188 42.835938 72.148438 C 43.417969 71.855469 45.445312 70.90625 46.242188 70.613281 C 46.53125 70.46875 46.824219 70.394531 47.039062 70.394531 C 47.257812 70.394531 47.332031 70.46875 47.332031 70.6875 C 47.332031 71.125 47.257812 72.148438 47.183594 72.660156 C 47.183594 73.390625 47.113281 74.851562 47.113281 77.40625 C 47.113281 78.429688 47.113281 82.007812 47.257812 82.734375 C 47.402344 83.6875 48.054688 83.757812 49.285156 83.832031 C 49.722656 83.832031 49.792969 83.90625 49.792969 84.269531 C 49.867188 84.5625 49.722656 84.636719 49.503906 84.636719 Z M 46.027344 66.015625 C 45.300781 66.015625 44.429688 65.136719 44.429688 64.40625 C 44.429688 63.53125 45.445312 62.65625 46.171875 62.65625 C 46.894531 62.65625 47.835938 63.53125 47.835938 64.335938 C 47.765625 65.0625 46.894531 66.015625 46.027344 66.015625 Z M 55.59375 84.925781 C 54.214844 84.925781 53.128906 84.707031 52.546875 84.636719 C 52.257812 84.636719 51.96875 84.5625 51.894531 84.5625 C 51.824219 84.5625 51.605469 84.636719 51.460938 84.636719 C 51.242188 84.636719 51.171875 84.488281 51.171875 84.195312 L 51.171875 82.589844 C 51.171875 82.078125 51.027344 80.910156 51.027344 80.617188 C 51.027344 80.328125 51.316406 80.328125 51.605469 80.328125 C 51.824219 80.328125 51.824219 80.398438 51.96875 80.910156 C 52.621094 83.394531 54.796875 83.90625 55.953125 83.90625 C 58.058594 83.90625 58.492188 82.515625 58.492188 81.714844 C 58.492188 80.328125 57.332031 79.597656 55.230469 78.648438 C 53.417969 77.769531 51.460938 76.820312 51.460938 74.558594 C 51.460938 73.023438 52.476562 70.6875 56.753906 70.6875 C 57.910156 70.6875 59.289062 70.980469 59.507812 70.980469 C 59.578125 70.980469 59.796875 70.90625 59.941406 70.90625 C 60.160156 70.90625 60.160156 70.980469 60.230469 71.492188 C 60.304688 72.222656 60.449219 73.679688 60.449219 74.265625 C 60.449219 74.558594 60.375 74.628906 59.796875 74.628906 C 59.652344 74.628906 59.578125 74.558594 59.433594 74.191406 C 59.070312 73.390625 58.203125 71.855469 56.101562 71.855469 C 54.144531 71.855469 53.851562 73.242188 53.851562 73.828125 C 53.851562 75.070312 54.722656 75.652344 57.1875 76.820312 C 58.925781 77.625 61.101562 78.648438 61.101562 81.128906 C 61.390625 84.34375 57.476562 84.925781 55.59375 84.925781 Z M 67.625 84.925781 C 66.246094 84.925781 65.160156 84.707031 64.578125 84.636719 C 64.289062 84.636719 64 84.5625 63.925781 84.5625 C 63.855469 84.5625 63.636719 84.636719 63.492188 84.636719 C 63.273438 84.636719 63.203125 84.488281 63.203125 84.195312 L 63.203125 82.589844 C 63.203125 82.078125 63.058594 80.910156 63.058594 80.617188 C 63.058594 80.328125 63.347656 80.328125 63.636719 80.328125 C 63.855469 80.328125 63.855469 80.398438 64 80.910156 C 64.652344 83.394531 66.828125 83.90625 67.984375 83.90625 C 70.089844 83.90625 70.523438 82.515625 70.523438 81.714844 C 70.523438 80.328125 69.363281 79.597656 67.261719 78.648438 C 65.449219 77.769531 63.492188 76.820312 63.492188 74.558594 C 63.492188 73.023438 64.507812 70.6875 68.785156 70.6875 C 69.941406 70.6875 71.320312 70.980469 71.539062 70.980469 C 71.609375 70.980469 71.828125 70.90625 71.972656 70.90625 C 72.191406 70.90625 72.191406 70.980469 72.261719 71.492188 C 72.335938 72.222656 72.480469 73.679688 72.480469 74.265625 C 72.480469 74.558594 72.40625 74.628906 71.828125 74.628906 C 71.683594 74.628906 71.609375 74.558594 71.464844 74.191406 C 71.101562 73.390625 70.234375 71.855469 68.132812 71.855469 C 66.175781 71.855469 65.882812 73.242188 65.882812 73.828125 C 65.882812 75.070312 66.753906 75.652344 69.21875 76.820312 C 70.957031 77.625 73.132812 78.648438 73.132812 81.128906 C 73.421875 84.34375 69.507812 84.925781 67.625 84.925781 Z M 91.324219 83.757812 C 91.105469 84.414062 91.035156 84.707031 90.746094 84.707031 C 90.09375 84.707031 89.511719 84.5625 83.425781 84.5625 C 77.84375 84.5625 76.539062 84.707031 76.175781 84.707031 C 75.886719 84.707031 75.8125 84.636719 75.8125 84.269531 C 75.8125 83.832031 75.8125 83.832031 76.394531 83.757812 C 78.277344 83.613281 78.421875 82.515625 78.566406 81.347656 C 78.785156 79.304688 78.785156 75.214844 78.785156 72.585938 L 78.785156 67.839844 C 78.785156 65.648438 78.640625 64.992188 76.972656 64.773438 C 76.25 64.699219 76.175781 64.625 76.175781 64.335938 C 76.175781 63.894531 76.25 63.824219 76.539062 63.824219 C 77.554688 63.824219 79.4375 63.96875 80.378906 63.96875 C 81.613281 63.96875 83.640625 63.824219 84.4375 63.824219 C 84.65625 63.824219 84.800781 63.894531 84.800781 64.1875 C 84.800781 64.625 84.800781 64.699219 84.222656 64.773438 C 82.773438 64.84375 82.191406 65.210938 82.046875 66.304688 C 81.757812 67.546875 81.757812 72.730469 81.757812 74.851562 C 81.757812 77.84375 81.757812 81.277344 82.046875 82.296875 C 82.191406 83.101562 82.699219 83.101562 84.078125 83.101562 C 86.105469 83.101562 88.351562 83.101562 89.441406 82.445312 C 90.308594 81.933594 90.890625 80.835938 91.25 79.667969 C 91.394531 79.230469 91.46875 78.9375 91.613281 78.9375 C 92.195312 78.9375 92.339844 79.085938 92.339844 79.304688 C 92.195312 79.816406 91.976562 81.277344 91.324219 83.757812 Z M 100.820312 84.636719 C 100.382812 84.636719 98.933594 84.5625 97.339844 84.5625 C 96.109375 84.5625 94.296875 84.636719 93.644531 84.636719 C 93.425781 84.636719 93.351562 84.5625 93.351562 84.269531 C 93.351562 83.90625 93.425781 83.832031 93.859375 83.757812 C 94.949219 83.539062 95.308594 83.320312 95.527344 82.589844 C 95.816406 81.785156 95.816406 79.085938 95.816406 77.1875 C 95.816406 73.828125 95.816406 73.316406 94.296875 73.171875 C 93.789062 73.097656 93.714844 73.097656 93.714844 72.730469 C 93.714844 72.367188 93.859375 72.367188 94.152344 72.148438 C 94.730469 71.855469 96.757812 70.90625 97.558594 70.613281 C 97.847656 70.46875 98.136719 70.394531 98.355469 70.394531 C 98.570312 70.394531 98.644531 70.46875 98.644531 70.6875 C 98.644531 71.125 98.570312 72.148438 98.5 72.660156 C 98.5 73.390625 98.425781 74.851562 98.425781 77.40625 C 98.425781 78.429688 98.425781 82.007812 98.570312 82.734375 C 98.714844 83.6875 99.367188 83.757812 100.601562 83.832031 C 101.035156 83.832031 101.109375 83.90625 101.109375 84.269531 C 101.179688 84.5625 101.109375 84.636719 100.820312 84.636719 Z M 97.410156 66.015625 C 96.6875 66.015625 95.816406 65.136719 95.816406 64.40625 C 95.816406 63.53125 96.832031 62.65625 97.558594 62.65625 C 98.28125 62.65625 99.222656 63.53125 99.222656 64.335938 C 99.152344 65.0625 98.28125 66.015625 97.410156 66.015625 Z M 114.734375 65.0625 C 114.515625 65.0625 114.371094 64.84375 113.9375 64.480469 C 113.503906 64.113281 112.703125 63.53125 111.039062 63.53125 C 107.558594 63.53125 107.414062 65.648438 107.414062 70.832031 L 111.980469 70.832031 C 112.269531 70.832031 112.269531 70.90625 112.269531 71.636719 C 112.269531 72.292969 112.269531 72.441406 111.835938 72.441406 L 107.414062 72.441406 C 107.414062 75.507812 107.414062 79.597656 107.488281 81.566406 C 107.558594 83.394531 108.140625 83.6875 110.3125 83.6875 C 110.746094 83.6875 110.746094 83.757812 110.746094 84.125 C 110.746094 84.5625 110.675781 84.636719 110.09375 84.636719 C 109.589844 84.636719 107.269531 84.5625 105.746094 84.5625 C 104.660156 84.5625 103.28125 84.636719 102.773438 84.636719 C 102.628906 84.636719 102.558594 84.414062 102.558594 84.195312 C 102.558594 83.832031 102.558594 83.757812 102.992188 83.6875 C 104.371094 83.464844 104.585938 83.175781 104.660156 81.347656 C 104.730469 79.230469 104.730469 74.851562 104.730469 72.511719 L 103.066406 72.511719 C 102.847656 72.511719 102.847656 72.441406 102.847656 72.222656 C 102.847656 71.855469 102.847656 71.78125 102.992188 71.710938 L 104.730469 70.90625 C 104.804688 68.058594 104.804688 66.816406 106.253906 64.917969 C 107.632812 63.09375 110.023438 61.558594 112.632812 61.558594 C 115.097656 61.558594 116.472656 62.726562 116.472656 63.675781 C 116.472656 64.40625 114.953125 65.0625 114.734375 65.0625 Z M 114.734375 65.0625 "/>
<path style=" stroke:none;fill-rule:nonzero;fill:rgb(0%,0%,0%);fill-opacity:1;" d="M 124.15625 82.882812 C 122.925781 83.976562 120.820312 85 118.574219 85 C 113.9375 85 112.921875 80.984375 112.921875 78.5 C 112.921875 73.390625 116.328125 70.613281 119.445312 70.613281 C 120.96875 70.613281 123.429688 71.417969 124.230469 74.265625 C 124.445312 75.070312 124.589844 76.019531 124.445312 76.089844 C 121.546875 76.527344 118.648438 77.113281 115.75 77.699219 C 115.820312 79.960938 116.691406 83.175781 120.097656 83.175781 C 121.113281 83.175781 122.777344 82.882812 124.230469 81.714844 C 124.300781 81.640625 124.375 81.566406 124.445312 81.714844 C 124.445312 81.933594 124.519531 82.078125 124.519531 82.296875 C 124.519531 82.515625 124.445312 82.589844 124.15625 82.882812 Z M 118.503906 71.710938 C 116.617188 71.710938 115.75 74.191406 115.675781 76.601562 C 117.054688 76.382812 117.851562 76.164062 120.242188 75.578125 C 121.257812 75.289062 121.402344 75.070312 121.402344 74.703125 C 121.402344 73.609375 120.097656 71.710938 118.503906 71.710938 Z M 118.503906 71.710938 "/>
</g>
</svg>
