<?xml version="1.0" encoding="utf-8"?>
<!-- Generator: Adobe Illustrator 28.3.0, SVG Export Plug-In . SVG Version: 6.00 Build 0)  -->
<svg version="1.1" id="Layer_1" xmlns="http://www.w3.org/2000/svg" xmlns:xlink="http://www.w3.org/1999/xlink" x="0px" y="0px"
	 viewBox="0 0 128 64" style="enable-background:new 0 0 128 64;" xml:space="preserve">
<style type="text/css">
	.st0{fill:#FFFFFF;}
	.st1{fill:#ED1A3B;}
</style>
<g>
	<path class="st0" d="M79.4,19.6c-8.6,0.1-19.4,2.3-24.2,6.9c-2.4,2.3-3.3,5.2-2.5,8.4c0.9,3.6,3.8,5.6,6.2,6.2
		c0.9,0.3,1.5,0.3,1.7,0.2c-0.2-0.1-0.6-0.5-0.6-0.5l-0.5-0.7c-0.4-0.6-0.7-1.3-0.9-2.1c-0.2-0.5-0.2-1-0.2-1.5c0-1.4,0.6-2.8,1.7-4
		c2.7-2.8,8.5-4.2,17.2-4.2l5.2,0.1h0.1l0.1-0.2c0.2-0.5,0.7-2.1,0.9-4.4c0.2-1.3,0.1-2.7-0.1-4.2l-0.1-0.2l-0.1-0.1
		C82.2,19.7,80.9,19.6,79.4,19.6z M62.2,2.5c-1.2,0.1-2.6,0.4-3.4,0.6h-0.1l-0.1,0.1l-0.1,0.1c-0.7,2.2-3.8,4.7-5.3,5.9l-0.6,0.5
		l-0.5,0.5c-1.2,1-2.3,2-3.4,3.1c-0.9,0.9-2,2.3-2.9,3.7c-0.7,1.2-1.1,2.5-1.4,4c-0.1,0.7-0.2,1.5-0.2,2.1c0,0.3,0,0.6,0.1,0.8v0.3
		c0.1,0.7,0.2,1.3,0.3,1.7c0-0.1,0.1-0.2,0.1-0.2l0.2-0.8l0.1-0.2l0.3-0.9c0.6-1.7,1.5-3.3,2.8-4.7c2.7-3,5.6-4.6,8.4-6.2
		c2.1-1.2,4.2-2.4,6.1-4.1C65,6.5,66,4.3,66.5,3l0.2-0.4h-0.1C65.5,2.4,63.6,2.4,62.2,2.5z"/>
	<path class="st0" d="M67.3,12.1c-5.4,1-10,2.8-13.8,5.3c-4.7,3.1-7.1,6.1-8.2,10.3c0,0.1-0.1,0.2-0.1,0.4c0,0.7,0.3,1.6,0.8,2.8
		c0.3,0.6,0.6,1.1,0.9,1.5c0,0,0.1,0.1,0.1,0.1v-0.2c0.1-0.4,0.2-1,0.5-1.8c0.6-1.6,2-5.3,8.3-8.4c3.5-1.7,7.7-2.8,12.7-3.4
		c5.9-0.7,10.9-0.8,14.7-0.4h0.1v-0.1c-0.4-1.8-1.2-4-2-5.6l-0.6-1l-0.2-0.3l-0.1-0.1l-0.1-0.1l-0.2-0.1c-0.5-0.1-1.7-0.1-3.3-0.1
		C74.1,11,70.9,11.4,67.3,12.1z M83.3,18.3C83.4,18.3,83.4,18.3,83.3,18.3C83.4,18.3,83.4,18.3,83.3,18.3z M22.2,50.7
		c0,0.9,0.3,1.7,0.9,2.3c0.7,0.7,1.3,0.9,3.1,1.7c2.3,1.1,3.5,1.6,3.5,3.3c0,1.6-1.3,2.8-3.1,2.8c-1.2,0-2.4-0.4-3.2-1
		c-0.7-0.6-1.1-1.3-1.3-2.3L22,57.3c-0.4,0-0.4,0.3-0.4,0.3c0,0.6,0.2,2.6,0.4,3.5c0,0.1,0.1,0.3,0.1,0.3h0.1l0.2-0.1l0.4-0.2
		l0.7,0.1c0.7,0.1,1.8,0.3,3.1,0.3c2.2,0,3.3-0.5,3.9-1c0.9-0.7,1.4-1.7,1.4-2.9c0-2.5-2-3.4-3.9-4.2c-0.1,0-0.1-0.1-0.1-0.1
		c-2.7-1.2-3.7-1.6-3.7-3.4c0-1.6,1.1-2.7,2.9-2.7c0.9,0,1.7,0.2,2.3,0.7c0.8,0.5,1.1,1.3,1.3,2l0.1,0.3c0.2,0,0.4-0.1,0.4-0.2
		l-0.1-1v-0.2c-0.1-0.5-0.1-1.4-0.1-1.7v-0.3l-0.2,0.1c0.1,0-0.3,0.1-0.3,0.1l-0.5-0.1L29,46.8c-0.7-0.1-1.4-0.1-2-0.1
		C24.1,46.8,22.2,48.3,22.2,50.7L22.2,50.7z M44.6,52c-0.1,0-0.1,0.2-0.1,0.2v0.2h0.2c0.4,0,1.2,0.1,1.2,0.9c0,0.5-0.3,1.2-0.6,1.8
		L45.3,55l-1.9,4.3c0,0.1-0.1,0.1-0.2,0.1c-0.1,0-0.1-0.1-0.2-0.1c-0.3-0.9-1.9-5.8-1.9-6.2c0-0.7,0.5-0.7,1.2-0.8l0.2-0.1V52h-4.3
		C38,52,38,52,38,52.2v0.1c0.5,0.1,0.7,0.1,0.9,0.4c0.2,0.3,0.5,1,1,2.1v0.1l-2.1,4.5c0,0.1-0.1,0.1-0.2,0.1c-0.1,0-0.1-0.1-0.2-0.1
		l-1.1-2.9l-0.4-0.9l-0.1-0.3c-0.4-0.9-0.7-1.8-0.7-2.2c0-0.5,0.3-0.8,1.1-0.8h0.2v-0.1v-0.1V52h-4.1v0.1c0,0.2,0,0.2,0.2,0.3
		c0.3,0.1,0.5,0.4,0.9,1.2c0.8,1.8,2.1,5.3,3,7.6c0,0.1,0.2,0.4,0.2,0.4l0.8-0.1h0.1l0.1-0.2c0.7-1.7,1.1-2.4,2.6-5.4
		c0.1-0.1,0.1-0.1,0.2-0.1c0.1,0,0.1,0.1,0.2,0.1c0.9,2.4,1.4,4.3,1.7,5.2c0.1,0.2,0.1,0.4,0.2,0.4l0.6-0.1c0.2,0,0.3-0.1,0.4-0.2
		l0.6-1.3l0.2-0.4c0.7-1.5,1.5-3.2,2-4.2c0.7-1.3,1.4-2.6,2-2.9c0.2-0.1,0.2-0.1,0.2-0.3v-0.1h-2.9L44.6,52z M50.4,47.3
		c0,0.5,0.6,1,1,1c0.5,0,1.1-0.6,1.1-1.1c0-0.5-0.6-1-1-1C51,46.2,50.4,46.7,50.4,47.3z M51.6,51.7l-1.4,0.6l-1,0.5l-0.1,0.1
		C49,53,49,53,49,53.1v0.1l0.3,0.1c1.2,0.2,1.2,0.6,1.2,3c0,1.4,0,3.2-0.2,3.8c-0.2,0.6-0.5,0.8-1.3,0.9c-0.3,0.1-0.3,0.1-0.3,0.2
		v0.1h0.9l1.7-0.1l1.9,0.1h0.7v-0.3l-0.2-0.1c-0.9-0.1-1.4-0.1-1.6-0.9C52,59.7,52,58.4,52,56.3l0.1-3.3c0-0.1,0.1-1.4,0.1-1.4
		c0-0.1-0.1-0.1-0.1-0.1C51.9,51.6,51.8,51.6,51.6,51.7z M55.5,54.3c0,1.5,1.4,2.2,2.6,2.8c1.4,0.7,2.4,1.2,2.4,2.3
		c0,0.8-0.5,1.7-1.9,1.7c-0.4,0-2.4-0.1-3-2.2l-0.1-0.3c-0.2,0-0.3,0.1-0.3,0.1l0.1,0.5l0.1,0.9v1.2h0.3l0.3,0.1l0.3,0.1
		c0.4,0.1,1.2,0.2,2,0.2c0.7,0,3.9-0.1,3.9-2.7c0-1.6-1.5-2.3-2.7-2.9c-1.7-0.8-2.5-1.2-2.5-2.2c0-0.3,0.1-1.5,1.7-1.5
		c1.1,0,1.9,0.6,2.5,1.7l0.1,0.2c0.3,0,0.3-0.1,0.3-0.1V54l-0.1-1.4l-0.1-0.6c0-0.1-0.1-0.3-0.1-0.3l-0.2,0.1H61l-0.4-0.1
		c-0.4-0.1-1-0.2-1.6-0.2C55.6,51.7,55.5,53.9,55.5,54.3L55.5,54.3z M63.9,54.3c0,1.5,1.4,2.2,2.6,2.8c1.4,0.7,2.4,1.2,2.4,2.3
		c0,0.8-0.5,1.7-1.9,1.7c-0.4,0-2.4-0.1-3-2.2l-0.1-0.3c-0.2,0-0.3,0.1-0.3,0.1l0.1,0.5l0.1,0.9v1.2H64l0.3,0.1l0.3,0.1
		c0.4,0.1,1.2,0.2,2,0.2c0.7,0,3.9-0.1,3.9-2.7c0-1.6-1.5-2.3-2.7-2.9c-1.7-0.8-2.5-1.2-2.5-2.2c0-0.3,0.1-1.5,1.7-1.5
		c1.1,0,1.9,0.6,2.5,1.7l0.1,0.2c0.3,0,0.3-0.1,0.3-0.1V54l-0.1-1.4l-0.1-0.6c0-0.1-0.1-0.3-0.1-0.3l-0.2,0.1h-0.2l-0.4-0.1
		c-0.4-0.1-1-0.2-1.6-0.2C64.1,51.7,63.9,53.9,63.9,54.3L63.9,54.3z M77.1,47.1l-1.7,0.1l-2.7-0.1h-0.1v0.3c0.1,0.1,0.3,0.1,0.5,0.1
		c1.3,0.2,1.4,0.8,1.4,2.3V53c0,1.9,0,4.7-0.2,6.1c-0.1,0.8-0.2,1.7-1.7,1.8L72.4,61v0.3h0.4c0.5-0.1,1.7-0.1,4.8-0.1
		c3.2,0,4.2,0.1,4.7,0.1h0.4c0.1,0,0.2-0.1,0.3-0.5c0.5-1.8,0.6-2.8,0.6-3.1c0-0.1,0-0.1-0.4-0.1c-0.1,0-0.1,0.2-0.1,0.4
		c-0.2,0.7-0.6,1.6-1.4,2c-0.8,0.5-2.5,0.5-3.9,0.5c-0.9,0-1.4,0-1.6-0.7c-0.2-0.7-0.2-3.2-0.2-5.2c0-1.2,0-5.1,0.2-6
		c0.2-0.9,0.7-1.1,1.7-1.2l0.3-0.1v-0.2c0-0.1,0-0.1-0.1-0.1C78.2,47.1,77.1,47.1,77.1,47.1z M86.6,47.3c0,0.5,0.6,1,1,1
		c0.5,0,1.1-0.6,1.1-1.1c0-0.5-0.6-1-1-1C87.2,46.2,86.6,46.7,86.6,47.3z M87.8,51.7l-1.4,0.6l-1,0.5l-0.1,0.1
		c-0.2,0.1-0.2,0.1-0.2,0.2v0.1l0.3,0.1c1.2,0.2,1.2,0.6,1.2,3c0,1.4,0,3.2-0.2,3.8c-0.2,0.6-0.5,0.8-1.3,0.9
		c-0.3,0.1-0.3,0.1-0.3,0.2v0.1h0.9l1.7-0.1l1.9,0.1h0.7v-0.3l-0.2-0.1c-0.9-0.1-1.4-0.1-1.6-0.9c-0.1-0.4-0.1-1.6-0.1-3.7l0.1-3.3
		l0.1-1.4c0-0.1-0.1-0.1-0.1-0.1C88.1,51.6,87.9,51.6,87.8,51.7z M93.9,47.8c-1,1.3-1,2.2-1.1,4.1c0,0.1-0.1,0.1-0.1,0.2l-1.2,0.6
		l-0.1,0.3V53l1.2-0.1c0.1,0,0.1,0,0.1,0.1c0.1,0.1,0.1,0.1,0.1,0.1l-0.1,6.2c-0.1,1.3-0.2,1.6-1.3,1.8l-0.2,0.1v0.3l0.7-0.1
		l1.4-0.1l2.3,0.1h0.8c0.3,0,0.3,0,0.3-0.2V61h-0.2c-1.6,0-2.1-0.2-2.1-1.6l-0.1-6.4c0-0.1,0-0.1,0.1-0.1c0.1-0.1,0.1-0.1,0.1-0.1
		h3.1c0.2,0,0.2,0,0.2-0.4v-0.4h-3.2c-0.1,0-0.2-0.1-0.2-0.2c0-3.5,0.1-5.2,2.7-5.2c1.2,0,1.8,0.4,2.1,0.7l0.2,0.2
		c0.1,0.1,0.2,0.2,0.3,0.2c0.2,0,1.1-0.4,1.1-0.8c0-0.6-0.9-1.3-2.6-1.3C96.3,45.5,94.8,46.6,93.9,47.8L93.9,47.8z M98.6,57.1
		c0,1,0.3,4.4,3.8,4.4c1.6,0,3.1-0.8,3.8-1.4c0.2-0.2,0.2-0.2,0.2-0.3l-0.1-0.2c0,0-0.1-0.1-0.1-0.1c-1.2,0.9-2.5,1-2.9,1
		c-2.8,0-3.2-2.8-3.2-3.9c0-0.1,0.1-0.2,0.1-0.2c1.6-0.4,3.8-0.8,6-1.1v-0.1c0-0.2-0.1-0.6-0.2-1.1c-0.5-1.8-2-2.5-3.2-2.5
		C100.9,51.7,98.6,53.7,98.6,57.1L98.6,57.1z M100.3,55.9c-0.1-0.1-0.1-0.1-0.1-0.1c0-1.8,0.7-3.6,2.1-3.6c1.2,0,2.2,1.4,2.2,2.2
		c0,0.4-0.3,0.6-0.9,0.7c-1.6,0.4-2.2,0.6-3.2,0.7C100.4,56,100.4,56,100.3,55.9L100.3,55.9z"/>
	<path class="st1" d="M83.7,24.2c0.2-1.3,0.1-2.8-0.1-4.2c0-0.1-0.1-0.2-0.1-0.2c-0.1-0.1-0.1-0.1-0.2-0.1c-1.2-0.1-2.6-0.2-4-0.1
		c-8.5,0.1-19.4,2.2-24.3,6.9c-2.2,2.2-3.4,5.1-2.5,8.6c0.9,4,4.3,5.8,6.3,6.3c1.1,0.3,1.8,0.2,1.8,0.2s0.2,0,0.2-0.1
		c0-0.1-0.1-0.2-0.1-0.2s-0.4-0.3-0.6-0.6c-0.2-0.3-0.4-0.4-0.5-0.7c-0.3-0.5-0.7-1.2-0.9-2.1c-0.6-1.9,0.1-3.8,1.5-5.3
		c2.4-2.5,7.8-4.2,17-4.1l5.2,0.1c0,0,0.2,0,0.2-0.1c0.1-0.1,0.1-0.1,0.1-0.2C83.1,27.7,83.6,26.1,83.7,24.2z M66.6,2.5
		c-1.1-0.2-3-0.3-4.4-0.1C61,2.5,59.6,2.7,58.7,3c-0.1,0.1-0.2,0.1-0.2,0.1c-0.1,0-0.1,0.1-0.1,0.2c-0.8,2.6-4.8,5.5-5.9,6.3
		c-1.4,1.2-2.8,2.3-4,3.6c-1,1.1-2.1,2.5-2.9,3.8c-0.8,1.4-1.2,2.7-1.4,4c-0.2,1.1-0.2,2.2-0.2,3v0.3c0.1,1.2,0.3,1.7,0.4,1.8
		c0.1,0.1,0.1,0.2,0.2,0.2s0.1-0.2,0.1-0.3c0.1-0.1,0.2-0.6,0.3-0.9c0.2-0.5,0.2-0.7,0.4-1.1c0.4-1.2,1.2-2.9,2.8-4.6
		C52.9,14,58.2,13,62.6,9c2.8-2.6,3.6-4.9,4.2-6.2c0.1-0.1,0.1-0.2,0.1-0.2C66.8,2.5,66.7,2.5,66.6,2.5z"/>
	<path class="st1" d="M83.5,18.2c-0.4-1.7-1.1-4-2.1-5.6c-0.2-0.4-0.6-1-0.8-1.3c-0.1-0.2-0.1-0.1-0.1-0.2C80.4,11,80.2,11,80.2,11
		c-0.6-0.1-1.8-0.1-3.3-0.1c-2.7-0.1-5.9,0.3-9.5,1c-5.4,1-10.1,2.9-13.8,5.3c-4.1,2.7-7.1,5.6-8.2,10.4c-0.2,0.8,0.3,2.1,0.8,3.2
		c0.3,0.7,0.7,1.2,1,1.7c0.1,0.1,0.1,0.2,0.2,0.1c0.1,0,0.1-0.1,0.1-0.2c0.1-0.4,0.2-1,0.5-1.9c0.6-1.7,2.1-5.3,8.2-8.3
		c4.1-2,8.5-2.9,12.6-3.4c6.4-0.8,11.3-0.8,14.7-0.4c0.1,0,0.2,0.1,0.2,0C83.5,18.4,83.5,18.3,83.5,18.2L83.5,18.2z"/>
	<path class="st0" d="M80,21.2h-1.8v2h-2V25h2v2H80v-2H82v-1.8H80V21.2z"/>
	<path d="M30.3,60.6c-0.7,0.5-1.8,1-4,1c-1.8,0-3.4-0.4-3.7-0.4c-0.3,0-0.3,0.2-0.6,0.2c-0.2,0-0.3-0.1-0.3-0.4
		c-0.2-1-0.4-2.9-0.4-3.5c0-0.2,0.2-0.5,0.6-0.5c0.2,0,0.2,0.2,0.2,0.4c0.2,0.9,0.6,1.7,1.3,2.2c0.8,0.6,1.9,0.9,3.1,0.9
		c1.7,0,3-1.1,3-2.7c0-1.6-1.1-2.1-3.4-3.2c-1.8-0.8-2.4-1.1-3.1-1.8c-0.8-0.8-1-1.7-1-2.4c0-2.3,1.7-4,5-4c0.6,0,1.4,0.1,2,0.1
		c0.6,0.1,1.1,0.2,1.2,0.2c0.1,0,0.2-0.1,0.2-0.1h0.2c0.2,0,0.2,0.1,0.2,0.2c0,0.2-0.1,1.3,0,1.9c0.1,0.5,0.1,1.1,0.1,1.2
		c0,0.2-0.3,0.3-0.5,0.3c-0.2,0-0.2-0.1-0.3-0.4c-0.2-0.7-0.5-1.4-1.2-1.9c-0.6-0.4-1.4-0.6-2.2-0.6c-1.5,0-2.7,0.9-2.7,2.5
		c0,1.7,1.1,2.1,3.7,3.3c1.8,0.8,4,1.7,4,4.3C31.8,59,31.1,60.1,30.3,60.6z M47.9,52.4c-0.5,0.3-1.3,1.7-1.9,2.8
		c-0.6,1.1-1.5,3.1-2.2,4.6c-0.2,0.4-0.5,1.2-0.6,1.3c-0.1,0.2-0.3,0.3-0.5,0.3l-0.6,0.1c-0.2,0-0.2,0-0.3-0.5c-0.3-1-0.9-3-1.7-5.2
		c-1.5,3-1.9,3.7-2.6,5.4c-0.1,0.3-0.1,0.3-0.3,0.3l-0.8,0.1c-0.1,0-0.1-0.1-0.3-0.4c-0.8-2.2-2.1-5.7-3-7.6c-0.4-0.7-0.6-1-0.8-1.1
		c-0.3-0.2-0.3-0.2-0.3-0.4c0-0.2,0.1-0.3,0.3-0.3h4c0.1,0,0.1,0.2,0.1,0.3c0,0.3,0,0.3-0.3,0.3c-0.7,0.1-0.9,0.3-0.9,0.7
		c0,0.4,0.4,1.4,0.7,2.4c0.4,0.9,0.7,1.9,1.5,3.8c0.4-0.9,1.7-3.5,2.1-4.5c-0.4-1.1-0.7-1.8-0.9-2.1c-0.2-0.2-0.4-0.3-0.8-0.3
		c-0.2,0-0.2-0.1-0.2-0.3c0-0.2,0.1-0.3,0.3-0.3h4.2c0.2,0,0.3,0.1,0.3,0.3c0,0.3,0,0.3-0.3,0.4c-0.7,0.1-1.1,0.1-1.1,0.6
		c0,0.4,1.5,5,1.9,6.2c0.7-1.5,1.5-3.2,1.9-4.3c0.3-0.6,0.6-1.4,0.6-1.9c0-0.6-0.6-0.7-1.1-0.7c-0.3,0-0.3,0-0.3-0.3
		c0-0.2,0-0.3,0.2-0.3h3.3c0.2,0,0.2,0.1,0.2,0.3C48.1,52.3,48,52.3,47.9,52.4L47.9,52.4z M53.8,61.4c-0.3,0-1.3-0.1-2.5-0.1
		c-0.9,0-2.1,0.1-2.6,0.1c-0.2,0-0.2-0.1-0.2-0.3c0-0.3,0.1-0.3,0.4-0.4c0.8-0.2,1-0.3,1.2-0.8c0.2-0.6,0.2-2.5,0.2-3.8
		c0-2.3,0-2.7-1.1-2.8c-0.4-0.1-0.4-0.1-0.4-0.3s0.1-0.3,0.3-0.4c0.4-0.2,1.8-0.9,2.4-1.1c0.2-0.1,0.4-0.2,0.6-0.2s0.2,0.1,0.2,0.2
		c0,0.3-0.1,1-0.1,1.4c0,0.5-0.1,1.5-0.1,3.3c0,0.7,0,3.2,0.1,3.7c0.1,0.7,0.6,0.7,1.4,0.8c0.3,0,0.4,0.1,0.4,0.3
		C54.1,61.4,54,61.4,53.8,61.4z M51.4,48.4c-0.5,0-1.1-0.6-1.1-1.1c0-0.6,0.7-1.2,1.2-1.2c0.5,0,1.2,0.6,1.2,1.2
		C52.6,47.8,52,48.4,51.4,48.4z M58.1,61.6c-1,0-1.7-0.2-2.1-0.2c-0.2,0-0.4-0.1-0.5-0.1c-0.1,0-0.2,0.1-0.3,0.1
		c-0.2,0-0.2-0.1-0.2-0.3V60c0-0.4-0.1-1.2-0.1-1.4s0.2-0.2,0.4-0.2c0.2,0,0.2,0.1,0.3,0.4c0.5,1.7,2,2.1,2.8,2.1
		c1.5,0,1.8-1,1.8-1.5c0-1-0.8-1.5-2.3-2.1c-1.3-0.6-2.7-1.3-2.7-2.9c0-1.1,0.7-2.7,3.7-2.7c0.8,0,1.8,0.2,1.9,0.2
		c0.1,0,0.2-0.1,0.3-0.1c0.2,0,0.2,0.1,0.2,0.4c0.1,0.5,0.2,1.5,0.2,1.9c0,0.2-0.1,0.3-0.5,0.3c-0.1,0-0.2-0.1-0.3-0.3
		c-0.3-0.6-0.9-1.6-2.3-1.6c-1.4,0-1.6,1-1.6,1.4c0,0.9,0.6,1.3,2.3,2.1c1.2,0.6,2.8,1.3,2.8,3C62.2,61.2,59.4,61.6,58.1,61.6
		L58.1,61.6z M66.6,61.6c-1,0-1.7-0.2-2.1-0.2c-0.2,0-0.4-0.1-0.5-0.1s-0.2,0.1-0.3,0.1c-0.2,0-0.2-0.1-0.2-0.3V60
		c0-0.4-0.1-1.2-0.1-1.4s0.2-0.2,0.4-0.2c0.2,0,0.2,0.1,0.3,0.4c0.5,1.7,2,2.1,2.8,2.1c1.5,0,1.8-1,1.8-1.5c0-1-0.8-1.5-2.3-2.1
		c-1.3-0.6-2.7-1.3-2.7-2.9c0-1.1,0.7-2.7,3.7-2.7c0.8,0,1.8,0.2,1.9,0.2c0.1,0,0.2-0.1,0.3-0.1c0.2,0,0.2,0.1,0.2,0.4
		c0.1,0.5,0.2,1.5,0.2,1.9c0,0.2-0.1,0.3-0.5,0.3c-0.1,0-0.2-0.1-0.3-0.3c-0.3-0.6-0.9-1.6-2.3-1.6c-1.4,0-1.6,1-1.6,1.4
		c0,0.9,0.6,1.3,2.3,2.1c1.2,0.6,2.8,1.3,2.8,3C70.7,61.2,67.9,61.6,66.6,61.6L66.6,61.6z M83.3,60.8c-0.2,0.5-0.2,0.7-0.4,0.7
		c-0.5,0-0.9-0.1-5.2-0.1c-3.9,0-4.8,0.1-5.1,0.1c-0.2,0-0.3-0.1-0.3-0.3c0-0.3,0-0.3,0.4-0.4c1.3-0.1,1.4-0.9,1.5-1.7
		c0.2-1.4,0.2-4.3,0.2-6.1v-3.3c0-1.5-0.1-2-1.3-2.1c-0.5-0.1-0.6-0.1-0.6-0.3c0-0.3,0.1-0.4,0.3-0.4c0.7,0,2,0.1,2.7,0.1
		c0.9,0,2.3-0.1,2.9-0.1c0.2,0,0.3,0.1,0.3,0.3c0,0.3,0,0.4-0.4,0.4c-1,0.1-1.4,0.3-1.5,1.1c-0.2,0.9-0.2,4.5-0.2,6
		c0,2.1,0,4.5,0.2,5.2c0.1,0.6,0.5,0.6,1.4,0.6c1.4,0,3,0,3.8-0.5c0.6-0.4,1-1.1,1.3-1.9c0.1-0.3,0.2-0.5,0.3-0.5
		c0.4,0,0.5,0.1,0.5,0.3C83.9,58.1,83.7,59.1,83.3,60.8z M90,61.4c-0.3,0-1.3-0.1-2.5-0.1c-0.9,0-2.1,0.1-2.6,0.1
		c-0.2,0-0.2-0.1-0.2-0.3c0-0.3,0.1-0.3,0.4-0.4c0.8-0.2,1-0.3,1.2-0.8c0.2-0.6,0.2-2.5,0.2-3.8c0-2.3,0-2.7-1.1-2.8
		C85,53.4,85,53.4,85,53.1s0.1-0.3,0.3-0.4c0.4-0.2,1.8-0.9,2.4-1.1c0.2-0.1,0.4-0.2,0.6-0.2c0.2,0,0.2,0.1,0.2,0.2
		c0,0.3-0.1,1-0.1,1.4c0,0.5-0.1,1.5-0.1,3.3c0,0.7,0,3.2,0.1,3.7c0.1,0.7,0.6,0.7,1.4,0.8c0.3,0,0.4,0.1,0.4,0.3
		C90.2,61.4,90.2,61.4,90,61.4L90,61.4z M87.6,48.4c-0.5,0-1.1-0.6-1.1-1.1c0-0.6,0.7-1.2,1.2-1.2s1.2,0.6,1.2,1.2
		C88.8,47.8,88.2,48.4,87.6,48.4z M99.8,47.8c-0.2,0-0.3-0.2-0.6-0.4c-0.3-0.3-0.9-0.7-2-0.7c-2.5,0-2.6,1.5-2.6,5.1h3.2
		c0.2,0,0.2,0.1,0.2,0.6c0,0.5,0,0.6-0.3,0.6h-3.1c0,2.1,0,5,0.1,6.4c0.1,1.3,0.5,1.5,2,1.5c0.3,0,0.3,0.1,0.3,0.3
		c0,0.3-0.1,0.4-0.5,0.4c-0.4,0-2-0.1-3.1-0.1c-0.8,0-1.7,0.1-2.1,0.1c-0.1,0-0.2-0.2-0.2-0.3c0-0.3,0-0.3,0.3-0.4
		c1-0.2,1.1-0.4,1.2-1.6c0.1-1.5,0.1-4.5,0.1-6.2h-1.2c-0.2,0-0.2-0.1-0.2-0.2c0-0.3,0-0.3,0.1-0.4l1.2-0.6c0.1-2,0.1-2.9,1.1-4.2
		c1-1.3,2.7-2.3,4.5-2.3c1.7,0,2.7,0.8,2.7,1.5C101,47.3,99.9,47.8,99.8,47.8z"/>
	<path d="M106.4,60.2c-0.9,0.8-2.3,1.5-3.9,1.5c-3.3,0-4-2.8-4-4.5c0-3.6,2.4-5.5,4.6-5.5c1.1,0,2.8,0.6,3.4,2.6
		c0.2,0.6,0.3,1.2,0.2,1.3c-2,0.3-4.1,0.7-6.1,1.1c0.1,1.6,0.7,3.8,3.1,3.8c0.7,0,1.9-0.2,2.9-1c0.1-0.1,0.1-0.1,0.2,0
		c0,0.2,0.1,0.3,0.1,0.4C106.6,60,106.6,60,106.4,60.2L106.4,60.2z M102.4,52.4c-1.3,0-1.9,1.7-2,3.4c1-0.2,1.5-0.3,3.2-0.7
		c0.7-0.2,0.8-0.4,0.8-0.6C104.5,53.7,103.5,52.4,102.4,52.4L102.4,52.4z"/>
</g>
</svg>
