<?xml version="1.0" encoding="utf-8"?>
<!-- Generator: Adobe Illustrator 28.3.0, SVG Export Plug-In . SVG Version: 6.00 Build 0)  -->
<svg version="1.1" id="svg2675" xmlns:svg="http://www.w3.org/2000/svg"
	 xmlns="http://www.w3.org/2000/svg" xmlns:xlink="http://www.w3.org/1999/xlink" x="0px" y="0px" viewBox="0 0 128 64"
	 style="enable-background:new 0 0 128 64;" xml:space="preserve">
<style type="text/css">
	.st0{fill:#0074BC;}
	.st1{clip-path:url(#SVGID_00000111912371823391128010000011678038422063074722_);}
	.st2{fill:#00A895;}
</style>
<g id="layer1" transform="translate(-192.68716,-497.40906)">
	<path id="path2486" class="st0" d="M315.7,515.4c0,7.5-6.1,13.5-13.5,13.5v3.9c9.6,0,17.4-7.8,17.3-17.4H315.7z M206.4,523.7
		c-2.8,0-4.8,2.3-4.8,4.8c0,2.6,2,4.9,4.8,4.9c2.8,0,4.9-2.3,4.9-4.9C211.3,525.9,209.2,523.7,206.4,523.7z M226.4,523.7
		c-1.7,0-2.6,1.4-2.6,2.6c0,0.6,0.2,1.3,0.6,1.7c0.4,0.4,0.7,0.5,2,1c0.7,0.3,1.5,0.5,1.5,1.6c0.1,0.9-0.6,1.5-1.5,1.5
		c-1.3,0.1-1.5-1.3-1.5-1.6h-1.4c0,2,1.6,2.9,2.8,2.9c1.7,0,2.9-1.2,2.8-2.8c0.1-2.3-1.6-2.6-2.8-3.1c-0.4-0.2-1.2-0.4-1.2-1.4
		c0-0.5,0.4-1.2,1.2-1.2c0.6,0,1.3,0.3,1.4,1.4h1.3C229.1,524.7,228,523.7,226.4,523.7z M244.8,523.7c-2.9,0-4.9,2.3-4.9,4.8
		c0,2.6,2.1,4.9,4.9,4.9c2.7,0,4.8-2.3,4.8-4.9C249.6,525.9,247.5,523.7,244.8,523.7z M193.1,523.8l6.3,9.3h1.3v-9.3h-1.3v7.1
		l-4.8-7.1H193.1z M212.1,523.8v9.3h4.3v-1.2h-2.9v-8.1H212.1z M217.2,523.8v9.3h1.4v-4.7v-4.7H217.2z M218.5,528.5l3.6,4.7h1.6
		l-3.6-4.7l3.6-4.7h-1.6L218.5,528.5z M229.2,523.8l2.6,9.3h1.2l1.7-6.5l1.7,6.5h1.2l2.6-9.3h-1.4l-1.8,7l-1.8-7h-1l-1.8,7l-1.7-7
		H229.2z M250.4,523.8v9.3h1.4v-4.1h3.9v4.1h1.4v-9.3h-1.4v4.1h-3.9v-4.1H250.4z M258.4,523.8v9.3h4.2v-1.2h-2.8v-8.1H258.4z
		 M266.4,523.8v9.3h2.8c2.6,0,3.1-1.7,3.1-2.7c0-1.4-1-2-1.4-2.2c0.3-0.3,0.8-0.8,0.9-1.8c0-0.6-0.3-2.5-2.9-2.6H266.4z
		 M273.1,523.8v6.4c0,1,0.3,1.8,0.9,2.3c0.6,0.5,1.4,0.8,2.2,0.9c0.9,0,1.6-0.4,2.2-0.9c0.6-0.5,0.9-1.3,1-2.3v-6.4h-1.5v6.3
		c0.1,1.8-1.2,2-1.7,2c-0.5,0.1-1.7-0.2-1.7-2v-6.3H273.1z M280.6,523.8v9.3h1.4V526l4.5,7.1h1.5v-9.3h-1.4v7.1l-4.5-7.1H280.6z
		 M289.3,523.8v9.3h2.9c1.3,0,2.6-0.3,3.6-1.4c0.8-0.7,1.2-2,1.2-3.3c0-0.8-0.3-2-1-2.9c-0.7-0.9-1.8-1.7-3.8-1.7H289.3z
		 M206.4,524.9c2.4,0,3.5,2,3.6,3.7c0,1.4-1.1,3.5-3.6,3.4c-2.3,0.1-3.4-2-3.4-3.6C202.9,527,204,524.9,206.4,524.9z M244.8,524.9
		c2.3,0,3.4,2,3.4,3.7c0,1.4-1.1,3.5-3.4,3.4c-2.4,0.1-3.5-2-3.6-3.6C241.3,527,242.3,524.9,244.8,524.9z M269,525.1
		c0.4,0,1.4,0.1,1.5,1.2c0,0.6-0.3,1.3-1.5,1.4h-1.1v-2.6h1C268.9,525.1,268.9,525.1,269,525.1z M290.7,525.1h1.6
		c2.6-0.1,3.4,2,3.4,3.3c0,2.6-1.8,3.4-3.4,3.4h-1.6V525.1z M267.9,528.9h1.2c0.5,0,1.1,0,1.6,0.6c0.1,0.2,0.3,0.5,0.2,0.9
		c0,0.5-0.3,1.5-1.6,1.5h-1.5V528.9z M223.5,536.3c-0.5,0-0.9,0.4-0.9,0.9c0,0.7,0.6,0.8,0.9,0.9c0.2,0.1,0.7,0.2,0.7,0.7
		c0,0.4-0.3,0.7-0.7,0.7c-0.4,0-0.7-0.3-0.7-0.7h-0.3c0,0.7,0.6,1,1,1c0.6,0,1-0.5,1-1c0-0.1,0-0.7-0.8-1c-0.4-0.1-0.8-0.2-0.8-0.6
		c0-0.3,0.2-0.6,0.6-0.6c0.3,0,0.6,0.3,0.6,0.6h0.3C224.4,536.7,224,536.3,223.5,536.3z M241.6,536.3c-0.5,0-0.9,0.4-0.9,0.9
		c0,0.7,0.6,0.8,0.9,0.9c0.2,0.1,0.7,0.2,0.7,0.7c0,0.4-0.3,0.7-0.7,0.7c-0.4,0-0.7-0.3-0.7-0.7h-0.3c0,0.7,0.6,1,1,1
		c0.6,0,1-0.5,1-1c0-0.1,0-0.7-0.8-1c-0.4-0.1-0.8-0.2-0.8-0.6c0-0.3,0.2-0.6,0.6-0.6c0.3,0,0.6,0.3,0.6,0.6h0.3
		C242.6,536.7,242.2,536.3,241.6,536.3z M249.5,536.3c-0.9,0-1.7,0.7-1.7,1.7c0,1,0.8,1.7,1.7,1.7c0.5,0,1.2-0.3,1.5-0.9h-0.4
		c-0.5,0.6-1,0.6-1.2,0.6c-0.7,0-1.4-0.6-1.4-1.4c0-0.7,0.6-1.4,1.4-1.4c0.2,0,0.8,0.1,1.1,0.6h0.4
		C250.9,536.8,250.4,536.3,249.5,536.3z M279.4,536.3c-1.1,0-1.8,0.9-1.8,1.7c0,0.9,0.8,1.7,1.8,1.7c0.8,0,1.7-0.6,1.7-1.6h-2.2v0.3
		h1.8c-0.1,0.5-0.6,1-1.3,1c-0.8,0-1.5-0.7-1.5-1.4s0.6-1.4,1.5-1.4c0.6,0,1,0.3,1.2,0.6h0.4C280.8,536.9,280.3,536.3,279.4,536.3z
		 M293.8,536.3c-1.1,0-1.8,0.9-1.8,1.7c0,0.9,0.8,1.7,1.8,1.7c0.8,0,1.7-0.6,1.7-1.6h-2.2v0.3h1.9c-0.1,0.5-0.6,1-1.3,1
		c-0.8,0-1.5-0.7-1.5-1.4s0.6-1.4,1.4-1.4c0.5,0,1,0.3,1.2,0.6h0.4C295.2,536.9,294.6,536.3,293.8,536.3z M199.7,536.3v3.3h1.7v-0.3
		h-1.4v-3H199.7z M203.5,536.3v3.3h1.8v-0.3h-1.5v-1.2h1.4v-0.3h-1.4v-1.2h1.5v-0.3H203.5z M208,536.3v3.3h0.8c0.4,0,0.6,0,0.9-0.2
		c0.2-0.2,0.4-0.5,0.4-0.8c0-0.4-0.2-0.7-0.6-0.8c0.1-0.1,0.4-0.3,0.4-0.7c0-0.1,0-0.9-1.1-0.9H208z M212.7,536.3v3.3h1.8v-0.3H213
		v-1.2h1.4v-0.3H213v-1.2h1.5v-0.3H212.7z M217.2,536.3v3.3h0.3v-2.9l2,2.9h0.3v-3.3h-0.3v2.7h0l-1.9-2.7H217.2z M226.3,536.3
		l1.4,3.3h0.3l1.4-3.3H229l-1.2,2.9l-1.2-2.9H226.3z M231.5,536.3v3.3h1.8v-0.3h-1.5v-1.2h1.4v-0.3h-1.4v-1.2h1.5v-0.3H231.5z
		 M236,536.3v3.3h0.3v-3h0.6c0.3,0,0.4,0,0.6,0.1c0.2,0.1,0.4,0.4,0.4,0.6c0,0.3-0.2,0.6-0.5,0.7c-0.1,0-0.3,0-0.7,0l1.1,1.5h0.4
		l-0.9-1.2c0.6,0,1-0.5,1-1c0-0.4-0.2-0.8-0.6-0.9c-0.2-0.1-0.4-0.1-0.8-0.1H236z M245.2,536.3v3.3h0.3v-3.3H245.2z M253.2,536.3
		v3.3h0.3v-1.5h1.7v1.5h0.3v-3.3h-0.3v1.5h-1.7v-1.5H253.2z M258.4,536.3v3.3h1.8v-0.3h-1.5v-1.2h1.4v-0.3h-1.4v-1.2h1.5v-0.3H258.4
		z M262.9,536.3v3.3h0.3v-3h0.6c0.3,0,0.5,0,0.7,0.1c0.2,0.1,0.4,0.4,0.4,0.6c0,0.3-0.2,0.6-0.5,0.7c-0.1,0-0.3,0-0.7,0l1.1,1.5h0.4
		l-0.9-1.2c0.6,0,1-0.5,1-1c0-0.4-0.2-0.8-0.6-0.9c-0.2-0.1-0.4-0.1-0.8-0.1H262.9z M267.8,536.3v2.1c0,0.3,0,0.5,0.1,0.7
		c0.2,0.5,0.7,0.6,1,0.6c0.3,0,0.8-0.1,1-0.6c0.1-0.2,0.1-0.4,0.1-0.7v-2.1h-0.3v2.1c0,0.2,0,0.5-0.1,0.6c-0.2,0.4-0.5,0.4-0.7,0.4
		c-0.2,0-0.5,0-0.7-0.4c-0.1-0.1-0.1-0.4-0.1-0.6v-2.1H267.8z M272.8,536.3v3.3h0.3v-2.9h0l2,2.9h0.3v-3.3h-0.3v2.7h0l-1.8-2.7
		H272.8z M208.4,536.6h0.4c0.3,0,0.5,0.1,0.7,0.2c0.1,0.1,0.1,0.2,0.1,0.4c0,0.2-0.1,0.4-0.3,0.5c-0.2,0.1-0.3,0.1-0.6,0.1h-0.4
		V536.6z M287.4,537.1c-0.8,0-1.3,0.6-1.3,1.3c0,0.7,0.6,1.3,1.3,1.3c0.3,0,0.7-0.1,1-0.5v0.4h0.3v-2.4h-0.3v0.4
		C288.1,537.2,287.7,537.1,287.4,537.1z M287.4,537.4c0.6,0,1,0.5,1,1c0,0.6-0.4,1-1,1c-0.6,0-1-0.5-1-1
		C286.4,537.8,286.9,537.4,287.4,537.4z M208.4,538h0.4c0.4,0,0.5,0,0.6,0.1c0.2,0.1,0.4,0.3,0.4,0.6c0,0.3-0.1,0.5-0.3,0.6
		c-0.2,0.1-0.4,0.1-0.6,0.1h-0.5V538z M289.9,539.1v0.6h0.3v-0.6H289.9z M296.4,539.1v0.6h0.3v-0.6H296.4z"/>
	<g id="g2618" transform="matrix(1.25,0,0,-1.25,-150.31284,1515.5653)">
		<g>
			<defs>
				<rect id="SVGID_1_" x="262.1" y="776.5" width="126.4" height="26.2"/>
			</defs>
			<clipPath id="SVGID_00000031897122646446078480000017471718651280389817_">
				<use xlink:href="#SVGID_1_"  style="overflow:visible;"/>
			</clipPath>
			<g id="g2620" style="clip-path:url(#SVGID_00000031897122646446078480000017471718651280389817_);">
				<g id="g2626" transform="translate(553.92,814.52901)">
					<path id="path2628" class="st2" d="M-182.3-14.4c0-5.4-4.3-9.7-9.6-9.7v3.1c3.6,0,6.5,2.9,6.5,6.6H-182.3"/>
				</g>
				<g id="g2630" transform="translate(566.097,814.52901)">
				</g>
			</g>
		</g>
	</g>
</g>
</svg>
