<?xml version="1.0" encoding="utf-8"?>
<!-- Generator: Adobe Illustrator 28.3.0, SVG Export Plug-In . SVG Version: 6.00 Build 0)  -->
<svg version="1.1"
	 id="svg8" xmlns:svg="http://www.w3.org/2000/svg" xmlns:inkscape="http://www.inkscape.org/namespaces/inkscape" xmlns:rdf="http://www.w3.org/1999/02/22-rdf-syntax-ns#" xmlns:sodipodi="http://sodipodi.sourceforge.net/DTD/sodipodi-0.dtd" xmlns:dc="http://purl.org/dc/elements/1.1/" xmlns:cc="http://creativecommons.org/ns#"
	 xmlns="http://www.w3.org/2000/svg" xmlns:xlink="http://www.w3.org/1999/xlink" x="0px" y="0px" viewBox="0 0 128 64"
	 style="enable-background:new 0 0 128 64;" xml:space="preserve">
<style type="text/css">
	.st0{fill:#0074BC;}
	.st1{fill:#00A895;}
</style>
<sodipodi:namedview  bordercolor="#666666" borderopacity="1.0" fit-margin-bottom="0" fit-margin-left="0" fit-margin-right="0" fit-margin-top="0" id="base" inkscape:current-layer="layer1" inkscape:cx="131.46973" inkscape:cy="-389.58457" inkscape:document-units="mm" inkscape:pageopacity="0" inkscape:pageshadow="2" inkscape:window-height="1001" inkscape:window-maximized="1" inkscape:window-width="1920" inkscape:window-x="-9" inkscape:window-y="-9" inkscape:zoom="0.7" pagecolor="#00ffff" showgrid="false">
	</sodipodi:namedview>
<path class="st0" d="M123,18c0,7.5-6.1,13.5-13.5,13.5v3.9c9.6,0,17.4-7.8,17.3-17.4H123z"/>
<path class="st0" d="M33.7,26.3c-1.7,0-2.6,1.4-2.6,2.6c0,0.6,0.2,1.3,0.6,1.7c0.4,0.4,0.7,0.5,2,1c0.7,0.3,1.5,0.5,1.5,1.6
	c0.1,0.9-0.6,1.5-1.5,1.5c-1.3,0.1-1.5-1.3-1.5-1.6h-1.4c0,2,1.6,2.9,2.8,2.9c1.7,0,2.9-1.2,2.8-2.8c0.1-2.3-1.6-2.6-2.8-3.1
	c-0.4-0.2-1.2-0.4-1.2-1.4c0-0.5,0.4-1.2,1.2-1.2c0.6,0,1.3,0.3,1.4,1.4h1.3C36.4,27.3,35.3,26.3,33.7,26.3z"/>
<polygon class="st0" points="0.4,26.4 6.7,35.7 8,35.7 8,26.4 6.7,26.4 6.7,33.5 1.9,26.4 "/>
<polygon class="st0" points="19.4,26.4 19.4,35.7 23.7,35.7 23.7,34.5 20.8,34.5 20.8,26.4 "/>
<polygon class="st0" points="24.5,26.4 24.5,35.7 25.9,35.7 25.9,31 25.9,26.3 24.5,26.3 "/>
<polygon class="st0" points="25.8,31.1 29.4,35.8 31,35.8 27.4,31.1 31,26.4 29.4,26.4 "/>
<polygon class="st0" points="36.5,26.4 39.1,35.7 40.3,35.7 42,29.2 43.7,35.7 44.9,35.7 47.5,26.4 46.1,26.4 44.3,33.4 42.5,26.4 
	41.5,26.4 39.7,33.4 38,26.4 "/>
<polygon class="st0" points="57.7,26.4 57.7,35.7 59.1,35.7 59.1,31.6 63,31.6 63,35.7 64.4,35.7 64.4,26.4 63,26.4 63,30.5 
	59.1,30.5 59.1,26.4 "/>
<polygon class="st0" points="65.7,26.4 65.7,35.7 69.9,35.7 69.9,34.5 67.1,34.5 67.1,26.4 "/>
<path class="st0" d="M80.4,26.4v6.4c0,1,0.3,1.8,0.9,2.3s1.4,0.8,2.2,0.9c0.9,0,1.6-0.4,2.2-0.9s0.9-1.3,1-2.3v-6.4h-1.5v6.3
	c0.1,1.8-1.2,2-1.7,2c-0.5,0.1-1.7-0.2-1.7-2v-6.3H80.4z"/>
<polygon class="st0" points="87.9,26.4 87.9,35.7 89.3,35.7 89.3,28.6 93.8,35.7 95.3,35.7 95.3,26.4 93.9,26.4 93.9,33.5 
	89.4,26.4 "/>
<path class="st0" d="M13.7,26.3c-2.8,0-4.8,2.3-4.8,4.8c0,2.6,2,4.9,4.8,4.9s4.9-2.3,4.9-4.9C18.6,28.5,16.5,26.3,13.7,26.3z
	 M13.7,34.6c-2.3,0.1-3.4-2-3.4-3.6c-0.1-1.4,1-3.5,3.4-3.5c2.4,0,3.5,2,3.6,3.7C17.3,32.6,16.2,34.7,13.7,34.6z"/>
<path class="st0" d="M52.1,26.3c-2.9,0-4.9,2.3-4.9,4.8c0,2.6,2.1,4.9,4.9,4.9c2.7,0,4.8-2.3,4.8-4.9C56.9,28.5,54.8,26.3,52.1,26.3
	z M52.1,34.6c-2.4,0.1-3.5-2-3.6-3.6c0.1-1.4,1.1-3.5,3.6-3.5c2.3,0,3.4,2,3.4,3.7C55.5,32.6,54.4,34.7,52.1,34.6z"/>
<path class="st0" d="M103.3,28.1c-0.7-0.9-1.8-1.7-3.8-1.7h-2.9v0v9.3h2.9c1.3,0,2.6-0.3,3.6-1.4c0.8-0.7,1.2-2,1.2-3.3
	C104.3,30.2,104,29,103.3,28.1z M99.6,34.4H98v-6.7h1.6c2.6-0.1,3.4,2,3.4,3.3C103,33.6,101.2,34.4,99.6,34.4z"/>
<path class="st0" d="M78.2,30.8c0.3-0.3,0.8-0.8,0.9-1.8c0-0.6-0.3-2.5-2.9-2.6h-2.5v9.3h2.8c2.6,0,3.1-1.7,3.1-2.7
	C79.6,31.6,78.6,31,78.2,30.8z M75.2,27.7h1c0,0,0,0,0.1,0c0.4,0,1.4,0.1,1.5,1.2c0,0.6-0.3,1.3-1.5,1.4h-1.1V27.7z M78.2,33
	c0,0.5-0.3,1.5-1.6,1.5h-1.5v-3h0.1h1.2c0.5,0,1.1,0,1.6,0.6C78.1,32.3,78.3,32.6,78.2,33z"/>
<path class="st0" d="M30.8,38.9c-0.5,0-0.9,0.4-0.9,0.9c0,0.7,0.6,0.8,0.9,0.9c0.2,0.1,0.7,0.2,0.7,0.7c0,0.4-0.3,0.7-0.7,0.7
	s-0.7-0.3-0.7-0.7h-0.3c0,0.7,0.6,1,1,1c0.6,0,1-0.5,1-1c0-0.1,0-0.7-0.8-1c-0.4-0.1-0.8-0.2-0.8-0.6c0-0.3,0.2-0.6,0.6-0.6
	c0.3,0,0.6,0.3,0.6,0.6h0.3C31.7,39.3,31.3,38.9,30.8,38.9z"/>
<path class="st0" d="M48.9,38.9c-0.5,0-0.9,0.4-0.9,0.9c0,0.7,0.6,0.8,0.9,0.9c0.2,0.1,0.7,0.2,0.7,0.7c0,0.4-0.3,0.7-0.7,0.7
	s-0.7-0.3-0.7-0.7h-0.3c0,0.7,0.6,1,1,1c0.6,0,1-0.5,1-1c0-0.1,0-0.7-0.8-1c-0.4-0.1-0.8-0.2-0.8-0.6c0-0.3,0.2-0.6,0.6-0.6
	c0.3,0,0.6,0.3,0.6,0.6h0.3C49.9,39.3,49.5,38.9,48.9,38.9z"/>
<path class="st0" d="M56.8,38.9c-0.9,0-1.7,0.7-1.7,1.7s0.8,1.7,1.7,1.7c0.5,0,1.2-0.3,1.5-0.9h-0.4c-0.5,0.6-1,0.6-1.2,0.6
	c-0.7,0-1.4-0.6-1.4-1.4c0-0.7,0.6-1.4,1.4-1.4c0.2,0,0.8,0.1,1.1,0.6h0.4C58.2,39.4,57.7,38.9,56.8,38.9z"/>
<path class="st0" d="M86.7,38.9c-1.1,0-1.8,0.9-1.8,1.7c0,0.9,0.8,1.7,1.8,1.7c0.8,0,1.7-0.6,1.7-1.6h-2.2V41H88
	c-0.1,0.5-0.6,1-1.3,1c-0.8,0-1.5-0.7-1.5-1.4s0.6-1.4,1.5-1.4c0.6,0,1,0.3,1.2,0.6h0.4C88.1,39.5,87.6,38.9,86.7,38.9z"/>
<path class="st0" d="M101.1,38.9c-1.1,0-1.8,0.9-1.8,1.7c0,0.9,0.8,1.7,1.8,1.7c0.8,0,1.7-0.6,1.7-1.6h-2.2V41h1.9
	c-0.1,0.5-0.6,1-1.3,1c-0.8,0-1.5-0.7-1.5-1.4s0.6-1.4,1.4-1.4c0.5,0,1,0.3,1.2,0.6h0.4C102.5,39.5,101.9,38.9,101.1,38.9z"/>
<polygon class="st0" points="7,38.9 7,42.2 8.7,42.2 8.7,41.9 7.3,41.9 7.3,38.9 "/>
<polygon class="st0" points="10.8,38.9 10.8,42.2 12.6,42.2 12.6,41.9 11.1,41.9 11.1,40.7 12.5,40.7 12.5,40.4 11.1,40.4 
	11.1,39.2 12.6,39.2 12.6,38.9 "/>
<polygon class="st0" points="20,38.9 20,42.2 21.8,42.2 21.8,41.9 20.3,41.9 20.3,40.7 21.7,40.7 21.7,40.4 20.3,40.4 20.3,39.2 
	21.8,39.2 21.8,38.9 "/>
<polygon class="st0" points="24.5,38.9 24.5,42.2 24.8,42.2 24.8,39.3 26.8,42.2 27.1,42.2 27.1,38.9 26.8,38.9 26.8,41.6 
	26.8,41.6 24.9,38.9 "/>
<polygon class="st0" points="33.6,38.9 35,42.2 35.3,42.2 36.7,38.9 36.3,38.9 35.1,41.8 33.9,38.9 "/>
<polygon class="st0" points="38.8,38.9 38.8,42.2 40.6,42.2 40.6,41.9 39.1,41.9 39.1,40.7 40.5,40.7 40.5,40.4 39.1,40.4 
	39.1,39.2 40.6,39.2 40.6,38.9 "/>
<path class="st0" d="M43.3,38.9v3.3h0.3v-3h0.6c0.3,0,0.4,0,0.6,0.1c0.2,0.1,0.4,0.4,0.4,0.6c0,0.3-0.2,0.6-0.5,0.7
	c-0.1,0-0.3,0-0.7,0l1.1,1.5h0.4l-0.9-1.2c0.6,0,1-0.5,1-1c0-0.4-0.2-0.8-0.6-0.9c-0.2-0.1-0.4-0.1-0.8-0.1L43.3,38.9L43.3,38.9z"/>
<rect x="52.5" y="38.9" class="st0" width="0.3" height="3.3"/>
<polygon class="st0" points="60.5,38.9 60.5,42.2 60.8,42.2 60.8,40.7 62.5,40.7 62.5,42.2 62.8,42.2 62.8,38.9 62.5,38.9 
	62.5,40.4 60.8,40.4 60.8,38.9 "/>
<polygon class="st0" points="65.7,38.9 65.7,42.2 67.5,42.2 67.5,41.9 66,41.9 66,40.7 67.4,40.7 67.4,40.4 66,40.4 66,39.2 
	67.5,39.2 67.5,38.9 "/>
<path class="st0" d="M70.2,38.9v3.3h0.3v-3h0.6c0.3,0,0.5,0,0.7,0.1s0.4,0.4,0.4,0.6c0,0.3-0.2,0.6-0.5,0.7c-0.1,0-0.3,0-0.7,0
	l1.1,1.5h0.4l-0.9-1.2c0.6,0,1-0.5,1-1c0-0.4-0.2-0.8-0.6-0.9c-0.2-0.1-0.4-0.1-0.8-0.1L70.2,38.9L70.2,38.9z"/>
<path class="st0" d="M75.1,38.9V41c0,0.3,0,0.5,0.1,0.7c0.2,0.5,0.7,0.6,1,0.6s0.8-0.1,1-0.6c0.1-0.2,0.1-0.4,0.1-0.7v-2.1H77V41
	c0,0.2,0,0.5-0.1,0.6C76.7,42,76.4,42,76.2,42s-0.5,0-0.7-0.4c-0.1-0.1-0.1-0.4-0.1-0.6v-2.1H75.1z"/>
<polygon class="st0" points="80.1,38.9 80.1,42.2 80.4,42.2 80.4,39.3 80.4,39.3 82.4,42.2 82.7,42.2 82.7,38.9 82.4,38.9 
	82.4,41.6 82.4,41.6 80.6,38.9 "/>
<path class="st0" d="M95.7,39.8v0.4c-0.3-0.4-0.7-0.5-1-0.5c-0.8,0-1.3,0.6-1.3,1.3s0.6,1.3,1.3,1.3c0.3,0,0.7-0.1,1-0.5v0.4H96
	v-2.4H95.7z M94.7,42c-0.6,0-1-0.5-1-1c0-0.6,0.5-1,1-1c0.6,0,1,0.5,1,1C95.7,41.6,95.3,42,94.7,42z"/>
<path class="st0" d="M16.8,40.4c0.1-0.1,0.4-0.3,0.4-0.7c0-0.1,0-0.9-1.1-0.9h-0.8v0.1v3.3h0.8c0.4,0,0.6,0,0.9-0.2
	c0.2-0.2,0.4-0.5,0.4-0.8C17.4,40.8,17.2,40.5,16.8,40.4z M15.6,39.2L15.6,39.2h0.5c0.3,0,0.5,0.1,0.7,0.2c0.1,0.1,0.1,0.2,0.1,0.4
	s-0.1,0.4-0.3,0.5c-0.2,0.1-0.3,0.1-0.6,0.1h-0.4V39.2z M16.8,41.9C16.6,42,16.4,42,16.2,42h-0.5v-1.4h0.4c0.4,0,0.5,0,0.6,0.1
	c0.2,0.1,0.4,0.3,0.4,0.6S17,41.8,16.8,41.9z"/>
<rect x="97.2" y="41.7" class="st0" width="0.3" height="0.6"/>
<rect x="103.7" y="41.7" class="st0" width="0.3" height="0.6"/>
<g id="g2620">
	<g id="g2626" transform="translate(553.92,814.52901)">
		<path id="path2628" class="st1" d="M-432.4-796.5c0,6.8-5.4,12.1-12,12.1v-3.9c4.5,0,8.1-3.6,8.1-8.2H-432.4"/>
	</g>
	<g id="g2630" transform="translate(566.097,814.52901)">
	</g>
</g>
</svg>
