<?xml version="1.0" encoding="UTF-8"?>
<svg xmlns="http://www.w3.org/2000/svg" xmlns:xlink="http://www.w3.org/1999/xlink" width="128px" height="26px" viewBox="0 0 129 26" version="1.1">
<defs>
<clipPath id="clip1">
  <path d="M 110 0.804688 L 123 0.804688 L 123 14 L 110 14 Z M 110 0.804688 "/>
</clipPath>
</defs>
<g id="surface1">
<path style=" stroke:none;fill-rule:nonzero;fill:rgb(0%,45.490196%,73.72549%);fill-opacity:1;" d="M 124.429688 0.75 C 124.386719 8.3125 118.316406 14.375 110.8125 14.394531 L 110.8125 18.359375 C 120.484375 18.328125 128.316406 10.488281 128.265625 0.75 Z M 14.101562 9.0625 C 11.285156 9.054688 9.277344 11.382812 9.28125 13.902344 C 9.277344 16.519531 11.347656 18.820312 14.101562 18.863281 C 16.941406 18.820312 19.046875 16.53125 19.0625 13.902344 C 19.046875 11.28125 16.941406 9.054688 14.101562 9.0625 Z M 34.289062 9.0625 C 32.539062 9.054688 31.6875 10.519531 31.6875 11.667969 C 31.6875 12.273438 31.894531 12.953125 32.3125 13.398438 C 32.757812 13.792969 33.058594 13.949219 34.289062 14.394531 C 34.964844 14.6875 35.828125 14.910156 35.777344 16.007812 C 35.828125 16.957031 35.179688 17.554688 34.289062 17.496094 C 32.933594 17.554688 32.792969 16.171875 32.800781 15.886719 L 31.4375 15.886719 C 31.417969 17.953125 33.023438 18.820312 34.289062 18.863281 C 36.042969 18.820312 37.191406 17.605469 37.128906 16.007812 C 37.191406 13.703125 35.496094 13.335938 34.289062 12.90625 C 33.910156 12.742188 33.0625 12.496094 33.054688 11.539062 C 33.0625 11.046875 33.503906 10.3125 34.289062 10.300781 C 34.875 10.3125 35.640625 10.632812 35.65625 11.667969 L 37.011719 11.667969 C 37.003906 10.085938 35.875 9.054688 34.289062 9.0625 Z M 52.859375 9.0625 C 49.949219 9.054688 47.933594 11.382812 47.90625 13.902344 C 47.933594 16.519531 50.011719 18.820312 52.859375 18.863281 C 55.605469 18.820312 57.703125 16.53125 57.691406 13.902344 C 57.703125 11.28125 55.605469 9.054688 52.859375 9.0625 Z M 0.734375 9.183594 L 7.050781 18.613281 L 8.40625 18.613281 L 8.40625 9.183594 L 7.050781 9.183594 L 7.050781 16.378906 L 2.21875 9.183594 Z M 19.925781 9.183594 L 19.925781 18.613281 L 24.253906 18.613281 L 24.253906 17.375 L 21.292969 17.375 L 21.292969 9.183594 Z M 25 9.183594 L 25 18.613281 L 26.363281 18.613281 L 26.363281 9.183594 Z M 26.363281 13.902344 L 29.949219 18.613281 L 31.566406 18.613281 L 27.972656 13.902344 L 31.566406 9.183594 L 29.949219 9.183594 Z M 37.128906 9.183594 L 39.730469 18.613281 L 40.976562 18.613281 L 42.707031 12.042969 L 44.441406 18.613281 L 45.679688 18.613281 L 48.28125 9.183594 L 46.914062 9.183594 L 45.054688 16.257812 L 43.207031 9.183594 L 42.214844 9.183594 L 40.355469 16.257812 L 38.617188 9.183594 Z M 58.554688 9.183594 L 58.554688 18.613281 L 59.921875 18.613281 L 59.921875 14.515625 L 63.875 14.515625 L 63.875 18.613281 L 65.242188 18.613281 L 65.242188 9.183594 L 63.875 9.183594 L 63.875 13.277344 L 59.921875 13.277344 L 59.921875 9.183594 Z M 66.609375 9.183594 L 66.609375 18.613281 L 70.816406 18.613281 L 70.816406 17.375 L 67.964844 17.375 L 67.964844 9.183594 Z M 74.652344 9.183594 L 74.652344 18.613281 L 77.496094 18.613281 C 80.097656 18.636719 80.640625 16.871094 80.601562 15.886719 C 80.640625 14.445312 79.632812 13.84375 79.234375 13.652344 C 79.558594 13.335938 80.074219 12.878906 80.097656 11.789062 C 80.074219 11.175781 79.792969 9.230469 77.125 9.183594 Z M 81.464844 9.183594 L 81.464844 15.632812 C 81.429688 16.664062 81.78125 17.4375 82.328125 17.988281 C 82.960938 18.492188 83.710938 18.820312 84.558594 18.863281 C 85.4375 18.820312 86.1875 18.492188 86.785156 17.988281 C 87.367188 17.4375 87.726562 16.664062 87.78125 15.632812 L 87.78125 9.183594 L 86.292969 9.183594 L 86.292969 15.511719 C 86.355469 17.304688 85.082031 17.554688 84.558594 17.496094 C 84.066406 17.554688 82.804688 17.304688 82.828125 15.511719 L 82.828125 9.183594 Z M 89.015625 9.183594 L 89.015625 18.613281 L 90.382812 18.613281 L 90.382812 11.417969 L 94.960938 18.613281 L 96.449219 18.613281 L 96.449219 9.183594 L 95.082031 9.183594 L 95.082031 16.378906 L 90.503906 9.183594 Z M 97.804688 9.183594 L 97.804688 18.613281 L 100.777344 18.613281 C 102.082031 18.636719 103.355469 18.339844 104.371094 17.242188 C 105.132812 16.585938 105.609375 15.234375 105.609375 13.902344 C 105.609375 13.050781 105.316406 11.902344 104.613281 10.925781 C 103.933594 9.984375 102.765625 9.230469 100.777344 9.183594 Z M 14.101562 10.300781 C 16.484375 10.3125 17.671875 12.308594 17.695312 14.023438 C 17.671875 15.449219 16.574219 17.554688 14.101562 17.496094 C 11.742188 17.554688 10.640625 15.476562 10.636719 13.902344 C 10.640625 12.441406 11.726562 10.3125 14.101562 10.300781 Z M 52.859375 10.300781 C 55.148438 10.3125 56.328125 12.308594 56.324219 14.023438 C 56.328125 15.449219 55.238281 17.554688 52.859375 17.496094 C 50.40625 17.554688 49.308594 15.476562 49.273438 13.902344 C 49.308594 12.441406 50.394531 10.3125 52.859375 10.300781 Z M 77.277344 10.53125 C 77.722656 10.507812 78.714844 10.652344 78.742188 11.789062 C 78.710938 12.371094 78.484375 13.152344 77.253906 13.160156 L 76.140625 13.160156 L 76.140625 10.550781 L 77.125 10.550781 C 77.160156 10.546875 77.214844 10.535156 77.277344 10.53125 Z M 99.171875 10.550781 L 100.777344 10.550781 C 103.363281 10.492188 104.234375 12.542969 104.242188 13.902344 C 104.234375 16.558594 102.425781 17.382812 100.777344 17.375 L 99.171875 17.375 Z M 76.140625 14.394531 L 77.375 14.394531 C 77.882812 14.40625 78.511719 14.421875 78.980469 15.019531 C 79.125 15.234375 79.265625 15.5625 79.234375 15.886719 C 79.265625 16.390625 78.953125 17.382812 77.628906 17.375 L 76.140625 17.375 Z M 31.347656 21.789062 C 30.820312 21.789062 30.410156 22.164062 30.410156 22.6875 C 30.410156 23.351562 30.96875 23.472656 31.273438 23.5625 C 31.496094 23.628906 32.015625 23.769531 32.015625 24.285156 C 32.015625 24.675781 31.699219 24.941406 31.347656 24.941406 C 30.9375 24.941406 30.667969 24.671875 30.648438 24.25 L 30.320312 24.25 C 30.335938 24.988281 30.914062 25.25 31.347656 25.25 C 31.941406 25.25 32.355469 24.777344 32.355469 24.261719 C 32.355469 24.164062 32.355469 23.519531 31.535156 23.300781 C 31.097656 23.171875 30.738281 23.082031 30.738281 22.675781 C 30.738281 22.386719 30.964844 22.082031 31.347656 22.082031 C 31.664062 22.082031 31.9375 22.355469 31.9375 22.695312 L 32.265625 22.695312 C 32.265625 22.207031 31.894531 21.789062 31.347656 21.789062 Z M 49.679688 21.789062 C 49.152344 21.789062 48.75 22.164062 48.75 22.6875 C 48.75 23.351562 49.308594 23.472656 49.613281 23.5625 C 49.839844 23.628906 50.355469 23.769531 50.355469 24.285156 C 50.355469 24.675781 50.03125 24.941406 49.679688 24.941406 C 49.269531 24.941406 49.007812 24.671875 48.988281 24.25 L 48.652344 24.25 C 48.664062 24.988281 49.246094 25.25 49.679688 25.25 C 50.269531 25.25 50.695312 24.777344 50.695312 24.261719 C 50.695312 24.164062 50.695312 23.519531 49.875 23.300781 C 49.4375 23.171875 49.078125 23.082031 49.078125 22.675781 C 49.078125 22.386719 49.296875 22.082031 49.679688 22.082031 C 49.996094 22.082031 50.28125 22.355469 50.28125 22.695312 L 50.609375 22.695312 C 50.609375 22.207031 50.226562 21.789062 49.679688 21.789062 Z M 57.648438 21.789062 C 56.695312 21.789062 55.898438 22.527344 55.898438 23.519531 C 55.898438 24.507812 56.714844 25.25 57.648438 25.25 C 58.183594 25.25 58.832031 24.960938 59.1875 24.304688 L 58.816406 24.304688 C 58.359375 24.917969 57.8125 24.941406 57.648438 24.941406 C 56.925781 24.941406 56.238281 24.308594 56.238281 23.527344 C 56.238281 22.785156 56.855469 22.09375 57.636719 22.09375 C 57.839844 22.09375 58.429688 22.148438 58.792969 22.695312 L 59.175781 22.695312 C 59.046875 22.386719 58.503906 21.789062 57.648438 21.789062 Z M 87.757812 21.789062 C 86.691406 21.789062 85.976562 22.652344 85.976562 23.519531 C 85.976562 24.441406 86.773438 25.25 87.769531 25.25 C 88.589844 25.25 89.453125 24.644531 89.53125 23.648438 L 87.265625 23.648438 L 87.265625 23.957031 L 89.125 23.957031 C 89.007812 24.421875 88.488281 24.941406 87.78125 24.941406 C 86.925781 24.941406 86.304688 24.261719 86.304688 23.519531 C 86.304688 22.773438 86.925781 22.082031 87.769531 22.082031 C 88.324219 22.082031 88.761719 22.398438 88.949219 22.730469 L 89.34375 22.730469 C 89.214844 22.390625 88.644531 21.789062 87.757812 21.789062 Z M 102.253906 21.789062 C 101.183594 21.789062 100.460938 22.652344 100.460938 23.519531 C 100.460938 24.441406 101.253906 25.25 102.253906 25.25 C 103.074219 25.25 103.9375 24.644531 104.011719 23.648438 L 101.75 23.648438 L 101.75 23.957031 L 103.617188 23.957031 C 103.503906 24.421875 102.972656 24.941406 102.261719 24.941406 C 101.40625 24.941406 100.800781 24.261719 100.800781 23.519531 C 100.800781 22.773438 101.410156 22.082031 102.253906 22.082031 C 102.808594 22.082031 103.253906 22.398438 103.445312 22.730469 L 103.828125 22.730469 C 103.695312 22.390625 103.136719 21.789062 102.253906 21.789062 Z M 7.421875 21.84375 L 7.421875 25.183594 L 9.128906 25.183594 L 9.128906 24.886719 L 7.75 24.886719 L 7.75 21.84375 Z M 11.203125 21.84375 L 11.203125 25.183594 L 13.03125 25.183594 L 13.03125 24.886719 L 11.53125 24.886719 L 11.53125 23.648438 L 12.976562 23.648438 L 12.976562 23.355469 L 11.53125 23.355469 L 11.53125 22.148438 L 13.03125 22.148438 L 13.03125 21.84375 Z M 15.785156 21.84375 L 15.785156 25.183594 L 16.613281 25.183594 C 17.007812 25.1875 17.238281 25.175781 17.523438 25.007812 C 17.757812 24.847656 17.90625 24.550781 17.90625 24.230469 C 17.90625 23.847656 17.679688 23.542969 17.347656 23.410156 C 17.464844 23.3125 17.707031 23.121094 17.707031 22.730469 C 17.707031 22.59375 17.664062 21.84375 16.613281 21.84375 Z M 20.496094 21.84375 L 20.496094 25.183594 L 22.320312 25.183594 L 22.320312 24.886719 L 20.824219 24.886719 L 20.824219 23.648438 L 22.265625 23.648438 L 22.265625 23.355469 L 20.824219 23.355469 L 20.824219 22.148438 L 22.320312 22.148438 L 22.320312 21.84375 Z M 25.074219 21.84375 L 25.074219 25.183594 L 25.414062 25.183594 L 25.414062 22.246094 L 27.402344 25.183594 L 27.730469 25.183594 L 27.730469 21.84375 L 27.402344 21.84375 L 27.402344 24.613281 L 27.390625 24.613281 L 25.523438 21.84375 Z M 34.203125 21.84375 L 35.578125 25.183594 L 35.90625 25.183594 L 37.292969 21.84375 L 36.933594 21.84375 L 35.742188 24.765625 L 34.574219 21.84375 Z M 39.4375 21.84375 L 39.4375 25.183594 L 41.261719 25.183594 L 41.261719 24.886719 L 39.765625 24.886719 L 39.765625 23.648438 L 41.207031 23.648438 L 41.207031 23.355469 L 39.765625 23.355469 L 39.765625 22.148438 L 41.261719 22.148438 L 41.261719 21.84375 Z M 43.996094 21.84375 L 43.996094 25.183594 L 44.324219 25.183594 L 44.324219 22.148438 L 44.914062 22.148438 C 45.191406 22.148438 45.359375 22.164062 45.558594 22.269531 C 45.773438 22.378906 45.917969 22.652344 45.917969 22.914062 C 45.917969 23.214844 45.738281 23.523438 45.371094 23.628906 C 45.222656 23.671875 45.074219 23.671875 44.652344 23.671875 L 45.789062 25.183594 L 46.203125 25.183594 L 45.261719 23.945312 C 45.90625 23.90625 46.257812 23.410156 46.257812 22.925781 C 46.257812 22.515625 46.03125 22.148438 45.65625 21.972656 C 45.503906 21.902344 45.28125 21.84375 44.835938 21.84375 Z M 53.285156 21.84375 L 53.285156 25.183594 L 53.625 25.183594 L 53.625 21.84375 Z M 61.375 21.84375 L 61.375 25.183594 L 61.710938 25.183594 L 61.710938 23.617188 L 63.441406 23.617188 L 63.441406 25.183594 L 63.765625 25.183594 L 63.765625 21.84375 L 63.441406 21.84375 L 63.441406 23.320312 L 61.710938 23.320312 L 61.710938 21.84375 Z M 66.578125 21.84375 L 66.578125 25.183594 L 68.402344 25.183594 L 68.402344 24.886719 L 66.90625 24.886719 L 66.90625 23.648438 L 68.347656 23.648438 L 68.347656 23.355469 L 66.90625 23.355469 L 66.90625 22.148438 L 68.402344 22.148438 L 68.402344 21.84375 Z M 71.132812 21.84375 L 71.132812 25.183594 L 71.460938 25.183594 L 71.460938 22.148438 L 72.042969 22.148438 C 72.320312 22.148438 72.5 22.164062 72.699219 22.269531 C 72.914062 22.378906 73.058594 22.652344 73.058594 22.914062 C 73.058594 23.214844 72.875 23.523438 72.511719 23.628906 C 72.363281 23.671875 72.214844 23.671875 71.789062 23.671875 L 72.925781 25.183594 L 73.34375 25.183594 L 72.402344 23.945312 C 73.046875 23.90625 73.398438 23.410156 73.398438 22.925781 C 73.398438 22.515625 73.171875 22.148438 72.796875 21.972656 C 72.644531 21.902344 72.421875 21.84375 71.976562 21.84375 Z M 76.03125 21.84375 L 76.03125 23.921875 C 76.03125 24.203125 76.082031 24.449219 76.164062 24.625 C 76.390625 25.125 76.855469 25.25 77.167969 25.25 C 77.480469 25.25 77.953125 25.125 78.183594 24.625 C 78.265625 24.449219 78.304688 24.203125 78.304688 23.921875 L 78.304688 21.84375 L 77.976562 21.84375 L 77.976562 23.921875 C 77.976562 24.167969 77.933594 24.394531 77.855469 24.535156 C 77.652344 24.910156 77.324219 24.941406 77.167969 24.941406 C 77.011719 24.941406 76.683594 24.910156 76.480469 24.535156 C 76.402344 24.394531 76.371094 24.167969 76.371094 23.921875 L 76.371094 21.84375 Z M 81.125 21.84375 L 81.125 25.183594 L 81.464844 25.183594 L 81.464844 22.246094 L 81.472656 22.246094 L 83.453125 25.183594 L 83.78125 25.183594 L 83.78125 21.84375 L 83.453125 21.84375 L 83.453125 24.613281 L 83.441406 24.613281 L 81.582031 21.84375 Z M 16.113281 22.148438 L 16.558594 22.148438 C 16.902344 22.148438 17.105469 22.207031 17.238281 22.355469 C 17.324219 22.460938 17.378906 22.566406 17.378906 22.71875 C 17.378906 22.917969 17.265625 23.109375 17.105469 23.191406 C 16.945312 23.269531 16.800781 23.289062 16.539062 23.289062 L 16.113281 23.289062 Z M 95.859375 22.652344 C 95.050781 22.652344 94.523438 23.285156 94.523438 23.945312 C 94.523438 24.65625 95.082031 25.25 95.859375 25.25 C 96.113281 25.25 96.550781 25.160156 96.820312 24.753906 L 96.820312 25.183594 L 97.136719 25.183594 L 97.136719 22.71875 L 96.820312 22.71875 L 96.820312 23.144531 C 96.558594 22.734375 96.125 22.652344 95.859375 22.652344 Z M 95.859375 22.9375 C 96.425781 22.9375 96.84375 23.414062 96.84375 23.957031 C 96.84375 24.535156 96.390625 24.964844 95.859375 24.964844 C 95.253906 24.964844 94.84375 24.507812 94.84375 23.957031 C 94.84375 23.328125 95.316406 22.9375 95.859375 22.9375 Z M 16.113281 23.582031 L 16.527344 23.582031 C 16.882812 23.582031 17.015625 23.597656 17.171875 23.660156 C 17.394531 23.746094 17.566406 23.972656 17.566406 24.230469 C 17.566406 24.484375 17.421875 24.714844 17.214844 24.800781 C 17.035156 24.871094 16.863281 24.886719 16.582031 24.886719 L 16.113281 24.886719 Z M 98.394531 24.613281 L 98.394531 25.183594 L 98.722656 25.183594 L 98.722656 24.613281 Z M 104.953125 24.613281 L 104.953125 25.183594 L 105.292969 25.183594 L 105.292969 24.613281 Z M 104.953125 24.613281 "/>
<g clip-path="url(#clip1)" clip-rule="nonzero">
<path style=" stroke:none;fill-rule:nonzero;fill:rgb(0%,65.882353%,58.431373%);fill-opacity:1;" d="M 122.941406 0.75 C 122.96875 7.527344 117.53125 12.996094 110.808594 13.03125 L 110.808594 9.0625 C 115.355469 9.046875 119.03125 5.347656 118.980469 0.75 L 122.941406 0.75 "/>
</g>
</g>
</svg>
