<?xml version="1.0" encoding="UTF-8"?>
<svg id="Ebene_1" xmlns="http://www.w3.org/2000/svg" xmlns:xlink="http://www.w3.org/1999/xlink" version="1.1" viewBox="0 0 128 64">
  <!-- Generator: Adobe Illustrator 29.2.1, SVG Export Plug-In . SVG Version: 2.1.0 Build 116)  -->
  <defs>
    <style>
      .st0 {
        fill: none;
      }

      .st1 {
        fill: #ee7d00;
      }

      .st2 {
        fill: #009036;
      }

      .st3 {
        clip-path: url(#clippath);
      }
    </style>
    <clipPath id="clippath">
      <rect class="st0" x="11" y="3" width="107" height="56.8"/>
    </clipPath>
  </defs>
  <g class="st3">
    <g>
      <path class="st2" d="M11.3,3h8.6v13.4l5.2-13.4h10.4v13.2l5.3-13.2h16.8v13.1l5.1-13.1h10.6v13.1l5.1-13.1h16.9v16.2l11-16.2h10.2l-10.8,16.6,12.3,20.2h-10.1l-7.3-12.1-5.2,7.1v5h-8.5V5.8l-12.6,34.1h-9.7v-16.8l-6,16.8h-9.4V5.7l-12.7,34.2h-9.7v-16.8l-6.1,16.8h-9.3V3Z"/>
      <path class="st1" d="M11.3,45.5h106.7v1.2H11.3v-1.2Z"/>
      <path class="st2" d="M11,59.6v-8.1h3.9v.9h-3v2.6h2.7v.9h-2.7v2.8h3v.9h-4Z"/>
      <path class="st2" d="M17.1,59.6h-1v-5.6h1v5.6ZM16.1,51.6h1.1v1h-1.1v-1Z"/>
      <path class="st2" d="M21.4,59.6v-3.9c0-.6-.2-1.1-.9-1.1s-1.1.9-1.1,1.7v3.4h-.9v-4.5c0-.4,0-.8,0-1.2h.9v.7h0c.4-.6.7-.8,1.4-.8,1.1,0,1.4.7,1.4,1.8v3.9h-.9Z"/>
      <path class="st2" d="M26.7,56.4c0-1.6-.4-1.8-1.1-1.8s-1,.3-1,1.8h2.1ZM24.6,57.1c0,1.6.4,1.9,1.1,1.9s.9-.5.9-1.1h1c0,1.3-.7,1.8-1.9,1.8s-2-.4-2-2.9.2-3,2-3,1.9.9,1.9,2.7v.5h-3Z"/>
      <path class="st2" d="M33,59.7c-1.1,0-1.9-.6-1.9-1.8h1c0,.3,0,1.1.9,1.1s.9-.3.9-.9c0-1-2.6-1-2.6-2.7s.4-1.5,1.9-1.5,1.7.5,1.7,1.6h-1c0-.6-.3-.9-.9-.9s-.8.3-.8.7c0,1,2.6,1,2.6,2.7s-.8,1.7-1.9,1.7Z"/>
      <path class="st2" d="M36.1,54v-1.1l.9-.4v1.5h1.1v.7h-1.1v3.5c0,.4,0,.8.8.8s.2,0,.4,0v.7c-.3,0-.6,0-.9,0-.8,0-1.2-.4-1.2-1v-4h-.9v-.6h.9c0-.1,0-.1,0-.1Z"/>
      <path class="st2" d="M39.8,58c0,.6.3,1,.9,1s1.2-.4,1.1-2.2c-.9,0-2,0-2,1.1ZM41.7,58.8c-.3.6-.7.9-1.4.9-1.1,0-1.5-.7-1.5-1.9,0-1.7,1.6-1.8,2.8-1.7,0-.7,0-1.5-.9-1.5s-.9.4-.9,1h-.9c0-1.3.7-1.7,1.8-1.7s1.7.7,1.7,1.7v2.7c0,.4,0,.9.1,1.4h-1v-.8h0Z"/>
      <path class="st2" d="M45.2,54.8c.4-.9.8-1,1.6-1v1c-.1,0-.3,0-.5,0-1,0-1.2.7-1.2,1.5v3.4h-.9v-5.6h.9v.8Z"/>
      <path class="st2" d="M48.6,59.6h-.9v-8.1h.9v4.9h0l1.6-2.4h1.1l-1.8,2.4,2.1,3.2h-1.1l-1.9-3.2h0v3.1Z"/>
      <path class="st2" d="M55.4,56.4c0-1.6-.4-1.8-1.1-1.8s-1,.3-1,1.8h2.1ZM53.3,57.1c0,1.6.4,1.9,1.1,1.9s.9-.5.9-1.1h1c0,1.3-.7,1.8-1.9,1.8s-2-.4-2-2.9.2-3,2-3,1.9.9,1.9,2.7v.5h-3Z"/>
      <path class="st2" d="M63.8,53.7c0-1-.4-1.5-1.4-1.5s-1.4,0-1.4,1.7v2.7c0,1.8.5,2.2,1.4,2.2s1.1-.2,1.4-.4v-2.4h-1.4v-.9h2.4v3.9c-.6.4-1.4.6-2.4.6-1.6,0-2.4-.9-2.4-3.1v-2.7c0-1.6.7-2.6,2.4-2.6s2.4.6,2.4,2.4h-1Z"/>
      <path class="st2" d="M69.4,56.4c0-1.6-.4-1.8-1.1-1.8s-1,.3-1,1.8h2.1ZM67.3,57.1c0,1.6.4,1.9,1.1,1.9s.9-.5.9-1.1h1c0,1.3-.7,1.8-1.9,1.8s-2-.4-2-2.9.2-3,2-3,1.9.9,1.9,2.7v.5h-3Z"/>
      <path class="st2" d="M74.4,59.6v-3.9c0-.6-.1-1.1-.9-1.1s-.6.1-.7.4c-.1.3-.2.6-.2.8v3.8h-.9v-4.5c0-.4,0-.8,0-1.2h.9v.7h0c.3-.6.7-.8,1.4-.8s1,.2,1.2.7c.3-.6.7-.7,1.2-.7s1.5.1,1.5,1.5v4.3h-.9v-3.9c0-.6-.1-1.1-.9-1.1s-.4,0-.6.2c-.3.2-.3.8-.3,1v3.8h-.9s0,0,0,0Z"/>
      <path class="st2" d="M82.3,56.4c0-1.6-.4-1.8-1.1-1.8s-1,.3-1,1.8h2.1ZM80.2,57.1c0,1.6.4,1.9,1.1,1.9s.9-.5.9-1.1h1c0,1.3-.7,1.8-1.9,1.8s-2-.4-2-2.9.2-3,2-3,1.9.9,1.9,2.7v.5h-3Z"/>
      <path class="st2" d="M85.6,59.6h-.9v-5.6h1v5.6h0ZM84.5,51.6h1.1v1h-1.1v-1Z"/>
      <path class="st2" d="M89.9,59.6v-3.9c0-.6-.2-1.1-.9-1.1s-1.1.9-1.1,1.7v3.4h-.9v-4.5c0-.4,0-.8,0-1.2h.9v.7h0c.4-.6.7-.8,1.4-.8,1.1,0,1.4.7,1.4,1.8v3.9h-.9Z"/>
      <path class="st2" d="M93.8,59.7c-1.1,0-1.9-.6-1.9-1.8h1c0,.3,0,1.1.9,1.1s.9-.3.9-.9c0-1-2.6-1-2.6-2.7s.4-1.5,1.9-1.5,1.7.5,1.7,1.6h-1c0-.6-.3-.9-.9-.9s-.8.3-.8.7c0,1,2.6,1,2.6,2.7,0,1.2-.8,1.7-1.9,1.7Z"/>
      <path class="st2" d="M99.7,55.8c0-.9-.4-1.2-.7-1.2-.6,0-1.1.3-1.1,1.9s.2,2.5,1.1,2.5.8-.2.7-1.2h.9c0,1.6-1.1,2-1.7,2-1.1,0-2-.4-2-2.9s.2-3,2-3,1.7.7,1.6,1.9h-.9Z"/>
      <path class="st2" d="M105.1,59.6v-3.8c0-.7-.2-1.2-1-1.2s-1.1.7-1.1,1.7v3.4h-.9v-8.1h.9v3.1h0c.4-.7.7-.8,1.5-.8s1.4.5,1.4,1.7v4h-.9Z"/>
      <path class="st2" d="M108.3,58c0,.6.3,1,.9,1s1.2-.4,1.1-2.2c-.9,0-2,0-2,1.1ZM110.2,58.8c-.3.6-.7.9-1.4.9-1.1,0-1.5-.7-1.5-1.9,0-1.7,1.6-1.8,2.8-1.7,0-.7,0-1.5-.9-1.5s-.9.4-.9,1h-.9c0-1.3.7-1.7,1.8-1.7s1.7.7,1.7,1.7v2.7c0,.4,0,.9.1,1.4h-1v-.8h0Z"/>
      <path class="st2" d="M112.9,54v-1.1c0-1.1.7-1.4,1.5-1.4s.3,0,.4,0v.7c-.9,0-1.1.4-1.1.8v1h1.1v.7h-1.1v5h-.9v-5h-.8v-.7h.9Z"/>
      <path class="st2" d="M115.7,54v-1.1l.9-.4v1.5h1.1v.7h-1.1v3.5c0,.4,0,.8.8.8s.2,0,.4,0v.7c-.3,0-.6,0-.9,0-.8,0-1.2-.4-1.2-1v-4h-.9v-.6h.9c0-.1,0-.1,0-.1Z"/>
    </g>
  </g>
</svg>