<?xml version="1.0" encoding="utf-8"?>
<!-- Generator: Adobe Illustrator 28.3.0, SVG Export Plug-In . SVG Version: 6.00 Build 0)  -->
<svg version="1.1" id="Ebene_1" xmlns="http://www.w3.org/2000/svg" xmlns:xlink="http://www.w3.org/1999/xlink" x="0px" y="0px"
	 viewBox="0 0 128 64" style="enable-background:new 0 0 128 64;" xml:space="preserve">
<style type="text/css">
	.st0{fill:#002458;}
	.st1{fill:#00A7E7;}
</style>
<g>
	<g>
		<path class="st0" d="M32.6,31.9c0-0.4,0-0.8,0-1.2c0.4-0.1,0.7-0.1,1.1-0.2c0-2.4,0-4.9,0-7.3c-0.3-0.1-0.7-0.1-1.1-0.2
			c0-0.4,0-0.8,0-1.2c0.1,0,0.1,0,0.2,0c1.5,0,2.9,0,4.4,0c0.9,0,1.8,0.2,2.5,0.7c1,0.7,1.5,1.6,1.7,2.8c0,0.2,0,0.4,0,0.7
			c0,0.6,0,1.2,0,1.8c0,1.1-0.3,2-1.1,2.8c-0.7,0.7-1.5,1.1-2.4,1.2c-0.3,0-0.6,0.1-0.9,0.1c-1.4,0-2.8,0-4.2,0
			C32.8,31.9,32.7,31.9,32.6,31.9z M35.7,23.3c0,0.2,0,6.9,0,7c0.5,0,1,0,1.6,0c0.7,0,1.2-0.4,1.6-1c0.3-0.4,0.4-0.9,0.4-1.4
			c0-0.7,0-1.3,0-2c0-0.5-0.1-0.9-0.3-1.4c-0.4-0.7-0.9-1.2-1.8-1.2C36.8,23.3,36.3,23.3,35.7,23.3C35.8,23.3,35.8,23.3,35.7,23.3z"
			/>
		<path class="st0" d="M94,25.3c0.1-0.3,0.1-0.6,0.1-0.9c0.6,0,1.2,0,1.8,0c0,0.1,0,0.1,0,0.2c0,2.4,0,4.7,0,7.1
			c0,0.4,0,0.9-0.2,1.3c-0.4,1-1.1,1.6-2.2,1.9c-1.2,0.3-2.4,0.1-3.5-0.4c0,0,0,0,0,0c0.1-0.5,0.2-0.9,0.4-1.4
			c0.2,0.1,0.4,0.1,0.6,0.2c0.5,0.2,1.1,0.3,1.6,0.2c0.6,0,1-0.3,1.2-0.9c0.1-0.4,0.1-0.8,0.1-1.3c-0.1,0.1-0.1,0.1-0.1,0.1
			c-0.5,0.5-1,0.7-1.7,0.7c-0.3,0-0.6,0-0.9-0.1c-0.6-0.2-1.1-0.6-1.5-1.1c-0.3-0.4-0.5-0.9-0.5-1.4c-0.2-1-0.1-1.9,0.1-2.9
			c0.1-0.5,0.3-0.9,0.7-1.3c0.6-0.7,1.4-1,2.3-0.9c0.6,0,1.2,0.4,1.5,0.9C93.9,25.1,93.9,25.2,94,25.3z M93.9,28.1c0-0.5,0-1,0-1.5
			c0-0.1,0-0.2-0.1-0.3c-0.3-0.4-0.8-0.6-1.3-0.6c-0.5,0-0.8,0.3-1,0.7c-0.1,0.2-0.1,0.3-0.2,0.5c-0.2,0.6-0.2,1.2-0.1,1.8
			c0,0.4,0.1,0.7,0.3,1c0.2,0.4,0.5,0.6,0.9,0.7c0.1,0,0.3,0,0.4,0c0.4,0,0.8-0.2,1-0.5c0.1-0.1,0.1-0.2,0.1-0.3
			C93.9,29.1,93.9,28.6,93.9,28.1z"/>
		<path class="st0" d="M57.8,28.5c0.5,0,1,0,1.6,0c0,0.3,0.1,0.5,0.1,0.8c0,0.2,0.1,0.3,0.1,0.5c0,0.1,0.1,0.2,0.2,0.2
			c0.3,0.2,0.6,0.3,0.9,0.4c0.6,0.1,1.1,0.2,1.7,0c0.1,0,0.2-0.1,0.3-0.1c0.9-0.4,0.9-1.6,0.2-2.1c-0.2-0.2-0.5-0.3-0.8-0.4
			c-0.4-0.2-0.9-0.3-1.3-0.4c-0.6-0.2-1.2-0.5-1.8-0.8c-0.3-0.2-0.7-0.5-0.9-0.9c-0.5-0.8-0.5-2.2,0.4-3.1c0.5-0.5,1.2-0.8,1.9-0.9
			c1.4-0.2,2.8,0,4,0.7c0.2,0.1,0.4,0.3,0.6,0.5c0.1,0,0.1,0.1,0.1,0.2c0,0.6,0,1.3,0,1.9c0,0,0,0,0,0.1c-0.5,0-1,0-1.5,0
			c-0.1-0.3-0.1-0.6-0.2-0.9c0-0.1-0.1-0.2-0.1-0.4c0-0.1-0.1-0.2-0.2-0.2c-0.3-0.1-0.6-0.2-0.9-0.3c-0.5-0.1-1-0.1-1.6,0
			c-0.2,0.1-0.4,0.1-0.6,0.3c-0.5,0.4-0.7,1.3,0.1,1.8c0.3,0.2,0.5,0.3,0.8,0.4c0.4,0.2,0.8,0.3,1.2,0.4c0.6,0.2,1.2,0.4,1.7,0.8
			c0.2,0.1,0.4,0.3,0.5,0.4c0.6,0.6,0.9,1.4,0.8,2.2c-0.1,0.9-0.5,1.5-1.3,2c-0.5,0.3-1,0.4-1.5,0.5c-1,0.1-1.9,0.1-2.8-0.2
			c-0.7-0.2-1.3-0.6-1.8-1c-0.1-0.1-0.1-0.1-0.1-0.2C57.8,29.8,57.8,29.2,57.8,28.5C57.8,28.5,57.8,28.5,57.8,28.5z"/>
		<path class="st0" d="M71.8,25.8c-0.3-0.1-0.5-0.1-0.8-0.2c0-0.4,0-0.8,0-1.2c0.1,0,2.5-0.1,2.9,0c0,0.1,0,0.1,0,0.2
			c0,1.4,0,2.9,0,4.3c0,0.3,0,0.5,0.1,0.8c0.1,0.5,0.5,0.8,1,0.8c0.3,0,0.6,0,0.8-0.2c0.1-0.1,0.3-0.2,0.4-0.3
			c0.1-0.1,0.2-0.2,0.2-0.4c0-1.2,0-2.4,0-3.6c0-0.1,0-0.2,0-0.2c-0.3-0.1-0.6-0.1-0.9-0.2c0-0.4,0-0.8,0-1.2c0.2,0,2.7,0,2.9,0
			c0,2,0,4,0,6.1c0.3,0.1,0.6,0.1,0.9,0.2c0,0.4,0,0.8,0,1.2c-0.1,0-2.4,0.1-2.7,0c0-0.3-0.1-0.6-0.1-0.9c-0.1,0.1-0.1,0.1-0.1,0.1
			c-0.5,0.6-1.2,0.9-2,0.9c-0.3,0-0.6,0-0.9-0.1c-0.6-0.2-1-0.6-1.3-1.2c-0.2-0.4-0.3-0.8-0.3-1.2c0-0.3,0-0.6,0-0.9
			c0-0.9,0-1.8,0-2.6C71.8,25.9,71.8,25.8,71.8,25.8z"/>
		<path class="st0" d="M103.4,30.6c0.2,0,0.4,0.1,0.6,0.1c0,0.4,0,0.8,0,1.2c0,0-0.1,0-0.1,0c-0.7,0-1.4,0-2,0c-0.1,0-0.2,0-0.2-0.1
			c0-0.2-0.1-0.3-0.1-0.4c0-0.1,0-0.1-0.1-0.2c-0.1,0.1-0.1,0.1-0.2,0.1c-0.5,0.5-1.1,0.8-1.8,0.8c-0.4,0-0.7,0-1.1-0.2
			C97.5,31.5,97,30.9,97,30c0-0.2,0-0.4,0-0.6c0.1-0.6,0.4-1.1,1-1.4c0.5-0.3,0.9-0.4,1.5-0.4c0.5,0,1.1,0,1.7,0c0.1,0,0.2,0,0.2,0
			c0-0.1,0-0.1,0-0.1c0-0.2,0-0.4,0-0.7c0-0.6-0.3-1-1-1.1c-0.4-0.1-0.8,0-1.2,0.2C99.1,25.9,99,26,99,26.1c0,0.2-0.1,0.4-0.1,0.6
			c-0.5,0-1,0-1.5,0c0,0,0-0.1,0-0.1c0-0.5,0-0.9,0-1.4c0-0.1,0-0.1,0.1-0.2c1.2-0.8,2.5-1,4-0.7c0.4,0.1,0.7,0.2,1,0.5
			c0.6,0.4,0.9,1,1,1.7c0,0.1,0,0.2,0,0.4c0,1.1,0,2.2,0,3.3C103.4,30.3,103.4,30.4,103.4,30.6z M101.3,28.7c-0.1,0-0.1,0-0.1,0
			c-0.4,0-0.7,0-1.1,0c-0.2,0-0.3,0-0.5,0.1c-0.3,0.1-0.6,0.3-0.7,0.6c-0.2,0.5,0,1,0.6,1.1c0.6,0.1,1.2-0.1,1.6-0.6
			c0.1-0.1,0.1-0.2,0.1-0.3c0-0.2,0-0.5,0-0.7C101.3,28.9,101.3,28.8,101.3,28.7z"/>
		<path class="st0" d="M53.1,28.7c-0.8,0-1.5,0-2.3,0c-0.7,0-1.5,0-2.2,0c0,0.1,0,0.1,0,0.2c0,0.3,0.1,0.6,0.3,0.8
			c0.3,0.6,0.9,0.8,1.5,0.8c0.7,0,1.3-0.2,1.9-0.5c0,0,0.1,0,0.2-0.1c0.2,0.4,0.4,0.8,0.5,1.2c-0.1,0.1-0.1,0.1-0.2,0.1
			c-0.6,0.4-1.2,0.6-1.9,0.7c-0.6,0.1-1.2,0.1-1.8-0.1c-1.3-0.3-2.1-1.2-2.5-2.5c-0.1-0.4-0.1-0.9-0.1-1.4c0-0.6,0.1-1.2,0.3-1.8
			c0.3-0.6,0.6-1.2,1.2-1.6c0.7-0.5,1.4-0.6,2.2-0.5c0.3,0,0.6,0.1,0.9,0.2c1,0.3,1.6,1,1.9,2c0.1,0.3,0.1,0.6,0.1,0.9
			C53.1,27.7,53.1,28.2,53.1,28.7z M51.1,27.3c0-0.3,0-0.5-0.1-0.8c-0.1-0.5-0.4-0.8-1-0.8c-0.5-0.1-0.9,0.1-1.2,0.6
			c-0.1,0.2-0.2,0.5-0.3,0.8c0,0.1,0,0.2,0,0.3C49.4,27.3,50.2,27.3,51.1,27.3z"/>
		<path class="st0" d="M122,28.7c-1.5,0-3,0-4.5,0c0,0.1,0,0.2,0,0.2c0,0.3,0.1,0.6,0.3,0.8c0.3,0.5,0.9,0.7,1.5,0.7
			c0.7,0,1.3-0.2,1.8-0.5c0.1,0,0.1-0.1,0.2-0.1c0.2,0.4,0.4,0.8,0.6,1.3c-0.2,0.1-0.3,0.2-0.5,0.3c-0.8,0.4-1.7,0.6-2.6,0.6
			c-2-0.1-3.1-1.5-3.3-2.9c-0.1-0.9-0.1-1.8,0.2-2.7c0.1-0.4,0.4-0.8,0.7-1.1c0.5-0.6,1.2-1,2-1.1c0.5-0.1,1.1,0,1.6,0.1
			c1,0.3,1.7,1.1,1.9,2.1c0.1,0.3,0.1,0.7,0.1,1c0,0.4,0,0.7,0,1.1C122,28.6,122,28.6,122,28.7z M117.5,27.3c0.3,0,2.4,0,2.5,0
			c0-0.3,0-0.6-0.1-0.9c-0.3-0.8-1.4-0.8-1.8-0.4C117.7,26.3,117.5,26.8,117.5,27.3z"/>
		<path class="st0" d="M113.5,25.7c0,0.1,0,0.2,0,0.2c0,1.2,0,2.4,0,3.6c0,0.1,0,0.2,0,0.4c0.1,0.2,0.2,0.4,0.5,0.4
			c0.2,0,0.4,0,0.7,0c0.1,0,0.1,0,0.2,0c0.1,0.5,0.1,1,0.2,1.4c-0.2,0.1-0.4,0.1-0.6,0.2c-0.5,0.1-0.9,0.1-1.4,0
			c-0.9-0.1-1.4-0.7-1.6-1.6c0-0.3-0.1-0.5-0.1-0.8c0-1.2,0-2.4,0-3.6c0-0.1,0-0.2,0-0.3c-0.4,0-0.7,0-1.1,0c0-0.5,0-0.9,0-1.4
			c0.4,0,0.7,0,1.1,0c0-0.6,0-1.2,0-1.8c0.2,0,1.7-0.1,2,0c0,0.6,0,1.2,0,1.8c0.4,0,0.9,0,1.3,0c0,0.1,0.1,1.2,0,1.4
			C114.4,25.7,114,25.7,113.5,25.7z"/>
		<path class="st0" d="M67,25.7c-0.4,0-0.7,0-1.1,0c0-0.5,0-0.9,0-1.4c0.4,0,0.7,0,1.1,0c0-0.6,0-1.2,0-1.8c0.2,0,1.7-0.1,2,0
			c0,0.6,0,1.2,0,1.8c0.5,0,0.9,0,1.3,0c0,0.5,0,0.9,0,1.4c-0.2,0-0.4,0-0.6,0c-0.2,0-0.4,0-0.7,0c0,0.1,0,0.1,0,0.2
			c0,1.2,0,2.4,0,3.6c0,0.1,0,0.2,0,0.4c0.1,0.3,0.2,0.5,0.5,0.5c0.2,0,0.4,0,0.6,0c0.1,0,0.1,0,0.2,0c0.1,0.5,0.1,1,0.2,1.4
			c-0.2,0.1-0.4,0.1-0.6,0.2c-0.4,0.1-0.9,0.1-1.4,0c-0.9-0.1-1.5-0.7-1.6-1.6c0-0.2,0-0.5-0.1-0.7c0-1.2,0-2.4,0-3.6
			C67,25.9,67,25.8,67,25.7z"/>
		<path class="st0" d="M83.8,30.3c0.1,0.5,0.1,1,0.2,1.4c-0.1,0-0.1,0-0.2,0.1c-0.6,0.2-1.2,0.2-1.8,0.1c-0.9-0.1-1.4-0.7-1.6-1.5
			c0-0.3-0.1-0.5-0.1-0.8c0-1.2,0-2.4,0-3.6c0-0.1,0-0.2,0-0.2c-0.4,0-0.7,0-1.1,0c0-0.5,0-0.9,0-1.4c0.4,0,0.7,0,1.1,0
			c0-0.6,0-1.2,0-1.8c0.1,0,1.8-0.1,2,0c0,0.6,0,1.2,0,1.8c0.4,0,0.8,0,1.1,0c0,0.2,0.1,1.2,0,1.4c-0.4,0-0.7,0-1.1,0
			c0,0.1,0,0.1,0,0.2c0,1.2,0,2.5,0,3.7c0,0.1,0,0.2,0,0.3c0.1,0.3,0.3,0.5,0.6,0.5c0.2,0,0.4,0,0.6,0
			C83.7,30.4,83.8,30.4,83.8,30.3z"/>
		<path class="st0" d="M88.7,31.8C88.6,31.8,88.6,31.8,88.7,31.8C88,32,87.4,32.1,86.8,32c-0.9-0.1-1.4-0.6-1.6-1.5
			c-0.1-0.3-0.1-0.5-0.1-0.8c0-1.2,0-2.5,0-3.7c0-0.1,0-0.2,0-0.3c-0.3,0-0.6,0-0.9,0c0-0.5,0-0.9,0-1.4c0.3,0,0.6,0,0.9,0
			c0-0.6,0-1.2,0-1.8c0.1,0,1.8-0.1,2,0c0,0.6,0,1.2,0,1.8c0.4,0,0.9,0,1.3,0c0,0.2,0.1,1.2,0,1.4c-0.4,0-0.8,0-1.3,0
			c0,0.1,0,0.1,0,0.2c0,1.2,0,2.4,0,3.6c0,0.1,0,0.3,0,0.4c0.1,0.2,0.2,0.4,0.5,0.4c0.2,0,0.4,0,0.6,0c0.1,0,0.1,0,0.2,0
			C88.6,30.8,88.6,31.3,88.7,31.8z"/>
		<path class="st0" d="M126.6,31.8c-1.3,0-2.6,0-4,0c0-0.4,0-0.8,0-1.2c0.3-0.1,0.6-0.1,1-0.2c0-1.6,0-3.1,0-4.7
			c-0.4-0.1-0.7-0.1-1.1-0.2c0-0.4,0-0.8,0-1.2c1,0,2,0,3,0c0,0.3,0.1,0.7,0.1,1c0.1-0.1,0.1-0.1,0.1-0.2c0.1-0.2,0.3-0.5,0.5-0.6
			c0.3-0.3,0.7-0.4,1.1-0.4c0.2,0,0.4,0,0.6,0.1c-0.1,0.6-0.1,1.2-0.2,1.8c-0.2,0-0.3,0-0.4,0c-0.3,0-0.5,0-0.8,0
			c-0.2,0-0.4,0.1-0.6,0.3c-0.1,0.2-0.2,0.3-0.2,0.5c0,1.1,0,2.1,0,3.2c0,0.1,0,0.1,0,0.2c0.3,0.1,0.6,0.1,1,0.2
			C126.6,31,126.6,31.4,126.6,31.8z"/>
		<path class="st0" d="M109.7,26.1c-0.3,0-0.6,0-0.8,0c-0.2,0-0.4,0-0.5,0.1c-0.2,0-0.3,0.2-0.5,0.3c-0.1,0.1-0.2,0.3-0.2,0.5
			c0,1.1,0,2.1,0,3.2c0,0.1,0,0.1,0,0.2c0.3,0.1,0.6,0.1,1,0.2c0,0.4,0,0.8,0,1.2c-1.3,0-2.6,0-4,0c0-0.4,0-0.8,0-1.2
			c0.3-0.1,0.6-0.1,1-0.2c0-1.6,0-3.1,0-4.7c-0.4-0.1-0.7-0.1-1.1-0.2c0-0.4,0-0.8,0-1.2c1,0,2,0,3,0c0,0.3,0.1,0.7,0.1,1
			c0-0.1,0.1-0.1,0.1-0.2c0.1-0.2,0.3-0.5,0.5-0.6c0.3-0.3,0.7-0.4,1.2-0.4c0.2,0,0.3,0,0.5,0.1C109.8,24.9,109.8,25.5,109.7,26.1z"
			/>
		<path class="st0" d="M46.2,31.9c-1.3,0-2.6,0-4,0c0-0.4,0-0.8,0-1.2c0.3-0.1,0.6-0.1,1-0.2c0-1.6,0-3.1,0-4.7
			c-0.4-0.1-0.7-0.1-1.1-0.2c0-0.4,0-0.8,0-1.2c0.1,0,2.8-0.1,3.1,0c0,2,0,4,0,6.1c0.3,0.1,0.6,0.1,1,0.2
			C46.2,31,46.2,31.4,46.2,31.9z"/>
		<path class="st0" d="M33.7,41.7c0-1.5,0-3,0-4.4c0,0,0,0,0.1,0c0.5,0,0.9,0,1.4,0c1,0.1,1.6,0.7,1.8,1.6c0.1,0.4,0.1,0.9,0,1.3
			c-0.2,0.9-0.9,1.5-1.8,1.5C34.7,41.7,34.2,41.7,33.7,41.7z M34.5,41.1c0.1,0,0.1,0,0.1,0c0.2,0,0.3,0,0.5,0
			c0.6-0.1,0.9-0.4,1.1-0.9c0.1-0.5,0.1-1,0-1.5c-0.1-0.3-0.3-0.6-0.6-0.8c-0.3-0.2-0.7-0.1-1.1-0.1C34.5,38.9,34.5,40,34.5,41.1z"
			/>
		<path class="st0" d="M65.3,38.7c0-0.1,0-0.2,0-0.3c0.2,0,0.4,0,0.6,0c0,0.1,0,0.1,0,0.2c0,1,0,2,0,3c0,0.1,0,0.3,0,0.4
			c-0.1,0.5-0.4,0.8-0.8,1c-0.5,0.2-1.1,0.2-1.6-0.1c-0.1-0.1-0.3-0.2-0.4-0.3c0.1-0.1,0.2-0.3,0.3-0.4c0.1,0.1,0.1,0.1,0.2,0.1
			c0.3,0.2,0.6,0.3,1,0.2c0.3-0.1,0.5-0.3,0.5-0.6c0-0.1,0-0.2,0-0.3c-0.1,0-0.1,0.1-0.1,0.1c-0.5,0.4-1.2,0.3-1.6-0.2
			c-0.2-0.2-0.3-0.4-0.3-0.6c-0.1-0.5-0.1-1,0-1.5c0.1-0.2,0.1-0.3,0.2-0.5c0.4-0.6,1.2-0.7,1.8-0.2C65.2,38.6,65.2,38.6,65.3,38.7z
			 M65.3,40c0-0.2,0-0.4,0-0.6c0-0.1,0-0.2-0.1-0.2c-0.3-0.3-0.9-0.4-1.2,0.1c-0.1,0.1-0.1,0.2-0.1,0.3c-0.1,0.3-0.1,0.6,0,0.8
			c0,0.2,0.1,0.3,0.2,0.4c0.3,0.5,0.9,0.4,1.2,0.1c0.1-0.1,0.1-0.1,0.1-0.2C65.3,40.4,65.3,40.2,65.3,40z"/>
		<path class="st0" d="M90.3,37c0,0.6,0,1.1,0,1.7c0.1,0,0.1-0.1,0.1-0.1c0.4-0.3,0.8-0.4,1.2-0.2c0.4,0.1,0.6,0.4,0.6,0.8
			c0,0.1,0,0.2,0,0.3c0,0.7,0,1.3,0,2c0,0.1,0,0.1,0,0.2c-0.2,0-0.5,0-0.7,0c0-0.1,0-0.2,0-0.2c0-0.6,0-1.2,0-1.8c0-0.1,0-0.2,0-0.3
			c0-0.1-0.1-0.3-0.3-0.3c-0.3-0.1-0.6-0.1-0.8,0.1c-0.1,0.1-0.2,0.2-0.2,0.4c0,0.7,0,1.3,0,2c0,0.1,0,0.2,0,0.2c-0.3,0-0.5,0-0.7,0
			c0-0.2-0.1-4.5,0-4.7c0,0,0.1,0,0.1,0C89.9,37,90.1,37,90.3,37z"/>
		<path class="st0" d="M74.1,41.7c-0.3,0-0.5,0-0.8,0c-0.5-1.5-1.1-3-1.6-4.4c0.1,0,0.6-0.1,0.8,0c0.4,1.1,0.7,2.3,1.1,3.4
			c0,0,0,0,0,0c0.2-0.6,0.4-1.1,0.6-1.7c0.2-0.6,0.4-1.1,0.6-1.7c0.3,0,0.5,0,0.8,0C75.2,38.7,74.7,40.2,74.1,41.7z"/>
		<path class="st0" d="M46.9,41.7c-0.3,0-0.5,0-0.8,0c-0.5-1.5-1.1-3-1.6-4.4c0.1,0,0.1,0,0.2,0c0.2,0,0.4,0,0.7,0
			c0.4,1.2,0.7,2.3,1.1,3.4c0,0,0,0,0,0c0.4-1.1,0.7-2.3,1.1-3.4c0.3,0,0.6,0,0.8,0C48,38.7,47.4,40.2,46.9,41.7z"/>
		<path class="st0" d="M78.7,40.3c-0.7,0-1.4,0-2.1,0c-0.1,0.3,0.1,0.6,0.4,0.8c0.4,0.2,0.8,0.1,1.3-0.3c0.1,0.1,0.2,0.2,0.4,0.4
			c0,0.1-0.1,0.2-0.2,0.3c-0.7,0.6-2.3,0.6-2.6-0.8c-0.1-0.4-0.1-0.9,0.1-1.3c0.3-0.9,1.2-1.1,2-0.8c0.4,0.1,0.6,0.4,0.7,0.8
			C78.7,39.5,78.7,39.9,78.7,40.3z M77.9,39.7c0-0.1,0-0.3-0.1-0.4c-0.1-0.2-0.2-0.4-0.5-0.4c-0.3,0-0.5,0-0.7,0.2
			c-0.1,0.2-0.2,0.3-0.2,0.6C77,39.7,77.4,39.7,77.9,39.7z"/>
		<path class="st0" d="M101.4,40.3c-0.7,0-1.4,0-2.1,0c0,0.3,0.2,0.7,0.5,0.8c0.4,0.2,0.8,0.1,1.2-0.3c0.1,0.1,0.3,0.2,0.4,0.4
			c-0.2,0.3-0.5,0.5-0.9,0.6c-0.3,0.1-0.6,0.1-0.9,0c-0.6-0.1-0.9-0.5-1.1-1.1c-0.1-0.4-0.1-0.9,0-1.3c0.3-0.8,1-1.2,1.8-1
			c0.4,0.1,0.7,0.4,0.8,0.7C101.4,39.4,101.5,39.9,101.4,40.3z M100.7,39.7c0-0.1,0-0.2-0.1-0.3c-0.1-0.3-0.2-0.4-0.5-0.5
			c-0.3,0-0.5,0-0.7,0.3c-0.1,0.1-0.2,0.3-0.2,0.5C99.7,39.7,100.2,39.7,100.7,39.7z"/>
		<path class="st0" d="M40.5,40.3c-0.7,0-1.4,0-2.1,0c-0.1,0.3,0.1,0.6,0.4,0.8c0.5,0.2,0.9,0.1,1.3-0.3c0.1,0.1,0.2,0.2,0.4,0.4
			c-0.1,0.1-0.2,0.2-0.3,0.3c-0.6,0.5-1.6,0.4-2.2-0.1c-0.2-0.2-0.4-0.5-0.4-0.8c0-0.4,0-0.7,0.1-1.1c0.2-0.8,1-1.2,1.8-1
			c0.4,0.1,0.7,0.3,0.9,0.7C40.5,39.4,40.5,39.8,40.5,40.3z M39.8,39.7c0-0.1,0-0.2-0.1-0.3c-0.1-0.2-0.2-0.4-0.5-0.5
			c-0.3,0-0.5,0-0.7,0.3c-0.1,0.2-0.2,0.3-0.2,0.5C38.8,39.7,39.3,39.7,39.8,39.7z"/>
		<path class="st0" d="M95.8,40.3c-0.4,0-0.7,0-1.1,0c-0.4,0-0.7,0-1.1,0c0,0.3,0.2,0.7,0.5,0.8c0.4,0.2,0.8,0.1,1.2-0.3
			c0.1,0.1,0.3,0.2,0.4,0.4c-0.1,0.2-0.2,0.3-0.4,0.4c-0.6,0.4-1.2,0.4-1.8,0c-0.3-0.2-0.5-0.5-0.6-0.8c-0.1-0.5-0.1-1,0-1.4
			c0.3-0.8,1-1.1,1.8-0.9c0.5,0.1,0.8,0.5,0.9,1c0,0.1,0,0.2,0.1,0.3C95.8,39.9,95.8,40.1,95.8,40.3z M95.1,39.7
			c0-0.1,0-0.2-0.1-0.3c-0.1-0.3-0.2-0.4-0.5-0.5c-0.3,0-0.5,0-0.7,0.3c-0.1,0.2-0.2,0.3-0.2,0.5C94.2,39.7,94.6,39.7,95.1,39.7z"/>
		<path class="st0" d="M69.5,40.3c-0.7,0-1.4,0-2.1,0c0,0.3,0.2,0.7,0.5,0.8c0.4,0.2,0.8,0.1,1.2-0.3c0.1,0.1,0.3,0.2,0.4,0.4
			c-0.2,0.2-0.4,0.4-0.6,0.5c-0.4,0.2-0.8,0.2-1.3,0c-0.6-0.2-0.9-0.7-1-1.3c0-0.3,0-0.7,0.1-1c0.2-0.8,1-1.3,1.8-1.1
			c0.5,0.1,0.8,0.4,0.9,0.9C69.6,39.6,69.6,39.9,69.5,40.3z M68.8,39.7c0-0.5-0.3-0.8-0.7-0.8c-0.4,0-0.7,0.4-0.7,0.8
			C67.9,39.7,68.3,39.7,68.8,39.7z"/>
		<path class="st0" d="M60.4,40c0,0.2,0,0.4-0.1,0.6c-0.2,0.9-1,1.2-1.7,1.1c-0.6-0.1-1-0.4-1.2-1c-0.1-0.4-0.1-0.9,0-1.4
			c0.2-0.7,0.8-1.1,1.5-1.1c0.7,0,1.3,0.5,1.4,1.2C60.4,39.7,60.4,39.8,60.4,40z M58,40c0,0.3,0,0.5,0.2,0.8
			c0.1,0.3,0.4,0.4,0.7,0.4c0.3,0,0.5-0.1,0.6-0.4c0.2-0.5,0.2-0.9,0-1.4c-0.1-0.3-0.4-0.5-0.7-0.5c-0.3,0-0.6,0.2-0.7,0.5
			C58.1,39.6,58,39.8,58,40z"/>
		<path class="st0" d="M51.4,40c0,0.2-0.1,0.4-0.1,0.7c-0.2,0.8-0.9,1.2-1.7,1.1c-0.6-0.1-1-0.4-1.2-1c-0.1-0.5-0.1-0.9,0-1.4
			c0.3-0.7,0.9-1.1,1.6-1c0.8,0.1,1.2,0.6,1.3,1.3C51.4,39.7,51.4,39.9,51.4,40C51.4,40,51.4,40,51.4,40z M49,40
			c0,0.2,0,0.5,0.1,0.7c0.1,0.2,0.2,0.3,0.4,0.4c0.4,0.1,0.8,0,0.9-0.4c0.1-0.3,0.1-0.6,0.1-0.9c0-0.2-0.1-0.4-0.2-0.5
			c-0.1-0.2-0.3-0.3-0.5-0.3c-0.4-0.1-0.7,0.1-0.8,0.4C49.1,39.6,49,39.8,49,40z"/>
		<path class="st0" d="M56.8,39.3c-0.3,0-0.5,0-0.7,0c0,0,0,0,0,0c-0.1-0.4-0.6-0.6-1-0.3c-0.2,0.2-0.2,0.5,0,0.6
			c0.2,0.1,0.4,0.1,0.5,0.2c0.2,0.1,0.4,0.1,0.6,0.2c0.3,0.1,0.5,0.4,0.5,0.8c0,0.4-0.2,0.7-0.5,0.8c-0.6,0.3-1.2,0.3-1.7,0
			c-0.3-0.1-0.4-0.4-0.5-0.7c0-0.1,0-0.1,0-0.2c0.2,0,0.5,0,0.7,0c0,0,0,0.1,0,0.1c0,0.1,0.1,0.2,0.2,0.3c0.3,0.2,0.6,0.2,0.9,0
			c0.1-0.1,0.2-0.2,0.2-0.3c0-0.2-0.1-0.3-0.2-0.3c-0.2-0.1-0.3-0.1-0.5-0.2c-0.2-0.1-0.5-0.1-0.7-0.2c-0.7-0.3-0.6-1.1-0.1-1.5
			c0.3-0.2,0.7-0.3,1-0.2c0.3,0,0.6,0.1,0.8,0.3C56.7,38.8,56.8,39,56.8,39.3z"/>
		<path class="st0" d="M84.1,39.3c-0.3,0-0.5,0-0.7,0c-0.1-0.1-0.1-0.2-0.2-0.3c-0.2-0.2-0.7-0.2-0.9,0c-0.2,0.2-0.2,0.5,0.1,0.6
			c0.2,0.1,0.4,0.1,0.6,0.2c0.2,0.1,0.4,0.1,0.6,0.2c0.3,0.1,0.5,0.4,0.5,0.8c0,0.4-0.2,0.7-0.5,0.8c-0.6,0.3-1.2,0.3-1.7,0
			c-0.2-0.1-0.4-0.3-0.5-0.6c0-0.1,0-0.2-0.1-0.3c0.3,0,0.5,0,0.7,0c0.2,0.5,0.6,0.7,1,0.5c0.2-0.1,0.3-0.2,0.3-0.3
			c0-0.2-0.1-0.3-0.2-0.3c-0.2-0.1-0.3-0.1-0.5-0.2c-0.3-0.1-0.5-0.1-0.8-0.3c-0.2-0.1-0.4-0.3-0.4-0.5c-0.1-0.3,0-0.6,0.3-0.9
			c0.3-0.3,0.7-0.4,1.1-0.3c0.3,0,0.6,0.1,0.8,0.3C83.9,38.8,84.1,39,84.1,39.3z"/>
		<path class="st0" d="M88.3,40.6c0.2,0,0.4,0,0.7,0c0,0.1,0,0.1,0,0.2c-0.1,0.3-0.2,0.5-0.4,0.6c-0.6,0.6-2,0.5-2.4-0.6
			c0,0,0-0.1,0-0.1c-0.1-0.4-0.1-0.9,0-1.3c0.2-0.7,0.7-1.2,1.6-1.1c0.3,0,0.6,0.1,0.8,0.3c0.3,0.2,0.4,0.5,0.4,0.9
			c-0.2,0-0.5,0-0.7,0c0-0.1,0-0.1,0-0.2c-0.1-0.3-0.3-0.5-0.6-0.5c-0.3,0-0.6,0.1-0.7,0.4c-0.1,0.1-0.1,0.3-0.1,0.4
			c0,0.3,0,0.6,0,0.8c0.1,0.5,0.5,0.7,0.9,0.6C88.1,41.1,88.2,40.9,88.3,40.6z"/>
		<path class="st0" d="M52,38.4c0.2,0,0.5,0,0.7,0c0,0.1,0,0.2,0,0.3c0.1-0.1,0.2-0.2,0.3-0.2c0.1-0.1,0.2-0.1,0.3-0.1
			c0.1,0,0.2,0,0.4,0c0,0.2,0,0.5,0,0.7c-0.1,0-0.2,0-0.2,0c-0.1,0-0.3,0-0.4,0.1c-0.2,0.1-0.3,0.2-0.3,0.5c0,0.6,0,1.2,0,1.9
			c0,0.1,0,0.1,0,0.2c-0.2,0-0.5,0-0.7,0C52,40.6,52,39.5,52,38.4z"/>
		<path class="st0" d="M96.5,38.4c0.2,0,0.5,0,0.7,0c0,0.1,0,0.2,0,0.3c0.1-0.1,0.2-0.2,0.3-0.2c0.1-0.1,0.2-0.1,0.3-0.1
			c0.1,0,0.2,0,0.4,0c0,0.2,0,0.5,0,0.7c-0.1,0-0.2,0-0.2,0c-0.1,0-0.3,0-0.4,0.1c-0.2,0.1-0.3,0.2-0.3,0.5c0,0.6,0,1.2,0,1.9
			c0,0.1,0,0.1,0,0.2c-0.2,0-0.5,0-0.7,0C96.5,40.6,96.5,39.5,96.5,38.4z"/>
		<path class="st0" d="M41.1,38.4c0.2,0,0.4,0,0.7,0c0,0.1,0,0.2,0.1,0.3c0.3-0.3,0.6-0.5,1-0.4c0,0.2,0,0.5,0,0.7
			c-0.2,0-0.3,0-0.4,0c-0.1,0-0.3,0.1-0.4,0.2c-0.1,0.1-0.2,0.2-0.2,0.4c0,0.6,0,1.3,0,1.9c0,0.1,0,0.1,0,0.2c-0.2,0-0.5,0-0.7,0
			C41.1,40.6,41.1,39.5,41.1,38.4z"/>
		<path class="st0" d="M103.8,39c-0.2,0-0.3,0-0.4,0c-0.1,0-0.2,0.1-0.3,0.1c-0.1,0.1-0.2,0.2-0.2,0.4c0,0.6,0,1.3,0,1.9
			c0,0.1,0,0.1,0,0.2c-0.3,0-0.5,0-0.7,0c0-1.1,0-2.2,0-3.3c0.2,0,0.4,0,0.7,0c0,0.1,0,0.2,0.1,0.3c0.3-0.3,0.6-0.5,1-0.4
			C103.8,38.6,103.8,38.8,103.8,39z"/>
		<path class="st0" d="M61.7,41.7c-0.3,0-0.5,0-0.7,0c0-1.1,0-2.2,0-3.3c0.2,0,0.5,0,0.7,0c0,0.1,0,0.2,0,0.3c0.3-0.3,0.6-0.5,1-0.4
			c0,0.2,0,0.5,0,0.7c-0.1,0-0.2,0-0.2,0c-0.1,0-0.3,0-0.4,0.1c-0.2,0.1-0.4,0.3-0.4,0.5c0,0.6,0,1.2,0,1.8
			C61.7,41.5,61.7,41.6,61.7,41.7z"/>
		<path class="st0" d="M80,41.7c-0.3,0-0.5,0-0.7,0c0-0.1-0.1-3.1,0-3.3c0.2,0,0.4,0,0.7,0c0,0.1,0,0.2,0,0.3
			c0.2-0.1,0.3-0.2,0.5-0.3c0.2-0.1,0.4-0.1,0.5,0c0,0.2,0,0.4,0,0.7c-0.1,0-0.2,0-0.2,0c-0.1,0-0.3,0-0.4,0.1
			c-0.2,0.1-0.3,0.3-0.3,0.5c0,0.6,0,1.2,0,1.8C80,41.5,80,41.6,80,41.7z"/>
		<path class="st0" d="M43.2,21c0.7,0,1.3,0,2,0c0,0.5,0,1,0,1.5c-0.7,0-1.3,0-2,0C43.2,22.3,43.2,21.2,43.2,21z"/>
		<path class="st0" d="M84.8,38.4c0.2,0,0.5,0,0.7,0c0,1.1,0,2.2,0,3.3c-0.2,0-0.5,0-0.7,0C84.8,40.6,84.8,39.5,84.8,38.4z"/>
		<path class="st0" d="M70.2,40.1c0-0.2,0-0.4,0-0.6c0.5,0,1.1,0,1.6,0c0,0.2,0,0.4,0,0.6C71.3,40.1,70.8,40.1,70.2,40.1z"/>
		<path class="st0" d="M85.1,37.1c0.3,0,0.4,0.2,0.4,0.4c0,0.2-0.2,0.4-0.4,0.4c-0.3,0-0.4-0.2-0.4-0.4
			C84.7,37.2,84.9,37.1,85.1,37.1z"/>
	</g>
	<g>
		<path class="st0" d="M19.2,23.6l0.1-0.1c0,0,0-0.1,0-0.1c-0.2-0.2-1.4-1-1.8-1.2c-0.5-0.3-0.9-0.5-1.4-0.7c-1-0.4-2-0.7-3-0.8
			c-1-0.1-2.1-0.1-3.1,0c-3,0.4-5.4,1.8-7.3,4.2c-1.5,1.9-2.4,4.1-2.5,6.5C0,32.7,0.3,34,0.9,35.2c1.4,2.8,4.4,4.4,7.5,3.9
			c0.7-0.1,1.4-0.3,2.1-0.7c-0.1-0.1-0.2-0.2-0.3-0.2c-2.2-2.1-3.1-4.6-2.6-7.6c0.6-3.6,3.5-6.3,6.9-6.8c0.1,0,0.1,0,0.2,0
			c0.4-0.1,0.8-0.1,1.2-0.1c1.3,0.1,2.6,0.5,2.9,0.6c0,0,0,0,0.1,0l0.2-0.3C19.1,23.8,19.2,23.7,19.2,23.6
			C19.2,23.6,19.2,23.6,19.2,23.6z"/>
		<path class="st1" d="M3.8,40.4l-0.1,0.1c0,0,0,0.1,0,0.1c0.2,0.2,1.4,1,1.8,1.2C6,42.1,6.5,42.3,7,42.6c1,0.4,2,0.7,3,0.8
			c1,0.1,2.1,0.1,3.1,0c3-0.4,5.4-1.8,7.3-4.2c1.5-1.9,2.4-4.1,2.5-6.5c0.1-1.3-0.1-2.6-0.7-3.9c-1.4-2.8-4.4-4.4-7.5-3.9
			c-0.7,0.1-1.4,0.3-2.1,0.7c0.1,0.1,0.2,0.2,0.3,0.2c2.2,2.1,3.1,4.6,2.6,7.6c-0.6,3.6-3.5,6.3-6.9,6.8c-0.1,0-0.1,0-0.2,0
			c-0.4,0.1-0.8,0.1-1.2,0.1c-1.3-0.1-2.6-0.5-2.9-0.6c0,0,0,0-0.1,0L4,40.2C4,40.2,3.9,40.3,3.8,40.4C3.9,40.4,3.8,40.4,3.8,40.4z"
			/>
	</g>
</g>
</svg>
