<?xml version="1.0" encoding="utf-8"?>
<!-- Generator: Adobe Illustrator 24.3.0, SVG Export Plug-In . SVG Version: 6.00 Build 0)  -->
<svg version="1.1" id="Ebene_1" xmlns="http://www.w3.org/2000/svg" xmlns:xlink="http://www.w3.org/1999/xlink" x="0px" y="0px"
	 viewBox="0 0 311.8 101.7" style="enable-background:new 0 0 311.8 101.7;" xml:space="preserve">
<style type="text/css">
	.st0{fill:#015765;}
</style>
<g>
	<path class="st0" d="M311.8,27.5c-8.9-0.7-16-5-16-5l-5.2,10.7c-0.5,1-1.1,2.4-1.1,2.4l0,0c0,0,0.1-1.2,0.1-2.5v-3.7l-15.3-6.9
		l-5.8,11.9l6.7,3l0,46.2l14.4-3.1V45.4l4.6-8.9c0,0,4.5,3,11.5,3.5L311.8,27.5L311.8,27.5z"/>
	<path class="st0" d="M117.7,35.2h-8.4l5.2-11.4h3.2v-4.4l14.5-7.9v12.3h9.3l-5.2,11.4h-4.1v31.8c3.1,2.5,8.9,4.2,8.9,4.1l-6.2,12.6
		c0,0-10.9-3.2-17.2-8.8V35.2L117.7,35.2z"/>
	<path class="st0" d="M182,94.7V30.4l-17.6-8l-4.3,8.8c-0.5,1-1.1,2.4-1.1,2.4l-0.1,0c0,0,0.1-0.9,0.1-2.5l0-19.3
		c0-7.3-1.8-12-1.8-12l-13.7,7.2c0,0,1.1,5,1.1,9.1l0,67.3l14.4-3.2V42.9l3.6-6.8l5,2.3v63.2L182,94.7L182,94.7z"/>
	<path class="st0" d="M18.3,28.6c0,0-0.3,0.9-0.8,2.2c-0.8,2.3-2,6.5-2,11.6c0,21.3,12.3,30.8,27.9,30.8c3.6,0,5.2-0.7,5.2-0.7
		s2.2-6.4,2.2-15c0-12.7-5.3-18.5-8.8-19.8l-4.6,3.3l4.6,16.8L29,67.4L18.8,30.7C18.5,29.6,18.4,28.6,18.3,28.6L18.3,28.6L18.3,28.6
		z M35.7,35.6l13.4-10.1c8,1.8,16.9,12.4,16.9,24.9c0,12.4-2.4,18.5-2.4,18.5L44.4,83.1c0,0-4,0.5-9,0.5C8.3,83.6,0,63.9,0,48.6
		c0-9.7,2.8-14.5,2.8-14.5l14.1-10.2l-1.3-4.8l22-16.3C49.5,8.1,65,10.3,65,10.3L49.9,21.5c0,0-10.2-1.7-18.8-5.9
		c-0.7-0.4-1.5-0.8-1.5-0.8l0,0c0,0,0.3,0.8,0.5,1.6L35.7,35.6L35.7,35.6z"/>
	<path class="st0" d="M255.2,50.3l-7.8,2.3V35.6c0-2.7-0.1-5-0.1-5l0.1,0c0,0,0.8,2.2,1.7,4.6L255.2,50.3L255.2,50.3z M265.5,71.2
		c0,0-11-2-18.1-6.6v-5.8l23.3-7l-11.7-29.3L233,30.4v41.7c10.3,8.1,26.4,11.5,26.4,11.5L265.5,71.2L265.5,71.2z"/>
	<path class="st0" d="M211.5,70.5c0,0-4.3-0.6-7.6-3.2V36.1l7.6,3.4V70.5L211.5,70.5z M205.9,83.1l4.6-9.1c0.4-0.8,1.1-2.3,1.1-2.3
		s-0.1,1.7-0.1,2.5v9.4l14.2-3.2V31.7l-20.4-9.2l-15.8,11.8v41.1C196.1,80.5,205.9,83.1,205.9,83.1L205.9,83.1z"/>
	<path class="st0" d="M93.7,71c-4.9-1-7.6-3.2-7.6-3.2V36.1l7.6,3.4V71L93.7,71z M107.9,70.3V31.7l-20.4-9.2L71.7,34.3v41.1
		c7.2,5.5,18.3,8.3,18.3,8.3L107.9,70.3L107.9,70.3z"/>
</g>
</svg>
