<?xml version="1.0" encoding="UTF-8"?>
<svg xmlns="http://www.w3.org/2000/svg" xmlns:xlink="http://www.w3.org/1999/xlink" width="128px" height="32px" viewBox="0 0 128 32" version="1.1">
<g id="surface1">
<path style=" stroke:none;fill-rule:nonzero;fill:rgb(0%,65.490196%,37.647059%);fill-opacity:1;" d="M 116.167969 0.90625 C 113.394531 0.90625 111.03125 1.738281 109.292969 3.050781 L 109.3125 3.089844 C 110.574219 2.464844 112.621094 2.015625 114.503906 2.015625 C 120.878906 2.015625 126.839844 6.28125 126.839844 13.703125 C 126.839844 13.703125 126.875 13.699219 126.878906 13.703125 C 126.941406 13.253906 126.992188 12.710938 126.992188 12.265625 C 126.992188 4.621094 121.492188 0.90625 116.167969 0.90625 Z M 115 5.3125 C 114.265625 5.359375 113.65625 6.195312 113.640625 7.167969 C 113.625 8.136719 114.195312 8.902344 114.925781 8.855469 C 115.691406 8.804688 116.28125 8.003906 116.304688 7.015625 C 116.324219 6.027344 115.742188 5.261719 115 5.3125 Z M 106.382812 5.445312 C 103.789062 7.59375 102.722656 10.582031 102.722656 13.894531 C 102.722656 19.746094 107.273438 25.289062 114.445312 25.289062 C 119.710938 25.289062 124.300781 22.238281 125.898438 17.207031 L 125.882812 17.1875 C 124.671875 19.621094 122.515625 21.523438 119.960938 22.511719 C 120.589844 19.046875 121.441406 15.6875 121.878906 11.652344 L 121.839844 11.613281 C 121.367188 12.222656 119.351562 13.328125 117.949219 13.605469 C 117.691406 16.296875 117.828125 19.160156 117.320312 23.105469 C 117.066406 23.195312 116.550781 23.300781 116.207031 23.316406 C 116.445312 18.644531 117.007812 14.4375 117.222656 11.5 C 117.839844 11.542969 118.914062 11.855469 119.40625 12.148438 C 120.152344 12.089844 121.167969 11.726562 121.570312 11.402344 L 121.570312 11.363281 C 119.910156 10.523438 117.128906 9.601562 114.75 9.601562 C 113.128906 9.601562 110.425781 10.523438 108.199219 11.765625 L 108.199219 11.785156 C 108.464844 12.003906 109.074219 12.242188 109.5625 12.265625 C 110.375 11.875 111.539062 11.542969 112.261719 11.480469 C 112.308594 13.046875 112.980469 18.824219 113.046875 23.085938 C 112.726562 23.035156 112.15625 22.878906 111.898438 22.78125 C 111.652344 18.816406 111.847656 15.625 111.648438 13.585938 C 110.375 13.40625 108.597656 12.621094 108.085938 12.09375 L 108.046875 12.128906 C 108.492188 16.886719 108.949219 18.453125 109.386719 21.707031 C 106.109375 19.753906 104.140625 16.453125 104.140625 12.761719 C 104.140625 9.78125 104.859375 7.304688 106.398438 5.464844 Z M 121.550781 7.609375 C 120.890625 7.691406 120.386719 8.425781 120.421875 9.257812 C 120.457031 10.085938 121.011719 10.703125 121.667969 10.636719 C 122.332031 10.570312 122.847656 9.832031 122.816406 8.988281 C 122.785156 8.144531 122.21875 7.527344 121.550781 7.609375 Z M 108.546875 7.78125 C 107.851562 7.761719 107.304688 8.414062 107.261719 9.316406 C 107.222656 10.175781 107.675781 10.824219 108.355469 10.867188 C 108.972656 10.902344 109.535156 10.359375 109.617188 9.390625 C 109.691406 8.523438 109.207031 7.800781 108.546875 7.78125 Z M 108.546875 7.78125 "/>
<path style=" stroke:none;fill-rule:nonzero;fill:rgb(0%,65.490196%,37.647059%);fill-opacity:1;" d="M 45.21875 24.714844 L 45.066406 25.460938 L 45.792969 25.460938 L 45.945312 24.714844 Z M 51.425781 24.714844 C 51.425781 24.816406 51.40625 24.90625 51.386719 25.023438 C 51.359375 25.160156 51.300781 25.449219 51.269531 25.578125 L 50.601562 28.777344 C 50.570312 28.925781 50.5 29.203125 50.46875 29.332031 C 50.4375 29.449219 50.410156 29.511719 50.371094 29.621094 L 51.175781 29.621094 C 51.167969 29.476562 51.183594 29.300781 51.269531 28.890625 C 51.414062 28.171875 51.601562 27.71875 51.828125 27.417969 C 52.058594 27.09375 52.382812 26.859375 52.574219 26.859375 C 52.703125 26.859375 52.785156 26.953125 52.785156 27.109375 C 52.785156 27.199219 52.765625 27.289062 52.707031 27.570312 L 52.441406 28.777344 C 52.339844 29.257812 52.296875 29.441406 52.230469 29.621094 L 53.015625 29.621094 C 53.027344 29.40625 53.046875 29.246094 53.148438 28.777344 L 53.4375 27.453125 C 53.53125 27.011719 53.550781 26.929688 53.550781 26.785156 C 53.550781 26.429688 53.308594 26.210938 52.9375 26.210938 C 52.457031 26.210938 52.066406 26.445312 51.65625 27.015625 C 51.710938 26.828125 51.78125 26.53125 51.808594 26.402344 L 51.980469 25.578125 C 52.082031 25.082031 52.132812 24.925781 52.210938 24.714844 Z M 29.050781 25.058594 C 29.132812 25.277344 29.148438 25.300781 29.242188 25.921875 L 29.261719 26.054688 L 29.835938 29.621094 L 30.527344 29.621094 L 32.613281 25.960938 C 32.667969 25.863281 32.835938 25.574219 32.941406 25.40625 C 33.035156 25.242188 33.074219 25.175781 33.167969 25.058594 L 32.230469 25.058594 C 32.175781 25.238281 32.082031 25.441406 31.925781 25.75 L 30.371094 28.71875 L 30.007812 25.921875 C 29.96875 25.585938 29.953125 25.378906 29.953125 25.214844 C 29.953125 25.1875 29.964844 25.136719 29.96875 25.058594 Z M 35.21875 26.210938 C 34.753906 26.210938 34.394531 26.375 34.050781 26.746094 C 33.667969 27.175781 33.398438 27.890625 33.398438 28.527344 C 33.398438 29.253906 33.773438 29.675781 34.394531 29.675781 C 34.847656 29.675781 35.398438 29.472656 35.945312 29.101562 L 35.71875 28.640625 C 35.300781 28.929688 34.90625 29.082031 34.605469 29.082031 C 34.269531 29.082031 34.109375 28.878906 34.109375 28.46875 C 34.109375 28.4375 34.109375 28.375 34.109375 28.296875 C 35.230469 28.285156 36.101562 27.695312 36.101562 26.957031 C 36.101562 26.484375 35.773438 26.210938 35.21875 26.210938 Z M 39.738281 26.210938 C 39.316406 26.230469 39.011719 26.445312 38.609375 27.015625 L 38.78125 26.285156 L 38.054688 26.285156 C 38.046875 26.464844 38.015625 26.675781 37.921875 27.148438 L 37.574219 28.777344 C 37.519531 29.03125 37.410156 29.449219 37.34375 29.621094 L 38.128906 29.621094 C 38.15625 29.152344 38.394531 28.183594 38.570312 27.761719 C 38.785156 27.261719 39.207031 26.898438 39.546875 26.898438 L 39.605469 26.898438 Z M 42.34375 26.210938 C 41.515625 26.210938 40.910156 26.664062 40.910156 27.300781 C 40.910156 27.625 41.078125 27.828125 41.519531 28.066406 C 42.042969 28.355469 42.097656 28.410156 42.097656 28.625 C 42.097656 28.925781 41.777344 29.160156 41.367188 29.160156 C 41.09375 29.160156 40.855469 29.117188 40.601562 29.007812 L 40.351562 29.523438 C 40.59375 29.632812 40.925781 29.675781 41.328125 29.675781 C 42.179688 29.675781 42.824219 29.171875 42.824219 28.488281 C 42.824219 28.078125 42.675781 27.855469 42.132812 27.589844 C 41.730469 27.390625 41.628906 27.3125 41.636719 27.148438 C 41.648438 26.902344 41.90625 26.707031 42.269531 26.707031 C 42.515625 26.707031 42.683594 26.742188 42.902344 26.824219 L 43.109375 26.324219 C 42.871094 26.242188 42.625 26.210938 42.34375 26.210938 Z M 48.742188 26.210938 C 48.175781 26.210938 47.742188 26.359375 47.421875 26.707031 C 47.050781 27.113281 46.808594 27.851562 46.808594 28.527344 C 46.808594 29.226562 47.207031 29.675781 47.824219 29.675781 C 48.242188 29.675781 48.707031 29.519531 49.242188 29.179688 L 49.03125 28.699219 C 48.6875 28.941406 48.261719 29.101562 47.996094 29.101562 C 47.703125 29.101562 47.535156 28.875 47.535156 28.46875 C 47.535156 27.96875 47.71875 27.386719 47.957031 27.070312 C 48.140625 26.824219 48.378906 26.707031 48.683594 26.707031 C 48.910156 26.707031 49.136719 26.769531 49.355469 26.878906 L 49.605469 26.363281 C 49.351562 26.261719 49.050781 26.210938 48.742188 26.210938 Z M 56.75 26.210938 C 56.285156 26.210938 55.902344 26.375 55.5625 26.746094 C 55.179688 27.175781 54.929688 27.890625 54.929688 28.527344 C 54.929688 29.253906 55.304688 29.675781 55.925781 29.675781 C 56.378906 29.675781 56.929688 29.472656 57.476562 29.101562 L 57.230469 28.640625 C 56.8125 28.929688 56.4375 29.082031 56.136719 29.082031 C 55.800781 29.082031 55.640625 28.878906 55.640625 28.46875 C 55.640625 28.4375 55.640625 28.375 55.640625 28.296875 C 56.761719 28.285156 57.632812 27.695312 57.632812 26.957031 C 57.632812 26.484375 57.304688 26.210938 56.75 26.210938 Z M 61.289062 26.210938 C 60.863281 26.230469 60.5625 26.445312 60.160156 27.015625 L 60.332031 26.285156 L 59.605469 26.285156 C 59.597656 26.464844 59.566406 26.675781 59.46875 27.148438 L 59.105469 28.777344 C 59.050781 29.03125 58.957031 29.449219 58.894531 29.621094 L 59.679688 29.621094 C 59.707031 29.152344 59.941406 28.183594 60.121094 27.761719 C 60.332031 27.261719 60.753906 26.898438 61.097656 26.898438 L 61.136719 26.898438 Z M 69.164062 26.210938 C 68.667969 26.210938 68.21875 26.5 67.820312 27.050781 C 67.863281 26.9375 67.886719 26.808594 67.9375 26.613281 L 68.011719 26.285156 L 67.285156 26.285156 C 67.285156 26.445312 67.246094 26.683594 67.152344 27.148438 L 66.804688 28.777344 C 66.71875 29.222656 66.644531 29.449219 66.578125 29.621094 L 67.363281 29.621094 C 67.363281 29.46875 67.394531 29.257812 67.457031 28.929688 C 67.59375 28.257812 67.789062 27.75 68.011719 27.4375 C 68.238281 27.121094 68.585938 26.859375 68.777344 26.859375 C 68.902344 26.859375 68.972656 26.9375 68.972656 27.109375 C 68.972656 27.199219 68.941406 27.375 68.894531 27.609375 L 68.644531 28.777344 C 68.550781 29.226562 68.484375 29.433594 68.414062 29.621094 L 69.21875 29.621094 C 69.226562 29.421875 69.257812 29.25 69.355469 28.777344 L 69.640625 27.378906 C 69.710938 27.078125 69.738281 26.921875 69.738281 26.785156 C 69.738281 26.414062 69.53125 26.210938 69.164062 26.210938 Z M 72.839844 26.210938 C 72.410156 26.210938 72.042969 26.394531 71.75 26.765625 C 71.398438 27.210938 71.136719 28.023438 71.136719 28.699219 C 71.136719 29.324219 71.441406 29.675781 71.941406 29.675781 C 72.417969 29.675781 72.824219 29.414062 73.183594 28.851562 C 73.101562 29.125 73.066406 29.257812 73.03125 29.410156 L 72.992188 29.582031 C 72.84375 30.285156 72.585938 30.519531 71.976562 30.519531 C 71.648438 30.519531 71.382812 30.472656 71.039062 30.308594 L 70.789062 30.84375 C 71.125 31.007812 71.527344 31.09375 71.976562 31.09375 C 72.414062 31.09375 72.78125 30.992188 73.070312 30.789062 C 73.40625 30.554688 73.527344 30.304688 73.683594 29.582031 L 74.21875 27.148438 C 74.296875 26.789062 74.363281 26.445312 74.429688 26.285156 L 73.683594 26.285156 L 73.625 26.574219 C 73.40625 26.308594 73.183594 26.210938 72.839844 26.210938 Z M 77.339844 26.210938 C 76.515625 26.210938 75.90625 26.664062 75.90625 27.300781 C 75.90625 27.625 76.054688 27.828125 76.5 28.066406 C 77.019531 28.355469 77.09375 28.410156 77.09375 28.625 C 77.09375 28.925781 76.773438 29.160156 76.363281 29.160156 C 76.089844 29.160156 75.851562 29.117188 75.597656 29.007812 L 75.347656 29.523438 C 75.589844 29.632812 75.921875 29.675781 76.328125 29.675781 C 77.175781 29.675781 77.820312 29.171875 77.820312 28.488281 C 77.820312 28.078125 77.671875 27.855469 77.132812 27.589844 C 76.726562 27.390625 76.605469 27.3125 76.613281 27.148438 C 76.628906 26.902344 76.902344 26.707031 77.265625 26.707031 C 77.511719 26.707031 77.679688 26.742188 77.898438 26.824219 L 78.109375 26.324219 C 77.867188 26.242188 77.621094 26.210938 77.339844 26.210938 Z M 81.019531 26.210938 C 80.589844 26.210938 80.242188 26.394531 79.945312 26.765625 C 79.597656 27.210938 79.332031 28.023438 79.332031 28.699219 C 79.332031 29.324219 79.621094 29.675781 80.121094 29.675781 C 80.597656 29.675781 81 29.414062 81.363281 28.851562 C 81.28125 29.125 81.246094 29.257812 81.210938 29.410156 L 81.171875 29.582031 C 81.023438 30.285156 80.765625 30.519531 80.15625 30.519531 C 79.828125 30.519531 79.582031 30.472656 79.238281 30.308594 L 78.96875 30.84375 C 79.304688 31.007812 79.707031 31.09375 80.15625 31.09375 C 80.59375 31.09375 80.980469 30.992188 81.269531 30.789062 C 81.605469 30.554688 81.722656 30.304688 81.882812 29.582031 L 82.398438 27.148438 C 82.476562 26.785156 82.566406 26.433594 82.628906 26.285156 L 81.882812 26.285156 L 81.824219 26.574219 C 81.605469 26.308594 81.363281 26.210938 81.019531 26.210938 Z M 86.113281 26.210938 C 85.691406 26.230469 85.386719 26.445312 84.984375 27.015625 L 85.15625 26.285156 L 84.429688 26.285156 C 84.421875 26.464844 84.390625 26.675781 84.296875 27.148438 L 83.949219 28.777344 C 83.894531 29.03125 83.785156 29.449219 83.71875 29.621094 L 84.503906 29.621094 C 84.53125 29.152344 84.769531 28.183594 84.945312 27.761719 C 85.160156 27.261719 85.582031 26.898438 85.921875 26.898438 L 85.980469 26.898438 Z M 93.851562 26.210938 C 93.382812 26.210938 93.015625 26.433594 92.628906 26.976562 C 92.667969 26.851562 92.714844 26.714844 92.742188 26.59375 L 92.800781 26.285156 L 92.070312 26.285156 C 92.070312 26.472656 92.035156 26.6875 91.9375 27.148438 L 91.304688 30.175781 C 91.203125 30.660156 91.144531 30.867188 91.074219 31.035156 L 91.84375 31.035156 C 91.855469 30.851562 91.902344 30.617188 91.996094 30.175781 L 92.167969 29.332031 C 92.378906 29.578125 92.613281 29.675781 92.933594 29.675781 C 93.390625 29.675781 93.757812 29.511719 94.046875 29.140625 C 94.386719 28.695312 94.65625 27.863281 94.65625 27.207031 C 94.65625 26.570312 94.347656 26.210938 93.851562 26.210938 Z M 98.355469 26.210938 C 97.882812 26.210938 97.5 26.433594 97.109375 26.976562 C 97.152344 26.851562 97.195312 26.714844 97.226562 26.59375 L 97.28125 26.285156 L 96.574219 26.285156 C 96.574219 26.472656 96.519531 26.6875 96.421875 27.148438 L 95.789062 30.175781 C 95.683594 30.660156 95.625 30.867188 95.558594 31.035156 L 96.34375 31.035156 C 96.355469 30.851562 96.382812 30.617188 96.476562 30.175781 L 96.667969 29.332031 C 96.882812 29.578125 97.113281 29.675781 97.433594 29.675781 C 97.894531 29.675781 98.257812 29.511719 98.546875 29.140625 C 98.886719 28.695312 99.140625 27.863281 99.140625 27.207031 C 99.140625 26.570312 98.847656 26.210938 98.355469 26.210938 Z M 102.28125 26.210938 C 101.816406 26.210938 101.457031 26.375 101.113281 26.746094 C 100.730469 27.175781 100.480469 27.890625 100.480469 28.527344 C 100.480469 29.253906 100.855469 29.675781 101.476562 29.675781 C 101.929688 29.675781 102.480469 29.472656 103.027344 29.101562 L 102.78125 28.640625 C 102.363281 28.929688 101.96875 29.082031 101.667969 29.082031 C 101.332031 29.082031 101.171875 28.878906 101.171875 28.46875 C 101.171875 28.4375 101.191406 28.375 101.191406 28.296875 C 102.3125 28.285156 103.164062 27.695312 103.164062 26.957031 C 103.164062 26.484375 102.835938 26.210938 102.28125 26.210938 Z M 44.855469 26.285156 C 44.855469 26.382812 44.863281 26.4375 44.835938 26.574219 C 44.808594 26.75 44.757812 26.972656 44.71875 27.148438 L 44.375 28.777344 C 44.28125 29.21875 44.214844 29.449219 44.144531 29.621094 L 44.949219 29.621094 C 44.957031 29.457031 44.988281 29.230469 45.085938 28.777344 L 45.429688 27.148438 C 45.492188 26.84375 45.597656 26.449219 45.660156 26.285156 Z M 62.765625 26.285156 C 62.757812 26.394531 62.757812 26.464844 62.746094 26.574219 C 62.730469 26.699219 62.664062 27 62.628906 27.148438 L 62.34375 28.507812 C 62.277344 28.816406 62.246094 28.984375 62.246094 29.121094 C 62.246094 29.457031 62.492188 29.675781 62.839844 29.675781 C 63.332031 29.675781 63.832031 29.355469 64.199219 28.796875 C 64.148438 28.960938 64.066406 29.199219 64.046875 29.292969 L 63.992188 29.621094 L 64.699219 29.621094 C 64.707031 29.441406 64.832031 28.777344 64.832031 28.777344 L 65.179688 27.148438 C 65.273438 26.710938 65.332031 26.464844 65.40625 26.285156 L 64.621094 26.285156 C 64.617188 26.503906 64.582031 26.703125 64.507812 27.050781 C 64.363281 27.714844 64.195312 28.15625 63.992188 28.449219 C 63.75 28.78125 63.429688 29.027344 63.222656 29.027344 C 63.101562 29.027344 63.011719 28.945312 63.011719 28.796875 C 63.011719 28.707031 63.042969 28.542969 63.089844 28.316406 L 63.339844 27.148438 C 63.382812 26.945312 63.460938 26.621094 63.472656 26.574219 C 63.507812 26.457031 63.527344 26.390625 63.570312 26.285156 Z M 87.550781 26.285156 C 87.542969 26.394531 87.546875 26.464844 87.53125 26.574219 C 87.515625 26.699219 87.449219 27 87.417969 27.148438 L 87.128906 28.507812 C 87.066406 28.816406 87.035156 28.984375 87.035156 29.121094 C 87.035156 29.457031 87.28125 29.675781 87.628906 29.675781 C 88.121094 29.675781 88.617188 29.355469 88.988281 28.796875 C 88.933594 28.960938 88.855469 29.199219 88.835938 29.292969 L 88.777344 29.621094 L 89.484375 29.621094 C 89.492188 29.441406 89.621094 28.777344 89.621094 28.777344 L 89.984375 27.148438 C 90.078125 26.710938 90.121094 26.464844 90.195312 26.285156 L 89.410156 26.285156 C 89.402344 26.503906 89.371094 26.703125 89.292969 27.050781 C 89.152344 27.714844 88.980469 28.15625 88.777344 28.449219 C 88.539062 28.78125 88.214844 29.027344 88.011719 29.027344 C 87.886719 29.027344 87.800781 28.945312 87.800781 28.796875 C 87.800781 28.707031 87.828125 28.542969 87.878906 28.316406 L 88.125 27.148438 C 88.167969 26.945312 88.246094 26.621094 88.261719 26.574219 C 88.292969 26.457031 88.316406 26.390625 88.355469 26.285156 Z M 35.160156 26.6875 C 35.339844 26.6875 35.449219 26.816406 35.449219 26.996094 C 35.449219 27.417969 34.949219 27.753906 34.203125 27.839844 C 34.347656 27.195312 34.773438 26.6875 35.160156 26.6875 Z M 56.671875 26.6875 C 56.851562 26.6875 56.980469 26.816406 56.980469 26.996094 C 56.980469 27.417969 56.480469 27.753906 55.734375 27.839844 C 55.878906 27.195312 56.28125 26.6875 56.671875 26.6875 Z M 102.222656 26.6875 C 102.402344 26.6875 102.511719 26.816406 102.511719 26.996094 C 102.511719 27.417969 102.011719 27.753906 101.265625 27.839844 C 101.410156 27.195312 101.835938 26.6875 102.222656 26.6875 Z M 72.878906 26.765625 C 73.152344 26.765625 73.367188 26.890625 73.511719 27.128906 C 73.351562 27.839844 73.261719 28.101562 73.070312 28.433594 C 72.832031 28.835938 72.484375 29.101562 72.1875 29.101562 C 71.96875 29.101562 71.863281 28.949219 71.863281 28.640625 C 71.863281 28.21875 71.992188 27.652344 72.167969 27.300781 C 72.355469 26.945312 72.589844 26.765625 72.878906 26.765625 Z M 81.058594 26.765625 C 81.332031 26.765625 81.546875 26.890625 81.691406 27.128906 C 81.53125 27.839844 81.441406 28.101562 81.25 28.433594 C 81.007812 28.835938 80.664062 29.101562 80.367188 29.101562 C 80.148438 29.101562 80.042969 28.949219 80.042969 28.640625 C 80.042969 28.21875 80.191406 27.652344 80.367188 27.300781 C 80.554688 26.945312 80.769531 26.765625 81.058594 26.765625 Z M 93.605469 26.785156 C 93.835938 26.785156 93.929688 26.933594 93.929688 27.261719 C 93.929688 27.644531 93.789062 28.261719 93.625 28.585938 C 93.4375 28.953125 93.21875 29.121094 92.894531 29.121094 C 92.636719 29.121094 92.464844 29 92.300781 28.738281 L 92.320312 28.640625 C 92.355469 28.476562 92.382812 28.355469 92.417969 28.238281 C 92.511719 27.921875 92.625 27.65625 92.761719 27.4375 C 93 27.039062 93.332031 26.785156 93.605469 26.785156 Z M 98.105469 26.785156 C 98.339844 26.785156 98.429688 26.933594 98.429688 27.261719 C 98.429688 27.644531 98.289062 28.261719 98.125 28.585938 C 97.941406 28.953125 97.699219 29.121094 97.378906 29.121094 C 97.117188 29.121094 96.949219 29 96.785156 28.738281 L 96.804688 28.640625 C 96.835938 28.476562 96.882812 28.355469 96.917969 28.238281 C 97.011719 27.921875 97.105469 27.65625 97.242188 27.4375 C 97.484375 27.039062 97.832031 26.785156 98.105469 26.785156 Z M 98.105469 26.785156 "/>
<path style=" stroke:none;fill-rule:evenodd;fill:rgb(0%,39.215686%,31.372549%);fill-opacity:1;" d="M 72.972656 8.585938 C 73.042969 8.996094 73.070312 9.484375 73.070312 10.121094 L 73.070312 17.914062 C 73.070312 18.550781 73.042969 19.039062 72.972656 19.449219 L 74.984375 19.449219 C 74.914062 19.128906 74.871094 18.539062 74.871094 17.914062 L 74.871094 15.847656 L 76.746094 18.183594 C 77.152344 18.699219 77.507812 19.191406 77.648438 19.449219 L 80.136719 19.449219 C 79.804688 19.175781 79.316406 18.667969 78.738281 18.03125 L 76.480469 15.328125 L 78.644531 13.183594 C 79.464844 12.425781 79.578125 12.308594 79.945312 12.035156 L 77.726562 12.035156 C 77.585938 12.246094 77.378906 12.519531 76.976562 12.898438 L 74.871094 14.945312 L 74.871094 10.121094 C 74.871094 9.496094 74.914062 8.90625 74.984375 8.585938 Z M 1.007812 8.796875 C 1.078125 9.226562 1.105469 9.734375 1.105469 10.40625 L 1.105469 17.839844 C 1.105469 18.496094 1.078125 19.015625 1.007812 19.449219 L 3.152344 19.449219 C 3.082031 19.113281 3.058594 18.492188 3.058594 17.839844 L 3.058594 14.507812 C 3.878906 14.472656 4.652344 14.46875 5.453125 14.46875 C 6.261719 14.46875 7.445312 14.484375 7.902344 14.507812 L 7.902344 17.839844 C 7.902344 18.527344 7.878906 19.113281 7.808594 19.449219 L 9.953125 19.449219 C 9.882812 19.097656 9.859375 18.511719 9.859375 17.839844 L 9.859375 10.40625 C 9.859375 9.71875 9.882812 9.148438 9.953125 8.796875 L 7.808594 8.796875 C 7.878906 9.132812 7.902344 9.703125 7.902344 10.40625 L 7.902344 13.183594 C 7.328125 13.167969 6.160156 13.144531 5.433594 13.144531 C 4.8125 13.144531 3.621094 13.15625 3.058594 13.183594 L 3.058594 10.40625 C 3.058594 9.753906 3.082031 9.132812 3.152344 8.796875 Z M 46.117188 8.796875 C 46.152344 8.988281 46.15625 9.113281 46.15625 9.351562 C 46.15625 9.558594 46.136719 10.015625 46.117188 10.367188 L 45.695312 17.589844 C 45.679688 17.878906 45.617188 18.414062 45.601562 18.699219 C 45.566406 19.035156 45.554688 19.191406 45.46875 19.449219 L 47.34375 19.449219 C 47.292969 19.113281 47.304688 18.960938 47.304688 18.355469 C 47.304688 18.226562 47.308594 18 47.324219 17.859375 L 47.613281 10.847656 L 50.429688 19.449219 L 52.074219 19.449219 L 54.851562 10.847656 L 55.160156 17.800781 C 55.160156 17.800781 55.179688 18.851562 55.179688 18.929688 C 55.179688 19.125 55.15625 19.347656 55.140625 19.449219 L 57.210938 19.449219 C 57.085938 18.96875 57.105469 19.050781 57 17.648438 L 56.578125 10.503906 C 56.542969 9.992188 56.519531 9.617188 56.519531 9.316406 C 56.519531 9.105469 56.523438 8.988281 56.558594 8.796875 L 54.125 8.796875 L 51.347656 17.476562 L 48.53125 8.796875 Z M 15.949219 11.863281 C 14.742188 11.863281 13.386719 12.207031 12.042969 12.859375 L 12.636719 13.929688 C 13.546875 13.429688 14.75 13.089844 15.640625 13.089844 C 16.359375 13.089844 16.65625 13.359375 16.636719 14.105469 L 16.621094 14.640625 C 13.417969 14.835938 11.601562 15.886719 11.601562 17.570312 C 11.601562 18.738281 12.503906 19.582031 13.746094 19.582031 C 14.726562 19.582031 15.695312 19.179688 16.65625 18.375 L 16.65625 19.449219 L 18.535156 19.449219 C 18.464844 19.128906 18.441406 18.523438 18.4375 17.914062 L 18.4375 14.3125 C 18.4375 13.222656 18.355469 12.921875 18.054688 12.570312 C 17.652344 12.117188 16.894531 11.863281 15.949219 11.863281 Z M 25.449219 11.863281 C 24.488281 11.863281 23.21875 12.390625 22.5 13.089844 L 22.5 12.035156 L 20.605469 12.035156 C 20.671875 12.445312 20.699219 12.945312 20.699219 13.566406 L 20.699219 17.914062 C 20.699219 18.554688 20.671875 19.039062 20.605469 19.449219 L 22.613281 19.449219 C 22.546875 19.128906 22.5 18.539062 22.5 17.914062 L 22.5 14.449219 C 23.234375 13.78125 24.109375 13.335938 24.703125 13.335938 C 25.296875 13.335938 25.488281 13.660156 25.488281 14.660156 L 25.488281 17.914062 C 25.488281 18.566406 25.441406 19.113281 25.375 19.449219 L 27.382812 19.449219 C 27.316406 19.128906 27.289062 18.523438 27.289062 17.914062 L 27.289062 14.277344 C 27.289062 13.320312 27.210938 12.902344 26.984375 12.550781 C 26.683594 12.113281 26.148438 11.863281 25.449219 11.863281 Z M 32.328125 11.863281 C 30.402344 11.863281 29.148438 12.71875 29.148438 14.007812 C 29.148438 14.902344 29.660156 15.503906 30.8125 15.941406 C 32.074219 16.429688 32.011719 16.398438 32.308594 16.535156 C 32.761719 16.765625 32.996094 17.074219 32.996094 17.4375 C 32.996094 18.027344 32.386719 18.414062 31.40625 18.414062 C 30.691406 18.414062 29.988281 18.269531 29.375 18.011719 L 28.957031 19.21875 C 29.742188 19.476562 30.484375 19.582031 31.464844 19.582031 C 33.476562 19.582031 34.835938 18.609375 34.835938 17.167969 C 34.835938 16.0625 34.328125 15.546875 32.59375 14.90625 C 31.265625 14.421875 30.984375 14.222656 30.984375 13.796875 C 30.984375 13.3125 31.503906 12.992188 32.308594 12.992188 C 32.886719 12.992188 33.4375 13.105469 34.03125 13.316406 L 34.394531 12.128906 C 33.730469 11.949219 33.027344 11.863281 32.328125 11.863281 Z M 39.777344 11.863281 C 37.574219 11.863281 36.15625 13.386719 36.15625 15.75 C 36.15625 18.191406 37.375 19.582031 39.511719 19.582031 C 40.664062 19.582031 41.972656 19.113281 43.109375 18.28125 L 42.34375 17.359375 C 41.503906 17.9375 40.550781 18.296875 39.796875 18.296875 C 38.675781 18.296875 38.035156 17.460938 38.035156 16.019531 C 38.578125 15.992188 39.65625 15.960938 40.429688 15.960938 C 41.25 15.960938 42.3125 15.992188 43.035156 16.019531 C 43.050781 15.792969 43.054688 15.648438 43.054688 15.484375 C 43.054688 13.207031 41.824219 11.863281 39.777344 11.863281 Z M 62.34375 11.863281 C 60.140625 11.863281 58.722656 13.386719 58.722656 15.75 C 58.722656 18.191406 59.941406 19.582031 62.074219 19.582031 C 63.230469 19.582031 64.539062 19.113281 65.675781 18.28125 L 64.890625 17.359375 C 64.050781 17.9375 63.113281 18.296875 62.363281 18.296875 C 61.242188 18.296875 60.601562 17.460938 60.601562 16.019531 C 61.144531 15.992188 62.21875 15.960938 62.996094 15.960938 C 63.816406 15.960938 64.875 15.992188 65.597656 16.019531 C 65.617188 15.792969 65.617188 15.648438 65.617188 15.484375 C 65.617188 13.207031 64.390625 11.863281 62.34375 11.863281 Z M 71.632812 11.863281 C 70.8125 11.894531 69.882812 12.375 69.199219 13.164062 L 69.199219 12.035156 L 67.324219 12.035156 C 67.394531 12.445312 67.4375 12.945312 67.4375 13.566406 L 67.4375 17.914062 C 67.4375 18.554688 67.394531 19.039062 67.324219 19.449219 L 69.335938 19.449219 C 69.265625 19.128906 69.238281 18.539062 69.238281 17.914062 L 69.238281 14.679688 C 69.972656 13.796875 70.632812 13.414062 71.382812 13.414062 C 71.488281 13.414062 71.527344 13.398438 71.632812 13.414062 Z M 94.390625 11.863281 C 93.566406 11.894531 92.640625 12.375 91.957031 13.164062 L 91.957031 12.035156 L 90.097656 12.035156 C 90.167969 12.445312 90.195312 12.945312 90.195312 13.566406 L 90.195312 17.914062 C 90.195312 18.550781 90.167969 19.039062 90.097656 19.449219 L 92.109375 19.449219 C 92.039062 19.128906 91.996094 18.539062 91.996094 17.914062 L 91.996094 14.679688 C 92.730469 13.796875 93.386719 13.414062 94.140625 13.414062 C 94.246094 13.414062 94.285156 13.398438 94.390625 13.414062 Z M 81.097656 12.035156 C 81.164062 12.445312 81.191406 12.945312 81.191406 13.566406 L 81.191406 17.109375 C 81.191406 18.082031 81.269531 18.472656 81.5 18.835938 C 81.8125 19.320312 82.335938 19.5625 83.070312 19.5625 C 84.03125 19.5625 85.195312 19.101562 86.019531 18.375 L 86.019531 19.449219 L 87.894531 19.449219 C 87.824219 19.191406 87.800781 18.582031 87.800781 17.914062 L 87.800781 13.566406 C 87.800781 12.929688 87.84375 12.367188 87.914062 12.035156 L 85.886719 12.035156 C 85.953125 12.351562 86 12.960938 86 13.566406 L 86 17.054688 C 85.40625 17.613281 84.394531 18.089844 83.816406 18.089844 C 83.203125 18.089844 83.011719 17.800781 83.011719 16.863281 L 83.011719 13.566406 C 83.011719 12.945312 83.039062 12.367188 83.105469 12.035156 Z M 39.738281 12.992188 C 40.648438 12.992188 41.148438 13.640625 41.234375 14.945312 C 40.917969 14.921875 40.214844 14.90625 39.757812 14.90625 C 39.273438 14.90625 38.636719 14.933594 38.035156 14.945312 C 38.140625 13.71875 38.761719 12.992188 39.738281 12.992188 Z M 62.304688 12.992188 C 63.214844 12.992188 63.710938 13.640625 63.800781 14.945312 C 63.480469 14.921875 62.78125 14.90625 62.324219 14.90625 C 61.839844 14.90625 61.199219 14.933594 60.601562 14.945312 C 60.703125 13.71875 61.324219 12.992188 62.304688 12.992188 Z M 16.621094 15.65625 L 16.621094 17.1875 C 15.78125 17.898438 14.910156 18.316406 14.261719 18.316406 C 13.703125 18.316406 13.382812 17.992188 13.382812 17.417969 C 13.382812 16.402344 14.539062 15.792969 16.621094 15.65625 Z M 16.621094 15.65625 "/>
</g>
</svg>
