<?xml version="1.0" encoding="utf-8"?>
<!-- Generator: Adobe Illustrator 24.2.1, SVG Export Plug-In . SVG Version: 6.00 Build 0)  -->
<svg version="1.1" id="svg5272" xmlns:svg="http://www.w3.org/2000/svg"
	 xmlns="http://www.w3.org/2000/svg" xmlns:xlink="http://www.w3.org/1999/xlink" x="0px" y="0px" viewBox="0 0 1024 201"
	 style="enable-background:new 0 0 1024 201;" xml:space="preserve">
<style type="text/css">
	.st0{fill:#2799D1;}
</style>
<path id="path4961" class="st0" d="M976.2,93.1c1-9.7,5.4-15.4,12.1-15.4c6.8,0,10.9,5.9,11.7,15.4H976.2z M1017.5,99.2
	c0-20.5-9.6-36.5-29.2-36.5c-17.3,0-30,14.9-30,35.3v1.2c0,21.4,14,35.1,32.2,35.1c10.3,0,18.2-4.1,24.5-11l-9.3-11
	c-4.4,4.2-8.7,6.8-14.4,6.8c-7.7,0-13.3-4.7-14.9-13.8h41C1017.5,102.5,1017.5,100.3,1017.5,99.2 M891,40.2h18.2v33.1
	c4-5.5,9-10.5,17.7-10.5c12.8,0,20.3,9,20.3,23.2v46.8h-18.2V91.3c0-8.1-3.6-12.2-9.7-12.2c-6,0-10,4.1-10,12.2v41.4H891L891,40.2
	 M827.4,99.4v-1.5c0-20.4,13.2-35.1,31.8-35.1c9.9,0,16.5,3.3,22.4,9.2l-9.9,13.2c-3.3-3.5-6.8-6.2-12.3-6.2c-8.3,0-14,7.9-14,19.1
	v0.5c0,11.4,5.3,19.3,14.4,19.3c5.4,0,8.9-2.6,12.4-6.3l9.6,12.1c-5.6,6.3-12.6,10.5-23.3,10.5C840.3,134.2,827.4,119.6,827.4,99.4
	 M769.4,124.5l7.9-12.8c6.2,4.7,12.7,7.7,18.3,7.7c5.1,0,7.3-2.4,7.3-5.3v-0.3c0-4-5.1-5.6-12.6-8.8c-9.7-4.2-18.1-9.1-18.1-20.8V84
	c0-13.2,10.3-21,23.6-21c7.4,0,15.8,2.6,22.7,7.4l-7.3,13.1c-5.1-3.3-10.8-5.9-15.6-5.9c-4.4,0-6.7,2.2-6.7,4.9v0.3
	c0,3.6,5.1,5.6,12.4,9c10,4.7,18.2,9.7,18.2,20.6v0.3c0,14.2-10.5,21.4-24.2,21.4C787.3,134,777.7,131.3,769.4,124.5 M741.1,40.2h19
	v16.5h-19V40.2z M741.5,64h18.2v68.7h-18.2V64 M695.3,64h18.2v12.2c3.3-8.3,8.8-13.8,18.6-13.3v19.7h-0.8
	c-11.1,0-17.8,6.9-17.8,21.3v28.8h-18.2V64 M624.4,99.1V98c0-20.4,12.7-35.2,30-35.2c19.6,0,29.2,16,29.2,36.5c0,1,0,3.2-0.1,5.9
	h-41c1.5,9.1,7.2,13.8,14.9,13.8c5.6,0,10-2.6,14.4-6.8l9.4,11c-6.3,6.9-14.2,11-24.5,11C638.3,134.2,624.4,120.5,624.4,99.1
	 M666,93.1c-0.8-9.5-4.9-15.4-11.7-15.4c-6.7,0-11,5.6-12,15.4H666 M602.5,64h18.5l-22.6,69.6c-4.6,13.7-9.9,19-20.6,19
	c-5.4,0-10.4-1.5-14.7-4.1l5-13.6c2.2,1.3,5,2.3,7.4,2.3c2.8,0,4.6-1,5.9-4.4L558,64h19l12.9,45.5L602.5,64 M496.4,113.1v-0.8
	c0-15.1,9.9-21.9,24-21.9c5.8,0,10.1,1.2,14.4,2.8v-2.1c0-7.9-4.7-12-13-12c-6.4,0-11.5,2-15.8,3.9l-5-14.2
	c6.7-3.3,13.6-5.5,23.5-5.5c9.4,0,16.4,2.6,20.9,7c4.7,4.7,7,11.9,7,20.8v41.7h-17.8v-7.4c-4.1,5.4-9.7,8.7-17.8,8.7
	C505.5,134,496.4,126.4,496.4,113.1 M535,110.1v-5.8c-2.7-1.3-6.4-2.2-10.1-2.2c-6.7,0-10.9,3.3-10.9,9.6v0.2c0,5.6,3.6,8.5,8.8,8.6
	C529.8,120.8,535,116.4,535,110.1 M420.9,43h33.3c10,0,18.3,2.7,23.5,7.8c4,4.1,6,9,6,15.3v0.4c0,10.5-5.8,16.2-12.2,19.6
	c9.6,3.7,16,9.6,16,21.4v0.6c0,16.2-13,24.6-32.4,24.6h-34.2C420.9,132.7,420.9,43,420.9,43z M465.4,69.4c0-6.5-4.6-10-12.6-10H439
	v20.2h12.9c8.2,0,13.5-3.3,13.5-10.1L465.4,69.4L465.4,69.4z M455.3,95.3H439v21h16.7c8.3,0,13.6-3.6,13.6-10.5v-0.1
	C469.2,99.3,464.5,95.3,455.3,95.3 M319.4,99.1V98c0-20.4,12.7-35.2,30-35.2c19.6,0,29.2,16,29.2,36.5c0,1,0,3.2-0.1,5.9h-41
	c1.5,9.1,7.2,13.8,14.9,13.8c5.6,0,10-2.6,14.3-6.8l9.4,11c-6.3,6.9-14.2,11-24.5,11C333.3,134.2,319.4,120.5,319.4,99.1 M361,93.1
	c-0.8-9.5-4.9-15.4-11.7-15.4c-6.7,0-11,5.6-12.1,15.4H361 M288.9,40.2h19v16.5h-19V40.2z M289.3,64h18.2v68.7h-18.2V64 M256.3,99
	c0,11.7-5.9,19.1-13.5,19.1c-7.6,0-13.3-7.4-13.3-19.1v-1.3c0-11.7,5.8-19.1,13.3-19.1c7.6,0,13.5,7.4,13.5,19.1
	C256.3,97.7,256.3,99,256.3,99z M256,40.2v32.7c-4-5.1-9.4-10.1-18.6-10.1c-13.7,0-26.2,11.1-26.2,34.6v2
	c0,23.5,12.6,34.6,26.2,34.6c9.1,0,14.6-5,18.6-10.8v9.5h18.2V40.2L256,40.2"/>
<path id="path4965" class="st0" d="M56.9,48c-3.5,1.5-4.1-1.2-10.3,0.4c4.8-3.8,3.6-6.7,6.8-8.2c3.5-1.6,6.4,1,11.2,1.2
	C59.9,44.5,60.2,46.6,56.9,48 M169.7,90.1c-4.7-19.5-17-32.8-27.5-40.6c4,1.4,10.3,4.4,18.1-0.5c2.9-1.8,2.8-5,2.3-6.7
	c-0.5-1.6-4.4,2.1-10.8-1.1c-3-1.4-5.8-3.3-8-4.7c-25.1-19.9-51-20.9-51.5-20.9c2.5-2.4,4.1-5.6,4.6-9.1C92.1,5,86.5,5.6,82.4,8.3
	c-2.8,1.8-4.9,4.5-6,7.6c-7.7,0.5-16.5,1.8-22.1,4.7c-8.6,4.6-10.9,13.4-15,15.9c-9.6,5.6-28,15.9-31.9,19.8
	C5.3,58.4,7.2,67.7,9.5,66c8-5.9,11.4-4.1,11.4-4.1S9.4,65.2,9.4,69.5c0,21.2,16,20.6,22.4,16.1c0.7-0.5,1.3-1,1.9-1.6
	c2.9-5.2,8.5-8.7,14.9-8.7c8.6,0,13.6,5.6,14.4,13.8c-1.5-0.7-3.7-1.7-5.5-2.1c-6.3-1.4-14.8-1-23.3,2.9c-7.9,3.7-13.2,5.6-18.1,4.6
	c-2.9-0.6-5-2.3-6.4-4c-0.1,2.5,0.8,5.3,2.8,7.6c5.4,5.8,14,2.6,15.9,2.3c4.3-1.4,8.1-4.8,13.4-7.8c5.5-3.3,13.6-5.3,21.2-3.2
	c0.1,0.7,0.1,1.3,0.1,2c0,9.4-5.1,18.1-14.6,18.1c-5.1,0-9.6-2.2-12.8-5.7c-1.6-0.2-3.2-0.2-5,0.4c-6.8,2.1-5.2,11-2.5,18
	c1.7,4.4,36.2,4.6,47-18.7c0,0-2.4,40.7-51.8,64.1c0,0,0,0,0,0c-0.9,0.3-1.5,1.3-1.4,2.3c0.2,1.1,1.2,1.9,2.4,1.8c-0.1,0,0,0,0,0
	c47.7-2.6,68.5-38.6,68.5-38.6s0.1,34.2-22.6,59.6c-0.8,1-0.7,2-0.1,2.4c1.3,0.9,4.5-0.7,5.8-1.4c42.6-24.4,43.6-66.9,43.6-66.9
	s12.5,24.2,1.4,57.3c-0.3,1.2,0.3,1.9,0.7,2c1.3,0.5,2.5-0.9,2.5-1c34-41.7,10.8-80.9,10.8-80.9s16.1,14.3,22.5,37.2
	c0.1,0.5,0.3,1,0.5,1.5c0,0.1,0,0.2,0,0.3c0.1,0.9,1,1.6,1.9,1.5c0.8-0.1,1.4-0.8,1.4-1.6c0.1-0.4,0.2-0.8,0.3-1
	c10.4-47.1-28-70.7-28-70.7c14.5,4.7,26.3,15,32.2,22.3c0,0.1,0,0.1,0,0.1c0.5,0.7,1.2,1.1,2.1,1c1.2-0.2,2-1.2,1.8-2.4
	C169.9,92,169.7,90.5,169.7,90.1"/>
</svg>
