<?xml version="1.0" encoding="UTF-8"?>
<svg xmlns="http://www.w3.org/2000/svg" xmlns:xlink="http://www.w3.org/1999/xlink" width="128px" height="25px" viewBox="0 0 127 25" version="1.1">
<g id="surface1">
<path style=" stroke:none;fill-rule:nonzero;fill:rgb(15.294118%,60%,81.960784%);fill-opacity:1;" d="M 121.070312 11.578125 C 121.195312 10.375 121.742188 9.664062 122.574219 9.664062 C 123.414062 9.664062 123.925781 10.398438 124.023438 11.578125 Z M 126.195312 12.339844 C 126.195312 9.789062 125.003906 7.796875 122.574219 7.796875 C 120.425781 7.796875 118.851562 9.652344 118.851562 12.1875 L 118.851562 12.339844 C 118.851562 15 120.589844 16.703125 122.84375 16.703125 C 124.121094 16.703125 125.101562 16.195312 125.882812 15.335938 L 124.730469 13.96875 C 124.183594 14.488281 123.652344 14.8125 122.945312 14.8125 C 121.988281 14.8125 121.296875 14.230469 121.097656 13.097656 L 126.179688 13.097656 C 126.195312 12.75 126.195312 12.476562 126.195312 12.339844 M 110.503906 5 L 112.761719 5 L 112.761719 9.117188 C 113.257812 8.433594 113.878906 7.8125 114.957031 7.8125 C 116.542969 7.8125 117.476562 8.929688 117.476562 10.695312 L 117.476562 16.515625 L 115.21875 16.515625 L 115.21875 11.355469 C 115.21875 10.347656 114.769531 9.839844 114.015625 9.839844 C 113.269531 9.839844 112.773438 10.347656 112.773438 11.355469 L 112.773438 16.503906 L 110.503906 16.503906 L 110.503906 5 M 102.617188 12.363281 L 102.617188 12.175781 C 102.617188 9.640625 104.253906 7.8125 106.5625 7.8125 C 107.789062 7.8125 108.605469 8.222656 109.339844 8.957031 L 108.109375 10.597656 C 107.703125 10.160156 107.269531 9.824219 106.585938 9.824219 C 105.554688 9.824219 104.847656 10.808594 104.847656 12.203125 L 104.847656 12.265625 C 104.847656 13.679688 105.507812 14.664062 106.636719 14.664062 C 107.304688 14.664062 107.738281 14.339844 108.171875 13.878906 L 109.363281 15.386719 C 108.667969 16.167969 107.800781 16.691406 106.472656 16.691406 C 104.21875 16.691406 102.617188 14.875 102.617188 12.363281 M 95.421875 15.484375 L 96.402344 13.894531 C 97.171875 14.476562 97.976562 14.851562 98.671875 14.851562 C 99.304688 14.851562 99.578125 14.550781 99.578125 14.191406 L 99.578125 14.152344 C 99.578125 13.65625 98.945312 13.457031 98.015625 13.058594 C 96.8125 12.539062 95.769531 11.929688 95.769531 10.472656 L 95.769531 10.449219 C 95.769531 8.804688 97.046875 7.835938 98.699219 7.835938 C 99.617188 7.835938 100.65625 8.160156 101.511719 8.757812 L 100.609375 10.386719 C 99.976562 9.976562 99.269531 9.652344 98.671875 9.652344 C 98.128906 9.652344 97.84375 9.925781 97.84375 10.261719 L 97.84375 10.296875 C 97.84375 10.746094 98.472656 10.996094 99.378906 11.417969 C 100.621094 12.003906 101.636719 12.625 101.636719 13.980469 L 101.636719 14.015625 C 101.636719 15.785156 100.335938 16.679688 98.636719 16.679688 C 97.644531 16.667969 96.453125 16.332031 95.421875 15.484375 M 91.914062 5 L 94.269531 5 L 94.269531 7.050781 L 91.914062 7.050781 Z M 91.964844 7.960938 L 94.21875 7.960938 L 94.21875 16.503906 L 91.964844 16.503906 L 91.964844 7.960938 M 86.234375 7.960938 L 88.492188 7.960938 L 88.492188 9.476562 C 88.898438 8.445312 89.582031 7.761719 90.796875 7.824219 L 90.796875 10.273438 L 90.699219 10.273438 C 89.320312 10.273438 88.492188 11.132812 88.492188 12.921875 L 88.492188 16.503906 L 86.234375 16.503906 L 86.234375 7.960938 M 77.441406 12.324219 L 77.441406 12.1875 C 77.441406 9.652344 79.015625 7.8125 81.160156 7.8125 C 83.59375 7.8125 84.78125 9.800781 84.78125 12.351562 C 84.78125 12.476562 84.78125 12.75 84.769531 13.085938 L 79.683594 13.085938 C 79.871094 14.214844 80.578125 14.800781 81.53125 14.800781 C 82.226562 14.800781 82.773438 14.476562 83.320312 13.957031 L 84.484375 15.324219 C 83.703125 16.179688 82.722656 16.691406 81.445312 16.691406 C 79.164062 16.691406 77.441406 14.988281 77.441406 12.324219 M 82.601562 11.578125 C 82.5 10.398438 81.992188 9.664062 81.148438 9.664062 C 80.316406 9.664062 79.785156 10.359375 79.660156 11.578125 L 82.601562 11.578125 M 74.722656 7.960938 L 77.019531 7.960938 L 74.214844 16.617188 C 73.644531 18.320312 72.988281 18.980469 71.660156 18.980469 C 70.992188 18.980469 70.371094 18.792969 69.835938 18.46875 L 70.457031 16.777344 C 70.730469 16.941406 71.078125 17.066406 71.375 17.066406 C 71.722656 17.066406 71.945312 16.941406 72.105469 16.515625 L 69.203125 7.960938 L 71.5625 7.960938 L 73.160156 13.621094 L 74.722656 7.960938 M 61.566406 14.066406 L 61.566406 13.96875 C 61.566406 12.089844 62.792969 11.242188 64.542969 11.242188 C 65.261719 11.242188 65.792969 11.394531 66.328125 11.59375 L 66.328125 11.332031 C 66.328125 10.347656 65.746094 9.839844 64.714844 9.839844 C 63.921875 9.839844 63.289062 10.085938 62.753906 10.324219 L 62.136719 8.558594 C 62.964844 8.148438 63.824219 7.875 65.050781 7.875 C 66.214844 7.875 67.085938 8.195312 67.640625 8.742188 C 68.226562 9.328125 68.511719 10.222656 68.511719 11.332031 L 68.511719 16.515625 L 66.304688 16.515625 L 66.304688 15.597656 C 65.792969 16.269531 65.101562 16.679688 64.09375 16.679688 C 62.695312 16.667969 61.566406 15.722656 61.566406 14.066406 M 66.351562 13.695312 L 66.351562 12.972656 C 66.019531 12.8125 65.558594 12.699219 65.101562 12.699219 C 64.269531 12.699219 63.75 13.109375 63.75 13.894531 L 63.75 13.917969 C 63.75 14.613281 64.195312 14.976562 64.839844 14.988281 C 65.707031 15.023438 66.351562 14.476562 66.351562 13.695312 M 52.203125 5.347656 L 56.332031 5.347656 C 57.570312 5.347656 58.601562 5.683594 59.246094 6.320312 C 59.742188 6.828125 59.988281 7.4375 59.988281 8.222656 L 59.988281 8.269531 C 59.988281 9.578125 59.269531 10.285156 58.476562 10.707031 C 59.667969 11.167969 60.460938 11.902344 60.460938 13.371094 L 60.460938 13.445312 C 60.460938 15.460938 58.847656 16.503906 56.441406 16.503906 L 52.203125 16.503906 C 52.203125 16.503906 52.203125 5.347656 52.203125 5.347656 Z M 57.71875 8.632812 C 57.71875 7.824219 57.148438 7.386719 56.15625 7.386719 L 54.445312 7.386719 L 54.445312 9.902344 L 56.046875 9.902344 C 57.0625 9.902344 57.71875 9.488281 57.71875 8.644531 Z M 56.46875 11.851562 L 54.445312 11.851562 L 54.445312 14.464844 L 56.515625 14.464844 C 57.546875 14.464844 58.203125 14.015625 58.203125 13.160156 L 58.203125 13.148438 C 58.191406 12.351562 57.609375 11.851562 56.46875 11.851562 M 39.613281 12.324219 L 39.613281 12.1875 C 39.613281 9.652344 41.1875 7.8125 43.332031 7.8125 C 45.765625 7.8125 46.957031 9.800781 46.957031 12.351562 C 46.957031 12.476562 46.957031 12.75 46.941406 13.085938 L 41.859375 13.085938 C 42.042969 14.214844 42.75 14.800781 43.707031 14.800781 C 44.398438 14.800781 44.945312 14.476562 45.480469 13.957031 L 46.644531 15.324219 C 45.863281 16.179688 44.882812 16.691406 43.605469 16.691406 C 41.335938 16.691406 39.613281 14.988281 39.613281 12.324219 M 44.773438 11.578125 C 44.671875 10.398438 44.164062 9.664062 43.320312 9.664062 C 42.492188 9.664062 41.957031 10.359375 41.820312 11.578125 L 44.773438 11.578125 M 35.832031 5 L 38.1875 5 L 38.1875 7.050781 L 35.832031 7.050781 Z M 35.878906 7.960938 L 38.136719 7.960938 L 38.136719 16.503906 L 35.878906 16.503906 L 35.878906 7.960938 M 31.789062 12.3125 C 31.789062 13.769531 31.054688 14.6875 30.113281 14.6875 C 29.171875 14.6875 28.464844 13.769531 28.464844 12.3125 L 28.464844 12.152344 C 28.464844 10.695312 29.183594 9.777344 30.113281 9.777344 C 31.054688 9.777344 31.789062 10.695312 31.789062 12.152344 C 31.789062 12.152344 31.789062 12.3125 31.789062 12.3125 Z M 31.75 5 L 31.75 9.066406 C 31.253906 8.433594 30.585938 7.8125 29.441406 7.8125 C 27.742188 7.8125 26.195312 9.191406 26.195312 12.113281 L 26.195312 12.363281 C 26.195312 15.285156 27.757812 16.667969 29.441406 16.667969 C 30.570312 16.667969 31.253906 16.042969 31.75 15.324219 L 31.75 16.503906 L 34.007812 16.503906 L 34.007812 5 L 31.75 5 "/>
<path style=" stroke:none;fill-rule:nonzero;fill:rgb(15.294118%,60%,81.960784%);fill-opacity:1;" d="M 7.058594 5.96875 C 6.621094 6.15625 6.546875 5.820312 5.78125 6.019531 C 6.375 5.546875 6.226562 5.1875 6.621094 5 C 7.058594 4.800781 7.417969 5.125 8.011719 5.148438 C 7.429688 5.535156 7.464844 5.796875 7.058594 5.96875 M 21.046875 11.207031 C 20.464844 8.78125 18.9375 7.125 17.636719 6.15625 C 18.132812 6.332031 18.914062 6.703125 19.882812 6.09375 C 20.242188 5.871094 20.226562 5.472656 20.167969 5.261719 C 20.105469 5.0625 19.621094 5.523438 18.828125 5.125 C 18.453125 4.949219 18.105469 4.714844 17.835938 4.539062 C 14.722656 2.066406 11.507812 1.941406 11.449219 1.941406 C 11.757812 1.640625 11.957031 1.242188 12.019531 0.808594 C 11.421875 0.621094 10.726562 0.695312 10.21875 1.03125 C 9.871094 1.257812 9.613281 1.59375 9.476562 1.976562 C 8.519531 2.039062 7.429688 2.203125 6.734375 2.5625 C 5.667969 3.132812 5.382812 4.230469 4.875 4.539062 C 3.683594 5.234375 1.402344 6.515625 0.917969 7.003906 C 0.65625 7.265625 0.894531 8.421875 1.179688 8.207031 C 2.171875 7.476562 2.59375 7.699219 2.59375 7.699219 C 2.59375 7.699219 1.164062 8.109375 1.164062 8.644531 C 1.164062 11.28125 3.148438 11.207031 3.945312 10.648438 C 4.03125 10.585938 4.105469 10.523438 4.179688 10.449219 C 4.539062 9.800781 5.234375 9.367188 6.027344 9.367188 C 7.09375 9.367188 7.714844 10.0625 7.8125 11.082031 C 7.628906 10.996094 7.355469 10.871094 7.132812 10.820312 C 6.351562 10.648438 5.296875 10.695312 4.242188 11.179688 C 3.261719 11.640625 2.605469 11.878906 1.996094 11.753906 C 1.636719 11.679688 1.375 11.46875 1.203125 11.257812 C 1.191406 11.566406 1.300781 11.914062 1.550781 12.203125 C 2.21875 12.921875 3.285156 12.523438 3.523438 12.488281 C 4.054688 12.3125 4.527344 11.890625 5.183594 11.515625 C 5.867188 11.105469 6.871094 10.859375 7.8125 11.121094 C 7.824219 11.207031 7.824219 11.28125 7.824219 11.367188 C 7.824219 12.539062 7.191406 13.621094 6.015625 13.621094 C 5.382812 13.621094 4.824219 13.347656 4.425781 12.910156 C 4.230469 12.886719 4.03125 12.886719 3.808594 12.960938 C 2.964844 13.222656 3.164062 14.328125 3.496094 15.199219 C 3.707031 15.746094 7.988281 15.769531 9.328125 12.875 C 9.328125 12.875 9.027344 17.933594 2.902344 20.847656 C 2.789062 20.882812 2.714844 21.007812 2.726562 21.132812 C 2.753906 21.269531 2.878906 21.367188 3.027344 21.355469 C 3.015625 21.355469 3.027344 21.355469 3.027344 21.355469 C 8.941406 21.03125 11.523438 16.554688 11.523438 16.554688 C 11.523438 16.554688 11.535156 20.808594 8.71875 23.96875 C 8.621094 24.09375 8.632812 24.214844 8.707031 24.265625 C 8.867188 24.378906 9.265625 24.179688 9.425781 24.09375 C 14.710938 21.058594 14.832031 15.769531 14.832031 15.769531 C 14.832031 15.769531 16.382812 18.78125 15.007812 22.898438 C 14.96875 23.046875 15.042969 23.132812 15.09375 23.148438 C 15.253906 23.207031 15.402344 23.035156 15.402344 23.023438 C 19.621094 17.835938 16.742188 12.960938 16.742188 12.960938 C 16.742188 12.960938 18.738281 14.738281 19.535156 17.585938 C 19.546875 17.648438 19.570312 17.710938 19.59375 17.773438 C 19.59375 17.785156 19.59375 17.796875 19.59375 17.8125 C 19.609375 17.921875 19.71875 18.011719 19.832031 17.996094 C 19.929688 17.984375 20.003906 17.898438 20.003906 17.796875 C 20.015625 17.75 20.03125 17.699219 20.042969 17.675781 C 21.332031 11.816406 16.570312 8.878906 16.570312 8.878906 C 18.367188 9.464844 19.832031 10.746094 20.5625 11.652344 C 20.5625 11.667969 20.5625 11.667969 20.5625 11.667969 C 20.625 11.753906 20.710938 11.804688 20.824219 11.792969 C 20.972656 11.765625 21.070312 11.640625 21.046875 11.492188 C 21.070312 11.441406 21.046875 11.257812 21.046875 11.207031 "/>
</g>
</svg>
