<svg width="128" height="64" viewBox="0 0 128 64" fill="none" xmlns="http://www.w3.org/2000/svg">
<g clip-path="url(#clip0_37245_65159)">
<path fill-rule="evenodd" clip-rule="evenodd" d="M113.511 39.969L113.93 39.9326L116.191 45.2545L115.681 45.1636L113.512 39.969H113.511Z" fill="#E2001A"/>
<path fill-rule="evenodd" clip-rule="evenodd" d="M110.701 23.658L110.612 23.4484L116.243 22.1619L116.306 22.3133L110.702 23.6568L110.701 23.658Z" fill="#6F4C84"/>
<path fill-rule="evenodd" clip-rule="evenodd" d="M108.28 18.3991L108.335 18.2525L108.461 18.2319L110.656 23.5247L110.627 23.5272L110.613 23.5478L108.279 18.3979L108.28 18.3991Z" fill="#885FA0"/>
<path d="M107.781 27.7988L109.075 28.0557L104.827 38.5395L103.535 38.2827L107.781 27.7988Z" fill="#885FA0"/>
<path d="M113.731 37.6443H103.109V41.0436H113.731V37.6443Z" fill="#00A2AC"/>
<path d="M101.531 37.8477L109.625 36.125L110.278 38.1348L102.184 39.8575L101.531 37.8477Z" fill="#543864"/>
<path d="M100.406 36.783L104.799 36.9271L104.1 38.6571L99.7065 38.5129L100.406 36.783Z" fill="#00A2AC"/>
<path d="M116.002 45.2836L98.145 42.0769L100.053 37.6055L113.692 39.9411L116.002 45.2848V45.2836Z" fill="#00A2AC"/>
<path d="M76.3295 23.3247C74.9787 23.3247 73.869 24.4344 73.869 25.7852C73.869 27.1359 74.9799 28.2456 76.3295 28.2456C77.679 28.2456 78.7899 27.1347 78.7899 25.7852C78.7899 24.4356 77.6815 23.3247 76.3295 23.3247ZM2 23.9256V42.0791H6.3927V35.736C6.3927 34.2883 6.95239 32.7837 8.68961 32.7837C10.4498 32.7837 10.6582 34.2895 10.6582 35.736V42.0791H15.0509V34.4967C15.0509 31.3602 13.5366 29.2838 10.4026 29.2838C8.68961 29.2838 7.44303 29.9198 6.42905 31.2706H6.3927V23.9256H2ZM31.2177 23.9256V42.0791H35.6104V23.9256H31.2177ZM66.432 25.985V29.703H65.0097V33.3119H66.432V42.0791H70.8247V33.3119H73.3033V29.703H70.8247V25.985H66.432ZM23.1615 29.285C19.1311 29.285 16.3084 31.7758 16.3084 35.9019C16.3084 40.0281 19.3709 42.4813 23.4717 42.4813C26.2931 42.4813 29.0589 41.1523 29.7603 38.234H25.5493C25.0671 39.0529 24.3936 39.3824 23.4535 39.3824C21.6436 39.3824 20.7011 38.4133 20.7011 36.63H29.942V36.1563C29.942 31.9345 27.4549 29.285 23.1615 29.285ZM57.5557 29.285C53.5289 29.285 50.7207 31.7758 50.7207 35.9019C50.7207 40.0281 53.7833 42.4813 57.884 42.4813C60.7043 42.4813 63.4736 41.1523 64.1726 38.234H59.9435C59.4613 39.0529 58.7877 39.3824 57.8477 39.3824C56.0378 39.3824 55.0953 38.4133 55.0953 36.63H64.3362V36.1563C64.3362 31.9345 61.8491 29.285 57.5557 29.285ZM86.0077 29.285C82.3395 29.285 79.8112 32.3354 79.8112 35.8826C79.8112 39.4297 82.377 42.4801 86.0453 42.4801C87.493 42.4801 89.0085 41.9253 89.7814 40.6944H89.8359V42.0791H94.2286V29.703H89.8359V30.9059C88.9188 29.8193 87.4288 29.2838 86.0077 29.2838V29.285ZM36.0477 29.7042L42.5362 42.0803H45.3249L51.7953 29.7042H46.8744L43.9221 36.0473L40.9698 29.7042H36.0489H36.0477ZM74.1416 29.7042V42.0803H78.5161V29.7042H74.1416ZM23.3796 32.1283C24.562 32.1283 25.6402 32.9145 25.8582 34.0969H20.7726C21.0391 32.8188 22.1015 32.1283 23.3796 32.1283ZM57.7738 32.1283C58.9561 32.1283 60.0537 32.9145 60.2706 34.0969H55.1667C55.4308 32.8188 56.4945 32.1283 57.7738 32.1283ZM87.1562 33.0938C88.9406 33.0938 89.9813 34.3816 89.9813 35.9007C89.9813 37.4199 88.9406 38.6713 87.1562 38.6713C85.3705 38.6713 84.3311 37.4696 84.3311 35.9007C84.3311 34.3319 85.3705 33.0938 87.1562 33.0938Z" fill="black"/>
<path d="M110.096 23.1897L106.958 27.8464L108.606 28.9566L111.744 24.2998L110.096 23.1897Z" fill="#885FA0"/>
<path d="M109.958 27.8811L108.609 28.2094L104.235 38.325L109.867 36.8664L111.672 32.7475L109.959 27.8811H109.958Z" fill="#543864"/>
<path d="M108.331 18.2391L114.01 16.9998L116.295 22.2393L110.634 23.5416L108.331 18.2379V18.2391Z" fill="#6F4C84"/>
<path d="M100.052 37.6042L108.331 18.2393L110.634 23.5418L104.235 38.3214L100.052 37.6042Z" fill="#885FA0"/>
<path d="M109.866 36.8677L104.234 38.3263L113.694 39.9484L114.333 39.7848C114.3 39.7037 113.861 38.703 113.311 37.4516L109.866 36.8689V36.8677Z" fill="#006C73"/>
<path d="M108.614 28.2031L110.634 23.5415L120.409 46.0732L116.001 45.2821L108.612 28.2031H108.614Z" fill="#E2001A"/>
<path d="M110.634 23.543L116.295 22.2407L126 44.501L120.409 46.0747L110.634 23.543Z" fill="#B70618"/>
</g>
<defs>
<clipPath id="clip0_37245_65159">
<rect width="124" height="29.0747" fill="white" transform="translate(2 17)"/>
</clipPath>
</defs>
</svg>
