<?xml version="1.0" encoding="UTF-8"?>
<svg xmlns="http://www.w3.org/2000/svg" xmlns:xlink="http://www.w3.org/1999/xlink" width="128px" height="80px" viewBox="0 0 128 80" version="1.1">
<g id="surface1">
<path style=" stroke:none;fill-rule:nonzero;fill:rgb(15.686275%,34.117647%,68.627451%);fill-opacity:1;" d="M 58.511719 3.386719 C 47.652344 3.386719 38.835938 12.253906 38.835938 23.171875 C 38.835938 27.695312 40.347656 31.847656 42.875 35.171875 L 59.230469 13.550781 L 57.46875 13.566406 L 55.71875 13.566406 C 53.851562 13.566406 52.105469 13.699219 50.839844 13.9375 C 50.078125 14.085938 49.402344 14.367188 48.84375 14.765625 C 48.179688 15.222656 47.375 16.199219 46.828125 17.160156 C 46.769531 17.261719 46.683594 17.4375 46.566406 17.675781 L 45.609375 17.453125 L 47.210938 11.246094 L 67.695312 11.246094 L 51.429688 33.132812 C 52.488281 33.042969 52.898438 33.015625 53.765625 33.015625 C 54.425781 33.015625 55.425781 33.058594 56.761719 33.148438 L 59.65625 33.308594 C 60.699219 33.382812 61.582031 33.414062 62.257812 33.414062 C 63.742188 33.414062 64.710938 33.296875 65.683594 33 C 66.429688 32.761719 67.136719 32.421875 67.78125 31.980469 C 68.929688 31.183594 70.03125 29.898438 70.707031 28.625 C 70.765625 28.492188 70.867188 28.300781 70.988281 28.035156 L 71.867188 28.257812 C 71.589844 29.351562 71.425781 29.761719 71 30.738281 C 70.121094 32.691406 69.136719 34.003906 67.78125 35.023438 C 66.386719 36.058594 64.84375 36.574219 63.007812 36.605469 L 62.742188 36.605469 C 61.390625 36.605469 60.332031 36.488281 57.101562 35.984375 C 53.808594 35.484375 52.132812 35.304688 50.472656 35.304688 C 49.371094 35.304688 48.34375 35.394531 47.269531 35.570312 C 45.859375 35.792969 45.300781 35.957031 44.023438 36.546875 C 47.609375 40.492188 52.78125 42.960938 58.511719 42.960938 C 69.386719 42.960938 78.1875 34.109375 78.1875 23.171875 C 78.1875 12.253906 69.386719 3.386719 58.511719 3.386719 "/>
<path style=" stroke:none;fill-rule:nonzero;fill:rgb(9.019608%,22.745098%,47.058824%);fill-opacity:1;" d="M 21.484375 56.703125 L 6.421875 56.703125 L 4.554688 60.828125 C 5.171875 60.488281 5.421875 60.367188 5.964844 60.160156 C 6.816406 59.820312 7.757812 59.554688 8.683594 59.378906 C 9.460938 59.246094 10.199219 59.1875 11.375 59.15625 C 11.902344 59.125 12.402344 59.125 12.871094 59.125 L 15.089844 59.125 L 3.363281 75.988281 L 19.941406 75.988281 L 21.863281 71.585938 C 21.1875 71.96875 20.953125 72.101562 20.453125 72.324219 C 19.484375 72.765625 18.425781 73.089844 17.355469 73.285156 C 16.5 73.429688 15.53125 73.519531 14.339844 73.550781 C 13.945312 73.566406 13.429688 73.566406 12.8125 73.566406 L 9.875 73.566406 L 21.484375 56.703125 "/>
<path style=" stroke:none;fill-rule:nonzero;fill:rgb(9.019608%,22.745098%,47.058824%);fill-opacity:1;" d="M 72.089844 75.988281 C 71.792969 75.722656 71.691406 75.605469 71.5 75.308594 C 71.367188 75.117188 71.28125 74.910156 71.191406 74.71875 C 71.03125 74.273438 70.925781 73.636719 70.925781 73.019531 L 70.925781 61.402344 L 70.941406 60.28125 C 70.957031 58.992188 70.988281 58.640625 71.148438 58.105469 C 71.207031 57.898438 71.308594 57.707031 71.414062 57.515625 C 71.617188 57.175781 71.75 57.027344 72.148438 56.703125 L 65.992188 56.703125 C 66.386719 57.058594 66.519531 57.191406 66.695312 57.472656 C 66.828125 57.664062 66.929688 57.886719 66.988281 58.09375 C 67.136719 58.566406 67.179688 59.023438 67.195312 60.175781 C 67.195312 60.765625 67.195312 61.152344 67.195312 61.328125 L 67.195312 72.871094 C 67.195312 73.550781 67.078125 74.273438 66.902344 74.746094 C 66.8125 74.9375 66.710938 75.132812 66.59375 75.308594 C 66.445312 75.515625 66.34375 75.632812 66.003906 75.988281 L 72.089844 75.988281 "/>
<path style=" stroke:none;fill-rule:nonzero;fill:rgb(9.019608%,22.745098%,47.058824%);fill-opacity:1;" d="M 91.335938 56.878906 C 90.867188 56.734375 90.675781 56.671875 90.175781 56.570312 C 89.074219 56.332031 88.003906 56.230469 86.796875 56.230469 C 84.738281 56.230469 82.960938 56.554688 81.332031 57.25 C 80.375 57.648438 79.480469 58.179688 78.699219 58.816406 C 76.335938 60.738281 75.058594 63.5 75.058594 66.707031 C 75.058594 69.796875 76.289062 72.472656 78.554688 74.273438 C 80.421875 75.75 82.828125 76.503906 85.710938 76.503906 C 87.515625 76.503906 89.207031 76.238281 91.101562 75.632812 C 91.160156 75.617188 91.277344 75.589844 91.410156 75.542969 L 91.410156 72.042969 C 90.957031 72.339844 90.792969 72.441406 90.515625 72.605469 C 90.148438 72.824219 89.75 73.019531 89.339844 73.195312 C 88.179688 73.683594 87.136719 73.917969 85.988281 73.917969 C 84.003906 73.917969 82.300781 73.210938 81.050781 71.835938 C 79.816406 70.492188 79.140625 68.613281 79.140625 66.5 C 79.140625 64.476562 79.757812 62.597656 80.875 61.300781 C 81.34375 60.722656 81.933594 60.25 82.609375 59.867188 C 83.695312 59.261719 84.945312 58.949219 86.3125 58.949219 C 87.488281 58.949219 88.621094 59.171875 89.765625 59.644531 C 90.46875 59.925781 90.734375 60.074219 91.335938 60.515625 L 91.335938 56.878906 "/>
<path style=" stroke:none;fill-rule:nonzero;fill:rgb(9.019608%,22.745098%,47.058824%);fill-opacity:1;" d="M 108.148438 67.238281 L 108.148438 71.9375 C 108.148438 72.988281 108.132812 73.359375 108.058594 73.90625 C 108.03125 74.199219 107.957031 74.480469 107.855469 74.730469 C 107.722656 75.085938 107.5 75.425781 107.164062 75.738281 C 107.105469 75.796875 107.015625 75.882812 106.898438 75.988281 L 113.027344 75.988281 C 112.777344 75.738281 112.671875 75.617188 112.511719 75.382812 C 112.351562 75.175781 112.230469 74.96875 112.160156 74.761719 C 111.96875 74.304688 111.921875 73.964844 111.910156 73.019531 C 111.894531 72.441406 111.894531 72.117188 111.894531 72.011719 L 111.910156 61.402344 L 111.910156 60.265625 C 111.910156 59.421875 111.96875 58.757812 112.113281 58.226562 C 112.1875 57.972656 112.292969 57.738281 112.421875 57.515625 C 112.613281 57.191406 112.761719 57.027344 113.171875 56.703125 L 106.929688 56.703125 C 107.28125 57.011719 107.414062 57.148438 107.617188 57.5 C 107.765625 57.722656 107.867188 57.945312 107.941406 58.167969 C 108.089844 58.625 108.148438 59.171875 108.148438 60.191406 L 108.148438 64.875 L 99.550781 64.875 L 99.550781 61.359375 C 99.550781 60.292969 99.566406 59.601562 99.609375 59.066406 C 99.625 58.757812 99.683594 58.476562 99.757812 58.238281 C 99.890625 57.8125 100.242188 57.25 100.550781 56.910156 C 100.59375 56.867188 100.667969 56.808594 100.769531 56.703125 L 94.628906 56.703125 C 94.996094 57.085938 95.085938 57.207031 95.261719 57.457031 C 95.394531 57.648438 95.496094 57.871094 95.585938 58.105469 C 95.746094 58.59375 95.773438 58.859375 95.789062 60.144531 L 95.804688 61.359375 L 95.804688 71.910156 C 95.804688 72.988281 95.789062 73.460938 95.730469 73.949219 C 95.703125 74.199219 95.644531 74.453125 95.539062 74.703125 C 95.394531 75.132812 95.15625 75.457031 94.804688 75.796875 C 94.761719 75.839844 94.6875 75.898438 94.597656 75.988281 L 100.667969 75.988281 C 100.402344 75.707031 100.300781 75.589844 100.152344 75.351562 C 100.035156 75.160156 99.933594 74.96875 99.84375 74.746094 C 99.65625 74.246094 99.582031 73.875 99.566406 73.0625 C 99.550781 72.648438 99.550781 72.265625 99.550781 71.910156 L 99.550781 67.238281 L 108.148438 67.238281 "/>
<path style=" stroke:none;fill-rule:nonzero;fill:rgb(9.019608%,22.745098%,47.058824%);fill-opacity:1;" d="M 52.191406 66.074219 C 52.472656 66.074219 52.796875 66.042969 53.191406 65.984375 C 54.21875 65.835938 54.925781 65.597656 55.601562 65.199219 C 55.96875 64.980469 56.261719 64.742188 56.5 64.476562 C 56.996094 63.914062 57.246094 63.175781 57.246094 62.304688 C 57.246094 61.300781 56.910156 60.488281 56.261719 59.925781 C 55.894531 59.613281 55.441406 59.378906 54.96875 59.230469 C 54.234375 59.023438 53.324219 58.917969 52.382812 58.917969 C 52.222656 58.917969 52.121094 58.917969 51.882812 58.917969 L 51.882812 66.058594 C 52.03125 66.074219 52.089844 66.074219 52.191406 66.074219 Z M 51.882812 72.027344 C 51.882812 72.367188 51.882812 72.691406 51.882812 72.988281 C 51.898438 73.875 51.972656 74.347656 52.132812 74.777344 C 52.222656 74.96875 52.324219 75.175781 52.472656 75.351562 C 52.632812 75.589844 52.722656 75.691406 53 75.988281 L 46.902344 75.988281 C 47.253906 75.664062 47.375 75.542969 47.535156 75.308594 C 47.683594 75.132812 47.785156 74.925781 47.871094 74.703125 C 48.035156 74.273438 48.09375 73.757812 48.09375 72.839844 L 48.09375 60.191406 C 48.09375 59.171875 48.035156 58.566406 47.902344 58.136719 C 47.828125 57.886719 47.710938 57.648438 47.5625 57.441406 C 47.386719 57.160156 47.269531 57.011719 46.917969 56.703125 L 51.871094 56.703125 C 52.488281 56.703125 53.074219 56.71875 53.648438 56.734375 C 55.175781 56.777344 56.070312 56.867188 56.925781 57.074219 C 58.160156 57.351562 59.261719 57.972656 60.039062 58.800781 C 60.90625 59.703125 61.332031 60.78125 61.332031 61.964844 C 61.332031 62.464844 61.257812 62.953125 61.097656 63.441406 C 60.816406 64.3125 60.347656 65.007812 59.597656 65.644531 C 58.921875 66.207031 58.1875 66.632812 57.234375 67.019531 C 56.894531 67.152344 56.746094 67.210938 56.378906 67.3125 L 59.363281 70.84375 C 59.714844 71.273438 60.1875 71.792969 60.757812 72.410156 C 61.65625 73.386719 62.257812 74.007812 62.917969 74.644531 C 63.214844 74.925781 63.492188 75.175781 63.757812 75.410156 C 64.007812 75.617188 64.125 75.722656 64.449219 75.988281 L 62.050781 75.988281 C 61.683594 75.988281 61.363281 75.988281 61.054688 75.972656 C 60.214844 75.945312 59.703125 75.8125 59.144531 75.515625 C 58.496094 75.175781 57.851562 74.644531 57.160156 73.933594 C 56.953125 73.726562 56.644531 73.371094 56.234375 72.898438 C 55.867188 72.484375 55.601562 72.175781 55.441406 71.96875 L 51.882812 67.683594 L 51.882812 72.027344 "/>
<path style=" stroke:none;fill-rule:nonzero;fill:rgb(9.019608%,22.745098%,47.058824%);fill-opacity:1;" d="M 43.789062 56.71875 L 37.675781 56.71875 C 38.042969 57.011719 38.175781 57.148438 38.367188 57.457031 C 38.5 57.664062 38.585938 57.886719 38.660156 58.105469 C 38.777344 58.578125 38.820312 59.039062 38.820312 60.132812 L 38.820312 67.460938 C 38.820312 69.042969 38.777344 69.957031 38.660156 70.726562 C 38.585938 71.246094 38.410156 71.71875 38.160156 72.144531 C 37.703125 72.929688 36.835938 73.535156 35.808594 73.800781 C 35.398438 73.90625 34.941406 73.949219 34.441406 73.949219 C 32.796875 73.949219 31.386719 73.328125 30.710938 72.324219 C 30.179688 71.523438 30.019531 70.785156 30.003906 68.804688 L 29.992188 67.210938 L 29.992188 61.402344 C 29.992188 60.28125 30.003906 59.734375 30.035156 59.15625 C 30.0625 58.816406 30.109375 58.519531 30.179688 58.285156 C 30.3125 57.839844 30.636719 57.25 30.960938 56.878906 C 30.988281 56.851562 31.035156 56.792969 31.105469 56.71875 L 24.875 56.71875 C 25.257812 57.027344 25.390625 57.175781 25.566406 57.5 C 25.699219 57.707031 25.789062 57.929688 25.847656 58.167969 C 25.921875 58.460938 25.964844 58.757812 25.964844 59.054688 C 25.980469 59.246094 25.980469 59.644531 25.980469 60.25 L 25.992188 61.359375 L 25.992188 66.886719 C 25.992188 68.9375 25.992188 69.457031 26.066406 70.285156 C 26.183594 71.6875 26.609375 72.8125 27.417969 73.832031 C 28.859375 75.664062 31.195312 76.625 34.179688 76.625 C 35.601562 76.625 36.96875 76.402344 38.027344 76.019531 C 39.128906 75.605469 40.144531 74.925781 40.878906 74.097656 C 41.761719 73.105469 42.273438 71.878906 42.421875 70.359375 C 42.523438 69.472656 42.554688 68.4375 42.554688 66.914062 L 42.554688 61.371094 L 42.539062 60.28125 L 42.539062 60.058594 C 42.539062 59.230469 42.582031 58.742188 42.699219 58.300781 C 42.773438 58.019531 42.875 57.753906 43.039062 57.515625 C 43.246094 57.191406 43.375 57.042969 43.789062 56.71875 "/>
<path style=" stroke:none;fill-rule:nonzero;fill:rgb(9.019608%,22.745098%,47.058824%);fill-opacity:1;" d="M 119.8125 50.453125 L 120.328125 50.453125 C 120.886719 50.453125 121.535156 50.246094 121.535156 49.566406 C 121.535156 48.769531 120.960938 48.722656 120.3125 48.722656 L 119.8125 48.722656 Z M 119.34375 48.308594 L 120.59375 48.308594 C 121.445312 48.308594 122.003906 48.679688 122.003906 49.566406 C 122.003906 50.1875 121.535156 50.613281 120.929688 50.6875 L 120.929688 50.703125 C 121.3125 50.746094 121.519531 50.953125 121.664062 51.292969 L 122.488281 53.171875 L 121.960938 53.171875 L 121.269531 51.515625 C 120.988281 50.894531 120.667969 50.882812 120.210938 50.882812 L 119.8125 50.882812 L 119.8125 53.171875 L 119.34375 53.171875 L 119.34375 48.308594 "/>
<path style=" stroke:none;fill-rule:nonzero;fill:rgb(9.019608%,22.745098%,47.058824%);fill-opacity:1;" d="M 120.753906 54.25 C 118.816406 54.25 117.242188 52.667969 117.242188 50.734375 C 117.242188 48.78125 118.816406 47.1875 120.753906 47.1875 C 122.695312 47.1875 124.265625 48.78125 124.265625 50.734375 C 124.265625 52.667969 122.695312 54.25 120.753906 54.25 Z M 120.753906 46.742188 C 118.582031 46.742188 116.789062 48.53125 116.789062 50.734375 C 116.789062 52.921875 118.582031 54.707031 120.753906 54.707031 C 122.945312 54.707031 124.722656 52.921875 124.722656 50.734375 C 124.722656 48.53125 122.945312 46.742188 120.753906 46.742188 "/>
</g>
</svg>
