<?xml version="1.0" encoding="UTF-8"?>
<svg xmlns="http://www.w3.org/2000/svg" xmlns:xlink="http://www.w3.org/1999/xlink" width="106px" height="66px" viewBox="0 0 105 66" version="1.1">
<g id="surface1">
<path style=" stroke:none;fill-rule:nonzero;fill:rgb(15.686275%,34.117647%,68.627451%);fill-opacity:1;" d="M 47.996094 2.792969 C 39.089844 2.792969 31.859375 10.109375 31.859375 19.117188 C 31.859375 22.847656 33.097656 26.273438 35.171875 29.015625 L 48.585938 11.179688 L 47.140625 11.191406 L 45.707031 11.191406 C 44.175781 11.191406 42.742188 11.300781 41.703125 11.5 C 41.078125 11.621094 40.523438 11.851562 40.066406 12.179688 C 39.523438 12.558594 38.863281 13.363281 38.414062 14.15625 C 38.367188 14.242188 38.296875 14.386719 38.199219 14.582031 L 37.414062 14.398438 L 38.726562 9.277344 L 55.53125 9.277344 L 42.1875 27.335938 C 43.058594 27.261719 43.394531 27.238281 44.105469 27.238281 C 44.644531 27.238281 45.464844 27.273438 46.5625 27.347656 L 48.9375 27.480469 C 49.792969 27.539062 50.515625 27.566406 51.070312 27.566406 C 52.289062 27.566406 53.082031 27.46875 53.882812 27.226562 C 54.492188 27.027344 55.074219 26.75 55.601562 26.382812 C 56.542969 25.726562 57.449219 24.667969 58 23.617188 C 58.050781 23.507812 58.132812 23.347656 58.234375 23.128906 L 58.953125 23.3125 C 58.726562 24.214844 58.589844 24.554688 58.242188 25.359375 C 57.519531 26.96875 56.714844 28.054688 55.601562 28.894531 C 54.457031 29.75 53.191406 30.171875 51.6875 30.199219 L 51.46875 30.199219 C 50.359375 30.199219 49.492188 30.101562 46.839844 29.6875 C 44.140625 29.273438 42.765625 29.125 41.402344 29.125 C 40.5 29.125 39.65625 29.199219 38.777344 29.34375 C 37.617188 29.527344 37.160156 29.664062 36.113281 30.152344 C 39.054688 33.40625 43.296875 35.441406 47.996094 35.441406 C 56.917969 35.441406 64.136719 28.140625 64.136719 19.117188 C 64.136719 10.109375 56.917969 2.792969 47.996094 2.792969 "/>
<path style=" stroke:none;fill-rule:nonzero;fill:rgb(9.019608%,22.745098%,47.058824%);fill-opacity:1;" d="M 17.625 46.78125 L 5.269531 46.78125 L 3.734375 50.183594 C 4.242188 49.902344 4.449219 49.804688 4.894531 49.632812 C 5.589844 49.351562 6.363281 49.132812 7.125 48.988281 C 7.761719 48.878906 8.367188 48.828125 9.332031 48.804688 C 9.761719 48.777344 10.171875 48.777344 10.558594 48.777344 L 12.378906 48.777344 L 2.757812 62.691406 L 16.359375 62.691406 L 17.933594 59.058594 C 17.378906 59.375 17.1875 59.484375 16.777344 59.667969 C 15.984375 60.03125 15.113281 60.300781 14.238281 60.460938 C 13.535156 60.578125 12.742188 60.652344 11.761719 60.679688 C 11.441406 60.691406 11.015625 60.691406 10.511719 60.691406 L 8.101562 60.691406 L 17.625 46.78125 "/>
<path style=" stroke:none;fill-rule:nonzero;fill:rgb(9.019608%,22.745098%,47.058824%);fill-opacity:1;" d="M 59.136719 62.691406 C 58.894531 62.472656 58.808594 62.375 58.652344 62.128906 C 58.542969 61.972656 58.472656 61.800781 58.398438 61.644531 C 58.269531 61.277344 58.179688 60.75 58.179688 60.242188 L 58.179688 50.65625 L 58.195312 49.730469 C 58.207031 48.667969 58.234375 48.378906 58.363281 47.9375 C 58.410156 47.765625 58.496094 47.609375 58.582031 47.449219 C 58.75 47.171875 58.859375 47.046875 59.183594 46.78125 L 54.132812 46.78125 C 54.457031 47.074219 54.566406 47.183594 54.710938 47.414062 C 54.820312 47.574219 54.902344 47.757812 54.953125 47.925781 C 55.074219 48.316406 55.109375 48.695312 55.121094 49.644531 C 55.121094 50.132812 55.121094 50.449219 55.121094 50.59375 L 55.121094 60.117188 C 55.121094 60.679688 55.023438 61.277344 54.878906 61.664062 C 54.808594 61.824219 54.722656 61.984375 54.628906 62.128906 C 54.507812 62.300781 54.421875 62.398438 54.144531 62.691406 L 59.136719 62.691406 "/>
<path style=" stroke:none;fill-rule:nonzero;fill:rgb(9.019608%,22.745098%,47.058824%);fill-opacity:1;" d="M 74.925781 46.925781 C 74.539062 46.804688 74.382812 46.753906 73.972656 46.671875 C 73.070312 46.472656 72.191406 46.390625 71.199219 46.390625 C 69.511719 46.390625 68.054688 46.65625 66.71875 47.230469 C 65.933594 47.558594 65.199219 48 64.558594 48.523438 C 62.621094 50.109375 61.570312 52.386719 61.570312 55.035156 C 61.570312 57.582031 62.582031 59.789062 64.4375 61.277344 C 65.972656 62.492188 67.945312 63.117188 70.308594 63.117188 C 71.789062 63.117188 73.175781 62.898438 74.730469 62.398438 C 74.78125 62.382812 74.875 62.363281 74.984375 62.324219 L 74.984375 59.433594 C 74.613281 59.679688 74.480469 59.765625 74.25 59.898438 C 73.949219 60.078125 73.625 60.242188 73.285156 60.386719 C 72.335938 60.789062 71.480469 60.980469 70.539062 60.980469 C 68.910156 60.980469 67.511719 60.398438 66.488281 59.265625 C 65.472656 58.15625 64.921875 56.605469 64.921875 54.863281 C 64.921875 53.191406 65.425781 51.644531 66.34375 50.574219 C 66.726562 50.097656 67.210938 49.707031 67.765625 49.390625 C 68.65625 48.890625 69.683594 48.632812 70.804688 48.632812 C 71.769531 48.632812 72.695312 48.816406 73.636719 49.207031 C 74.210938 49.4375 74.429688 49.5625 74.925781 49.925781 L 74.925781 46.925781 "/>
<path style=" stroke:none;fill-rule:nonzero;fill:rgb(9.019608%,22.745098%,47.058824%);fill-opacity:1;" d="M 88.714844 55.472656 L 88.714844 59.347656 C 88.714844 60.214844 88.703125 60.519531 88.640625 60.972656 C 88.621094 61.214844 88.558594 61.445312 88.476562 61.652344 C 88.367188 61.945312 88.183594 62.226562 87.90625 62.484375 C 87.859375 62.53125 87.785156 62.601562 87.691406 62.691406 L 92.71875 62.691406 C 92.511719 62.484375 92.425781 62.382812 92.292969 62.191406 C 92.164062 62.019531 92.0625 61.847656 92.007812 61.679688 C 91.847656 61.300781 91.8125 61.019531 91.800781 60.242188 C 91.789062 59.765625 91.789062 59.496094 91.789062 59.410156 L 91.800781 50.65625 L 91.800781 49.71875 C 91.800781 49.023438 91.847656 48.476562 91.96875 48.035156 C 92.027344 47.828125 92.117188 47.632812 92.222656 47.449219 C 92.378906 47.183594 92.5 47.046875 92.835938 46.78125 L 87.714844 46.78125 C 88.003906 47.035156 88.113281 47.148438 88.28125 47.4375 C 88.402344 47.621094 88.484375 47.804688 88.546875 47.988281 C 88.667969 48.367188 88.714844 48.816406 88.714844 49.65625 L 88.714844 53.523438 L 81.664062 53.523438 L 81.664062 50.621094 C 81.664062 49.742188 81.675781 49.171875 81.710938 48.730469 C 81.722656 48.476562 81.773438 48.242188 81.832031 48.046875 C 81.941406 47.695312 82.230469 47.230469 82.484375 46.949219 C 82.519531 46.914062 82.578125 46.867188 82.664062 46.78125 L 77.625 46.78125 C 77.925781 47.097656 78 47.195312 78.144531 47.402344 C 78.253906 47.558594 78.335938 47.742188 78.410156 47.9375 C 78.542969 48.339844 78.5625 48.558594 78.578125 49.621094 L 78.589844 50.621094 L 78.589844 59.324219 C 78.589844 60.214844 78.578125 60.605469 78.527344 61.007812 C 78.507812 61.214844 78.457031 61.425781 78.371094 61.628906 C 78.253906 61.984375 78.058594 62.253906 77.769531 62.53125 C 77.734375 62.566406 77.671875 62.617188 77.601562 62.691406 L 82.578125 62.691406 C 82.359375 62.457031 82.277344 62.363281 82.15625 62.164062 C 82.058594 62.007812 81.976562 61.847656 81.902344 61.664062 C 81.75 61.253906 81.6875 60.945312 81.675781 60.277344 C 81.664062 59.933594 81.664062 59.621094 81.664062 59.324219 L 81.664062 55.472656 L 88.714844 55.472656 "/>
<path style=" stroke:none;fill-rule:nonzero;fill:rgb(9.019608%,22.745098%,47.058824%);fill-opacity:1;" d="M 42.8125 54.511719 C 43.042969 54.511719 43.308594 54.484375 43.632812 54.4375 C 44.476562 54.316406 45.054688 54.117188 45.609375 53.789062 C 45.910156 53.609375 46.152344 53.414062 46.347656 53.191406 C 46.753906 52.730469 46.960938 52.121094 46.960938 51.402344 C 46.960938 50.574219 46.683594 49.902344 46.152344 49.4375 C 45.851562 49.179688 45.480469 48.988281 45.089844 48.863281 C 44.488281 48.695312 43.742188 48.605469 42.96875 48.605469 C 42.839844 48.605469 42.753906 48.605469 42.558594 48.605469 L 42.558594 54.5 C 42.683594 54.511719 42.730469 54.511719 42.8125 54.511719 Z M 42.558594 59.421875 C 42.558594 59.703125 42.558594 59.96875 42.558594 60.214844 C 42.574219 60.945312 42.632812 61.335938 42.765625 61.691406 C 42.839844 61.847656 42.921875 62.019531 43.042969 62.164062 C 43.175781 62.363281 43.25 62.445312 43.476562 62.691406 L 38.472656 62.691406 C 38.761719 62.421875 38.863281 62.324219 38.992188 62.128906 C 39.117188 61.984375 39.199219 61.8125 39.269531 61.628906 C 39.402344 61.277344 39.453125 60.851562 39.453125 60.09375 L 39.453125 49.65625 C 39.453125 48.816406 39.402344 48.316406 39.292969 47.960938 C 39.234375 47.757812 39.136719 47.558594 39.015625 47.390625 C 38.871094 47.15625 38.777344 47.035156 38.488281 46.78125 L 42.550781 46.78125 C 43.058594 46.78125 43.539062 46.792969 44.007812 46.804688 C 45.261719 46.839844 45.996094 46.914062 46.695312 47.085938 C 47.710938 47.316406 48.613281 47.828125 49.25 48.511719 C 49.960938 49.253906 50.3125 50.144531 50.3125 51.121094 C 50.3125 51.535156 50.25 51.9375 50.121094 52.339844 C 49.886719 53.058594 49.503906 53.632812 48.890625 54.15625 C 48.335938 54.621094 47.730469 54.972656 46.949219 55.292969 C 46.671875 55.402344 46.550781 55.449219 46.25 55.53125 L 48.695312 58.445312 C 48.984375 58.800781 49.371094 59.230469 49.839844 59.738281 C 50.578125 60.542969 51.070312 61.054688 51.613281 61.582031 C 51.855469 61.8125 52.082031 62.019531 52.300781 62.214844 C 52.507812 62.382812 52.601562 62.472656 52.867188 62.691406 L 50.902344 62.691406 C 50.601562 62.691406 50.335938 62.691406 50.082031 62.675781 C 49.394531 62.65625 48.976562 62.546875 48.515625 62.300781 C 47.984375 62.019531 47.457031 61.582031 46.890625 60.996094 C 46.71875 60.824219 46.464844 60.53125 46.128906 60.140625 C 45.828125 59.800781 45.609375 59.546875 45.480469 59.375 L 42.558594 55.839844 L 42.558594 59.421875 "/>
<path style=" stroke:none;fill-rule:nonzero;fill:rgb(9.019608%,22.745098%,47.058824%);fill-opacity:1;" d="M 35.921875 46.792969 L 30.90625 46.792969 C 31.207031 47.035156 31.316406 47.148438 31.472656 47.402344 C 31.582031 47.574219 31.652344 47.757812 31.714844 47.9375 C 31.808594 48.328125 31.84375 48.707031 31.84375 49.609375 L 31.84375 55.65625 C 31.84375 56.960938 31.808594 57.714844 31.714844 58.347656 C 31.652344 58.777344 31.507812 59.167969 31.304688 59.519531 C 30.929688 60.167969 30.21875 60.667969 29.375 60.886719 C 29.039062 60.972656 28.664062 61.007812 28.253906 61.007812 C 26.902344 61.007812 25.746094 60.496094 25.191406 59.667969 C 24.757812 59.007812 24.625 58.398438 24.613281 56.765625 L 24.601562 55.449219 L 24.601562 50.65625 C 24.601562 49.730469 24.613281 49.28125 24.636719 48.804688 C 24.660156 48.523438 24.699219 48.277344 24.757812 48.085938 C 24.867188 47.71875 25.132812 47.230469 25.398438 46.925781 C 25.421875 46.902344 25.457031 46.855469 25.515625 46.792969 L 20.40625 46.792969 C 20.71875 47.046875 20.828125 47.171875 20.972656 47.4375 C 21.082031 47.609375 21.15625 47.792969 21.203125 47.988281 C 21.265625 48.230469 21.300781 48.476562 21.300781 48.71875 C 21.3125 48.878906 21.3125 49.207031 21.3125 49.707031 L 21.320312 50.621094 L 21.320312 55.179688 C 21.320312 56.875 21.320312 57.300781 21.382812 57.984375 C 21.480469 59.140625 21.828125 60.070312 22.492188 60.910156 C 23.671875 62.421875 25.589844 63.214844 28.039062 63.214844 C 29.203125 63.214844 30.324219 63.03125 31.195312 62.714844 C 32.097656 62.375 32.929688 61.8125 33.535156 61.128906 C 34.257812 60.3125 34.675781 59.300781 34.800781 58.046875 C 34.882812 57.316406 34.90625 56.460938 34.90625 55.203125 L 34.90625 50.632812 L 34.894531 49.730469 L 34.894531 49.546875 C 34.894531 48.863281 34.929688 48.460938 35.027344 48.097656 C 35.085938 47.867188 35.171875 47.648438 35.304688 47.449219 C 35.476562 47.183594 35.582031 47.058594 35.921875 46.792969 "/>
<path style=" stroke:none;fill-rule:nonzero;fill:rgb(9.019608%,22.745098%,47.058824%);fill-opacity:1;" d="M 98.285156 41.625 L 98.707031 41.625 C 99.164062 41.625 99.695312 41.453125 99.695312 40.890625 C 99.695312 40.234375 99.226562 40.195312 98.695312 40.195312 L 98.285156 40.195312 Z M 97.898438 39.855469 L 98.925781 39.855469 C 99.625 39.855469 100.082031 40.160156 100.082031 40.890625 C 100.082031 41.40625 99.695312 41.757812 99.199219 41.816406 L 99.199219 41.832031 C 99.515625 41.867188 99.683594 42.035156 99.800781 42.316406 L 100.480469 43.867188 L 100.046875 43.867188 L 99.480469 42.5 C 99.25 41.988281 98.984375 41.976562 98.609375 41.976562 L 98.285156 41.976562 L 98.285156 43.867188 L 97.898438 43.867188 L 97.898438 39.855469 "/>
<path style=" stroke:none;fill-rule:nonzero;fill:rgb(9.019608%,22.745098%,47.058824%);fill-opacity:1;" d="M 99.054688 44.757812 C 97.464844 44.757812 96.175781 43.449219 96.175781 41.855469 C 96.175781 40.246094 97.464844 38.929688 99.054688 38.929688 C 100.648438 38.929688 101.9375 40.246094 101.9375 41.855469 C 101.9375 43.449219 100.648438 44.757812 99.054688 44.757812 Z M 99.054688 38.5625 C 97.273438 38.5625 95.804688 40.039062 95.804688 41.855469 C 95.804688 43.660156 97.273438 45.132812 99.054688 45.132812 C 100.855469 45.132812 102.3125 43.660156 102.3125 41.855469 C 102.3125 40.039062 100.855469 38.5625 99.054688 38.5625 "/>
</g>
</svg>
