<?xml version="1.0" encoding="utf-8"?>
<!-- Generator: Adobe Illustrator 28.3.0, SVG Export Plug-In . SVG Version: 6.00 Build 0)  -->
<svg version="1.1" id="svg2287" xmlns:svg="http://www.w3.org/2000/svg"
	 xmlns="http://www.w3.org/2000/svg" xmlns:xlink="http://www.w3.org/1999/xlink" x="0px" y="0px" viewBox="0 0 128 64"
	 style="enable-background:new 0 0 128 64;" xml:space="preserve">
<style type="text/css">
	.st0{fill:#2857AF;}
	.st1{fill:#173A78;}
</style>
<g id="layer1" transform="translate(-47.836681,-348.16307)">
	<g id="g2305" transform="translate(17.639488,17.647201)">
		<path id="path28" class="st0" d="M89.5,331.6c-9.2,0-16.7,7.5-16.7,16.7c0,3.8,1.3,7.3,3.4,10.1l13.9-18.3l-1.5,0h-1.5
			c-1.6,0-3.1,0.1-4.1,0.3c-0.6,0.1-1.2,0.4-1.7,0.7c-0.6,0.4-1.2,1.2-1.7,2c0,0.1-0.1,0.2-0.2,0.4l-0.8-0.2l1.4-5.2h17.4
			l-13.8,18.5c0.9-0.1,1.2-0.1,2-0.1c0.6,0,1.4,0,2.5,0.1l2.5,0.1c0.9,0.1,1.6,0.1,2.2,0.1c1.3,0,2.1-0.1,2.9-0.3
			c0.6-0.2,1.2-0.5,1.8-0.9c1-0.7,1.9-1.8,2.5-2.8c0-0.1,0.1-0.3,0.2-0.5l0.7,0.2c-0.2,0.9-0.4,1.3-0.7,2.1
			c-0.7,1.6-1.6,2.8-2.7,3.6c-1.2,0.9-2.5,1.3-4.1,1.3h-0.2c-1.1,0-2-0.1-4.8-0.5c-2.8-0.4-4.2-0.6-5.6-0.6c-0.9,0-1.8,0.1-2.7,0.2
			c-1.2,0.2-1.7,0.3-2.8,0.8c3,3.3,7.4,5.4,12.3,5.4c9.2,0,16.7-7.5,16.7-16.7C106.2,339.1,98.7,331.6,89.5,331.6"/>
		<path id="path30" class="st1" d="M58,376.6H45.2l-1.6,3.5c0.5-0.3,0.7-0.4,1.2-0.6c0.7-0.3,1.5-0.5,2.3-0.7
			c0.7-0.1,1.3-0.2,2.3-0.2c0.4,0,0.9,0,1.3,0h1.9l-10,14.3h14.1l1.6-3.7c-0.6,0.3-0.8,0.4-1.2,0.6c-0.8,0.4-1.7,0.6-2.6,0.8
			c-0.7,0.1-1.5,0.2-2.6,0.2c-0.3,0-0.8,0-1.3,0h-2.5L58,376.6"/>
		<path id="path32" class="st1" d="M101,392.9c-0.2-0.2-0.3-0.3-0.5-0.6c-0.1-0.2-0.2-0.3-0.3-0.5c-0.1-0.4-0.2-0.9-0.2-1.4v-9.8
			l0-0.9c0-1.1,0-1.4,0.2-1.8c0-0.2,0.1-0.3,0.2-0.5c0.2-0.3,0.3-0.4,0.6-0.7h-5.2c0.3,0.3,0.4,0.4,0.6,0.6c0.1,0.2,0.2,0.3,0.2,0.5
			c0.1,0.4,0.2,0.8,0.2,1.8c0,0.5,0,0.8,0,1v9.8c0,0.6-0.1,1.2-0.2,1.6c-0.1,0.2-0.2,0.3-0.3,0.5c-0.1,0.2-0.2,0.3-0.5,0.6H101"/>
		<path id="path34" class="st1" d="M117.4,376.8c-0.4-0.1-0.6-0.2-1-0.3c-0.9-0.2-1.8-0.3-2.9-0.3c-1.7,0-3.3,0.3-4.6,0.9
			c-0.8,0.3-1.6,0.8-2.2,1.3c-2,1.6-3.1,4-3.1,6.7c0,2.6,1,4.9,3,6.4c1.6,1.2,3.6,1.9,6.1,1.9c1.5,0,3-0.2,4.6-0.7
			c0,0,0.1,0,0.3-0.1v-3c-0.4,0.2-0.5,0.3-0.8,0.5c-0.3,0.2-0.6,0.3-1,0.5c-1,0.4-1.9,0.6-2.8,0.6c-1.7,0-3.1-0.6-4.2-1.8
			c-1-1.1-1.6-2.7-1.6-4.5c0-1.7,0.5-3.3,1.5-4.4c0.4-0.5,0.9-0.9,1.5-1.2c0.9-0.5,2-0.8,3.1-0.8c1,0,2,0.2,2.9,0.6
			c0.6,0.2,0.8,0.4,1.3,0.7V376.8"/>
		<path id="path36" class="st1" d="M131.7,385.5v4c0,0.9,0,1.2-0.1,1.7c0,0.2-0.1,0.5-0.2,0.7c-0.1,0.3-0.3,0.6-0.6,0.8
			c0,0-0.1,0.1-0.2,0.2h5.2c-0.2-0.2-0.3-0.3-0.4-0.5c-0.1-0.2-0.2-0.3-0.3-0.5c-0.2-0.4-0.2-0.7-0.2-1.5c0-0.5,0-0.8,0-0.8l0-9v-1
			c0-0.7,0-1.3,0.2-1.7c0.1-0.2,0.1-0.4,0.3-0.6c0.2-0.3,0.3-0.4,0.6-0.7h-5.3c0.3,0.3,0.4,0.4,0.6,0.7c0.1,0.2,0.2,0.4,0.3,0.6
			c0.1,0.4,0.2,0.8,0.2,1.7v4h-7.3v-3c0-0.9,0-1.5,0-1.9c0-0.3,0.1-0.5,0.1-0.7c0.1-0.4,0.4-0.8,0.7-1.1c0,0,0.1-0.1,0.2-0.2h-5.2
			c0.3,0.3,0.4,0.4,0.5,0.6c0.1,0.2,0.2,0.3,0.3,0.5c0.1,0.4,0.2,0.6,0.2,1.7l0,1v8.9c0,0.9,0,1.3-0.1,1.7c0,0.2-0.1,0.4-0.2,0.6
			c-0.1,0.4-0.3,0.6-0.6,0.9c0,0-0.1,0.1-0.2,0.2h5.2c-0.2-0.2-0.3-0.3-0.4-0.5c-0.1-0.2-0.2-0.3-0.3-0.5c-0.2-0.4-0.2-0.7-0.2-1.4
			c0-0.3,0-0.7,0-1v-3.9H131.7"/>
		<path id="path44" class="st1" d="M84.1,384.6c0.2,0,0.5,0,0.8-0.1c0.9-0.1,1.5-0.3,2-0.7c0.3-0.2,0.6-0.4,0.8-0.6
			c0.4-0.5,0.6-1.1,0.6-1.8c0-0.8-0.3-1.5-0.8-2c-0.3-0.3-0.7-0.5-1.1-0.6c-0.6-0.2-1.4-0.3-2.2-0.3c-0.1,0-0.2,0-0.4,0v6
			C84,384.6,84,384.6,84.1,384.6z M83.9,389.6c0,0.3,0,0.6,0,0.8c0,0.7,0.1,1.1,0.2,1.5c0.1,0.2,0.2,0.3,0.3,0.5
			c0.1,0.2,0.2,0.3,0.4,0.5h-5.2c0.3-0.3,0.4-0.4,0.5-0.6c0.1-0.1,0.2-0.3,0.3-0.5c0.1-0.4,0.2-0.8,0.2-1.6v-10.7
			c0-0.9,0-1.4-0.2-1.7c-0.1-0.2-0.2-0.4-0.3-0.6c-0.1-0.2-0.2-0.4-0.5-0.6h4.2c0.5,0,1,0,1.5,0c1.3,0,2.1,0.1,2.8,0.3
			c1,0.2,2,0.8,2.6,1.5c0.7,0.8,1.1,1.7,1.1,2.7c0,0.4-0.1,0.8-0.2,1.2c-0.2,0.7-0.6,1.3-1.3,1.9c-0.6,0.5-1.2,0.8-2,1.2
			c-0.3,0.1-0.4,0.2-0.7,0.2l2.5,3c0.3,0.4,0.7,0.8,1.2,1.3c0.8,0.8,1.3,1.3,1.8,1.9c0.2,0.2,0.5,0.4,0.7,0.6
			c0.2,0.2,0.3,0.3,0.6,0.5h-2c-0.3,0-0.6,0-0.8,0c-0.7,0-1.1-0.1-1.6-0.4c-0.5-0.3-1.1-0.7-1.7-1.3c-0.2-0.2-0.4-0.5-0.8-0.9
			c-0.3-0.3-0.5-0.6-0.7-0.8l-3-3.6V389.6"/>
		<path id="path46" class="st1" d="M77,376.6h-5.2c0.3,0.2,0.4,0.4,0.6,0.6c0.1,0.2,0.2,0.4,0.2,0.5c0.1,0.4,0.1,0.8,0.1,1.7v6.2
			c0,1.3,0,2.1-0.1,2.8c-0.1,0.4-0.2,0.8-0.4,1.2c-0.4,0.7-1.1,1.2-2,1.4c-0.3,0.1-0.7,0.1-1.2,0.1c-1.4,0-2.6-0.5-3.2-1.4
			c-0.4-0.7-0.6-1.3-0.6-3l0-1.3v-4.9c0-0.9,0-1.4,0-1.9c0-0.3,0.1-0.5,0.1-0.7c0.1-0.4,0.4-0.9,0.7-1.2c0,0,0.1-0.1,0.1-0.1h-5.3
			c0.3,0.3,0.4,0.4,0.6,0.7c0.1,0.2,0.2,0.4,0.2,0.6c0.1,0.2,0.1,0.5,0.1,0.7c0,0.2,0,0.5,0,1l0,0.9v4.7c0,1.7,0,2.2,0.1,2.9
			c0.1,1.2,0.5,2.1,1.1,3c1.2,1.5,3.2,2.4,5.7,2.4c1.2,0,2.4-0.2,3.3-0.5c0.9-0.3,1.8-0.9,2.4-1.6c0.7-0.8,1.2-1.9,1.3-3.2
			c0.1-0.7,0.1-1.6,0.1-2.9v-4.7l0-0.9v-0.2c0-0.7,0-1.1,0.1-1.5c0.1-0.2,0.1-0.5,0.3-0.7C76.5,377,76.6,376.9,77,376.6"/>
		<path id="path48" class="st1" d="M141.6,371.3h0.4c0.5,0,1-0.2,1-0.7c0-0.7-0.5-0.7-1-0.7h-0.4V371.3z M141.2,369.5h1.1
			c0.7,0,1.2,0.3,1.2,1.1c0,0.5-0.4,0.9-0.9,0.9v0c0.3,0,0.5,0.2,0.6,0.5l0.7,1.6h-0.4l-0.6-1.4c-0.2-0.5-0.5-0.5-0.9-0.5h-0.3v1.9
			h-0.4V369.5"/>
		<path id="path50" class="st1" d="M142.4,374.6c-1.6,0-3-1.3-3-3c0-1.6,1.3-3,3-3s3,1.3,3,3C145.4,373.2,144.1,374.6,142.4,374.6z
			 M142.4,368.2c-1.8,0-3.4,1.5-3.4,3.4c0,1.8,1.5,3.4,3.4,3.4c1.9,0,3.4-1.5,3.4-3.4C145.8,369.7,144.3,368.2,142.4,368.2"/>
	</g>
</g>
</svg>
