<?xml version="1.0" encoding="UTF-8"?>
<svg xmlns="http://www.w3.org/2000/svg" xmlns:xlink="http://www.w3.org/1999/xlink" width="128px" height="23px" viewBox="0 0 130 23" version="1.1">
<g id="surface1">
<path style=" stroke:none;fill-rule:nonzero;fill:rgb(5.490196%,17.254902%,30.980392%);fill-opacity:1;" d="M 12.222656 10.007812 L 6.230469 10.007812 C 6.183594 10.007812 6.183594 10.007812 6.183594 10.054688 L 6.183594 10.546875 L 6.71875 11.816406 L 6.71875 15.488281 C 6.71875 15.539062 6.71875 15.539062 6.769531 15.539062 L 11.636719 15.539062 C 11.683594 15.539062 11.683594 15.539062 11.683594 15.488281 L 11.683594 11.816406 L 12.222656 10.546875 L 12.222656 10.007812 C 12.269531 10.007812 12.222656 10.007812 12.222656 10.007812 Z M 10.664062 6.679688 L 7.839844 6.679688 L 5.695312 8.832031 C 5.648438 8.832031 5.695312 8.929688 5.746094 8.929688 L 12.660156 8.929688 C 12.707031 8.929688 12.757812 8.882812 12.757812 8.832031 Z M 7.742188 5.699219 L 10.761719 5.699219 C 10.808594 5.699219 10.859375 5.601562 10.808594 5.601562 L 9.300781 3.5 C 9.300781 3.449219 9.25 3.449219 9.203125 3.5 L 7.691406 5.601562 C 7.59375 5.652344 7.691406 5.699219 7.742188 5.699219 Z M 17.820312 13.382812 L 12.953125 13.382812 C 12.902344 13.382812 12.855469 13.433594 12.902344 13.480469 L 13.097656 13.921875 L 13.097656 16.371094 C 13.097656 16.417969 13.097656 16.417969 13.144531 16.417969 L 14.898438 17.789062 C 14.949219 17.789062 14.949219 17.835938 14.996094 17.835938 L 17.527344 17.835938 C 17.527344 17.835938 17.578125 17.835938 17.578125 17.789062 L 17.578125 13.875 L 17.820312 13.433594 C 17.820312 13.433594 17.820312 13.335938 17.722656 13.335938 Z M 21.714844 11.71875 C 22.105469 6.140625 17.917969 1.347656 12.367188 0.953125 C 6.816406 0.5625 2.046875 4.722656 1.65625 10.300781 C 1.605469 10.742188 1.605469 11.230469 1.65625 11.671875 C 1.65625 13.433594 2.140625 15.195312 3.019531 16.761719 L 11.683594 16.710938 C 11.734375 16.710938 11.734375 16.761719 11.78125 16.761719 L 14.460938 18.960938 C 14.507812 19.011719 14.507812 19.011719 14.558594 19.011719 L 18.648438 19.011719 C 20.644531 17.101562 21.765625 14.460938 21.714844 11.71875 Z M 22.933594 11.71875 C 22.933594 17.933594 17.964844 22.976562 11.78125 23.023438 C 5.597656 23.023438 0.535156 17.984375 0.535156 11.71875 C 0.535156 5.457031 5.550781 0.414062 11.734375 0.414062 C 17.917969 0.464844 22.882812 5.503906 22.933594 11.71875 Z M 17.382812 11.183594 C 17.382812 11.132812 17.285156 11.132812 17.234375 11.183594 L 16.847656 12.257812 C 16.847656 12.308594 16.75 12.308594 16.699219 12.257812 L 15.386719 9.175781 C 15.386719 9.125 15.289062 9.125 15.238281 9.175781 L 13.925781 12.257812 C 13.925781 12.308594 13.828125 12.308594 13.777344 12.257812 L 13.339844 11.230469 C 13.339844 11.183594 13.242188 11.183594 13.195312 11.230469 L 12.855469 12.308594 C 12.855469 12.355469 12.855469 12.40625 12.902344 12.40625 L 17.722656 12.40625 C 17.773438 12.40625 17.820312 12.355469 17.773438 12.308594 C 17.722656 12.257812 17.332031 11.183594 17.382812 11.183594 Z M 64.074219 16.808594 L 64.074219 11.183594 L 69.917969 17.199219 C 70.015625 17.300781 70.113281 17.347656 70.210938 17.347656 L 70.308594 17.347656 C 70.453125 17.347656 70.597656 17.199219 70.597656 17.054688 L 70.597656 6.875 C 70.597656 6.730469 70.453125 6.582031 70.308594 6.582031 L 68.554688 6.582031 C 68.410156 6.582031 68.261719 6.730469 68.261719 6.875 L 68.261719 12.308594 L 62.417969 6.582031 C 62.320312 6.484375 62.226562 6.433594 62.128906 6.433594 L 61.933594 6.433594 C 61.785156 6.433594 61.640625 6.484375 61.738281 6.730469 L 61.738281 16.808594 C 61.738281 16.957031 61.882812 17.101562 62.03125 17.101562 L 63.78125 17.101562 C 63.929688 17.152344 64.074219 17.003906 64.074219 16.808594 Z M 57.015625 9.910156 C 57.015625 9.273438 56.527344 8.785156 55.945312 8.785156 C 55.945312 8.785156 55.945312 8.785156 55.894531 8.785156 L 53.65625 8.785156 L 53.65625 11.183594 L 55.894531 11.183594 C 56.527344 11.132812 57.0625 10.59375 57.015625 9.910156 Z M 56.722656 17.054688 L 54.679688 13.042969 L 53.605469 13.042969 L 53.605469 16.90625 C 53.605469 17.054688 53.460938 17.199219 53.316406 17.199219 L 51.5625 17.199219 C 51.414062 17.199219 51.269531 17.054688 51.269531 16.90625 L 51.269531 6.875 L 51.316406 6.875 C 51.316406 6.730469 51.464844 6.582031 51.609375 6.582031 L 56.089844 6.582031 C 57.890625 6.53125 59.351562 7.953125 59.402344 9.761719 C 59.402344 9.8125 59.402344 9.8125 59.402344 9.859375 C 59.402344 11.28125 58.476562 12.503906 57.160156 12.894531 L 59.207031 16.761719 C 59.253906 16.957031 59.207031 17.199219 59.011719 17.199219 L 56.964844 17.199219 C 56.820312 17.199219 56.722656 17.152344 56.722656 17.054688 Z M 118.851562 6.582031 L 112.617188 6.582031 C 112.472656 6.582031 112.324219 6.679688 112.324219 6.828125 C 112.324219 6.828125 112.324219 6.875 112.324219 6.875 L 112.324219 17.003906 C 112.324219 17.152344 112.472656 17.300781 112.617188 17.300781 L 118.851562 17.300781 C 118.996094 17.300781 119.140625 17.152344 119.140625 17.003906 L 119.140625 15.339844 C 119.140625 15.195312 118.996094 15.046875 118.851562 15.046875 L 114.710938 15.046875 L 114.710938 13.042969 L 118.167969 13.042969 C 118.316406 13.042969 118.460938 12.894531 118.460938 12.746094 L 118.460938 11.085938 C 118.460938 10.9375 118.316406 10.789062 118.167969 10.789062 L 114.710938 10.789062 L 114.710938 8.882812 L 118.851562 8.882812 C 118.996094 8.882812 119.140625 8.734375 119.140625 8.589844 L 119.140625 6.875 C 119.140625 6.730469 119.046875 6.582031 118.851562 6.582031 Z M 77.953125 13.921875 C 78 13.382812 77.5625 12.894531 76.976562 12.847656 C 76.929688 12.847656 76.878906 12.847656 76.832031 12.847656 L 75.566406 12.847656 L 75.566406 15.046875 L 76.734375 15.046875 L 76.734375 15 C 77.511719 15.046875 77.902344 14.65625 77.953125 13.921875 Z M 75.46875 10.886719 L 76.734375 10.886719 C 77.269531 10.886719 77.707031 10.449219 77.707031 9.910156 C 77.707031 9.859375 77.707031 9.859375 77.707031 9.8125 C 77.757812 9.273438 77.367188 8.785156 76.832031 8.734375 C 76.78125 8.734375 76.78125 8.734375 76.734375 8.734375 L 75.46875 8.734375 Z M 80.433594 14.3125 C 80.433594 16.125 78.925781 17.300781 77.125 17.300781 L 73.375 17.300781 C 73.226562 17.300781 73.082031 17.152344 73.082031 17.003906 L 73.082031 6.875 C 73.082031 6.730469 73.226562 6.582031 73.375 6.582031 L 76.929688 6.582031 C 78.683594 6.582031 80.140625 7.804688 80.140625 9.371094 C 80.140625 10.449219 79.507812 11.425781 78.488281 11.816406 C 79.65625 12.113281 80.433594 13.140625 80.433594 14.3125 Z M 109.746094 11.035156 L 106.773438 11.035156 C 106.628906 11.035156 106.484375 11.183594 106.484375 11.328125 L 106.484375 12.601562 C 106.484375 12.746094 106.628906 12.894531 106.773438 12.894531 L 107.75 12.894531 L 107.75 14.558594 C 107.410156 14.707031 107.019531 14.753906 106.628906 14.753906 C 104.972656 14.851562 103.5625 13.578125 103.464844 11.914062 C 103.464844 11.867188 103.464844 11.816406 103.464844 11.769531 C 103.414062 10.105469 104.632812 8.734375 106.289062 8.6875 C 106.335938 8.6875 106.335938 8.6875 106.386719 8.6875 C 107.117188 8.6875 107.796875 8.929688 108.332031 9.46875 C 108.382812 9.519531 108.527344 9.519531 108.722656 9.46875 L 109.890625 8.148438 C 109.988281 8.097656 110.039062 7.953125 109.988281 7.855469 C 109.988281 7.804688 109.941406 7.804688 109.890625 7.757812 C 108.867188 6.875 107.554688 6.335938 106.191406 6.289062 C 103.222656 6.289062 100.785156 8.6875 100.738281 11.671875 C 100.738281 14.65625 103.125 17.101562 106.09375 17.101562 C 106.09375 17.101562 106.140625 17.101562 106.140625 17.101562 C 107.457031 17.101562 108.773438 16.761719 109.890625 16.125 C 109.941406 16.125 110.039062 16.074219 110.039062 15.929688 L 110.039062 11.183594 C 110.039062 11.183594 109.890625 11.085938 109.746094 11.035156 Z M 48.835938 13.285156 L 48.835938 6.875 C 48.785156 6.679688 48.640625 6.582031 48.445312 6.582031 L 46.691406 6.582031 C 46.546875 6.582031 46.402344 6.730469 46.402344 6.875 L 46.402344 13.089844 C 46.402344 14.214844 45.816406 14.902344 44.453125 14.902344 C 43.089844 14.902344 42.503906 14.117188 42.503906 13.089844 L 42.503906 6.875 C 42.503906 6.730469 42.359375 6.582031 42.214844 6.582031 L 40.316406 6.582031 C 40.167969 6.582031 40.023438 6.730469 40.023438 6.875 L 40.023438 13.238281 C 40.023438 15.539062 41.726562 17.398438 44.453125 17.398438 C 47.179688 17.398438 48.835938 15.585938 48.835938 13.285156 Z M 28.824219 17.152344 L 30.578125 17.152344 C 30.722656 17.152344 30.867188 17.003906 30.867188 16.859375 L 30.867188 11.183594 L 36.710938 17.199219 C 36.808594 17.300781 36.90625 17.347656 37.003906 17.347656 L 37.101562 17.347656 C 37.246094 17.347656 37.394531 17.199219 37.394531 17.054688 L 37.394531 6.875 C 37.394531 6.730469 37.246094 6.582031 37.101562 6.582031 L 35.347656 6.582031 C 35.203125 6.582031 35.054688 6.730469 35.054688 6.875 L 35.054688 12.308594 L 29.214844 6.628906 C 29.117188 6.53125 29.019531 6.484375 28.921875 6.484375 L 28.726562 6.484375 C 28.582031 6.484375 28.433594 6.53125 28.53125 6.777344 L 28.53125 16.859375 C 28.53125 17.003906 28.679688 17.152344 28.824219 17.152344 Z M 82.820312 17.347656 L 89.050781 17.347656 C 89.199219 17.347656 89.34375 17.199219 89.34375 17.054688 L 89.34375 15.390625 C 89.34375 15.242188 89.199219 15.097656 89.050781 15.097656 L 84.914062 15.097656 L 84.914062 13.042969 L 88.371094 13.042969 C 88.515625 13.042969 88.664062 12.894531 88.664062 12.746094 L 88.664062 11.085938 C 88.664062 10.9375 88.515625 10.789062 88.371094 10.789062 L 84.914062 10.789062 L 84.914062 8.832031 L 89.050781 8.832031 C 89.199219 8.832031 89.34375 8.6875 89.34375 8.539062 L 89.34375 6.875 C 89.34375 6.730469 89.199219 6.582031 89.050781 6.582031 L 82.820312 6.582031 C 82.675781 6.582031 82.527344 6.628906 82.527344 6.875 L 82.527344 17.054688 C 82.527344 17.199219 82.675781 17.347656 82.820312 17.347656 Z M 43.578125 7.660156 L 45.085938 7.660156 C 45.230469 7.660156 45.378906 7.5625 45.378906 7.414062 C 45.378906 7.414062 45.378906 7.363281 45.378906 7.363281 L 45.378906 6.042969 C 45.378906 5.898438 45.230469 5.75 45.085938 5.75 L 43.578125 5.75 C 43.429688 5.75 43.285156 5.898438 43.285156 6.042969 L 43.285156 7.363281 C 43.285156 7.511719 43.429688 7.609375 43.578125 7.660156 Z M 93.871094 11.132812 L 96.113281 11.132812 C 96.746094 11.085938 97.230469 10.546875 97.230469 9.910156 C 97.230469 9.273438 96.746094 8.785156 96.160156 8.785156 C 96.160156 8.785156 96.160156 8.785156 96.113281 8.785156 L 93.871094 8.785156 Z M 94.894531 13.042969 L 93.824219 13.042969 L 93.824219 16.90625 C 93.824219 17.054688 93.679688 17.199219 93.53125 17.199219 L 91.777344 17.199219 C 91.632812 17.199219 91.488281 17.054688 91.488281 16.90625 L 91.488281 6.875 L 91.535156 6.875 C 91.535156 6.730469 91.683594 6.582031 91.828125 6.582031 L 96.308594 6.582031 C 98.109375 6.53125 99.570312 8 99.617188 9.761719 C 99.617188 9.761719 99.617188 9.8125 99.617188 9.8125 C 99.617188 11.183594 98.691406 12.453125 97.378906 12.847656 L 99.375 16.710938 C 99.472656 16.90625 99.375 17.152344 99.179688 17.152344 L 97.136719 17.152344 C 96.988281 17.152344 96.941406 17.101562 96.941406 17.003906 Z M 127.03125 9.910156 C 127.03125 9.273438 126.542969 8.785156 125.957031 8.785156 C 125.957031 8.785156 125.957031 8.785156 125.910156 8.785156 L 123.671875 8.785156 L 123.671875 11.183594 L 125.910156 11.183594 C 126.542969 11.132812 127.03125 10.59375 127.03125 9.910156 Z M 129.171875 16.761719 C 129.222656 16.957031 129.171875 17.199219 128.976562 17.199219 L 126.933594 17.199219 C 126.785156 17.199219 126.738281 17.152344 126.738281 17.054688 L 124.691406 13.042969 L 123.621094 13.042969 L 123.621094 16.90625 C 123.621094 17.054688 123.476562 17.199219 123.328125 17.199219 L 121.578125 17.199219 C 121.429688 17.199219 121.285156 17.054688 121.285156 16.90625 L 121.285156 6.875 L 121.332031 6.875 C 121.332031 6.730469 121.480469 6.582031 121.625 6.582031 L 126.105469 6.582031 C 127.90625 6.53125 129.367188 8 129.414062 9.761719 C 129.414062 9.761719 129.414062 9.8125 129.414062 9.8125 C 129.414062 11.230469 128.441406 12.453125 127.128906 12.847656 Z M 129.171875 16.761719 "/>
</g>
</svg>
