<?xml version="1.0" encoding="utf-8"?>
<!-- Generator: Adobe Illustrator 28.3.0, SVG Export Plug-In . SVG Version: 6.00 Build 0)  -->
<svg version="1.1" id="Ebene_1" xmlns="http://www.w3.org/2000/svg" xmlns:xlink="http://www.w3.org/1999/xlink" x="0px" y="0px"
	 viewBox="0 0 210.2 42.4" style="enable-background:new 0 0 210.2 42.4;" xml:space="preserve">
<style type="text/css">
	.st0{fill-rule:evenodd;clip-rule:evenodd;fill:#003781;}
	.st1{fill:#003781;}
	.st2{clip-path:url(#SVGID_00000013165601639298574680000017389131954878639267_);}
</style>
<g>
	<g id="Allianz" transform="matrix(1,0,0,1,-104.338,-135.852)">
		<path id="A" class="st0" d="M11.5,158.5H6.3l2.8-9L11.5,158.5z M3.9,167.6l1.6-5.5h6.7l1.6,5.5h5.6l-5.9-20.9
			c-0.3-1.4-1-1.8-2.4-1.8H2.9v1.9h0.6c1,0,1.5,0.3,1.5,1.1c0,0.5,0,0.8-0.5,1.9l-5.9,17.8"/>
		<path id="l" class="st1" d="M26.4,167.6v-21c0-1.1-0.6-1.7-1.8-1.7h-5.1v1.9h0.3c1,0,1.5,0.4,1.5,1.3v19.5"/>
		<path id="l1" class="st1" d="M35.5,167.6v-21c0-1.1-0.6-1.7-1.8-1.7h-5.1v1.9h0.3c1,0,1.5,0.4,1.5,1.3v19.5"/>
		<path id="i" class="st0" d="M44.8,146.9c0-1.5-1.1-2.4-2.9-2.4c-2,0-2.9,0.9-2.9,2.4s1,2.4,2.9,2.4
			C43.7,149.4,44.8,148.5,44.8,146.9 M44.7,167.6v-15.3c0-1.1-0.6-1.7-1.6-1.7H38v1.8h0.3c1,0,1.3,0.4,1.3,1.3v13.8"/>
		<path id="a" class="st0" d="M56.8,159.4v3.4c-1,1-2.1,1.5-3.1,1.5s-1.5-0.5-1.5-1.8c0-1.4,0.3-1.9,1.5-2.4
			C54.5,159.8,55.3,159.6,56.8,159.4 M49.6,155.3l0.5-0.2c1.3-0.5,2.1-0.7,3.1-0.9c0.5-0.1,1.1-0.1,1.5-0.1c1.6,0,2.1,0.5,2.1,2v0.4
			c-2.3,0.4-2.9,0.5-4.2,0.8c-0.6,0.2-1.3,0.4-2,0.6c-2.1,0.9-3.1,2.5-3.1,5c0,3.2,1.3,4.8,4.2,4.8c1.1,0,2.3-0.3,3.1-0.8
			c0.8-0.4,1.1-0.6,2.1-1.5v0.5c0,1.1,0.5,1.6,1.5,1.6h4.9v-1.8h-0.2c-1,0-1.5-0.4-1.5-1.3v-8.3c0-4.3-1.5-5.8-5.7-5.8
			c-1.5,0-2.8,0.2-4.1,0.5s-2,0.5-3.4,1.3"/>
		<path id="n" class="st0" d="M71,167.6v-11.5c1.1-1.1,2-1.5,3.1-1.5s1.5,0.5,1.5,2.2v10.8h5.1V156c0-2.4-0.3-3.4-1-4.3
			c-0.8-0.9-1.8-1.3-3.3-1.3c-2,0-3.4,0.7-5.7,2.7v-0.9c0-1.1-0.5-1.6-1.5-1.6h-4.9v1.8h0.2c1,0,1.5,0.4,1.5,1.3v13.8"/>
		<g id="z" transform="matrix(6.78093,0,0,-6.78093,-9776.15,5300.88)">
			<path class="st1" d="M1455.9,757.5h-1.1l1.1,1.5v0.5h-1.6c-0.2,0-0.3-0.1-0.3-0.3v-0.5h0.3l0,0c0,0.1,0.1,0.2,0.2,0.2h0.6
				l-1.1-1.5V757h1.9"/>
		</g>
		<g id="Eagle" transform="matrix(6.78093,0,0,-6.78093,-9776.15,5300.88)">
			<g>
				<g>
					<g>
						<defs>
							<rect id="SVGID_1_" x="-1823.5" y="-89.4" width="6551.1" height="1695.9"/>
						</defs>
						<clipPath id="SVGID_00000153680834411786486360000010391148094920255622_">
							<use xlink:href="#SVGID_1_"  style="overflow:visible;"/>
						</clipPath>
						<g style="clip-path:url(#SVGID_00000153680834411786486360000010391148094920255622_);">
							<path id="path37647" class="st0" d="M1460.2,757.1v2.8c0,0.2-0.1,0.3-0.3,0.3h-0.7V760h0.1c0.1,0,0.2,0,0.2-0.2v-2.6h0.7
								V757.1z M1460.5,757.1h0.7v2.1c0,0.2-0.1,0.3-0.3,0.3h-0.4L1460.5,757.1L1460.5,757.1z M1459,757.1v2.4h-0.4
								c-0.2,0-0.3-0.1-0.3-0.3v-2.1L1459,757.1L1459,757.1z M1462.1,758.6c0-1.3-1-2.3-2.3-2.3s-2.3,1-2.3,2.3s1,2.3,2.3,2.3
								C1461.1,760.9,1462.1,759.9,1462.1,758.6 M1462.5,758.6c0,1.5-1.2,2.7-2.7,2.7s-2.7-1.2-2.7-2.7s1.2-2.7,2.7-2.7
								C1461.4,755.9,1462.5,757,1462.5,758.6"/>
						</g>
					</g>
				</g>
			</g>
		</g>
	</g>
	<g>
		<path class="st1" d="M74,6.5h2.8c0.9,0,1.8,0.2,2.6,0.6C80.1,7.4,80.6,8,81,8.7c0.4,0.7,0.6,1.6,0.5,2.4c0,0.8-0.2,1.6-0.5,2.4
			c-0.4,0.7-0.9,1.2-1.6,1.6c-0.8,0.4-1.7,0.6-2.6,0.6H74V6.5z M76.8,14.2c1.1,0,1.9-0.3,2.4-0.8s0.8-1.3,0.8-2.3
			c0.1-0.8-0.2-1.7-0.8-2.3C78.7,8.2,77.9,8,76.8,8h-1.3v6.2L76.8,14.2L76.8,14.2z"/>
		<path class="st1" d="M90,12.8h-4.7c0.1,0.5,0.3,0.9,0.7,1.2s0.9,0.4,1.4,0.4c0.4,0,0.7,0,1.1-0.2c0.3-0.1,0.7-0.2,1-0.4l0.4,1.2
			c-0.3,0.2-0.7,0.4-1.1,0.5c-0.4,0.1-0.9,0.2-1.4,0.2c-0.6,0-1.2-0.1-1.8-0.4c-0.5-0.3-0.9-0.7-1.2-1.2c-0.3-0.6-0.4-1.2-0.4-1.8
			s0.1-1.2,0.4-1.8c0.2-0.5,0.6-0.9,1.1-1.2s1-0.4,1.6-0.4s1.1,0.1,1.6,0.4c0.5,0.3,0.8,0.7,1.1,1.2s0.4,1.1,0.4,1.7
			C90,12.4,90,12.6,90,12.8z M85.9,10.6c-0.3,0.3-0.5,0.7-0.6,1.1h3.3c0-0.4-0.2-0.8-0.5-1.1C87.5,10.1,86.5,10.1,85.9,10.6
			L85.9,10.6z"/>
		<path class="st1" d="M98.4,9.1v6.5h-1.3v-1c-0.2,0.4-0.5,0.7-0.9,0.8c-0.4,0.2-0.8,0.3-1.2,0.3c-0.7,0-1.3-0.2-1.8-0.8
			c-0.4-0.5-0.6-1.2-0.6-2.1V9.1H94v3.5c0,0.5,0.1,1,0.4,1.3c0.3,0.3,0.7,0.5,1.1,0.4c0.4,0,0.8-0.2,1.1-0.5
			c0.3-0.4,0.4-0.8,0.4-1.3V9.1H98.4L98.4,9.1z"/>
		<path class="st1" d="M104.7,15.5c-0.4,0.2-0.8,0.2-1.2,0.2c-0.6,0-1.1-0.2-1.5-0.5c-0.4-0.4-0.6-1-0.5-1.5v-3.2h-0.9V9.1h0.9V7.5
			l1.4-0.3V9h1.7v1.3h-1.7v3c0,0.6,0.3,0.9,0.9,0.9c0.3,0,0.5,0,0.8-0.1L104.7,15.5z"/>
		<path class="st1" d="M106.9,14c0.6,0.3,1.2,0.5,1.8,0.5c0.3,0,0.7,0,1-0.2c0.2-0.1,0.3-0.3,0.4-0.5c0-0.2-0.1-0.4-0.3-0.5
			c-0.3-0.1-0.6-0.2-0.9-0.3c-0.4-0.1-0.7-0.2-1.1-0.4c-0.3-0.1-0.6-0.3-0.8-0.6s-0.3-0.7-0.3-1.1c0-0.6,0.2-1.1,0.6-1.4
			c0.5-0.4,1.2-0.5,1.8-0.5c0.4,0,0.8,0,1.1,0.1s0.7,0.2,1,0.3l-0.4,1.3c-0.5-0.3-1.1-0.4-1.7-0.4c-0.3,0-0.5,0-0.8,0.2
			s-0.3,0.5-0.2,0.8c0,0.1,0.1,0.2,0.2,0.2c0.3,0.2,0.6,0.3,1,0.3c0.4,0.1,0.7,0.2,1.1,0.4c0.3,0.1,0.5,0.3,0.7,0.6s0.3,0.7,0.3,1
			c0,0.6-0.2,1.2-0.7,1.5c-0.6,0.4-1.3,0.6-2,0.5c-0.8,0-1.5-0.1-2.2-0.5L106.9,14z"/>
		<path class="st1" d="M115.1,15.3c-0.5-0.3-0.9-0.7-1.2-1.2s-0.4-1.2-0.4-1.8s0.1-1.2,0.4-1.8c0.3-0.5,0.7-0.9,1.2-1.2
			s1.1-0.4,1.7-0.4c0.4,0,0.7,0,1.1,0.2c0.3,0.1,0.7,0.3,1,0.5l-0.4,1.3c-0.2-0.2-0.5-0.3-0.8-0.4s-0.6-0.2-0.9-0.2
			c-0.5,0-1,0.2-1.4,0.5c-0.4,0.4-0.5,1-0.5,1.5s0.1,1.1,0.5,1.5s0.9,0.6,1.4,0.5c0.3,0,0.6,0,0.9-0.2c0.3-0.1,0.5-0.2,0.8-0.4
			l0.4,1.3c-0.3,0.2-0.6,0.4-0.9,0.5c-0.4,0.1-0.7,0.2-1.1,0.2C116.2,15.8,115.6,15.6,115.1,15.3z"/>
		<path class="st1" d="M126.4,9.7c0.4,0.5,0.7,1.2,0.7,2.1v3.8h-1.4v-3.5c0-0.5-0.1-1-0.4-1.3c-0.3-0.3-0.7-0.5-1.1-0.4
			c-0.4,0-0.8,0.1-1.1,0.5s-0.4,0.8-0.4,1.3v3.6h-1.4V6.1h1.4V10c0.2-0.3,0.5-0.6,0.8-0.7c0.4-0.2,0.7-0.2,1.1-0.2
			C125.3,8.9,126,9.2,126.4,9.7z"/>
		<path class="st1" d="M135.7,12.8H131c0.1,0.5,0.3,0.9,0.7,1.2s0.9,0.4,1.4,0.4c0.4,0,0.7,0,1.1-0.2c0.3-0.1,0.7-0.2,1-0.4l0.4,1.2
			c-0.3,0.2-0.7,0.4-1.1,0.5c-0.4,0.1-0.9,0.2-1.4,0.2c-0.6,0-1.2-0.1-1.8-0.4c-0.5-0.3-0.9-0.7-1.2-1.2c-0.3-0.6-0.5-1.2-0.4-1.8
			c0-0.6,0.1-1.2,0.4-1.8c0.2-0.5,0.6-0.9,1.1-1.2s1-0.4,1.6-0.4s1.1,0.1,1.6,0.4c0.5,0.3,0.8,0.7,1.1,1.2s0.4,1.1,0.4,1.7
			C135.7,12.4,135.7,12.6,135.7,12.8z M131.5,10.6c-0.3,0.3-0.5,0.7-0.6,1.1h3.3c0-0.4-0.2-0.8-0.5-1.1
			C133.1,10.1,132.2,10.1,131.5,10.6L131.5,10.6z"/>
		<path class="st1" d="M74,24.8h1.5v7.6h3.9v1.4H74V24.8L74,24.8z"/>
		<path class="st1" d="M87.2,31h-4.7c0.1,0.5,0.3,0.9,0.7,1.2c0.4,0.3,0.9,0.4,1.4,0.4c0.4,0,0.7-0.1,1.1-0.2c0.3-0.1,0.7-0.2,1-0.4
			l0.4,1.2c-0.3,0.2-0.7,0.4-1.1,0.5c-0.4,0.1-0.9,0.2-1.4,0.2c-0.6,0-1.2-0.1-1.8-0.4c-0.5-0.3-0.9-0.7-1.2-1.2
			c-0.3-0.6-0.4-1.2-0.4-1.8c0-0.6,0.1-1.2,0.4-1.8c0.2-0.5,0.6-0.9,1.1-1.2c0.5-0.3,1-0.4,1.6-0.4s1.1,0.1,1.6,0.4s0.8,0.7,1.1,1.2
			s0.4,1.1,0.4,1.7C87.2,30.7,87.2,30.9,87.2,31z M83.1,28.8c-0.3,0.3-0.5,0.7-0.6,1.1h3.3c0-0.4-0.2-0.8-0.5-1.1
			c-0.3-0.3-0.7-0.4-1.1-0.4C83.8,28.4,83.4,28.6,83.1,28.8z"/>
		<path class="st1" d="M94.9,27.6c0.4,0.3,0.8,0.7,1.1,1.2c0.5,1.1,0.5,2.4,0,3.5c-0.2,0.5-0.6,0.9-1.1,1.2s-1,0.4-1.5,0.4
			c-0.9,0-1.7-0.4-2.2-1.1v1h-1.3v-9.5h1.4v3.9c0.5-0.6,1.3-1,2.1-1C93.9,27.2,94.4,27.3,94.9,27.6z M94.4,32.1c0.7-0.9,0.7-2.1,0-3
			c-0.3-0.4-0.8-0.6-1.3-0.6s-1,0.2-1.3,0.6s-0.5,1-0.5,1.5s0.1,1.1,0.5,1.5c0.3,0.4,0.8,0.6,1.3,0.6C93.6,32.6,94,32.4,94.4,32.1
			L94.4,32.1z"/>
		<path class="st1" d="M104.7,31H100c0.1,0.5,0.3,0.9,0.7,1.2c0.4,0.3,0.9,0.4,1.4,0.4c0.4,0,0.7-0.1,1.1-0.2c0.3-0.1,0.7-0.2,1-0.4
			l0.4,1.2c-0.3,0.2-0.7,0.4-1.1,0.5c-0.4,0.1-0.9,0.2-1.4,0.2c-0.6,0-1.2-0.1-1.8-0.4c-0.5-0.3-0.9-0.7-1.2-1.2
			c-0.3-0.6-0.4-1.2-0.4-1.8c0-0.6,0.1-1.2,0.4-1.8c0.2-0.5,0.6-0.9,1.1-1.2c0.5-0.3,1-0.4,1.6-0.4s1.1,0.1,1.6,0.4s0.8,0.7,1.1,1.2
			s0.4,1.1,0.4,1.7C104.7,30.7,104.7,30.9,104.7,31z M100.6,28.8c-0.3,0.3-0.5,0.7-0.6,1.1h3.3c0-0.4-0.2-0.8-0.5-1.1
			C102.2,28.3,101.2,28.3,100.6,28.8L100.6,28.8z"/>
		<path class="st1" d="M112.5,28c0.4,0.5,0.7,1.2,0.7,2.1v3.8h-1.4v-3.5c0-0.5-0.1-0.9-0.4-1.3c-0.3-0.3-0.7-0.5-1.1-0.4
			c-0.4,0-0.8,0.1-1.1,0.5s-0.4,0.8-0.4,1.3v3.6h-1.5v-6.5h1.3v1c0.2-0.4,0.5-0.7,0.9-0.9c0.4-0.2,0.8-0.3,1.2-0.3
			C111.4,27.2,112.1,27.4,112.5,28z"/>
		<path class="st1" d="M115.8,32.2c0.6,0.3,1.2,0.5,1.8,0.5c0.3,0,0.7-0.1,1-0.2c0.2-0.1,0.3-0.3,0.4-0.5c0-0.2-0.1-0.4-0.3-0.5
			c-0.3-0.1-0.6-0.2-0.9-0.3c-0.4-0.1-0.7-0.2-1.1-0.4c-0.3-0.1-0.5-0.3-0.8-0.6c-0.5-0.8-0.4-1.9,0.3-2.5c0.5-0.4,1.2-0.5,1.8-0.5
			c0.4,0,0.8,0,1.1,0.1s0.7,0.2,1,0.3l-0.4,1.3c-0.5-0.3-1.1-0.4-1.7-0.4c-0.3,0-0.5,0-0.8,0.2s-0.3,0.5-0.2,0.8
			c0,0.1,0.1,0.2,0.2,0.2c0.3,0.2,0.6,0.3,1,0.3c0.4,0.1,0.7,0.2,1.1,0.4c0.3,0.1,0.5,0.3,0.7,0.6c0.2,0.3,0.3,0.7,0.3,1
			c0,0.6-0.2,1.2-0.7,1.5c-0.6,0.4-1.3,0.6-2,0.5c-0.8,0-1.5-0.1-2.2-0.5L115.8,32.2z"/>
		<path class="st1" d="M128.6,27.3l-2.6,6.5h-1.5l-2.6-6.5h1.5l1.8,4.9l1.8-4.9C127.1,27.3,128.6,27.3,128.6,27.3z"/>
		<path class="st1" d="M136.3,31h-4.7c0.1,0.5,0.3,0.9,0.7,1.2c0.4,0.3,0.9,0.4,1.4,0.4c0.4,0,0.7-0.1,1.1-0.2
			c0.3-0.1,0.7-0.2,1-0.4l0.4,1.2c-0.3,0.2-0.7,0.4-1.1,0.5c-0.4,0.1-0.9,0.2-1.4,0.2c-0.6,0-1.2-0.1-1.8-0.4
			c-0.5-0.3-0.9-0.7-1.2-1.2c-0.3-0.6-0.5-1.2-0.4-1.8c0-0.6,0.1-1.2,0.4-1.8c0.2-0.5,0.6-0.9,1.1-1.2c0.5-0.3,1-0.4,1.6-0.4
			s1.1,0.1,1.6,0.4s0.8,0.7,1.1,1.2s0.4,1.1,0.4,1.7C136.3,30.7,136.3,30.9,136.3,31z M132.2,28.8c-0.3,0.3-0.5,0.7-0.6,1.1h3.3
			c0-0.4-0.2-0.8-0.5-1.1C133.8,28.3,132.8,28.3,132.2,28.8L132.2,28.8z"/>
		<path class="st1" d="M142.8,27.4l-0.2,1.4c-0.2-0.1-0.5-0.1-0.7-0.1c-0.4,0-0.8,0.2-1.1,0.5c-0.3,0.4-0.5,0.9-0.4,1.4v3.3H139
			v-6.5h1.3v1.1c0.3-0.8,0.9-1.2,1.7-1.2C142.2,27.2,142.5,27.3,142.8,27.4z"/>
		<path class="st1" d="M144.8,32.2c0.6,0.3,1.2,0.5,1.8,0.5c0.3,0,0.7-0.1,1-0.2c0.2-0.1,0.3-0.3,0.4-0.5c0-0.2-0.1-0.4-0.3-0.5
			c-0.3-0.1-0.6-0.2-0.9-0.3c-0.4-0.1-0.7-0.2-1.1-0.4c-0.3-0.1-0.5-0.3-0.8-0.6c-0.5-0.8-0.4-1.9,0.3-2.5c0.5-0.4,1.2-0.5,1.8-0.5
			c0.4,0,0.8,0,1.1,0.1s0.7,0.2,1,0.3l-0.4,1.3c-0.5-0.3-1.1-0.4-1.7-0.4c-0.3,0-0.5,0-0.8,0.2s-0.3,0.5-0.2,0.8
			c0,0.1,0.1,0.2,0.2,0.2c0.3,0.2,0.6,0.3,1,0.3c0.4,0.1,0.7,0.2,1.1,0.4c0.3,0.1,0.5,0.3,0.7,0.6c0.2,0.3,0.3,0.7,0.3,1
			c0,0.6-0.2,1.2-0.7,1.5c-0.6,0.4-1.3,0.6-2,0.5c-0.8,0-1.5-0.1-2.2-0.5L144.8,32.2z"/>
		<path class="st1" d="M151.9,25.8c-0.3-0.4-0.3-0.9,0-1.3c0.4-0.3,0.9-0.3,1.3,0c0.3,0.3,0.3,0.9,0,1.3
			C152.9,26.2,152.3,26.2,151.9,25.8L151.9,25.8z M153.3,27.3v6.5h-1.4v-6.5H153.3z"/>
		<path class="st1" d="M157.4,33.6c-0.5-0.3-0.9-0.7-1.2-1.2c-0.3-0.6-0.4-1.2-0.4-1.8c0-0.6,0.1-1.2,0.4-1.8
			c0.3-0.5,0.7-0.9,1.2-1.2c0.5-0.3,1.1-0.4,1.7-0.4c0.4,0,0.7,0,1.1,0.2c0.3,0.1,0.7,0.3,1,0.5l-0.4,1.3c-0.2-0.2-0.5-0.3-0.8-0.4
			s-0.6-0.2-0.9-0.2c-0.5,0-1,0.2-1.4,0.6c-0.7,0.9-0.7,2.1,0,3c0.4,0.4,0.9,0.6,1.4,0.6c0.3,0,0.6-0.1,0.9-0.2
			c0.3-0.1,0.5-0.2,0.8-0.4l0.4,1.3c-0.3,0.2-0.6,0.4-0.9,0.5c-0.4,0.1-0.7,0.2-1.1,0.2C158.5,34,157.9,33.8,157.4,33.6z"/>
		<path class="st1" d="M168.8,28c0.4,0.5,0.7,1.2,0.7,2.1v3.8h-1.4v-3.5c0-0.5-0.1-0.9-0.4-1.3c-0.3-0.3-0.7-0.5-1.1-0.4
			c-0.4,0-0.8,0.1-1.1,0.5c-0.3,0.4-0.4,0.8-0.4,1.3v3.6h-1.4v-9.5h1.4v3.9c0.2-0.3,0.5-0.6,0.8-0.7c0.4-0.2,0.7-0.2,1.1-0.2
			C167.7,27.2,168.3,27.4,168.8,28z"/>
		<path class="st1" d="M178,31h-4.7c0.1,0.5,0.3,0.9,0.7,1.2c0.4,0.3,0.9,0.4,1.4,0.4c0.4,0,0.7-0.1,1.1-0.2c0.3-0.1,0.7-0.2,1-0.4
			l0.4,1.2c-0.3,0.2-0.7,0.4-1.1,0.5s-0.9,0.2-1.4,0.2c-0.6,0-1.2-0.1-1.8-0.4c-0.5-0.3-0.9-0.7-1.2-1.2c-0.3-0.6-0.5-1.2-0.4-1.8
			c0-0.6,0.1-1.2,0.4-1.8c0.2-0.5,0.6-0.9,1.1-1.2c0.5-0.3,1-0.4,1.6-0.4s1.1,0.1,1.6,0.4s0.8,0.7,1.1,1.2c0.3,0.5,0.4,1.1,0.4,1.7
			C178,30.7,178,30.9,178,31z M173.9,28.8c-0.3,0.3-0.5,0.7-0.6,1.1h3.3c0-0.4-0.2-0.8-0.5-1.1C175.5,28.3,174.5,28.3,173.9,28.8
			L173.9,28.8z"/>
		<path class="st1" d="M184.5,27.4l-0.2,1.4c-0.2-0.1-0.5-0.1-0.7-0.1c-0.4,0-0.8,0.2-1.1,0.5c-0.3,0.4-0.5,0.9-0.4,1.4v3.3h-1.4
			v-6.5h1.3v1.1c0.3-0.8,0.9-1.2,1.7-1.2C183.9,27.2,184.2,27.3,184.5,27.4z"/>
		<path class="st1" d="M192.4,27.3v6.5h-1.3v-1c-0.2,0.4-0.5,0.7-0.9,0.8c-0.4,0.2-0.8,0.3-1.2,0.3c-0.7,0-1.3-0.2-1.8-0.8
			c-0.4-0.5-0.6-1.2-0.6-2.1v-3.8h1.4v3.5c0,0.5,0.1,0.9,0.4,1.3c0.3,0.3,0.7,0.5,1.1,0.4c0.4,0,0.8-0.2,1.1-0.5
			c0.3-0.4,0.4-0.8,0.4-1.3V27L192.4,27.3L192.4,27.3z"/>
		<path class="st1" d="M200.7,28c0.4,0.5,0.7,1.2,0.7,2.1v3.8H200v-3.5c0-0.5-0.1-0.9-0.4-1.3c-0.3-0.3-0.7-0.5-1.1-0.4
			c-0.4,0-0.8,0.1-1.1,0.5c-0.3,0.4-0.4,0.8-0.4,1.3v3.6h-1.4v-6.5h1.3v1c0.2-0.4,0.5-0.7,0.9-0.9c0.4-0.2,0.8-0.3,1.2-0.3
			C199.5,27.2,200.2,27.4,200.7,28z"/>
		<path class="st1" d="M210.2,27.3v5.8c0,1-0.3,1.8-0.9,2.4s-1.5,0.8-2.6,0.8c-0.9,0-1.8-0.2-2.6-0.6l0.4-1.2c0.3,0.2,0.7,0.3,1,0.4
			c0.4,0.1,0.7,0.2,1.1,0.2c0.7,0,1.3-0.2,1.6-0.5c0.4-0.4,0.6-0.9,0.6-1.5v-0.3c-0.5,0.7-1.3,1-2.1,1c-1.1,0-2.1-0.6-2.6-1.6
			c-0.5-1.1-0.5-2.3,0-3.4c0.5-1,1.5-1.6,2.6-1.6c0.9,0,1.7,0.4,2.2,1.1v-1L210.2,27.3L210.2,27.3z M208.3,31.9
			c0.3-0.4,0.5-0.9,0.5-1.4s-0.1-1-0.5-1.4c-0.3-0.4-0.8-0.6-1.3-0.5c-0.5,0-1,0.2-1.4,0.5c-0.7,0.8-0.7,2,0,2.8
			c0.4,0.4,0.8,0.6,1.4,0.5C207.5,32.4,208,32.2,208.3,31.9L208.3,31.9z"/>
	</g>
	<rect x="56.1" y="0" class="st1" width="1.5" height="42.4"/>
</g>
</svg>
