<?xml version="1.0" encoding="utf-8"?>
<!-- Generator: Adobe Illustrator 28.3.0, SVG Export Plug-In . SVG Version: 6.00 Build 0)  -->
<svg version="1.1" id="Ebene_1" xmlns="http://www.w3.org/2000/svg" xmlns:xlink="http://www.w3.org/1999/xlink" x="0px" y="0px"
	 viewBox="0 0 210.2 42.4" style="enable-background:new 0 0 210.2 42.4;" xml:space="preserve">
<style type="text/css">
	.st0{fill:#003781;}
	.st1{fill-rule:evenodd;clip-rule:evenodd;fill:#003781;}
</style>
<g id="Allianz" transform="matrix(1,0,0,1,-104.338,-135.852)">
	<g id="Eagle" transform="matrix(6.78093,0,0,-6.78093,-9776.15,5300.88)">
		<g>
			<g>
			</g>
		</g>
	</g>
</g>
<g>
	<g>
		<path class="st0" d="M74,6.5h2.8c0.9,0,1.8,0.2,2.6,0.6C80.1,7.4,80.6,8,81,8.7s0.6,1.6,0.5,2.4c0,0.8-0.2,1.6-0.5,2.4
			c-0.4,0.7-0.9,1.2-1.6,1.6c-0.8,0.4-1.7,0.6-2.6,0.6H74V6.5z M76.8,14.2c1.1,0,1.9-0.3,2.4-0.8s0.8-1.3,0.8-2.3
			c0.1-0.8-0.2-1.7-0.8-2.3C78.7,8.2,77.9,8,76.8,8h-1.3v6.2H76.8L76.8,14.2z"/>
		<path class="st0" d="M90,12.8h-4.7c0.1,0.5,0.3,0.9,0.7,1.2s0.9,0.4,1.4,0.4c0.4,0,0.7,0,1.1-0.2c0.3-0.1,0.7-0.2,1-0.4l0.4,1.2
			c-0.3,0.2-0.7,0.4-1.1,0.5s-0.9,0.2-1.4,0.2c-0.6,0-1.2-0.1-1.8-0.4c-0.5-0.3-0.9-0.7-1.2-1.2c-0.3-0.6-0.4-1.2-0.4-1.8
			s0.1-1.2,0.4-1.8c0.2-0.5,0.6-0.9,1.1-1.2s1-0.4,1.6-0.4s1.1,0.1,1.6,0.4c0.5,0.3,0.8,0.7,1.1,1.2s0.4,1.1,0.4,1.7
			C90,12.4,90,12.6,90,12.8z M85.9,10.6c-0.3,0.3-0.5,0.7-0.6,1.1h3.3c0-0.4-0.2-0.8-0.5-1.1C87.5,10.1,86.5,10.1,85.9,10.6
			L85.9,10.6z"/>
		<path class="st0" d="M98.4,9.1v6.5h-1.3v-1c-0.2,0.4-0.5,0.7-0.9,0.8c-0.4,0.2-0.8,0.3-1.2,0.3c-0.7,0-1.3-0.2-1.8-0.8
			c-0.4-0.5-0.6-1.2-0.6-2.1V9.1H94v3.5c0,0.5,0.1,1,0.4,1.3s0.7,0.5,1.1,0.4c0.4,0,0.8-0.2,1.1-0.5c0.3-0.4,0.4-0.8,0.4-1.3V9.1
			H98.4L98.4,9.1z"/>
		<path class="st0" d="M104.7,15.5c-0.4,0.2-0.8,0.2-1.2,0.2c-0.6,0-1.1-0.2-1.5-0.5c-0.4-0.4-0.6-1-0.5-1.5v-3.2h-0.9V9.1h0.9V7.5
			l1.4-0.3V9h1.7v1.3h-1.7v3c0,0.6,0.3,0.9,0.9,0.9c0.3,0,0.5,0,0.8-0.1L104.7,15.5z"/>
		<path class="st0" d="M106.9,14c0.6,0.3,1.2,0.5,1.8,0.5c0.3,0,0.7,0,1-0.2c0.2-0.1,0.3-0.3,0.4-0.5c0-0.2-0.1-0.4-0.3-0.5
			c-0.3-0.1-0.6-0.2-0.9-0.3c-0.4-0.1-0.7-0.2-1.1-0.4c-0.3-0.1-0.6-0.3-0.8-0.6s-0.3-0.7-0.3-1.1c0-0.6,0.2-1.1,0.6-1.4
			c0.5-0.4,1.2-0.5,1.8-0.5c0.4,0,0.8,0,1.1,0.1s0.7,0.2,1,0.3l-0.4,1.3c-0.5-0.3-1.1-0.4-1.7-0.4c-0.3,0-0.5,0-0.8,0.2
			s-0.3,0.5-0.2,0.8c0,0.1,0.1,0.2,0.2,0.2c0.3,0.2,0.6,0.3,1,0.3c0.4,0.1,0.7,0.2,1.1,0.4c0.3,0.1,0.5,0.3,0.7,0.6s0.3,0.7,0.3,1
			c0,0.6-0.2,1.2-0.7,1.5c-0.6,0.4-1.3,0.6-2,0.5c-0.8,0-1.5-0.1-2.2-0.5L106.9,14z"/>
		<path class="st0" d="M115.1,15.3c-0.5-0.3-0.9-0.7-1.2-1.2s-0.4-1.2-0.4-1.8s0.1-1.2,0.4-1.8c0.3-0.5,0.7-0.9,1.2-1.2
			s1.1-0.4,1.7-0.4c0.4,0,0.7,0,1.1,0.2c0.3,0.1,0.7,0.3,1,0.5l-0.4,1.3c-0.2-0.2-0.5-0.3-0.8-0.4s-0.6-0.2-0.9-0.2
			c-0.5,0-1,0.2-1.4,0.5c-0.4,0.4-0.5,1-0.5,1.5s0.1,1.1,0.5,1.5s0.9,0.6,1.4,0.5c0.3,0,0.6,0,0.9-0.2c0.3-0.1,0.5-0.2,0.8-0.4
			l0.4,1.3c-0.3,0.2-0.6,0.4-0.9,0.5c-0.4,0.1-0.7,0.2-1.1,0.2C116.2,15.8,115.6,15.6,115.1,15.3z"/>
		<path class="st0" d="M126.4,9.7c0.4,0.5,0.7,1.2,0.7,2.1v3.8h-1.4v-3.5c0-0.5-0.1-1-0.4-1.3s-0.7-0.5-1.1-0.4
			c-0.4,0-0.8,0.1-1.1,0.5s-0.4,0.8-0.4,1.3v3.6h-1.4V6.1h1.4V10c0.2-0.3,0.5-0.6,0.8-0.7c0.4-0.2,0.7-0.2,1.1-0.2
			C125.3,8.9,126,9.2,126.4,9.7z"/>
		<path class="st0" d="M135.7,12.8H131c0.1,0.5,0.3,0.9,0.7,1.2s0.9,0.4,1.4,0.4c0.4,0,0.7,0,1.1-0.2c0.3-0.1,0.7-0.2,1-0.4l0.4,1.2
			c-0.3,0.2-0.7,0.4-1.1,0.5c-0.4,0.1-0.9,0.2-1.4,0.2c-0.6,0-1.2-0.1-1.8-0.4c-0.5-0.3-0.9-0.7-1.2-1.2c-0.3-0.6-0.5-1.2-0.4-1.8
			c0-0.6,0.1-1.2,0.4-1.8c0.2-0.5,0.6-0.9,1.1-1.2s1-0.4,1.6-0.4s1.1,0.1,1.6,0.4c0.5,0.3,0.8,0.7,1.1,1.2s0.4,1.1,0.4,1.7
			C135.7,12.4,135.7,12.6,135.7,12.8z M131.5,10.6c-0.3,0.3-0.5,0.7-0.6,1.1h3.3c0-0.4-0.2-0.8-0.5-1.1
			C133.1,10.1,132.2,10.1,131.5,10.6L131.5,10.6z"/>
		<path class="st0" d="M74,24.8h1.5v7.6h3.9v1.4H74V24.8L74,24.8z"/>
		<path class="st0" d="M87.2,31h-4.7c0.1,0.5,0.3,0.9,0.7,1.2c0.4,0.3,0.9,0.4,1.4,0.4c0.4,0,0.7-0.1,1.1-0.2c0.3-0.1,0.7-0.2,1-0.4
			l0.4,1.2c-0.3,0.2-0.7,0.4-1.1,0.5s-0.9,0.2-1.4,0.2c-0.6,0-1.2-0.1-1.8-0.4c-0.5-0.3-0.9-0.7-1.2-1.2c-0.3-0.6-0.4-1.2-0.4-1.8
			c0-0.6,0.1-1.2,0.4-1.8c0.2-0.5,0.6-0.9,1.1-1.2c0.5-0.3,1-0.4,1.6-0.4s1.1,0.1,1.6,0.4s0.8,0.7,1.1,1.2s0.4,1.1,0.4,1.7
			C87.2,30.7,87.2,30.9,87.2,31z M83.1,28.8c-0.3,0.3-0.5,0.7-0.6,1.1h3.3c0-0.4-0.2-0.8-0.5-1.1c-0.3-0.3-0.7-0.4-1.1-0.4
			S83.4,28.6,83.1,28.8z"/>
		<path class="st0" d="M94.9,27.6c0.4,0.3,0.8,0.7,1.1,1.2c0.5,1.1,0.5,2.4,0,3.5c-0.2,0.5-0.6,0.9-1.1,1.2s-1,0.4-1.5,0.4
			c-0.9,0-1.7-0.4-2.2-1.1v1h-1.3v-9.5h1.4v3.9c0.5-0.6,1.3-1,2.1-1C93.9,27.2,94.4,27.3,94.9,27.6z M94.4,32.1c0.7-0.9,0.7-2.1,0-3
			c-0.3-0.4-0.8-0.6-1.3-0.6s-1,0.2-1.3,0.6s-0.5,1-0.5,1.5s0.1,1.1,0.5,1.5c0.3,0.4,0.8,0.6,1.3,0.6C93.6,32.6,94,32.4,94.4,32.1
			L94.4,32.1z"/>
		<path class="st0" d="M104.7,31H100c0.1,0.5,0.3,0.9,0.7,1.2c0.4,0.3,0.9,0.4,1.4,0.4c0.4,0,0.7-0.1,1.1-0.2c0.3-0.1,0.7-0.2,1-0.4
			l0.4,1.2c-0.3,0.2-0.7,0.4-1.1,0.5s-0.9,0.2-1.4,0.2c-0.6,0-1.2-0.1-1.8-0.4c-0.5-0.3-0.9-0.7-1.2-1.2c-0.3-0.6-0.4-1.2-0.4-1.8
			c0-0.6,0.1-1.2,0.4-1.8c0.2-0.5,0.6-0.9,1.1-1.2c0.5-0.3,1-0.4,1.6-0.4s1.1,0.1,1.6,0.4s0.8,0.7,1.1,1.2s0.4,1.1,0.4,1.7
			C104.7,30.7,104.7,30.9,104.7,31z M100.6,28.8c-0.3,0.3-0.5,0.7-0.6,1.1h3.3c0-0.4-0.2-0.8-0.5-1.1
			C102.2,28.3,101.2,28.3,100.6,28.8L100.6,28.8z"/>
		<path class="st0" d="M112.5,28c0.4,0.5,0.7,1.2,0.7,2.1v3.8h-1.4v-3.5c0-0.5-0.1-0.9-0.4-1.3c-0.3-0.3-0.7-0.5-1.1-0.4
			c-0.4,0-0.8,0.1-1.1,0.5s-0.4,0.8-0.4,1.3v3.6h-1.5v-6.5h1.3v1c0.2-0.4,0.5-0.7,0.9-0.9c0.4-0.2,0.8-0.3,1.2-0.3
			C111.4,27.2,112.1,27.4,112.5,28z"/>
		<path class="st0" d="M115.8,32.2c0.6,0.3,1.2,0.5,1.8,0.5c0.3,0,0.7-0.1,1-0.2c0.2-0.1,0.3-0.3,0.4-0.5c0-0.2-0.1-0.4-0.3-0.5
			c-0.3-0.1-0.6-0.2-0.9-0.3c-0.4-0.1-0.7-0.2-1.1-0.4c-0.3-0.1-0.5-0.3-0.8-0.6c-0.5-0.8-0.4-1.9,0.3-2.5c0.5-0.4,1.2-0.5,1.8-0.5
			c0.4,0,0.8,0,1.1,0.1s0.7,0.2,1,0.3l-0.4,1.3c-0.5-0.3-1.1-0.4-1.7-0.4c-0.3,0-0.5,0-0.8,0.2s-0.3,0.5-0.2,0.8
			c0,0.1,0.1,0.2,0.2,0.2c0.3,0.2,0.6,0.3,1,0.3c0.4,0.1,0.7,0.2,1.1,0.4c0.3,0.1,0.5,0.3,0.7,0.6c0.2,0.3,0.3,0.7,0.3,1
			c0,0.6-0.2,1.2-0.7,1.5c-0.6,0.4-1.3,0.6-2,0.5c-0.8,0-1.5-0.1-2.2-0.5L115.8,32.2z"/>
		<path class="st0" d="M128.6,27.3l-2.6,6.5h-1.5l-2.6-6.5h1.5l1.8,4.9l1.8-4.9C127.1,27.3,128.6,27.3,128.6,27.3z"/>
		<path class="st0" d="M136.3,31h-4.7c0.1,0.5,0.3,0.9,0.7,1.2c0.4,0.3,0.9,0.4,1.4,0.4c0.4,0,0.7-0.1,1.1-0.2
			c0.3-0.1,0.7-0.2,1-0.4l0.4,1.2c-0.3,0.2-0.7,0.4-1.1,0.5c-0.4,0.1-0.9,0.2-1.4,0.2c-0.6,0-1.2-0.1-1.8-0.4
			c-0.5-0.3-0.9-0.7-1.2-1.2c-0.3-0.6-0.5-1.2-0.4-1.8c0-0.6,0.1-1.2,0.4-1.8c0.2-0.5,0.6-0.9,1.1-1.2c0.5-0.3,1-0.4,1.6-0.4
			s1.1,0.1,1.6,0.4s0.8,0.7,1.1,1.2s0.4,1.1,0.4,1.7C136.3,30.7,136.3,30.9,136.3,31z M132.2,28.8c-0.3,0.3-0.5,0.7-0.6,1.1h3.3
			c0-0.4-0.2-0.8-0.5-1.1C133.8,28.3,132.8,28.3,132.2,28.8L132.2,28.8z"/>
		<path class="st0" d="M142.8,27.4l-0.2,1.4c-0.2-0.1-0.5-0.1-0.7-0.1c-0.4,0-0.8,0.2-1.1,0.5c-0.3,0.4-0.5,0.9-0.4,1.4v3.3H139
			v-6.5h1.3v1.1c0.3-0.8,0.9-1.2,1.7-1.2C142.2,27.2,142.5,27.3,142.8,27.4z"/>
		<path class="st0" d="M144.8,32.2c0.6,0.3,1.2,0.5,1.8,0.5c0.3,0,0.7-0.1,1-0.2c0.2-0.1,0.3-0.3,0.4-0.5c0-0.2-0.1-0.4-0.3-0.5
			c-0.3-0.1-0.6-0.2-0.9-0.3c-0.4-0.1-0.7-0.2-1.1-0.4c-0.3-0.1-0.5-0.3-0.8-0.6c-0.5-0.8-0.4-1.9,0.3-2.5c0.5-0.4,1.2-0.5,1.8-0.5
			c0.4,0,0.8,0,1.1,0.1s0.7,0.2,1,0.3l-0.4,1.3c-0.5-0.3-1.1-0.4-1.7-0.4c-0.3,0-0.5,0-0.8,0.2s-0.3,0.5-0.2,0.8
			c0,0.1,0.1,0.2,0.2,0.2c0.3,0.2,0.6,0.3,1,0.3c0.4,0.1,0.7,0.2,1.1,0.4c0.3,0.1,0.5,0.3,0.7,0.6c0.2,0.3,0.3,0.7,0.3,1
			c0,0.6-0.2,1.2-0.7,1.5c-0.6,0.4-1.3,0.6-2,0.5c-0.8,0-1.5-0.1-2.2-0.5L144.8,32.2z"/>
		<path class="st0" d="M151.9,25.8c-0.3-0.4-0.3-0.9,0-1.3c0.4-0.3,0.9-0.3,1.3,0c0.3,0.3,0.3,0.9,0,1.3
			C152.9,26.2,152.3,26.2,151.9,25.8L151.9,25.8z M153.3,27.3v6.5h-1.4v-6.5H153.3z"/>
		<path class="st0" d="M157.4,33.6c-0.5-0.3-0.9-0.7-1.2-1.2c-0.3-0.6-0.4-1.2-0.4-1.8c0-0.6,0.1-1.2,0.4-1.8
			c0.3-0.5,0.7-0.9,1.2-1.2c0.5-0.3,1.1-0.4,1.7-0.4c0.4,0,0.7,0,1.1,0.2c0.3,0.1,0.7,0.3,1,0.5l-0.4,1.3c-0.2-0.2-0.5-0.3-0.8-0.4
			s-0.6-0.2-0.9-0.2c-0.5,0-1,0.2-1.4,0.6c-0.7,0.9-0.7,2.1,0,3c0.4,0.4,0.9,0.6,1.4,0.6c0.3,0,0.6-0.1,0.9-0.2
			c0.3-0.1,0.5-0.2,0.8-0.4l0.4,1.3c-0.3,0.2-0.6,0.4-0.9,0.5c-0.4,0.1-0.7,0.2-1.1,0.2C158.5,34,157.9,33.8,157.4,33.6z"/>
		<path class="st0" d="M168.8,28c0.4,0.5,0.7,1.2,0.7,2.1v3.8h-1.4v-3.5c0-0.5-0.1-0.9-0.4-1.3c-0.3-0.3-0.7-0.5-1.1-0.4
			c-0.4,0-0.8,0.1-1.1,0.5s-0.4,0.8-0.4,1.3v3.6h-1.4v-9.5h1.4v3.9c0.2-0.3,0.5-0.6,0.8-0.7c0.4-0.2,0.7-0.2,1.1-0.2
			C167.7,27.2,168.3,27.4,168.8,28z"/>
		<path class="st0" d="M178,31h-4.7c0.1,0.5,0.3,0.9,0.7,1.2c0.4,0.3,0.9,0.4,1.4,0.4c0.4,0,0.7-0.1,1.1-0.2c0.3-0.1,0.7-0.2,1-0.4
			l0.4,1.2c-0.3,0.2-0.7,0.4-1.1,0.5s-0.9,0.2-1.4,0.2c-0.6,0-1.2-0.1-1.8-0.4c-0.5-0.3-0.9-0.7-1.2-1.2c-0.3-0.6-0.5-1.2-0.4-1.8
			c0-0.6,0.1-1.2,0.4-1.8c0.2-0.5,0.6-0.9,1.1-1.2c0.5-0.3,1-0.4,1.6-0.4s1.1,0.1,1.6,0.4s0.8,0.7,1.1,1.2s0.4,1.1,0.4,1.7
			C178,30.7,178,30.9,178,31z M173.9,28.8c-0.3,0.3-0.5,0.7-0.6,1.1h3.3c0-0.4-0.2-0.8-0.5-1.1C175.5,28.3,174.5,28.3,173.9,28.8
			L173.9,28.8z"/>
		<path class="st0" d="M184.5,27.4l-0.2,1.4c-0.2-0.1-0.5-0.1-0.7-0.1c-0.4,0-0.8,0.2-1.1,0.5c-0.3,0.4-0.5,0.9-0.4,1.4v3.3h-1.4
			v-6.5h1.3v1.1c0.3-0.8,0.9-1.2,1.7-1.2C183.9,27.2,184.2,27.3,184.5,27.4z"/>
		<path class="st0" d="M192.4,27.3v6.5h-1.3v-1c-0.2,0.4-0.5,0.7-0.9,0.8c-0.4,0.2-0.8,0.3-1.2,0.3c-0.7,0-1.3-0.2-1.8-0.8
			c-0.4-0.5-0.6-1.2-0.6-2.1v-3.8h1.4v3.5c0,0.5,0.1,0.9,0.4,1.3c0.3,0.3,0.7,0.5,1.1,0.4c0.4,0,0.8-0.2,1.1-0.5
			c0.3-0.4,0.4-0.8,0.4-1.3V27L192.4,27.3L192.4,27.3z"/>
		<path class="st0" d="M200.7,28c0.4,0.5,0.7,1.2,0.7,2.1v3.8H200v-3.5c0-0.5-0.1-0.9-0.4-1.3c-0.3-0.3-0.7-0.5-1.1-0.4
			c-0.4,0-0.8,0.1-1.1,0.5S197,30,197,30.5v3.6h-1.4v-6.5h1.3v1c0.2-0.4,0.5-0.7,0.9-0.9c0.4-0.2,0.8-0.3,1.2-0.3
			C199.5,27.2,200.2,27.4,200.7,28z"/>
		<path class="st0" d="M210.2,27.3v5.8c0,1-0.3,1.8-0.9,2.4s-1.5,0.8-2.6,0.8c-0.9,0-1.8-0.2-2.6-0.6l0.4-1.2c0.3,0.2,0.7,0.3,1,0.4
			c0.4,0.1,0.7,0.2,1.1,0.2c0.7,0,1.3-0.2,1.6-0.5c0.4-0.4,0.6-0.9,0.6-1.5v-0.3c-0.5,0.7-1.3,1-2.1,1c-1.1,0-2.1-0.6-2.6-1.6
			c-0.5-1.1-0.5-2.3,0-3.4c0.5-1,1.5-1.6,2.6-1.6c0.9,0,1.7,0.4,2.2,1.1v-1L210.2,27.3L210.2,27.3z M208.3,31.9
			c0.3-0.4,0.5-0.9,0.5-1.4s-0.1-1-0.5-1.4c-0.3-0.4-0.8-0.6-1.3-0.5c-0.5,0-1,0.2-1.4,0.5c-0.7,0.8-0.7,2,0,2.8
			c0.4,0.4,0.8,0.6,1.4,0.5C207.5,32.4,208,32.2,208.3,31.9L208.3,31.9z"/>
	</g>
	<rect x="56.1" y="0" class="st0" width="1.5" height="42.4"/>
	<g>
		<path id="path37647" class="st1" d="M21,31.2v-19c0-1.4-0.7-2-2-2h-4.7v1.4h0.7c0.7,0,1.4,0,1.4,1.4v17.6H21L21,31.2L21,31.2z
			 M23.1,31.2h4.7V16.9c0-1.4-0.7-2-2-2h-2.7L23.1,31.2L23.1,31.2z M12.9,31.2V14.9h-2.7c-1.4,0-2,0.7-2,2v14.2L12.9,31.2L12.9,31.2
			z M33.9,21c0,8.8-6.8,15.6-15.6,15.6S2.7,29.8,2.7,21S9.5,5.4,18.3,5.4C27.1,5.4,33.9,12.2,33.9,21 M36.6,21
			c0-10.2-8.1-18.3-18.3-18.3S0,10.8,0,21s8.1,18.3,18.3,18.3C29.2,39.3,36.6,31.9,36.6,21"/>
	</g>
</g>
</svg>
