<?xml version="1.0" encoding="utf-8"?>
<!-- Generator: Adobe Illustrator 28.3.0, SVG Export Plug-In . SVG Version: 6.00 Build 0)  -->
<svg version="1.1" id="Vordergrund" xmlns="http://www.w3.org/2000/svg" xmlns:xlink="http://www.w3.org/1999/xlink" x="0px"
	 y="0px" viewBox="0 0 128 64" style="enable-background:new 0 0 128 64;" xml:space="preserve">
<style type="text/css">
	.st0{fill:#22586E;}
</style>
<g>
	<g>
		<path class="st0" d="M39.2,35.9V30h3.2c1.7,0,3.3,0.3,4.7,1.4c1.4,1.1,2.2,2.8,2.2,4.6h-1.2c0-1.6-0.6-2.8-1.9-3.8
			c-1.3-1-2.7-1.1-4.3-1.1h-1.6v4.9L39.2,35.9L39.2,35.9z"/>
		<path class="st0" d="M39.2,35.9v6h3.3c1.8,0,3.4-0.3,4.8-1.6c1.2-1.1,2-2.7,2-4.4h-1.2c0,1.5-0.7,2.9-1.8,3.8
			c-1.3,1-2.7,1.1-4.3,1.1h-1.6v-4.9H39.2z"/>
	</g>
	<g>
		<path class="st0" d="M50.9,35.4c0.8-1.5,2.3-2.5,4.1-2.5c1.4,0,2.7,0.7,3.6,1.7c0.2,0.3,0.4,0.5,0.5,0.8h-1.4
			c-0.6-0.8-1.6-1.4-2.7-1.4c-1.1,0-2.2,0.5-2.8,1.4L50.9,35.4L50.9,35.4z"/>
		<path class="st0" d="M50.9,35.4c-0.3,0.6-0.5,1.3-0.5,2.1c0,2.6,2,4.6,4.6,4.6c1.9,0,3.6-1.3,4.3-3.1h-1.2
			C57.6,40.2,56.3,41,55,41c-1.6,0-3.3-1.4-3.3-3.1h8c0-0.9-0.1-1.7-0.5-2.5h-1.4c0.3,0.4,0.5,0.9,0.7,1.4h-6.8
			c0.1-0.5,0.3-1,0.6-1.4L50.9,35.4L50.9,35.4z"/>
	</g>
	<rect x="61" y="30" class="st0" width="1.2" height="11.9"/>
	<polygon class="st0" points="65.2,41.9 66.4,41.9 66.4,34.1 68.4,34.1 68.4,33.1 66.4,33.1 66.4,30 65.2,30 65.2,33.1 63.4,33.1 
		63.4,34.1 65.2,34.1 	"/>
	<g>
		<path class="st0" d="M68.5,37.5L68.5,37.5c0-1.3,0.5-2.3,1.3-3.1c0.8-0.9,2-1.5,3.5-1.5c1.4,0,2.8,0.6,3.4,1.9h0v-1.7h1.1v4.4
			h-1.1c0-1.9-1.5-3.5-3.5-3.5c-1.9,0-3.5,1.5-3.5,3.5H68.5z"/>
		<path class="st0" d="M68.5,37.5c0,1.3,0.5,2.4,0.9,2.7c1.1,1.3,2.5,1.9,3.9,1.9c1.3,0,2.7-0.7,3.4-1.9h0v1.7h1.1v-4.4h-1.1v0.1
			c0,1.8-1.6,3.4-3.4,3.4s-3.6-1.5-3.6-3.4v-0.1L68.5,37.5L68.5,37.5z"/>
	</g>
	<g>
		<path class="st0" d="M84.4,35.9V30h3.2c1.7,0,3.3,0.3,4.7,1.4c1.4,1.1,2.2,2.8,2.2,4.6h-1.2c0-1.6-0.6-2.8-1.9-3.8
			c-1.3-1-2.7-1.1-4.3-1.1h-1.6v4.9L84.4,35.9L84.4,35.9z"/>
		<path class="st0" d="M84.4,35.9v6h3.3c1.8,0,3.4-0.3,4.8-1.6c1.2-1.1,2-2.7,2-4.4h-1.2c0,1.5-0.7,2.9-1.8,3.8
			c-1.3,1-2.7,1.1-4.3,1.1h-1.6v-4.9H84.4z"/>
	</g>
	<g>
		<rect x="95.9" y="33.1" class="st0" width="1.2" height="8.8"/>
		<rect x="95.9" y="30" class="st0" width="1.2" height="2"/>
	</g>
	<path class="st0" d="M99.1,41.9h1.2V37c0-1,0.1-1.6,0.9-2.3c0.5-0.4,1-0.6,1.6-0.6v-1.2c-1.1,0.1-2.1,0.4-2.5,1.5h0v-1.3h-1.1V41.9
		L99.1,41.9z"/>
	<g>
		<path class="st0" d="M103.9,35.5c0.8-1.5,2.3-2.5,4.1-2.5c1.4,0,2.7,0.7,3.6,1.7c0.2,0.3,0.4,0.5,0.5,0.8h-1.4
			c-0.6-0.8-1.6-1.4-2.7-1.4s-2.2,0.5-2.8,1.4L103.9,35.5L103.9,35.5z"/>
		<path class="st0" d="M103.9,35.5c-0.3,0.6-0.5,1.3-0.5,2.1c0,2.6,2,4.6,4.6,4.6c1.9,0,3.6-1.3,4.3-3.1h-1.2
			c-0.5,1.2-1.8,1.9-3.1,1.9c-1.6,0-3.3-1.4-3.3-3.1h8c0-0.9-0.1-1.7-0.5-2.5h-1.4c0.3,0.4,0.5,0.9,0.7,1.4h-6.8
			c0.1-0.5,0.3-1,0.6-1.4L103.9,35.5L103.9,35.5z"/>
	</g>
	<polygon class="st0" points="114.3,41.9 115.5,41.9 115.5,40.2 116.9,38.4 119.7,41.9 121.3,41.9 117.6,37.5 121,33.1 119.5,33.1 
		115.5,38.3 115.5,30 114.3,30 	"/>
	<polygon class="st0" points="123.5,41.9 124.7,41.9 124.7,34.1 126.8,34.1 126.8,33.1 124.7,33.1 124.7,30 123.5,30 123.5,33.1 
		121.7,33.1 121.7,34.1 123.5,34.1 	"/>
	<polygon class="st0" points="53,47.9 56.3,53.1 0.7,53.1 27.4,10.9 29.4,10.9 38.9,25.8 28.9,25.8 24.9,19.6 7,47.9 	"/>
</g>
</svg>
