<?xml version="1.0" encoding="UTF-8"?>
<svg xmlns="http://www.w3.org/2000/svg" xmlns:xlink="http://www.w3.org/1999/xlink" width="128px" height="43px" viewBox="0 0 128 43" version="1.1">
<g id="surface1">
<path style=" stroke:none;fill-rule:nonzero;fill:rgb(13.333333%,34.509804%,43.137255%);fill-opacity:1;" d="M 39.105469 25.488281 L 39.105469 19.441406 L 42.378906 19.441406 C 44.101562 19.441406 45.738281 19.730469 47.117188 20.855469 C 48.496094 21.976562 49.328125 23.734375 49.328125 25.488281 L 48.121094 25.488281 C 48.09375 23.90625 47.492188 22.609375 46.226562 21.628906 C 44.90625 20.59375 43.5 20.507812 41.890625 20.535156 L 40.3125 20.535156 L 40.3125 25.488281 Z M 39.105469 25.488281 "/>
<path style=" stroke:none;fill-rule:nonzero;fill:rgb(13.333333%,34.509804%,43.137255%);fill-opacity:1;" d="M 39.105469 25.488281 L 39.105469 31.566406 L 42.464844 31.566406 C 44.332031 31.566406 45.910156 31.308594 47.347656 29.984375 C 48.582031 28.832031 49.328125 27.21875 49.328125 25.488281 L 48.121094 25.488281 C 48.09375 27.015625 47.460938 28.398438 46.253906 29.351562 C 44.90625 30.417969 43.5 30.445312 41.890625 30.472656 L 40.3125 30.472656 L 40.3125 25.488281 Z M 39.105469 25.488281 "/>
<path style=" stroke:none;fill-rule:nonzero;fill:rgb(13.333333%,34.509804%,43.137255%);fill-opacity:1;" d="M 51.023438 24.972656 C 51.796875 23.445312 53.347656 22.378906 55.1875 22.378906 C 56.59375 22.378906 57.886719 23.039062 58.804688 24.136719 C 59.035156 24.421875 59.203125 24.683594 59.347656 24.972656 L 57.96875 24.972656 C 57.339844 24.105469 56.335938 23.558594 55.214844 23.558594 C 54.09375 23.558594 53.003906 24.105469 52.371094 24.972656 Z M 51.023438 24.972656 "/>
<path style=" stroke:none;fill-rule:nonzero;fill:rgb(13.333333%,34.509804%,43.137255%);fill-opacity:1;" d="M 51.023438 24.972656 C 50.707031 25.605469 50.535156 26.324219 50.535156 27.074219 C 50.535156 29.722656 52.601562 31.796875 55.242188 31.796875 C 57.136719 31.796875 58.945312 30.445312 59.578125 28.660156 L 58.316406 28.660156 C 57.769531 29.867188 56.449219 30.617188 55.128906 30.617188 C 53.460938 30.617188 51.796875 29.207031 51.738281 27.507812 L 59.835938 27.507812 C 59.808594 26.558594 59.722656 25.75 59.347656 24.972656 L 57.96875 24.972656 C 58.285156 25.378906 58.515625 25.894531 58.628906 26.414062 L 51.738281 26.414062 C 51.824219 25.867188 52.054688 25.378906 52.371094 24.972656 L 51.019531 24.972656 Z M 51.023438 24.972656 "/>
<path style=" stroke:none;fill-rule:nonzero;fill:rgb(13.333333%,34.509804%,43.137255%);fill-opacity:1;" d="M 61.1875 19.441406 L 62.390625 19.441406 L 62.390625 31.566406 L 61.1875 31.566406 Z M 61.1875 19.441406 "/>
<path style=" stroke:none;fill-rule:nonzero;fill:rgb(13.333333%,34.509804%,43.137255%);fill-opacity:1;" d="M 65.492188 31.566406 L 66.699219 31.566406 L 66.699219 23.675781 L 68.765625 23.675781 L 68.765625 22.582031 L 66.699219 22.582031 L 66.699219 19.441406 L 65.492188 19.441406 L 65.492188 22.582031 L 63.625 22.582031 L 63.625 23.675781 L 65.492188 23.675781 Z M 65.492188 31.566406 "/>
<path style=" stroke:none;fill-rule:nonzero;fill:rgb(13.333333%,34.509804%,43.137255%);fill-opacity:1;" d="M 68.824219 27.074219 L 68.824219 27.015625 C 68.824219 25.777344 69.339844 24.683594 70.113281 23.875 C 70.976562 22.984375 72.097656 22.378906 73.617188 22.378906 C 75.027344 22.378906 76.460938 23.011719 77.09375 24.28125 L 77.121094 24.28125 L 77.121094 22.582031 L 78.269531 22.582031 L 78.269531 27.074219 L 77.121094 27.074219 C 77.09375 25.113281 75.570312 23.558594 73.617188 23.558594 C 71.664062 23.558594 70.058594 25.113281 70.03125 27.074219 Z M 68.824219 27.074219 "/>
<path style=" stroke:none;fill-rule:nonzero;fill:rgb(13.333333%,34.509804%,43.137255%);fill-opacity:1;" d="M 68.824219 27.074219 C 68.851562 28.398438 69.371094 29.523438 69.714844 29.867188 C 70.863281 31.191406 72.296875 31.796875 73.648438 31.796875 C 74.996094 31.796875 76.433594 31.132812 77.09375 29.867188 L 77.121094 29.867188 L 77.121094 31.566406 L 78.269531 31.566406 L 78.269531 27.074219 L 77.121094 27.074219 L 77.121094 27.128906 C 77.121094 29 75.511719 30.617188 73.648438 30.617188 C 71.78125 30.617188 70.03125 29.089844 70.03125 27.128906 L 70.03125 27.074219 Z M 68.824219 27.074219 "/>
<path style=" stroke:none;fill-rule:nonzero;fill:rgb(13.333333%,34.509804%,43.137255%);fill-opacity:1;" d="M 84.957031 25.488281 L 84.957031 19.441406 L 88.230469 19.441406 C 89.957031 19.441406 91.589844 19.730469 92.96875 20.855469 C 94.347656 21.976562 95.179688 23.734375 95.179688 25.488281 L 93.976562 25.488281 C 93.945312 23.90625 93.34375 22.609375 92.078125 21.628906 C 90.757812 20.59375 89.351562 20.507812 87.746094 20.535156 L 86.164062 20.535156 L 86.164062 25.488281 Z M 84.957031 25.488281 "/>
<path style=" stroke:none;fill-rule:nonzero;fill:rgb(13.333333%,34.509804%,43.137255%);fill-opacity:1;" d="M 84.957031 25.488281 L 84.957031 31.566406 L 88.316406 31.566406 C 90.183594 31.566406 91.765625 31.308594 93.199219 29.984375 C 94.433594 28.832031 95.179688 27.21875 95.179688 25.488281 L 93.976562 25.488281 C 93.945312 27.015625 93.316406 28.398438 92.109375 29.351562 C 90.757812 30.417969 89.351562 30.445312 87.746094 30.472656 L 86.164062 30.472656 L 86.164062 25.488281 Z M 84.957031 25.488281 "/>
<path style=" stroke:none;fill-rule:nonzero;fill:rgb(13.333333%,34.509804%,43.137255%);fill-opacity:1;" d="M 96.675781 22.582031 L 97.882812 22.582031 L 97.882812 31.566406 L 96.675781 31.566406 Z M 96.675781 22.582031 "/>
<path style=" stroke:none;fill-rule:nonzero;fill:rgb(13.333333%,34.509804%,43.137255%);fill-opacity:1;" d="M 96.675781 19.441406 L 97.882812 19.441406 L 97.882812 21.515625 L 96.675781 21.515625 Z M 96.675781 19.441406 "/>
<path style=" stroke:none;fill-rule:nonzero;fill:rgb(13.333333%,34.509804%,43.137255%);fill-opacity:1;" d="M 99.945312 31.566406 L 101.152344 31.566406 L 101.152344 26.554688 C 101.152344 25.519531 101.238281 24.914062 102.070312 24.222656 C 102.589844 23.789062 103.046875 23.644531 103.679688 23.589844 L 103.679688 22.378906 C 102.585938 22.4375 101.554688 22.8125 101.125 23.875 L 101.097656 23.875 L 101.097656 22.582031 L 99.945312 22.582031 Z M 99.945312 31.566406 "/>
<path style=" stroke:none;fill-rule:nonzero;fill:rgb(13.333333%,34.509804%,43.137255%);fill-opacity:1;" d="M 104.800781 25.113281 C 105.578125 23.589844 107.125 22.523438 108.964844 22.523438 C 110.371094 22.523438 111.664062 23.183594 112.582031 24.277344 C 112.8125 24.566406 112.984375 24.828125 113.128906 25.113281 L 111.75 25.113281 C 111.117188 24.25 110.113281 23.703125 108.992188 23.703125 C 107.871094 23.703125 106.78125 24.25 106.152344 25.113281 Z M 104.800781 25.113281 "/>
<path style=" stroke:none;fill-rule:nonzero;fill:rgb(13.333333%,34.509804%,43.137255%);fill-opacity:1;" d="M 104.800781 25.113281 C 104.484375 25.75 104.3125 26.46875 104.3125 27.21875 C 104.3125 29.867188 106.378906 31.941406 109.019531 31.941406 C 110.914062 31.941406 112.726562 30.585938 113.355469 28.800781 L 112.09375 28.800781 C 111.546875 30.011719 110.226562 30.761719 108.90625 30.761719 C 107.242188 30.761719 105.574219 29.347656 105.519531 27.648438 L 113.613281 27.648438 C 113.585938 26.699219 113.5 25.894531 113.125 25.117188 L 111.746094 25.117188 C 112.0625 25.519531 112.292969 26.039062 112.40625 26.554688 L 105.515625 26.554688 C 105.601562 26.007812 105.832031 25.519531 106.148438 25.117188 L 104.796875 25.117188 Z M 104.800781 25.113281 "/>
<path style=" stroke:none;fill-rule:nonzero;fill:rgb(13.333333%,34.509804%,43.137255%);fill-opacity:1;" d="M 115.308594 31.566406 L 116.515625 31.566406 L 116.515625 29.867188 L 117.949219 28.023438 L 120.851562 31.566406 L 122.402344 31.566406 L 118.695312 27.074219 L 122.171875 22.582031 L 120.621094 22.582031 L 116.515625 27.964844 L 116.515625 19.441406 L 115.308594 19.441406 Z M 115.308594 31.566406 "/>
<path style=" stroke:none;fill-rule:nonzero;fill:rgb(13.333333%,34.509804%,43.137255%);fill-opacity:1;" d="M 124.726562 31.566406 L 125.933594 31.566406 L 125.933594 23.675781 L 128 23.675781 L 128 22.582031 L 125.933594 22.582031 L 125.933594 19.441406 L 124.726562 19.441406 L 124.726562 22.582031 L 122.859375 22.582031 L 122.859375 23.675781 L 124.726562 23.675781 Z M 124.726562 31.566406 "/>
<path style=" stroke:none;fill-rule:nonzero;fill:rgb(13.333333%,34.509804%,43.137255%);fill-opacity:1;" d="M 53.148438 37.644531 L 56.476562 42.972656 L 0 42.972656 L 27.105469 0.0273438 L 29.144531 0.0273438 L 38.761719 15.179688 L 28.597656 15.179688 L 24.605469 8.871094 L 6.429688 37.644531 Z M 53.148438 37.644531 "/>
</g>
</svg>
