<?xml version="1.0" encoding="UTF-8"?>
<svg xmlns="http://www.w3.org/2000/svg" xmlns:xlink="http://www.w3.org/1999/xlink" width="128px" height="44px" viewBox="0 0 127 44" version="1.1">
<g id="surface1">
<path style=" stroke:none;fill-rule:nonzero;fill:rgb(75.686275%,9.803922%,23.529412%);fill-opacity:1;" d="M 108.167969 20.0625 C 105.941406 20.0625 104.574219 22.296875 104.574219 24.539062 C 104.574219 24.890625 104.613281 25.152344 104.660156 25.40625 C 108.042969 24.753906 109.691406 22.9375 109.691406 21.496094 C 109.691406 20.589844 109.125 20.0625 108.167969 20.0625 "/>
<path style=" stroke:none;fill-rule:nonzero;fill:rgb(75.686275%,9.803922%,23.529412%);fill-opacity:1;" d="M 90.988281 14.359375 C 91.8125 14.359375 92.449219 15.03125 92.410156 15.859375 C 92.375 16.6875 91.675781 17.359375 90.855469 17.359375 C 90.03125 17.359375 89.394531 16.6875 89.429688 15.859375 C 89.46875 15.035156 90.167969 14.359375 90.988281 14.359375 Z M 78.089844 24.441406 C 78.234375 22.386719 78.628906 20.320312 79.003906 18.6875 C 80.152344 13.667969 82.097656 9.84375 84.84375 9.84375 C 86.75 9.84375 87.460938 11.175781 87.476562 12.757812 C 87.519531 16.917969 84.160156 22.003906 80.164062 25.203125 C 80.109375 27.203125 80.75 28.125 81.914062 28.125 C 84.007812 28.125 86.097656 25.976562 87.890625 21.652344 C 88.136719 21.0625 88.371094 20.382812 88.628906 19.730469 C 88.988281 18.820312 90.871094 19.347656 90.601562 20.253906 C 90.023438 22.191406 89.101562 24.753906 89.101562 26.445312 C 89.101562 27.578125 89.667969 28.050781 90.5 28.039062 C 91.660156 28.023438 92.609375 27.183594 93.289062 26.367188 C 93.289062 26.367188 93.769531 23.960938 93.90625 23.292969 C 95.867188 13.917969 98.132812 9.84375 101.101562 9.84375 C 102.875 9.84375 103.777344 10.941406 103.777344 12.710938 C 103.777344 15.964844 101.550781 19.699219 97.273438 24.859375 C 98.605469 25.332031 100.074219 25.683594 101.949219 25.683594 C 102.058594 25.683594 102.316406 25.679688 102.425781 25.679688 C 102.382812 25.421875 102.34375 24.953125 102.34375 24.558594 C 102.34375 20.914062 104.9375 18.3125 108.136719 18.3125 C 110.226562 18.3125 111.851562 19.300781 111.851562 21.464844 C 111.851562 24.171875 108.996094 26.320312 105.402344 27.070312 C 105.960938 27.742188 107.0625 28.21875 108.601562 28.21875 C 112.054688 28.21875 114.714844 26.515625 116.480469 24.851562 L 116.480469 0.00390625 L 72.628906 0.00390625 L 72.628906 27.375 C 74.652344 26.617188 76.527344 25.582031 78.089844 24.441406 "/>
<path style=" stroke:none;fill-rule:nonzero;fill:rgb(75.686275%,9.803922%,23.529412%);fill-opacity:1;" d="M 101.078125 11.59375 C 100.023438 11.59375 97.890625 14.667969 96.039062 23.5 C 99.175781 19.507812 101.714844 14.996094 101.714844 12.648438 C 101.714844 12.03125 101.535156 11.59375 101.078125 11.59375 "/>
<path style=" stroke:none;fill-rule:nonzero;fill:rgb(75.686275%,9.803922%,23.529412%);fill-opacity:1;" d="M 108.601562 30.085938 C 105.59375 30.085938 103.898438 28.910156 102.992188 27.421875 C 102.695312 27.4375 102.347656 27.445312 102.03125 27.445312 C 100.445312 27.445312 99.011719 27.226562 97.988281 26.882812 C 98.800781 28.636719 99.332031 30.925781 99.328125 33.011719 C 99.316406 36.984375 97.898438 39.589844 95.191406 39.589844 C 93.261719 39.589844 92.164062 38.175781 92.125 35.25 C 92.097656 33.117188 92.378906 31.351562 92.796875 28.957031 C 92.140625 29.507812 91.222656 29.90625 90.121094 29.910156 C 88.132812 29.917969 87.023438 28.640625 86.945312 26.886719 C 85.394531 28.988281 83.535156 30 81.589844 30 C 79.472656 30 78.34375 28.628906 78.121094 26.582031 C 76.601562 27.554688 74.746094 28.566406 72.628906 29.328125 L 72.628906 44.152344 L 116.480469 44.152344 L 116.480469 27.246094 C 114.140625 29.117188 111.4375 30.085938 108.601562 30.085938 "/>
<path style=" stroke:none;fill-rule:nonzero;fill:rgb(75.686275%,9.803922%,23.529412%);fill-opacity:1;" d="M 84.847656 11.597656 C 83.707031 11.597656 81.695312 15.03125 80.441406 22.574219 C 84.011719 19.066406 85.46875 14.527344 85.46875 12.722656 C 85.46875 11.886719 85.246094 11.597656 84.847656 11.597656 "/>
<path style=" stroke:none;fill-rule:nonzero;fill:rgb(75.686275%,9.803922%,23.529412%);fill-opacity:1;" d="M 95.359375 26.824219 C 94.894531 28.996094 94.257812 32.824219 94.257812 35.253906 C 94.257812 36.664062 94.5625 37.5625 95.375 37.5625 C 96.789062 37.5625 97.207031 35.058594 97.207031 33.207031 C 97.207031 30.804688 96.589844 28.277344 95.640625 26.527344 L 95.359375 26.824219 "/>
<path style=" stroke:none;fill-rule:nonzero;fill:rgb(48.627451%,49.411765%,41.176471%);fill-opacity:1;" d="M 2.320312 24.855469 C 2.320312 25.40625 2.378906 25.921875 2.496094 26.40625 C 2.613281 26.890625 2.800781 27.3125 3.054688 27.667969 C 3.3125 28.027344 3.644531 28.308594 4.054688 28.515625 C 4.464844 28.726562 4.953125 28.828125 5.527344 28.828125 C 5.9375 28.828125 6.308594 28.769531 6.636719 28.644531 C 6.964844 28.519531 7.242188 28.378906 7.472656 28.214844 C 7.746094 28.039062 7.992188 27.835938 8.207031 27.601562 C 8.328125 27.742188 8.484375 27.953125 8.679688 28.242188 C 8.871094 28.527344 8.96875 28.789062 8.96875 29.035156 C 8.964844 29.113281 8.941406 29.191406 8.902344 29.273438 C 8.832031 29.425781 8.695312 29.589844 8.488281 29.761719 C 8.199219 30.015625 7.777344 30.234375 7.226562 30.417969 C 6.675781 30.605469 6.011719 30.695312 5.226562 30.695312 C 4.71875 30.695312 4.160156 30.625 3.558594 30.480469 C 2.953125 30.339844 2.386719 30.054688 1.863281 29.632812 C 1.335938 29.210938 0.894531 28.625 0.539062 27.867188 C 0.179688 27.109375 0 26.117188 0 24.875 C 0 23.730469 0.1875 22.785156 0.5625 22.039062 C 0.9375 21.292969 1.398438 20.707031 1.941406 20.28125 C 2.488281 19.855469 3.070312 19.554688 3.683594 19.386719 C 4.300781 19.21875 4.84375 19.132812 5.3125 19.132812 C 5.882812 19.132812 6.402344 19.191406 6.863281 19.3125 C 7.328125 19.433594 7.71875 19.59375 8.046875 19.785156 C 8.355469 19.964844 8.585938 20.148438 8.742188 20.34375 C 8.898438 20.539062 8.976562 20.730469 8.976562 20.929688 C 8.976562 21.308594 8.695312 21.859375 8.34375 22.332031 C 8.089844 22.042969 7.71875 21.75 7.230469 21.460938 C 6.738281 21.167969 6.195312 21.023438 5.59375 21.023438 C 5.015625 21.023438 4.515625 21.117188 4.105469 21.3125 C 3.691406 21.507812 3.351562 21.777344 3.082031 22.125 C 2.816406 22.476562 2.621094 22.882812 2.5 23.351562 C 2.378906 23.820312 2.320312 24.324219 2.320312 24.855469 "/>
<path style=" stroke:none;fill-rule:nonzero;fill:rgb(48.627451%,49.411765%,41.176471%);fill-opacity:1;" d="M 17.546875 27.160156 C 17.546875 27.339844 17.472656 27.53125 17.320312 27.726562 C 17.167969 27.921875 16.960938 28.101562 16.699219 28.269531 C 16.4375 28.433594 16.136719 28.570312 15.792969 28.683594 C 15.453125 28.796875 15.09375 28.855469 14.714844 28.855469 C 14.003906 28.855469 13.519531 28.679688 13.257812 28.335938 C 12.996094 27.988281 12.863281 27.589844 12.863281 27.136719 C 12.863281 26.65625 12.988281 26.265625 13.234375 25.972656 C 13.480469 25.679688 13.800781 25.449219 14.191406 25.285156 C 14.585938 25.121094 15.019531 25.007812 15.5 24.945312 C 15.980469 24.886719 16.449219 24.855469 16.917969 24.855469 L 17.546875 24.855469 Z M 20.191406 30.085938 C 20.019531 29.855469 19.902344 29.519531 19.839844 29.078125 C 19.765625 28.597656 19.734375 27.933594 19.734375 27.082031 L 19.734375 23.230469 C 19.734375 22.554688 19.664062 21.957031 19.53125 21.4375 C 19.398438 20.917969 19.164062 20.488281 18.832031 20.144531 C 18.5 19.796875 18.0625 19.539062 17.527344 19.363281 C 16.988281 19.191406 16.3125 19.105469 15.507812 19.105469 C 15.03125 19.105469 14.546875 19.144531 14.054688 19.226562 C 13.566406 19.304688 13.117188 19.417969 12.710938 19.5625 C 12.308594 19.703125 11.980469 19.871094 11.726562 20.054688 C 11.472656 20.238281 11.347656 20.433594 11.347656 20.640625 C 11.347656 20.777344 11.394531 20.988281 11.496094 21.269531 C 11.59375 21.550781 11.726562 21.808594 11.886719 22.042969 C 12.367188 21.703125 12.859375 21.449219 13.367188 21.253906 C 13.878906 21.058594 14.503906 20.949219 15.242188 20.949219 C 16.132812 20.949219 16.738281 21.121094 17.050781 21.460938 C 17.367188 21.804688 17.523438 22.304688 17.523438 22.957031 L 17.523438 23.324219 C 17.382812 23.3125 17.222656 23.304688 17.039062 23.304688 C 16.855469 23.304688 16.695312 23.304688 16.554688 23.304688 C 15.988281 23.320312 15.363281 23.378906 14.683594 23.488281 C 14 23.597656 13.359375 23.796875 12.761719 24.09375 C 12.167969 24.386719 11.664062 24.785156 11.257812 25.296875 C 10.851562 25.808594 10.648438 26.464844 10.648438 27.269531 C 10.648438 27.933594 10.757812 28.476562 10.980469 28.90625 C 11.203125 29.332031 11.484375 29.671875 11.824219 29.925781 C 12.167969 30.179688 12.546875 30.351562 12.964844 30.445312 C 13.386719 30.539062 13.804688 30.589844 14.214844 30.589844 C 15.070312 30.589844 15.757812 30.453125 16.28125 30.1875 C 16.804688 29.921875 17.257812 29.597656 17.628906 29.214844 C 17.6875 29.671875 17.878906 29.988281 18.207031 30.167969 C 18.539062 30.347656 18.921875 30.4375 19.367188 30.4375 C 19.503906 30.4375 19.636719 30.429688 19.765625 30.414062 C 19.894531 30.402344 20.003906 30.386719 20.09375 30.363281 C 20.171875 30.34375 20.226562 30.277344 20.226562 30.191406 C 20.222656 30.148438 20.210938 30.117188 20.191406 30.085938 "/>
<path style=" stroke:none;fill-rule:nonzero;fill:rgb(48.627451%,49.411765%,41.176471%);fill-opacity:1;" d="M 32.019531 30.355469 L 29.753906 30.355469 L 29.753906 24.085938 C 29.753906 23.65625 29.742188 23.253906 29.710938 22.882812 C 29.679688 22.511719 29.597656 22.191406 29.46875 21.925781 C 29.335938 21.660156 29.125 21.457031 28.832031 21.308594 C 28.542969 21.160156 28.132812 21.085938 27.609375 21.085938 C 26.867188 21.085938 26.234375 21.238281 25.707031 21.582031 C 25.179688 21.925781 24.914062 22.378906 24.914062 22.886719 L 24.914062 30.355469 L 22.644531 30.355469 L 22.644531 19.332031 C 22.679688 19.328125 22.71875 19.324219 22.765625 19.320312 C 22.804688 19.316406 22.851562 19.3125 22.902344 19.3125 C 22.957031 19.3125 23.019531 19.3125 23.09375 19.3125 C 23.496094 19.3125 23.855469 19.40625 24.179688 19.589844 C 24.5 19.777344 24.699219 20.097656 24.769531 20.550781 C 25.121094 20.175781 25.601562 19.84375 26.210938 19.546875 C 26.816406 19.253906 27.535156 19.105469 28.363281 19.105469 C 29.414062 19.105469 30.214844 19.34375 30.769531 19.8125 C 31.324219 20.285156 31.6875 20.875 31.855469 21.578125 C 31.933594 21.894531 31.980469 22.246094 31.992188 22.628906 C 32.007812 23.011719 32.015625 23.386719 32.015625 23.746094 L 32.015625 30.355469 "/>
<path style=" stroke:none;fill-rule:nonzero;fill:rgb(48.627451%,49.411765%,41.176471%);fill-opacity:1;" d="M 41.152344 27.160156 C 41.152344 27.339844 41.074219 27.53125 40.921875 27.726562 C 40.769531 27.921875 40.5625 28.101562 40.300781 28.269531 C 40.039062 28.433594 39.738281 28.570312 39.398438 28.683594 C 39.054688 28.796875 38.695312 28.855469 38.320312 28.855469 C 37.605469 28.855469 37.121094 28.679688 36.859375 28.335938 C 36.597656 27.988281 36.46875 27.589844 36.46875 27.136719 C 36.46875 26.65625 36.589844 26.265625 36.835938 25.972656 C 37.082031 25.679688 37.402344 25.449219 37.796875 25.285156 C 38.1875 25.121094 38.625 25.007812 39.101562 24.945312 C 39.582031 24.886719 40.050781 24.855469 40.519531 24.855469 L 41.152344 24.855469 Z M 43.792969 30.085938 C 43.625 29.855469 43.503906 29.519531 43.441406 29.078125 C 43.371094 28.597656 43.335938 27.933594 43.335938 27.082031 L 43.335938 23.230469 C 43.335938 22.554688 43.269531 21.957031 43.132812 21.4375 C 43 20.917969 42.765625 20.488281 42.433594 20.144531 C 42.101562 19.796875 41.667969 19.539062 41.128906 19.363281 C 40.589844 19.191406 39.917969 19.105469 39.109375 19.105469 C 38.636719 19.105469 38.148438 19.144531 37.660156 19.226562 C 37.167969 19.304688 36.71875 19.417969 36.316406 19.5625 C 35.910156 19.703125 35.582031 19.871094 35.328125 20.054688 C 35.074219 20.238281 34.949219 20.433594 34.949219 20.640625 C 34.949219 20.777344 34.996094 20.988281 35.097656 21.269531 C 35.195312 21.550781 35.328125 21.808594 35.492188 22.042969 C 35.96875 21.703125 36.460938 21.449219 36.972656 21.253906 C 37.480469 21.058594 38.105469 20.949219 38.84375 20.949219 C 39.734375 20.949219 40.339844 21.121094 40.652344 21.460938 C 40.96875 21.804688 41.125 22.304688 41.125 22.957031 L 41.125 23.324219 C 40.988281 23.3125 40.824219 23.304688 40.640625 23.304688 C 40.457031 23.304688 40.296875 23.304688 40.15625 23.304688 C 39.589844 23.320312 38.964844 23.378906 38.285156 23.488281 C 37.601562 23.597656 36.960938 23.796875 36.367188 24.09375 C 35.769531 24.386719 35.265625 24.785156 34.863281 25.296875 C 34.457031 25.808594 34.253906 26.464844 34.253906 27.269531 C 34.253906 27.933594 34.363281 28.476562 34.585938 28.90625 C 34.804688 29.332031 35.089844 29.671875 35.429688 29.925781 C 35.769531 30.179688 36.152344 30.351562 36.570312 30.445312 C 36.992188 30.539062 37.40625 30.589844 37.820312 30.589844 C 38.675781 30.589844 39.363281 30.453125 39.886719 30.1875 C 40.410156 29.921875 40.859375 29.597656 41.234375 29.214844 C 41.289062 29.671875 41.484375 29.988281 41.8125 30.167969 C 42.140625 30.347656 42.527344 30.4375 42.96875 30.4375 C 43.109375 30.4375 43.242188 30.429688 43.371094 30.414062 C 43.496094 30.402344 43.605469 30.386719 43.695312 30.363281 C 43.777344 30.34375 43.832031 30.277344 43.832031 30.191406 C 43.828125 30.148438 43.816406 30.117188 43.792969 30.085938 "/>
<path style=" stroke:none;fill-rule:nonzero;fill:rgb(48.627451%,49.411765%,41.176471%);fill-opacity:1;" d="M 53.207031 27.359375 C 53.207031 27.539062 53.152344 27.714844 53.035156 27.894531 C 52.917969 28.074219 52.753906 28.230469 52.539062 28.367188 C 52.324219 28.5 52.070312 28.613281 51.773438 28.699219 C 51.480469 28.789062 51.160156 28.835938 50.816406 28.835938 C 50.296875 28.835938 49.863281 28.734375 49.511719 28.535156 C 49.160156 28.332031 48.878906 28.050781 48.664062 27.683594 C 48.445312 27.316406 48.296875 26.886719 48.210938 26.394531 C 48.125 25.902344 48.078125 25.367188 48.078125 24.78125 C 48.078125 23.527344 48.316406 22.582031 48.789062 21.9375 C 49.265625 21.296875 49.910156 20.976562 50.730469 20.976562 C 51.074219 20.976562 51.382812 21.015625 51.65625 21.097656 C 51.925781 21.179688 52.167969 21.28125 52.378906 21.398438 C 52.585938 21.519531 52.757812 21.648438 52.894531 21.78125 C 53.019531 21.90625 53.125 22.007812 53.207031 22.09375 Z M 55.921875 30.085938 C 55.75 29.855469 55.632812 29.519531 55.566406 29.078125 C 55.496094 28.597656 55.460938 27.933594 55.460938 27.082031 L 55.460938 15.734375 C 55.460938 15.339844 55.417969 15.015625 55.324219 14.773438 C 55.234375 14.527344 55.109375 14.332031 54.953125 14.1875 C 54.796875 14.046875 54.617188 13.953125 54.417969 13.902344 C 54.222656 13.855469 54.023438 13.832031 53.832031 13.832031 C 53.734375 13.832031 53.621094 13.832031 53.492188 13.839844 C 53.363281 13.84375 53.269531 13.851562 53.207031 13.863281 L 53.207031 20.230469 C 52.964844 20 52.597656 19.765625 52.097656 19.527344 C 51.601562 19.289062 50.96875 19.171875 50.195312 19.171875 C 49.613281 19.171875 49.046875 19.285156 48.503906 19.519531 C 47.957031 19.75 47.480469 20.097656 47.070312 20.566406 C 46.660156 21.035156 46.332031 21.640625 46.085938 22.378906 C 45.839844 23.113281 45.714844 23.992188 45.714844 25.003906 C 45.714844 26.074219 45.839844 26.972656 46.09375 27.691406 C 46.34375 28.414062 46.683594 28.988281 47.105469 29.425781 C 47.53125 29.859375 48.015625 30.167969 48.5625 30.355469 C 49.105469 30.539062 49.667969 30.632812 50.25 30.632812 C 51.058594 30.632812 51.722656 30.472656 52.246094 30.148438 C 52.765625 29.828125 53.136719 29.515625 53.355469 29.214844 C 53.410156 29.667969 53.605469 29.988281 53.933594 30.167969 C 54.261719 30.34375 54.648438 30.433594 55.089844 30.433594 C 55.226562 30.433594 55.363281 30.429688 55.488281 30.414062 C 55.617188 30.398438 55.726562 30.382812 55.816406 30.359375 C 55.894531 30.34375 55.953125 30.273438 55.953125 30.191406 C 55.953125 30.148438 55.941406 30.117188 55.921875 30.085938 "/>
<path style=" stroke:none;fill-rule:nonzero;fill:rgb(48.627451%,49.411765%,41.176471%);fill-opacity:1;" d="M 64.679688 27.160156 C 64.679688 27.339844 64.601562 27.53125 64.449219 27.726562 C 64.296875 27.921875 64.089844 28.101562 63.828125 28.269531 C 63.566406 28.433594 63.265625 28.570312 62.925781 28.683594 C 62.582031 28.796875 62.222656 28.855469 61.847656 28.855469 C 61.132812 28.855469 60.648438 28.679688 60.386719 28.335938 C 60.125 27.988281 59.996094 27.589844 59.996094 27.136719 C 59.996094 26.65625 60.117188 26.265625 60.363281 25.972656 C 60.609375 25.679688 60.929688 25.449219 61.320312 25.285156 C 61.714844 25.121094 62.152344 25.007812 62.628906 24.945312 C 63.109375 24.886719 63.582031 24.855469 64.046875 24.855469 L 64.679688 24.855469 Z M 67.320312 30.085938 C 67.148438 29.855469 67.03125 29.519531 66.964844 29.078125 C 66.894531 28.597656 66.859375 27.933594 66.859375 27.082031 L 66.859375 23.230469 C 66.859375 22.554688 66.792969 21.957031 66.65625 21.4375 C 66.523438 20.917969 66.289062 20.488281 65.957031 20.144531 C 65.625 19.796875 65.191406 19.539062 64.652344 19.363281 C 64.113281 19.191406 63.441406 19.105469 62.632812 19.105469 C 62.160156 19.105469 61.671875 19.144531 61.183594 19.226562 C 60.691406 19.304688 60.242188 19.417969 59.839844 19.5625 C 59.433594 19.703125 59.105469 19.871094 58.851562 20.054688 C 58.597656 20.238281 58.46875 20.433594 58.46875 20.640625 C 58.46875 20.777344 58.519531 20.988281 58.621094 21.269531 C 58.71875 21.550781 58.851562 21.808594 59.015625 22.042969 C 59.492188 21.703125 59.984375 21.449219 60.492188 21.253906 C 61.003906 21.058594 61.628906 20.949219 62.367188 20.949219 C 63.257812 20.949219 63.863281 21.121094 64.175781 21.460938 C 64.492188 21.804688 64.648438 22.304688 64.648438 22.957031 L 64.648438 23.324219 C 64.507812 23.3125 64.347656 23.304688 64.164062 23.304688 C 63.980469 23.304688 63.820312 23.304688 63.679688 23.304688 C 63.113281 23.320312 62.488281 23.378906 61.808594 23.488281 C 61.125 23.597656 60.484375 23.796875 59.890625 24.09375 C 59.292969 24.386719 58.789062 24.785156 58.382812 25.296875 C 57.980469 25.808594 57.777344 26.464844 57.777344 27.269531 C 57.777344 27.933594 57.886719 28.476562 58.109375 28.90625 C 58.328125 29.332031 58.613281 29.671875 58.953125 29.925781 C 59.292969 30.179688 59.671875 30.351562 60.09375 30.445312 C 60.515625 30.539062 60.929688 30.589844 61.34375 30.589844 C 62.195312 30.589844 62.886719 30.453125 63.410156 30.1875 C 63.933594 29.921875 64.382812 29.597656 64.757812 29.214844 C 64.8125 29.671875 65.007812 29.988281 65.335938 30.167969 C 65.664062 30.347656 66.050781 30.4375 66.492188 30.4375 C 66.632812 30.4375 66.765625 30.429688 66.894531 30.414062 C 67.019531 30.402344 67.128906 30.386719 67.21875 30.363281 C 67.300781 30.34375 67.355469 30.277344 67.355469 30.191406 C 67.355469 30.148438 67.339844 30.117188 67.320312 30.085938 "/>
<path style=" stroke:none;fill-rule:nonzero;fill:rgb(100%,100%,100%);fill-opacity:1;" d="M 90.855469 17.359375 C 91.679688 17.359375 92.378906 16.6875 92.414062 15.859375 C 92.449219 15.03125 91.8125 14.359375 90.992188 14.359375 C 90.167969 14.359375 89.46875 15.03125 89.433594 15.859375 C 89.398438 16.6875 90.035156 17.359375 90.855469 17.359375 "/>
<path style=" stroke:none;fill-rule:nonzero;fill:rgb(100%,100%,100%);fill-opacity:1;" d="M 104.574219 24.539062 C 104.574219 22.300781 105.941406 20.066406 108.167969 20.066406 C 109.125 20.066406 109.695312 20.589844 109.695312 21.5 C 109.695312 22.9375 108.042969 24.753906 104.660156 25.40625 C 104.613281 25.15625 104.574219 24.890625 104.574219 24.539062 Z M 95.378906 37.5625 C 94.5625 37.5625 94.257812 36.664062 94.257812 35.253906 C 94.257812 32.824219 94.898438 29 95.363281 26.824219 L 95.644531 26.527344 C 96.597656 28.273438 97.210938 30.804688 97.210938 33.207031 C 97.210938 35.058594 96.789062 37.5625 95.378906 37.5625 Z M 101.078125 11.59375 C 101.535156 11.59375 101.714844 12.027344 101.714844 12.648438 C 101.714844 14.996094 99.175781 19.507812 96.039062 23.5 C 97.890625 14.667969 100.023438 11.59375 101.078125 11.59375 Z M 84.847656 11.597656 C 85.25 11.597656 85.46875 11.886719 85.46875 12.722656 C 85.46875 14.527344 84.011719 19.066406 80.441406 22.578125 C 81.695312 15.03125 83.707031 11.597656 84.847656 11.597656 Z M 108.601562 28.214844 C 107.0625 28.214844 105.960938 27.734375 105.402344 27.0625 C 109 26.316406 111.851562 24.167969 111.851562 21.457031 C 111.851562 19.292969 110.226562 18.308594 108.136719 18.308594 C 104.9375 18.308594 102.34375 20.90625 102.34375 24.554688 C 102.34375 24.945312 102.382812 25.417969 102.425781 25.675781 C 102.316406 25.675781 102.058594 25.675781 101.949219 25.675781 C 100.074219 25.675781 98.605469 25.324219 97.273438 24.855469 C 101.550781 19.695312 103.777344 15.957031 103.777344 12.707031 C 103.777344 10.929688 102.875 9.835938 101.101562 9.835938 C 98.132812 9.835938 95.867188 13.910156 93.90625 23.289062 C 93.769531 23.953125 93.289062 26.359375 93.289062 26.359375 C 92.613281 27.175781 91.664062 28.015625 90.5 28.03125 C 89.667969 28.042969 89.101562 27.574219 89.101562 26.441406 C 89.101562 24.746094 90.023438 22.183594 90.601562 20.25 C 90.871094 19.34375 88.988281 18.816406 88.628906 19.726562 C 88.371094 20.378906 88.136719 21.058594 87.890625 21.648438 C 86.09375 25.972656 84.007812 28.121094 81.914062 28.121094 C 80.75 28.121094 80.109375 27.199219 80.164062 25.199219 C 84.160156 22 87.519531 16.910156 87.476562 12.75 C 87.460938 11.171875 86.753906 9.835938 84.84375 9.835938 C 82.097656 9.835938 80.152344 13.660156 79.003906 18.679688 C 78.628906 20.316406 78.234375 22.382812 78.089844 24.433594 C 76.527344 25.578125 74.652344 26.613281 72.628906 27.371094 L 72.628906 29.320312 C 74.746094 28.5625 76.597656 27.546875 78.117188 26.578125 C 78.339844 28.625 79.472656 29.992188 81.589844 29.992188 C 83.53125 29.992188 85.394531 28.980469 86.941406 26.878906 C 87.023438 28.636719 88.128906 29.910156 90.121094 29.902344 C 91.222656 29.898438 92.140625 29.503906 92.796875 28.949219 C 92.378906 31.34375 92.09375 33.113281 92.125 35.242188 C 92.160156 38.167969 93.261719 39.585938 95.1875 39.585938 C 97.898438 39.585938 99.3125 36.976562 99.324219 33.007812 C 99.328125 30.921875 98.800781 28.628906 97.984375 26.878906 C 99.011719 27.21875 100.445312 27.4375 102.027344 27.4375 C 102.34375 27.4375 102.695312 27.429688 102.988281 27.414062 C 103.894531 28.90625 105.589844 30.082031 108.601562 30.082031 C 111.4375 30.082031 114.140625 29.113281 116.476562 27.242188 L 116.476562 24.839844 C 114.714844 26.503906 112.054688 28.214844 108.601562 28.214844 "/>
<path style=" stroke:none;fill-rule:nonzero;fill:rgb(48.627451%,49.411765%,41.176471%);fill-opacity:1;" d="M 126.175781 0.152344 L 124.804688 3.863281 L 123.4375 0.152344 L 122.613281 0.152344 L 122.613281 4.566406 L 123.160156 4.566406 L 123.160156 0.886719 L 123.191406 0.886719 L 124.53125 4.566406 L 125.082031 4.566406 L 126.421875 0.886719 L 126.449219 0.886719 L 126.449219 4.566406 L 127 4.566406 L 127 0.152344 L 126.175781 0.152344 "/>
<path style=" stroke:none;fill-rule:nonzero;fill:rgb(48.627451%,49.411765%,41.176471%);fill-opacity:1;" d="M 118.59375 0.640625 L 120.085938 0.640625 L 120.085938 4.566406 L 120.632812 4.566406 L 120.632812 0.640625 L 122.125 0.640625 L 122.125 0.152344 L 118.59375 0.152344 L 118.59375 0.640625 "/>
</g>
</svg>
