<?xml version="1.0" encoding="UTF-8"?>
<svg xmlns="http://www.w3.org/2000/svg" xmlns:xlink="http://www.w3.org/1999/xlink" width="128px" height="43px" viewBox="0 0 126 43" version="1.1">
<g id="surface1">
<path style=" stroke:none;fill-rule:nonzero;fill:rgb(75.686275%,9.803922%,23.529412%);fill-opacity:1;" d="M 106.300781 19.605469 C 104.140625 19.605469 102.8125 21.789062 102.8125 23.980469 C 102.8125 24.324219 102.851562 24.582031 102.894531 24.828125 C 106.171875 24.191406 107.773438 22.414062 107.773438 21.007812 C 107.773438 20.121094 107.222656 19.605469 106.300781 19.605469 "/>
<path style=" stroke:none;fill-rule:nonzero;fill:rgb(75.686275%,9.803922%,23.529412%);fill-opacity:1;" d="M 89.644531 14.03125 C 90.441406 14.03125 91.058594 14.691406 91.023438 15.5 C 90.988281 16.304688 90.3125 16.964844 89.515625 16.964844 C 88.71875 16.964844 88.097656 16.304688 88.136719 15.5 C 88.171875 14.691406 88.851562 14.03125 89.644531 14.03125 Z M 77.144531 23.886719 C 77.28125 21.878906 77.664062 19.859375 78.027344 18.261719 C 79.140625 13.355469 81.027344 9.621094 83.6875 9.621094 C 85.539062 9.621094 86.226562 10.921875 86.242188 12.46875 C 86.28125 16.53125 83.027344 21.503906 79.148438 24.628906 C 79.101562 26.585938 79.71875 27.484375 80.847656 27.484375 C 82.878906 27.484375 84.902344 25.390625 86.644531 21.160156 C 86.882812 20.585938 87.109375 19.921875 87.359375 19.285156 C 87.707031 18.394531 89.53125 18.910156 89.269531 19.792969 C 88.707031 21.6875 87.816406 24.191406 87.816406 25.84375 C 87.816406 26.953125 88.363281 27.414062 89.171875 27.402344 C 90.296875 27.382812 91.214844 26.566406 91.878906 25.765625 C 91.878906 25.765625 92.339844 23.414062 92.476562 22.765625 C 94.375 13.601562 96.570312 9.621094 99.449219 9.621094 C 101.167969 9.621094 102.039062 10.691406 102.039062 12.421875 C 102.039062 15.601562 99.882812 19.253906 95.734375 24.292969 C 97.027344 24.757812 98.449219 25.097656 100.269531 25.097656 C 100.375 25.097656 100.625 25.097656 100.730469 25.097656 C 100.6875 24.847656 100.652344 24.386719 100.652344 24.003906 C 100.652344 20.4375 103.167969 17.898438 106.265625 17.898438 C 108.289062 17.898438 109.867188 18.859375 109.867188 20.976562 C 109.867188 23.625 107.101562 25.726562 103.613281 26.457031 C 104.15625 27.109375 105.222656 27.578125 106.714844 27.578125 C 110.0625 27.578125 112.640625 25.914062 114.351562 24.289062 L 114.351562 0.00390625 L 71.847656 0.00390625 L 71.847656 26.753906 C 73.808594 26.011719 75.625 25 77.144531 23.886719 "/>
<path style=" stroke:none;fill-rule:nonzero;fill:rgb(75.686275%,9.803922%,23.529412%);fill-opacity:1;" d="M 99.421875 11.332031 C 98.402344 11.332031 96.332031 14.335938 94.542969 22.964844 C 97.578125 19.066406 100.042969 14.652344 100.042969 12.359375 C 100.042969 11.757812 99.867188 11.332031 99.421875 11.332031 "/>
<path style=" stroke:none;fill-rule:nonzero;fill:rgb(75.686275%,9.803922%,23.529412%);fill-opacity:1;" d="M 106.71875 29.402344 C 103.800781 29.402344 102.15625 28.253906 101.277344 26.796875 C 100.992188 26.8125 100.65625 26.820312 100.347656 26.820312 C 98.8125 26.820312 97.421875 26.605469 96.425781 26.273438 C 97.21875 27.984375 97.730469 30.222656 97.726562 32.261719 C 97.71875 36.144531 96.339844 38.691406 93.71875 38.691406 C 91.847656 38.691406 90.78125 37.304688 90.746094 34.445312 C 90.71875 32.363281 90.992188 30.636719 91.394531 28.296875 C 90.761719 28.835938 89.871094 29.222656 88.804688 29.230469 C 86.875 29.238281 85.800781 27.988281 85.726562 26.273438 C 84.222656 28.328125 82.417969 29.316406 80.535156 29.316406 C 78.484375 29.316406 77.386719 27.976562 77.171875 25.980469 C 75.699219 26.929688 73.902344 27.917969 71.847656 28.660156 L 71.847656 43.148438 L 114.351562 43.148438 L 114.351562 26.628906 C 112.085938 28.457031 109.464844 29.402344 106.71875 29.402344 "/>
<path style=" stroke:none;fill-rule:nonzero;fill:rgb(75.686275%,9.803922%,23.529412%);fill-opacity:1;" d="M 83.691406 11.332031 C 82.589844 11.332031 80.632812 14.691406 79.421875 22.0625 C 82.878906 18.632812 84.292969 14.195312 84.292969 12.433594 C 84.292969 11.621094 84.078125 11.332031 83.691406 11.332031 "/>
<path style=" stroke:none;fill-rule:nonzero;fill:rgb(75.686275%,9.803922%,23.529412%);fill-opacity:1;" d="M 93.878906 26.214844 C 93.429688 28.339844 92.8125 32.078125 92.8125 34.453125 C 92.8125 35.832031 93.105469 36.707031 93.898438 36.707031 C 95.265625 36.707031 95.675781 34.261719 95.675781 32.449219 C 95.675781 30.105469 95.074219 27.632812 94.152344 25.925781 L 93.878906 26.214844 "/>
<path style=" stroke:none;fill-rule:nonzero;fill:rgb(48.627451%,49.411765%,41.176471%);fill-opacity:1;" d="M 3.695312 24.289062 C 3.695312 24.828125 3.753906 25.332031 3.867188 25.804688 C 3.984375 26.28125 4.164062 26.691406 4.410156 27.039062 C 4.660156 27.390625 4.980469 27.667969 5.378906 27.871094 C 5.777344 28.074219 6.25 28.171875 6.804688 28.171875 C 7.207031 28.171875 7.566406 28.117188 7.882812 27.992188 C 8.199219 27.871094 8.46875 27.734375 8.691406 27.574219 C 8.960938 27.40625 9.199219 27.203125 9.40625 26.976562 C 9.523438 27.109375 9.675781 27.320312 9.863281 27.601562 C 10.046875 27.878906 10.140625 28.136719 10.140625 28.375 C 10.136719 28.453125 10.117188 28.527344 10.082031 28.609375 C 10.011719 28.757812 9.878906 28.917969 9.679688 29.085938 C 9.398438 29.332031 8.988281 29.550781 8.457031 29.726562 C 7.921875 29.910156 7.277344 30 6.515625 30 C 6.023438 30 5.484375 29.929688 4.898438 29.789062 C 4.3125 29.648438 3.761719 29.375 3.253906 28.957031 C 2.742188 28.546875 2.316406 27.972656 1.972656 27.238281 C 1.625 26.492188 1.449219 25.523438 1.449219 24.308594 C 1.449219 23.191406 1.628906 22.265625 1.996094 21.539062 C 2.359375 20.808594 2.800781 20.238281 3.335938 19.820312 C 3.859375 19.402344 4.425781 19.113281 5.019531 18.945312 C 5.617188 18.78125 6.144531 18.699219 6.597656 18.699219 C 7.152344 18.699219 7.65625 18.757812 8.101562 18.875 C 8.550781 18.992188 8.933594 19.148438 9.25 19.332031 C 9.546875 19.511719 9.773438 19.691406 9.921875 19.882812 C 10.078125 20.074219 10.152344 20.257812 10.152344 20.453125 C 10.152344 20.824219 9.878906 21.363281 9.535156 21.824219 C 9.289062 21.542969 8.929688 21.253906 8.460938 20.96875 C 7.984375 20.691406 7.453125 20.546875 6.871094 20.546875 C 6.3125 20.546875 5.828125 20.636719 5.429688 20.828125 C 5.03125 21.015625 4.699219 21.28125 4.4375 21.621094 C 4.179688 21.964844 3.992188 22.367188 3.875 22.820312 C 3.753906 23.277344 3.695312 23.769531 3.695312 24.289062 "/>
<path style=" stroke:none;fill-rule:nonzero;fill:rgb(48.627451%,49.411765%,41.176471%);fill-opacity:1;" d="M 18.460938 26.542969 C 18.460938 26.71875 18.382812 26.90625 18.238281 27.097656 C 18.089844 27.289062 17.890625 27.460938 17.636719 27.625 C 17.382812 27.785156 17.089844 27.921875 16.757812 28.03125 C 16.429688 28.144531 16.082031 28.199219 15.714844 28.199219 C 15.023438 28.199219 14.554688 28.027344 14.300781 27.6875 C 14.046875 27.351562 13.921875 26.960938 13.921875 26.519531 C 13.921875 26.046875 14.039062 25.667969 14.277344 25.382812 C 14.515625 25.097656 14.828125 24.871094 15.203125 24.710938 C 15.585938 24.550781 16.007812 24.4375 16.476562 24.382812 C 16.9375 24.320312 17.394531 24.289062 17.847656 24.289062 L 18.460938 24.289062 Z M 21.019531 29.402344 C 20.855469 29.179688 20.742188 28.847656 20.679688 28.417969 C 20.609375 27.949219 20.578125 27.296875 20.578125 26.46875 L 20.578125 22.707031 C 20.578125 22.042969 20.511719 21.457031 20.378906 20.949219 C 20.25 20.445312 20.027344 20.023438 19.703125 19.683594 C 19.378906 19.347656 18.957031 19.09375 18.4375 18.925781 C 17.917969 18.757812 17.261719 18.671875 16.484375 18.671875 C 16.019531 18.671875 15.550781 18.710938 15.074219 18.785156 C 14.597656 18.867188 14.164062 18.976562 13.769531 19.117188 C 13.382812 19.253906 13.0625 19.421875 12.816406 19.597656 C 12.570312 19.773438 12.449219 19.96875 12.449219 20.167969 C 12.449219 20.304688 12.496094 20.511719 12.589844 20.785156 C 12.6875 21.0625 12.816406 21.3125 12.972656 21.542969 C 13.433594 21.210938 13.914062 20.960938 14.410156 20.769531 C 14.902344 20.582031 15.507812 20.472656 16.222656 20.472656 C 17.085938 20.472656 17.671875 20.640625 17.976562 20.972656 C 18.28125 21.308594 18.433594 21.796875 18.433594 22.4375 L 18.433594 22.796875 C 18.300781 22.78125 18.140625 22.773438 17.964844 22.773438 C 17.785156 22.773438 17.632812 22.773438 17.496094 22.773438 C 16.949219 22.789062 16.339844 22.847656 15.679688 22.957031 C 15.023438 23.058594 14.402344 23.257812 13.820312 23.542969 C 13.242188 23.832031 12.753906 24.222656 12.359375 24.722656 C 11.96875 25.222656 11.773438 25.863281 11.773438 26.648438 C 11.773438 27.296875 11.878906 27.828125 12.09375 28.25 C 12.308594 28.667969 12.582031 28.996094 12.914062 29.246094 C 13.242188 29.492188 13.613281 29.664062 14.015625 29.757812 C 14.425781 29.84375 14.828125 29.894531 15.230469 29.894531 C 16.058594 29.894531 16.722656 29.761719 17.230469 29.5 C 17.738281 29.238281 18.175781 28.925781 18.539062 28.550781 C 18.59375 28.996094 18.78125 29.308594 19.097656 29.484375 C 19.417969 29.65625 19.789062 29.742188 20.21875 29.742188 C 20.355469 29.742188 20.488281 29.738281 20.609375 29.726562 C 20.734375 29.710938 20.839844 29.695312 20.921875 29.671875 C 21 29.65625 21.058594 29.589844 21.058594 29.507812 C 21.054688 29.464844 21.042969 29.429688 21.019531 29.402344 "/>
<path style=" stroke:none;fill-rule:nonzero;fill:rgb(48.627451%,49.411765%,41.176471%);fill-opacity:1;" d="M 32.484375 29.664062 L 30.292969 29.664062 L 30.292969 23.542969 C 30.292969 23.117188 30.277344 22.722656 30.25 22.363281 C 30.21875 22 30.140625 21.6875 30.011719 21.425781 C 29.886719 21.167969 29.683594 20.96875 29.394531 20.824219 C 29.113281 20.679688 28.71875 20.605469 28.210938 20.605469 C 27.492188 20.605469 26.878906 20.753906 26.367188 21.09375 C 25.859375 21.429688 25.601562 21.867188 25.601562 22.371094 L 25.601562 29.664062 L 23.398438 29.664062 L 23.398438 18.894531 C 23.433594 18.890625 23.472656 18.886719 23.515625 18.882812 C 23.554688 18.878906 23.597656 18.875 23.648438 18.875 C 23.703125 18.875 23.761719 18.875 23.835938 18.875 C 24.222656 18.875 24.574219 18.964844 24.886719 19.144531 C 25.195312 19.328125 25.394531 19.640625 25.457031 20.085938 C 25.796875 19.71875 26.265625 19.390625 26.851562 19.101562 C 27.445312 18.816406 28.140625 18.671875 28.945312 18.671875 C 29.957031 18.671875 30.734375 18.902344 31.273438 19.363281 C 31.8125 19.824219 32.164062 20.398438 32.328125 21.089844 C 32.402344 21.398438 32.449219 21.738281 32.460938 22.113281 C 32.476562 22.488281 32.480469 22.855469 32.480469 23.207031 L 32.480469 29.664062 "/>
<path style=" stroke:none;fill-rule:nonzero;fill:rgb(48.627451%,49.411765%,41.176471%);fill-opacity:1;" d="M 41.335938 26.542969 C 41.335938 26.71875 41.261719 26.90625 41.117188 27.097656 C 40.96875 27.289062 40.765625 27.460938 40.511719 27.625 C 40.257812 27.785156 39.96875 27.921875 39.636719 28.03125 C 39.304688 28.144531 38.960938 28.199219 38.589844 28.199219 C 37.902344 28.199219 37.429688 28.027344 37.175781 27.6875 C 36.925781 27.351562 36.796875 26.960938 36.796875 26.519531 C 36.796875 26.046875 36.917969 25.667969 37.15625 25.382812 C 37.394531 25.097656 37.707031 24.871094 38.085938 24.710938 C 38.464844 24.550781 38.886719 24.4375 39.351562 24.382812 C 39.816406 24.320312 40.273438 24.289062 40.722656 24.289062 L 41.335938 24.289062 Z M 43.898438 29.402344 C 43.734375 29.179688 43.621094 28.847656 43.554688 28.417969 C 43.488281 27.949219 43.457031 27.296875 43.457031 26.46875 L 43.457031 22.707031 C 43.457031 22.042969 43.390625 21.457031 43.261719 20.949219 C 43.128906 20.445312 42.902344 20.023438 42.578125 19.683594 C 42.257812 19.347656 41.839844 19.09375 41.316406 18.925781 C 40.792969 18.757812 40.140625 18.671875 39.359375 18.671875 C 38.898438 18.671875 38.429688 18.710938 37.953125 18.785156 C 37.476562 18.867188 37.042969 18.976562 36.648438 19.117188 C 36.257812 19.253906 35.941406 19.421875 35.691406 19.597656 C 35.449219 19.773438 35.328125 19.96875 35.328125 20.167969 C 35.328125 20.304688 35.375 20.511719 35.472656 20.785156 C 35.566406 21.0625 35.691406 21.3125 35.851562 21.542969 C 36.3125 21.210938 36.789062 20.960938 37.285156 20.769531 C 37.78125 20.582031 38.386719 20.472656 39.101562 20.472656 C 39.964844 20.472656 40.550781 20.640625 40.855469 20.972656 C 41.160156 21.308594 41.3125 21.796875 41.3125 22.4375 L 41.3125 22.796875 C 41.175781 22.78125 41.023438 22.773438 40.84375 22.773438 C 40.667969 22.773438 40.511719 22.773438 40.375 22.773438 C 39.824219 22.789062 39.222656 22.847656 38.558594 22.957031 C 37.894531 23.058594 37.277344 23.257812 36.699219 23.542969 C 36.121094 23.832031 35.632812 24.222656 35.238281 24.722656 C 34.847656 25.222656 34.648438 25.863281 34.648438 26.648438 C 34.648438 27.296875 34.753906 27.828125 34.972656 28.25 C 35.1875 28.667969 35.460938 28.996094 35.792969 29.246094 C 36.121094 29.492188 36.492188 29.664062 36.898438 29.757812 C 37.304688 29.84375 37.707031 29.894531 38.105469 29.894531 C 38.9375 29.894531 39.601562 29.761719 40.109375 29.5 C 40.617188 29.238281 41.050781 28.925781 41.417969 28.550781 C 41.472656 28.996094 41.660156 29.308594 41.980469 29.484375 C 42.296875 29.65625 42.667969 29.742188 43.101562 29.742188 C 43.234375 29.742188 43.363281 29.738281 43.488281 29.726562 C 43.613281 29.710938 43.71875 29.695312 43.804688 29.671875 C 43.882812 29.65625 43.9375 29.589844 43.9375 29.507812 C 43.933594 29.464844 43.921875 29.429688 43.898438 29.402344 "/>
<path style=" stroke:none;fill-rule:nonzero;fill:rgb(48.627451%,49.411765%,41.176471%);fill-opacity:1;" d="M 53.019531 26.738281 C 53.019531 26.914062 52.96875 27.089844 52.855469 27.261719 C 52.742188 27.4375 52.585938 27.589844 52.375 27.71875 C 52.167969 27.851562 51.917969 27.960938 51.632812 28.046875 C 51.347656 28.136719 51.039062 28.179688 50.707031 28.179688 C 50.203125 28.179688 49.78125 28.082031 49.445312 27.886719 C 49.101562 27.683594 48.828125 27.410156 48.617188 27.054688 C 48.410156 26.695312 48.261719 26.277344 48.179688 25.796875 C 48.097656 25.316406 48.050781 24.789062 48.050781 24.21875 C 48.050781 22.992188 48.28125 22.070312 48.742188 21.4375 C 49.203125 20.8125 49.828125 20.496094 50.621094 20.496094 C 50.957031 20.496094 51.253906 20.539062 51.519531 20.617188 C 51.78125 20.699219 52.015625 20.796875 52.21875 20.914062 C 52.421875 21.03125 52.585938 21.152344 52.722656 21.285156 C 52.839844 21.40625 52.945312 21.507812 53.019531 21.59375 Z M 55.652344 29.402344 C 55.488281 29.179688 55.375 28.847656 55.308594 28.417969 C 55.242188 27.949219 55.207031 27.296875 55.207031 26.46875 L 55.207031 15.378906 C 55.207031 14.988281 55.164062 14.675781 55.074219 14.4375 C 54.988281 14.195312 54.867188 14.007812 54.714844 13.867188 C 54.5625 13.726562 54.390625 13.636719 54.199219 13.585938 C 54.003906 13.542969 53.816406 13.515625 53.632812 13.515625 C 53.535156 13.515625 53.421875 13.519531 53.300781 13.523438 C 53.175781 13.53125 53.085938 13.539062 53.019531 13.546875 L 53.019531 19.769531 C 52.789062 19.546875 52.429688 19.316406 51.949219 19.085938 C 51.46875 18.851562 50.855469 18.738281 50.105469 18.738281 C 49.539062 18.738281 48.992188 18.847656 48.464844 19.074219 C 47.933594 19.300781 47.472656 19.640625 47.074219 20.101562 C 46.675781 20.554688 46.359375 21.148438 46.121094 21.867188 C 45.878906 22.589844 45.761719 23.445312 45.761719 24.4375 C 45.761719 25.484375 45.882812 26.359375 46.128906 27.0625 C 46.371094 27.769531 46.699219 28.332031 47.109375 28.757812 C 47.519531 29.179688 47.992188 29.484375 48.519531 29.664062 C 49.050781 29.84375 49.59375 29.9375 50.15625 29.9375 C 50.941406 29.9375 51.585938 29.777344 52.09375 29.464844 C 52.59375 29.152344 52.957031 28.84375 53.164062 28.550781 C 53.21875 28.996094 53.40625 29.304688 53.726562 29.480469 C 54.046875 29.65625 54.417969 29.742188 54.847656 29.742188 C 54.980469 29.742188 55.113281 29.734375 55.234375 29.722656 C 55.359375 29.707031 55.464844 29.691406 55.550781 29.667969 C 55.628906 29.652344 55.6875 29.589844 55.6875 29.503906 C 55.6875 29.464844 55.675781 29.429688 55.652344 29.402344 "/>
<path style=" stroke:none;fill-rule:nonzero;fill:rgb(48.627451%,49.411765%,41.176471%);fill-opacity:1;" d="M 64.144531 26.542969 C 64.144531 26.71875 64.070312 26.90625 63.917969 27.097656 C 63.769531 27.289062 63.570312 27.460938 63.316406 27.625 C 63.0625 27.785156 62.773438 27.921875 62.441406 28.03125 C 62.109375 28.144531 61.765625 28.199219 61.394531 28.199219 C 60.707031 28.199219 60.234375 28.027344 59.980469 27.6875 C 59.726562 27.351562 59.601562 26.960938 59.601562 26.519531 C 59.601562 26.046875 59.722656 25.667969 59.960938 25.382812 C 60.199219 25.097656 60.511719 24.871094 60.886719 24.710938 C 61.269531 24.550781 61.691406 24.4375 62.15625 24.382812 C 62.617188 24.320312 63.078125 24.289062 63.527344 24.289062 L 64.144531 24.289062 Z M 66.703125 29.402344 C 66.539062 29.179688 66.421875 28.847656 66.359375 28.417969 C 66.289062 27.949219 66.253906 27.296875 66.253906 26.46875 L 66.253906 22.707031 C 66.253906 22.042969 66.191406 21.457031 66.058594 20.949219 C 65.929688 20.445312 65.703125 20.023438 65.382812 19.683594 C 65.058594 19.347656 64.636719 19.09375 64.117188 18.925781 C 63.59375 18.757812 62.945312 18.671875 62.160156 18.671875 C 61.699219 18.671875 61.230469 18.710938 60.757812 18.785156 C 60.277344 18.867188 59.84375 18.976562 59.453125 19.117188 C 59.058594 19.253906 58.738281 19.421875 58.492188 19.597656 C 58.246094 19.773438 58.125 19.96875 58.125 20.167969 C 58.125 20.304688 58.171875 20.511719 58.269531 20.785156 C 58.367188 21.0625 58.492188 21.3125 58.652344 21.542969 C 59.113281 21.210938 59.59375 20.960938 60.085938 20.769531 C 60.582031 20.582031 61.1875 20.472656 61.902344 20.472656 C 62.765625 20.472656 63.351562 20.640625 63.65625 20.972656 C 63.960938 21.308594 64.113281 21.796875 64.113281 22.4375 L 64.113281 22.796875 C 63.980469 22.78125 63.824219 22.773438 63.644531 22.773438 C 63.464844 22.773438 63.308594 22.773438 63.175781 22.773438 C 62.625 22.789062 62.019531 22.847656 61.359375 22.957031 C 60.699219 23.058594 60.078125 23.257812 59.5 23.542969 C 58.921875 23.832031 58.433594 24.222656 58.042969 24.722656 C 57.648438 25.222656 57.453125 25.863281 57.453125 26.648438 C 57.453125 27.296875 57.558594 27.828125 57.773438 28.25 C 57.988281 28.667969 58.261719 28.996094 58.589844 29.246094 C 58.925781 29.492188 59.292969 29.664062 59.699219 29.757812 C 60.105469 29.84375 60.511719 29.894531 60.910156 29.894531 C 61.734375 29.894531 62.40625 29.761719 62.914062 29.5 C 63.421875 29.238281 63.855469 28.925781 64.21875 28.550781 C 64.273438 28.996094 64.460938 29.308594 64.777344 29.484375 C 65.097656 29.65625 65.472656 29.742188 65.902344 29.742188 C 66.035156 29.742188 66.164062 29.738281 66.289062 29.726562 C 66.414062 29.710938 66.519531 29.695312 66.605469 29.671875 C 66.683594 29.65625 66.738281 29.589844 66.738281 29.507812 C 66.738281 29.464844 66.722656 29.429688 66.703125 29.402344 "/>
<path style=" stroke:none;fill-rule:nonzero;fill:rgb(100%,100%,100%);fill-opacity:1;" d="M 89.515625 16.964844 C 90.3125 16.964844 90.992188 16.304688 91.027344 15.5 C 91.0625 14.691406 90.441406 14.03125 89.648438 14.03125 C 88.851562 14.03125 88.171875 14.691406 88.136719 15.5 C 88.101562 16.304688 88.722656 16.964844 89.515625 16.964844 "/>
<path style=" stroke:none;fill-rule:nonzero;fill:rgb(100%,100%,100%);fill-opacity:1;" d="M 102.8125 23.980469 C 102.8125 21.789062 104.140625 19.605469 106.300781 19.605469 C 107.222656 19.605469 107.777344 20.121094 107.777344 21.007812 C 107.777344 22.414062 106.175781 24.191406 102.898438 24.832031 C 102.847656 24.585938 102.8125 24.324219 102.8125 23.980469 Z M 93.898438 36.707031 C 93.109375 36.707031 92.816406 35.832031 92.816406 34.453125 C 92.816406 32.078125 93.429688 28.339844 93.878906 26.214844 L 94.160156 25.925781 C 95.078125 27.632812 95.675781 30.105469 95.675781 32.449219 C 95.675781 34.261719 95.265625 36.707031 93.898438 36.707031 Z M 99.421875 11.332031 C 99.867188 11.332031 100.042969 11.753906 100.042969 12.367188 C 100.042969 14.660156 97.578125 19.066406 94.542969 22.964844 C 96.332031 14.335938 98.402344 11.332031 99.421875 11.332031 Z M 83.691406 11.332031 C 84.082031 11.332031 84.292969 11.617188 84.292969 12.433594 C 84.292969 14.199219 82.878906 18.636719 79.421875 22.066406 C 80.632812 14.691406 82.585938 11.332031 83.691406 11.332031 Z M 106.714844 27.574219 C 105.222656 27.574219 104.15625 27.105469 103.613281 26.449219 C 107.101562 25.71875 109.867188 23.617188 109.867188 20.96875 C 109.867188 18.855469 108.289062 17.890625 106.265625 17.890625 C 103.167969 17.890625 100.652344 20.429688 100.652344 23.992188 C 100.652344 24.382812 100.6875 24.839844 100.730469 25.089844 C 100.625 25.09375 100.375 25.09375 100.269531 25.09375 C 98.449219 25.09375 97.027344 24.746094 95.734375 24.289062 C 99.882812 19.246094 102.039062 15.59375 102.039062 12.417969 C 102.039062 10.683594 101.164062 9.613281 99.449219 9.613281 C 96.570312 9.613281 94.375 13.59375 92.476562 22.761719 C 92.339844 23.410156 91.878906 25.761719 91.878906 25.761719 C 91.214844 26.558594 90.296875 27.375 89.171875 27.394531 C 88.363281 27.410156 87.816406 26.949219 87.816406 25.839844 C 87.816406 24.183594 88.707031 21.679688 89.269531 19.789062 C 89.53125 18.90625 87.707031 18.390625 87.359375 19.277344 C 87.109375 19.917969 86.882812 20.582031 86.644531 21.152344 C 84.898438 25.382812 82.878906 27.484375 80.847656 27.484375 C 79.71875 27.484375 79.101562 26.582031 79.148438 24.628906 C 83.027344 21.496094 86.28125 16.527344 86.242188 12.460938 C 86.226562 10.917969 85.539062 9.613281 83.6875 9.613281 C 81.027344 9.613281 79.140625 13.347656 78.027344 18.253906 C 77.664062 19.855469 77.28125 21.871094 77.144531 23.878906 C 75.625 24.996094 73.808594 26.007812 71.847656 26.753906 L 71.847656 28.65625 C 73.898438 27.914062 75.695312 26.921875 77.167969 25.972656 C 77.382812 27.972656 78.484375 29.3125 80.535156 29.3125 C 82.417969 29.3125 84.222656 28.320312 85.722656 26.265625 C 85.800781 27.984375 86.875 29.230469 88.804688 29.222656 C 89.871094 29.21875 90.761719 28.832031 91.394531 28.292969 C 90.992188 30.632812 90.714844 32.359375 90.746094 34.441406 C 90.78125 37.300781 91.847656 38.6875 93.714844 38.6875 C 96.339844 38.6875 97.714844 36.136719 97.722656 32.257812 C 97.726562 30.21875 97.21875 27.976562 96.421875 26.265625 C 97.421875 26.601562 98.8125 26.8125 100.34375 26.8125 C 100.652344 26.8125 100.988281 26.808594 101.277344 26.789062 C 102.152344 28.25 103.796875 29.398438 106.714844 29.398438 C 109.464844 29.398438 112.085938 28.453125 114.347656 26.625 L 114.347656 24.273438 C 112.640625 25.902344 110.0625 27.574219 106.714844 27.574219 "/>
<path style=" stroke:none;fill-rule:nonzero;fill:rgb(48.627451%,49.411765%,41.176471%);fill-opacity:1;" d="M 123.753906 0.148438 L 122.425781 3.773438 L 121.097656 0.148438 L 120.300781 0.148438 L 120.300781 4.464844 L 120.828125 4.464844 L 120.828125 0.867188 L 120.859375 0.867188 L 122.15625 4.464844 L 122.691406 4.464844 L 123.988281 0.867188 L 124.015625 0.867188 L 124.015625 4.464844 L 124.546875 4.464844 L 124.546875 0.148438 L 123.753906 0.148438 "/>
<path style=" stroke:none;fill-rule:nonzero;fill:rgb(48.627451%,49.411765%,41.176471%);fill-opacity:1;" d="M 116.402344 0.625 L 117.847656 0.625 L 117.847656 4.464844 L 118.382812 4.464844 L 118.382812 0.625 L 119.828125 0.625 L 119.828125 0.148438 L 116.402344 0.148438 L 116.402344 0.625 "/>
</g>
</svg>
