<?xml version="1.0" encoding="utf-8"?>
<!-- Generator: Adobe Illustrator 28.3.0, SVG Export Plug-In . SVG Version: 6.00 Build 0)  -->
<svg version="1.1"
	 id="svg2" xmlns:svg="http://www.w3.org/2000/svg" xmlns:dc="http://purl.org/dc/elements/1.1/" xmlns:cc="http://creativecommons.org/ns#" xmlns:rdf="http://www.w3.org/1999/02/22-rdf-syntax-ns#"
	 xmlns="http://www.w3.org/2000/svg" xmlns:xlink="http://www.w3.org/1999/xlink" x="0px" y="0px" viewBox="0 0 834.1 287"
	 style="enable-background:new 0 0 834.1 287;" xml:space="preserve">
<style type="text/css">
	.st0{fill:#C1193C;}
	.st1{fill:#7C7E69;}
	.st2{fill:#FFFFFF;}
</style>
<g id="g10" transform="matrix(1.3333333,0,0,-1.3333333,0,576)">
	<g id="g12" transform="scale(0.1)">
		<path id="path14" class="st0" d="M5328.2,3338.5c-109.7,0-177.1-109.3-177.1-218.9c0-17.2,2-30.1,4.2-42.5
			c166.6,32,247.9,120.8,247.9,191.3C5403.2,3312.7,5375.2,3338.5,5328.2,3338.5"/>
		<path id="path16" class="st0" d="M4481.9,3617.6c40.5,0,71.9-32.9,70.1-73.4c-1.8-40.5-36.2-73.4-76.7-73.4
			c-40.5,0-71.9,32.9-70.1,73.4C4407.1,3584.6,4441.5,3617.6,4481.9,3617.6z M3846.6,3124.3c7.1,100.6,26.5,201.6,45,281.6
			c56.6,245.6,152.4,432.7,287.6,432.7c94,0,129-65.3,129.8-142.6c2-203.6-163.4-452.5-360.3-609c-2.6-97.8,28.8-143,86.2-143
			c103.1,0,206,105.1,294.5,316.7c12.1,28.9,23.6,62.1,36.3,94c17.7,44.6,110.4,18.8,97.1-25.6c-28.4-94.7-73.9-220.1-73.9-302.9
			c0-55.4,27.9-78.5,69-77.9c57.1,0.8,103.9,41.8,137.4,81.8c0,0,23.5,117.8,30.4,150.3c96.6,458.8,208.1,658.2,354.4,658.2
			c87.4,0,131.7-53.7,131.7-140.4c0-159.1-109.6-341.9-320.4-594.4c65.7-23,138.1-40.2,230.4-40.2c5.4,0,18.1,0.1,23.4,0.1
			c-2,12.6-3.9,35.6-3.9,54.8c0,178.4,127.7,305.6,285.2,305.6c103,0,183.1-48.2,183.1-154.1c0-132.6-140.6-237.7-317.8-274.3
			c27.6-32.8,81.8-56.3,157.6-56.3c170.1,0,301.2,83.5,388.1,164.8V4320h-2160V2980.7C3677.2,3017.8,3769.5,3068.5,3846.6,3124.3"/>
		<path id="path18" class="st0" d="M4978.8,3752.8c-51.9,0-156.9-150.4-248.1-582.4c154.4,195.2,279.6,416.1,279.6,530.9
			C5010.3,3731.5,5001.5,3752.8,4978.8,3752.8"/>
		<path id="path20" class="st0" d="M5349.5,2848.1c-148.2,0-231.7,57.5-276.4,130.4c-14.5-0.7-31.7-1.1-47.3-1.1
			c-78,0-148.6,10.7-199.2,27.4c40.2-85.7,66.3-197.8,66-299.9c-0.5-194.2-70.4-321.8-203.7-321.8c-95,0-149.1,69.3-151,212.4
			c-1.4,104.3,12.5,190.8,33.1,307.9c-32.3-26.9-77.5-46.4-131.8-46.6c-98-0.4-152.6,62-156.5,147.9
			c-76.3-102.8-168-152.3-263.7-152.3c-104.4,0-160,67.1-171,167.1c-74.8-47.5-166.1-97.1-270.4-134.3V2160h2160v827
			C5622.4,2895.5,5489.2,2848.1,5349.5,2848.1"/>
		<path id="path22" class="st0" d="M4179.5,3752.7c-56.2,0-155.4-168-217.1-537.1c175.9,171.7,247.6,393.8,247.6,482.1
			C4210,3738.5,4199.1,3752.7,4179.5,3752.7"/>
		<path id="path24" class="st0" d="M4697.2,3007.7c-22.9-106.3-54.3-293.5-54.3-412.4c0-69.1,15-112.9,55.1-112.9
			c69.6,0,90.3,122.5,90.3,213.1c0,117.5-30.4,241.2-77.2,326.7L4697.2,3007.7"/>
		<path id="path26" class="st1" d="M114.2,3104c0-26.9,2.9-52.2,8.7-75.9c5.8-23.7,15-44.2,27.6-61.7c12.6-17.5,29-31.3,49.2-41.5
			c20.2-10.2,44.3-15.3,72.5-15.3c20.3,0,38.6,3,54.7,9.1c16.2,6.1,29.9,13,41.2,20.9c13.5,8.6,25.6,18.6,36.1,30
			c6.1-6.8,13.8-17.2,23.3-31.2c9.5-14,14.2-26.9,14.2-38.8c-0.2-3.8-1.2-7.7-3.1-11.7c-3.5-7.4-10.3-15.4-20.4-23.9
			c-14.4-12.5-35.1-23.2-62.2-32.2c-27.1-9-59.9-13.5-98.6-13.5c-25,0-52.4,3.5-82.2,10.5c-29.8,7-57.7,20.8-83.5,41.5
			c-25.9,20.6-47.6,49.4-65.2,86.3C8.8,2993.7,0,3042.4,0,3103c0,56.1,9.2,102.4,27.7,138.9c18.4,36.4,41.1,65.1,68,85.9
			c26.9,20.9,55.5,35.5,85.8,43.8c30.3,8.3,57,12.5,80.1,12.5c28.2,0,53.7-3,76.5-8.9s42.2-13.7,58.2-23
			c15.2-8.8,26.7-17.9,34.4-27.4c7.7-9.5,11.5-19,11.5-28.7c0-18.5-13.9-45.5-31.3-68.6c-12.4,14.2-30.7,28.5-54.8,42.7
			c-24.1,14.2-50.9,21.4-80.5,21.4c-28.6,0-53.1-4.7-73.4-14.2c-20.3-9.5-37.1-22.7-50.3-39.8c-13.2-17.1-22.8-37.1-28.8-60
			C117.2,3154.7,114.2,3130.1,114.2,3104"/>
		<path id="path28" class="st1" d="M864.4,2991.2c0-8.8-3.8-18.1-11.3-27.6c-7.5-9.6-17.7-18.4-30.6-26.5
			c-12.9-8.1-27.7-14.9-44.5-20.4c-16.8-5.5-34.5-8.3-53.1-8.3c-35.1,0-59,8.5-71.9,25.4c-12.9,16.9-19.3,36.5-19.3,58.6
			c0,23.6,6.1,42.6,18.2,56.9c12.2,14.4,27.9,25.6,47.2,33.7c19.3,8.1,40.8,13.6,64.4,16.6c23.6,2.9,46.8,4.4,69.8,4.4h31.1V2991.2z
			 M994.6,2848.1c-8.4,11.3-14.2,27.7-17.4,49.4c-3.5,23.4-5.2,56-5.2,97.6v188.4c0,33.1-3.3,62.3-9.9,87.7
			c-6.6,25.4-18.1,46.5-34.5,63.4c-16.4,16.9-37.8,29.6-64.3,38.1c-26.5,8.4-59.7,12.7-99.4,12.7c-23.4,0-47.3-2-71.5-5.9
			c-24.2-3.9-46.3-9.4-66.2-16.4c-19.9-7-36.1-15.1-48.6-24.1c-12.5-9-18.7-18.6-18.7-28.7c0-6.7,2.4-17,7.3-30.8
			c4.9-13.8,11.4-26.4,19.4-37.8c23.5,16.6,47.8,29,72.9,38.6c25.1,9.5,55.9,14.9,92.3,14.9c43.9,0,73.6-8.4,89.1-25.1
			c15.5-16.8,23.2-41.2,23.2-73.2v-18c-6.8,0.7-14.7,1.1-23.8,1.1s-17,0-23.8,0c-27.9-0.8-58.7-3.8-92.3-9.1
			c-33.6-5.3-65.1-15.1-94.5-29.5c-29.4-14.4-54.2-34-74.2-59c-20-24.9-30-57.1-30-96.4l0,0c0-32.5,5.4-59.2,16.4-80.1
			c10.9-20.9,24.8-37.5,41.6-49.9c16.8-12.4,35.5-20.9,56.2-25.5c20.7-4.6,41.2-7,61.5-7c42.1,0,76,6.6,101.8,19.6
			c25.8,13.1,48,28.9,66.4,47.6c2.8-22.3,12.3-37.8,28.5-46.6c16.2-8.7,35.2-13.1,57-13.1c6.8,0,13.4,0.3,19.7,1
			c6.3,0.7,11.7,1.5,16.1,2.6c3.9,0.9,6.7,4.2,6.7,8.3C996.2,2845,995.6,2846.7,994.6,2848.1"/>
		<path id="path30" class="st1" d="M1577.2,2835h-111.5v306.6c0,21.1-0.7,40.8-2.2,59c-1.5,18.2-5.5,33.8-11.9,46.8
			c-6.5,13-16.9,23-31.3,30.2c-14.4,7.2-34.5,10.8-60.4,10.8c-36.4,0-67.6-7.3-93.6-24.2c-26-16.9-39-38.9-39-63.9V2835h-111.8
			v539.2c1.6,0.2,3.6,0.4,5.9,0.6c1.9,0.2,4.2,0.4,6.8,0.4c2.6,0.1,5.7,0.1,9.3,0.1c19.8,0,37.6-4.6,53.5-13.7
			c15.9-9.1,25.6-24.8,29-47c17.4,18.4,41.1,34.7,71,49.1c29.9,14.4,65.3,21.6,106.2,21.6c51.6,0,91.1-11.5,118.4-34.6
			c27.3-23,45.2-51.9,53.5-86.4c3.8-15.4,6.1-32.5,6.8-51.3c0.8-18.8,1.1-37.1,1.1-54.7V2835"/>
		<path id="path32" class="st1" d="M2027,2991.2c0-8.8-3.8-18.1-11.3-27.6c-7.5-9.6-17.7-18.4-30.6-26.5
			c-12.9-8.1-27.7-14.9-44.5-20.4c-16.8-5.5-34.5-8.3-53.1-8.3c-35.1,0-59,8.5-71.9,25.4c-12.9,16.9-19.3,36.5-19.3,58.6
			c0,23.6,6.1,42.6,18.2,56.9c12.1,14.4,27.9,25.6,47.2,33.7c19.3,8.1,40.8,13.6,64.4,16.6c23.6,2.9,46.8,4.4,69.8,4.4h31.1
			L2027,2991.2z M2157.2,2848.1c-8.4,11.3-14.2,27.7-17.4,49.4c-3.5,23.4-5.2,56-5.2,97.6v188.4c0,33.1-3.3,62.3-9.9,87.7
			c-6.6,25.4-18.1,46.5-34.5,63.4c-16.4,16.9-37.8,29.6-64.3,38.1c-26.5,8.4-59.6,12.7-99.4,12.7c-23.4,0-47.3-2-71.5-5.9
			c-24.2-3.9-46.3-9.4-66.2-16.4c-19.9-7-36.1-15.1-48.6-24.1c-12.5-9-18.7-18.6-18.7-28.7c0-6.7,2.4-17,7.3-30.8
			c4.9-13.8,11.4-26.4,19.4-37.8c23.5,16.6,47.8,29,72.9,38.6c25.1,9.5,55.9,14.9,92.3,14.9c43.9,0,73.6-8.4,89.1-25.1
			c15.5-16.8,23.2-41.2,23.2-73.2v-18c-6.8,0.7-14.7,1.1-23.8,1.1c-9.1,0-17,0-23.8,0c-27.9-0.8-58.7-3.8-92.3-9.1
			c-33.6-5.3-65.1-15.1-94.5-29.5c-29.4-14.4-54.2-34-74.1-59c-20-24.9-30-57.1-30-96.4l0,0c0-32.5,5.4-59.2,16.4-80.1
			c10.9-20.9,24.8-37.5,41.6-49.9c16.8-12.4,35.5-20.9,56.2-25.5c20.7-4.6,41.1-7,61.5-7c42.1,0,76,6.6,101.8,19.6
			c25.8,13.1,47.9,28.9,66.4,47.6c2.8-22.3,12.3-37.8,28.5-46.6c16.2-8.7,35.2-13.1,57-13.1c6.8,0,13.4,0.3,19.7,1
			c6.3,0.7,11.7,1.5,16.1,2.6c3.9,0.9,6.7,4.2,6.7,8.3C2158.9,2845,2158.3,2846.7,2157.2,2848.1"/>
		<path id="path34" class="st1" d="M2620.9,2981.6c0-8.8-2.8-17.5-8.5-26.3s-13.8-16.4-24.4-23c-10.6-6.6-23.2-12.1-37.7-16.4
			c-14.5-4.4-30.2-6.6-47.2-6.6c-25.5,0-46.9,4.9-64.2,14.8c-17.3,9.9-31.3,23.7-41.9,41.6c-10.6,17.9-18,38.9-22.3,63
			c-4.2,24.1-6.4,50.4-6.4,78.9c0,61.4,11.7,107.7,35,139.2c23.4,31.4,55.2,47.1,95.5,47.1c17,0,32.2-2,45.6-6
			c13.4-4,25.3-8.9,35.6-14.8c10.2-5.9,18.7-12.1,25.5-18.6c6.2-6.1,11.3-11.1,15.4-15.4V2981.6z M2754.5,2848.1
			c-8.4,11.3-14.2,27.7-17.4,49.4c-3.5,23.4-5.2,56-5.2,97.6v555.2c0,19.4-2.2,35.1-6.7,47.1c-4.5,12-10.6,21.5-18.3,28.5
			c-7.7,7-16.5,11.6-26.3,14c-9.8,2.3-19.5,3.5-28.9,3.5c-4.9,0-10.5-0.1-16.8-0.4c-6.3-0.2-10.9-0.6-14.1-1.1v-311.5
			c-11.9,11.2-30,22.7-54.5,34.3c-24.5,11.6-55.7,17.4-93.8,17.4c-28.7,0-56.5-5.6-83.3-16.9c-26.9-11.3-50.4-28.4-70.6-51.3
			c-20.2-23-36.4-52.5-48.6-88.6c-12.1-36.1-18.2-79-18.2-128.6c0-52.3,6.2-96.2,18.6-131.4c12.4-35.3,29.1-63.5,50-84.8
			c20.9-21.2,44.8-36.4,71.6-45.5c26.8-9.1,54.5-13.6,83.2-13.6c39.9,0,72.6,7.9,98.3,23.6c25.7,15.7,43.9,31,54.6,45.8
			c2.8-22.3,12.3-37.8,28.5-46.6c16.2-8.7,35.2-13.1,57-13.1c6.8,0,13.4,0.3,19.7,1c6.3,0.7,11.7,1.5,16.1,2.6
			c3.9,0.9,6.7,4.2,6.7,8.3C2756.2,2845,2755.6,2846.7,2754.5,2848.1"/>
		<path id="path36" class="st1" d="M3185.9,2991.2c0-8.8-3.8-18.1-11.3-27.6c-7.5-9.6-17.7-18.4-30.6-26.5
			c-12.9-8.1-27.7-14.9-44.5-20.4c-16.8-5.5-34.5-8.3-53.1-8.3c-35.1,0-59,8.5-71.9,25.4c-12.9,16.9-19.3,36.5-19.3,58.6
			c0,23.6,6.1,42.6,18.2,56.9c12.1,14.4,27.9,25.6,47.2,33.7c19.3,8.1,40.8,13.6,64.4,16.6c23.6,2.9,46.9,4.4,69.8,4.4h31.1
			L3185.9,2991.2z M3316,2848.1c-8.4,11.3-14.2,27.7-17.5,49.4c-3.5,23.4-5.2,56-5.2,97.6v188.4c0,33.1-3.3,62.3-9.9,87.7
			c-6.6,25.4-18.1,46.5-34.5,63.4c-16.4,16.9-37.8,29.6-64.3,38.1c-26.5,8.4-59.6,12.7-99.4,12.7c-23.4,0-47.3-2-71.5-5.9
			c-24.2-3.9-46.3-9.4-66.2-16.4c-19.9-7-36.1-15.1-48.6-24.1c-12.5-9-18.8-18.6-18.8-28.7c0-6.7,2.4-17,7.4-30.8
			c4.9-13.8,11.4-26.4,19.4-37.8c23.5,16.6,47.8,29,72.9,38.6c25.1,9.5,55.9,14.9,92.3,14.9c43.9,0,73.6-8.4,89.1-25.1
			c15.5-16.8,23.2-41.2,23.2-73.2v-18c-6.8,0.7-14.7,1.1-23.8,1.1c-9,0-17,0-23.8,0c-27.9-0.8-58.7-3.8-92.3-9.1
			c-33.6-5.3-65.1-15.1-94.5-29.5c-29.4-14.4-54.2-34-74.1-59c-20-24.9-30-57.1-30-96.4l0,0c0-32.5,5.4-59.2,16.4-80.1
			c10.9-20.9,24.8-37.5,41.6-49.9c16.8-12.4,35.5-20.9,56.2-25.5c20.7-4.6,41.2-7,61.5-7c42.1,0,76,6.6,101.8,19.6
			c25.8,13.1,48,28.9,66.4,47.6c2.8-22.3,12.3-37.8,28.5-46.6c16.2-8.7,35.2-13.1,57-13.1c6.8,0,13.4,0.3,19.7,1
			c6.3,0.7,11.7,1.5,16.1,2.6c3.9,0.9,6.7,4.2,6.7,8.3C3317.7,2845,3317.1,2846.7,3316,2848.1"/>
		<path id="path38" class="st2" d="M4475.4,3470.8c40.5,0,74.9,32.9,76.7,73.4c1.8,40.5-29.6,73.4-70.1,73.4s-74.9-32.9-76.7-73.4
			C4403.5,3503.7,4434.9,3470.8,4475.4,3470.8"/>
		<path id="path40" class="st2" d="M5151.1,3119.5c0,109.6,67.4,218.9,177.1,218.9c47,0,75.1-25.7,75.1-70.1
			c0-70.4-81.3-159.2-247.9-191.3C5153,3089.4,5151.1,3102.3,5151.1,3119.5z M4698.1,2482.4c-40.1,0-55.1,43.9-55.1,112.9
			c0,118.8,31.4,306,54.3,412.4l14,14.5c46.8-85.4,77.2-209.2,77.2-326.7C4788.4,2604.9,4767.6,2482.4,4698.1,2482.4z
			 M4978.8,3752.8c22.7,0,31.5-21.2,31.5-51.6c0-114.8-125.2-335.6-279.6-530.9C4821.9,3602.4,4926.9,3752.8,4978.8,3752.8
			L4978.8,3752.8z M4179.5,3752.7c19.7,0,30.5-14.1,30.5-55.1c0-88.3-71.7-310.4-247.6-482.1
			C4024.1,3584.7,4123.2,3752.7,4179.5,3752.7L4179.5,3752.7z M5349.4,2939.7c-75.8,0-130,23.5-157.6,56.3
			c177.3,36.6,317.8,141.7,317.8,274.3c0,105.9-80.1,154.1-183.1,154.1c-157.5,0-285.2-127.2-285.2-305.6c0-19.2,1.9-42.2,3.9-54.8
			c-5.3-0.1-18-0.1-23.4-0.1c-92.3,0-164.7,17.2-230.4,40.2c210.8,252.5,320.4,435.3,320.4,594.4c0,86.8-44.4,140.4-131.7,140.4
			c-146.2,0-257.8-199.4-354.4-658.2c-6.9-32.6-30.4-150.3-30.4-150.3c-33.4-39.9-80.2-80.9-137.4-81.8c-41.1-0.6-69,22.4-69,77.9
			c0,82.8,45.5,208.2,73.9,302.9c13.3,44.3-79.4,70.1-97.1,25.6c-12.7-32-24.2-65.2-36.3-94c-88.6-211.6-191.4-316.7-294.5-316.7
			c-57.4,0-88.8,45.1-86.2,143c196.9,156.5,362.3,405.4,360.3,609c-0.8,77.2-35.7,142.6-129.8,142.6c-135.2,0-231-187.1-287.6-432.7
			c-18.5-80.1-37.9-181.1-45-281.6c-77.1-55.9-169.3-106.6-269.1-143.7v-95.4c104.3,37.2,195.6,86.9,270.4,134.3
			c11-100.1,66.7-167.1,171-167.1c95.7,0,187.5,49.5,263.7,152.3c3.9-86,58.5-148.3,156.5-147.9c54.3,0.2,99.5,19.6,131.8,46.6
			c-20.6-117.2-34.5-203.6-33.1-307.9c1.9-143,56-212.4,151-212.4c133.4,0,203.2,127.6,203.7,321.8c0.2,102.1-25.8,214.3-66,299.9
			c50.7-16.7,121.2-27.4,199.2-27.4c15.6,0,32.8,0.4,47.3,1.1c44.6-72.9,128.2-130.4,276.4-130.4c139.7,0,273,47.4,388,138.9v117.6
			C5650.6,3023.3,5519.5,2939.7,5349.4,2939.7"/>
		<path id="path42" class="st1" d="M6215.2,4312.7l-67.5-181.5l-67.5,181.5h-40.5v-216h27v180h1.5l66-180h27l66,180h1.5v-180h27v216
			H6215.2"/>
		<path id="path44" class="st1" d="M5841.7,4288.7h73.5v-192h27v192h73.5v24h-174L5841.7,4288.7"/>
	</g>
</g>
</svg>
