<?xml version="1.0" encoding="utf-8"?>
<!-- Generator: Adobe Illustrator 28.3.0, SVG Export Plug-In . SVG Version: 6.00 Build 0)  -->
<svg version="1.1"
	 id="svg2" xmlns:svg="http://www.w3.org/2000/svg" xmlns:rdf="http://www.w3.org/1999/02/22-rdf-syntax-ns#" xmlns:cc="http://creativecommons.org/ns#" xmlns:dc="http://purl.org/dc/elements/1.1/"
	 xmlns="http://www.w3.org/2000/svg" xmlns:xlink="http://www.w3.org/1999/xlink" x="0px" y="0px" viewBox="0 0 128 64"
	 style="enable-background:new 0 0 128 64;" xml:space="preserve">
<style type="text/css">
	.st0{fill:#C1193C;}
	.st1{fill:#7C7E69;}
	.st2{fill:#FFFFFF;}
</style>
<g id="g10" transform="matrix(1.3333333,0,0,-1.3333333,0,576)">
	<g id="g12" transform="scale(0.1)">
		<path id="path14" class="st0" d="M814.7,4095c-16.7,0-26.9-16.6-26.9-33.3c0-2.6,0.3-4.6,0.6-6.5c25.3,4.9,37.7,18.4,37.7,29.1
			C826.1,4091.1,821.8,4095,814.7,4095"/>
		<path id="path16" class="st0" d="M685.9,4137.4c6.2,0,10.9-5,10.7-11.2c-0.3-6.2-5.5-11.2-11.7-11.2s-10.9,5-10.7,11.2
			C674.6,4132.4,679.8,4137.4,685.9,4137.4z M589.3,4062.4c1.1,15.3,4,30.7,6.8,42.8c8.6,37.4,23.2,65.8,43.7,65.8
			c14.3,0,19.6-9.9,19.7-21.7c0.3-31-24.9-68.8-54.8-92.6c-0.4-14.9,4.4-21.7,13.1-21.7c15.7,0,31.3,16,44.8,48.2
			c1.8,4.4,3.6,9.4,5.5,14.3c2.7,6.8,16.8,2.9,14.8-3.9c-4.3-14.4-11.2-33.5-11.2-46.1c0-8.4,4.2-11.9,10.5-11.8
			c8.7,0.1,15.8,6.4,20.9,12.4c0,0,3.6,17.9,4.6,22.9c14.7,69.8,31.6,100.1,53.9,100.1c13.3,0,20-8.2,20-21.4
			c0-24.2-16.7-52-48.7-90.4c10-3.5,21-6.1,35-6.1c0.8,0,2.8,0,3.6,0c-0.3,1.9-0.6,5.4-0.6,8.3c0,27.1,19.4,46.5,43.4,46.5
			c15.7,0,27.8-7.3,27.8-23.4c0-20.2-21.4-36.2-48.3-41.7c4.2-5,12.4-8.6,24-8.6c25.9,0,45.8,12.7,59,25.1v184.9H548.4v-203.7
			C563.6,4046.2,577.6,4053.9,589.3,4062.4"/>
		<path id="path18" class="st0" d="M761.5,4158c-7.9,0-23.9-22.9-37.7-88.6c23.5,29.7,42.5,63.3,42.5,80.7
			C766.3,4154.8,765,4158,761.5,4158"/>
		<path id="path20" class="st0" d="M817.9,4020.4c-22.5,0-35.2,8.7-42,19.8c-2.2-0.1-4.8-0.2-7.2-0.2c-11.9,0-22.6,1.6-30.3,4.2
			c6.1-13,10.1-30.1,10-45.6c-0.1-29.5-10.7-48.9-31-48.9c-14.4,0-22.7,10.5-23,32.3c-0.2,15.9,1.9,29,5,46.8
			c-4.9-4.1-11.8-7.1-20-7.1c-14.9-0.1-23.2,9.4-23.8,22.5c-11.6-15.6-25.6-23.2-40.1-23.2c-15.9,0-24.3,10.2-26,25.4
			c-11.4-7.2-25.3-14.8-41.1-20.4v-110.3h328.5v125.8C859.4,4027.6,839.1,4020.4,817.9,4020.4"/>
		<path id="path22" class="st0" d="M639.9,4158c-8.5,0-23.6-25.6-33-81.7c26.8,26.1,37.7,59.9,37.7,73.3
			C644.6,4155.8,642.9,4158,639.9,4158"/>
		<path id="path24" class="st0" d="M718.7,4044.7c-3.5-16.2-8.3-44.6-8.3-62.7c0-10.5,2.3-17.2,8.4-17.2c10.6,0,13.7,18.6,13.7,32.4
			c0,17.9-4.6,36.7-11.7,49.7L718.7,4044.7"/>
		<path id="path26" class="st1" d="M21.7,4059.3c0-4.1,0.4-7.9,1.3-11.5c0.9-3.6,2.3-6.7,4.2-9.4c1.9-2.7,4.4-4.8,7.5-6.3
			c3.1-1.6,6.7-2.3,11-2.3c3.1,0,5.9,0.5,8.3,1.4c2.5,0.9,4.5,2,6.3,3.2c2.1,1.3,3.9,2.8,5.5,4.6c0.9-1,2.1-2.6,3.5-4.7
			c1.4-2.1,2.2-4.1,2.2-5.9c0-0.6-0.2-1.2-0.5-1.8c-0.5-1.1-1.6-2.3-3.1-3.6c-2.2-1.9-5.3-3.5-9.5-4.9c-4.1-1.4-9.1-2.1-15-2.1
			c-3.8,0-8,0.5-12.5,1.6c-4.5,1.1-8.8,3.2-12.7,6.3c-3.9,3.1-7.2,7.5-9.9,13.1c-2.7,5.6-4,13-4,22.3c0,8.5,1.4,15.6,4.2,21.1
			c2.8,5.5,6.3,9.9,10.3,13.1c4.1,3.2,8.4,5.4,13,6.7c4.6,1.3,8.7,1.9,12.2,1.9c4.3,0,8.2-0.5,11.6-1.4c3.5-0.9,6.4-2.1,8.9-3.5
			c2.3-1.3,4.1-2.7,5.2-4.2s1.7-2.9,1.7-4.4c0-2.8-2.1-6.9-4.8-10.4c-1.9,2.2-4.7,4.3-8.3,6.5c-3.7,2.2-7.7,3.3-12.2,3.3
			c-4.3,0-8.1-0.7-11.2-2.2c-3.1-1.4-5.6-3.5-7.7-6.1s-3.5-5.6-4.4-9.1C22.1,4067,21.7,4063.3,21.7,4059.3"/>
		<path id="path28" class="st1" d="M135.8,4042.2c0-1.3-0.6-2.8-1.7-4.2c-1.1-1.5-2.7-2.8-4.7-4c-2-1.2-4.2-2.3-6.8-3.1
			c-2.6-0.8-5.2-1.3-8.1-1.3c-5.3,0-9,1.3-10.9,3.9c-2,2.6-2.9,5.6-2.9,8.9c0,3.6,0.9,6.5,2.8,8.7c1.9,2.2,4.2,3.9,7.2,5.1
			c2.9,1.2,6.2,2.1,9.8,2.5c3.6,0.4,7.1,0.7,10.6,0.7h4.7C135.8,4059.3,135.8,4042.2,135.8,4042.2z M155.6,4020.4
			c-1.3,1.7-2.2,4.2-2.6,7.5c-0.5,3.6-0.8,8.5-0.8,14.8v28.7c0,5-0.5,9.5-1.5,13.3c-1,3.9-2.8,7.1-5.2,9.6s-5.7,4.5-9.8,5.8
			c-4,1.3-9.1,1.9-15.1,1.9c-3.6,0-7.2-0.3-10.9-0.9c-3.7-0.6-7-1.4-10.1-2.5c-3-1.1-5.5-2.3-7.4-3.7c-1.9-1.4-2.8-2.8-2.8-4.4
			c0-1,0.4-2.6,1.1-4.7s1.7-4,3-5.7c3.6,2.5,7.3,4.4,11.1,5.9c3.8,1.4,8.5,2.3,14,2.3c6.7,0,11.2-1.3,13.6-3.8
			c2.4-2.6,3.5-6.3,3.5-11.1v-2.7c-1,0.1-2.2,0.2-3.6,0.2c-1.4,0-2.6,0-3.6,0c-4.2-0.1-8.9-0.6-14-1.4c-5.1-0.8-9.9-2.3-14.4-4.5
			c-4.5-2.2-8.2-5.2-11.3-9c-3-3.8-4.6-8.7-4.6-14.7l0,0c0-4.9,0.8-9,2.5-12.2c1.7-3.2,3.8-5.7,6.3-7.6c2.6-1.9,5.4-3.2,8.5-3.9
			c3.1-0.7,6.3-1.1,9.4-1.1c6.4,0,11.6,1,15.5,3c3.9,2,7.3,4.4,10.1,7.2c0.4-3.4,1.9-5.7,4.3-7.1c2.5-1.3,5.4-2,8.7-2c1,0,2,0,3,0.2
			c1,0.1,1.8,0.2,2.4,0.4c0.6,0.1,1,0.6,1,1.3C155.8,4019.9,155.7,4020.2,155.6,4020.4"/>
		<path id="path30" class="st1" d="M244.2,4018.4h-17v46.6c0,3.2-0.1,6.2-0.3,9c-0.2,2.8-0.8,5.1-1.8,7.1c-1,2-2.6,3.5-4.8,4.6
			c-2.2,1.1-5.2,1.6-9.2,1.6c-5.5,0-10.3-1.1-14.2-3.7s-5.9-5.9-5.9-9.7v-55.6h-17v82c0.2,0,0.5,0.1,0.9,0.1c0.3,0,0.6,0.1,1,0.1
			c0.4,0,0.9,0,1.4,0c3,0,5.7-0.7,8.1-2.1s3.9-3.8,4.4-7.1c2.6,2.8,6.3,5.3,10.8,7.5s9.9,3.3,16.2,3.3c7.8,0,13.9-1.7,18-5.3
			c4.2-3.5,6.9-7.9,8.1-13.1c0.6-2.3,0.9-4.9,1-7.8c0.1-2.9,0.2-5.6,0.2-8.3L244.2,4018.4"/>
		<path id="path32" class="st1" d="M312.6,4042.2c0-1.3-0.6-2.8-1.7-4.2c-1.1-1.5-2.7-2.8-4.7-4c-2-1.2-4.2-2.3-6.8-3.1
			c-2.6-0.8-5.2-1.3-8.1-1.3c-5.3,0-9,1.3-10.9,3.9c-2,2.6-2.9,5.6-2.9,8.9c0,3.6,0.9,6.5,2.8,8.7c1.8,2.2,4.2,3.9,7.2,5.1
			c2.9,1.2,6.2,2.1,9.8,2.5c3.6,0.4,7.1,0.7,10.6,0.7h4.7L312.6,4042.2z M332.4,4020.4c-1.3,1.7-2.2,4.2-2.6,7.5
			c-0.5,3.6-0.8,8.5-0.8,14.8v28.7c0,5-0.5,9.5-1.5,13.3c-1,3.9-2.8,7.1-5.2,9.6s-5.7,4.5-9.8,5.8c-4,1.3-9.1,1.9-15.1,1.9
			c-3.6,0-7.2-0.3-10.9-0.9c-3.7-0.6-7-1.4-10.1-2.5c-3-1.1-5.5-2.3-7.4-3.7s-2.8-2.8-2.8-4.4c0-1,0.4-2.6,1.1-4.7s1.7-4,3-5.7
			c3.6,2.5,7.3,4.4,11.1,5.9c3.8,1.4,8.5,2.3,14,2.3c6.7,0,11.2-1.3,13.6-3.8c2.4-2.6,3.5-6.3,3.5-11.1v-2.7c-1,0.1-2.2,0.2-3.6,0.2
			c-1.4,0-2.6,0-3.6,0c-4.2-0.1-8.9-0.6-14-1.4c-5.1-0.8-9.9-2.3-14.4-4.5c-4.5-2.2-8.2-5.2-11.3-9c-3-3.8-4.6-8.7-4.6-14.7l0,0
			c0-4.9,0.8-9,2.5-12.2c1.7-3.2,3.8-5.7,6.3-7.6c2.6-1.9,5.4-3.2,8.5-3.9c3.1-0.7,6.3-1.1,9.4-1.1c6.4,0,11.6,1,15.5,3
			c3.9,2,7.3,4.4,10.1,7.2c0.4-3.4,1.9-5.7,4.3-7.1c2.5-1.3,5.4-2,8.7-2c1,0,2,0,3,0.2c1,0.1,1.8,0.2,2.4,0.4c0.6,0.1,1,0.6,1,1.3
			C332.6,4019.9,332.5,4020.2,332.4,4020.4"/>
		<path id="path34" class="st1" d="M402.9,4040.7c0-1.3-0.4-2.7-1.3-4c-0.9-1.3-2.1-2.5-3.7-3.5c-1.6-1-3.5-1.8-5.7-2.5
			c-2.2-0.7-4.6-1-7.2-1c-3.9,0-7.1,0.7-9.8,2.3c-2.6,1.5-4.8,3.6-6.4,6.3c-1.6,2.7-2.7,5.9-3.4,9.6c-0.6,3.7-1,7.7-1,12
			c0,9.3,1.8,16.4,5.3,21.2c3.6,4.8,8.4,7.2,14.5,7.2c2.6,0,4.9-0.3,6.9-0.9s3.8-1.4,5.4-2.3c1.6-0.9,2.8-1.8,3.9-2.8
			c0.9-0.9,1.7-1.7,2.3-2.3L402.9,4040.7L402.9,4040.7z M423.2,4020.4c-1.3,1.7-2.2,4.2-2.6,7.5c-0.5,3.6-0.8,8.5-0.8,14.8v84.4
			c0,3-0.3,5.3-1,7.2c-0.7,1.8-1.6,3.3-2.8,4.3s-2.5,1.8-4,2.1c-1.5,0.3-3,0.5-4.4,0.5c-0.7,0-1.6,0-2.6-0.1c-1,0-1.7-0.1-2.1-0.2
			v-47.4c-1.8,1.7-4.6,3.5-8.3,5.2c-3.7,1.8-8.5,2.6-14.3,2.6c-4.4,0-8.6-0.9-12.7-2.6c-4.1-1.7-7.7-4.3-10.7-7.8
			c-3.1-3.5-5.5-8-7.4-13.5c-1.8-5.5-2.8-12-2.8-19.6c0-8,0.9-14.6,2.8-20c1.9-5.4,4.4-9.7,7.6-12.9c3.2-3.2,6.8-5.5,10.9-6.9
			s8.3-2.1,12.7-2.1c6.1,0,11,1.2,15,3.6c3.9,2.4,6.7,4.7,8.3,7c0.4-3.4,1.9-5.7,4.3-7.1c2.5-1.3,5.4-2,8.7-2c1,0,2,0,3,0.2
			c1,0.1,1.8,0.2,2.4,0.4c0.6,0.1,1,0.6,1,1.3C423.5,4019.9,423.4,4020.2,423.2,4020.4"/>
		<path id="path36" class="st1" d="M488.8,4042.2c0-1.3-0.6-2.8-1.7-4.2c-1.1-1.5-2.7-2.8-4.7-4c-2-1.2-4.2-2.3-6.8-3.1
			c-2.6-0.8-5.2-1.3-8.1-1.3c-5.3,0-9,1.3-10.9,3.9s-2.9,5.6-2.9,8.9c0,3.6,0.9,6.5,2.8,8.7c1.8,2.2,4.2,3.9,7.2,5.1
			c2.9,1.2,6.2,2.1,9.8,2.5c3.6,0.4,7.1,0.7,10.6,0.7h4.7L488.8,4042.2z M508.6,4020.4c-1.3,1.7-2.2,4.2-2.7,7.5
			c-0.5,3.6-0.8,8.5-0.8,14.8v28.7c0,5-0.5,9.5-1.5,13.3c-1,3.9-2.8,7.1-5.2,9.6c-2.5,2.6-5.7,4.5-9.8,5.8c-4,1.3-9.1,1.9-15.1,1.9
			c-3.6,0-7.2-0.3-10.9-0.9c-3.7-0.6-7-1.4-10.1-2.5c-3-1.1-5.5-2.3-7.4-3.7s-2.9-2.8-2.9-4.4c0-1,0.4-2.6,1.1-4.7
			c0.7-2.1,1.7-4,3-5.7c3.6,2.5,7.3,4.4,11.1,5.9c3.8,1.4,8.5,2.3,14,2.3c6.7,0,11.2-1.3,13.6-3.8c2.4-2.6,3.5-6.3,3.5-11.1v-2.7
			c-1,0.1-2.2,0.2-3.6,0.2c-1.4,0-2.6,0-3.6,0c-4.2-0.1-8.9-0.6-14-1.4c-5.1-0.8-9.9-2.3-14.4-4.5c-4.5-2.2-8.2-5.2-11.3-9
			c-3-3.8-4.6-8.7-4.6-14.7l0,0c0-4.9,0.8-9,2.5-12.2c1.7-3.2,3.8-5.7,6.3-7.6s5.4-3.2,8.5-3.9c3.1-0.7,6.3-1.1,9.4-1.1
			c6.4,0,11.6,1,15.5,3c3.9,2,7.3,4.4,10.1,7.2c0.4-3.4,1.9-5.7,4.3-7.1c2.5-1.3,5.4-2,8.7-2c1,0,2,0,3,0.2c1,0.1,1.8,0.2,2.4,0.4
			c0.6,0.1,1,0.6,1,1.3C508.9,4019.9,508.8,4020.2,508.6,4020.4"/>
		<path id="path38" class="st2" d="M684.9,4115.1c6.2,0,11.4,5,11.7,11.2c0.3,6.2-4.5,11.2-10.7,11.2s-11.4-5-11.7-11.2
			C674,4120.1,678.8,4115.1,684.9,4115.1"/>
		<path id="path40" class="st2" d="M787.7,4061.7c0,16.7,10.3,33.3,26.9,33.3c7.1,0,11.4-3.9,11.4-10.7c0-10.7-12.4-24.2-37.7-29.1
			C788,4057.1,787.7,4059.1,787.7,4061.7z M718.8,3964.8c-6.1,0-8.4,6.7-8.4,17.2c0,18.1,4.8,46.5,8.3,62.7l2.1,2.2
			c7.1-13,11.7-31.8,11.7-49.7C732.6,3983.4,729.4,3964.8,718.8,3964.8z M761.5,4158c3.5,0,4.8-3.2,4.8-7.8c0-17.5-19-51-42.5-80.7
			C737.6,4135.1,753.6,4158,761.5,4158L761.5,4158z M639.9,4158c3,0,4.6-2.1,4.6-8.4c0-13.4-10.9-47.2-37.7-73.3
			C616.3,4132.4,631.4,4158,639.9,4158L639.9,4158z M817.9,4034.3c-11.5,0-19.8,3.6-24,8.6c27,5.6,48.3,21.6,48.3,41.7
			c0,16.1-12.2,23.4-27.8,23.4c-24,0-43.4-19.3-43.4-46.5c0-2.9,0.3-6.4,0.6-8.3c-0.8,0-2.7,0-3.6,0c-14,0-25,2.6-35,6.1
			c32.1,38.4,48.7,66.2,48.7,90.4c0,13.2-6.8,21.4-20,21.4c-22.2,0-39.2-30.3-53.9-100.1c-1-5-4.6-22.9-4.6-22.9
			c-5.1-6.1-12.2-12.3-20.9-12.4c-6.3-0.1-10.5,3.4-10.5,11.8c0,12.6,6.9,31.7,11.2,46.1c2,6.7-12.1,10.7-14.8,3.9
			c-1.9-4.9-3.7-9.9-5.5-14.3c-13.5-32.2-29.1-48.2-44.8-48.2c-8.7,0-13.5,6.9-13.1,21.7c29.9,23.8,55.1,61.7,54.8,92.6
			c-0.1,11.7-5.4,21.7-19.7,21.7c-20.6,0-35.1-28.5-43.7-65.8c-2.8-12.2-5.8-27.5-6.8-42.8c-11.7-8.5-25.7-16.2-40.9-21.9v-14.5
			c15.9,5.7,29.7,13.2,41.1,20.4c1.7-15.2,10.1-25.4,26-25.4c14.6,0,28.5,7.5,40.1,23.2c0.6-13.1,8.9-22.6,23.8-22.5
			c8.3,0,15.1,3,20,7.1c-3.1-17.8-5.2-31-5-46.8c0.3-21.7,8.5-32.3,23-32.3c20.3,0,30.9,19.4,31,48.9c0,15.5-3.9,32.6-10,45.6
			c7.7-2.5,18.4-4.2,30.3-4.2c2.4,0,5,0.1,7.2,0.2c6.8-11.1,19.5-19.8,42-19.8c21.2,0,41.5,7.2,59,21.1v17.9
			C863.7,4047,843.7,4034.3,817.9,4034.3"/>
		<path id="path42" class="st1" d="M949.6,4243.1l-10.3-27.6l-10.3,27.6h-6.2v-32.9h4.1v27.4h0.2l10-27.4h4.1l10,27.4h0.2v-27.4h4.1
			v32.9H949.6"/>
		<path id="path44" class="st1" d="M892.7,4239.5h11.2v-29.2h4.1v29.2h11.2v3.6h-26.5V4239.5"/>
	</g>
</g>
</svg>
