<?xml version="1.0" encoding="UTF-8"?>
<svg xmlns="http://www.w3.org/2000/svg" xmlns:xlink="http://www.w3.org/1999/xlink" width="186px" height="63px" viewBox="0 0 184 63" version="1.1">
<g id="surface1">
<path style=" stroke:none;fill-rule:nonzero;fill:rgb(75.686275%,9.803922%,23.529412%);fill-opacity:1;" d="M 155.917969 28.726562 C 152.730469 28.726562 150.769531 31.925781 150.769531 35.132812 C 150.769531 35.636719 150.828125 36.015625 150.894531 36.378906 C 155.730469 35.441406 158.09375 32.839844 158.09375 30.777344 C 158.09375 29.480469 157.28125 28.726562 155.917969 28.726562 "/>
<path style=" stroke:none;fill-rule:nonzero;fill:rgb(75.686275%,9.803922%,23.529412%);fill-opacity:1;" d="M 131.332031 20.558594 C 132.507812 20.558594 133.421875 21.523438 133.367188 22.707031 C 133.316406 23.890625 132.316406 24.855469 131.140625 24.855469 C 129.964844 24.855469 129.050781 23.890625 129.105469 22.707031 C 129.160156 21.527344 130.160156 20.558594 131.332031 20.558594 Z M 112.878906 34.996094 C 113.082031 32.054688 113.648438 29.097656 114.183594 26.757812 C 115.828125 19.566406 118.609375 14.09375 122.539062 14.09375 C 125.269531 14.09375 126.285156 16.003906 126.308594 18.265625 C 126.367188 24.222656 121.5625 31.507812 115.839844 36.085938 C 115.769531 38.949219 116.679688 40.269531 118.34375 40.269531 C 121.34375 40.269531 124.332031 37.199219 126.902344 31.003906 C 127.253906 30.160156 127.589844 29.1875 127.957031 28.253906 C 128.472656 26.949219 131.167969 27.703125 130.777344 29 C 129.949219 31.773438 128.632812 35.445312 128.632812 37.863281 C 128.632812 39.488281 129.441406 40.164062 130.636719 40.148438 C 132.292969 40.121094 133.652344 38.921875 134.628906 37.75 C 134.628906 37.75 135.308594 34.304688 135.511719 33.351562 C 138.316406 19.925781 141.554688 14.09375 145.804688 14.09375 C 148.34375 14.09375 149.628906 15.664062 149.628906 18.199219 C 149.628906 22.855469 146.445312 28.207031 140.324219 35.59375 C 142.230469 36.273438 144.332031 36.773438 147.015625 36.773438 C 147.171875 36.773438 147.542969 36.769531 147.695312 36.769531 C 147.636719 36.402344 147.582031 35.726562 147.582031 35.167969 C 147.582031 29.945312 151.292969 26.222656 155.867188 26.222656 C 158.855469 26.222656 161.183594 27.632812 161.183594 30.730469 C 161.183594 34.613281 157.101562 37.691406 151.953125 38.761719 C 152.753906 39.71875 154.328125 40.40625 156.53125 40.40625 C 161.472656 40.40625 165.28125 37.964844 167.804688 35.585938 L 167.804688 0.00390625 L 105.058594 0.00390625 L 105.058594 39.199219 C 107.957031 38.109375 110.636719 36.628906 112.878906 34.996094 "/>
<path style=" stroke:none;fill-rule:nonzero;fill:rgb(75.686275%,9.803922%,23.529412%);fill-opacity:1;" d="M 145.765625 16.601562 C 144.257812 16.601562 141.207031 21.003906 138.5625 33.648438 C 143.042969 27.933594 146.683594 21.46875 146.683594 18.109375 C 146.683594 17.226562 146.425781 16.601562 145.765625 16.601562 "/>
<path style=" stroke:none;fill-rule:nonzero;fill:rgb(75.686275%,9.803922%,23.529412%);fill-opacity:1;" d="M 156.535156 43.078125 C 152.230469 43.078125 149.804688 41.394531 148.503906 39.261719 C 148.085938 39.28125 147.585938 39.296875 147.132812 39.296875 C 144.867188 39.296875 142.8125 38.980469 141.34375 38.492188 C 142.511719 41 143.269531 44.28125 143.261719 47.269531 C 143.25 52.953125 141.21875 56.6875 137.347656 56.6875 C 134.582031 56.6875 133.011719 54.65625 132.957031 50.46875 C 132.917969 47.417969 133.324219 44.886719 133.917969 41.460938 C 132.980469 42.25 131.667969 42.816406 130.089844 42.824219 C 127.246094 42.835938 125.660156 41.007812 125.546875 38.496094 C 123.328125 41.503906 120.664062 42.953125 117.886719 42.953125 C 114.855469 42.953125 113.238281 40.988281 112.917969 38.0625 C 110.746094 39.453125 108.09375 40.902344 105.0625 41.992188 L 105.0625 63.214844 L 167.804688 63.214844 L 167.804688 39.011719 C 164.460938 41.691406 160.59375 43.078125 156.535156 43.078125 "/>
<path style=" stroke:none;fill-rule:nonzero;fill:rgb(75.686275%,9.803922%,23.529412%);fill-opacity:1;" d="M 122.546875 16.605469 C 120.917969 16.605469 118.03125 21.523438 116.242188 32.324219 C 121.347656 27.300781 123.433594 20.796875 123.433594 18.21875 C 123.433594 17.023438 123.117188 16.605469 122.546875 16.605469 "/>
<path style=" stroke:none;fill-rule:nonzero;fill:rgb(75.686275%,9.803922%,23.529412%);fill-opacity:1;" d="M 137.585938 38.40625 C 136.921875 41.519531 136.011719 46.996094 136.011719 50.476562 C 136.011719 52.496094 136.441406 53.78125 137.609375 53.78125 C 139.632812 53.78125 140.234375 50.195312 140.234375 47.542969 C 140.234375 44.105469 139.347656 40.484375 137.988281 37.984375 L 137.585938 38.40625 "/>
<path style=" stroke:none;fill-rule:nonzero;fill:rgb(48.627451%,49.411765%,41.176471%);fill-opacity:1;" d="M 4.457031 35.585938 C 4.457031 36.378906 4.539062 37.117188 4.710938 37.808594 C 4.878906 38.503906 5.148438 39.105469 5.511719 39.613281 C 5.878906 40.128906 6.351562 40.535156 6.9375 40.832031 C 7.527344 41.132812 8.226562 41.277344 9.046875 41.277344 C 9.636719 41.277344 10.167969 41.195312 10.636719 41.011719 C 11.105469 40.835938 11.503906 40.632812 11.832031 40.398438 C 12.226562 40.152344 12.578125 39.855469 12.882812 39.523438 C 13.058594 39.71875 13.28125 40.027344 13.5625 40.4375 C 13.832031 40.84375 13.96875 41.222656 13.96875 41.570312 C 13.960938 41.6875 13.9375 41.796875 13.882812 41.914062 C 13.777344 42.132812 13.582031 42.367188 13.289062 42.613281 C 12.871094 42.976562 12.269531 43.292969 11.484375 43.554688 C 10.695312 43.820312 9.742188 43.953125 8.617188 43.953125 C 7.894531 43.953125 7.09375 43.847656 6.230469 43.644531 C 5.363281 43.4375 4.554688 43.035156 3.804688 42.425781 C 3.050781 41.824219 2.421875 40.984375 1.910156 39.90625 C 1.398438 38.816406 1.140625 37.394531 1.140625 35.617188 C 1.140625 33.976562 1.40625 32.621094 1.945312 31.554688 C 2.480469 30.488281 3.136719 29.652344 3.921875 29.039062 C 4.699219 28.425781 5.53125 28.003906 6.410156 27.757812 C 7.292969 27.515625 8.070312 27.394531 8.742188 27.394531 C 9.558594 27.394531 10.300781 27.480469 10.960938 27.65625 C 11.621094 27.824219 12.1875 28.054688 12.652344 28.324219 C 13.09375 28.585938 13.429688 28.851562 13.648438 29.128906 C 13.878906 29.410156 13.988281 29.679688 13.988281 29.96875 C 13.988281 30.507812 13.582031 31.300781 13.078125 31.976562 C 12.714844 31.5625 12.183594 31.140625 11.488281 30.722656 C 10.785156 30.3125 10.003906 30.101562 9.144531 30.101562 C 8.316406 30.101562 7.601562 30.234375 7.015625 30.515625 C 6.425781 30.792969 5.9375 31.179688 5.550781 31.679688 C 5.167969 32.179688 4.890625 32.769531 4.71875 33.433594 C 4.542969 34.105469 4.457031 34.824219 4.457031 35.585938 "/>
<path style=" stroke:none;fill-rule:nonzero;fill:rgb(48.627451%,49.411765%,41.176471%);fill-opacity:1;" d="M 26.25 38.890625 C 26.25 39.148438 26.136719 39.417969 25.921875 39.699219 C 25.703125 39.980469 25.410156 40.234375 25.035156 40.472656 C 24.660156 40.710938 24.226562 40.910156 23.738281 41.070312 C 23.253906 41.234375 22.738281 41.3125 22.195312 41.3125 C 21.175781 41.3125 20.484375 41.0625 20.109375 40.566406 C 19.734375 40.074219 19.550781 39.5 19.550781 38.855469 C 19.550781 38.164062 19.726562 37.609375 20.078125 37.191406 C 20.429688 36.769531 20.886719 36.441406 21.445312 36.203125 C 22.007812 35.96875 22.632812 35.804688 23.320312 35.722656 C 24.003906 35.632812 24.679688 35.585938 25.347656 35.585938 L 26.25 35.585938 Z M 30.03125 43.078125 C 29.785156 42.75 29.617188 42.265625 29.527344 41.632812 C 29.425781 40.949219 29.375 39.992188 29.375 38.777344 L 29.375 33.265625 C 29.375 32.292969 29.28125 31.4375 29.085938 30.695312 C 28.894531 29.957031 28.5625 29.335938 28.085938 28.839844 C 27.609375 28.347656 26.984375 27.976562 26.21875 27.726562 C 25.449219 27.480469 24.480469 27.355469 23.332031 27.355469 C 22.648438 27.355469 21.957031 27.414062 21.253906 27.523438 C 20.550781 27.640625 19.910156 27.800781 19.328125 28.007812 C 18.753906 28.210938 18.28125 28.453125 17.917969 28.714844 C 17.554688 28.972656 17.375 29.257812 17.375 29.550781 C 17.375 29.75 17.445312 30.050781 17.585938 30.453125 C 17.730469 30.859375 17.917969 31.226562 18.152344 31.5625 C 18.832031 31.074219 19.539062 30.710938 20.269531 30.429688 C 20.996094 30.152344 21.894531 29.992188 22.949219 29.992188 C 24.222656 29.992188 25.089844 30.238281 25.539062 30.726562 C 25.988281 31.21875 26.210938 31.933594 26.210938 32.871094 L 26.210938 33.398438 C 26.015625 33.375 25.78125 33.367188 25.519531 33.367188 C 25.253906 33.367188 25.027344 33.367188 24.828125 33.367188 C 24.019531 33.390625 23.121094 33.476562 22.148438 33.632812 C 21.175781 33.785156 20.257812 34.074219 19.402344 34.492188 C 18.546875 34.917969 17.828125 35.488281 17.246094 36.222656 C 16.667969 36.953125 16.378906 37.890625 16.378906 39.042969 C 16.378906 39.992188 16.535156 40.773438 16.855469 41.386719 C 17.167969 42 17.574219 42.484375 18.0625 42.847656 C 18.546875 43.210938 19.09375 43.460938 19.691406 43.597656 C 20.296875 43.726562 20.886719 43.796875 21.480469 43.796875 C 22.703125 43.796875 23.6875 43.605469 24.4375 43.222656 C 25.1875 42.839844 25.832031 42.378906 26.367188 41.832031 C 26.449219 42.484375 26.722656 42.941406 27.191406 43.195312 C 27.664062 43.449219 28.214844 43.578125 28.847656 43.578125 C 29.046875 43.578125 29.242188 43.570312 29.421875 43.550781 C 29.605469 43.527344 29.761719 43.507812 29.886719 43.472656 C 30 43.449219 30.085938 43.351562 30.085938 43.230469 C 30.078125 43.167969 30.0625 43.117188 30.03125 43.078125 "/>
<path style=" stroke:none;fill-rule:nonzero;fill:rgb(48.627451%,49.411765%,41.176471%);fill-opacity:1;" d="M 46.953125 43.460938 L 43.71875 43.460938 L 43.71875 34.492188 C 43.71875 33.871094 43.695312 33.292969 43.652344 32.765625 C 43.609375 32.230469 43.492188 31.773438 43.304688 31.390625 C 43.117188 31.015625 42.820312 30.722656 42.394531 30.507812 C 41.976562 30.300781 41.394531 30.191406 40.644531 30.191406 C 39.585938 30.191406 38.679688 30.40625 37.925781 30.902344 C 37.171875 31.394531 36.792969 32.039062 36.792969 32.773438 L 36.792969 43.460938 L 33.542969 43.460938 L 33.542969 27.683594 C 33.589844 27.675781 33.648438 27.671875 33.714844 27.664062 C 33.769531 27.660156 33.835938 27.65625 33.910156 27.65625 C 33.988281 27.652344 34.078125 27.652344 34.183594 27.652344 C 34.757812 27.652344 35.277344 27.785156 35.738281 28.050781 C 36.195312 28.316406 36.484375 28.777344 36.582031 29.425781 C 37.082031 28.890625 37.773438 28.410156 38.640625 27.988281 C 39.511719 27.570312 40.539062 27.355469 41.726562 27.355469 C 43.222656 27.355469 44.371094 27.695312 45.164062 28.367188 C 45.960938 29.046875 46.480469 29.886719 46.722656 30.898438 C 46.832031 31.351562 46.898438 31.847656 46.917969 32.398438 C 46.941406 32.949219 46.949219 33.484375 46.949219 34 L 46.949219 43.460938 "/>
<path style=" stroke:none;fill-rule:nonzero;fill:rgb(48.627451%,49.411765%,41.176471%);fill-opacity:1;" d="M 60.019531 38.890625 C 60.019531 39.148438 59.910156 39.417969 59.695312 39.699219 C 59.476562 39.980469 59.179688 40.234375 58.804688 40.472656 C 58.429688 40.710938 58 40.910156 57.511719 41.070312 C 57.023438 41.234375 56.511719 41.3125 55.96875 41.3125 C 54.953125 41.3125 54.253906 41.0625 53.878906 40.566406 C 53.507812 40.074219 53.320312 39.5 53.320312 38.855469 C 53.320312 38.164062 53.496094 37.609375 53.847656 37.191406 C 54.199219 36.769531 54.660156 36.441406 55.222656 36.203125 C 55.78125 35.96875 56.40625 35.804688 57.089844 35.722656 C 57.777344 35.632812 58.449219 35.585938 59.117188 35.585938 L 60.019531 35.585938 Z M 63.804688 43.078125 C 63.558594 42.75 63.394531 42.265625 63.296875 41.632812 C 63.195312 40.949219 63.148438 39.992188 63.148438 38.777344 L 63.148438 33.265625 C 63.148438 32.292969 63.050781 31.4375 62.863281 30.695312 C 62.667969 29.957031 62.332031 29.335938 61.855469 28.839844 C 61.378906 28.347656 60.761719 27.976562 59.988281 27.726562 C 59.21875 27.480469 58.257812 27.355469 57.101562 27.355469 C 56.421875 27.355469 55.730469 27.414062 55.023438 27.523438 C 54.320312 27.640625 53.679688 27.800781 53.101562 28.007812 C 52.523438 28.210938 52.054688 28.453125 51.6875 28.714844 C 51.328125 28.972656 51.148438 29.257812 51.148438 29.550781 C 51.148438 29.75 51.21875 30.050781 51.363281 30.453125 C 51.5 30.859375 51.6875 31.226562 51.921875 31.5625 C 52.605469 31.074219 53.308594 30.710938 54.039062 30.429688 C 54.769531 30.152344 55.664062 29.992188 56.722656 29.992188 C 57.996094 29.992188 58.859375 30.238281 59.308594 30.726562 C 59.757812 31.21875 59.984375 31.933594 59.984375 32.871094 L 59.984375 33.398438 C 59.785156 33.375 59.558594 33.367188 59.292969 33.367188 C 59.03125 33.367188 58.800781 33.367188 58.601562 33.367188 C 57.789062 33.390625 56.898438 33.476562 55.917969 33.632812 C 54.941406 33.785156 54.027344 34.074219 53.175781 34.492188 C 52.320312 34.917969 51.601562 35.488281 51.019531 36.222656 C 50.441406 36.953125 50.148438 37.890625 50.148438 39.042969 C 50.148438 39.992188 50.304688 40.773438 50.628906 41.386719 C 50.945312 42 51.347656 42.484375 51.835938 42.847656 C 52.324219 43.210938 52.867188 43.460938 53.46875 43.597656 C 54.070312 43.726562 54.664062 43.796875 55.25 43.796875 C 56.476562 43.796875 57.460938 43.605469 58.210938 43.222656 C 58.960938 42.839844 59.601562 42.378906 60.140625 41.832031 C 60.222656 42.484375 60.496094 42.941406 60.96875 43.195312 C 61.4375 43.449219 61.988281 43.578125 62.625 43.578125 C 62.820312 43.578125 63.011719 43.570312 63.195312 43.550781 C 63.378906 43.527344 63.535156 43.507812 63.664062 43.472656 C 63.777344 43.449219 63.859375 43.351562 63.859375 43.230469 C 63.851562 43.167969 63.835938 43.117188 63.804688 43.078125 "/>
<path style=" stroke:none;fill-rule:nonzero;fill:rgb(48.627451%,49.411765%,41.176471%);fill-opacity:1;" d="M 77.269531 39.171875 C 77.269531 39.429688 77.191406 39.6875 77.027344 39.941406 C 76.859375 40.199219 76.625 40.421875 76.316406 40.613281 C 76.011719 40.808594 75.640625 40.96875 75.222656 41.09375 C 74.800781 41.222656 74.34375 41.289062 73.851562 41.289062 C 73.109375 41.289062 72.488281 41.144531 71.988281 40.855469 C 71.484375 40.5625 71.078125 40.160156 70.769531 39.636719 C 70.460938 39.113281 70.246094 38.5 70.121094 37.792969 C 70 37.089844 69.933594 36.320312 69.933594 35.484375 C 69.933594 33.6875 70.273438 32.335938 70.953125 31.410156 C 71.632812 30.492188 72.554688 30.03125 73.726562 30.03125 C 74.222656 30.03125 74.660156 30.089844 75.054688 30.207031 C 75.4375 30.324219 75.785156 30.46875 76.085938 30.640625 C 76.382812 30.8125 76.625 30.992188 76.828125 31.1875 C 77.003906 31.363281 77.15625 31.511719 77.269531 31.636719 Z M 81.152344 43.078125 C 80.910156 42.75 80.742188 42.265625 80.644531 41.632812 C 80.546875 40.949219 80.496094 39.992188 80.496094 38.777344 L 80.496094 22.53125 C 80.496094 21.960938 80.433594 21.503906 80.300781 21.152344 C 80.171875 20.796875 79.996094 20.523438 79.769531 20.316406 C 79.546875 20.109375 79.289062 19.976562 79.007812 19.90625 C 78.722656 19.839844 78.441406 19.804688 78.171875 19.804688 C 78.027344 19.804688 77.863281 19.808594 77.679688 19.8125 C 77.5 19.824219 77.363281 19.835938 77.269531 19.847656 L 77.269531 28.964844 C 76.925781 28.636719 76.398438 28.300781 75.6875 27.960938 C 74.976562 27.621094 74.070312 27.453125 72.964844 27.453125 C 72.128906 27.453125 71.320312 27.613281 70.542969 27.945312 C 69.757812 28.277344 69.078125 28.777344 68.492188 29.449219 C 67.902344 30.117188 67.433594 30.984375 67.082031 32.039062 C 66.726562 33.097656 66.550781 34.351562 66.550781 35.804688 C 66.550781 37.335938 66.730469 38.617188 67.09375 39.648438 C 67.453125 40.683594 67.9375 41.507812 68.542969 42.132812 C 69.148438 42.75 69.84375 43.195312 70.625 43.460938 C 71.40625 43.726562 72.207031 43.859375 73.039062 43.859375 C 74.199219 43.859375 75.152344 43.625 75.898438 43.167969 C 76.640625 42.710938 77.171875 42.261719 77.480469 41.828125 C 77.5625 42.480469 77.839844 42.9375 78.308594 43.191406 C 78.78125 43.449219 79.332031 43.574219 79.964844 43.574219 C 80.164062 43.574219 80.355469 43.566406 80.539062 43.546875 C 80.722656 43.523438 80.878906 43.503906 81.003906 43.46875 C 81.121094 43.445312 81.203125 43.351562 81.203125 43.226562 C 81.207031 43.167969 81.1875 43.117188 81.152344 43.078125 "/>
<path style=" stroke:none;fill-rule:nonzero;fill:rgb(48.627451%,49.411765%,41.176471%);fill-opacity:1;" d="M 93.6875 38.890625 C 93.6875 39.148438 93.578125 39.417969 93.355469 39.699219 C 93.136719 39.980469 92.839844 40.234375 92.464844 40.472656 C 92.09375 40.710938 91.664062 40.910156 91.175781 41.070312 C 90.6875 41.234375 90.175781 41.3125 89.632812 41.3125 C 88.613281 41.3125 87.917969 41.0625 87.542969 40.566406 C 87.167969 40.074219 86.984375 39.5 86.984375 38.855469 C 86.984375 38.164062 87.160156 37.609375 87.515625 37.191406 C 87.863281 36.769531 88.324219 36.441406 88.882812 36.203125 C 89.445312 35.96875 90.070312 35.804688 90.753906 35.722656 C 91.4375 35.632812 92.117188 35.585938 92.78125 35.585938 L 93.6875 35.585938 Z M 97.464844 43.078125 C 97.222656 42.75 97.050781 42.265625 96.957031 41.632812 C 96.855469 40.949219 96.804688 39.992188 96.804688 38.777344 L 96.804688 33.265625 C 96.804688 32.292969 96.710938 31.4375 96.515625 30.695312 C 96.324219 29.957031 95.992188 29.335938 95.515625 28.839844 C 95.039062 28.347656 94.417969 27.976562 93.648438 27.726562 C 92.878906 27.480469 91.917969 27.355469 90.761719 27.355469 C 90.078125 27.355469 89.386719 27.414062 88.6875 27.523438 C 87.980469 27.640625 87.339844 27.800781 86.761719 28.007812 C 86.183594 28.210938 85.710938 28.453125 85.347656 28.714844 C 84.984375 28.972656 84.800781 29.257812 84.800781 29.550781 C 84.800781 29.75 84.871094 30.050781 85.015625 30.453125 C 85.160156 30.859375 85.347656 31.226562 85.582031 31.5625 C 86.261719 31.074219 86.972656 30.710938 87.699219 30.429688 C 88.429688 30.152344 89.324219 29.992188 90.378906 29.992188 C 91.65625 29.992188 92.519531 30.238281 92.96875 30.726562 C 93.417969 31.21875 93.640625 31.933594 93.640625 32.871094 L 93.640625 33.398438 C 93.445312 33.375 93.214844 33.367188 92.949219 33.367188 C 92.6875 33.367188 92.457031 33.367188 92.257812 33.367188 C 91.449219 33.390625 90.550781 33.476562 89.578125 33.632812 C 88.601562 33.785156 87.6875 34.074219 86.832031 34.492188 C 85.980469 34.917969 85.257812 35.488281 84.683594 36.222656 C 84.097656 36.953125 83.8125 37.890625 83.8125 39.042969 C 83.8125 39.992188 83.96875 40.773438 84.285156 41.386719 C 84.601562 42 85.007812 42.484375 85.492188 42.847656 C 85.984375 43.210938 86.527344 43.460938 87.128906 43.597656 C 87.726562 43.726562 88.324219 43.796875 88.914062 43.796875 C 90.132812 43.796875 91.121094 43.605469 91.871094 43.222656 C 92.621094 42.839844 93.265625 42.378906 93.796875 41.832031 C 93.878906 42.484375 94.15625 42.941406 94.625 43.195312 C 95.097656 43.449219 95.648438 43.578125 96.285156 43.578125 C 96.480469 43.578125 96.671875 43.570312 96.855469 43.550781 C 97.039062 43.527344 97.195312 43.507812 97.320312 43.472656 C 97.4375 43.449219 97.515625 43.351562 97.515625 43.230469 C 97.515625 43.167969 97.496094 43.117188 97.464844 43.078125 "/>
<path style=" stroke:none;fill-rule:nonzero;fill:rgb(100%,100%,100%);fill-opacity:1;" d="M 131.144531 24.855469 C 132.320312 24.855469 133.320312 23.890625 133.371094 22.707031 C 133.425781 21.523438 132.507812 20.558594 131.335938 20.558594 C 130.160156 20.558594 129.160156 21.523438 129.105469 22.707031 C 129.054688 23.890625 129.96875 24.855469 131.144531 24.855469 "/>
<path style=" stroke:none;fill-rule:nonzero;fill:rgb(100%,100%,100%);fill-opacity:1;" d="M 150.769531 35.136719 C 150.769531 31.925781 152.730469 28.726562 155.917969 28.726562 C 157.28125 28.726562 158.097656 29.480469 158.097656 30.78125 C 158.097656 32.839844 155.734375 35.441406 150.898438 36.382812 C 150.824219 36.019531 150.769531 35.640625 150.769531 35.136719 Z M 137.613281 53.78125 C 136.445312 53.78125 136.015625 52.496094 136.015625 50.476562 C 136.015625 47 136.921875 41.523438 137.585938 38.40625 L 137.996094 37.984375 C 139.355469 40.484375 140.238281 44.105469 140.238281 47.542969 C 140.234375 50.195312 139.632812 53.78125 137.613281 53.78125 Z M 145.765625 16.601562 C 146.425781 16.601562 146.683594 17.222656 146.683594 18.117188 C 146.683594 21.476562 143.042969 27.933594 138.5625 33.648438 C 141.207031 21.003906 144.257812 16.601562 145.765625 16.601562 Z M 122.546875 16.605469 C 123.121094 16.605469 123.433594 17.019531 123.433594 18.21875 C 123.433594 20.800781 121.347656 27.304688 116.242188 32.328125 C 118.03125 21.523438 120.914062 16.605469 122.546875 16.605469 Z M 156.53125 40.398438 C 154.328125 40.398438 152.753906 39.710938 151.953125 38.75 C 157.101562 37.679688 161.183594 34.601562 161.183594 30.722656 C 161.183594 27.625 158.855469 26.210938 155.867188 26.210938 C 151.292969 26.210938 147.582031 29.933594 147.582031 35.152344 C 147.582031 35.722656 147.636719 36.390625 147.695312 36.761719 C 147.542969 36.765625 147.171875 36.765625 147.015625 36.765625 C 144.332031 36.765625 142.230469 36.257812 140.324219 35.585938 C 146.445312 28.199219 149.628906 22.847656 149.628906 18.191406 C 149.628906 15.652344 148.339844 14.082031 145.804688 14.082031 C 141.554688 14.082031 138.316406 19.917969 135.511719 33.347656 C 135.308594 34.300781 134.628906 37.746094 134.628906 37.746094 C 133.652344 38.910156 132.292969 40.109375 130.636719 40.136719 C 129.441406 40.15625 128.632812 39.484375 128.632812 37.859375 C 128.632812 35.433594 129.949219 31.765625 130.777344 28.996094 C 131.167969 27.699219 128.472656 26.945312 127.957031 28.246094 C 127.589844 29.179688 127.253906 30.152344 126.902344 30.992188 C 124.328125 37.1875 121.34375 40.265625 118.34375 40.265625 C 116.679688 40.265625 115.769531 38.945312 115.839844 36.082031 C 121.5625 31.496094 126.367188 24.214844 126.308594 18.253906 C 126.285156 15.996094 125.269531 14.082031 122.539062 14.082031 C 118.609375 14.082031 115.828125 19.558594 114.183594 26.746094 C 113.648438 29.089844 113.082031 32.042969 112.878906 34.984375 C 110.636719 36.625 107.957031 38.105469 105.058594 39.195312 L 105.058594 41.984375 C 108.089844 40.894531 110.742188 39.441406 112.914062 38.050781 C 113.234375 40.984375 114.855469 42.945312 117.882812 42.945312 C 120.664062 42.945312 123.328125 41.492188 125.542969 38.484375 C 125.65625 41 127.242188 42.828125 130.089844 42.8125 C 131.664062 42.808594 132.980469 42.242188 133.914062 41.453125 C 133.320312 44.882812 132.914062 47.410156 132.957031 50.460938 C 133.007812 54.648438 134.582031 56.679688 137.34375 56.679688 C 141.21875 56.679688 143.246094 52.945312 143.257812 47.261719 C 143.265625 44.273438 142.511719 40.988281 141.339844 38.484375 C 142.8125 38.976562 144.863281 39.285156 147.128906 39.285156 C 147.582031 39.285156 148.078125 39.277344 148.503906 39.25 C 149.796875 41.386719 152.226562 43.070312 156.53125 43.070312 C 160.589844 43.070312 164.460938 41.6875 167.800781 39.007812 L 167.800781 35.5625 C 165.28125 37.949219 161.472656 40.398438 156.53125 40.398438 "/>
<path style=" stroke:none;fill-rule:nonzero;fill:rgb(48.627451%,49.411765%,41.176471%);fill-opacity:1;" d="M 181.683594 0.21875 L 179.722656 5.53125 L 177.761719 0.21875 L 176.585938 0.21875 L 176.585938 6.539062 L 177.367188 6.539062 L 177.367188 1.269531 L 177.410156 1.269531 L 179.328125 6.539062 L 180.113281 6.539062 L 182.03125 1.269531 L 182.070312 1.269531 L 182.070312 6.539062 L 182.855469 6.539062 L 182.855469 0.21875 L 181.683594 0.21875 "/>
<path style=" stroke:none;fill-rule:nonzero;fill:rgb(48.627451%,49.411765%,41.176471%);fill-opacity:1;" d="M 170.832031 0.917969 L 172.964844 0.917969 L 172.964844 6.539062 L 173.753906 6.539062 L 173.753906 0.917969 L 175.890625 0.917969 L 175.890625 0.21875 L 170.832031 0.21875 L 170.832031 0.917969 "/>
</g>
</svg>
