<?xml version="1.0" encoding="utf-8"?>
<!-- Generator: Adobe Illustrator 28.3.0, SVG Export Plug-In . SVG Version: 6.00 Build 0)  -->
<svg version="1.1"
	 id="svg8" xmlns:svg="http://www.w3.org/2000/svg" xmlns:inkscape="http://www.inkscape.org/namespaces/inkscape" xmlns:rdf="http://www.w3.org/1999/02/22-rdf-syntax-ns#" xmlns:sodipodi="http://sodipodi.sourceforge.net/DTD/sodipodi-0.dtd" xmlns:dc="http://purl.org/dc/elements/1.1/" xmlns:cc="http://creativecommons.org/ns#"
	 xmlns="http://www.w3.org/2000/svg" xmlns:xlink="http://www.w3.org/1999/xlink" x="0px" y="0px" viewBox="0 0 128 64"
	 style="enable-background:new 0 0 128 64;" xml:space="preserve">
<style type="text/css">
	.st0{fill:#C1193C;}
	.st1{fill:#7C7E69;}
	.st2{fill:#FFFFFF;}
</style>
<sodipodi:namedview  bordercolor="#666666" borderopacity="1.0" fit-margin-bottom="0" fit-margin-left="0" fit-margin-right="0" fit-margin-top="0" id="base" inkscape:current-layer="layer1" inkscape:cx="131.46973" inkscape:cy="-389.58457" inkscape:document-units="mm" inkscape:pageopacity="0" inkscape:pageshadow="2" inkscape:window-height="1001" inkscape:window-maximized="1" inkscape:window-width="1920" inkscape:window-x="-9" inkscape:window-y="-9" inkscape:zoom="0.7" pagecolor="#00ffff" showgrid="false">
	</sodipodi:namedview>
<g>
	<path id="path14" class="st0" d="M108.6,29.9c-2.2,0-3.6,2.2-3.6,4.4c0,0.3,0,0.6,0.1,0.9c3.4-0.7,5-2.5,5-3.9
		C110.2,30.4,109.6,29.9,108.6,29.9"/>
	<path id="path16" class="st0" d="M91.5,24.3c0.8,0,1.5,0.7,1.4,1.5c0,0.8-0.7,1.5-1.6,1.5c-0.8,0-1.5-0.7-1.4-1.5
		C90,24.9,90.7,24.3,91.5,24.3z M78.6,34.3c0.1-2,0.5-4.1,0.9-5.7c1.1-5,3.1-8.8,5.8-8.8c1.9,0,2.6,1.3,2.6,2.9
		c0,4.1-3.3,9.2-7.3,12.3c-0.1,2,0.6,2.9,1.7,2.9c2.1,0,4.2-2.1,6-6.4c0.2-0.6,0.5-1.3,0.7-1.9c0.4-0.9,2.2-0.4,2,0.5
		c-0.6,1.9-1.5,4.5-1.5,6.1c0,1.1,0.6,1.6,1.4,1.6c1.2,0,2.1-0.9,2.8-1.7c0,0,0.5-2.4,0.6-3.1c2-9.3,4.2-13.3,7.2-13.3
		c1.8,0,2.7,1.1,2.7,2.9c0,3.2-2.2,6.9-6.5,12.1c1.3,0.5,2.8,0.8,4.7,0.8c0.1,0,0.4,0,0.5,0c0-0.3-0.1-0.7-0.1-1.1
		c0-3.6,2.6-6.2,5.8-6.2c2.1,0,3.7,1,3.7,3.1c0,2.7-2.9,4.8-6.4,5.6c0.6,0.7,1.7,1.1,3.2,1.1c3.5,0,6.1-1.7,7.9-3.3V10H73.1v27.2
		C75.2,36.4,77,35.4,78.6,34.3"/>
	<path id="path18" class="st0" d="M101.5,21.5c-1.1,0-3.2,3.1-5,11.8c3.1-4,5.7-8.4,5.7-10.8C102.2,21.9,102,21.5,101.5,21.5"/>
	<path id="path20" class="st0" d="M109.1,39.9c-3,0-4.7-1.2-5.6-2.6c-0.3,0-0.6,0-1,0c-1.6,0-3-0.2-4-0.6c0.8,1.7,1.3,4,1.3,6.1
		c0,3.9-1.4,6.5-4.1,6.5c-1.9,0-3-1.4-3.1-4.3c0-2.1,0.3-3.9,0.7-6.2c-0.7,0.5-1.6,0.9-2.7,0.9c-2,0-3.1-1.3-3.2-3
		c-1.5,2.1-3.4,3.1-5.3,3.1c-2.1,0-3.2-1.4-3.5-3.4c-1.5,1-3.4,2-5.5,2.7v14.7h43.8V37C114.6,38.9,111.9,39.9,109.1,39.9"/>
	<path id="path22" class="st0" d="M85.3,21.5c-1.1,0-3.1,3.4-4.4,10.9c3.6-3.5,5-8,5-9.8C86,21.8,85.7,21.5,85.3,21.5"/>
	<path id="path24" class="st0" d="M95.8,36.6c-0.5,2.2-1.1,5.9-1.1,8.4c0,1.4,0.3,2.3,1.1,2.3c1.4,0,1.8-2.5,1.8-4.3
		c0-2.4-0.6-4.9-1.6-6.6L95.8,36.6"/>
	<path id="path26" class="st1" d="M2.9,34.7c0,0.5,0.1,1.1,0.2,1.5c0.1,0.5,0.3,0.9,0.6,1.3s0.6,0.6,1,0.8c0.4,0.2,0.9,0.3,1.5,0.3
		c0.4,0,0.8-0.1,1.1-0.2c0.3-0.1,0.6-0.3,0.8-0.4c0.3-0.2,0.5-0.4,0.7-0.6c0.1,0.1,0.3,0.3,0.5,0.6c0.2,0.3,0.3,0.5,0.3,0.8
		c0,0.1,0,0.2-0.1,0.2c-0.1,0.1-0.2,0.3-0.4,0.5c-0.3,0.3-0.7,0.5-1.3,0.7c-0.5,0.2-1.2,0.3-2,0.3c-0.5,0-1.1-0.1-1.7-0.2
		S3,39.8,2.4,39.4c-0.5-0.4-1-1-1.3-1.7s-0.5-1.7-0.5-3c0-1.1,0.2-2.1,0.6-2.8s0.8-1.3,1.4-1.7c0.5-0.4,1.1-0.7,1.7-0.9
		C4.9,29,5.4,29,5.9,29C6.5,29,7,29,7.4,29.2c0.5,0.1,0.9,0.3,1.2,0.5c0.3,0.2,0.5,0.4,0.7,0.6c0.1,0.2,0.2,0.4,0.2,0.6
		c0,0.4-0.3,0.9-0.6,1.4c-0.3-0.3-0.6-0.6-1.1-0.9c-0.5-0.3-1-0.4-1.6-0.4c-0.6,0-1.1,0.1-1.5,0.3c-0.4,0.2-0.7,0.5-1,0.8
		s-0.5,0.7-0.6,1.2C3,33.6,2.9,34.1,2.9,34.7"/>
	<path id="path28" class="st1" d="M18.1,37c0,0.2-0.1,0.4-0.2,0.6c-0.1,0.2-0.4,0.4-0.6,0.5s-0.6,0.3-0.9,0.4
		c-0.3,0.1-0.7,0.2-1.1,0.2c-0.7,0-1.2-0.2-1.5-0.5c-0.3-0.3-0.4-0.7-0.4-1.2c0-0.5,0.1-0.9,0.4-1.2c0.3-0.3,0.6-0.5,1-0.7
		c0.4-0.2,0.8-0.3,1.3-0.3c0.5-0.1,0.9-0.1,1.4-0.1h0.6C18.1,34.7,18.1,37,18.1,37z M20.8,39.9c-0.2-0.2-0.3-0.6-0.3-1
		c-0.1-0.5-0.1-1.1-0.1-2v-3.8c0-0.7-0.1-1.3-0.2-1.8c-0.1-0.5-0.4-0.9-0.7-1.3c-0.3-0.3-0.8-0.6-1.3-0.8c-0.5-0.2-1.2-0.3-2-0.3
		c-0.5,0-1,0-1.5,0.1c-0.5,0.1-0.9,0.2-1.3,0.3c-0.4,0.1-0.7,0.3-1,0.5c-0.3,0.2-0.4,0.4-0.4,0.6c0,0.1,0.1,0.3,0.1,0.6
		c0.1,0.3,0.2,0.5,0.4,0.8c0.5-0.3,1-0.6,1.5-0.8c0.5-0.2,1.1-0.3,1.9-0.3c0.9,0,1.5,0.2,1.8,0.5c0.3,0.3,0.5,0.8,0.5,1.5v0.4
		c-0.1,0-0.3,0-0.5,0c-0.2,0-0.3,0-0.5,0c-0.6,0-1.2,0.1-1.9,0.2c-0.7,0.1-1.3,0.3-1.9,0.6c-0.6,0.3-1.1,0.7-1.5,1.2
		c-0.4,0.5-0.6,1.2-0.6,2l0,0c0,0.7,0.1,1.2,0.3,1.6c0.2,0.4,0.5,0.8,0.8,1c0.3,0.3,0.7,0.4,1.1,0.5s0.8,0.1,1.3,0.1
		c0.9,0,1.5-0.1,2.1-0.4s1-0.6,1.3-1c0.1,0.5,0.3,0.8,0.6,0.9c0.3,0.2,0.7,0.3,1.2,0.3c0.1,0,0.3,0,0.4,0c0.1,0,0.2,0,0.3-0.1
		c0.1,0,0.1-0.1,0.1-0.2C20.8,39.9,20.8,39.9,20.8,39.9"/>
	<path id="path30" class="st1" d="M32.6,40.1h-2.3v-6.2c0-0.4,0-0.8,0-1.2c0-0.4-0.1-0.7-0.2-0.9c-0.1-0.3-0.3-0.5-0.6-0.6
		c-0.3-0.1-0.7-0.2-1.2-0.2c-0.7,0-1.4,0.1-1.9,0.5c-0.5,0.3-0.8,0.8-0.8,1.3v7.4h-2.3V29.2c0,0,0.1,0,0.1,0c0,0,0.1,0,0.1,0
		c0.1,0,0.1,0,0.2,0c0.4,0,0.8,0.1,1.1,0.3c0.3,0.2,0.5,0.5,0.6,0.9c0.3-0.4,0.8-0.7,1.4-1c0.6-0.3,1.3-0.4,2.2-0.4
		c1,0,1.9,0.2,2.4,0.7c0.6,0.5,0.9,1.1,1.1,1.7c0.1,0.3,0.1,0.7,0.1,1c0,0.4,0,0.7,0,1.1L32.6,40.1"/>
	<path id="path32" class="st1" d="M41.7,37c0,0.2-0.1,0.4-0.2,0.6c-0.1,0.2-0.4,0.4-0.6,0.5s-0.6,0.3-0.9,0.4
		c-0.3,0.1-0.7,0.2-1.1,0.2c-0.7,0-1.2-0.2-1.5-0.5c-0.3-0.3-0.4-0.7-0.4-1.2c0-0.5,0.1-0.9,0.4-1.2c0.2-0.3,0.6-0.5,1-0.7
		c0.4-0.2,0.8-0.3,1.3-0.3c0.5-0.1,0.9-0.1,1.4-0.1h0.6V37z M44.3,39.9c-0.2-0.2-0.3-0.6-0.3-1c-0.1-0.5-0.1-1.1-0.1-2v-3.8
		c0-0.7-0.1-1.3-0.2-1.8c-0.1-0.5-0.4-0.9-0.7-1.3c-0.3-0.3-0.8-0.6-1.3-0.8c-0.5-0.2-1.2-0.3-2-0.3c-0.5,0-1,0-1.5,0.1
		c-0.5,0.1-0.9,0.2-1.3,0.3c-0.4,0.1-0.7,0.3-1,0.5c-0.3,0.2-0.4,0.4-0.4,0.6c0,0.1,0.1,0.3,0.1,0.6c0.1,0.3,0.2,0.5,0.4,0.8
		c0.5-0.3,1-0.6,1.5-0.8c0.5-0.2,1.1-0.3,1.9-0.3c0.9,0,1.5,0.2,1.8,0.5c0.3,0.3,0.5,0.8,0.5,1.5v0.4c-0.1,0-0.3,0-0.5,0
		s-0.3,0-0.5,0c-0.6,0-1.2,0.1-1.9,0.2c-0.7,0.1-1.3,0.3-1.9,0.6s-1.1,0.7-1.5,1.2c-0.4,0.5-0.6,1.2-0.6,2l0,0
		c0,0.7,0.1,1.2,0.3,1.6c0.2,0.4,0.5,0.8,0.8,1c0.3,0.3,0.7,0.4,1.1,0.5s0.8,0.1,1.3,0.1c0.9,0,1.5-0.1,2.1-0.4s1-0.6,1.3-1
		c0.1,0.5,0.3,0.8,0.6,0.9c0.3,0.2,0.7,0.3,1.2,0.3c0.1,0,0.3,0,0.4,0c0.1,0,0.2,0,0.3-0.1c0.1,0,0.1-0.1,0.1-0.2
		C44.4,39.9,44.3,39.9,44.3,39.9"/>
	<path id="path34" class="st1" d="M53.7,37.2c0,0.2-0.1,0.4-0.2,0.5s-0.3,0.3-0.5,0.5c-0.2,0.1-0.5,0.2-0.8,0.3s-0.6,0.1-1,0.1
		c-0.5,0-0.9-0.1-1.3-0.3c-0.3-0.2-0.6-0.5-0.9-0.8c-0.2-0.4-0.4-0.8-0.5-1.3c-0.1-0.5-0.1-1-0.1-1.6c0-1.2,0.2-2.2,0.7-2.8
		c0.5-0.6,1.1-1,1.9-1c0.3,0,0.7,0,0.9,0.1c0.3,0.1,0.5,0.2,0.7,0.3c0.2,0.1,0.4,0.2,0.5,0.4c0.1,0.1,0.2,0.2,0.3,0.3L53.7,37.2
		L53.7,37.2z M56.4,39.9c-0.2-0.2-0.3-0.6-0.3-1c-0.1-0.5-0.1-1.1-0.1-2V25.6c0-0.4,0-0.7-0.1-1c-0.1-0.2-0.2-0.4-0.4-0.6
		c-0.2-0.1-0.3-0.2-0.5-0.3c-0.2,0-0.4-0.1-0.6-0.1c-0.1,0-0.2,0-0.3,0c-0.1,0-0.2,0-0.3,0v6.3c-0.2-0.2-0.6-0.5-1.1-0.7
		c-0.5-0.2-1.1-0.3-1.9-0.3c-0.6,0-1.1,0.1-1.7,0.3s-1,0.6-1.4,1c-0.4,0.5-0.7,1.1-1,1.8c-0.2,0.7-0.4,1.6-0.4,2.6
		c0,1.1,0.1,1.9,0.4,2.7s0.6,1.3,1,1.7c0.4,0.4,0.9,0.7,1.5,0.9c0.5,0.2,1.1,0.3,1.7,0.3c0.8,0,1.5-0.2,2-0.5
		c0.5-0.3,0.9-0.6,1.1-0.9c0.1,0.5,0.3,0.8,0.6,0.9c0.3,0.2,0.7,0.3,1.2,0.3c0.1,0,0.3,0,0.4,0c0.1,0,0.2,0,0.3-0.1
		c0.1,0,0.1-0.1,0.1-0.2C56.5,39.9,56.5,39.9,56.4,39.9"/>
	<path id="path36" class="st1" d="M65.2,37c0,0.2-0.1,0.4-0.2,0.6c-0.1,0.2-0.4,0.4-0.6,0.5c-0.3,0.2-0.6,0.3-0.9,0.4
		c-0.3,0.1-0.7,0.2-1.1,0.2c-0.7,0-1.2-0.2-1.5-0.5c-0.3-0.3-0.4-0.7-0.4-1.2c0-0.5,0.1-0.9,0.4-1.2c0.2-0.3,0.6-0.5,1-0.7
		c0.4-0.2,0.8-0.3,1.3-0.3c0.5-0.1,0.9-0.1,1.4-0.1h0.6V37z M67.8,39.9c-0.2-0.2-0.3-0.6-0.4-1c-0.1-0.5-0.1-1.1-0.1-2v-3.8
		c0-0.7-0.1-1.3-0.2-1.8c-0.1-0.5-0.4-0.9-0.7-1.3c-0.3-0.3-0.8-0.6-1.3-0.8c-0.5-0.2-1.2-0.3-2-0.3c-0.5,0-1,0-1.5,0.1
		c-0.5,0.1-0.9,0.2-1.3,0.3c-0.4,0.1-0.7,0.3-1,0.5c-0.3,0.2-0.4,0.4-0.4,0.6c0,0.1,0.1,0.3,0.1,0.6c0.1,0.3,0.2,0.5,0.4,0.8
		c0.5-0.3,1-0.6,1.5-0.8c0.5-0.2,1.1-0.3,1.9-0.3c0.9,0,1.5,0.2,1.8,0.5c0.3,0.3,0.5,0.8,0.5,1.5v0.4c-0.1,0-0.3,0-0.5,0
		c-0.2,0-0.3,0-0.5,0c-0.6,0-1.2,0.1-1.9,0.2c-0.7,0.1-1.3,0.3-1.9,0.6c-0.6,0.3-1.1,0.7-1.5,1.2c-0.4,0.5-0.6,1.2-0.6,2l0,0
		c0,0.7,0.1,1.2,0.3,1.6c0.2,0.4,0.5,0.8,0.8,1c0.3,0.3,0.7,0.4,1.1,0.5s0.8,0.1,1.3,0.1c0.9,0,1.5-0.1,2.1-0.4s1-0.6,1.3-1
		c0.1,0.5,0.3,0.8,0.6,0.9c0.3,0.2,0.7,0.3,1.2,0.3c0.1,0,0.3,0,0.4,0c0.1,0,0.2,0,0.3-0.1c0.1,0,0.1-0.1,0.1-0.2
		C67.9,39.9,67.9,39.9,67.8,39.9"/>
	<path id="path38" class="st2" d="M91.3,27.2c0.8,0,1.5-0.7,1.6-1.5s-0.6-1.5-1.4-1.5s-1.5,0.7-1.6,1.5
		C89.9,26.6,90.5,27.2,91.3,27.2"/>
	<path id="path40" class="st2" d="M105,34.4c0-2.2,1.4-4.4,3.6-4.4c0.9,0,1.5,0.5,1.5,1.4c0,1.4-1.7,3.2-5,3.9
		C105.1,35,105,34.7,105,34.4z M95.9,47.3c-0.8,0-1.1-0.9-1.1-2.3c0-2.4,0.6-6.2,1.1-8.4l0.3-0.3c0.9,1.7,1.6,4.2,1.6,6.6
		C97.7,44.8,97.3,47.3,95.9,47.3z M101.5,21.5c0.5,0,0.6,0.4,0.6,1c0,2.3-2.5,6.8-5.7,10.8C98.4,24.6,100.5,21.5,101.5,21.5
		L101.5,21.5z M85.3,21.5c0.4,0,0.6,0.3,0.6,1.1c0,1.8-1.5,6.3-5,9.8C82.2,24.9,84.2,21.5,85.3,21.5L85.3,21.5z M109.1,38
		c-1.5,0-2.6-0.5-3.2-1.1c3.6-0.7,6.4-2.9,6.4-5.6c0-2.1-1.6-3.1-3.7-3.1c-3.2,0-5.8,2.6-5.8,6.2c0,0.4,0,0.9,0.1,1.1
		c-0.1,0-0.4,0-0.5,0c-1.9,0-3.3-0.3-4.7-0.8c4.3-5.1,6.5-8.8,6.5-12.1c0-1.8-0.9-2.9-2.7-2.9c-3,0-5.2,4-7.2,13.3
		c-0.1,0.7-0.6,3.1-0.6,3.1c-0.7,0.8-1.6,1.6-2.8,1.7c-0.8,0-1.4-0.5-1.4-1.6c0-1.7,0.9-4.2,1.5-6.1c0.3-0.9-1.6-1.4-2-0.5
		c-0.3,0.7-0.5,1.3-0.7,1.9c-1.8,4.3-3.9,6.4-6,6.4c-1.2,0-1.8-0.9-1.7-2.9c4-3.2,7.3-8.2,7.3-12.3c0-1.6-0.7-2.9-2.6-2.9
		c-2.7,0-4.7,3.8-5.8,8.8c-0.4,1.6-0.8,3.7-0.9,5.7c-1.6,1.1-3.4,2.2-5.5,2.9v1.9c2.1-0.8,4-1.8,5.5-2.7c0.2,2,1.3,3.4,3.5,3.4
		c1.9,0,3.8-1,5.3-3.1c0.1,1.7,1.2,3,3.2,3c1.1,0,2-0.4,2.7-0.9c-0.4,2.4-0.7,4.1-0.7,6.2c0,2.9,1.1,4.3,3.1,4.3
		c2.7,0,4.1-2.6,4.1-6.5c0-2.1-0.5-4.3-1.3-6.1c1,0.3,2.5,0.6,4,0.6c0.3,0,0.7,0,1,0c0.9,1.5,2.6,2.6,5.6,2.6c2.8,0,5.5-1,7.9-2.8
		v-2.4C115.2,36.3,112.5,38,109.1,38"/>
	<path id="path42" class="st1" d="M126.6,10.2l-1.4,3.7l-1.4-3.7h-0.8v4.4h0.5v-3.7h0l1.3,3.7h0.5l1.3-3.7h0v3.7h0.5v-4.4H126.6"/>
	<path id="path44" class="st1" d="M119,10.6h1.5v3.9h0.5v-3.9h1.5v-0.5H119V10.6"/>
</g>
</svg>
