<?xml version="1.0" encoding="UTF-8"?>
<svg xmlns="http://www.w3.org/2000/svg" xmlns:xlink="http://www.w3.org/1999/xlink" width="260px" height="89px" viewBox="0 0 258 89" version="1.1">
<g id="surface1">
<path style=" stroke:none;fill-rule:nonzero;fill:rgb(75.686275%,9.803922%,23.529412%);fill-opacity:1;" d="M 219.746094 40.582031 C 215.222656 40.582031 212.441406 45.101562 212.441406 49.632812 C 212.441406 50.34375 212.523438 50.878906 212.613281 51.390625 C 219.484375 50.066406 222.839844 46.394531 222.839844 43.480469 C 222.839844 41.648438 221.683594 40.582031 219.746094 40.582031 "/>
<path style=" stroke:none;fill-rule:nonzero;fill:rgb(75.686275%,9.803922%,23.529412%);fill-opacity:1;" d="M 184.84375 29.042969 C 186.511719 29.042969 187.808594 30.40625 187.734375 32.078125 C 187.660156 33.753906 186.242188 35.113281 184.570312 35.113281 C 182.898438 35.113281 181.605469 33.753906 181.679688 32.078125 C 181.757812 30.410156 183.175781 29.042969 184.84375 29.042969 Z M 158.640625 49.4375 C 158.933594 45.28125 159.734375 41.105469 160.496094 37.796875 C 162.832031 27.644531 166.78125 19.90625 172.359375 19.90625 C 176.234375 19.90625 177.679688 22.605469 177.710938 25.804688 C 177.792969 34.21875 170.972656 44.511719 162.851562 50.980469 C 162.746094 55.023438 164.039062 56.890625 166.40625 56.890625 C 170.660156 56.890625 174.902344 52.546875 178.554688 43.800781 C 179.050781 42.605469 179.527344 41.230469 180.050781 39.914062 C 180.78125 38.070312 184.605469 39.136719 184.054688 40.972656 C 182.882812 44.886719 181.007812 50.070312 181.007812 53.492188 C 181.007812 55.785156 182.15625 56.738281 183.851562 56.714844 C 186.207031 56.679688 188.136719 54.988281 189.519531 53.332031 C 189.519531 53.332031 190.488281 48.460938 190.773438 47.117188 C 194.757812 28.152344 199.355469 19.90625 205.390625 19.90625 C 208.992188 19.90625 210.820312 22.128906 210.820312 25.710938 C 210.820312 32.289062 206.300781 39.847656 197.605469 50.285156 C 200.316406 51.238281 203.300781 51.949219 207.109375 51.949219 C 207.332031 51.949219 207.855469 51.945312 208.074219 51.945312 C 207.992188 51.421875 207.914062 50.472656 207.914062 49.679688 C 207.914062 42.300781 213.179688 37.042969 219.675781 37.042969 C 223.921875 37.042969 227.226562 39.035156 227.226562 43.414062 C 227.226562 48.898438 221.429688 53.242188 214.121094 54.753906 C 215.257812 56.109375 217.492188 57.082031 220.621094 57.082031 C 227.636719 57.082031 233.042969 53.628906 236.625 50.269531 L 236.625 0.00390625 L 147.542969 0.00390625 L 147.542969 55.375 C 151.65625 53.839844 155.460938 51.746094 158.640625 49.4375 "/>
<path style=" stroke:none;fill-rule:nonzero;fill:rgb(75.686275%,9.803922%,23.529412%);fill-opacity:1;" d="M 205.335938 23.453125 C 203.195312 23.453125 198.863281 29.671875 195.105469 47.53125 C 201.472656 39.460938 206.636719 30.328125 206.636719 25.582031 C 206.636719 24.335938 206.273438 23.453125 205.335938 23.453125 "/>
<path style=" stroke:none;fill-rule:nonzero;fill:rgb(75.686275%,9.803922%,23.529412%);fill-opacity:1;" d="M 220.625 60.855469 C 214.511719 60.855469 211.070312 58.480469 209.226562 55.464844 C 208.628906 55.496094 207.917969 55.511719 207.273438 55.511719 C 204.058594 55.511719 201.144531 55.070312 199.058594 54.378906 C 200.71875 57.921875 201.792969 62.554688 201.78125 66.777344 C 201.761719 74.804688 198.878906 80.082031 193.378906 80.082031 C 189.460938 80.082031 187.230469 77.214844 187.152344 71.300781 C 187.09375 66.988281 187.667969 63.410156 188.515625 58.570312 C 187.183594 59.683594 185.320312 60.488281 183.082031 60.496094 C 179.039062 60.515625 176.789062 57.933594 176.628906 54.382812 C 173.480469 58.632812 169.699219 60.679688 165.75 60.679688 C 161.445312 60.679688 159.152344 57.90625 158.699219 53.769531 C 155.613281 55.734375 151.847656 57.785156 147.546875 59.324219 L 147.546875 89.304688 L 236.628906 89.304688 L 236.628906 55.113281 C 231.878906 58.898438 226.386719 60.855469 220.625 60.855469 "/>
<path style=" stroke:none;fill-rule:nonzero;fill:rgb(75.686275%,9.803922%,23.529412%);fill-opacity:1;" d="M 172.371094 23.457031 C 170.054688 23.457031 165.960938 30.40625 163.417969 45.664062 C 170.671875 38.566406 173.628906 29.382812 173.628906 25.734375 C 173.628906 24.046875 173.179688 23.457031 172.371094 23.457031 "/>
<path style=" stroke:none;fill-rule:nonzero;fill:rgb(75.686275%,9.803922%,23.529412%);fill-opacity:1;" d="M 193.722656 54.257812 C 192.777344 58.652344 191.484375 66.394531 191.484375 71.308594 C 191.484375 74.164062 192.101562 75.976562 193.753906 75.976562 C 196.625 75.976562 197.480469 70.910156 197.480469 67.164062 C 197.480469 62.308594 196.226562 57.195312 194.296875 53.660156 L 193.722656 54.257812 "/>
<path style=" stroke:none;fill-rule:nonzero;fill:rgb(48.627451%,49.411765%,41.176471%);fill-opacity:1;" d="M 4.710938 50.277344 C 4.710938 51.390625 4.828125 52.4375 5.070312 53.414062 C 5.308594 54.394531 5.6875 55.242188 6.207031 55.964844 C 6.726562 56.691406 7.402344 57.261719 8.234375 57.683594 C 9.070312 58.105469 10.0625 58.316406 11.226562 58.316406 C 12.0625 58.316406 12.816406 58.191406 13.480469 57.9375 C 14.148438 57.6875 14.714844 57.402344 15.179688 57.074219 C 15.738281 56.71875 16.238281 56.304688 16.671875 55.835938 C 16.921875 56.113281 17.238281 56.546875 17.632812 57.125 C 18.023438 57.703125 18.214844 58.234375 18.214844 58.726562 C 18.207031 58.886719 18.167969 59.046875 18.089844 59.210938 C 17.945312 59.519531 17.664062 59.847656 17.246094 60.199219 C 16.652344 60.714844 15.800781 61.160156 14.683594 61.53125 C 13.566406 61.902344 12.210938 62.089844 10.617188 62.089844 C 9.585938 62.089844 8.453125 61.945312 7.226562 61.65625 C 5.996094 61.367188 4.847656 60.796875 3.78125 59.9375 C 2.714844 59.085938 1.820312 57.898438 1.09375 56.371094 C 0.363281 54.835938 0 52.824219 0 50.320312 C 0 48 0.378906 46.085938 1.140625 44.578125 C 1.902344 43.070312 2.835938 41.886719 3.945312 41.023438 C 5.054688 40.160156 6.234375 39.558594 7.484375 39.214844 C 8.734375 38.871094 9.835938 38.699219 10.789062 38.699219 C 11.953125 38.699219 13.003906 38.820312 13.945312 39.066406 C 14.882812 39.308594 15.683594 39.632812 16.34375 40.015625 C 16.972656 40.378906 17.445312 40.757812 17.761719 41.148438 C 18.082031 41.542969 18.238281 41.933594 18.238281 42.335938 C 18.238281 43.101562 17.664062 44.21875 16.945312 45.171875 C 16.433594 44.585938 15.679688 43.992188 14.6875 43.40625 C 13.691406 42.820312 12.585938 42.523438 11.367188 42.523438 C 10.1875 42.523438 9.175781 42.714844 8.339844 43.109375 C 7.5 43.5 6.808594 44.046875 6.265625 44.753906 C 5.71875 45.460938 5.324219 46.289062 5.078125 47.234375 C 4.832031 48.179688 4.710938 49.199219 4.710938 50.277344 "/>
<path style=" stroke:none;fill-rule:nonzero;fill:rgb(48.627451%,49.411765%,41.176471%);fill-opacity:1;" d="M 35.648438 54.941406 C 35.648438 55.304688 35.492188 55.6875 35.183594 56.082031 C 34.875 56.480469 34.453125 56.84375 33.921875 57.175781 C 33.390625 57.511719 32.777344 57.792969 32.085938 58.019531 C 31.394531 58.25 30.664062 58.363281 29.894531 58.363281 C 28.449219 58.363281 27.464844 58.011719 26.929688 57.3125 C 26.398438 56.617188 26.136719 55.804688 26.136719 54.890625 C 26.136719 53.914062 26.386719 53.128906 26.886719 52.539062 C 27.390625 51.945312 28.035156 51.480469 28.832031 51.144531 C 29.628906 50.8125 30.515625 50.582031 31.488281 50.460938 C 32.460938 50.339844 33.417969 50.277344 34.367188 50.277344 L 35.648438 50.277344 Z M 41.019531 60.855469 C 40.671875 60.390625 40.433594 59.710938 40.300781 58.816406 C 40.15625 57.847656 40.085938 56.5 40.085938 54.78125 L 40.085938 46.992188 C 40.085938 45.621094 39.953125 44.414062 39.679688 43.363281 C 39.40625 42.316406 38.933594 41.441406 38.257812 40.742188 C 37.578125 40.046875 36.695312 39.519531 35.605469 39.167969 C 34.511719 38.820312 33.140625 38.644531 31.503906 38.644531 C 30.539062 38.644531 29.554688 38.726562 28.554688 38.886719 C 27.558594 39.050781 26.648438 39.277344 25.824219 39.566406 C 25.003906 39.855469 24.335938 40.191406 23.820312 40.5625 C 23.304688 40.933594 23.050781 41.332031 23.050781 41.75 C 23.050781 42.027344 23.148438 42.453125 23.351562 43.023438 C 23.554688 43.59375 23.820312 44.113281 24.152344 44.585938 C 25.121094 43.898438 26.121094 43.386719 27.15625 42.988281 C 28.191406 42.597656 29.464844 42.371094 30.964844 42.371094 C 32.773438 42.371094 34 42.71875 34.640625 43.410156 C 35.277344 44.105469 35.597656 45.113281 35.597656 46.4375 L 35.597656 47.179688 C 35.316406 47.152344 34.988281 47.136719 34.613281 47.136719 C 34.238281 47.136719 33.914062 47.136719 33.632812 47.136719 C 32.480469 47.167969 31.210938 47.292969 29.828125 47.511719 C 28.441406 47.730469 27.140625 48.136719 25.929688 48.730469 C 24.714844 49.328125 23.695312 50.136719 22.867188 51.171875 C 22.042969 52.199219 21.632812 53.53125 21.632812 55.15625 C 21.632812 56.5 21.855469 57.601562 22.308594 58.46875 C 22.757812 59.332031 23.332031 60.019531 24.023438 60.53125 C 24.714844 61.042969 25.488281 61.394531 26.339844 61.585938 C 27.195312 61.773438 28.039062 61.875 28.878906 61.875 C 30.613281 61.875 32.011719 61.601562 33.074219 61.0625 C 34.140625 60.523438 35.054688 59.867188 35.816406 59.097656 C 35.929688 60.019531 36.320312 60.660156 36.988281 61.023438 C 37.65625 61.382812 38.441406 61.5625 39.339844 61.5625 C 39.621094 61.5625 39.894531 61.550781 40.152344 61.523438 C 40.414062 61.492188 40.636719 61.460938 40.816406 61.414062 C 40.976562 61.378906 41.09375 61.242188 41.09375 61.070312 C 41.085938 60.984375 41.0625 60.914062 41.019531 60.855469 "/>
<path style=" stroke:none;fill-rule:nonzero;fill:rgb(48.627451%,49.411765%,41.176471%);fill-opacity:1;" d="M 65.046875 61.398438 L 60.449219 61.398438 L 60.449219 48.722656 C 60.449219 47.851562 60.417969 47.035156 60.359375 46.285156 C 60.296875 45.53125 60.132812 44.886719 59.867188 44.347656 C 59.597656 43.8125 59.171875 43.398438 58.574219 43.101562 C 57.980469 42.804688 57.152344 42.652344 56.085938 42.652344 C 54.582031 42.652344 53.296875 42.957031 52.226562 43.65625 C 51.152344 44.351562 50.617188 45.261719 50.617188 46.296875 L 50.617188 61.398438 L 46.003906 61.398438 L 46.003906 39.105469 C 46.070312 39.097656 46.152344 39.089844 46.25 39.082031 C 46.328125 39.074219 46.421875 39.066406 46.527344 39.066406 C 46.636719 39.0625 46.765625 39.0625 46.914062 39.0625 C 47.730469 39.0625 48.464844 39.25 49.121094 39.628906 C 49.773438 40.003906 50.175781 40.652344 50.316406 41.570312 C 51.03125 40.808594 52.011719 40.136719 53.242188 39.539062 C 54.476562 38.945312 55.9375 38.648438 57.625 38.648438 C 59.75 38.648438 61.378906 39.125 62.507812 40.078125 C 63.632812 41.03125 64.371094 42.222656 64.714844 43.652344 C 64.871094 44.285156 64.964844 44.992188 64.992188 45.769531 C 65.027344 46.546875 65.039062 47.304688 65.039062 48.03125 L 65.039062 61.398438 "/>
<path style=" stroke:none;fill-rule:nonzero;fill:rgb(48.627451%,49.411765%,41.176471%);fill-opacity:1;" d="M 83.597656 54.941406 C 83.597656 55.304688 83.441406 55.6875 83.132812 56.082031 C 82.824219 56.480469 82.402344 56.84375 81.871094 57.175781 C 81.335938 57.511719 80.726562 57.792969 80.035156 58.019531 C 79.339844 58.25 78.613281 58.363281 77.84375 58.363281 C 76.398438 58.363281 75.410156 58.011719 74.878906 57.3125 C 74.347656 56.617188 74.082031 55.804688 74.082031 54.890625 C 74.082031 53.914062 74.335938 53.128906 74.832031 52.539062 C 75.332031 51.945312 75.984375 51.480469 76.78125 51.144531 C 77.578125 50.8125 78.464844 50.582031 79.4375 50.460938 C 80.410156 50.339844 81.367188 50.277344 82.316406 50.277344 L 83.597656 50.277344 Z M 88.96875 60.855469 C 88.621094 60.390625 88.382812 59.710938 88.25 58.816406 C 88.105469 57.847656 88.035156 56.5 88.035156 54.78125 L 88.035156 46.992188 C 88.035156 45.621094 87.898438 44.414062 87.628906 43.363281 C 87.355469 42.316406 86.878906 41.441406 86.203125 40.742188 C 85.527344 40.046875 84.644531 39.519531 83.550781 39.167969 C 82.460938 38.820312 81.09375 38.644531 79.453125 38.644531 C 78.488281 38.644531 77.503906 38.726562 76.503906 38.886719 C 75.507812 39.050781 74.59375 39.277344 73.773438 39.566406 C 72.953125 39.855469 72.285156 40.191406 71.769531 40.5625 C 71.253906 40.933594 71 41.332031 71 41.75 C 71 42.027344 71.097656 42.453125 71.300781 43.023438 C 71.5 43.59375 71.769531 44.113281 72.097656 44.585938 C 73.070312 43.898438 74.070312 43.386719 75.105469 42.988281 C 76.140625 42.597656 77.410156 42.371094 78.914062 42.371094 C 80.722656 42.371094 81.949219 42.71875 82.585938 43.410156 C 83.226562 44.105469 83.542969 45.113281 83.542969 46.4375 L 83.542969 47.179688 C 83.261719 47.152344 82.9375 47.136719 82.5625 47.136719 C 82.1875 47.136719 81.863281 47.136719 81.582031 47.136719 C 80.429688 47.167969 79.160156 47.292969 77.773438 47.511719 C 76.386719 47.730469 75.089844 48.136719 73.875 48.730469 C 72.664062 49.328125 71.640625 50.136719 70.820312 51.171875 C 69.996094 52.199219 69.582031 53.53125 69.582031 55.15625 C 69.582031 56.5 69.804688 57.601562 70.261719 58.46875 C 70.710938 59.332031 71.28125 60.019531 71.976562 60.53125 C 72.667969 61.042969 73.441406 61.394531 74.292969 61.585938 C 75.148438 61.773438 75.988281 61.875 76.828125 61.875 C 78.566406 61.875 79.964844 61.601562 81.027344 61.0625 C 82.09375 60.523438 83.003906 59.867188 83.765625 59.097656 C 83.882812 60.019531 84.273438 60.660156 84.941406 61.023438 C 85.609375 61.382812 86.394531 61.5625 87.292969 61.5625 C 87.574219 61.5625 87.84375 61.550781 88.105469 61.523438 C 88.363281 61.492188 88.589844 61.460938 88.769531 61.414062 C 88.929688 61.378906 89.046875 61.242188 89.046875 61.070312 C 89.039062 60.984375 89.011719 60.914062 88.96875 60.855469 "/>
<path style=" stroke:none;fill-rule:nonzero;fill:rgb(48.627451%,49.411765%,41.176471%);fill-opacity:1;" d="M 108.089844 55.335938 C 108.089844 55.703125 107.976562 56.0625 107.742188 56.425781 C 107.503906 56.789062 107.171875 57.101562 106.734375 57.375 C 106.296875 57.648438 105.777344 57.875 105.179688 58.054688 C 104.582031 58.234375 103.933594 58.328125 103.234375 58.328125 C 102.179688 58.328125 101.296875 58.125 100.585938 57.714844 C 99.871094 57.304688 99.292969 56.734375 98.855469 55.996094 C 98.421875 55.253906 98.113281 54.386719 97.9375 53.390625 C 97.765625 52.394531 97.671875 51.308594 97.671875 50.128906 C 97.671875 47.589844 98.15625 45.675781 99.117188 44.375 C 100.082031 43.074219 101.394531 42.425781 103.054688 42.425781 C 103.757812 42.425781 104.382812 42.507812 104.9375 42.675781 C 105.488281 42.839844 105.980469 43.042969 106.40625 43.285156 C 106.824219 43.53125 107.175781 43.785156 107.457031 44.054688 C 107.710938 44.308594 107.921875 44.515625 108.089844 44.691406 Z M 113.601562 60.855469 C 113.253906 60.390625 113.015625 59.710938 112.882812 58.816406 C 112.738281 57.847656 112.667969 56.5 112.667969 54.78125 L 112.667969 31.828125 C 112.667969 31.023438 112.578125 30.375 112.394531 29.878906 C 112.207031 29.382812 111.957031 28.992188 111.636719 28.699219 C 111.320312 28.410156 110.957031 28.222656 110.554688 28.121094 C 110.148438 28.027344 109.75 27.976562 109.363281 27.976562 C 109.160156 27.976562 108.929688 27.980469 108.667969 27.992188 C 108.410156 28.003906 108.21875 28.019531 108.085938 28.039062 L 108.085938 40.917969 C 107.597656 40.453125 106.851562 39.980469 105.839844 39.5 C 104.828125 39.019531 103.542969 38.78125 101.972656 38.78125 C 100.789062 38.78125 99.640625 39.011719 98.535156 39.480469 C 97.425781 39.945312 96.457031 40.652344 95.625 41.601562 C 94.789062 42.550781 94.121094 43.769531 93.621094 45.261719 C 93.121094 46.753906 92.867188 48.527344 92.867188 50.578125 C 92.867188 52.742188 93.125 54.554688 93.636719 56.011719 C 94.148438 57.472656 94.835938 58.636719 95.699219 59.519531 C 96.558594 60.394531 97.546875 61.023438 98.652344 61.398438 C 99.757812 61.773438 100.898438 61.960938 102.082031 61.960938 C 103.726562 61.960938 105.078125 61.632812 106.136719 60.984375 C 107.195312 60.335938 107.945312 59.703125 108.386719 59.089844 C 108.503906 60.015625 108.894531 60.65625 109.5625 61.019531 C 110.230469 61.378906 111.015625 61.558594 111.914062 61.558594 C 112.195312 61.558594 112.46875 61.546875 112.726562 61.519531 C 112.988281 61.488281 113.210938 61.457031 113.390625 61.410156 C 113.550781 61.375 113.667969 61.238281 113.667969 61.066406 C 113.671875 60.984375 113.648438 60.914062 113.601562 60.855469 "/>
<path style=" stroke:none;fill-rule:nonzero;fill:rgb(48.627451%,49.411765%,41.176471%);fill-opacity:1;" d="M 131.394531 54.941406 C 131.394531 55.304688 131.238281 55.6875 130.925781 56.082031 C 130.617188 56.480469 130.195312 56.84375 129.664062 57.175781 C 129.132812 57.511719 128.523438 57.792969 127.828125 58.019531 C 127.136719 58.25 126.40625 58.363281 125.640625 58.363281 C 124.191406 58.363281 123.207031 58.011719 122.675781 57.3125 C 122.140625 56.617188 121.878906 55.804688 121.878906 54.890625 C 121.878906 53.914062 122.128906 53.128906 122.628906 52.539062 C 123.128906 51.945312 123.78125 51.480469 124.574219 51.144531 C 125.371094 50.8125 126.257812 50.582031 127.230469 50.460938 C 128.203125 50.339844 129.164062 50.277344 130.109375 50.277344 L 131.394531 50.277344 Z M 136.757812 60.855469 C 136.414062 60.390625 136.171875 59.710938 136.035156 58.816406 C 135.890625 57.847656 135.824219 56.5 135.824219 54.78125 L 135.824219 46.992188 C 135.824219 45.621094 135.6875 44.414062 135.414062 43.363281 C 135.140625 42.316406 134.667969 41.441406 133.992188 40.742188 C 133.316406 40.046875 132.433594 39.519531 131.339844 39.167969 C 130.246094 38.820312 128.882812 38.644531 127.238281 38.644531 C 126.273438 38.644531 125.289062 38.726562 124.292969 38.886719 C 123.292969 39.050781 122.382812 39.277344 121.5625 39.566406 C 120.742188 39.855469 120.070312 40.191406 119.554688 40.5625 C 119.042969 40.933594 118.78125 41.332031 118.78125 41.75 C 118.78125 42.027344 118.878906 42.453125 119.085938 43.023438 C 119.289062 43.59375 119.554688 44.113281 119.886719 44.585938 C 120.855469 43.898438 121.859375 43.386719 122.894531 42.988281 C 123.929688 42.597656 125.199219 42.371094 126.699219 42.371094 C 128.511719 42.371094 129.734375 42.71875 130.375 43.410156 C 131.011719 44.105469 131.332031 45.113281 131.332031 46.4375 L 131.332031 47.179688 C 131.050781 47.152344 130.726562 47.136719 130.351562 47.136719 C 129.976562 47.136719 129.648438 47.136719 129.367188 47.136719 C 128.21875 47.167969 126.945312 47.292969 125.5625 47.511719 C 124.175781 47.730469 122.875 48.136719 121.664062 48.730469 C 120.453125 49.328125 119.429688 50.136719 118.609375 51.171875 C 117.78125 52.199219 117.371094 53.53125 117.371094 55.15625 C 117.371094 56.5 117.59375 57.601562 118.046875 58.46875 C 118.496094 59.332031 119.070312 60.019531 119.761719 60.53125 C 120.457031 61.042969 121.226562 61.394531 122.082031 61.585938 C 122.933594 61.773438 123.78125 61.875 124.617188 61.875 C 126.351562 61.875 127.75 61.601562 128.816406 61.0625 C 129.878906 60.523438 130.796875 59.867188 131.554688 59.097656 C 131.667969 60.019531 132.0625 60.660156 132.730469 61.023438 C 133.398438 61.382812 134.179688 61.5625 135.082031 61.5625 C 135.359375 61.5625 135.632812 61.550781 135.890625 61.523438 C 136.152344 61.492188 136.375 61.460938 136.554688 61.414062 C 136.71875 61.378906 136.832031 61.242188 136.832031 61.070312 C 136.828125 60.984375 136.804688 60.914062 136.757812 60.855469 "/>
<path style=" stroke:none;fill-rule:nonzero;fill:rgb(100%,100%,100%);fill-opacity:1;" d="M 184.574219 35.113281 C 186.246094 35.113281 187.664062 33.753906 187.738281 32.078125 C 187.8125 30.40625 186.515625 29.042969 184.847656 29.042969 C 183.175781 29.042969 181.757812 30.40625 181.683594 32.078125 C 181.609375 33.753906 182.90625 35.113281 184.574219 35.113281 "/>
<path style=" stroke:none;fill-rule:nonzero;fill:rgb(100%,100%,100%);fill-opacity:1;" d="M 212.441406 49.636719 C 212.441406 45.105469 215.222656 40.585938 219.746094 40.585938 C 221.683594 40.585938 222.84375 41.648438 222.84375 43.484375 C 222.84375 46.394531 219.488281 50.066406 212.621094 51.394531 C 212.519531 50.882812 212.441406 50.347656 212.441406 49.636719 Z M 193.757812 75.976562 C 192.105469 75.976562 191.488281 74.160156 191.488281 71.308594 C 191.488281 66.398438 192.78125 58.65625 193.726562 54.257812 L 194.304688 53.660156 C 196.234375 57.191406 197.488281 62.308594 197.488281 67.164062 C 197.484375 70.910156 196.625 75.976562 193.757812 75.976562 Z M 205.335938 23.453125 C 206.273438 23.453125 206.636719 24.332031 206.636719 25.589844 C 206.636719 30.335938 201.472656 39.460938 195.105469 47.535156 C 198.863281 29.671875 203.195312 23.453125 205.335938 23.453125 Z M 172.371094 23.457031 C 173.183594 23.457031 173.628906 24.042969 173.628906 25.738281 C 173.628906 29.386719 170.671875 38.570312 163.417969 45.667969 C 165.960938 30.40625 170.050781 23.457031 172.371094 23.457031 Z M 220.621094 57.070312 C 217.492188 57.070312 215.257812 56.097656 214.121094 54.742188 C 221.433594 53.230469 227.226562 48.882812 227.226562 43.402344 C 227.226562 39.023438 223.921875 37.03125 219.675781 37.03125 C 213.179688 37.03125 207.914062 42.289062 207.914062 49.664062 C 207.914062 50.460938 207.992188 51.410156 208.074219 51.929688 C 207.855469 51.933594 207.332031 51.933594 207.109375 51.933594 C 203.300781 51.933594 200.316406 51.222656 197.605469 50.273438 C 206.300781 39.835938 210.820312 32.277344 210.820312 25.699219 C 210.820312 22.109375 208.988281 19.894531 205.390625 19.894531 C 199.359375 19.894531 194.757812 28.140625 190.773438 47.105469 C 190.488281 48.453125 189.519531 53.320312 189.519531 53.320312 C 188.140625 54.96875 186.210938 56.664062 183.851562 56.703125 C 182.15625 56.726562 181.007812 55.777344 181.007812 53.480469 C 181.007812 50.058594 182.882812 44.875 184.054688 40.960938 C 184.605469 39.128906 180.78125 38.0625 180.050781 39.902344 C 179.527344 41.222656 179.050781 42.597656 178.554688 43.785156 C 174.898438 52.535156 170.660156 56.878906 166.40625 56.878906 C 164.039062 56.878906 162.746094 55.015625 162.851562 50.96875 C 170.972656 44.496094 177.792969 34.207031 177.710938 25.789062 C 177.679688 22.597656 176.238281 19.894531 172.359375 19.894531 C 166.78125 19.894531 162.832031 27.628906 160.496094 37.785156 C 159.734375 41.09375 158.933594 45.269531 158.640625 49.425781 C 155.460938 51.738281 151.660156 53.832031 147.542969 55.367188 L 147.542969 59.3125 C 151.84375 57.773438 155.609375 55.71875 158.695312 53.757812 C 159.148438 57.898438 161.445312 60.667969 165.746094 60.667969 C 169.695312 60.667969 173.480469 58.621094 176.625 54.371094 C 176.785156 57.925781 179.035156 60.5 183.078125 60.484375 C 185.316406 60.476562 187.179688 59.675781 188.511719 58.558594 C 187.664062 63.402344 187.089844 66.976562 187.148438 71.289062 C 187.226562 77.199219 189.457031 80.070312 193.375 80.070312 C 198.878906 80.070312 201.757812 74.792969 201.777344 66.765625 C 201.785156 62.542969 200.710938 57.90625 199.054688 54.367188 C 201.144531 55.058594 204.054688 55.5 207.269531 55.5 C 207.914062 55.5 208.621094 55.484375 209.222656 55.453125 C 211.058594 58.46875 214.507812 60.84375 220.621094 60.84375 C 226.382812 60.84375 231.878906 58.886719 236.621094 55.101562 L 236.621094 50.242188 C 233.042969 53.613281 227.636719 57.070312 220.621094 57.070312 "/>
<path style=" stroke:none;fill-rule:nonzero;fill:rgb(48.627451%,49.411765%,41.176471%);fill-opacity:1;" d="M 256.328125 0.308594 L 253.542969 7.8125 L 250.761719 0.308594 L 249.089844 0.308594 L 249.089844 9.238281 L 250.203125 9.238281 L 250.203125 1.796875 L 250.265625 1.796875 L 252.988281 9.238281 L 254.101562 9.238281 L 256.824219 1.796875 L 256.882812 1.796875 L 256.882812 9.238281 L 257.996094 9.238281 L 257.996094 0.308594 L 256.328125 0.308594 "/>
<path style=" stroke:none;fill-rule:nonzero;fill:rgb(48.627451%,49.411765%,41.176471%);fill-opacity:1;" d="M 240.921875 1.300781 L 243.953125 1.300781 L 243.953125 9.238281 L 245.070312 9.238281 L 245.070312 1.300781 L 248.101562 1.300781 L 248.101562 0.308594 L 240.921875 0.308594 L 240.921875 1.300781 "/>
</g>
</svg>
