<?xml version="1.0" encoding="UTF-8"?>
<svg xmlns="http://www.w3.org/2000/svg" xmlns:xlink="http://www.w3.org/1999/xlink" width="211px" height="72px" viewBox="0 0 210 72" version="1.1">
<g id="surface1">
<path style=" stroke:none;fill-rule:nonzero;fill:rgb(75.686275%,9.803922%,23.529412%);fill-opacity:1;" d="M 178.296875 32.832031 C 174.640625 32.832031 172.394531 36.488281 172.394531 40.152344 C 172.394531 40.726562 172.460938 41.160156 172.535156 41.574219 C 178.082031 40.503906 180.792969 37.53125 180.792969 35.175781 C 180.792969 33.691406 179.859375 32.832031 178.296875 32.832031 "/>
<path style=" stroke:none;fill-rule:nonzero;fill:rgb(75.686275%,9.803922%,23.529412%);fill-opacity:1;" d="M 150.105469 23.496094 C 151.453125 23.496094 152.5 24.597656 152.4375 25.949219 C 152.378906 27.304688 151.234375 28.40625 149.882812 28.40625 C 148.535156 28.40625 147.488281 27.304688 147.550781 25.949219 C 147.613281 24.601562 148.757812 23.496094 150.105469 23.496094 Z M 128.941406 39.996094 C 129.175781 36.632812 129.824219 33.253906 130.4375 30.578125 C 132.324219 22.363281 135.515625 16.105469 140.019531 16.105469 C 143.152344 16.105469 144.316406 18.289062 144.34375 20.875 C 144.410156 27.683594 138.902344 36.007812 132.339844 41.242188 C 132.257812 44.511719 133.300781 46.023438 135.210938 46.023438 C 138.648438 46.023438 142.074219 42.511719 145.023438 35.433594 C 145.425781 34.46875 145.8125 33.355469 146.234375 32.289062 C 146.824219 30.796875 149.914062 31.660156 149.46875 33.144531 C 148.519531 36.3125 147.007812 40.507812 147.007812 43.273438 C 147.007812 45.128906 147.933594 45.902344 149.304688 45.882812 C 151.207031 45.851562 152.765625 44.484375 153.882812 43.144531 C 153.882812 43.144531 154.664062 39.203125 154.894531 38.117188 C 158.113281 22.773438 161.824219 16.105469 166.699219 16.105469 C 169.609375 16.105469 171.085938 17.902344 171.085938 20.800781 C 171.085938 26.121094 167.433594 32.234375 160.414062 40.679688 C 162.601562 41.453125 165.011719 42.027344 168.089844 42.027344 C 168.269531 42.027344 168.691406 42.023438 168.867188 42.023438 C 168.800781 41.601562 168.738281 40.832031 168.738281 40.191406 C 168.738281 34.222656 172.992188 29.96875 178.238281 29.96875 C 181.667969 29.96875 184.335938 31.578125 184.335938 35.121094 C 184.335938 39.558594 179.65625 43.074219 173.75 44.296875 C 174.667969 45.390625 176.472656 46.179688 179 46.179688 C 184.667969 46.179688 189.035156 43.386719 191.929688 40.667969 L 191.929688 0.00390625 L 119.976562 0.00390625 L 119.976562 44.796875 C 123.300781 43.554688 126.371094 41.863281 128.941406 39.996094 "/>
<path style=" stroke:none;fill-rule:nonzero;fill:rgb(75.686275%,9.803922%,23.529412%);fill-opacity:1;" d="M 166.65625 18.972656 C 164.925781 18.972656 161.429688 24.003906 158.394531 38.453125 C 163.535156 31.921875 167.707031 24.535156 167.707031 20.695312 C 167.707031 19.6875 167.414062 18.972656 166.65625 18.972656 "/>
<path style=" stroke:none;fill-rule:nonzero;fill:rgb(75.686275%,9.803922%,23.529412%);fill-opacity:1;" d="M 179.003906 49.230469 C 174.066406 49.230469 171.289062 47.308594 169.796875 44.871094 C 169.316406 44.894531 168.742188 44.910156 168.222656 44.910156 C 165.625 44.910156 163.269531 44.550781 161.585938 43.992188 C 162.925781 46.859375 163.792969 50.605469 163.785156 54.023438 C 163.769531 60.515625 161.441406 64.785156 157 64.785156 C 153.832031 64.785156 152.03125 62.464844 151.96875 57.679688 C 151.921875 54.191406 152.386719 51.296875 153.070312 47.382812 C 151.996094 48.285156 150.488281 48.933594 148.679688 48.941406 C 145.417969 48.957031 143.597656 46.867188 143.46875 43.996094 C 140.925781 47.433594 137.871094 49.089844 134.683594 49.089844 C 131.207031 49.089844 129.355469 46.84375 128.988281 43.5 C 126.496094 45.089844 123.453125 46.746094 119.980469 47.992188 L 119.980469 72.246094 L 191.929688 72.246094 L 191.929688 44.585938 C 188.09375 47.648438 183.660156 49.230469 179.003906 49.230469 "/>
<path style=" stroke:none;fill-rule:nonzero;fill:rgb(75.686275%,9.803922%,23.529412%);fill-opacity:1;" d="M 140.03125 18.976562 C 138.160156 18.976562 134.851562 24.597656 132.800781 36.941406 C 138.65625 31.199219 141.046875 23.769531 141.046875 20.820312 C 141.046875 19.453125 140.683594 18.976562 140.03125 18.976562 "/>
<path style=" stroke:none;fill-rule:nonzero;fill:rgb(75.686275%,9.803922%,23.529412%);fill-opacity:1;" d="M 157.277344 43.894531 C 156.511719 47.449219 155.46875 53.710938 155.46875 57.6875 C 155.46875 59.996094 155.964844 61.464844 157.300781 61.464844 C 159.621094 61.464844 160.3125 57.367188 160.3125 54.335938 C 160.3125 50.40625 159.296875 46.269531 157.738281 43.410156 L 157.277344 43.894531 "/>
<path style=" stroke:none;fill-rule:nonzero;fill:rgb(48.627451%,49.411765%,41.176471%);fill-opacity:1;" d="M 4.613281 40.671875 C 4.613281 41.574219 4.707031 42.421875 4.902344 43.210938 C 5.09375 44.003906 5.402344 44.691406 5.820312 45.273438 C 6.242188 45.863281 6.785156 46.324219 7.457031 46.664062 C 8.132812 47.007812 8.933594 47.175781 9.875 47.175781 C 10.550781 47.175781 11.160156 47.078125 11.695312 46.871094 C 12.234375 46.667969 12.691406 46.4375 13.066406 46.171875 C 13.519531 45.886719 13.921875 45.550781 14.273438 45.171875 C 14.476562 45.394531 14.730469 45.746094 15.050781 46.214844 C 15.363281 46.679688 15.519531 47.109375 15.519531 47.507812 C 15.511719 47.640625 15.480469 47.769531 15.417969 47.902344 C 15.300781 48.152344 15.074219 48.417969 14.738281 48.699219 C 14.257812 49.117188 13.570312 49.476562 12.667969 49.777344 C 11.765625 50.078125 10.671875 50.230469 9.382812 50.230469 C 8.550781 50.230469 7.636719 50.113281 6.644531 49.878906 C 5.652344 49.644531 4.722656 49.183594 3.863281 48.488281 C 3 47.800781 2.277344 46.839844 1.691406 45.605469 C 1.101562 44.363281 0.808594 42.734375 0.808594 40.707031 C 0.808594 38.832031 1.113281 37.28125 1.730469 36.0625 C 2.34375 34.84375 3.097656 33.886719 3.996094 33.1875 C 4.890625 32.488281 5.84375 32.003906 6.851562 31.722656 C 7.863281 31.445312 8.753906 31.308594 9.523438 31.308594 C 10.460938 31.308594 11.3125 31.40625 12.070312 31.605469 C 12.828125 31.800781 13.476562 32.0625 14.007812 32.371094 C 14.515625 32.667969 14.898438 32.972656 15.152344 33.289062 C 15.414062 33.609375 15.539062 33.921875 15.539062 34.25 C 15.539062 34.867188 15.074219 35.773438 14.496094 36.542969 C 14.082031 36.070312 13.472656 35.589844 12.671875 35.113281 C 11.867188 34.640625 10.972656 34.402344 9.988281 34.402344 C 9.035156 34.402344 8.21875 34.554688 7.542969 34.875 C 6.867188 35.191406 6.308594 35.632812 5.867188 36.207031 C 5.425781 36.777344 5.109375 37.449219 4.910156 38.210938 C 4.710938 38.976562 4.613281 39.800781 4.613281 40.671875 "/>
<path style=" stroke:none;fill-rule:nonzero;fill:rgb(48.627451%,49.411765%,41.176471%);fill-opacity:1;" d="M 29.601562 44.445312 C 29.601562 44.742188 29.472656 45.050781 29.226562 45.371094 C 28.976562 45.691406 28.636719 45.984375 28.207031 46.253906 C 27.777344 46.527344 27.28125 46.753906 26.722656 46.9375 C 26.164062 47.125 25.574219 47.214844 24.953125 47.214844 C 23.785156 47.214844 22.992188 46.929688 22.558594 46.363281 C 22.128906 45.800781 21.917969 45.144531 21.917969 44.40625 C 21.917969 43.617188 22.121094 42.980469 22.523438 42.503906 C 22.929688 42.023438 23.453125 41.648438 24.09375 41.375 C 24.738281 41.105469 25.453125 40.921875 26.242188 40.824219 C 27.027344 40.722656 27.800781 40.671875 28.566406 40.671875 L 29.601562 40.671875 Z M 33.9375 49.230469 C 33.65625 48.855469 33.464844 48.304688 33.359375 47.582031 C 33.242188 46.796875 33.183594 45.707031 33.183594 44.316406 L 33.183594 38.015625 C 33.183594 36.90625 33.078125 35.929688 32.855469 35.082031 C 32.636719 34.234375 32.253906 33.527344 31.707031 32.960938 C 31.160156 32.398438 30.445312 31.972656 29.566406 31.6875 C 28.683594 31.40625 27.574219 31.261719 26.253906 31.261719 C 25.472656 31.261719 24.679688 31.328125 23.871094 31.457031 C 23.066406 31.589844 22.332031 31.773438 21.664062 32.007812 C 21.003906 32.242188 20.464844 32.515625 20.046875 32.816406 C 19.628906 33.113281 19.425781 33.4375 19.425781 33.773438 C 19.425781 34 19.503906 34.34375 19.667969 34.804688 C 19.832031 35.265625 20.046875 35.6875 20.316406 36.070312 C 21.097656 35.511719 21.90625 35.097656 22.742188 34.777344 C 23.578125 34.460938 24.605469 34.277344 25.816406 34.277344 C 27.277344 34.277344 28.269531 34.558594 28.785156 35.117188 C 29.300781 35.679688 29.558594 36.496094 29.558594 37.566406 L 29.558594 38.167969 C 29.332031 38.144531 29.066406 38.132812 28.765625 38.132812 C 28.460938 38.132812 28.199219 38.132812 27.972656 38.132812 C 27.042969 38.160156 26.015625 38.257812 24.898438 38.4375 C 23.78125 38.613281 22.730469 38.941406 21.75 39.421875 C 20.769531 39.90625 19.945312 40.558594 19.277344 41.398438 C 18.613281 42.230469 18.28125 43.304688 18.28125 44.621094 C 18.28125 45.707031 18.460938 46.597656 18.828125 47.300781 C 19.1875 48 19.652344 48.554688 20.210938 48.96875 C 20.769531 49.382812 21.394531 49.667969 22.082031 49.824219 C 22.773438 49.972656 23.453125 50.054688 24.132812 50.054688 C 25.535156 50.054688 26.664062 49.835938 27.523438 49.398438 C 28.382812 48.960938 29.121094 48.433594 29.734375 47.808594 C 29.828125 48.554688 30.144531 49.074219 30.683594 49.367188 C 31.222656 49.65625 31.855469 49.804688 32.582031 49.804688 C 32.808594 49.804688 33.03125 49.792969 33.238281 49.773438 C 33.449219 49.746094 33.628906 49.722656 33.773438 49.683594 C 33.902344 49.65625 34 49.542969 34 49.40625 C 33.992188 49.335938 33.972656 49.277344 33.9375 49.230469 "/>
<path style=" stroke:none;fill-rule:nonzero;fill:rgb(48.627451%,49.411765%,41.176471%);fill-opacity:1;" d="M 53.34375 49.671875 L 49.632812 49.671875 L 49.632812 39.417969 C 49.632812 38.710938 49.605469 38.050781 49.558594 37.445312 C 49.507812 36.835938 49.375 36.3125 49.160156 35.875 C 48.945312 35.445312 48.601562 35.109375 48.117188 34.867188 C 47.636719 34.628906 46.96875 34.503906 46.109375 34.503906 C 44.894531 34.503906 43.855469 34.75 42.992188 35.316406 C 42.125 35.878906 41.691406 36.617188 41.691406 37.453125 L 41.691406 49.671875 L 37.964844 49.671875 L 37.964844 31.636719 C 38.019531 31.628906 38.085938 31.625 38.164062 31.617188 C 38.226562 31.609375 38.300781 31.605469 38.386719 31.605469 C 38.476562 31.601562 38.578125 31.601562 38.699219 31.601562 C 39.359375 31.601562 39.953125 31.753906 40.484375 32.058594 C 41.007812 32.363281 41.335938 32.886719 41.449219 33.628906 C 42.023438 33.015625 42.816406 32.46875 43.8125 31.988281 C 44.808594 31.507812 45.988281 31.265625 47.351562 31.265625 C 49.066406 31.265625 50.382812 31.652344 51.292969 32.421875 C 52.203125 33.195312 52.800781 34.15625 53.078125 35.3125 C 53.203125 35.828125 53.28125 36.398438 53.300781 37.027344 C 53.328125 37.65625 53.339844 38.269531 53.339844 38.855469 L 53.339844 49.671875 "/>
<path style=" stroke:none;fill-rule:nonzero;fill:rgb(48.627451%,49.411765%,41.176471%);fill-opacity:1;" d="M 68.328125 44.445312 C 68.328125 44.742188 68.203125 45.050781 67.953125 45.371094 C 67.703125 45.691406 67.363281 45.984375 66.933594 46.253906 C 66.503906 46.527344 66.011719 46.753906 65.453125 46.9375 C 64.890625 47.125 64.304688 47.214844 63.679688 47.214844 C 62.515625 47.214844 61.714844 46.929688 61.285156 46.363281 C 60.859375 45.800781 60.644531 45.144531 60.644531 44.40625 C 60.644531 43.617188 60.847656 42.980469 61.25 42.503906 C 61.652344 42.023438 62.179688 41.648438 62.824219 41.375 C 63.46875 41.105469 64.183594 40.921875 64.96875 40.824219 C 65.753906 40.722656 66.527344 40.671875 67.292969 40.671875 L 68.328125 40.671875 Z M 72.667969 49.230469 C 72.386719 48.855469 72.195312 48.304688 72.085938 47.582031 C 71.96875 46.796875 71.914062 45.707031 71.914062 44.316406 L 71.914062 38.015625 C 71.914062 36.90625 71.800781 35.929688 71.585938 35.082031 C 71.363281 34.234375 70.980469 33.527344 70.433594 32.960938 C 69.886719 32.398438 69.175781 31.972656 68.289062 31.6875 C 67.410156 31.40625 66.304688 31.261719 64.980469 31.261719 C 64.203125 31.261719 63.40625 31.328125 62.597656 31.457031 C 61.792969 31.589844 61.054688 31.773438 60.394531 32.007812 C 59.730469 32.242188 59.191406 32.515625 58.773438 32.816406 C 58.359375 33.113281 58.152344 33.4375 58.152344 33.773438 C 58.152344 34 58.234375 34.34375 58.398438 34.804688 C 58.558594 35.265625 58.773438 35.6875 59.039062 36.070312 C 59.824219 35.511719 60.632812 35.097656 61.46875 34.777344 C 62.304688 34.460938 63.332031 34.277344 64.546875 34.277344 C 66.007812 34.277344 66.996094 34.558594 67.511719 35.117188 C 68.027344 35.679688 68.285156 36.496094 68.285156 37.566406 L 68.285156 38.167969 C 68.058594 38.144531 67.796875 38.132812 67.492188 38.132812 C 67.191406 38.132812 66.929688 38.132812 66.699219 38.132812 C 65.769531 38.160156 64.746094 38.257812 63.625 38.4375 C 62.503906 38.613281 61.457031 38.941406 60.476562 39.421875 C 59.496094 39.90625 58.671875 40.558594 58.007812 41.398438 C 57.34375 42.230469 57.007812 43.304688 57.007812 44.621094 C 57.007812 45.707031 57.1875 46.597656 57.558594 47.300781 C 57.921875 48 58.382812 48.554688 58.941406 48.96875 C 59.5 49.382812 60.125 49.667969 60.8125 49.824219 C 61.503906 49.972656 62.183594 50.054688 62.859375 50.054688 C 64.265625 50.054688 65.394531 49.835938 66.253906 49.398438 C 67.113281 48.960938 67.847656 48.433594 68.464844 47.808594 C 68.558594 48.554688 68.875 49.074219 69.414062 49.367188 C 69.953125 49.65625 70.585938 49.804688 71.3125 49.804688 C 71.539062 49.804688 71.757812 49.792969 71.96875 49.773438 C 72.179688 49.746094 72.359375 49.722656 72.507812 49.683594 C 72.636719 49.65625 72.730469 49.542969 72.730469 49.40625 C 72.722656 49.335938 72.703125 49.277344 72.667969 49.230469 "/>
<path style=" stroke:none;fill-rule:nonzero;fill:rgb(48.627451%,49.411765%,41.176471%);fill-opacity:1;" d="M 88.109375 44.765625 C 88.109375 45.0625 88.019531 45.355469 87.832031 45.648438 C 87.636719 45.941406 87.371094 46.195312 87.015625 46.414062 C 86.664062 46.636719 86.242188 46.820312 85.761719 46.964844 C 85.277344 47.109375 84.753906 47.1875 84.1875 47.1875 C 83.335938 47.1875 82.625 47.023438 82.050781 46.691406 C 81.472656 46.359375 81.007812 45.898438 80.652344 45.300781 C 80.300781 44.699219 80.054688 44 79.910156 43.191406 C 79.773438 42.386719 79.695312 41.507812 79.695312 40.554688 C 79.695312 38.5 80.085938 36.953125 80.863281 35.898438 C 81.644531 34.847656 82.703125 34.320312 84.042969 34.320312 C 84.613281 34.320312 85.117188 34.386719 85.566406 34.523438 C 86.007812 34.65625 86.40625 34.820312 86.75 35.015625 C 87.089844 35.214844 87.371094 35.421875 87.601562 35.640625 C 87.804688 35.84375 87.976562 36.011719 88.109375 36.15625 Z M 92.5625 49.230469 C 92.28125 48.855469 92.089844 48.304688 91.980469 47.582031 C 91.867188 46.796875 91.808594 45.707031 91.808594 44.316406 L 91.808594 25.75 C 91.808594 25.097656 91.734375 24.574219 91.585938 24.171875 C 91.4375 23.769531 91.234375 23.453125 90.976562 23.21875 C 90.71875 22.984375 90.425781 22.832031 90.101562 22.75 C 89.773438 22.671875 89.453125 22.632812 89.140625 22.632812 C 88.976562 22.632812 88.789062 22.636719 88.578125 22.644531 C 88.371094 22.65625 88.214844 22.667969 88.109375 22.683594 L 88.109375 33.101562 C 87.714844 32.726562 87.109375 32.34375 86.292969 31.953125 C 85.476562 31.566406 84.4375 31.375 83.171875 31.375 C 82.214844 31.375 81.285156 31.558594 80.394531 31.9375 C 79.496094 32.316406 78.714844 32.886719 78.042969 33.65625 C 77.367188 34.421875 76.828125 35.410156 76.425781 36.617188 C 76.019531 37.824219 75.816406 39.257812 75.816406 40.917969 C 75.816406 42.667969 76.023438 44.132812 76.4375 45.3125 C 76.851562 46.496094 77.40625 47.4375 78.101562 48.152344 C 78.796875 48.859375 79.59375 49.367188 80.488281 49.671875 C 81.382812 49.972656 82.300781 50.125 83.257812 50.125 C 84.585938 50.125 85.679688 49.859375 86.535156 49.335938 C 87.386719 48.8125 87.996094 48.300781 88.351562 47.804688 C 88.445312 48.550781 88.761719 49.070312 89.300781 49.363281 C 89.839844 49.65625 90.472656 49.800781 91.199219 49.800781 C 91.425781 49.800781 91.648438 49.789062 91.855469 49.769531 C 92.066406 49.742188 92.246094 49.71875 92.390625 49.679688 C 92.523438 49.652344 92.617188 49.542969 92.617188 49.402344 C 92.621094 49.335938 92.601562 49.277344 92.5625 49.230469 "/>
<path style=" stroke:none;fill-rule:nonzero;fill:rgb(48.627451%,49.411765%,41.176471%);fill-opacity:1;" d="M 106.933594 44.445312 C 106.933594 44.742188 106.808594 45.050781 106.554688 45.371094 C 106.304688 45.691406 105.964844 45.984375 105.535156 46.253906 C 105.105469 46.527344 104.613281 46.753906 104.054688 46.9375 C 103.496094 47.125 102.90625 47.214844 102.285156 47.214844 C 101.117188 47.214844 100.320312 46.929688 99.890625 46.363281 C 99.460938 45.800781 99.25 45.144531 99.25 44.40625 C 99.25 43.617188 99.449219 42.980469 99.855469 42.503906 C 100.257812 42.023438 100.785156 41.648438 101.425781 41.375 C 102.070312 41.105469 102.785156 40.921875 103.570312 40.824219 C 104.355469 40.722656 105.132812 40.671875 105.894531 40.671875 L 106.933594 40.671875 Z M 111.265625 49.230469 C 110.988281 48.855469 110.792969 48.304688 110.683594 47.582031 C 110.566406 46.796875 110.511719 45.707031 110.511719 44.316406 L 110.511719 38.015625 C 110.511719 36.90625 110.402344 35.929688 110.179688 35.082031 C 109.960938 34.234375 109.578125 33.527344 109.03125 32.960938 C 108.484375 32.398438 107.773438 31.972656 106.890625 31.6875 C 106.007812 31.40625 104.90625 31.261719 103.578125 31.261719 C 102.796875 31.261719 102.003906 31.328125 101.199219 31.457031 C 100.390625 31.589844 99.65625 31.773438 98.992188 32.007812 C 98.332031 32.242188 97.789062 32.515625 97.371094 32.816406 C 96.957031 33.113281 96.746094 33.4375 96.746094 33.773438 C 96.746094 34 96.824219 34.34375 96.992188 34.804688 C 97.15625 35.265625 97.371094 35.6875 97.640625 36.070312 C 98.421875 35.511719 99.234375 35.097656 100.070312 34.777344 C 100.90625 34.460938 101.929688 34.277344 103.140625 34.277344 C 104.605469 34.277344 105.59375 34.558594 106.109375 35.117188 C 106.625 35.679688 106.882812 36.496094 106.882812 37.566406 L 106.882812 38.167969 C 106.65625 38.144531 106.394531 38.132812 106.089844 38.132812 C 105.789062 38.132812 105.523438 38.132812 105.296875 38.132812 C 104.367188 38.160156 103.339844 38.257812 102.222656 38.4375 C 101.101562 38.613281 100.054688 38.941406 99.074219 39.421875 C 98.097656 39.90625 97.269531 40.558594 96.609375 41.398438 C 95.9375 42.230469 95.609375 43.304688 95.609375 44.621094 C 95.609375 45.707031 95.789062 46.597656 96.152344 47.300781 C 96.515625 48 96.980469 48.554688 97.539062 48.96875 C 98.101562 49.382812 98.722656 49.667969 99.414062 49.824219 C 100.101562 49.972656 100.785156 50.054688 101.460938 50.054688 C 102.859375 50.054688 103.992188 49.835938 104.851562 49.398438 C 105.710938 48.960938 106.453125 48.433594 107.0625 47.808594 C 107.15625 48.554688 107.472656 49.074219 108.011719 49.367188 C 108.550781 49.65625 109.183594 49.804688 109.914062 49.804688 C 110.136719 49.804688 110.355469 49.792969 110.566406 49.773438 C 110.777344 49.746094 110.957031 49.722656 111.101562 49.683594 C 111.234375 49.65625 111.324219 49.542969 111.324219 49.40625 C 111.324219 49.335938 111.304688 49.277344 111.265625 49.230469 "/>
<path style=" stroke:none;fill-rule:nonzero;fill:rgb(100%,100%,100%);fill-opacity:1;" d="M 149.886719 28.40625 C 151.238281 28.40625 152.382812 27.304688 152.441406 25.949219 C 152.503906 24.597656 151.453125 23.496094 150.109375 23.496094 C 148.757812 23.496094 147.613281 24.597656 147.550781 25.949219 C 147.492188 27.304688 148.539062 28.40625 149.886719 28.40625 "/>
<path style=" stroke:none;fill-rule:nonzero;fill:rgb(100%,100%,100%);fill-opacity:1;" d="M 172.394531 40.15625 C 172.394531 36.488281 174.640625 32.832031 178.296875 32.832031 C 179.859375 32.832031 180.796875 33.691406 180.796875 35.179688 C 180.796875 37.53125 178.085938 40.503906 172.539062 41.578125 C 172.457031 41.164062 172.394531 40.730469 172.394531 40.15625 Z M 157.304688 61.464844 C 155.96875 61.464844 155.472656 59.996094 155.472656 57.6875 C 155.472656 53.714844 156.515625 47.453125 157.277344 43.894531 L 157.746094 43.410156 C 159.304688 46.265625 160.316406 50.40625 160.316406 54.335938 C 160.3125 57.367188 159.621094 61.464844 157.304688 61.464844 Z M 166.65625 18.972656 C 167.414062 18.972656 167.707031 19.683594 167.707031 20.703125 C 167.707031 24.542969 163.535156 31.921875 158.394531 38.457031 C 161.429688 24.003906 164.925781 18.972656 166.65625 18.972656 Z M 140.03125 18.976562 C 140.6875 18.976562 141.046875 19.449219 141.046875 20.820312 C 141.046875 23.773438 138.65625 31.203125 132.800781 36.945312 C 134.851562 24.597656 138.15625 18.976562 140.03125 18.976562 Z M 179 46.167969 C 176.472656 46.167969 174.667969 45.382812 173.75 44.285156 C 179.65625 43.0625 184.335938 39.546875 184.335938 35.113281 C 184.335938 31.570312 181.667969 29.957031 178.238281 29.957031 C 172.992188 29.957031 168.738281 34.210938 168.738281 40.175781 C 168.738281 40.824219 168.800781 41.589844 168.867188 42.011719 C 168.691406 42.015625 168.269531 42.015625 168.089844 42.015625 C 165.011719 42.015625 162.601562 41.4375 160.414062 40.671875 C 167.433594 32.226562 171.085938 26.113281 171.085938 20.789062 C 171.085938 17.886719 169.605469 16.09375 166.699219 16.09375 C 161.828125 16.09375 158.113281 22.765625 154.894531 38.109375 C 154.664062 39.199219 153.882812 43.136719 153.882812 43.136719 C 152.765625 44.46875 151.207031 45.839844 149.304688 45.871094 C 147.933594 45.890625 147.007812 45.125 147.007812 43.265625 C 147.007812 40.496094 148.519531 36.304688 149.46875 33.136719 C 149.914062 31.65625 146.824219 30.792969 146.234375 32.28125 C 145.8125 33.347656 145.425781 34.460938 145.023438 35.421875 C 142.070312 42.5 138.648438 46.015625 135.210938 46.015625 C 133.300781 46.015625 132.257812 44.507812 132.339844 41.234375 C 138.902344 35.996094 144.410156 27.671875 144.34375 20.863281 C 144.316406 18.28125 143.152344 16.09375 140.019531 16.09375 C 135.515625 16.09375 132.324219 22.351562 130.4375 30.566406 C 129.824219 33.246094 129.175781 36.621094 128.941406 39.984375 C 126.371094 41.855469 123.300781 43.550781 119.976562 44.792969 L 119.976562 47.984375 C 123.449219 46.738281 126.492188 45.074219 128.984375 43.488281 C 129.351562 46.839844 131.207031 49.078125 134.679688 49.078125 C 137.871094 49.078125 140.925781 47.421875 143.464844 43.984375 C 143.59375 46.859375 145.414062 48.945312 148.679688 48.929688 C 150.484375 48.925781 151.992188 48.277344 153.066406 47.375 C 152.382812 51.292969 151.917969 54.183594 151.964844 57.671875 C 152.027344 62.453125 153.832031 64.777344 156.996094 64.777344 C 161.441406 64.777344 163.765625 60.507812 163.78125 54.011719 C 163.789062 50.597656 162.921875 46.84375 161.582031 43.984375 C 163.269531 44.542969 165.621094 44.898438 168.21875 44.898438 C 168.738281 44.898438 169.308594 44.886719 169.796875 44.859375 C 171.277344 47.300781 174.0625 49.222656 179 49.222656 C 183.65625 49.222656 188.09375 47.640625 191.925781 44.578125 L 191.925781 40.644531 C 189.035156 43.371094 184.667969 46.167969 179 46.167969 "/>
<path style=" stroke:none;fill-rule:nonzero;fill:rgb(48.627451%,49.411765%,41.176471%);fill-opacity:1;" d="M 207.84375 0.25 L 205.59375 6.320312 L 203.347656 0.25 L 201.996094 0.25 L 201.996094 7.472656 L 202.894531 7.472656 L 202.894531 1.453125 L 202.945312 1.453125 L 205.144531 7.472656 L 206.042969 7.472656 L 208.242188 1.453125 L 208.289062 1.453125 L 208.289062 7.472656 L 209.1875 7.472656 L 209.1875 0.25 L 207.84375 0.25 "/>
<path style=" stroke:none;fill-rule:nonzero;fill:rgb(48.627451%,49.411765%,41.176471%);fill-opacity:1;" d="M 195.398438 1.050781 L 197.847656 1.050781 L 197.847656 7.472656 L 198.75 7.472656 L 198.75 1.050781 L 201.199219 1.050781 L 201.199219 0.25 L 195.398438 0.25 L 195.398438 1.050781 "/>
</g>
</svg>
