<?xml version="1.0" encoding="UTF-8"?>
<svg id="Ebene_1" data-name="Ebene 1" xmlns="http://www.w3.org/2000/svg" viewBox="0 0 128 64">
  <defs>
    <style>
      .cls-1 {
        fill: #32bef0;
      }

      .cls-2 {
        fill: #002c5c;
      }
    </style>
  </defs>
  <path class="cls-2" d="M17.31,32.97v10.99h2.84v-4.51h1.79v4.51h2.84v-10.99h-2.84v4.04h-1.79v-4.04h-2.84ZM28.34,32.97l-2.68,10.99h3.03l.31-1.9h2.25l.31,1.9h3.07l-2.68-10.99h-3.61ZM30.13,35.22l.82,4.66h-1.63l.82-4.66ZM35.49,32.97v10.99h2.68v-6.8h.04l1.9,6.8h3.15v-10.99h-2.68v6.8h-.04l-1.86-6.8h-3.19ZM45.01,32.97v10.99h2.68v-6.8l1.94,6.8h3.15v-10.99h-2.72v6.8l-1.86-6.8h-3.19ZM54.18,38.49c0,4.12,1.01,5.71,3.92,5.71s3.92-1.59,3.92-5.71-.97-5.71-3.92-5.71-3.92,1.59-3.92,5.71ZM57.13,38.49c0-2.99.12-3.77.97-3.77s.97.78.97,3.77-.08,3.77-.97,3.77-.97-.82-.97-3.77ZM62.57,32.97l2.37,10.99h3.69l2.37-10.99h-3.03l-1.17,8.31h-.04l-1.17-8.31h-3.03ZM72.17,32.97v10.99h6.64v-2.33h-3.77v-2.18h3.42v-2.25h-3.42v-1.9h3.65v-2.33h-6.53ZM80.33,32.97v10.99h2.87v-4.39h.78c.66,0,.93.31.93,1.55v.74c0,.47,0,1.52.27,2.1h3.03v-.16c-.16-.08-.23-.19-.31-.31-.12-.23-.12-.97-.12-1.55v-.93c0-1.44-.43-2.33-1.83-2.45v-.04c1.32-.19,1.9-1.17,1.9-2.6,0-1.71-.85-2.95-3.03-2.95h-4.51ZM83.2,37.63v-2.6h.54c.89,0,1.24.39,1.24,1.28,0,.78-.39,1.32-1.2,1.32h-.58ZM93.54,36.16h2.68c0-2.37-1.05-3.38-3.54-3.38s-3.61,1.2-3.61,3.42c0,3.89,4.51,2.84,4.51,5.01,0,.58-.35,1.05-.93,1.05-.54,0-.93-.35-.93-1.28v-.27h-2.8v.39c0,2.29,1.32,3.11,3.73,3.11s3.89-1.05,3.89-3.38c0-4.04-4.7-2.95-4.7-5.13,0-.51.27-.97.89-.97.58,0,.82.51.82,1.17v.27ZM102.16,36.31v.62h2.8v-.7c0-2.1-.97-3.46-3.57-3.46-2.99,0-3.92,1.48-3.92,5.71s.7,5.71,3.92,5.71c1.83,0,3.61-.74,3.61-3.81v-.82h-2.76c0,2.06-.16,2.68-.85,2.68-.89,0-.97-.82-.97-3.77s.08-3.77.97-3.77c.54,0,.78.35.78,1.59ZM106.28,32.97v10.99h2.87v-4.51h1.75v4.51h2.87v-10.99h-2.87v4.04h-1.75v-4.04h-2.87ZM115.45,32.97v10.99h6.64v-2.33h-3.81v-2.18h3.46v-2.25h-3.46v-1.9h3.69v-2.33h-6.53Z"/>
  <polygon class="cls-1" points="10.24 32.97 7.91 32.97 5.5 43.97 7.79 43.97 10.24 32.97"/>
  <polygon class="cls-1" points="14.44 32.97 12.1 32.97 9.7 43.97 12.03 43.97 14.44 32.97"/>
  <path class="cls-1" d="M84.33,26.17c-2.26,0-4.23.66-5.98,1.67l1.33-5.71h13l.51-2.25h-15.31l-.08.43-2.33,10.57h2.53c1.75-1.63,3.92-2.49,6.33-2.49s4.58.85,6.29,2.49h3.38c-2.25-2.84-5.87-4.7-9.67-4.7Z"/>
  <polygon class="cls-1" points="72.25 19.88 66.57 22.13 66.07 24.39 71.03 22.45 69.18 30.87 71.51 30.87 73.92 19.88 72.25 19.88"/>
  <polygon class="cls-1" points="116.11 29.51 116.11 29.09 114.83 29.09 114.83 28.23 116.3 28.23 116.3 27.8 114.32 27.8 114.32 30.87 116.34 30.87 116.34 30.45 114.83 30.45 114.83 29.51 116.11 29.51"/>
  <path class="cls-1" d="M111.99,29.24v-1.01h.58c.16,0,.31.04.43.12.08.12.12.23.12.39s-.04.31-.16.39c-.08.08-.23.12-.43.12h-.54ZM112.57,29.71l.62,1.17h.58l-.7-1.32c.19-.08.35-.16.43-.31.12-.16.16-.31.16-.51,0-.31-.08-.54-.27-.7s-.51-.23-.85-.23h-1.09v3.07h.54v-1.17h.58Z"/>
  <polygon class="cls-1" points="110.67 30.87 110.67 27.8 110.16 27.8 110.16 29.09 108.76 29.09 108.76 27.8 108.22 27.8 108.22 30.87 108.76 30.87 108.76 29.51 110.16 29.51 110.16 30.87 110.67 30.87"/>
  <path class="cls-1" d="M105.85,29.75l.47-1.32.43,1.32h-.89ZM106.9,30.17l.27.7h.54l-1.17-3.07h-.51l-1.17,3.07h.58l.23-.7h1.2Z"/>
  <path class="cls-1" d="M103.99,27.8v2.14c0,.19-.04.31-.16.43-.08.08-.19.12-.31.12-.16,0-.27-.04-.39-.12-.08-.08-.12-.19-.12-.35h-.54c0,.27.12.51.27.66.19.16.43.23.78.23.27,0,.54-.08.7-.23.19-.19.31-.43.31-.74v-2.14h-.54Z"/>
  <path class="cls-1" d="M119.76,30.87h2.33c-.66-6.29-6.02-11.07-12.32-11.07s-11.66,4.78-12.35,11.07h2.33c.66-5.05,4.97-8.86,10.02-8.86s9.32,3.77,9.98,8.86Z"/>
</svg>