<svg width="120" height="10" viewBox="0 0 120 10" fill="none" xmlns="http://www.w3.org/2000/svg">
<g clip-path="url(#clip0_8173_26229)">
<path fill-rule="evenodd" clip-rule="evenodd" d="M7.23535 0.333496L3.94896 9.66683H6.38026L9.66666 0.333496H7.23535ZM3.28602 0.333496L0.00012207 9.66683H2.43142L5.71732 0.333496H3.28602Z" fill="#3DB7E4"/>
<mask id="mask0_8173_26229" style="mask-type:luminance" maskUnits="userSpaceOnUse" x="12" y="0" width="108" height="10">
<path d="M12.2111 0.0126953H119.88V10.0001H12.2111V0.0126953Z" fill="#002D5D"/>
</mask>
<g mask="url(#mask0_8173_26229)">
<path fill-rule="evenodd" clip-rule="evenodd" d="M109.541 4.04271H106.358V0.24638H104.096V9.83738H106.358V5.87571H109.541V9.83738H111.762V0.24638H109.541V4.04271ZM119.88 1.96115V0.244847H113.824V9.83585H119.866V8.12638H116.085V5.77745H119.391V4.03008H116.085V1.96115H119.88ZM97.1421 3.35695C97.31 2.24378 98.13 1.94431 98.6568 1.94431H98.706H98.7071H98.7081H98.7552C99.2756 1.94431 100.058 2.2501 100.309 3.50958L102.443 2.98588C101.914 0.751147 100.205 0.25588 99.8612 0.17168C99.4737 0.0758904 99.1084 0.016417 98.7081 0.012207H98.7076H98.7065C98.3052 0.0164177 97.8711 0.0658904 97.4836 0.161154C97.1379 0.246417 95.4062 0.745354 94.89 3.02009C94.7571 3.60429 94.6968 4.36219 94.6968 4.81955V5.18535C94.6968 5.64272 94.7571 6.40062 94.89 6.98482C95.4062 9.25955 97.1379 9.75852 97.4836 9.84375C97.8711 9.93902 98.3052 9.98849 98.706 9.9927H98.7071H98.7081C99.1084 9.98849 99.4737 9.92902 99.8612 9.83323C100.205 9.74902 101.914 9.25376 102.443 7.01903L100.309 6.49533C100.058 7.75479 99.2757 8.06059 98.7552 8.06059H98.7081H98.7071H98.706H98.6568C98.13 8.06059 97.3099 7.76112 97.1421 6.64796C97.0865 6.28006 97.0431 5.78849 97.0362 5.29639V4.70849C97.0431 4.21639 97.0865 3.72481 97.1421 3.35695ZM82.2608 3.30589C82.2608 2.87959 82.1422 2.53906 81.9082 2.29433C81.6737 2.04906 81.3258 1.92486 80.8748 1.92486H79.5608V4.67379H80.8748C81.3306 4.67379 81.6795 4.55169 81.9114 4.31063C82.1433 4.07063 82.2608 3.73273 82.2608 3.30589ZM82.8024 5.82219L85.0482 9.75853V9.8059H82.5435L80.6874 6.3839H79.5608V9.8059H77.404V0.214897H80.8746C82.0134 0.214897 82.9155 0.46858 83.5556 0.969097C84.1924 1.46753 84.5154 2.18226 84.5154 3.0933C84.5154 3.7554 84.3793 4.31066 84.1104 4.74436C83.842 5.17806 83.4153 5.53436 82.8419 5.80383L82.8024 5.82219ZM63.5721 6.79483L61.7043 0.214827H59.3378L62.3195 9.80583H64.8252L67.8333 0.214827H65.4663L63.5721 6.79483ZM69.3971 9.80589H75.4397V8.09643H71.6587V5.74749H74.9639V3.99959H71.6587V1.93116H75.4534V0.21486H69.3971V9.80589ZM89.9794 3.95156C89.1906 3.77051 88.1513 3.61473 88.1513 2.80366C88.1513 2.41893 88.5187 2.12523 88.9317 2.00576C89.1514 1.94208 89.3849 1.90997 89.6268 1.90997C89.7999 1.90997 89.9784 1.93787 90.1562 1.9926C90.3293 2.04734 90.5025 2.13049 90.6708 2.23944C90.8418 2.3505 90.9885 2.51629 91.1065 2.73261C91.1309 2.7784 91.1542 2.82787 91.1769 2.88472L93.1861 2.38315C93.0987 2.09052 92.9129 1.72368 92.7207 1.47052C92.3692 1.00788 91.9552 0.654717 91.4025 0.402617C90.8487 0.151037 90.2515 0.0236837 89.6268 0.0236837C89.2864 0.0236837 88.9476 0.057367 88.6204 0.123684C88.2975 0.189474 87.9746 0.301577 87.6606 0.456314C87.3509 0.610524 87.0772 0.79788 86.8469 1.01421C86.623 1.22421 86.4371 1.50158 86.2958 1.84001C86.1581 2.16949 86.0882 2.61845 86.0882 3.01475C86.0882 3.44475 86.2338 3.96211 86.4429 4.27318C87.0147 5.12635 87.6341 5.32845 89.6363 5.84425C90.4072 6.04319 91.2394 6.37268 91.2394 7.06005C91.2394 7.54058 90.8386 8.07741 89.712 8.07741C88.9195 8.07741 88.1349 7.61848 87.9279 6.83321L85.8791 7.34428C85.9018 7.43796 86.5292 10.0001 89.6841 10.0001C92.7531 10.0001 93.3757 7.82745 93.3757 6.94798C93.3757 4.72325 91.2846 4.25103 89.9794 3.95156ZM17.6561 4.01103H14.4727V0.2147H12.2111V9.8057H14.4727V5.84403H17.6561V9.8057H19.8764V0.2147H17.6561V4.01103ZM26.6697 6.6021L25.6035 3.13277L24.5373 6.6021H26.6697ZM26.6756 0.214767L30.0216 9.80577H27.6551L27.2009 8.32997H24.0064L23.5522 9.80577H21.1857L24.532 0.214767H26.6756ZM46.5149 5.98043L43.0942 0.2141H41.0062V9.80577H43.1636V4.0401L46.5909 9.80577H48.6652V0.2141H46.5147L46.5149 5.98043ZM56.2115 4.71937C56.2047 4.2278 56.1613 3.73567 56.1057 3.3683C55.9378 2.25513 55.0405 1.95513 54.5201 1.95513H54.4724H54.4714H54.4708H54.4216C53.8948 1.95513 53.0054 2.25513 52.8376 3.3683C52.782 3.73567 52.7381 4.22777 52.7317 4.71937V5.30043C52.7381 5.79253 52.782 6.28413 52.8376 6.652C53.0054 7.76517 53.8948 8.06517 54.4216 8.06517H54.4708H54.4714H54.4724H54.5201C55.0405 8.06517 55.9378 7.76517 56.1057 6.652C56.1613 6.2841 56.2047 5.79253 56.2115 5.30043V4.71937ZM58.3578 3.03093C58.4907 3.61513 58.551 4.37303 58.551 4.8304V5.18933C58.551 5.6467 58.4907 6.4046 58.3578 6.9888C57.8416 9.26353 56.1099 9.763 55.7642 9.84773C55.3767 9.943 54.8732 9.99247 54.4724 9.99668H54.4714H54.4708C54.0701 9.99247 53.5661 9.943 53.1791 9.84773C52.8334 9.763 51.1017 9.26353 50.5849 6.9888C50.4526 6.4046 50.3922 5.6467 50.3922 5.18933V4.8304C50.3922 4.37303 50.4526 3.61513 50.5849 3.03093C51.1016 0.756734 52.8333 0.257234 53.1791 0.172C53.5661 0.076737 54.0701 0.0277904 54.4708 0.0235804H54.4714H54.4724C54.8732 0.027791 55.3767 0.076737 55.7642 0.172C56.1099 0.257264 57.8416 0.756734 58.3578 3.03093ZM36.8665 0.214634H39.0169V9.80563H36.9427L33.5147 4.0403V9.80563H31.3579V0.214634H33.4459L36.8665 5.98097L36.8665 0.214634Z" fill="#002D5D"/>
</g>
</g>
<defs>
<clipPath id="clip0_8173_26229">
<rect width="120" height="10" fill="white"/>
</clipPath>
</defs>
</svg>
