<?xml version="1.0" encoding="utf-8"?>
<!-- Generator: Adobe Illustrator 28.2.0, SVG Export Plug-In . SVG Version: 6.00 Build 0)  -->
<svg version="1.1" id="Ebene_1" xmlns="http://www.w3.org/2000/svg" xmlns:xlink="http://www.w3.org/1999/xlink" x="0px" y="0px"
	 viewBox="0 0 226.83 22.39" style="enable-background:new 0 0 226.83 22.39;" xml:space="preserve">
<style type="text/css">
	.st0{clip-path:url(#SVGID_00000174582412276540376260000002741214337269522362_);fill:#002D5D;}
	.st1{fill:#3DB7E4;}
</style>
<g>
	<g>
		<defs>
			<rect id="SVGID_1_" width="226.77" height="22.39"/>
		</defs>
		<clipPath id="SVGID_00000013183263373709338780000012229346871869879999_">
			<use xlink:href="#SVGID_1_"  style="overflow:visible;"/>
		</clipPath>
		<path style="clip-path:url(#SVGID_00000013183263373709338780000012229346871869879999_);fill:#002D5D;" d="M23.02,21.9h5.58
			v-8.81h3.42v8.81h5.58V0.5h-5.58v7.85H28.6V0.5h-5.58V21.9L23.02,21.9z M39.27,21.9h5.94l0.57-3.75h4.44l0.57,3.75h5.94L51.5,0.5
			h-7.01L39.27,21.9L39.27,21.9z M49.55,13.95h-3.12l1.53-9.08h0.06L49.55,13.95L49.55,13.95z M58.39,21.9h5.22V8.68h0.06
			l3.72,13.22h6.12V0.5h-5.22v13.19h-0.06L64.63,0.5h-6.23V21.9L58.39,21.9z M76.89,21.9h5.22V8.68h0.06l3.72,13.22H92V0.5h-5.22
			v13.19h-0.06L83.12,0.5h-6.24V21.9L76.89,21.9z M94.75,11.2c0,8,1.95,11.12,7.64,11.12c5.7,0,7.64-3.12,7.64-11.12
			c0-8-1.95-11.12-7.64-11.12C96.7,0.08,94.75,3.19,94.75,11.2L94.75,11.2z M100.51,11.2c0-5.79,0.18-7.34,1.89-7.34
			c1.71,0,1.89,1.56,1.89,7.34c0,5.79-0.18,7.34-1.89,7.34C100.69,18.54,100.51,16.98,100.51,11.2L100.51,11.2z M115.68,21.9h7.19
			l4.62-21.4h-5.93l-2.25,16.13h-0.06L116.99,0.5h-5.93L115.68,21.9L115.68,21.9z M129.74,21.9h12.95v-4.56h-7.38v-4.26h6.65V8.71
			h-6.65V5.05h7.11V0.5h-12.68V21.9L129.74,21.9z M145.62,21.9h5.58v-8.57h1.47c1.35,0,1.83,0.63,1.83,3.06v1.44
			c0,0.9,0,2.94,0.54,4.08h5.93v-0.3c-0.36-0.18-0.48-0.42-0.63-0.66c-0.27-0.42-0.27-1.86-0.27-2.97v-1.83
			c0-2.85-0.81-4.56-3.51-4.8v-0.06c2.55-0.39,3.66-2.25,3.66-5.1c0-3.3-1.62-5.7-5.88-5.7h-8.72V21.9L145.62,21.9z M151.2,4.51
			h1.08c1.68,0,2.37,0.75,2.37,2.49c0,1.53-0.75,2.55-2.34,2.55h-1.11V4.51L151.2,4.51z M176.53,6.67c0-4.59-2.07-6.59-6.92-6.59
			c-4.71,0-7.01,2.37-7.01,6.68c0,7.58,8.75,5.49,8.75,9.71c0,1.17-0.66,2.07-1.8,2.07c-1.08,0-1.83-0.66-1.83-2.49v-0.51h-5.4v0.75
			c0,4.44,2.58,6.03,7.19,6.03c4.92,0,7.58-2.04,7.58-6.59c0-7.82-9.11-5.76-9.11-9.98c0-0.96,0.54-1.89,1.74-1.89
			c1.08,0,1.59,1.05,1.59,2.31v0.51H176.53L176.53,6.67z M188.07,8.2h5.39V6.85c0-4.14-1.89-6.77-6.92-6.77
			c-5.79,0-7.64,2.94-7.64,11.12c0,7.97,1.38,11.12,7.64,11.12c3.57,0,7.07-1.44,7.07-7.43V13.3h-5.4c0,4.05-0.3,5.25-1.68,5.25
			c-1.71,0-1.89-1.56-1.89-7.34c0-5.79,0.18-7.34,1.89-7.34c1.08,0,1.53,0.72,1.53,3.15V8.2L188.07,8.2z M196.07,21.9h5.57v-8.81
			h3.42v8.81h5.57V0.5h-5.57v7.85h-3.42V0.5h-5.57V21.9L196.07,21.9z M213.88,21.9h12.95v-4.56h-7.37v-4.26h6.65V8.71h-6.65V5.05
			h7.1V0.5h-12.68V21.9L213.88,21.9z"/>
	</g>
	<polygon class="st1" points="17.45,0.5 12.93,0.5 8.24,21.9 12.75,21.9 17.45,0.5 	"/>
	<polygon class="st1" points="9.27,0.5 4.74,0.5 0.05,21.9 4.57,21.9 9.27,0.5 	"/>
</g>
</svg>
