<svg width="106" height="64" viewBox="0 0 106 64" fill="none" xmlns="http://www.w3.org/2000/svg">
<path d="M75.7177 27.8607C74.0981 37.7242 65.4702 45.2248 55.1032 45.2248C43.5823 45.2248 34.2416 35.9249 34.2416 24.4551C34.2416 12.9842 43.5823 3.68641 55.1032 3.68641C58.1545 3.68641 62.3617 4.87607 63.6627 5.5092C64.9627 6.14233 70.1002 8.86785 70.1002 8.86785V1.04666H67.1756V3.94169C63.6597 1.90445 59.4647 0.738266 55.1032 0.738266C41.9464 0.738266 31.2812 11.3565 31.2812 24.4551C31.2812 37.5537 41.9464 48.1719 55.1032 48.1719C67.0939 48.1719 77.0289 39.3387 78.6934 27.8607H75.7177Z" fill="#231F20"/>
<path d="M61.1792 9.32046C59.2788 8.55866 57.2497 8.1604 55.1022 8.1604C46.0638 8.1604 38.7368 15.4547 38.7368 24.4533C38.7368 33.4519 46.0638 40.7461 55.1022 40.7461C62.9581 40.7461 69.5202 35.2226 71.104 27.8732L74.1022 27.8793C72.4796 36.8595 64.591 43.6738 55.1022 43.6738C44.4401 43.6738 35.7969 35.0684 35.7969 24.4533C35.7969 13.8381 44.4401 5.23372 55.1022 5.23372C57.1629 5.23372 58.4527 5.51658 60.0008 5.85765C63.096 6.53878 67.6841 9.36131 71.4818 11.4568C71.4716 11.4384 71.4818 1.04485 71.4818 1.04485H74.4065V16.6872C74.4065 16.6872 64.4276 10.6225 61.1792 9.32046Z" fill="#231F20"/>
<path d="M59.53 13.4553C58.7662 13.105 56.6677 12.6087 55.1032 12.6087C48.533 12.6087 43.2055 17.9117 43.2055 24.4543C43.2055 30.997 48.533 36.3 55.1032 36.3C60.4909 36.3 65.0474 32.7483 66.5128 27.86H69.4885C67.9322 34.3332 62.0829 39.1797 55.1032 39.1797C46.9348 39.1797 40.3125 32.587 40.3125 24.4543C40.3125 16.3217 46.9348 9.72898 55.1032 9.72898C56.9485 9.72898 58.9704 10.1048 60.3419 10.6797C62.9755 11.7815 75.7902 19.1718 75.7902 19.1718V1.04593H78.7148V24.5095C78.7148 24.5095 63.2941 15.1861 59.53 13.4553Z" fill="#231F20"/>
<path d="M78.0803 63.252C75.991 63.252 75.2578 62.433 75.2578 60.1057V55.0642H73.9844V52.26H75.2578V48.885H78.7053V52.26H80.1921V55.0642H78.7053V59.0927C78.7053 60.2568 78.9207 60.3641 79.7397 60.3641C79.8469 60.3641 79.9675 60.3641 80.1921 60.359V63.252H78.0803Z" fill="#231F20"/>
<path d="M36.9699 63.252C34.8806 63.252 34.1474 62.433 34.1474 60.1057V55.0591H32.875V52.26H34.1474V48.885H37.5949V52.26H39.0817V55.0591H37.5949V59.0927C37.5949 60.2568 37.8104 60.3641 38.6293 60.3641C38.7366 60.3641 38.8571 60.3641 39.0817 60.359V63.252H36.9699Z" fill="#231F20"/>
<path d="M40.0547 52.2629H43.5022V63.2559H40.0547V52.2629Z" fill="#231F20"/>
<path d="M40.0547 48.8836H43.5022V51.1445H40.0547V48.8836Z" fill="#231F20"/>
<path d="M20.4532 42.9671C20.4532 46.5984 18.9796 48.168 15.4862 48.168H13.0312V37.9041H15.4862C18.9173 37.9041 20.4532 39.4737 20.4532 42.9671ZM17.9921 43.0437C17.9921 41.0739 17.407 40.3202 15.8681 40.3202H15.529V45.7519H15.8681C17.407 45.7519 17.9921 45.0136 17.9921 43.0437Z" fill="#231F20"/>
<path d="M21.3125 40.3181H23.7745V48.1699H21.3125V40.3181Z" fill="#231F20"/>
<path d="M69.8631 63.252V56.7215C69.8631 55.4716 69.6262 55.0631 68.9369 55.0631C68.1394 55.0631 67.8381 55.6442 67.8381 57.2822V63.252H64.3906V52.258H67.834V53.6182C68.4804 52.6062 68.9583 52.1753 70.1429 52.1753C72.3844 52.1753 73.3106 53.3394 73.3106 56.2263V63.252H69.8631Z" fill="#231F20"/>
<path d="M49.9569 63.2617V56.7323C49.9569 55.4824 49.7199 55.0729 49.0306 55.0729C48.2331 55.0729 47.9319 55.655 47.9319 57.2929V63.2617H44.4844V52.2677H47.9278V53.629C48.5742 52.617 49.0521 52.186 50.2366 52.186C52.4771 52.186 53.4043 53.3492 53.4043 56.2371V63.2617H49.9569Z" fill="#231F20"/>
<path d="M21.3125 37.904H23.7745V39.5195H21.3125V37.904Z" fill="#231F20"/>
<path d="M90.6641 48.8841H94.1116V63.25H90.6641V48.8841Z" fill="#231F20"/>
<path d="M28.7537 63.252V56.7215C28.7537 55.4716 28.5168 55.0631 27.8275 55.0631C27.03 55.0631 26.7287 55.6442 26.7287 57.2822V63.252H23.2812V52.258H26.7246V53.6182C27.371 52.6062 27.849 52.1753 29.0335 52.1753C31.274 52.1753 32.2012 53.3394 32.2012 56.2263V63.252H28.7537Z" fill="#231F20"/>
<path d="M6.8017 63.25C3.07441 63.25 0.8125 60.406 0.8125 55.7096C0.8125 51.0337 3.05296 48.1683 6.73736 48.1683C10.1195 48.1683 12.2313 50.4097 12.3385 54.2014H8.48256C8.37431 52.3918 7.81471 51.53 6.75881 51.53C5.44455 51.53 4.6899 53.0597 4.6899 55.6882C4.6899 58.3167 5.466 59.8679 6.78025 59.8679C7.8147 59.8679 8.39576 58.9845 8.48256 57.2608H12.3385C12.2099 60.9881 10.1195 63.25 6.8017 63.25Z" fill="#231F20"/>
<path d="M31.3815 44.9911H27.0548C27.0548 46.0368 27.4581 46.4238 27.9881 46.4238C28.6233 46.4238 28.8265 46.1624 28.9225 45.7529H31.2967C30.8964 47.3878 29.6914 48.168 28.0137 48.168C25.8437 48.168 24.5938 46.6556 24.5938 44.2426C24.5938 41.8591 25.9335 40.3172 27.9953 40.3172C30.3042 40.3172 31.3509 41.7683 31.3815 44.9911ZM28.9184 43.3817C28.9184 42.5433 28.5467 42.0583 27.9892 42.0583C27.4459 42.0583 27.0589 42.526 27.0589 43.3817H28.9184Z" fill="#231F20"/>
<path d="M22.5684 57.7132C22.5684 61.0739 20.6935 63.25 17.7852 63.25C14.8759 63.25 13.0234 61.0739 13.0234 57.7132C13.0234 54.3525 14.8759 52.1764 17.7852 52.1764C20.6935 52.1764 22.5684 54.3525 22.5684 57.7132ZM19.1209 57.7132C19.1209 55.968 18.6685 55.0632 17.7852 55.0632C16.9233 55.0632 16.4709 55.968 16.4709 57.7132C16.4709 59.4584 16.9233 60.3631 17.7852 60.3631C18.6685 60.3631 19.1209 59.4584 19.1209 57.7132Z" fill="#231F20"/>
<path d="M63.6829 58.7691H57.5804C57.5804 60.2437 58.1492 60.79 58.8957 60.79C59.7922 60.79 60.0802 60.4213 60.215 59.8434H63.5645C62.9998 62.1492 61.2995 63.25 58.9334 63.25C55.8719 63.25 54.1094 61.1168 54.1094 57.7132C54.1094 54.3505 55.9975 52.1753 58.9069 52.1753C62.1634 52.1753 63.64 54.2218 63.6829 58.7691ZM60.2099 56.499C60.2099 55.3155 59.685 54.6323 58.8977 54.6323C58.1328 54.6323 57.5855 55.292 57.5855 56.499H60.2099Z" fill="#231F20"/>
<path d="M90.0257 63.252H86.8162C86.6875 62.9926 86.665 62.6484 86.5793 62.2829C85.9757 62.9497 85.4008 63.252 84.3674 63.252C82.3414 63.252 80.8984 61.8734 80.8984 59.9556C80.8984 58.1879 81.9758 57.176 84.3245 56.7021C85.8971 56.4009 86.2341 56.0986 86.2341 55.4308C86.2341 54.9569 85.8899 54.6332 85.3937 54.6332C84.7054 54.6332 84.3817 55.1081 84.3817 56.0557V56.2498H81.215V56.0343C81.215 53.5784 82.7008 52.1763 85.5234 52.1763C88.5185 52.1763 89.6816 53.4058 89.6816 56.2712V60.0199C89.6816 61.6569 89.7684 62.6045 90.0257 63.252ZM86.228 58.7649C86.228 58.6362 86.228 58.528 86.2065 58.2911C84.6768 58.5709 83.9875 59.0672 83.9875 59.8637C83.9875 60.4243 84.3745 60.7909 84.9566 60.7909C85.8399 60.7909 86.228 60.1874 86.228 58.7649Z" fill="#231F20"/>
<path d="M104.386 58.7691H98.2835C98.2835 60.2437 98.8523 60.79 99.5988 60.79C100.495 60.79 100.782 60.4213 100.918 59.8434H104.268C103.703 62.1492 102.003 63.25 99.6365 63.25C96.575 63.25 94.8125 61.1168 94.8125 57.7132C94.8125 54.3505 96.7006 52.1753 99.61 52.1753C102.867 52.1753 104.343 54.2218 104.386 58.7691ZM100.913 56.499C100.913 55.3155 100.388 54.6323 99.6008 54.6323C98.8359 54.6323 98.2886 55.292 98.2886 56.499H100.913Z" fill="#231F20"/>
</svg>
