<?xml version="1.0" encoding="UTF-8"?>
<svg xmlns="http://www.w3.org/2000/svg" xmlns:xlink="http://www.w3.org/1999/xlink" width="128px" height="61px" viewBox="0 0 128 61" version="1.1">
<g id="surface1">
<path style=" stroke:none;fill-rule:nonzero;fill:rgb(1.960784%,43.137255%,50.980392%);fill-opacity:1;" d="M 52.15625 3.367188 L 32.609375 3.367188 L 32.609375 5.082031 L 32.777344 5.082031 C 35.164062 5.082031 35.957031 6.308594 35.957031 9.972656 L 35.957031 26.339844 C 35.957031 29.765625 35.042969 30.632812 31.523438 30.632812 L 31.355469 30.632812 L 31.355469 32.34375 L 52.683594 32.34375 L 54.226562 25.207031 L 53.023438 24.605469 L 52.949219 24.726562 C 50.46875 28.535156 48.996094 29.886719 45.742188 29.886719 C 42.996094 29.886719 42.105469 28.871094 42.105469 25.714844 L 42.105469 18.507812 C 42.394531 18.53125 45.019531 18.628906 45.019531 18.628906 C 47.839844 18.75 48.636719 19.375 49.527344 22.050781 L 49.574219 22.171875 L 50.78125 22.171875 L 50.78125 12.648438 L 49.550781 12.648438 L 49.527344 12.769531 C 48.730469 15.566406 48.105469 16.046875 45.019531 16.191406 C 45.019531 16.191406 42.753906 16.289062 42.105469 16.3125 L 42.105469 5.5625 C 42.417969 5.585938 45.332031 5.851562 45.332031 5.851562 C 48.296875 6.214844 49.984375 6.914062 51.601562 10.023438 L 51.671875 10.140625 L 52.851562 9.757812 L 52.273438 3.394531 Z M 52.15625 3.367188 "/>
<path style=" stroke:none;fill-rule:nonzero;fill:rgb(1.960784%,43.137255%,50.980392%);fill-opacity:1;" d="M 71.121094 3.367188 L 58.421875 3.367188 L 58.421875 5.082031 L 58.589844 5.082031 C 60.878906 5.082031 61.769531 6.285156 61.769531 9.394531 L 61.769531 26.339844 C 61.769531 29.765625 60.855469 30.632812 57.335938 30.632812 L 57.167969 30.632812 L 57.167969 32.34375 L 78.519531 32.34375 L 80.0625 25.207031 L 78.859375 24.605469 L 78.785156 24.726562 C 76.183594 28.777344 74.664062 29.859375 71.675781 29.859375 C 68.785156 29.859375 67.941406 28.898438 67.941406 25.570312 L 67.941406 9.949219 C 67.941406 6.238281 68.710938 5.054688 71.121094 5.054688 L 71.289062 5.054688 L 71.289062 3.34375 Z M 71.121094 3.367188 "/>
<path style=" stroke:none;fill-rule:nonzero;fill:rgb(1.960784%,43.137255%,50.980392%);fill-opacity:1;" d="M 4.507812 3.222656 C 3.519531 3.273438 2.363281 3.394531 1.085938 3.539062 L 0.941406 3.5625 L 0.941406 5.273438 L 1.109375 5.273438 C 3.976562 5.273438 4.386719 5.828125 4.386719 9.902344 L 4.386719 26.414062 C 4.386719 29.910156 3.566406 30.753906 0.21875 30.753906 L 0.046875 30.753906 L 0.046875 32.488281 L 8.289062 32.488281 C 9.808594 32.488281 11.132812 32.585938 12.316406 32.679688 C 13.253906 32.753906 14.074219 32.800781 14.820312 32.800781 C 19.183594 32.800781 22.871094 31.378906 25.523438 28.703125 C 28.148438 26.027344 29.546875 22.292969 29.546875 17.878906 C 29.546875 12.359375 27.160156 7.996094 22.605469 5.25 C 19.761719 3.539062 16.917969 2.933594 11.738281 2.933594 C 9.375 2.910156 6.675781 3.03125 4.507812 3.222656 M 10.53125 25.449219 L 10.53125 5.082031 C 13.882812 5.25 14.941406 5.441406 16.582031 6.140625 C 17.8125 6.671875 18.96875 7.464844 19.957031 8.453125 C 22.195312 10.695312 23.328125 13.710938 23.328125 17.421875 C 23.328125 20.964844 22.390625 24.195312 20.703125 26.535156 C 19.015625 28.847656 16.941406 30.125 14.363281 30.125 C 11.953125 30.125 10.53125 28.367188 10.53125 25.449219 "/>
<path style=" stroke:none;fill-rule:nonzero;fill:rgb(1.960784%,43.137255%,50.980392%);fill-opacity:1;" d="M 96.644531 3.367188 L 92.691406 3.367188 L 83.800781 26.269531 C 82.425781 29.859375 81.871094 30.511719 80.136719 30.632812 L 79.992188 30.632812 L 79.992188 32.34375 L 90.546875 32.34375 L 90.546875 30.632812 L 90.378906 30.632812 C 90.210938 30.632812 89.488281 30.609375 88.957031 30.535156 C 87.871094 30.367188 87.339844 29.742188 87.339844 28.703125 C 87.339844 28.199219 87.4375 27.621094 87.65625 27.015625 C 87.65625 27.015625 88.714844 23.738281 88.910156 23.113281 L 98.234375 23.113281 C 98.308594 23.304688 99.707031 27.328125 99.707031 27.328125 C 99.875 27.738281 99.96875 28.222656 99.96875 28.65625 C 99.96875 30.03125 99.101562 30.632812 97.175781 30.632812 L 97.007812 30.632812 L 97.007812 32.34375 L 108.359375 32.34375 L 108.359375 30.65625 L 108.238281 30.632812 C 107.273438 30.390625 106.695312 29.980469 106.164062 28.414062 L 96.742188 3.367188 C 96.742188 3.367188 96.644531 3.367188 96.644531 3.367188 Z M 93.4375 9.851562 C 93.703125 10.625 97.054688 19.90625 97.175781 20.292969 L 89.679688 20.292969 C 89.824219 19.90625 93.148438 10.625 93.4375 9.851562 "/>
<path style=" stroke:none;fill-rule:nonzero;fill:rgb(1.960784%,43.137255%,50.980392%);fill-opacity:1;" d="M 73.289062 0.71875 C 73.074219 0.355469 73.242188 0.0664062 73.652344 0.0664062 L 88.472656 0.0664062 C 88.882812 0.0664062 89.054688 0.355469 88.835938 0.71875 L 81.460938 12.769531 C 81.246094 13.132812 80.882812 13.132812 80.664062 12.769531 Z M 73.289062 0.71875 "/>
<path style=" stroke:none;fill-rule:nonzero;fill:rgb(1.960784%,43.137255%,50.980392%);fill-opacity:1;" d="M 6.652344 60.933594 L 0.289062 60.933594 L 0.289062 59.96875 L 2.242188 59.96875 L 2.242188 50.6875 L 0 50.6875 L 0 49.988281 L 2.242188 49.410156 L 2.242188 47.289062 C 2.242188 44.035156 4.363281 41.84375 7.472656 41.84375 C 8.722656 41.84375 9.855469 42.15625 11.0625 42.832031 L 9.640625 44.589844 C 8.578125 43.675781 8.289062 43.457031 7.085938 42.832031 C 5.035156 43.214844 4.167969 44.664062 4.167969 47.773438 L 4.167969 49.484375 L 7.132812 49.484375 L 7.132812 50.664062 L 4.167969 50.664062 L 4.167969 59.945312 L 6.652344 59.945312 Z M 6.652344 60.933594 "/>
<path style=" stroke:none;fill-rule:nonzero;fill:rgb(1.960784%,43.137255%,50.980392%);fill-opacity:1;" d="M 22.824219 60.234375 L 19.113281 61.152344 L 18.652344 61.152344 L 18.652344 58.234375 C 16.796875 60.476562 15.59375 61.269531 14.003906 61.269531 C 12.074219 61.269531 10.894531 60.019531 10.894531 57.945312 L 10.894531 50.714844 L 8.628906 50.714844 L 8.628906 50.015625 L 12.339844 49 L 12.820312 49 L 12.820312 57.632812 C 12.820312 59.199219 13.449219 59.96875 14.703125 59.96875 C 15.664062 59.96875 16.292969 59.558594 17.449219 58.1875 C 17.714844 57.898438 18.101562 57.460938 18.628906 56.859375 L 18.628906 50.6875 L 16.679688 50.6875 L 16.679688 49.894531 L 20.074219 49 L 20.558594 49 L 20.558594 59.488281 L 22.800781 59.488281 L 22.800781 60.234375 Z M 12.894531 47.097656 C 12.171875 47.097656 11.617188 46.496094 11.617188 45.820312 C 11.617188 45.097656 12.195312 44.492188 12.894531 44.492188 C 13.617188 44.492188 14.171875 45.097656 14.171875 45.820312 C 14.195312 46.496094 13.617188 47.097656 12.894531 47.097656 Z M 17.980469 47.097656 C 17.257812 47.097656 16.703125 46.496094 16.703125 45.820312 C 16.703125 45.097656 17.28125 44.492188 17.980469 44.492188 C 18.703125 44.492188 19.257812 45.097656 19.257812 45.820312 C 19.257812 46.496094 18.703125 47.097656 17.980469 47.097656 Z M 17.980469 47.097656 "/>
<path style=" stroke:none;fill-rule:nonzero;fill:rgb(1.960784%,43.137255%,50.980392%);fill-opacity:1;" d="M 30.414062 60.933594 L 24.050781 60.933594 L 24.050781 59.96875 L 26.003906 59.96875 L 26.003906 50.6875 L 23.761719 50.6875 L 23.761719 49.988281 L 27.476562 48.976562 L 27.933594 48.976562 L 27.933594 51.871094 C 29.789062 49.507812 30.464844 48.929688 31.378906 48.929688 C 31.691406 48.929688 31.957031 49 32.101562 49.171875 L 32.898438 49.871094 L 31.402344 51.675781 C 30.898438 51.195312 30.535156 50.953125 30.269531 50.953125 C 29.8125 50.953125 29.355469 51.386719 27.933594 53.125 L 27.933594 59.96875 L 30.414062 59.96875 Z M 30.414062 60.933594 "/>
<path style=" stroke:none;fill-rule:nonzero;fill:rgb(1.960784%,43.137255%,50.980392%);fill-opacity:1;" d="M 43.285156 59.875 C 41.355469 60.980469 40.441406 61.296875 38.945312 61.296875 C 35.667969 61.296875 33.355469 58.765625 33.355469 55.222656 C 33.355469 51.605469 35.695312 48.976562 38.898438 48.976562 C 41.671875 48.976562 43.597656 50.882812 43.597656 53.679688 L 43.597656 54.378906 L 35.476562 54.378906 L 35.476562 54.667969 C 35.476562 57.898438 37.1875 60.136719 39.621094 60.136719 C 40.660156 60.136719 41.355469 59.875 42.777344 58.957031 Z M 41.5 53.316406 L 41.5 52.691406 C 41.5 51.148438 40.441406 50.039062 38.945312 50.039062 C 37.066406 50.039062 35.742188 51.292969 35.523438 53.316406 Z M 41.5 53.316406 "/>
<path style=" stroke:none;fill-rule:nonzero;fill:rgb(1.960784%,43.137255%,50.980392%);fill-opacity:1;" d="M 51.238281 60.933594 L 45.382812 60.933594 L 45.382812 59.96875 L 47.335938 59.96875 L 47.335938 50.6875 L 45.09375 50.6875 L 45.09375 49.988281 L 48.804688 48.976562 L 49.261719 48.976562 L 49.261719 59.945312 L 51.214844 59.945312 Z M 48.203125 43.238281 C 48.972656 43.238281 49.574219 43.84375 49.574219 44.589844 C 49.574219 45.363281 48.972656 45.964844 48.203125 45.964844 C 47.453125 45.964844 46.851562 45.363281 46.851562 44.589844 C 46.851562 43.84375 47.453125 43.238281 48.203125 43.238281 Z M 48.203125 43.238281 "/>
<path style=" stroke:none;fill-rule:nonzero;fill:rgb(1.960784%,43.137255%,50.980392%);fill-opacity:1;" d="M 66.375 60.933594 L 60.542969 60.933594 L 60.542969 59.96875 L 62.46875 59.96875 L 62.46875 52.425781 C 62.46875 51.050781 61.769531 50.207031 60.636719 50.207031 C 59.527344 50.207031 58.878906 50.6875 56.636719 53.269531 L 56.636719 59.96875 L 58.589844 59.96875 L 58.589844 60.933594 L 52.734375 60.933594 L 52.734375 59.96875 L 54.683594 59.96875 L 54.683594 50.6875 L 52.492188 50.6875 L 52.492188 49.988281 L 56.203125 48.976562 L 56.660156 48.976562 L 56.660156 51.871094 C 58.589844 49.628906 59.699219 48.929688 61.359375 48.929688 C 63.265625 48.929688 64.445312 50.160156 64.445312 52.160156 L 64.445312 59.96875 L 66.375 59.96875 Z M 66.375 60.933594 "/>
<path style=" stroke:none;fill-rule:nonzero;fill:rgb(1.960784%,43.137255%,50.980392%);fill-opacity:1;" d="M 77.75 60.453125 L 76.015625 60.980469 C 75.675781 61.078125 75.316406 61.152344 75.121094 61.152344 C 74.328125 61.152344 73.871094 60.574219 73.871094 59.632812 C 73.871094 59.558594 73.871094 59.488281 73.871094 59.367188 C 72.785156 60.71875 71.820312 61.246094 70.445312 61.246094 C 68.664062 61.246094 67.363281 60.019531 67.363281 58.28125 C 67.363281 56.957031 68.207031 55.894531 69.457031 55.605469 L 73.871094 54.59375 L 73.871094 51.675781 C 73.871094 50.640625 73.097656 49.894531 72.0625 49.894531 C 71.554688 49.894531 71.21875 49.964844 70.472656 50.328125 L 70.472656 51.558594 L 68.179688 52.230469 C 68.011719 51.917969 67.964844 51.796875 67.964844 51.507812 C 67.964844 50.015625 69.699219 48.90625 72.039062 48.90625 C 74.304688 48.90625 75.796875 50.039062 75.796875 51.75 L 75.796875 59.679688 L 77.773438 59.679688 Z M 73.84375 55.65625 L 69.433594 56.691406 L 69.433594 57.96875 C 69.433594 59.054688 70.132812 59.753906 71.21875 59.753906 C 72.039062 59.753906 72.710938 59.390625 73.84375 58.378906 Z M 73.84375 55.65625 "/>
<path style=" stroke:none;fill-rule:nonzero;fill:rgb(1.960784%,43.137255%,50.980392%);fill-opacity:1;" d="M 92.859375 60.933594 L 87.027344 60.933594 L 87.027344 59.96875 L 88.957031 59.96875 L 88.957031 52.425781 C 88.957031 51.050781 88.257812 50.207031 87.125 50.207031 C 86.015625 50.207031 85.367188 50.6875 83.125 53.269531 L 83.125 59.96875 L 85.078125 59.96875 L 85.078125 60.933594 L 79.242188 60.933594 L 79.242188 59.96875 L 81.195312 59.96875 L 81.195312 50.6875 L 78.953125 50.6875 L 78.953125 49.988281 L 82.667969 48.976562 L 83.125 48.976562 L 83.125 51.871094 C 85.050781 49.628906 86.160156 48.929688 87.824219 48.929688 C 89.726562 48.929688 90.910156 50.160156 90.910156 52.160156 L 90.910156 59.96875 L 92.835938 59.96875 Z M 92.859375 60.933594 "/>
<path style=" stroke:none;fill-rule:nonzero;fill:rgb(1.960784%,43.137255%,50.980392%);fill-opacity:1;" d="M 106.453125 60.234375 L 102.742188 61.222656 L 102.261719 61.222656 L 102.261719 59.414062 C 100.839844 60.835938 99.945312 61.296875 98.621094 61.296875 C 95.945312 61.296875 93.824219 58.691406 93.824219 55.390625 C 93.824219 51.847656 96.546875 48.976562 99.921875 48.976562 C 100.789062 48.976562 101.273438 49.097656 102.234375 49.628906 L 102.234375 43.675781 L 99.996094 43.675781 L 99.996094 42.976562 L 103.707031 41.960938 L 104.1875 41.960938 L 104.1875 59.511719 L 106.429688 59.511719 Z M 102.261719 58.160156 L 102.261719 52.183594 C 102.261719 50.59375 101.753906 50.039062 100.234375 50.039062 C 97.730469 50.039062 96.066406 52.015625 96.066406 54.980469 C 96.066406 57.871094 97.320312 59.585938 99.441406 59.585938 C 100.234375 59.585938 100.621094 59.4375 101.539062 58.742188 C 101.65625 58.621094 101.921875 58.425781 102.261719 58.160156 Z M 102.261719 58.160156 "/>
<path style=" stroke:none;fill-rule:nonzero;fill:rgb(1.960784%,43.137255%,50.980392%);fill-opacity:1;" d="M 117.058594 59.875 C 115.128906 60.980469 114.214844 61.296875 112.71875 61.296875 C 109.441406 61.296875 107.128906 58.765625 107.128906 55.222656 C 107.128906 51.605469 109.464844 48.976562 112.671875 48.976562 C 115.445312 48.976562 117.371094 50.882812 117.371094 53.679688 L 117.371094 54.378906 L 109.25 54.378906 L 109.25 54.667969 C 109.25 57.898438 110.960938 60.136719 113.394531 60.136719 C 114.429688 60.136719 115.128906 59.875 116.550781 58.957031 Z M 115.25 53.316406 L 115.25 52.691406 C 115.25 51.148438 114.191406 50.039062 112.695312 50.039062 C 110.816406 50.039062 109.492188 51.292969 109.273438 53.316406 Z M 115.25 53.316406 "/>
<path style=" stroke:none;fill-rule:nonzero;fill:rgb(1.960784%,43.137255%,50.980392%);fill-opacity:1;" d="M 125.519531 60.933594 L 119.15625 60.933594 L 119.15625 59.96875 L 121.105469 59.96875 L 121.105469 50.6875 L 118.867188 50.6875 L 118.867188 49.988281 L 122.578125 48.976562 L 123.035156 48.976562 L 123.035156 51.871094 C 124.890625 49.507812 125.566406 48.929688 126.480469 48.929688 C 126.796875 48.929688 127.058594 49 127.203125 49.171875 L 128 49.871094 L 126.503906 51.675781 C 126 51.195312 125.636719 50.953125 125.371094 50.953125 C 124.914062 50.953125 124.457031 51.386719 123.035156 53.125 L 123.035156 59.96875 L 125.519531 59.96875 Z M 125.519531 60.933594 "/>
</g>
</svg>
