<?xml version="1.0" encoding="utf-8"?>
<!-- Generator: Adobe Illustrator 28.3.0, SVG Export Plug-In . SVG Version: 6.00 Build 0)  -->
<svg version="1.1" id="Logo" xmlns="http://www.w3.org/2000/svg" xmlns:xlink="http://www.w3.org/1999/xlink" x="0px" y="0px"
	 viewBox="0 0 128 64" style="enable-background:new 0 0 128 64;" xml:space="preserve">
<style type="text/css">
	.st0{fill:#056E82;}
</style>
<g>
	<path class="st0" d="M53.2,5.1H33.9v1.7h0.2c2.4,0,3.1,1.2,3.1,4.8v16.1c0,3.4-0.9,4.2-4.4,4.2h-0.2v1.7h21l1.5-7L54.1,26L54,26.1
		c-2.4,3.8-3.9,5.1-7.1,5.1c-2.7,0-3.6-1-3.6-4.1V20c0.3,0,2.9,0.1,2.9,0.1c2.8,0.1,3.6,0.7,4.4,3.4l0,0.1h1.2v-9.4h-1.2l0,0.1
		c-0.8,2.8-1.4,3.2-4.4,3.4c0,0-2.2,0.1-2.9,0.1V7.2c0.3,0,3.2,0.3,3.2,0.3c2.9,0.4,4.6,1,6.2,4.1l0.1,0.1l1.2-0.4l-0.6-6.3
		L53.2,5.1L53.2,5.1z"/>
	<path class="st0" d="M71.9,5.1H59.4v1.7h0.2c2.3,0,3.1,1.2,3.1,4.3v16.7c0,3.4-0.9,4.2-4.4,4.2h-0.2v1.7h21.1l1.5-7L79.5,26
		l-0.1,0.1c-2.6,4-4.1,5.1-7,5.1c-2.9,0-3.7-1-3.7-4.2V11.6c0-3.7,0.8-4.8,3.1-4.8h0.2V5L71.9,5.1L71.9,5.1z"/>
	<path class="st0" d="M6.2,4.9c-1,0-2.1,0.2-3.4,0.3l-0.1,0v1.7h0.2c2.8,0,3.2,0.5,3.2,4.6v16.3c0,3.4-0.8,4.3-4.1,4.3H1.8v1.7h8.1
		c1.5,0,2.8,0.1,4,0.2c0.9,0.1,1.7,0.1,2.5,0.1c4.3,0,7.9-1.4,10.6-4c2.6-2.6,4-6.3,4-10.7c0-5.4-2.4-9.7-6.8-12.5
		c-2.8-1.7-5.6-2.3-10.7-2.3C11,4.6,8.3,4.7,6.2,4.9 M12.1,26.8V6.8c3.3,0.2,4.3,0.4,6,1c1.2,0.5,2.4,1.3,3.3,2.3
		c2.2,2.2,3.3,5.2,3.3,8.8c0,3.5-0.9,6.7-2.6,9c-1.7,2.3-3.7,3.5-6.3,3.5C13.5,31.5,12.1,29.7,12.1,26.8"/>
	<path class="st0" d="M97.1,5.1h-3.9l-8.8,22.6c-1.4,3.5-1.9,4.2-3.6,4.3h-0.1v1.7h10.4V32h-0.2c-0.2,0-0.9,0-1.4-0.1
		c-1.1-0.2-1.6-0.8-1.6-1.8c0-0.5,0.1-1.1,0.3-1.7c0,0,1-3.2,1.2-3.9h9.2c0.1,0.2,1.4,4.2,1.4,4.2c0.2,0.4,0.3,0.9,0.3,1.3
		c0,1.4-0.9,1.9-2.8,1.9h-0.2v1.7h11.2V32l-0.1,0c-1-0.2-1.5-0.6-2-2.2L97.1,5.1L97.1,5.1z M93.9,11.5c0.3,0.8,3.6,9.9,3.7,10.3
		h-7.4C90.3,21.4,93.6,12.2,93.9,11.5"/>
	<path class="st0" d="M74,2.5c-0.2-0.4,0-0.6,0.4-0.6H89c0.4,0,0.6,0.3,0.4,0.6l-7.3,11.9c-0.2,0.4-0.6,0.4-0.8,0L74,2.5z"/>
	<g>
		<g>
			<path class="st0" d="M8.3,61.8H2v-1H4v-9.2H1.8V51L4,50.5v-2.1C4,45.2,6.1,43,9.1,43c1.2,0,2.4,0.3,3.5,1l-1.4,1.7
				c-1-0.9-1.3-1.1-2.5-1.7c-2,0.4-2.9,1.8-2.9,4.9v1.7h2.9v1.2H5.9v9.2h2.4L8.3,61.8L8.3,61.8z"/>
			<path class="st0" d="M24.3,61.1L20.6,62h-0.5v-2.9c-1.8,2.2-3,3-4.6,3c-1.9,0-3.1-1.2-3.1-3.3v-7.1h-2.2v-0.7l3.7-1h0.5v8.5
				c0,1.5,0.6,2.3,1.9,2.3c1,0,1.6-0.4,2.7-1.8c0.3-0.3,0.6-0.7,1.2-1.3v-6.1h-1.9v-0.8l3.4-0.9H22v10.3h2.2L24.3,61.1L24.3,61.1z
				 M14.5,48.2c-0.7,0-1.3-0.6-1.3-1.3c0-0.7,0.6-1.3,1.3-1.3c0.7,0,1.3,0.6,1.3,1.3C15.8,47.6,15.2,48.2,14.5,48.2z M19.5,48.2
				c-0.7,0-1.3-0.6-1.3-1.3c0-0.7,0.6-1.3,1.3-1.3c0.7,0,1.3,0.6,1.3,1.3C20.8,47.6,20.2,48.2,19.5,48.2z"/>
			<path class="st0" d="M31.8,61.8h-6.3v-1h1.9v-9.2h-2.2V51l3.7-1h0.5v2.9c1.8-2.3,2.5-2.9,3.4-2.9c0.3,0,0.6,0.1,0.7,0.2l0.8,0.7
				l-1.5,1.8c-0.5-0.5-0.9-0.7-1.1-0.7c-0.5,0-0.9,0.4-2.3,2.1v6.8h2.4L31.8,61.8L31.8,61.8z"/>
			<path class="st0" d="M44.5,60.8c-1.9,1.1-2.8,1.4-4.3,1.4c-3.2,0-5.5-2.5-5.5-6c0-3.6,2.3-6.2,5.5-6.2c2.7,0,4.6,1.9,4.6,4.6v0.7
				h-8v0.3c0,3.2,1.7,5.4,4.1,5.4c1,0,1.7-0.3,3.1-1.2L44.5,60.8z M42.7,54.3v-0.6c0-1.5-1-2.6-2.5-2.6c-1.9,0-3.2,1.2-3.4,3.2H42.7
				z"/>
			<path class="st0" d="M52.3,61.8h-5.8v-1h1.9v-9.2h-2.2V51l3.7-1h0.5v10.8h1.9L52.3,61.8L52.3,61.8z M49.3,44.4
				c0.8,0,1.4,0.6,1.4,1.3c0,0.8-0.6,1.4-1.4,1.4c-0.7,0-1.3-0.6-1.3-1.4C48,45,48.6,44.4,49.3,44.4z"/>
			<path class="st0" d="M67.2,61.8h-5.8v-1h1.9v-7.4c0-1.4-0.7-2.2-1.8-2.2c-1.1,0-1.7,0.5-3.9,3v6.6h1.9v1h-5.8v-1h1.9v-9.2h-2.2
				V51l3.7-1h0.5v2.9c1.9-2.2,3-2.9,4.6-2.9c1.9,0,3,1.2,3,3.2v7.7h1.9V61.8L67.2,61.8z"/>
			<path class="st0" d="M78.4,61.4l-1.7,0.5C76.4,62,76,62,75.8,62c-0.8,0-1.2-0.6-1.2-1.5c0-0.1,0-0.1,0-0.3
				c-1.1,1.3-2,1.9-3.4,1.9c-1.8,0-3-1.2-3-2.9c0-1.3,0.8-2.4,2.1-2.6l4.3-1v-2.9c0-1-0.8-1.8-1.8-1.8c-0.5,0-0.8,0.1-1.6,0.4v1.2
				L69,53.2c-0.2-0.3-0.2-0.4-0.2-0.7c0-1.5,1.7-2.6,4-2.6c2.2,0,3.7,1.1,3.7,2.8v7.8h1.9L78.4,61.4L78.4,61.4z M74.6,56.6l-4.3,1
				v1.3c0,1.1,0.7,1.8,1.8,1.8c0.8,0,1.5-0.4,2.6-1.4V56.6z"/>
			<path class="st0" d="M93.3,61.8h-5.8v-1h1.9v-7.4c0-1.4-0.7-2.2-1.8-2.2c-1.1,0-1.7,0.5-3.9,3v6.6h1.9v1h-5.8v-1h1.9v-9.2h-2.2
				V51l3.7-1h0.5v2.9c1.9-2.2,3-2.9,4.6-2.9c1.9,0,3,1.2,3,3.2v7.7h1.9L93.3,61.8L93.3,61.8z"/>
			<path class="st0" d="M106.8,61.1l-3.7,1h-0.5v-1.8c-1.4,1.4-2.3,1.9-3.6,1.9c-2.6,0-4.7-2.6-4.7-5.8c0-3.5,2.7-6.3,6-6.3
				c0.9,0,1.3,0.1,2.3,0.6v-5.9h-2.2v-0.7l3.7-1h0.5v17.3h2.2L106.8,61.1L106.8,61.1z M102.6,59.1v-5.9c0-1.6-0.5-2.1-2-2.1
				c-2.5,0-4.1,1.9-4.1,4.9c0,2.9,1.2,4.5,3.3,4.5c0.8,0,1.2-0.1,2.1-0.8C102,59.5,102.3,59.4,102.6,59.1z"/>
			<path class="st0" d="M117.2,60.8c-1.9,1.1-2.8,1.4-4.3,1.4c-3.2,0-5.5-2.5-5.5-6c0-3.6,2.3-6.2,5.5-6.2c2.7,0,4.6,1.9,4.6,4.6
				v0.7h-8v0.3c0,3.2,1.7,5.4,4.1,5.4c1,0,1.7-0.3,3.1-1.2L117.2,60.8z M115.4,54.3v-0.6c0-1.5-1-2.6-2.5-2.6
				c-1.9,0-3.2,1.2-3.4,3.2H115.4z"/>
			<path class="st0" d="M125.6,61.8h-6.3v-1h1.9v-9.2H119V51l3.7-1h0.5v2.9c1.8-2.3,2.5-2.9,3.4-2.9c0.3,0,0.6,0.1,0.7,0.2l0.8,0.7
				l-1.5,1.8c-0.5-0.5-0.9-0.7-1.1-0.7c-0.5,0-0.9,0.4-2.3,2.1v6.8h2.4L125.6,61.8L125.6,61.8z"/>
		</g>
	</g>
</g>
</svg>
