<svg width="128" height="64" viewBox="0 0 128 64" fill="none" xmlns="http://www.w3.org/2000/svg">
<g clip-path="url(#clip0_35023_16516)">
<path d="M115.623 20.9671L118.768 27.1406L126 13.0002L115.623 20.9671Z" fill="#FFBB00"/>
<path d="M5.52718 36.1658C5.87995 36.1658 6.23273 36.1364 6.58551 36.0482C6.82069 35.9894 7.05587 35.9012 7.26166 35.7542C7.40865 35.6366 7.52624 35.4896 7.61443 35.3132C7.67323 35.1368 7.70263 34.9311 7.70263 34.7547C7.70263 34.3137 7.46744 33.9021 7.08527 33.667C6.40912 33.2554 5.70357 32.932 4.93922 32.7262C4.49825 32.5792 4.05728 32.4028 3.61631 32.1971C3.17535 31.9913 2.79317 31.7561 2.4404 31.4327C2.08762 31.1387 1.79364 30.7566 1.58786 30.345C1.35267 29.8452 1.23508 29.3161 1.26448 28.7575C1.26448 28.1695 1.35267 27.611 1.61726 27.0818C1.85244 26.582 2.17582 26.1411 2.61679 25.8177C3.08715 25.4649 3.61631 25.1709 4.17488 25.024C4.85103 24.8182 5.52718 24.73 6.23273 24.73C7.02647 24.73 7.82022 24.8182 8.58456 25.024C9.14312 25.2003 9.70169 25.4061 10.2308 25.7001L9.34891 28.0813C8.93734 27.8756 8.52577 27.6992 8.0848 27.5522C7.55564 27.4052 6.99708 27.317 6.40912 27.317C5.67417 27.317 5.1744 27.4052 4.85103 27.611C4.52765 27.8168 4.35126 28.1695 4.38066 28.5223C4.38066 28.7575 4.43946 28.9633 4.55705 29.1397C4.70404 29.3161 4.85103 29.4924 5.05681 29.5806C5.292 29.7276 5.52718 29.8452 5.79176 29.9628C6.08574 30.0804 6.37972 30.198 6.7031 30.3156C7.32045 30.5508 7.93781 30.786 8.52577 31.0799C8.99614 31.3151 9.4371 31.6091 9.81928 31.9619C10.1721 32.2852 10.4072 32.6968 10.5836 33.1378C10.76 33.667 10.8482 34.2255 10.8482 34.7841C10.8482 36.0482 10.4072 37.0183 9.5253 37.7239C8.64336 38.4294 7.32045 38.7822 5.52718 38.7822C4.99802 38.7822 4.43946 38.7528 3.91029 38.6646C3.46932 38.6058 3.05775 38.5176 2.64618 38.4C2.32281 38.3118 1.99943 38.1942 1.70545 38.0766C1.47027 37.9884 1.23508 37.8709 1.0293 37.7533L1.88184 35.3426C2.3522 35.5778 2.85197 35.7836 3.38113 35.9306C4.05728 36.107 4.79223 36.1952 5.52718 36.1658Z" fill="#0A2F73"/>
<path d="M12.23 25.7001L15.1404 25.2297V28.2577H18.6093V30.6684H15.1404V34.2549C15.111 34.7547 15.2286 35.2838 15.4638 35.7248C15.6695 36.0776 16.1105 36.254 16.7573 36.254C17.0806 36.254 17.404 36.2246 17.7274 36.1658C18.0214 36.107 18.3447 36.0188 18.6387 35.9012L19.0503 38.1648C18.6681 38.3118 18.286 38.4294 17.8744 38.547C17.3746 38.6646 16.8455 38.7234 16.3163 38.7234C15.6401 38.7528 14.9934 38.6352 14.3466 38.4C13.8763 38.2236 13.4353 37.9002 13.1119 37.5181C12.7885 37.1065 12.5534 36.6361 12.4652 36.1364C12.3476 35.5484 12.2888 34.9311 12.2888 34.3137L12.23 25.7001Z" fill="#0A2F73"/>
<path d="M24.0479 27.993C24.7828 27.9636 25.4884 28.0812 26.1939 28.287C26.7231 28.4634 27.1935 28.7279 27.5756 29.1101C27.9284 29.4923 28.1636 29.9333 28.3106 30.433C28.4576 30.9916 28.5164 31.5795 28.5164 32.1675V38.1941C28.1048 38.2823 27.5168 38.3999 26.7819 38.5175C25.8999 38.635 24.9886 38.7232 24.1067 38.6938C23.4893 38.6938 22.9014 38.635 22.3134 38.5175C21.8136 38.3999 21.3433 38.2235 20.9317 37.9295C20.5495 37.6649 20.2555 37.3121 20.0498 36.8712C19.8146 36.3714 19.7264 35.8422 19.7264 35.3131C19.697 34.7839 19.844 34.2548 20.0792 33.7844C20.3143 33.3728 20.6377 33.0494 21.0493 32.7849C21.4903 32.5203 21.9312 32.3439 22.431 32.2557C22.9602 32.1381 23.5187 32.0793 24.0479 32.0793C24.3713 32.0793 24.724 32.1087 25.0474 32.1381C25.2826 32.1675 25.5178 32.1969 25.753 32.2557V31.9911C25.7824 31.5501 25.606 31.1386 25.312 30.8152C25.018 30.5212 24.4888 30.3742 23.7539 30.3742C23.2541 30.3742 22.7838 30.4036 22.284 30.4918C21.8724 30.5506 21.4315 30.6388 21.0493 30.7858L20.6671 28.4634C20.8435 28.4046 21.0493 28.3458 21.3139 28.287C21.5785 28.2282 21.843 28.1694 22.137 28.14C22.431 28.1106 22.7544 28.0518 23.0777 28.0224C23.4011 27.993 23.6951 27.993 24.0479 27.993ZM24.2831 36.489C24.577 36.489 24.8416 36.489 25.1062 36.4596C25.312 36.4596 25.5178 36.4302 25.7236 36.4008V34.196C25.5472 34.1666 25.3708 34.1372 25.1944 34.1078C24.9886 34.0784 24.7534 34.0784 24.5476 34.0784C24.2831 34.0784 24.0185 34.1078 23.7833 34.1372C23.5775 34.1666 23.3423 34.2254 23.1365 34.3136C22.9602 34.4017 22.8132 34.5193 22.725 34.6957C22.6074 34.8721 22.5486 35.0779 22.578 35.2837C22.5486 35.6659 22.725 36.0186 23.0483 36.2244C23.4011 36.4008 23.8421 36.489 24.2831 36.489Z" fill="#0A2F73"/>
<path d="M30.5156 28.6104C31.133 28.434 31.7797 28.3165 32.4265 28.1989C33.2496 28.0813 34.0434 28.0225 34.8665 28.0225C35.6015 27.9931 36.3364 28.1107 37.042 28.3753C37.5711 28.581 38.0415 28.9044 38.4237 29.3454C38.7764 29.7864 39.0116 30.2861 39.1586 30.8153C39.3056 31.4326 39.3938 32.0794 39.3644 32.7261V38.5175H36.454V33.0495C36.454 32.1088 36.3364 31.462 36.1012 31.0505C35.866 30.6683 35.3957 30.4625 34.7195 30.4625C34.5137 30.4625 34.2786 30.4625 34.0728 30.4919C33.867 30.5213 33.6318 30.5213 33.4554 30.5507V38.4587H30.545L30.5156 28.6104Z" fill="#0A2F73"/>
<path d="M50.3886 38.1648C50.124 38.253 49.8301 38.3118 49.4773 38.4C49.1245 38.4882 48.7717 38.5176 48.419 38.5764C48.0662 38.6352 47.684 38.6646 47.3018 38.694C46.9197 38.7234 46.5375 38.7528 46.2141 38.7528C45.4498 38.7528 44.6854 38.6352 43.9505 38.3706C42.6864 37.9297 41.6868 36.9007 41.2459 35.6366C40.9813 34.9311 40.8637 34.1667 40.8931 33.4318C40.8931 32.6674 40.9813 31.9031 41.2165 31.1681C41.3928 30.5508 41.7162 29.9628 42.1278 29.4631C42.51 28.9927 43.0097 28.6399 43.5683 28.4047C44.1857 28.1402 44.8324 28.0226 45.5086 28.0226C45.8613 28.0226 46.2435 28.052 46.5963 28.1402C46.9197 28.2283 47.243 28.3459 47.5664 28.4635V23.8481L50.4768 23.3777V38.1648H50.3886ZM43.8329 33.2848C43.8035 34.0491 44.0093 34.8135 44.4502 35.4308C44.8618 35.9894 45.538 36.2834 46.2435 36.254C46.5081 36.254 46.7433 36.254 46.9491 36.2246C47.1548 36.1952 47.3606 36.1952 47.5076 36.1658V30.9036C47.3018 30.7566 47.0373 30.6684 46.8021 30.6096C46.5081 30.5214 46.2141 30.492 45.9201 30.492C44.509 30.492 43.8329 31.4327 43.8329 33.2848Z" fill="#0A2F73"/>
<path d="M56.1798 27.993C56.9148 27.9636 57.6497 28.0812 58.3259 28.287C58.855 28.4634 59.3254 28.7279 59.7076 29.1101C60.0603 29.4923 60.2955 29.9333 60.4425 30.433C60.5895 30.9916 60.6777 31.5795 60.6483 32.1675V38.1941C60.2367 38.2823 59.6488 38.3999 58.9138 38.5175C58.0319 38.635 57.1205 38.7232 56.2386 38.6938C55.6213 38.6938 55.0333 38.635 54.4453 38.5175C53.9456 38.3999 53.4752 38.2235 53.0636 37.9295C52.6815 37.6649 52.3875 37.3121 52.1817 36.8712C51.9465 36.3714 51.8289 35.8422 51.8289 35.3131C51.7995 34.7839 51.9465 34.2548 52.1817 33.7844C52.4169 33.3728 52.7403 33.0494 53.1518 32.7849C53.5634 32.5203 54.0338 32.3439 54.5335 32.2557C55.0627 32.1381 55.6213 32.0793 56.1504 32.0793C56.4738 32.0793 56.8266 32.1087 57.1499 32.1381C57.3851 32.1675 57.6203 32.1969 57.8555 32.2557V31.9911C57.8849 31.5501 57.7085 31.1386 57.4145 30.8152C57.1205 30.5212 56.5914 30.3742 55.8564 30.3742C55.3567 30.3742 54.8863 30.4036 54.3865 30.4918C53.975 30.5506 53.534 30.6388 53.1518 30.7858L52.7697 28.4634C52.946 28.4046 53.1518 28.3458 53.387 28.287C53.6222 28.2282 53.9162 28.1694 54.2102 28.14C54.5041 28.1106 54.8275 28.0518 55.1509 28.0224C55.4743 27.993 55.827 27.993 56.1798 27.993ZM56.415 36.489C56.709 36.489 56.9736 36.489 57.2381 36.4596C57.4439 36.4596 57.6497 36.4302 57.8555 36.4008V34.196C57.6791 34.1666 57.5027 34.1372 57.3263 34.1078C56.856 34.049 56.3856 34.049 55.9152 34.1078C55.7095 34.1372 55.4743 34.196 55.2979 34.2842C55.1215 34.3723 54.9745 34.4899 54.8569 34.6663C54.7393 34.8427 54.6805 35.0485 54.7099 35.2543C54.6805 35.6365 54.8569 35.9892 55.1803 36.195C55.5331 36.4008 55.974 36.489 56.415 36.489Z" fill="#0A2F73"/>
<path d="M68.8209 30.8154C68.5563 30.7566 68.2624 30.6684 67.9096 30.6096C67.5274 30.5508 67.1452 30.492 66.7925 30.492C66.5867 30.492 66.3515 30.5214 66.1457 30.5508C65.9399 30.5802 65.7635 30.6096 65.5872 30.6684V38.4882H62.6768V28.7869C63.2941 28.5811 63.9115 28.4047 64.5288 28.2871C65.2932 28.1108 66.0869 28.0226 66.8807 28.052C67.0277 28.052 67.2334 28.052 67.4392 28.0814C67.645 28.1108 67.8802 28.1402 68.086 28.1695C68.2918 28.1989 68.5269 28.2283 68.7327 28.2871C68.9385 28.3165 69.1149 28.3753 69.2913 28.4635L68.8209 30.8154Z" fill="#0A2F73"/>
<path d="M79.1692 38.1648C78.9046 38.253 78.6106 38.3118 78.2872 38.4C77.9639 38.4882 77.5817 38.5176 77.2289 38.5764C76.8761 38.6352 76.494 38.6646 76.1118 38.694C75.7296 38.7234 75.3474 38.7528 74.9947 38.7528C74.2303 38.7528 73.466 38.6352 72.7604 38.3706C72.1431 38.1354 71.5551 37.7827 71.0847 37.3123C70.6144 36.8419 70.2616 36.254 70.0264 35.6366C69.7912 34.9311 69.6443 34.1667 69.6736 33.4318C69.6736 32.6674 69.7618 31.9031 69.997 31.1681C70.1734 30.5508 70.4674 29.9628 70.879 29.4631C71.2611 28.9927 71.7609 28.6399 72.3195 28.4047C72.9368 28.1402 73.5836 28.0226 74.2597 28.0226C74.6125 28.0226 74.9947 28.052 75.3474 28.1402C75.6708 28.2283 75.9942 28.3459 76.3176 28.4635V23.8481L79.228 23.3777L79.1692 38.1648ZM72.6134 33.2848C72.584 34.0491 72.7898 34.8135 73.2308 35.4308C73.6424 35.9894 74.3185 36.2834 75.0241 36.254C75.2887 36.254 75.5238 36.254 75.7296 36.2246C75.9354 36.1952 76.1412 36.1952 76.2882 36.1658V30.9036C76.0824 30.7566 75.8178 30.6684 75.5826 30.6096C75.2887 30.5214 74.9947 30.492 74.7007 30.492C73.2896 30.492 72.6134 31.4327 72.6134 33.2848Z" fill="#0A2F73"/>
<path d="M93.2799 35.8716V38.488H84.2842V24.9944H87.3122V35.8716H93.2799Z" fill="#0A2F73"/>
<path d="M97.8659 25.2884C97.8953 25.7588 97.6895 26.2291 97.3367 26.5525C96.6312 27.1699 95.6022 27.1699 94.8967 26.5525C94.5439 26.2291 94.3675 25.7588 94.3675 25.2884C94.3381 24.818 94.5439 24.3477 94.8967 24.0243C95.6022 23.4069 96.6312 23.4069 97.3367 24.0243C97.6895 24.3771 97.8953 24.818 97.8659 25.2884ZM97.6013 38.4881H94.6909V28.2576H97.6013V38.4881Z" fill="#0A2F73"/>
<path d="M103.863 23.3777C104.363 23.3777 104.863 23.4365 105.363 23.5541C105.715 23.6423 106.068 23.7305 106.421 23.8775L105.862 26.1999C105.598 26.0823 105.304 25.9941 105.01 25.9353C104.745 25.8765 104.451 25.8471 104.157 25.8471C103.863 25.8471 103.569 25.8765 103.275 25.9941C103.07 26.0823 102.864 26.1999 102.717 26.3763C102.57 26.5527 102.482 26.7584 102.423 26.9936C102.364 27.2288 102.335 27.4934 102.335 27.758V28.2577H105.921V30.6684H102.335V38.4882H99.4243V27.6992C99.4243 26.3763 99.8065 25.3179 100.541 24.5536C101.276 23.7599 102.394 23.3777 103.863 23.3777Z" fill="#0A2F73"/>
<path d="M106.48 33.4612C106.45 32.638 106.597 31.8443 106.891 31.0799C107.156 30.4332 107.509 29.8746 108.008 29.3749C108.449 28.9339 108.979 28.5811 109.567 28.3459C110.155 28.1108 110.772 27.9932 111.389 27.9932C112.83 27.9932 113.976 28.4341 114.829 29.3161C115.681 30.198 116.093 31.5209 116.093 33.226C116.093 33.4024 116.093 33.5788 116.063 33.7846C116.034 33.9903 116.034 34.1667 116.034 34.3137H109.449C109.508 34.9017 109.802 35.4014 110.301 35.7248C110.889 36.107 111.595 36.2834 112.301 36.254C112.83 36.254 113.359 36.1952 113.859 36.107C114.3 36.0482 114.711 35.9012 115.123 35.7542L115.505 38.1061C115.299 38.1942 115.093 38.2824 114.888 38.3412C114.594 38.4294 114.3 38.4882 114.006 38.547C113.682 38.6058 113.359 38.6646 112.977 38.694C112.624 38.7234 112.242 38.7528 111.889 38.7528C111.066 38.7822 110.243 38.6352 109.478 38.3412C108.832 38.1061 108.273 37.7239 107.773 37.2241C107.332 36.7537 106.98 36.1658 106.774 35.5484C106.568 34.8723 106.48 34.1667 106.48 33.4612ZM113.3 32.3441C113.3 32.1089 113.241 31.8443 113.182 31.6091C113.124 31.3739 113.006 31.1681 112.859 30.9918C112.712 30.8154 112.506 30.639 112.301 30.5508C112.036 30.4332 111.742 30.3744 111.448 30.3744C111.154 30.3744 110.86 30.4332 110.595 30.5508C110.36 30.639 110.184 30.8154 110.008 30.9918C109.861 31.1681 109.714 31.4033 109.655 31.6385C109.567 31.8737 109.508 32.1089 109.478 32.3735L113.3 32.3441Z" fill="#0A2F73"/>
<path d="M4.67474 45.3379V45.9258H3.17545V50.1298H2.49929V45.9258H1V45.3379H4.67474Z" fill="#0A2F73"/>
<path d="M4.64502 48.3363C4.64502 48.0129 4.70382 47.7483 4.79201 47.5132C4.8802 47.278 4.99779 47.0722 5.14478 46.9252C5.29177 46.7782 5.46816 46.6606 5.67395 46.5724C5.87973 46.4842 6.08552 46.4548 6.2913 46.4548C6.76167 46.4548 7.14384 46.6018 7.40842 46.8958C7.67301 47.1898 7.7906 47.6601 7.7906 48.2775V48.5127H5.32117C5.35057 48.8949 5.46816 49.1594 5.64455 49.3652C5.82094 49.571 6.11492 49.6592 6.52649 49.6592C6.76167 49.6592 6.93806 49.6298 7.08505 49.6004C7.23204 49.571 7.34963 49.5122 7.43782 49.4828L7.52602 50.012C7.43782 50.0414 7.32023 50.1002 7.11445 50.1296C6.90866 50.159 6.70287 50.1884 6.43829 50.1884C6.11492 50.1884 5.85033 50.1296 5.61515 50.0414C5.37997 49.9532 5.20358 49.8062 5.05659 49.6592C4.9096 49.4828 4.79201 49.3064 4.73321 49.0712C4.67442 48.8361 4.64502 48.6009 4.64502 48.3363ZM7.11445 47.9835C7.11445 47.6895 7.05565 47.4544 6.90866 47.278C6.76167 47.1016 6.55589 46.984 6.2913 46.984C6.14431 46.984 6.02672 47.0134 5.90913 47.0722C5.79154 47.131 5.70335 47.2192 5.61515 47.3074C5.52696 47.3956 5.46816 47.5132 5.43876 47.6308C5.40937 47.7483 5.37997 47.8659 5.35057 47.9835H7.11445Z" fill="#0A2F73"/>
<path d="M8.93745 45.8964C8.81986 45.8964 8.73166 45.867 8.64347 45.7788C8.55528 45.6906 8.52588 45.6024 8.52588 45.4848C8.52588 45.3672 8.55528 45.2496 8.64347 45.1908C8.73166 45.132 8.81986 45.0732 8.93745 45.0732C9.05504 45.0732 9.14324 45.1026 9.23143 45.1908C9.31962 45.279 9.34902 45.3672 9.34902 45.4848C9.34902 45.6024 9.31962 45.72 9.23143 45.7788C9.14324 45.8376 9.02564 45.8964 8.93745 45.8964ZM9.26083 50.1297H8.61407V46.5431H9.26083V50.1297Z" fill="#0A2F73"/>
<path d="M11.3187 50.1885C10.9365 50.1885 10.6425 50.1003 10.4661 49.9239C10.2898 49.7769 10.231 49.5123 10.231 49.1595V44.8381L10.8777 44.7205V49.042C10.8777 49.1595 10.8777 49.2477 10.9071 49.3065L10.9953 49.4829C11.0247 49.5123 11.0835 49.5417 11.1717 49.5711C11.2305 49.6005 11.3187 49.6005 11.4363 49.6299L11.3187 50.1885Z" fill="#0A2F73"/>
<path d="M15.8166 44.8676L16.4633 44.75V50.0122C16.3164 50.0416 16.14 50.1004 15.9048 50.1298C15.6696 50.1592 15.405 50.1886 15.111 50.1886C14.8465 50.1886 14.5819 50.1592 14.3761 50.071C14.1409 49.9828 13.9645 49.8652 13.8175 49.6889C13.6705 49.5419 13.553 49.3361 13.4648 49.1009C13.3766 48.8657 13.3472 48.6011 13.3472 48.3071C13.3472 48.0426 13.3766 47.778 13.4648 47.5428C13.5236 47.3076 13.6411 47.1018 13.7881 46.9548C13.9351 46.7785 14.0821 46.6609 14.2879 46.5727C14.4937 46.4845 14.7289 46.4257 14.9641 46.4257C15.1698 46.4257 15.3462 46.4551 15.5226 46.5139C15.6696 46.5727 15.7872 46.6315 15.8754 46.6609V44.8676H15.8166ZM15.8166 47.3076C15.7284 47.2488 15.6108 47.19 15.4638 47.1312C15.3168 47.0724 15.1698 47.043 14.9935 47.043C14.8171 47.043 14.6407 47.0724 14.5231 47.1312C14.4055 47.19 14.2879 47.2782 14.1997 47.3958C14.1115 47.5134 14.0527 47.6604 14.0233 47.8074C13.9939 47.9544 13.9645 48.1308 13.9645 48.3365C13.9645 48.7481 14.0821 49.0715 14.2879 49.3067C14.4937 49.5419 14.7583 49.6595 15.111 49.6595C15.2874 49.6595 15.4344 49.6595 15.552 49.6301C15.6696 49.6007 15.7578 49.6007 15.8166 49.5713V47.3076Z" fill="#0A2F73"/>
<path d="M17.2568 48.3363C17.2568 48.0129 17.3156 47.7483 17.4038 47.5132C17.492 47.278 17.6096 47.0722 17.7566 46.9252C17.9036 46.7782 18.08 46.6606 18.2858 46.5724C18.4915 46.4842 18.6973 46.4548 18.9031 46.4548C19.3735 46.4548 19.7557 46.6018 20.0202 46.8958C20.2848 47.1898 20.4024 47.6601 20.4024 48.2775V48.5127H17.933C17.9624 48.8949 18.08 49.1594 18.2564 49.3652C18.4328 49.571 18.7267 49.6592 19.1383 49.6592C19.3735 49.6592 19.5499 49.6298 19.6969 49.6004C19.8439 49.571 19.9614 49.5122 20.0496 49.4828L20.1378 50.012C20.0496 50.0414 19.932 50.1002 19.7263 50.1296C19.5205 50.159 19.3147 50.1884 19.0501 50.1884C18.7267 50.1884 18.4622 50.1296 18.227 50.0414C17.9918 49.9532 17.8154 49.8062 17.6684 49.6592C17.5214 49.4828 17.4038 49.3064 17.345 49.0712C17.2862 48.8361 17.2568 48.6009 17.2568 48.3363ZM19.7263 47.9835C19.7263 47.6895 19.6675 47.4544 19.5205 47.278C19.3735 47.1016 19.1677 46.984 18.9031 46.984C18.7561 46.984 18.6385 47.0134 18.5209 47.0722C18.4034 47.131 18.3152 47.2192 18.227 47.3074C18.1388 47.3956 18.08 47.5132 18.0506 47.6308C18.0212 47.7483 17.9918 47.8659 17.9624 47.9835H19.7263Z" fill="#0A2F73"/>
<path d="M22.5487 46.4548H22.7251C22.7839 46.4548 22.8721 46.4842 22.9309 46.4842C22.9897 46.4842 23.0779 46.5136 23.1073 46.5136C23.1661 46.5136 23.1954 46.543 23.2248 46.543L23.1073 47.1016C23.0485 47.0722 22.9603 47.0722 22.8427 47.0428C22.7251 47.0134 22.5781 47.0134 22.4017 47.0134C22.2841 47.0134 22.1665 47.0134 22.0489 47.0428C21.9313 47.0722 21.8431 47.0722 21.8137 47.1016V50.1296H21.167V46.69C21.314 46.6312 21.5198 46.5724 21.7256 46.543C22.0195 46.4842 22.2547 46.4548 22.5487 46.4548Z" fill="#0A2F73"/>
<path d="M26.4585 45.3083C27.1347 45.3083 27.6345 45.4259 27.9872 45.6905C28.34 45.9551 28.5164 46.3373 28.5164 46.837C28.5164 47.1016 28.4576 47.3368 28.3694 47.5426C28.2812 47.7484 28.1342 47.8954 27.9578 48.013C27.7815 48.1305 27.5463 48.2187 27.2817 48.2775C27.0171 48.3363 26.7231 48.3657 26.3704 48.3657H25.8412V50.1296H25.165V45.4259C25.3414 45.3671 25.5766 45.3377 25.7824 45.3377C25.9882 45.3377 26.2528 45.3083 26.4585 45.3083ZM26.5173 45.8963C26.2234 45.8963 26.0176 45.8963 25.8706 45.9257V47.8072H26.3704C26.6055 47.8072 26.8113 47.8072 26.9877 47.7484C27.1641 47.719 27.3111 47.6602 27.4581 47.6014C27.5757 47.5426 27.6933 47.425 27.7521 47.3074C27.8109 47.1898 27.8696 47.0134 27.8696 46.837C27.8696 46.6607 27.8403 46.5137 27.7521 46.3961C27.6933 46.2785 27.5757 46.1903 27.4581 46.1021C27.3405 46.0433 27.1935 45.9845 27.0465 45.9551C26.8995 45.9257 26.6937 45.8963 26.5173 45.8963Z" fill="#0A2F73"/>
<path d="M29.2515 50.1297V44.8969L29.8982 44.7793V46.602C30.0158 46.5432 30.1334 46.5138 30.2804 46.4844C30.4274 46.455 30.545 46.455 30.692 46.455C30.9859 46.455 31.2211 46.4844 31.3975 46.5726C31.5739 46.6608 31.7209 46.7784 31.8385 46.8959C31.9561 47.0135 32.0443 47.2193 32.0737 47.4251C32.1325 47.6309 32.1325 47.8367 32.1325 48.1013V50.1003H31.4857V48.2189C31.4857 48.0131 31.4563 47.8073 31.4269 47.6603C31.3975 47.5133 31.3387 47.3663 31.2799 47.2781C31.2211 47.1899 31.1329 47.1017 31.0153 47.0723C30.8977 47.0429 30.7508 47.0135 30.5744 47.0135H30.3686C30.3098 47.0135 30.2216 47.0429 30.1628 47.0429C30.104 47.0429 30.0452 47.0723 29.9864 47.0723C29.9276 47.0723 29.8982 47.1017 29.8688 47.1017V50.0709H29.2515V50.1297Z" fill="#0A2F73"/>
<path d="M36.2478 48.3363C36.2478 48.6303 36.2185 48.8655 36.1303 49.1006C36.0421 49.3358 35.9245 49.5416 35.7775 49.6886C35.6305 49.865 35.4541 49.9826 35.2483 50.0708C35.0425 50.159 34.8073 50.2178 34.5722 50.2178C34.337 50.2178 34.1018 50.159 33.896 50.0708C33.6902 49.9826 33.5138 49.865 33.3669 49.6886C33.2199 49.5122 33.1023 49.3358 33.0141 49.1006C32.9259 48.8655 32.8965 48.6009 32.8965 48.3363C32.8965 48.0423 32.9259 47.8071 33.0141 47.572C33.1023 47.3368 33.2199 47.131 33.3669 46.984C33.5138 46.8076 33.6902 46.69 33.896 46.6018C34.1018 46.5136 34.337 46.4548 34.5722 46.4548C34.8073 46.4548 35.0425 46.5136 35.2483 46.6018C35.4541 46.69 35.6305 46.8076 35.7775 46.984C35.9245 47.1604 36.0421 47.3368 36.1303 47.572C36.2185 47.8071 36.2478 48.0717 36.2478 48.3363ZM35.6011 48.3363C35.6011 47.9247 35.5129 47.6014 35.3365 47.3662C35.1601 47.131 34.8955 47.0134 34.6016 47.0134C34.2782 47.0134 34.043 47.131 33.8666 47.3662C33.6902 47.6014 33.602 47.9247 33.602 48.3363C33.602 48.7479 33.6902 49.0712 33.8666 49.3064C34.043 49.5416 34.3076 49.6592 34.6016 49.6592C34.9249 49.6592 35.1601 49.5416 35.3365 49.3064C35.5129 49.0712 35.6011 48.7479 35.6011 48.3363Z" fill="#0A2F73"/>
<path d="M36.895 48.3363C36.895 48.0129 36.9538 47.7483 37.042 47.5132C37.1302 47.278 37.2478 47.0722 37.3948 46.9252C37.5418 46.7782 37.7182 46.6606 37.9239 46.5724C38.1297 46.4842 38.3355 46.4548 38.5413 46.4548C39.0117 46.4548 39.3938 46.6018 39.6584 46.8958C39.923 47.1898 40.0406 47.6601 40.0406 48.2775V48.5127H37.6006C37.63 48.8949 37.7476 49.1594 37.9239 49.3652C38.1003 49.571 38.3943 49.6592 38.8059 49.6592C39.0411 49.6592 39.2175 49.6298 39.3644 49.6004C39.5114 49.571 39.629 49.5122 39.7172 49.4828L39.8054 50.012C39.7172 50.0414 39.5996 50.1002 39.3938 50.1296C39.1881 50.1884 38.9823 50.1884 38.7177 50.1884C38.3943 50.1884 38.1297 50.1296 37.9239 50.0414C37.6888 49.9532 37.5124 49.8062 37.3654 49.6592C37.2184 49.4828 37.1008 49.3064 37.042 49.0712C36.9244 48.8655 36.895 48.6303 36.895 48.3363ZM39.3644 47.9835C39.3644 47.6895 39.3057 47.4544 39.1587 47.278C39.0117 47.1016 38.8059 47.0134 38.5413 47.0134C38.3943 47.0134 38.2767 47.0428 38.1591 47.1016C38.0415 47.1604 37.9533 47.2192 37.8652 47.3368C37.777 47.425 37.7182 47.5426 37.6888 47.6601C37.6594 47.7777 37.63 47.8953 37.6006 48.0129H39.3644V47.9835Z" fill="#0A2F73"/>
<path d="M40.8634 46.6608C41.0104 46.6314 41.2162 46.5726 41.4513 46.5432C41.6865 46.5138 41.9805 46.4844 42.3039 46.4844C42.5979 46.4844 42.833 46.5138 43.0094 46.602C43.1858 46.6902 43.3328 46.8078 43.4504 46.9253C43.568 47.0429 43.6562 47.2487 43.6856 47.4545C43.7444 47.6603 43.7444 47.8661 43.7444 48.1307V50.1297H43.0976V48.2483C43.0976 48.0425 43.0682 47.8367 43.0388 47.6897C43.0094 47.5427 42.9506 47.3957 42.8918 47.3075C42.833 47.2193 42.7449 47.1311 42.6273 47.1017C42.5097 47.0723 42.3627 47.0429 42.1863 47.0429H41.9805C41.9217 47.0429 41.8335 47.0429 41.7747 47.0723C41.7159 47.0723 41.6571 47.1017 41.5983 47.1017C41.5395 47.1017 41.5101 47.1311 41.4807 47.1311V50.1591H40.834V46.6608H40.8634Z" fill="#0A2F73"/>
<path d="M45.038 45.8964C44.9204 45.8964 44.8323 45.867 44.7441 45.7788C44.6559 45.6906 44.6265 45.6024 44.6265 45.4848C44.6265 45.3672 44.6559 45.2496 44.7441 45.1908C44.8323 45.1026 44.9204 45.0732 45.038 45.0732C45.1556 45.0732 45.2438 45.1026 45.332 45.1908C45.4202 45.279 45.4496 45.3672 45.4496 45.4848C45.4496 45.6024 45.4202 45.72 45.332 45.7788C45.2438 45.867 45.1556 45.8964 45.038 45.8964ZM45.3614 50.1297H44.7147V46.5431H45.3614V50.1297Z" fill="#0A2F73"/>
<path d="M48.5365 50.1296C48.4777 50.0414 48.4189 49.9238 48.3601 49.8062C48.3013 49.6886 48.2131 49.5416 48.125 49.424C48.0368 49.3064 47.9486 49.1594 47.8604 49.0418C47.7722 48.9242 47.684 48.8067 47.5958 48.6891C47.5076 48.8067 47.4194 48.9242 47.3312 49.0712C47.243 49.1888 47.1548 49.3358 47.0666 49.4534C46.9784 49.571 46.8902 49.718 46.8314 49.8356C46.7726 49.9532 46.6845 50.0708 46.6551 50.159H46.0083C46.1553 49.8356 46.3611 49.5416 46.5963 49.2182C46.8314 48.8948 47.0372 48.6009 47.2724 48.3069L46.0965 46.6018H46.8314L47.684 47.8659L48.5365 46.6018H49.2127L48.0662 48.2481C48.2719 48.5421 48.5071 48.8654 48.7423 49.1888C48.9775 49.5122 49.1833 49.8356 49.3303 50.159H48.5365V50.1296Z" fill="#0A2F73"/>
<path d="M54.0926 47.778H54.7688V50.0122C54.71 50.0416 54.6218 50.0416 54.5336 50.071C54.416 50.1004 54.2984 50.1298 54.1808 50.1298C54.0632 50.1298 53.8869 50.1592 53.7399 50.1886C53.5929 50.218 53.4165 50.218 53.2401 50.218C52.9167 50.218 52.5933 50.1592 52.3288 50.0416C52.0642 49.924 51.829 49.777 51.6232 49.5713C51.4174 49.3655 51.2704 49.1009 51.1528 48.8069C51.0353 48.5129 51.0059 48.1602 51.0059 47.7486C51.0059 47.337 51.0647 46.9842 51.1822 46.6903C51.2998 46.3669 51.4762 46.1317 51.682 45.8965C51.8878 45.6907 52.123 45.5143 52.417 45.4261C52.7109 45.338 53.0049 45.2498 53.2989 45.2498C53.5047 45.2498 53.7105 45.2498 53.8869 45.2792C54.0632 45.3086 54.2102 45.338 54.3278 45.3673C54.4454 45.3967 54.5336 45.4261 54.6218 45.4849C54.71 45.5143 54.7394 45.5437 54.7688 45.5731L54.563 46.1317C54.416 46.0435 54.2396 45.9847 54.0338 45.9259C53.8281 45.8671 53.5929 45.8377 53.3577 45.8377C53.1225 45.8377 52.8873 45.8671 52.6815 45.9553C52.4758 46.0435 52.2994 46.1611 52.1818 46.3375C52.0348 46.5139 51.9466 46.6903 51.8584 46.9254C51.7702 47.1606 51.7408 47.4252 51.7408 47.7192C51.7408 48.0132 51.7702 48.2483 51.829 48.4835C51.8878 48.7187 52.0054 48.9245 52.123 49.0715C52.2406 49.2185 52.417 49.3655 52.6227 49.4537C52.8285 49.5419 53.0637 49.6007 53.3283 49.6007C53.5341 49.6007 53.6811 49.6007 53.8281 49.5713C53.975 49.5419 54.0632 49.5419 54.122 49.5125V47.778H54.0926Z" fill="#0A2F73"/>
<path d="M57.0619 46.4844H57.2383C57.2971 46.4844 57.3853 46.5138 57.4441 46.5138C57.5028 46.5138 57.5616 46.5432 57.6204 46.5432C57.6792 46.5432 57.7086 46.5726 57.738 46.5726L57.6204 47.1311C57.5616 47.1017 57.4734 47.1017 57.3559 47.0723C57.2383 47.0429 57.0913 47.0429 56.9149 47.0429C56.7973 47.0429 56.6797 47.0429 56.5621 47.0723C56.4445 47.1017 56.3563 47.1017 56.3269 47.1311V50.1297H55.6802V46.7196C55.8272 46.6608 56.0329 46.602 56.2387 46.5726C56.5327 46.5138 56.7973 46.4844 57.0619 46.4844Z" fill="#0A2F73"/>
<path d="M61.4422 48.3363C61.4422 48.6303 61.4128 48.8655 61.3246 49.1006C61.2364 49.3358 61.1188 49.5416 60.9718 49.6886C60.8248 49.865 60.6484 49.9826 60.4427 50.0708C60.2369 50.159 60.0017 50.2178 59.7665 50.2178C59.5313 50.2178 59.2961 50.159 59.0904 50.0708C58.8846 49.9826 58.7082 49.865 58.5612 49.6886C58.4142 49.5122 58.2966 49.3358 58.2084 49.1006C58.1202 48.8655 58.0908 48.6009 58.0908 48.3363C58.0908 48.0423 58.1202 47.8071 58.2084 47.572C58.2966 47.3368 58.4142 47.131 58.5612 46.984C58.7082 46.8076 58.8846 46.69 59.0904 46.6018C59.2961 46.5136 59.5313 46.4548 59.7665 46.4548C60.0017 46.4548 60.2369 46.5136 60.4427 46.6018C60.6484 46.69 60.8248 46.8076 60.9718 46.984C61.1188 47.1604 61.2364 47.3368 61.3246 47.572C61.3834 47.8071 61.4422 48.0717 61.4422 48.3363ZM60.766 48.3363C60.766 47.9247 60.6778 47.6014 60.5014 47.3662C60.3251 47.131 60.0605 47.0134 59.7665 47.0134C59.4431 47.0134 59.2079 47.131 59.0316 47.3662C58.8552 47.6014 58.767 47.9247 58.767 48.3363C58.767 48.7479 58.8552 49.0712 59.0316 49.3064C59.2079 49.5416 59.4725 49.6592 59.7665 49.6592C60.0899 49.6592 60.3251 49.5416 60.5014 49.3064C60.6778 49.0712 60.766 48.7479 60.766 48.3363Z" fill="#0A2F73"/>
<path d="M65.0875 50.012C64.9406 50.0414 64.7348 50.1002 64.4996 50.1296C64.2644 50.159 63.9704 50.1884 63.6764 50.1884C63.4119 50.1884 63.1767 50.159 62.9709 50.0708C62.7945 49.9826 62.6181 49.865 62.5299 49.718C62.4417 49.5711 62.3241 49.3947 62.2947 49.1889C62.2359 48.9831 62.2065 48.7773 62.2065 48.5127V46.5137H62.8533V48.3951C62.8533 48.8361 62.9121 49.1301 63.0591 49.3359C63.2061 49.5123 63.4413 49.6299 63.7646 49.6299H63.9704C64.0292 49.6299 64.1174 49.6299 64.1762 49.6005C64.235 49.6005 64.2938 49.6005 64.3526 49.5711C64.4114 49.5417 64.4408 49.5711 64.4702 49.5417V46.5137H65.1169V50.012H65.0875Z" fill="#0A2F73"/>
<path d="M69.2619 48.3364C69.2619 48.601 69.2325 48.8656 69.1443 49.0714C69.0855 49.3066 68.9679 49.5124 68.8209 49.6594C68.6739 49.8357 68.5269 49.9533 68.3212 50.0415C68.1154 50.1297 67.8802 50.1885 67.645 50.1885C67.4392 50.1885 67.2628 50.1591 67.0864 50.1003C66.9101 50.0415 66.8219 49.9827 66.7337 49.9533V51.3938H66.0869V46.6608C66.2339 46.6314 66.4397 46.5726 66.6455 46.5432C66.8807 46.5138 67.1452 46.4844 67.4392 46.4844C67.7038 46.4844 67.9684 46.5138 68.1742 46.602C68.38 46.6902 68.5857 46.8078 68.7327 46.9841C68.8797 47.1311 68.9973 47.3369 69.0855 47.5721C69.2325 47.8073 69.2619 48.0719 69.2619 48.3364ZM68.5857 48.3364C68.5857 47.9249 68.4681 47.6015 68.2624 47.3663C68.0566 47.1311 67.792 47.0429 67.4392 47.0429C67.2334 47.0429 67.0864 47.0429 66.9983 47.0723C66.8807 47.0723 66.7925 47.1017 66.7337 47.1311V49.3948C66.8219 49.4536 66.9101 49.5124 67.057 49.5712C67.204 49.63 67.351 49.6594 67.5274 49.6594C67.7038 49.6594 67.8802 49.63 67.9978 49.5712C68.1154 49.5124 68.233 49.4242 68.3212 49.3066C68.4094 49.189 68.4681 49.042 68.4975 48.895C68.5857 48.6892 68.5857 48.5422 68.5857 48.3364Z" fill="#0A2F73"/>
</g>
<defs>
<clipPath id="clip0_35023_16516">
<rect width="125" height="38.3937" fill="white" transform="translate(1 13)"/>
</clipPath>
</defs>
</svg>
