<svg width="128" height="64" viewBox="0 0 128 64" fill="none" xmlns="http://www.w3.org/2000/svg">
<path d="M79.3997 19.6C70.7997 19.7 59.9997 21.9 55.1997 26.5C52.7997 28.8 51.8997 31.7 52.6997 34.9C53.5997 38.5 56.4997 40.5 58.8997 41.1C59.7997 41.4 60.3997 41.4 60.5997 41.3C60.3997 41.2 59.9997 40.8 59.9997 40.8L59.4997 40.1C59.0997 39.5 58.7997 38.8 58.5997 38C58.3997 37.5 58.3997 37 58.3997 36.5C58.3997 35.1 58.9997 33.7 60.0997 32.5C62.7997 29.7 68.5997 28.3 77.2997 28.3L82.4997 28.4H82.5997L82.6997 28.2C82.8997 27.7 83.3997 26.1 83.5997 23.8C83.7997 22.5 83.6997 21.1 83.4997 19.6L83.3997 19.4L83.2997 19.3C82.1997 19.7 80.8997 19.6 79.3997 19.6ZM62.1997 2.50001C60.9997 2.60001 59.5997 2.90001 58.7997 3.10001H58.6997L58.5997 3.20001L58.4997 3.30001C57.7997 5.50001 54.6997 8.00001 53.1997 9.20001L52.5997 9.70001L52.0997 10.2C50.8997 11.2 49.7997 12.2 48.6997 13.3C47.7997 14.2 46.6997 15.6 45.7997 17C45.0997 18.2 44.6997 19.5 44.3997 21C44.2997 21.7 44.1997 22.5 44.1997 23.1C44.1997 23.4 44.1997 23.7 44.2997 23.9V24.2C44.3997 24.9 44.4997 25.5 44.5997 25.9C44.5997 25.8 44.6997 25.7 44.6997 25.7L44.8997 24.9L44.9997 24.7L45.2997 23.8C45.8997 22.1 46.7997 20.5 48.0997 19.1C50.7997 16.1 53.6997 14.5 56.4997 12.9C58.5997 11.7 60.6997 10.5 62.5997 8.80001C64.9997 6.50001 65.9997 4.30001 66.4997 3.00001L66.6997 2.60001H66.5997C65.4997 2.40001 63.5997 2.40001 62.1997 2.50001Z" fill="white"/>
<path d="M67.2996 12.1001C61.8996 13.1001 57.2996 14.9001 53.4996 17.4001C48.7996 20.5001 46.3996 23.5001 45.2996 27.7001C45.2996 27.8001 45.1996 27.9001 45.1996 28.1001C45.1996 28.8001 45.4996 29.7001 45.9996 30.9001C46.2996 31.5001 46.5996 32.0001 46.8996 32.4001L46.9996 32.5001V32.3001C47.0996 31.9001 47.1996 31.3001 47.4996 30.5001C48.0996 28.9001 49.4996 25.2001 55.7996 22.1001C59.2996 20.4001 63.4996 19.3001 68.4996 18.7001C74.3996 18.0001 79.3996 17.9001 83.1996 18.3001H83.2996V18.2001C82.8996 16.4001 82.0996 14.2001 81.2996 12.6001L80.6996 11.6001L80.4996 11.3001L80.3996 11.2001L80.2996 11.1001L80.0996 11.0001C79.5996 10.9001 78.3996 10.9001 76.7996 10.9001C74.0996 11.0001 70.8996 11.4001 67.2996 12.1001ZM22.1996 50.7001C22.1996 51.6002 22.4996 52.4001 23.0996 53.0001C23.7996 53.7001 24.3996 53.9002 26.1996 54.7001C28.4996 55.8001 29.6996 56.3001 29.6996 58.0001C29.6996 59.6001 28.3996 60.8001 26.5996 60.8001C25.3996 60.8001 24.1996 60.4001 23.3996 59.8001C22.6996 59.2001 22.2996 58.5001 22.0996 57.5001L21.9996 57.3001C21.5996 57.3001 21.5996 57.6001 21.5996 57.6001C21.5996 58.2001 21.7996 60.2001 21.9996 61.1001C21.9996 61.2001 22.0996 61.4001 22.0996 61.4001H22.1996L22.3996 61.3001L22.7996 61.1001L23.4996 61.2001C24.1996 61.3001 25.2996 61.5001 26.5996 61.5001C28.7996 61.5001 29.8996 61.0001 30.4996 60.5001C31.3996 59.8001 31.8996 58.8001 31.8996 57.6001C31.8996 55.1001 29.8996 54.2001 27.9996 53.4001C27.8996 53.4001 27.8996 53.3001 27.8996 53.3001C25.1996 52.1001 24.1996 51.7001 24.1996 49.9001C24.1996 48.3001 25.2996 47.2001 27.0996 47.2001C27.9996 47.2001 28.7996 47.4001 29.3996 47.9001C30.1996 48.4001 30.4996 49.2001 30.6996 49.9001L30.7996 50.2001C30.9996 50.2001 31.1996 50.1001 31.1996 50.0001L31.0996 49.0001V48.8001C30.9996 48.3001 30.9996 47.4001 30.9996 47.1001V46.8001L30.7996 46.9001C30.8996 46.9001 30.4996 47.0001 30.4996 47.0001L29.9996 46.9001L28.9996 46.8001C28.2996 46.7001 27.5996 46.7001 26.9996 46.7001C24.0996 46.8001 22.1996 48.3001 22.1996 50.7001ZM44.5996 52.0001C44.4996 52.0001 44.4996 52.2001 44.4996 52.2001V52.4001H44.6996C45.0996 52.4001 45.8996 52.5001 45.8996 53.3001C45.8996 53.8001 45.5996 54.5001 45.2996 55.1001V55.0001L43.3996 59.3001C43.3996 59.4001 43.2996 59.4001 43.1996 59.4001C43.0996 59.4001 43.0996 59.3001 42.9996 59.3001C42.6996 58.4001 41.0996 53.5001 41.0996 53.1001C41.0996 52.4001 41.5996 52.4001 42.2996 52.3001L42.4996 52.2001V52.0001H38.1996C37.9996 52.0001 37.9996 52.0001 37.9996 52.2001V52.3001C38.4996 52.4001 38.6996 52.4002 38.8996 52.7001C39.0996 53.0001 39.3996 53.7001 39.8996 54.8001V54.9001L37.7996 59.4001C37.7996 59.5001 37.6996 59.5001 37.5996 59.5001C37.4996 59.5001 37.4996 59.4001 37.3996 59.4001L36.2996 56.5001L35.8996 55.6001L35.7996 55.3001C35.3996 54.4001 35.0996 53.5001 35.0996 53.1001C35.0996 52.6001 35.3996 52.3001 36.1996 52.3001H36.3996V52.2001V52.1001V52.0001H32.2996V52.1001C32.2996 52.3001 32.2996 52.3001 32.4996 52.4001C32.7996 52.5001 32.9996 52.8001 33.3996 53.6001C34.1996 55.4001 35.4996 58.9002 36.3996 61.2001C36.3996 61.3001 36.5996 61.6001 36.5996 61.6001L37.3996 61.5001H37.4996L37.5996 61.3001C38.2996 59.6001 38.6996 58.9001 40.1996 55.9001C40.2996 55.8001 40.2996 55.8001 40.3996 55.8001C40.4996 55.8001 40.4996 55.9001 40.5996 55.9001C41.4996 58.3001 41.9996 60.2001 42.2996 61.1001C42.3996 61.3001 42.3996 61.5001 42.4996 61.5001L43.0996 61.4001C43.2996 61.4001 43.3996 61.3001 43.4996 61.2001L44.0996 59.9001L44.2996 59.5001C44.9996 58.0001 45.7996 56.3001 46.2996 55.3001C46.9996 54.0001 47.6996 52.7001 48.2996 52.4001C48.4996 52.3001 48.4996 52.3001 48.4996 52.1001V52.0001H45.5996H44.5996ZM50.3996 47.3001C50.3996 47.8001 50.9996 48.3001 51.3996 48.3001C51.8996 48.3001 52.4996 47.7001 52.4996 47.2001C52.4996 46.7001 51.8996 46.2001 51.4996 46.2001C50.9996 46.2001 50.3996 46.7001 50.3996 47.3001ZM51.5996 51.7001L50.1996 52.3001L49.1996 52.8001L49.0996 52.9001C48.9996 53.0001 48.9996 53.0001 48.9996 53.1001V53.2001L49.2996 53.3001C50.4996 53.5001 50.4996 53.9001 50.4996 56.3001C50.4996 57.7001 50.4996 59.5001 50.2996 60.1001C50.0996 60.7001 49.7996 60.9001 48.9996 61.0001C48.6996 61.1001 48.6996 61.1002 48.6996 61.2001V61.3001H49.5996L51.2996 61.2001L53.1996 61.3001H53.8996V61.0001L53.6996 60.9001C52.7996 60.8001 52.2996 60.8001 52.0996 60.0001C51.9996 59.7001 51.9996 58.4001 51.9996 56.3001L52.0996 53.0001C52.0996 52.9001 52.1996 51.6001 52.1996 51.6001C52.1996 51.5001 52.0996 51.5001 52.0996 51.5001C51.8996 51.6001 51.7996 51.6002 51.5996 51.7001ZM55.4996 54.3001C55.4996 55.8001 56.8996 56.5001 58.0996 57.1001C59.4996 57.8001 60.4996 58.3001 60.4996 59.4001C60.4996 60.2001 59.9996 61.1001 58.5996 61.1001C58.1996 61.1001 56.1996 61.0001 55.5996 58.9001L55.4996 58.6001C55.2996 58.6001 55.1996 58.7001 55.1996 58.7001L55.2996 59.2001L55.3996 60.1001V61.3001H55.6996L55.9996 61.4001L56.2996 61.5001C56.6996 61.6001 57.4996 61.7001 58.2996 61.7001C58.9996 61.7001 62.1996 61.6001 62.1996 59.0001C62.1996 57.4001 60.6996 56.7001 59.4996 56.1001C57.7996 55.3001 56.9996 54.9001 56.9996 53.9001C56.9996 53.6001 57.0996 52.4001 58.6996 52.4001C59.7996 52.4001 60.5996 53.0001 61.1996 54.1001L61.2996 54.3001C61.5996 54.3001 61.5996 54.2001 61.5996 54.2001V54.0001L61.4996 52.6001L61.3996 52.0001C61.3996 51.9001 61.2996 51.7001 61.2996 51.7001L61.0996 51.8001H60.9996L60.5996 51.7001C60.1996 51.6002 59.5996 51.5001 58.9996 51.5001C55.5996 51.7001 55.4996 53.9001 55.4996 54.3001ZM63.8996 54.3001C63.8996 55.8001 65.2996 56.5001 66.4996 57.1001C67.8996 57.8001 68.8996 58.3001 68.8996 59.4001C68.8996 60.2001 68.3996 61.1001 66.9996 61.1001C66.5996 61.1001 64.5996 61.0001 63.9996 58.9001L63.8996 58.6001C63.6996 58.6001 63.5996 58.7001 63.5996 58.7001L63.6996 59.2001L63.7996 60.1001V61.3001H63.9996L64.2996 61.4001L64.5996 61.5001C64.9996 61.6001 65.7996 61.7001 66.5996 61.7001C67.2996 61.7001 70.4996 61.6001 70.4996 59.0001C70.4996 57.4001 68.9996 56.7001 67.7996 56.1001C66.0996 55.3001 65.2996 54.9001 65.2996 53.9001C65.2996 53.6001 65.3996 52.4001 66.9996 52.4001C68.0996 52.4001 68.8996 53.0001 69.4996 54.1001L69.5996 54.3001C69.8996 54.3001 69.8996 54.2001 69.8996 54.2001V54.0001L69.7996 52.6001L69.6996 52.0001C69.6996 51.9001 69.5996 51.7001 69.5996 51.7001L69.3996 51.8001H69.1996L68.7996 51.7001C68.3996 51.6002 67.7996 51.5001 67.1996 51.5001C64.0996 51.7001 63.8996 53.9001 63.8996 54.3001ZM77.0996 47.1001L75.3996 47.2001L72.6996 47.1001H72.5996V47.4001C72.6996 47.5001 72.8996 47.5001 73.0996 47.5001C74.3996 47.7001 74.4996 48.3001 74.4996 49.8001V53.0001C74.4996 54.9001 74.4996 57.7001 74.2996 59.1001C74.1996 59.9001 74.0996 60.8001 72.5996 60.9001L72.3996 61.0001V61.3001H72.7996C73.2996 61.2001 74.4996 61.2001 77.5996 61.2001C80.7996 61.2001 81.7996 61.3001 82.2996 61.3001H82.6996C82.7996 61.3001 82.8996 61.2001 82.9996 60.8001C83.4996 59.0001 83.5996 58.0001 83.5996 57.7001C83.5996 57.6002 83.5996 57.6001 83.1996 57.6001C83.0996 57.6001 83.0996 57.8001 83.0996 58.0001C82.8996 58.7001 82.4996 59.6001 81.6996 60.0001C80.8996 60.5001 79.1996 60.5001 77.7996 60.5001C76.8996 60.5001 76.3996 60.5001 76.1996 59.8001C75.9996 59.1001 75.9996 56.6001 75.9996 54.6001C75.9996 53.4001 75.9996 49.5001 76.1996 48.6001C76.3996 47.7001 76.8996 47.5001 77.8996 47.4001L78.1996 47.3001V47.1001C78.1996 47.0001 78.1996 47.0001 78.0996 47.0001C78.1996 47.1001 77.0996 47.1001 77.0996 47.1001ZM86.5996 47.3001C86.5996 47.8001 87.1996 48.3001 87.5996 48.3001C88.0996 48.3001 88.6996 47.7001 88.6996 47.2001C88.6996 46.7001 88.0996 46.2001 87.6996 46.2001C87.1996 46.2001 86.5996 46.7001 86.5996 47.3001ZM87.7996 51.7001L86.3996 52.3001L85.3996 52.8001L85.2996 52.9001C85.0996 53.0001 85.0996 53.0001 85.0996 53.1001V53.2001L85.3996 53.3001C86.5996 53.5001 86.5996 53.9001 86.5996 56.3001C86.5996 57.7001 86.5996 59.5001 86.3996 60.1001C86.1996 60.7001 85.8996 60.9001 85.0996 61.0001C84.7996 61.1001 84.7996 61.1002 84.7996 61.2001V61.3001H85.6996L87.3996 61.2001L89.2996 61.3001H89.9996V61.0001L89.7996 60.9001C88.8996 60.8001 88.3996 60.8001 88.1996 60.0001C88.0996 59.6001 88.0996 58.4001 88.0996 56.3001L88.1996 53.0001L88.2996 51.6001C88.2996 51.5001 88.1996 51.5001 88.1996 51.5001C88.0996 51.6001 87.8996 51.6002 87.7996 51.7001ZM93.8996 47.8001C92.8996 49.1001 92.8996 50.0001 92.7996 51.9001C92.7996 52.0001 92.6996 52.0001 92.6996 52.1001L91.4996 52.7001L91.3996 53.0001L92.5996 52.9001C92.6996 52.9001 92.6996 52.9001 92.6996 53.0001C92.7996 53.1001 92.7996 53.1001 92.7996 53.1001L92.6996 59.3001C92.5996 60.6001 92.4996 60.9001 91.3996 61.1001L91.1996 61.2001V61.5001L91.8996 61.4001L93.2996 61.3001L95.5996 61.4001H96.3996C96.6996 61.4001 96.6996 61.4002 96.6996 61.2001V61.0001H96.4996C94.8996 61.0001 94.3996 60.8001 94.3996 59.4001L94.2996 53.0001C94.2996 52.9001 94.2996 52.9001 94.3996 52.9001C94.4996 52.8001 94.4996 52.8001 94.4996 52.8001H97.5996C97.7996 52.8001 97.7996 52.8001 97.7996 52.4001V52.0001H94.5996C94.4996 52.0001 94.3996 51.9001 94.3996 51.8001C94.3996 48.3001 94.4996 46.6001 97.0996 46.6001C98.2996 46.6001 98.8996 47.0001 99.1996 47.3001L99.3996 47.5001C99.4996 47.6001 99.5996 47.7001 99.6996 47.7001C99.8996 47.7001 100.8 47.3001 100.8 46.9001C100.8 46.3001 99.8996 45.6001 98.1996 45.6001C96.2996 45.5001 94.7996 46.6001 93.8996 47.8001ZM98.5996 57.1001C98.5996 58.1001 98.8996 61.5001 102.4 61.5001C104 61.5001 105.5 60.7001 106.2 60.1001C106.4 59.9001 106.4 59.9001 106.4 59.8001L106.3 59.6001L106.2 59.5001C105 60.4001 103.7 60.5001 103.3 60.5001C100.5 60.5001 100.1 57.7001 100.1 56.6001C100.1 56.5001 100.2 56.4001 100.2 56.4001C101.8 56.0001 104 55.6001 106.2 55.3001V55.2001C106.2 55.0001 106.1 54.6001 106 54.1001C105.5 52.3001 104 51.6001 102.8 51.6001C100.9 51.7001 98.5996 53.7001 98.5996 57.1001ZM100.3 55.9001C100.2 55.8001 100.2 55.8001 100.2 55.8001C100.2 54.0001 100.9 52.2001 102.3 52.2001C103.5 52.2001 104.5 53.6001 104.5 54.4001C104.5 54.8001 104.2 55.0001 103.6 55.1001C102 55.5001 101.4 55.7001 100.4 55.8001C100.4 56.0001 100.4 56.0001 100.3 55.9001Z" fill="white"/>
<path d="M83.7 24.2C83.9 22.9 83.8 21.4 83.6 20C83.6 19.9 83.5 19.8 83.5 19.8C83.4 19.7 83.4 19.7 83.3 19.7C82.1 19.6 80.7 19.5 79.3 19.6C70.8 19.7 59.9 21.8 55 26.5C52.8 28.7 51.6 31.6 52.5 35.1C53.4 39.1 56.8 40.9 58.8 41.4C59.9 41.7 60.6 41.6 60.6 41.6C60.6 41.6 60.8 41.6 60.8 41.5C60.8 41.4 60.7 41.3 60.7 41.3C60.7 41.3 60.3 41 60.1 40.7C59.9 40.4 59.7 40.3 59.6 40C59.3 39.5 58.9 38.8 58.7 37.9C58.1 36 58.8 34.1 60.2 32.6C62.6 30.1 68 28.4 77.2 28.5L82.4 28.6C82.4 28.6 82.6 28.6 82.6 28.5C82.7 28.4 82.7 28.4 82.7 28.3C83.1 27.7 83.6 26.1 83.7 24.2ZM66.6 2.50003C65.5 2.30003 63.6 2.20003 62.2 2.40003C61 2.50003 59.6 2.70003 58.7 3.00003C58.6 3.10003 58.5 3.10003 58.5 3.10003C58.4 3.10003 58.4 3.20003 58.4 3.30003C57.6 5.90003 53.6 8.80003 52.5 9.60003C51.1 10.8 49.7 11.9 48.5 13.2C47.5 14.3 46.4 15.7 45.6 17C44.8 18.4 44.4 19.7 44.2 21C44 22.1 44 23.2 44 24V24.3C44.1 25.5 44.3 26 44.4 26.1C44.5 26.2 44.5 26.3 44.6 26.3C44.7 26.3 44.7 26.1 44.7 26C44.8 25.9 44.9 25.4 45 25.1C45.2 24.6 45.2 24.4 45.4 24C45.8 22.8 46.6 21.1 48.2 19.4C52.9 14 58.2 13 62.6 9.00003C65.4 6.40003 66.2 4.10003 66.8 2.80003C66.9 2.70003 66.9 2.60003 66.9 2.60003C66.8 2.50003 66.7 2.50003 66.6 2.50003Z" fill="#ED1A3B"/>
<path d="M83.4996 18.2C83.0996 16.5 82.3996 14.2 81.3996 12.6C81.1996 12.2 80.7996 11.6 80.5996 11.3C80.4996 11.1 80.4996 11.2 80.4996 11.1C80.3996 11 80.1996 11 80.1996 11C79.5996 10.9 78.3996 10.9 76.8996 10.9C74.1996 10.8 70.9996 11.2 67.3996 11.9C61.9996 12.9 57.2996 14.8 53.5996 17.2C49.4996 19.9 46.4996 22.8 45.3996 27.6C45.1996 28.4 45.6996 29.7 46.1996 30.8C46.4996 31.5 46.8996 32 47.1996 32.5C47.2996 32.6 47.2996 32.7 47.3996 32.6C47.4996 32.6 47.4996 32.5 47.4996 32.4C47.5996 32 47.6996 31.4 47.9996 30.5C48.5996 28.8 50.0996 25.2 56.1996 22.2C60.2996 20.2 64.6996 19.3 68.7996 18.8C75.1996 18 80.0996 18 83.4996 18.4C83.5996 18.4 83.6996 18.5 83.6996 18.4C83.4996 18.4 83.4996 18.3 83.4996 18.2Z" fill="#ED1A3B"/>
<path d="M79.9997 21.2H78.1997V23.2H76.1997V25H78.1997V27H79.9997V25H81.9997V23.2H79.9997V21.2Z" fill="white"/>
<path d="M30.2998 60.6001C29.5998 61.1001 28.4998 61.6001 26.2998 61.6001C24.4998 61.6001 22.8998 61.2001 22.5998 61.2001C22.2998 61.2001 22.2998 61.4001 21.9998 61.4001C21.7998 61.4001 21.6998 61.3001 21.6998 61.0001C21.4998 60.0001 21.2998 58.1001 21.2998 57.5001C21.2998 57.3001 21.4998 57.0001 21.8998 57.0001C22.0998 57.0001 22.0998 57.2001 22.0998 57.4001C22.2998 58.3001 22.6998 59.1001 23.3998 59.6001C24.1998 60.2001 25.2998 60.5001 26.4998 60.5001C28.1998 60.5001 29.4998 59.4001 29.4998 57.8001C29.4998 56.2001 28.3998 55.7001 26.0998 54.6001C24.2998 53.8001 23.6998 53.5001 22.9998 52.8001C22.1998 52.0001 21.9998 51.1001 21.9998 50.4001C21.9998 48.1001 23.6998 46.4001 26.9998 46.4001C27.5998 46.4001 28.3998 46.5001 28.9998 46.5001C29.5998 46.6001 30.0998 46.7001 30.1998 46.7001C30.2998 46.7001 30.3998 46.6001 30.3998 46.6001H30.5998C30.7998 46.6001 30.7998 46.7001 30.7998 46.8001C30.7998 47.0001 30.6998 48.1001 30.7998 48.7001C30.8998 49.2001 30.8998 49.8001 30.8998 49.9001C30.8998 50.1001 30.5998 50.2001 30.3998 50.2001C30.1998 50.2001 30.1998 50.1001 30.0998 49.8001C29.8998 49.1001 29.5998 48.4001 28.8998 47.9001C28.2998 47.5001 27.4998 47.3001 26.6998 47.3001C25.1998 47.3001 23.9998 48.2001 23.9998 49.8001C23.9998 51.5001 25.0998 51.9001 27.6998 53.1001C29.4998 53.9001 31.6998 54.8001 31.6998 57.4001C31.7998 59.0001 31.0998 60.1001 30.2998 60.6001ZM47.8998 52.4001C47.3998 52.7001 46.5998 54.1001 45.9998 55.2001C45.3998 56.3001 44.4998 58.3001 43.7998 59.8001C43.5998 60.2001 43.2998 61.0001 43.1998 61.1001C43.0998 61.3001 42.8998 61.4001 42.6998 61.4001L42.0998 61.5001C41.8998 61.5001 41.8998 61.5001 41.7998 61.0001C41.4998 60.0001 40.8998 58.0001 40.0998 55.8001C38.5998 58.8001 38.1998 59.5001 37.4998 61.2001C37.3998 61.5001 37.3998 61.5001 37.1998 61.5001L36.3998 61.6001C36.2998 61.6001 36.2998 61.5001 36.0998 61.2001C35.2998 59.0001 33.9998 55.5001 33.0998 53.6001C32.6998 52.9001 32.4998 52.6001 32.2998 52.5001C31.9998 52.3001 31.9998 52.3001 31.9998 52.1001C31.9998 51.9001 32.0998 51.8001 32.2998 51.8001H36.2998C36.3998 51.8001 36.3998 52.0001 36.3998 52.1001C36.3998 52.4001 36.3998 52.4001 36.0998 52.4001C35.3998 52.5001 35.1998 52.7001 35.1998 53.1001C35.1998 53.5001 35.5998 54.5001 35.8998 55.5001C36.2998 56.4001 36.5998 57.4001 37.3998 59.3001C37.7998 58.4001 39.0998 55.8001 39.4998 54.8001C39.0998 53.7001 38.7998 53.0001 38.5998 52.7001C38.3998 52.5001 38.1998 52.4001 37.7998 52.4001C37.5998 52.4001 37.5998 52.3001 37.5998 52.1001C37.5998 51.9001 37.6998 51.8001 37.8998 51.8001H42.0998C42.2998 51.8001 42.3998 51.9001 42.3998 52.1001C42.3998 52.4001 42.3998 52.4001 42.0998 52.5001C41.3998 52.6001 40.9998 52.6001 40.9998 53.1001C40.9998 53.5001 42.4998 58.1001 42.8998 59.3001C43.5998 57.8001 44.3998 56.1001 44.7998 55.0001C45.0998 54.4001 45.3998 53.6001 45.3998 53.1001C45.3998 52.5001 44.7998 52.4001 44.2998 52.4001C43.9998 52.4001 43.9998 52.4001 43.9998 52.1001C43.9998 51.9001 43.9998 51.8001 44.1998 51.8001H47.4998C47.6998 51.8001 47.6998 51.9001 47.6998 52.1001C48.0998 52.3001 47.9998 52.3001 47.8998 52.4001ZM53.7998 61.4001C53.4998 61.4001 52.4998 61.3001 51.2998 61.3001C50.3998 61.3001 49.1998 61.4001 48.6998 61.4001C48.4998 61.4001 48.4998 61.3001 48.4998 61.1001C48.4998 60.8001 48.5998 60.8001 48.8998 60.7001C49.6998 60.5001 49.8998 60.4001 50.0998 59.9001C50.2998 59.3001 50.2998 57.4001 50.2998 56.1001C50.2998 53.8001 50.2998 53.4001 49.1998 53.3001C48.7998 53.2001 48.7998 53.2001 48.7998 53.0001C48.7998 52.8001 48.8998 52.7001 49.0998 52.6001C49.4998 52.4001 50.8998 51.7001 51.4998 51.5001C51.6998 51.4001 51.8998 51.3001 52.0998 51.3001C52.2998 51.3001 52.2998 51.4001 52.2998 51.5001C52.2998 51.8001 52.1998 52.5001 52.1998 52.9001C52.1998 53.4001 52.0998 54.4001 52.0998 56.2001C52.0998 56.9001 52.0998 59.4001 52.1998 59.9001C52.2998 60.6001 52.7998 60.6001 53.5998 60.7001C53.8998 60.7001 53.9998 60.8001 53.9998 61.0001C54.0998 61.4001 53.9998 61.4001 53.7998 61.4001ZM51.3998 48.4001C50.8998 48.4001 50.2998 47.8001 50.2998 47.3001C50.2998 46.7001 50.9998 46.1001 51.4998 46.1001C51.9998 46.1001 52.6998 46.7001 52.6998 47.3001C52.5998 47.8001 51.9998 48.4001 51.3998 48.4001ZM58.0998 61.6001C57.0998 61.6001 56.3998 61.4001 55.9998 61.4001C55.7998 61.4001 55.5998 61.3001 55.4998 61.3001C55.3998 61.3001 55.2998 61.4001 55.1998 61.4001C54.9998 61.4001 54.9998 61.3001 54.9998 61.1001V60.0001C54.9998 59.6001 54.8998 58.8001 54.8998 58.6001C54.8998 58.4001 55.0998 58.4001 55.2998 58.4001C55.4998 58.4001 55.4998 58.5001 55.5998 58.8001C56.0998 60.5001 57.5998 60.9001 58.3998 60.9001C59.8998 60.9001 60.1998 59.9001 60.1998 59.4001C60.1998 58.4001 59.3998 57.9001 57.8998 57.3001C56.5998 56.7001 55.1998 56.0001 55.1998 54.4001C55.1998 53.3001 55.8998 51.7001 58.8998 51.7001C59.6998 51.7001 60.6998 51.9001 60.7998 51.9001C60.8998 51.9001 60.9998 51.8001 61.0998 51.8001C61.2998 51.8001 61.2998 51.9001 61.2998 52.2001C61.3998 52.7001 61.4998 53.7001 61.4998 54.1001C61.4998 54.3001 61.3998 54.4001 60.9998 54.4001C60.8998 54.4001 60.7998 54.3001 60.6998 54.1001C60.3998 53.5001 59.7998 52.5001 58.3998 52.5001C56.9998 52.5001 56.7998 53.5001 56.7998 53.9001C56.7998 54.8001 57.3998 55.2001 59.0998 56.0001C60.2998 56.6001 61.8998 57.3001 61.8998 59.0001C62.1998 61.2001 59.3998 61.6001 58.0998 61.6001ZM66.5998 61.6001C65.5998 61.6001 64.8998 61.4001 64.4998 61.4001C64.2998 61.4001 64.0998 61.3001 63.9998 61.3001C63.8998 61.3001 63.7998 61.4001 63.6998 61.4001C63.4998 61.4001 63.4998 61.3001 63.4998 61.1001V60.0001C63.4998 59.6001 63.3998 58.8001 63.3998 58.6001C63.3998 58.4001 63.5998 58.4001 63.7998 58.4001C63.9998 58.4001 63.9998 58.5001 64.0998 58.8001C64.5998 60.5001 66.0998 60.9001 66.8998 60.9001C68.3998 60.9001 68.6998 59.9001 68.6998 59.4001C68.6998 58.4001 67.8998 57.9001 66.3998 57.3001C65.0998 56.7001 63.6998 56.0001 63.6998 54.4001C63.6998 53.3001 64.3998 51.7001 67.3998 51.7001C68.1998 51.7001 69.1998 51.9001 69.2998 51.9001C69.3998 51.9001 69.4998 51.8001 69.5998 51.8001C69.7998 51.8001 69.7998 51.9001 69.7998 52.2001C69.8998 52.7001 69.9998 53.7001 69.9998 54.1001C69.9998 54.3001 69.8998 54.4001 69.4998 54.4001C69.3998 54.4001 69.2998 54.3001 69.1998 54.1001C68.8998 53.5001 68.2998 52.5001 66.8998 52.5001C65.4998 52.5001 65.2998 53.5001 65.2998 53.9001C65.2998 54.8001 65.8998 55.2001 67.5998 56.0001C68.7998 56.6001 70.3998 57.3001 70.3998 59.0001C70.6998 61.2001 67.8998 61.6001 66.5998 61.6001ZM83.2998 60.8001C83.0998 61.3001 83.0998 61.5001 82.8998 61.5001C82.3998 61.5001 81.9998 61.4001 77.6998 61.4001C73.7998 61.4001 72.8998 61.5001 72.5998 61.5001C72.3998 61.5001 72.2998 61.4001 72.2998 61.2001C72.2998 60.9001 72.2998 60.9001 72.6998 60.8001C73.9998 60.7001 74.0998 59.9001 74.1998 59.1001C74.3998 57.7001 74.3998 54.8001 74.3998 53.0001V49.7001C74.3998 48.2001 74.2998 47.7001 73.0998 47.6001C72.5998 47.5001 72.4998 47.5001 72.4998 47.3001C72.4998 47.0001 72.5998 46.9001 72.7998 46.9001C73.4998 46.9001 74.7998 47.0001 75.4998 47.0001C76.3998 47.0001 77.7998 46.9001 78.3998 46.9001C78.5998 46.9001 78.6998 47.0001 78.6998 47.2001C78.6998 47.5001 78.6998 47.6001 78.2998 47.6001C77.2998 47.7001 76.8998 47.9001 76.7998 48.7001C76.5998 49.6001 76.5998 53.2001 76.5998 54.7001C76.5998 56.8001 76.5998 59.2001 76.7998 59.9001C76.8998 60.5001 77.2998 60.5001 78.1998 60.5001C79.5998 60.5001 81.1998 60.5001 81.9998 60.0001C82.5998 59.6001 82.9998 58.9001 83.2998 58.1001C83.3998 57.8001 83.4998 57.6001 83.5998 57.6001C83.9998 57.6001 84.0998 57.7001 84.0998 57.9001C83.8998 58.1001 83.6998 59.1001 83.2998 60.8001ZM89.9998 61.4001C89.6998 61.4001 88.6998 61.3001 87.4998 61.3001C86.5998 61.3001 85.3998 61.4001 84.8998 61.4001C84.6998 61.4001 84.6998 61.3001 84.6998 61.1001C84.6998 60.8001 84.7998 60.8001 85.0998 60.7001C85.8998 60.5001 86.0998 60.4001 86.2998 59.9001C86.4998 59.3001 86.4998 57.4001 86.4998 56.1001C86.4998 53.8001 86.4998 53.4001 85.3998 53.3001C84.9998 53.4001 84.9998 53.4001 84.9998 53.1001C84.9998 52.8001 85.0998 52.8001 85.2998 52.7001C85.6998 52.5001 87.0998 51.8001 87.6998 51.6001C87.8998 51.5001 88.0998 51.4001 88.2998 51.4001C88.4998 51.4001 88.4998 51.5001 88.4998 51.6001C88.4998 51.9001 88.3998 52.6001 88.3998 53.0001C88.3998 53.5001 88.2998 54.5001 88.2998 56.3001C88.2998 57.0001 88.2998 59.5001 88.3998 60.0001C88.4998 60.7001 88.9998 60.7001 89.7998 60.8001C90.0998 60.8001 90.1998 60.9001 90.1998 61.1001C90.1998 61.4001 90.1998 61.4001 89.9998 61.4001ZM87.5998 48.4001C87.0998 48.4001 86.4998 47.8001 86.4998 47.3001C86.4998 46.7001 87.1998 46.1001 87.6998 46.1001C88.1998 46.1001 88.8998 46.7001 88.8998 47.3001C88.7998 47.8001 88.1998 48.4001 87.5998 48.4001ZM99.7998 47.8001C99.5998 47.8001 99.4998 47.6001 99.1998 47.4001C98.8998 47.1001 98.2998 46.7001 97.1998 46.7001C94.6998 46.7001 94.5998 48.2001 94.5998 51.8001H97.7998C97.9998 51.8001 97.9998 51.9001 97.9998 52.4001C97.9998 52.9001 97.9998 53.0001 97.6998 53.0001H94.5998C94.5998 55.1001 94.5998 58.0001 94.6998 59.4001C94.7998 60.7001 95.1998 60.9001 96.6998 60.9001C96.9998 60.9001 96.9998 61.0001 96.9998 61.2001C96.9998 61.5001 96.8998 61.6001 96.4998 61.6001C96.0998 61.6001 94.4998 61.5001 93.3998 61.5001C92.5998 61.5001 91.6998 61.6001 91.2998 61.6001C91.1998 61.6001 91.0998 61.4001 91.0998 61.3001C91.0998 61.0001 91.0998 61.0001 91.3998 60.9001C92.3998 60.7001 92.4998 60.5001 92.5998 59.3001C92.6998 57.8001 92.6998 54.8001 92.6998 53.1001H91.4998C91.2998 53.1001 91.2998 53.0001 91.2998 52.9001C91.2998 52.6001 91.2998 52.6001 91.3998 52.5001L92.5998 51.9001C92.6998 49.9001 92.6998 49.0001 93.6998 47.7001C94.6998 46.4001 96.3998 45.4001 98.1998 45.4001C99.8998 45.4001 100.9 46.2001 100.9 46.9001C101 47.3001 99.8998 47.8001 99.7998 47.8001Z" fill="black"/>
<path d="M106.4 60.2C105.5 61 104.1 61.7 102.5 61.7C99.2 61.7 98.5 58.9 98.5 57.2C98.5 53.6 100.9 51.7 103.1 51.7C104.2 51.7 105.9 52.2999 106.5 54.2999C106.7 54.8999 106.8 55.4999 106.7 55.5999C104.7 55.8999 102.6 56.3 100.6 56.7C100.7 58.3 101.3 60.5 103.7 60.5C104.4 60.5 105.6 60.3 106.6 59.5C106.7 59.4 106.7 59.4 106.8 59.5C106.8 59.7 106.9 59.8 106.9 59.9C106.6 60 106.6 60 106.4 60.2ZM102.4 52.4C101.1 52.4 100.5 54.0999 100.4 55.7999C101.4 55.5999 101.9 55.4999 103.6 55.0999C104.3 54.8999 104.4 54.7 104.4 54.5C104.5 53.7 103.5 52.4 102.4 52.4Z" fill="black"/>
</svg>
