<?xml version="1.0" encoding="UTF-8"?>
<svg xmlns="http://www.w3.org/2000/svg" xmlns:xlink="http://www.w3.org/1999/xlink" width="227px" height="150px" viewBox="0 0 44 29" version="1.1">
<g id="surface1">
<path style=" stroke:none;fill-rule:nonzero;fill:rgb(100%,100%,100%);fill-opacity:1;" d="M 29.5 8.472656 C 25.289062 8.519531 20.007812 9.59375 17.691406 11.859375 C 16.519531 13.003906 16.09375 14.398438 16.46875 15.96875 C 16.894531 17.714844 18.3125 18.6875 19.507812 19.007812 C 19.933594 19.132812 20.257812 19.132812 20.355469 19.109375 C 20.28125 19.058594 20.082031 18.859375 20.082031 18.859375 L 19.832031 18.535156 C 19.632812 18.238281 19.484375 17.886719 19.382812 17.515625 C 19.308594 17.265625 19.285156 17.042969 19.285156 16.792969 C 19.285156 16.09375 19.582031 15.421875 20.132812 14.847656 C 21.453125 13.480469 24.265625 12.78125 28.503906 12.804688 L 31.019531 12.855469 L 31.070312 12.855469 L 31.09375 12.78125 C 31.167969 12.558594 31.441406 11.734375 31.542969 10.636719 C 31.617188 10.015625 31.59375 9.34375 31.515625 8.59375 L 31.492188 8.519531 L 31.441406 8.496094 C 30.894531 8.496094 30.246094 8.472656 29.5 8.472656 Z M 21.101562 0.101562 C 20.503906 0.148438 19.855469 0.273438 19.433594 0.398438 L 19.410156 0.398438 L 19.359375 0.421875 L 19.335938 0.472656 C 19.011719 1.570312 17.492188 2.765625 16.769531 3.363281 L 16.46875 3.613281 L 16.21875 3.835938 C 15.621094 4.335938 15.074219 4.808594 14.550781 5.355469 C 14.128906 5.804688 13.554688 6.476562 13.15625 7.175781 C 12.832031 7.75 12.605469 8.394531 12.484375 9.117188 C 12.433594 9.46875 12.382812 9.839844 12.382812 10.164062 C 12.382812 10.289062 12.382812 10.4375 12.40625 10.5625 L 12.40625 10.6875 C 12.433594 11.035156 12.507812 11.335938 12.558594 11.535156 C 12.558594 11.511719 12.582031 11.460938 12.582031 11.460938 L 12.683594 11.085938 L 12.707031 10.988281 L 12.832031 10.539062 C 13.128906 9.691406 13.578125 8.945312 14.203125 8.246094 C 15.523438 6.777344 16.917969 5.980469 18.289062 5.207031 C 19.335938 4.609375 20.332031 4.035156 21.253906 3.1875 C 22.5 2.042969 22.945312 0.972656 23.222656 0.347656 L 23.296875 0.148438 L 23.246094 0.148438 C 22.699219 0.0742188 21.800781 0.0507812 21.101562 0.101562 Z M 21.101562 0.101562 "/>
<path style=" stroke:none;fill-rule:nonzero;fill:rgb(100%,100%,100%);fill-opacity:1;" d="M 23.621094 4.785156 C 21.003906 5.28125 18.734375 6.152344 16.894531 7.351562 C 14.601562 8.84375 13.40625 10.339844 12.90625 12.382812 C 12.90625 12.433594 12.882812 12.480469 12.882812 12.558594 C 12.882812 12.878906 13.03125 13.355469 13.28125 13.902344 C 13.429688 14.199219 13.578125 14.425781 13.730469 14.648438 C 13.730469 14.648438 13.753906 14.675781 13.753906 14.699219 L 13.753906 14.625 C 13.777344 14.425781 13.851562 14.152344 13.976562 13.753906 C 14.277344 12.957031 14.949219 11.160156 18.039062 9.667969 C 19.757812 8.84375 21.777344 8.296875 24.21875 7.996094 C 27.082031 7.648438 29.550781 7.597656 31.394531 7.796875 L 31.417969 7.796875 L 31.417969 7.773438 C 31.242188 6.875 30.84375 5.804688 30.421875 5.03125 L 30.121094 4.535156 L 30.046875 4.410156 L 30.023438 4.359375 L 29.996094 4.335938 L 29.898438 4.308594 C 29.648438 4.285156 29.074219 4.261719 28.277344 4.261719 C 26.933594 4.261719 25.339844 4.433594 23.621094 4.785156 Z M 31.417969 7.796875 C 31.441406 7.796875 31.441406 7.796875 31.417969 7.796875 C 31.441406 7.796875 31.441406 7.796875 31.417969 7.796875 Z M 1.570312 23.644531 C 1.570312 24.09375 1.71875 24.464844 2.019531 24.765625 C 2.34375 25.089844 2.640625 25.214844 3.515625 25.613281 C 4.660156 26.136719 5.207031 26.410156 5.207031 27.230469 C 5.207031 28.027344 4.558594 28.601562 3.6875 28.601562 C 3.089844 28.601562 2.515625 28.425781 2.144531 28.128906 C 1.820312 27.855469 1.59375 27.480469 1.496094 26.980469 L 1.472656 26.855469 C 1.269531 26.855469 1.269531 26.980469 1.269531 27.007812 C 1.269531 27.304688 1.371094 28.253906 1.445312 28.699219 C 1.445312 28.75 1.472656 28.824219 1.472656 28.824219 L 1.519531 28.824219 L 1.59375 28.800781 L 1.769531 28.726562 L 2.09375 28.777344 C 2.417969 28.824219 2.964844 28.898438 3.589844 28.898438 C 4.683594 28.898438 5.183594 28.652344 5.480469 28.402344 C 5.90625 28.078125 6.179688 27.554688 6.179688 26.980469 C 6.179688 25.785156 5.183594 25.335938 4.285156 24.9375 C 4.261719 24.9375 4.234375 24.914062 4.234375 24.914062 C 2.941406 24.339844 2.417969 24.117188 2.417969 23.246094 C 2.417969 22.472656 2.964844 21.949219 3.8125 21.949219 C 4.261719 21.949219 4.660156 22.050781 4.933594 22.273438 C 5.332031 22.523438 5.457031 22.921875 5.558594 23.246094 L 5.605469 23.394531 C 5.679688 23.394531 5.78125 23.371094 5.78125 23.320312 L 5.730469 22.820312 L 5.730469 22.722656 C 5.707031 22.496094 5.707031 22.050781 5.707031 21.875 L 5.707031 21.75 L 5.605469 21.773438 C 5.632812 21.773438 5.480469 21.824219 5.480469 21.824219 L 5.257812 21.800781 L 4.882812 21.75 C 4.558594 21.726562 4.1875 21.699219 3.914062 21.699219 C 2.492188 21.75 1.570312 22.472656 1.570312 23.644531 Z M 12.507812 24.242188 C 12.484375 24.242188 12.484375 24.316406 12.484375 24.316406 L 12.484375 24.390625 L 12.558594 24.390625 C 12.730469 24.390625 13.15625 24.414062 13.15625 24.8125 C 13.15625 25.039062 13.007812 25.414062 12.882812 25.710938 L 12.855469 25.734375 L 11.910156 27.855469 C 11.910156 27.878906 11.859375 27.902344 11.835938 27.902344 C 11.808594 27.902344 11.785156 27.878906 11.761719 27.855469 C 11.609375 27.40625 10.8125 25.039062 10.8125 24.8125 C 10.8125 24.492188 11.0625 24.464844 11.410156 24.441406 L 11.484375 24.414062 L 11.484375 24.265625 L 9.367188 24.265625 C 9.320312 24.265625 9.292969 24.265625 9.292969 24.339844 L 9.292969 24.390625 C 9.519531 24.414062 9.617188 24.441406 9.71875 24.566406 C 9.816406 24.714844 9.964844 25.0625 10.191406 25.613281 L 10.191406 25.660156 L 9.144531 27.855469 C 9.144531 27.878906 9.09375 27.902344 9.070312 27.902344 C 9.042969 27.902344 9.019531 27.878906 8.996094 27.855469 L 8.445312 26.457031 L 8.273438 26.011719 L 8.222656 25.886719 C 8.046875 25.4375 7.898438 24.988281 7.898438 24.8125 C 7.898438 24.566406 8.046875 24.441406 8.421875 24.414062 L 8.496094 24.414062 L 8.496094 24.265625 L 6.503906 24.265625 L 6.503906 24.316406 C 6.503906 24.390625 6.503906 24.390625 6.601562 24.441406 C 6.726562 24.492188 6.828125 24.640625 7.027344 25.039062 C 7.425781 25.9375 8.074219 27.605469 8.472656 28.726562 C 8.472656 28.75 8.546875 28.898438 8.546875 28.898438 L 8.921875 28.851562 L 8.945312 28.851562 L 8.96875 28.777344 C 9.320312 27.953125 9.492188 27.605469 10.242188 26.160156 C 10.265625 26.136719 10.289062 26.109375 10.316406 26.109375 C 10.339844 26.109375 10.363281 26.136719 10.390625 26.160156 C 10.8125 27.332031 11.085938 28.253906 11.210938 28.699219 C 11.238281 28.777344 11.261719 28.898438 11.285156 28.898438 L 11.585938 28.851562 C 11.6875 28.851562 11.710938 28.800781 11.761719 28.75 L 12.035156 28.128906 L 12.132812 27.929688 C 12.484375 27.179688 12.855469 26.359375 13.128906 25.859375 C 13.453125 25.238281 13.828125 24.589844 14.101562 24.464844 C 14.175781 24.441406 14.175781 24.414062 14.175781 24.339844 L 14.175781 24.292969 L 12.78125 24.292969 Z M 15.347656 21.949219 C 15.347656 22.171875 15.621094 22.421875 15.820312 22.421875 C 16.070312 22.421875 16.34375 22.148438 16.34375 21.898438 C 16.34375 21.675781 16.070312 21.402344 15.847656 21.402344 C 15.648438 21.425781 15.347656 21.699219 15.347656 21.949219 Z M 15.921875 24.140625 L 15.25 24.441406 L 14.75 24.664062 L 14.726562 24.691406 C 14.648438 24.738281 14.648438 24.738281 14.648438 24.789062 L 14.648438 24.839844 L 14.773438 24.863281 C 15.371094 24.9375 15.371094 25.136719 15.371094 26.308594 C 15.371094 26.980469 15.371094 27.878906 15.273438 28.179688 C 15.199219 28.453125 15.023438 28.550781 14.648438 28.625 C 14.527344 28.652344 14.527344 28.652344 14.527344 28.726562 L 14.527344 28.777344 L 14.972656 28.777344 L 15.820312 28.75 L 16.742188 28.777344 L 17.066406 28.777344 L 17.066406 28.625 L 16.96875 28.601562 C 16.542969 28.578125 16.269531 28.550781 16.195312 28.179688 C 16.144531 28.003906 16.144531 27.40625 16.144531 26.359375 L 16.171875 24.765625 C 16.171875 24.738281 16.21875 24.09375 16.21875 24.09375 C 16.21875 24.066406 16.171875 24.066406 16.171875 24.066406 C 16.09375 24.066406 16.019531 24.09375 15.921875 24.140625 Z M 17.8125 25.386719 C 17.8125 26.136719 18.488281 26.457031 19.058594 26.734375 C 19.757812 27.058594 20.230469 27.332031 20.230469 27.855469 C 20.230469 28.226562 19.980469 28.675781 19.285156 28.675781 C 19.085938 28.675781 18.113281 28.625 17.839844 27.605469 L 17.789062 27.457031 C 17.691406 27.457031 17.640625 27.480469 17.640625 27.503906 L 17.664062 27.753906 L 17.691406 28.179688 L 17.691406 28.777344 L 17.839844 28.777344 L 17.964844 28.800781 L 18.113281 28.824219 C 18.3125 28.851562 18.6875 28.925781 19.109375 28.925781 C 19.433594 28.925781 21.027344 28.875 21.027344 27.628906 C 21.027344 26.832031 20.304688 26.507812 19.707031 26.234375 C 18.859375 25.835938 18.511719 25.636719 18.511719 25.136719 C 18.511719 25.015625 18.5625 24.390625 19.359375 24.390625 C 19.90625 24.390625 20.304688 24.691406 20.578125 25.238281 L 20.628906 25.335938 C 20.753906 25.335938 20.777344 25.3125 20.777344 25.3125 L 20.777344 25.261719 L 20.730469 24.589844 L 20.703125 24.316406 C 20.703125 24.292969 20.679688 24.191406 20.679688 24.191406 L 20.605469 24.214844 L 20.53125 24.214844 L 20.355469 24.191406 C 20.15625 24.167969 19.855469 24.117188 19.582031 24.117188 C 17.890625 24.140625 17.8125 25.1875 17.8125 25.386719 Z M 21.949219 25.386719 C 21.949219 26.136719 22.621094 26.457031 23.195312 26.734375 C 23.894531 27.058594 24.367188 27.332031 24.367188 27.855469 C 24.367188 28.226562 24.117188 28.675781 23.421875 28.675781 C 23.222656 28.675781 22.25 28.625 21.976562 27.605469 L 21.925781 27.457031 C 21.824219 27.457031 21.777344 27.480469 21.777344 27.503906 L 21.800781 27.753906 L 21.824219 28.179688 L 21.824219 28.777344 L 21.976562 28.777344 L 22.101562 28.800781 L 22.25 28.824219 C 22.449219 28.851562 22.820312 28.925781 23.246094 28.925781 C 23.570312 28.925781 25.164062 28.875 25.164062 27.628906 C 25.164062 26.832031 24.441406 26.507812 23.84375 26.234375 C 22.996094 25.835938 22.648438 25.636719 22.648438 25.136719 C 22.648438 25.015625 22.699219 24.390625 23.496094 24.390625 C 24.042969 24.390625 24.441406 24.691406 24.714844 25.238281 L 24.765625 25.335938 C 24.890625 25.335938 24.914062 25.3125 24.914062 25.3125 L 24.914062 25.261719 L 24.863281 24.589844 L 24.839844 24.316406 C 24.839844 24.292969 24.816406 24.191406 24.816406 24.191406 L 24.742188 24.214844 L 24.664062 24.214844 L 24.492188 24.191406 C 24.292969 24.167969 23.992188 24.117188 23.71875 24.117188 C 22.023438 24.140625 21.949219 25.1875 21.949219 25.386719 Z M 28.402344 21.875 L 27.582031 21.898438 L 26.261719 21.851562 L 26.210938 21.851562 L 26.210938 21.972656 C 26.234375 22 26.359375 22 26.433594 22.023438 C 27.058594 22.125 27.105469 22.398438 27.105469 23.144531 L 27.105469 24.765625 C 27.105469 25.6875 27.105469 27.082031 27.03125 27.753906 C 26.984375 28.128906 26.933594 28.578125 26.210938 28.625 L 26.085938 28.652344 L 26.085938 28.800781 L 26.261719 28.800781 C 26.507812 28.777344 27.105469 28.75 28.628906 28.75 C 30.195312 28.75 30.695312 28.777344 30.945312 28.800781 L 31.144531 28.800781 C 31.191406 28.800781 31.21875 28.777344 31.269531 28.550781 C 31.515625 27.679688 31.566406 27.179688 31.566406 27.03125 C 31.566406 27.007812 31.566406 26.980469 31.394531 26.980469 C 31.367188 26.980469 31.34375 27.082031 31.34375 27.15625 C 31.242188 27.503906 31.042969 27.953125 30.671875 28.152344 C 30.269531 28.402344 29.472656 28.402344 28.777344 28.402344 C 28.328125 28.402344 28.078125 28.402344 28.003906 28.078125 C 27.929688 27.730469 27.90625 26.535156 27.90625 25.535156 C 27.90625 24.964844 27.90625 23.046875 28.003906 22.597656 C 28.078125 22.171875 28.351562 22.050781 28.828125 22.023438 L 28.949219 22 L 28.949219 21.898438 C 28.949219 21.851562 28.949219 21.851562 28.902344 21.851562 Z M 33.011719 21.949219 C 33.011719 22.171875 33.285156 22.421875 33.484375 22.421875 C 33.734375 22.421875 34.007812 22.148438 34.007812 21.898438 C 34.007812 21.675781 33.734375 21.402344 33.511719 21.402344 C 33.3125 21.425781 33.011719 21.699219 33.011719 21.949219 Z M 33.585938 24.140625 L 32.914062 24.441406 L 32.414062 24.664062 L 32.390625 24.691406 C 32.3125 24.738281 32.3125 24.738281 32.3125 24.789062 L 32.3125 24.839844 L 32.4375 24.863281 C 33.035156 24.9375 33.035156 25.136719 33.035156 26.308594 C 33.035156 26.980469 33.035156 27.878906 32.9375 28.179688 C 32.863281 28.453125 32.6875 28.550781 32.3125 28.625 C 32.191406 28.652344 32.191406 28.652344 32.191406 28.726562 L 32.191406 28.777344 L 32.636719 28.777344 L 33.484375 28.75 L 34.40625 28.777344 L 34.730469 28.777344 L 34.730469 28.625 L 34.632812 28.601562 C 34.207031 28.578125 33.933594 28.550781 33.859375 28.179688 C 33.808594 28.003906 33.808594 27.40625 33.808594 26.359375 L 33.835938 24.738281 L 33.882812 24.066406 C 33.882812 24.042969 33.835938 24.042969 33.835938 24.042969 C 33.757812 24.066406 33.660156 24.09375 33.585938 24.140625 Z M 36.601562 22.199219 C 36.101562 22.820312 36.101562 23.269531 36.078125 24.214844 C 36.078125 24.242188 36.050781 24.265625 36.027344 24.292969 L 35.429688 24.566406 L 35.402344 24.691406 L 35.402344 24.738281 L 35.976562 24.714844 C 36 24.714844 36 24.714844 36.027344 24.738281 C 36.050781 24.765625 36.050781 24.765625 36.050781 24.789062 L 36.027344 27.828125 C 36 28.453125 35.925781 28.625 35.402344 28.699219 L 35.328125 28.726562 L 35.328125 28.875 L 35.652344 28.851562 L 36.351562 28.824219 L 37.472656 28.851562 L 37.871094 28.851562 C 38.019531 28.851562 38.019531 28.851562 38.019531 28.75 L 38.019531 28.675781 L 37.945312 28.675781 C 37.171875 28.675781 36.921875 28.578125 36.898438 27.902344 L 36.875 24.789062 C 36.875 24.765625 36.875 24.765625 36.898438 24.738281 C 36.921875 24.714844 36.921875 24.714844 36.949219 24.714844 L 38.46875 24.714844 C 38.542969 24.714844 38.542969 24.714844 38.542969 24.515625 L 38.542969 24.316406 L 36.972656 24.316406 C 36.921875 24.316406 36.898438 24.292969 36.898438 24.242188 C 36.898438 22.523438 36.949219 21.699219 38.21875 21.699219 C 38.792969 21.699219 39.089844 21.898438 39.265625 22.023438 L 39.363281 22.097656 C 39.414062 22.148438 39.464844 22.199219 39.488281 22.199219 C 39.5625 22.199219 40.011719 22 40.011719 21.800781 C 40.011719 21.527344 39.5625 21.152344 38.765625 21.152344 C 37.769531 21.078125 37 21.648438 36.601562 22.199219 Z M 38.890625 26.757812 C 38.890625 27.257812 39.015625 28.898438 40.761719 28.898438 C 41.558594 28.898438 42.28125 28.527344 42.628906 28.203125 C 42.730469 28.128906 42.730469 28.101562 42.730469 28.054688 L 42.703125 27.953125 C 42.703125 27.953125 42.679688 27.902344 42.679688 27.929688 C 42.105469 28.351562 41.484375 28.402344 41.257812 28.402344 C 39.914062 28.402344 39.714844 27.058594 39.6875 26.484375 C 39.6875 26.457031 39.714844 26.410156 39.738281 26.410156 C 40.535156 26.234375 41.582031 26.035156 42.679688 25.859375 L 42.679688 25.835938 C 42.679688 25.761719 42.652344 25.5625 42.578125 25.3125 C 42.328125 24.414062 41.582031 24.117188 41.007812 24.117188 C 39.988281 24.140625 38.890625 25.113281 38.890625 26.757812 Z M 39.714844 26.183594 C 39.6875 26.160156 39.6875 26.160156 39.6875 26.136719 C 39.6875 25.261719 40.039062 24.390625 40.734375 24.390625 C 41.332031 24.390625 41.808594 25.0625 41.808594 25.488281 C 41.808594 25.660156 41.683594 25.761719 41.359375 25.835938 C 40.5625 26.035156 40.261719 26.109375 39.789062 26.183594 C 39.765625 26.210938 39.738281 26.210938 39.714844 26.183594 Z M 39.714844 26.183594 "/>
<path style=" stroke:none;fill-rule:nonzero;fill:rgb(92.941177%,10.196079%,23.137255%);fill-opacity:1;" d="M 31.617188 10.6875 C 31.691406 10.039062 31.667969 9.34375 31.59375 8.621094 C 31.59375 8.570312 31.566406 8.546875 31.542969 8.519531 C 31.515625 8.496094 31.492188 8.496094 31.46875 8.496094 C 30.871094 8.445312 30.222656 8.421875 29.5 8.445312 C 25.339844 8.472656 20.007812 9.515625 17.640625 11.835938 C 16.542969 12.90625 15.996094 14.300781 16.417969 16.019531 C 16.867188 17.964844 18.511719 18.835938 19.507812 19.109375 C 20.03125 19.257812 20.40625 19.207031 20.40625 19.207031 C 20.40625 19.207031 20.480469 19.207031 20.480469 19.183594 C 20.480469 19.160156 20.429688 19.109375 20.429688 19.109375 C 20.429688 19.109375 20.257812 18.960938 20.132812 18.835938 C 20.03125 18.710938 19.957031 18.636719 19.882812 18.511719 C 19.734375 18.261719 19.558594 17.9375 19.433594 17.488281 C 19.160156 16.542969 19.457031 15.621094 20.15625 14.921875 C 21.328125 13.703125 23.941406 12.878906 28.476562 12.90625 L 30.992188 12.957031 C 30.992188 12.957031 31.070312 12.957031 31.09375 12.929688 C 31.117188 12.90625 31.117188 12.90625 31.144531 12.832031 C 31.316406 12.40625 31.542969 11.609375 31.617188 10.6875 Z M 23.246094 0.101562 C 22.699219 0 21.800781 -0.0234375 21.078125 0.0507812 C 20.503906 0.101562 19.832031 0.222656 19.382812 0.347656 C 19.335938 0.375 19.308594 0.375 19.285156 0.398438 C 19.257812 0.398438 19.257812 0.421875 19.257812 0.472656 C 18.886719 1.742188 16.894531 3.140625 16.394531 3.5625 C 15.695312 4.160156 15.050781 4.683594 14.449219 5.308594 C 13.953125 5.855469 13.40625 6.503906 13.054688 7.148438 C 12.683594 7.824219 12.484375 8.472656 12.382812 9.117188 C 12.285156 9.667969 12.285156 10.191406 12.308594 10.589844 L 12.308594 10.714844 C 12.359375 11.285156 12.457031 11.535156 12.484375 11.585938 C 12.507812 11.636719 12.507812 11.683594 12.558594 11.683594 C 12.605469 11.683594 12.605469 11.609375 12.605469 11.558594 C 12.632812 11.511719 12.683594 11.285156 12.730469 11.113281 C 12.808594 10.886719 12.832031 10.789062 12.90625 10.5625 C 13.105469 9.992188 13.480469 9.167969 14.25 8.320312 C 16.59375 5.730469 19.160156 5.207031 21.300781 3.265625 C 22.648438 2.019531 23.070312 0.871094 23.34375 0.25 C 23.371094 0.199219 23.394531 0.175781 23.371094 0.148438 C 23.34375 0.101562 23.320312 0.101562 23.246094 0.101562 Z M 23.246094 0.101562 "/>
<path style=" stroke:none;fill-rule:nonzero;fill:rgb(92.941177%,10.196079%,23.137255%);fill-opacity:1;" d="M 31.492188 7.773438 C 31.316406 6.925781 30.945312 5.828125 30.472656 5.03125 C 30.371094 4.859375 30.195312 4.558594 30.097656 4.386719 C 30.046875 4.308594 30.070312 4.335938 30.046875 4.308594 C 29.996094 4.261719 29.898438 4.261719 29.898438 4.261719 C 29.625 4.234375 29 4.210938 28.277344 4.210938 C 26.984375 4.1875 25.386719 4.359375 23.621094 4.707031 C 21.003906 5.207031 18.710938 6.105469 16.867188 7.300781 C 14.875 8.59375 13.40625 10.039062 12.855469 12.382812 C 12.757812 12.757812 13.007812 13.402344 13.253906 13.925781 C 13.40625 14.25 13.578125 14.5 13.753906 14.75 C 13.777344 14.773438 13.804688 14.824219 13.828125 14.800781 C 13.851562 14.800781 13.851562 14.773438 13.851562 14.722656 C 13.878906 14.550781 13.929688 14.226562 14.101562 13.777344 C 14.402344 12.957031 15.125 11.1875 18.113281 9.742188 C 20.105469 8.769531 22.273438 8.320312 24.265625 8.097656 C 27.40625 7.722656 29.796875 7.699219 31.441406 7.898438 C 31.492188 7.898438 31.542969 7.921875 31.542969 7.898438 C 31.492188 7.847656 31.492188 7.824219 31.492188 7.773438 Z M 31.492188 7.773438 "/>
<path style=" stroke:none;fill-rule:nonzero;fill:rgb(100%,100%,100%);fill-opacity:1;" d="M 29.773438 9.21875 L 28.902344 9.21875 L 28.902344 10.214844 L 27.90625 10.214844 L 27.90625 11.085938 L 28.902344 11.085938 L 28.902344 12.082031 L 29.773438 12.082031 L 29.773438 11.085938 L 30.792969 11.085938 L 30.792969 10.214844 L 29.773438 10.214844 Z M 29.773438 9.21875 "/>
<path style=" stroke:none;fill-rule:nonzero;fill:rgb(0%,0%,0%);fill-opacity:1;" d="M 5.53125 28.476562 C 5.183594 28.726562 4.660156 28.976562 3.589844 28.976562 C 2.691406 28.976562 1.945312 28.800781 1.769531 28.800781 C 1.644531 28.800781 1.621094 28.898438 1.496094 28.898438 C 1.394531 28.898438 1.371094 28.875 1.347656 28.699219 C 1.269531 28.226562 1.171875 27.304688 1.171875 27.007812 C 1.171875 26.90625 1.246094 26.78125 1.445312 26.78125 C 1.519531 26.78125 1.546875 26.855469 1.546875 26.957031 C 1.644531 27.40625 1.84375 27.804688 2.167969 28.054688 C 2.542969 28.351562 3.089844 28.5 3.6875 28.5 C 4.511719 28.5 5.132812 27.980469 5.132812 27.207031 C 5.132812 26.433594 4.609375 26.160156 3.464844 25.636719 C 2.59375 25.238281 2.292969 25.113281 1.945312 24.765625 C 1.546875 24.390625 1.472656 23.941406 1.472656 23.59375 C 1.472656 22.449219 2.316406 21.648438 3.914062 21.648438 C 4.210938 21.648438 4.585938 21.675781 4.882812 21.699219 C 5.183594 21.726562 5.433594 21.773438 5.457031 21.773438 C 5.507812 21.773438 5.53125 21.75 5.558594 21.726562 L 5.65625 21.726562 C 5.730469 21.726562 5.730469 21.773438 5.730469 21.824219 C 5.730469 21.898438 5.707031 22.449219 5.730469 22.746094 C 5.757812 22.972656 5.78125 23.292969 5.78125 23.34375 C 5.78125 23.445312 5.632812 23.492188 5.53125 23.492188 C 5.457031 23.492188 5.457031 23.46875 5.40625 23.292969 C 5.308594 22.972656 5.183594 22.597656 4.808594 22.347656 C 4.535156 22.148438 4.136719 22.050781 3.738281 22.050781 C 2.992188 22.050781 2.417969 22.496094 2.417969 23.269531 C 2.417969 24.09375 2.941406 24.316406 4.234375 24.890625 C 5.132812 25.289062 6.179688 25.734375 6.179688 26.980469 C 6.253906 27.703125 5.90625 28.203125 5.53125 28.476562 Z M 14.128906 24.464844 C 13.878906 24.589844 13.480469 25.3125 13.179688 25.835938 C 12.90625 26.359375 12.457031 27.332031 12.109375 28.101562 C 12.035156 28.300781 11.859375 28.675781 11.835938 28.726562 C 11.785156 28.824219 11.710938 28.875 11.609375 28.875 L 11.335938 28.898438 C 11.261719 28.898438 11.238281 28.898438 11.1875 28.652344 C 11.0625 28.152344 10.765625 27.207031 10.363281 26.136719 C 9.617188 27.605469 9.441406 27.953125 9.09375 28.75 C 9.042969 28.875 9.042969 28.875 8.96875 28.875 L 8.570312 28.925781 C 8.519531 28.925781 8.519531 28.898438 8.445312 28.726562 C 8.074219 27.628906 7.425781 25.9375 7 25.039062 C 6.828125 24.691406 6.726562 24.539062 6.628906 24.492188 C 6.503906 24.414062 6.480469 24.414062 6.480469 24.292969 C 6.480469 24.191406 6.503906 24.167969 6.601562 24.167969 L 8.570312 24.167969 C 8.621094 24.167969 8.621094 24.242188 8.621094 24.316406 C 8.621094 24.441406 8.621094 24.464844 8.472656 24.464844 C 8.121094 24.492188 8.023438 24.613281 8.023438 24.789062 C 8.023438 24.988281 8.222656 25.488281 8.371094 25.960938 C 8.546875 26.410156 8.722656 26.90625 9.09375 27.828125 C 9.292969 27.40625 9.917969 26.136719 10.140625 25.636719 C 9.941406 25.113281 9.792969 24.738281 9.691406 24.613281 C 9.59375 24.515625 9.519531 24.492188 9.320312 24.464844 C 9.242188 24.464844 9.242188 24.414062 9.242188 24.339844 C 9.242188 24.242188 9.269531 24.191406 9.367188 24.191406 L 11.4375 24.191406 C 11.535156 24.191406 11.5625 24.242188 11.5625 24.339844 C 11.5625 24.464844 11.5625 24.492188 11.410156 24.515625 C 11.0625 24.539062 10.886719 24.539062 10.886719 24.8125 C 10.886719 25.015625 11.609375 27.230469 11.835938 27.828125 C 12.160156 27.105469 12.558594 26.257812 12.78125 25.734375 C 12.90625 25.4375 13.082031 25.039062 13.082031 24.8125 C 13.082031 24.515625 12.808594 24.492188 12.558594 24.464844 C 12.40625 24.464844 12.40625 24.464844 12.40625 24.339844 C 12.40625 24.242188 12.40625 24.191406 12.507812 24.191406 L 14.101562 24.191406 C 14.175781 24.191406 14.203125 24.242188 14.203125 24.316406 C 14.226562 24.390625 14.203125 24.414062 14.128906 24.464844 Z M 17.015625 28.875 C 16.867188 28.875 16.371094 28.851562 15.820312 28.851562 C 15.398438 28.851562 14.773438 28.875 14.550781 28.875 C 14.476562 28.875 14.449219 28.851562 14.449219 28.75 C 14.449219 28.625 14.476562 28.601562 14.625 28.578125 C 15 28.5 15.125 28.425781 15.199219 28.179688 C 15.296875 27.902344 15.296875 26.980469 15.296875 26.335938 C 15.296875 25.1875 15.296875 25.015625 14.773438 24.964844 C 14.601562 24.9375 14.574219 24.9375 14.574219 24.8125 C 14.574219 24.691406 14.625 24.691406 14.726562 24.613281 C 14.925781 24.515625 15.621094 24.191406 15.894531 24.09375 C 15.996094 24.042969 16.09375 24.015625 16.171875 24.015625 C 16.246094 24.015625 16.269531 24.042969 16.269531 24.117188 C 16.269531 24.265625 16.246094 24.613281 16.21875 24.789062 C 16.21875 25.039062 16.195312 25.535156 16.195312 26.410156 C 16.195312 26.757812 16.195312 27.980469 16.246094 28.226562 C 16.292969 28.550781 16.519531 28.578125 16.941406 28.601562 C 17.09375 28.601562 17.117188 28.625 17.117188 28.75 C 17.140625 28.851562 17.09375 28.875 17.015625 28.875 Z M 15.820312 22.523438 C 15.570312 22.523438 15.273438 22.222656 15.273438 21.972656 C 15.273438 21.675781 15.621094 21.375 15.871094 21.375 C 16.121094 21.375 16.445312 21.675781 16.445312 21.949219 C 16.417969 22.199219 16.121094 22.523438 15.820312 22.523438 Z M 19.109375 28.976562 C 18.636719 28.976562 18.261719 28.898438 18.0625 28.875 C 17.964844 28.875 17.863281 28.851562 17.839844 28.851562 C 17.8125 28.851562 17.738281 28.875 17.691406 28.875 C 17.613281 28.875 17.589844 28.824219 17.589844 28.726562 L 17.589844 28.179688 C 17.589844 28.003906 17.539062 27.605469 17.539062 27.503906 C 17.539062 27.40625 17.640625 27.40625 17.738281 27.40625 C 17.8125 27.40625 17.8125 27.429688 17.863281 27.605469 C 18.089844 28.453125 18.835938 28.625 19.234375 28.625 C 19.957031 28.625 20.105469 28.152344 20.105469 27.878906 C 20.105469 27.40625 19.707031 27.15625 18.984375 26.832031 C 18.363281 26.535156 17.691406 26.210938 17.691406 25.4375 C 17.691406 24.914062 18.039062 24.117188 19.507812 24.117188 C 19.90625 24.117188 20.378906 24.214844 20.457031 24.214844 C 20.480469 24.214844 20.554688 24.191406 20.605469 24.191406 C 20.679688 24.191406 20.679688 24.214844 20.703125 24.390625 C 20.730469 24.640625 20.777344 25.136719 20.777344 25.335938 C 20.777344 25.4375 20.753906 25.460938 20.554688 25.460938 C 20.503906 25.460938 20.480469 25.4375 20.429688 25.3125 C 20.304688 25.039062 20.007812 24.515625 19.285156 24.515625 C 18.613281 24.515625 18.511719 24.988281 18.511719 25.1875 C 18.511719 25.613281 18.8125 25.8125 19.65625 26.210938 C 20.257812 26.484375 21.003906 26.832031 21.003906 27.679688 C 21.101562 28.777344 19.757812 28.976562 19.109375 28.976562 Z M 23.246094 28.976562 C 22.773438 28.976562 22.398438 28.898438 22.199219 28.875 C 22.101562 28.875 22 28.851562 21.976562 28.851562 C 21.949219 28.851562 21.875 28.875 21.824219 28.875 C 21.75 28.875 21.726562 28.824219 21.726562 28.726562 L 21.726562 28.179688 C 21.726562 28.003906 21.675781 27.605469 21.675781 27.503906 C 21.675781 27.40625 21.777344 27.40625 21.875 27.40625 C 21.949219 27.40625 21.949219 27.429688 22 27.605469 C 22.222656 28.453125 22.972656 28.625 23.371094 28.625 C 24.09375 28.625 24.242188 28.152344 24.242188 27.878906 C 24.242188 27.40625 23.84375 27.15625 23.121094 26.832031 C 22.5 26.535156 21.824219 26.210938 21.824219 25.4375 C 21.824219 24.914062 22.175781 24.117188 23.644531 24.117188 C 24.042969 24.117188 24.515625 24.214844 24.589844 24.214844 C 24.617188 24.214844 24.691406 24.191406 24.742188 24.191406 C 24.816406 24.191406 24.816406 24.214844 24.839844 24.390625 C 24.863281 24.640625 24.914062 25.136719 24.914062 25.335938 C 24.914062 25.4375 24.890625 25.460938 24.691406 25.460938 C 24.640625 25.460938 24.617188 25.4375 24.566406 25.3125 C 24.441406 25.039062 24.144531 24.515625 23.421875 24.515625 C 22.746094 24.515625 22.648438 24.988281 22.648438 25.1875 C 22.648438 25.613281 22.945312 25.8125 23.792969 26.210938 C 24.390625 26.484375 25.140625 26.832031 25.140625 27.679688 C 25.238281 28.777344 23.894531 28.976562 23.246094 28.976562 Z M 31.394531 28.578125 C 31.316406 28.800781 31.292969 28.898438 31.191406 28.898438 C 30.96875 28.898438 30.769531 28.851562 28.675781 28.851562 C 26.757812 28.851562 26.308594 28.898438 26.1875 28.898438 C 26.085938 28.898438 26.0625 28.875 26.0625 28.75 C 26.0625 28.601562 26.0625 28.601562 26.261719 28.578125 C 26.90625 28.527344 26.957031 28.152344 27.007812 27.753906 C 27.082031 27.058594 27.082031 25.660156 27.082031 24.765625 L 27.082031 23.144531 C 27.082031 22.398438 27.03125 22.171875 26.460938 22.097656 C 26.210938 22.074219 26.1875 22.050781 26.1875 21.949219 C 26.1875 21.800781 26.210938 21.773438 26.308594 21.773438 C 26.660156 21.773438 27.308594 21.824219 27.628906 21.824219 C 28.054688 21.824219 28.75 21.773438 29.027344 21.773438 C 29.101562 21.773438 29.148438 21.800781 29.148438 21.898438 C 29.148438 22.050781 29.148438 22.074219 28.949219 22.097656 C 28.453125 22.125 28.253906 22.25 28.203125 22.621094 C 28.105469 23.046875 28.105469 24.8125 28.105469 25.535156 C 28.105469 26.558594 28.105469 27.730469 28.203125 28.078125 C 28.253906 28.351562 28.429688 28.351562 28.902344 28.351562 C 29.597656 28.351562 30.371094 28.351562 30.746094 28.128906 C 31.042969 27.953125 31.242188 27.578125 31.367188 27.179688 C 31.417969 27.03125 31.441406 26.933594 31.492188 26.933594 C 31.691406 26.933594 31.742188 26.980469 31.742188 27.058594 C 31.691406 27.230469 31.617188 27.730469 31.394531 28.578125 Z M 34.65625 28.875 C 34.507812 28.875 34.007812 28.851562 33.460938 28.851562 C 33.035156 28.851562 32.414062 28.875 32.191406 28.875 C 32.113281 28.875 32.089844 28.851562 32.089844 28.75 C 32.089844 28.625 32.113281 28.601562 32.265625 28.578125 C 32.636719 28.5 32.761719 28.425781 32.835938 28.179688 C 32.9375 27.902344 32.9375 26.980469 32.9375 26.335938 C 32.9375 25.1875 32.9375 25.015625 32.414062 24.964844 C 32.238281 24.9375 32.214844 24.9375 32.214844 24.8125 C 32.214844 24.691406 32.265625 24.691406 32.363281 24.613281 C 32.5625 24.515625 33.261719 24.191406 33.535156 24.09375 C 33.636719 24.042969 33.734375 24.015625 33.808594 24.015625 C 33.882812 24.015625 33.910156 24.042969 33.910156 24.117188 C 33.910156 24.265625 33.882812 24.613281 33.859375 24.789062 C 33.859375 25.039062 33.835938 25.535156 33.835938 26.410156 C 33.835938 26.757812 33.835938 27.980469 33.882812 28.226562 C 33.933594 28.550781 34.15625 28.578125 34.582031 28.601562 C 34.730469 28.601562 34.757812 28.625 34.757812 28.75 C 34.78125 28.851562 34.757812 28.875 34.65625 28.875 Z M 33.484375 22.523438 C 33.234375 22.523438 32.9375 22.222656 32.9375 21.972656 C 32.9375 21.675781 33.285156 21.375 33.535156 21.375 C 33.785156 21.375 34.109375 21.675781 34.109375 21.949219 C 34.082031 22.199219 33.785156 22.523438 33.484375 22.523438 Z M 39.441406 22.199219 C 39.363281 22.199219 39.316406 22.125 39.164062 22 C 39.015625 21.875 38.742188 21.675781 38.167969 21.675781 C 36.972656 21.675781 36.921875 22.398438 36.921875 24.167969 L 38.492188 24.167969 C 38.59375 24.167969 38.59375 24.191406 38.59375 24.441406 C 38.59375 24.664062 38.59375 24.714844 38.441406 24.714844 L 36.921875 24.714844 C 36.921875 25.761719 36.921875 27.15625 36.949219 27.828125 C 36.972656 28.453125 37.171875 28.550781 37.921875 28.550781 C 38.070312 28.550781 38.070312 28.578125 38.070312 28.699219 C 38.070312 28.851562 38.042969 28.875 37.84375 28.875 C 37.671875 28.875 36.875 28.851562 36.351562 28.851562 C 35.976562 28.851562 35.503906 28.875 35.328125 28.875 C 35.277344 28.875 35.253906 28.800781 35.253906 28.726562 C 35.253906 28.601562 35.253906 28.578125 35.402344 28.550781 C 35.878906 28.476562 35.953125 28.378906 35.976562 27.753906 C 36 27.03125 36 25.535156 36 24.738281 L 35.429688 24.738281 C 35.355469 24.738281 35.355469 24.714844 35.355469 24.640625 C 35.355469 24.515625 35.355469 24.492188 35.402344 24.464844 L 36 24.191406 C 36.027344 23.21875 36.027344 22.796875 36.523438 22.148438 C 37 21.527344 37.820312 21.003906 38.71875 21.003906 C 39.5625 21.003906 40.039062 21.402344 40.039062 21.726562 C 40.039062 21.972656 39.515625 22.199219 39.441406 22.199219 Z M 39.441406 22.199219 "/>
<path style=" stroke:none;fill-rule:nonzero;fill:rgb(0%,0%,0%);fill-opacity:1;" d="M 42.679688 28.277344 C 42.253906 28.652344 41.53125 29 40.761719 29 C 39.164062 29 38.816406 27.628906 38.816406 26.78125 C 38.816406 25.039062 39.988281 24.09375 41.058594 24.09375 C 41.582031 24.09375 42.429688 24.367188 42.703125 25.335938 C 42.777344 25.613281 42.828125 25.9375 42.777344 25.960938 C 41.78125 26.109375 40.785156 26.308594 39.789062 26.507812 C 39.8125 27.28125 40.113281 28.378906 41.285156 28.378906 C 41.632812 28.378906 42.207031 28.277344 42.703125 27.878906 C 42.730469 27.855469 42.753906 27.828125 42.777344 27.878906 C 42.777344 27.953125 42.804688 28.003906 42.804688 28.078125 C 42.804688 28.152344 42.777344 28.179688 42.679688 28.277344 Z M 40.734375 24.464844 C 40.085938 24.464844 39.789062 25.3125 39.765625 26.136719 C 40.238281 26.058594 40.511719 25.984375 41.332031 25.785156 C 41.683594 25.6875 41.730469 25.613281 41.730469 25.488281 C 41.730469 25.113281 41.285156 24.464844 40.734375 24.464844 Z M 40.734375 24.464844 "/>
</g>
</svg>
