<svg xmlns="http://www.w3.org/2000/svg" width="97.92mm" height="47.02mm" viewBox="0 0 277.58 133.27"><path fill="#00635f" d="M0 133.27 17.49 22.84C19.59 9.6 30.83 0 44.23 0h233.35l-17.49 110.44c-2.1 13.23-13.34 22.84-26.74 22.84H0Z"/><path fill="#fff" d="m246.03 26.97-12.59 79.4h-21.53l4.94-30.82h-22l-4.94 30.82H168.5l12.59-79.4h21.41l-5.06 31.76h22l5.06-31.76h21.53ZM81.03 89.66H55.64l9.88-62.69H44.11l-12.58 79.4h46.85l2.65-16.71zM134.46 67.86c-.11-3.25 1.63-4.98 3.84-7.17l32.9-33.72h-23.49l-27.39 28.14c-1.32 1.39-2.27 2.94-2.96 4.52l5.18-32.66h-21.41l-12.59 79.4h21.41l5.74-36.23c.21 2.23 1.03 4.3 2.56 6.46l21.16 29.77h22.81l-25.16-32.84c-1.64-2.23-2.53-3.79-2.6-5.67Z"/></svg>