<svg version="1.1" id="Ebene_1" xmlns="http://www.w3.org/2000/svg" xmlns:xlink="http://www.w3.org/1999/xlink" x="0px" y="0px"
	 viewBox="0 0 548.7 100.6" style="enable-background:new 0 0 548.7 100.6;" xml:space="preserve">
<style type="text/css">
	.st0{fill:#5E5E5D;}
	.st1{fill:#1793D7;}
	.st2{fill:#FFFFFF;}
</style>
<g>
	<path class="st0" d="M166.8,51.5v15.9c0,1.7-1.2,2.9-2.8,2.9c-1.7,0-2.9-1.2-2.9-2.9V51.3c0-3.3-2.1-5.1-4.9-5.1
		c-1.8,0-3.3,0.6-4.8,1.6v19.6c0,1.7-1.2,2.9-2.8,2.9c-1.7,0-2.9-1.2-2.9-2.9V49.6c0-1.5-0.8-2.3-1.7-2.8c-0.8-0.4-1.7-0.6-2.8-0.6
		c-1.9,0-3.5,0.3-5.2,0.8v20.4c0,1.7-1.2,2.9-2.8,2.9c-1.7,0-2.9-1.2-2.9-2.9V45.6c0-1.6,0.9-2.8,2.5-3.3c2.7-0.9,5.7-1.5,8.7-1.5
		c2.8,0,5.2,0.8,7,2.4c2.2-1.5,5.2-2.4,7.7-2.4C162.8,40.9,166.8,44.8,166.8,51.5z"/>
	<path class="st0" d="M196.7,43.7v21.9c0,1.5-0.9,2.7-2.5,3.2c-2.7,0.9-5.6,1.5-8.7,1.5c-7.5,0-11.3-3.7-11.3-11V43.7
		c0-1.7,1.2-2.8,2.8-2.8c1.7,0,2.9,1.2,2.9,2.8v15.8c0,3.6,1.8,5.5,5.5,5.5c1.9,0,3.7-0.3,5.5-0.8V43.7c0-1.7,1.2-2.8,2.8-2.8
		C195.5,40.9,196.7,42,196.7,43.7z M183.6,33.4c0,1.9-1.5,3.4-3.3,3.4c-1.8,0-3.3-1.5-3.3-3.4c0-1.8,1.5-3.3,3.3-3.3
		C182.1,30,183.6,31.6,183.6,33.4z M194.2,33.4c0,1.9-1.5,3.4-3.4,3.4c-1.8,0-3.3-1.5-3.3-3.4c0-1.8,1.5-3.3,3.3-3.3
		C192.7,30,194.2,31.6,194.2,33.4z"/>
	<path class="st0" d="M227.3,51.9v15.6c0,1.7-1.2,2.8-2.8,2.8c-1.7,0-2.9-1.2-2.9-2.8V51.6c0-3.5-1.9-5.5-5.5-5.5
		c-1.9,0-3.7,0.3-5.5,0.8v20.5c0,1.7-1.2,2.8-2.8,2.8c-1.7,0-2.9-1.2-2.9-2.8V45.6c0-1.6,0.9-2.8,2.5-3.3c2.7-0.9,5.6-1.5,8.7-1.5
		C223.5,40.9,227.3,44.7,227.3,51.9z"/>
	<path class="st0" d="M253.3,42.8c0.9,0.5,1.5,1.4,1.5,2.4c0,1.5-1.1,2.6-2.6,2.6c-1.1,0-1.7-0.4-2.8-0.9c-1.1-0.4-2.5-0.8-4.2-0.8
		c-3.3,0-5.4,2-5.4,5.9v7c0,3.9,2,6,5.4,6c1.7,0,3.2-0.4,4.3-0.9c0.9-0.4,1.6-0.8,2.6-0.8c1.6,0,2.7,1.1,2.7,2.6
		c0,1-0.6,1.9-1.5,2.4c-2.2,1.2-5.1,1.9-8,1.9c-6.9,0-11.3-4.3-11.3-11.2v-7c0-7.2,4.6-11.2,11.3-11.2
		C248.2,40.9,251.1,41.6,253.3,42.8z"/>
	<path class="st0" d="M265.6,32.9v9.6c1.8-1,4.4-1.6,6.3-1.6c6.8,0,10.5,4,10.5,11.1v15.5c0,1.7-1.2,2.8-2.8,2.8
		c-1.7,0-2.9-1.2-2.9-2.8V51.6c0-3.6-2-5.5-5.4-5.5c-2,0-3.9,0.6-5.6,2v19.3c0,1.7-1.2,2.8-2.8,2.8c-1.7,0-2.9-1.2-2.9-2.8V32.9
		c0-1.7,1.2-2.8,2.9-2.8C264.4,30,265.6,31.2,265.6,32.9z"/>
	<path class="st0" d="M311.6,52.1v2.7c0,1.6-1.3,3.4-3.5,3.4h-13.2v1.1c0,2.9,1.5,5.7,5.5,5.7c2.5,0,4.2-0.6,5.6-1.2
		c0.8-0.3,1.4-0.5,2-0.5c1.5,0,2.6,1.2,2.6,2.6c0,1-0.4,1.9-1.5,2.4c-2.5,1.3-6.6,1.9-8.7,1.9c-7.2,0-11.3-4.8-11.3-11.2v-7
		c0-6.8,4.4-11.2,11.3-11.2C307.2,40.9,311.6,45.4,311.6,52.1z M294.8,51.9v1h11v-0.8c0-3.7-1.6-5.9-5.5-5.9
		C296.5,46.2,294.8,48.3,294.8,51.9z"/>
	<path class="st0" d="M341.1,51.9v15.6c0,1.7-1.2,2.8-2.8,2.8c-1.7,0-2.9-1.2-2.9-2.8V51.6c0-3.5-1.9-5.5-5.5-5.5
		c-1.9,0-3.7,0.3-5.5,0.8v20.5c0,1.7-1.2,2.8-2.8,2.8c-1.7,0-2.9-1.2-2.9-2.8V45.6c0-1.6,0.9-2.8,2.5-3.3c2.7-0.9,5.6-1.5,8.7-1.5
		C337.3,40.9,341.1,44.7,341.1,51.9z"/>
	<path class="st0" d="M370.3,52.1v2.7c0,1.6-1.3,3.4-3.5,3.4h-13.2v1.1c0,2.9,1.5,5.7,5.5,5.7c2.5,0,4.2-0.6,5.6-1.2
		c0.8-0.3,1.4-0.5,2-0.5c1.5,0,2.6,1.2,2.6,2.6c0,1-0.4,1.9-1.5,2.4c-2.5,1.3-6.6,1.9-8.7,1.9c-7.2,0-11.3-4.8-11.3-11.2v-7
		c0-6.8,4.4-11.2,11.3-11.2C365.9,40.9,370.3,45.4,370.3,52.1z M353.5,51.9v1h11v-0.8c0-3.7-1.6-5.9-5.5-5.9S353.5,48.3,353.5,51.9z
		"/>
	<path class="st0" d="M389.9,41.3c1.5,0.3,2.3,1.3,2.3,2.7c0,1.5-1.1,2.6-2.7,2.6c-0.8,0-2-0.3-3.3-0.3c-1.8,0-3,1.2-3,3.2v18
		c0,1.7-1.2,2.8-2.8,2.8c-1.7,0-2.9-1.2-2.9-2.8V49.3c0-5.2,3.3-8.4,8.4-8.4C387.3,40.9,388.8,41,389.9,41.3z"/>
	<path class="st0" d="M430.7,43.7c0,0.4-0.1,0.9-0.3,1.5l-7.6,22.5c-0.7,2-2.2,2.6-3.7,2.6c-1.6,0-3.1-0.7-3.8-2.6L407.7,45
		c-0.2-0.5-0.3-0.9-0.3-1.3c0-1.4,0.9-2.8,2.8-2.8c1.3,0,2.3,0.7,2.7,2l6.1,19.1l6.1-19.1c0.4-1.3,1.4-2,2.7-2
		C429.8,40.9,430.7,42.3,430.7,43.7z"/>
	<path class="st0" d="M457.4,52.1v2.7c0,1.6-1.3,3.4-3.5,3.4h-13.2v1.1c0,2.9,1.5,5.7,5.5,5.7c2.5,0,4.2-0.6,5.6-1.2
		c0.8-0.3,1.4-0.5,2-0.5c1.5,0,2.6,1.2,2.6,2.6c0,1-0.4,1.9-1.5,2.4c-2.5,1.3-6.6,1.9-8.7,1.9c-7.2,0-11.3-4.8-11.3-11.2v-7
		c0-6.8,4.4-11.2,11.3-11.2C453,40.9,457.4,45.4,457.4,52.1z M440.7,51.9v1h11v-0.8c0-3.7-1.6-5.9-5.5-5.9
		C442.3,46.2,440.7,48.3,440.7,51.9z"/>
	<path class="st0" d="M477,41.3c1.5,0.3,2.3,1.3,2.3,2.7c0,1.5-1.1,2.6-2.7,2.6c-0.8,0-2-0.3-3.3-0.3c-1.8,0-3,1.2-3,3.2v18
		c0,1.7-1.2,2.8-2.8,2.8c-1.7,0-2.9-1.2-2.9-2.8V49.3c0-5.2,3.3-8.4,8.4-8.4C474.4,40.9,475.9,41,477,41.3z"/>
	<path class="st0" d="M505.3,52.1v2.7c0,1.6-1.3,3.4-3.5,3.4h-13.2v1.1c0,2.9,1.5,5.7,5.5,5.7c2.5,0,4.2-0.6,5.6-1.2
		c0.8-0.3,1.4-0.5,2-0.5c1.5,0,2.6,1.2,2.6,2.6c0,1-0.4,1.9-1.5,2.4c-2.5,1.3-6.6,1.9-8.7,1.9c-7.2,0-11.3-4.8-11.3-11.2v-7
		c0-6.8,4.4-11.2,11.3-11.2C501,40.9,505.3,45.4,505.3,52.1z M488.6,51.9v1h11v-0.8c0-3.7-1.6-5.9-5.5-5.9
		C490.3,46.2,488.6,48.3,488.6,51.9z"/>
	<path class="st0" d="M518.6,33.4c0,1.9-1.5,3.4-3.3,3.4c-1.8,0-3.3-1.5-3.3-3.4c0-1.8,1.5-3.3,3.3-3.3
		C517.1,30,518.6,31.5,518.6,33.4z M518.1,43.7v23.7c0,1.7-1.2,2.8-2.8,2.8c-1.7,0-2.9-1.2-2.9-2.8V43.7c0-1.7,1.2-2.8,2.9-2.8
		C517,40.9,518.1,42,518.1,43.7z"/>
	<path class="st0" d="M548.7,51.9v15.6c0,1.7-1.2,2.8-2.8,2.8c-1.7,0-2.9-1.2-2.9-2.8V51.6c0-3.5-1.9-5.5-5.5-5.5
		c-1.9,0-3.7,0.3-5.5,0.8v20.5c0,1.7-1.2,2.8-2.8,2.8c-1.7,0-2.9-1.2-2.9-2.8V45.6c0-1.6,0.9-2.8,2.5-3.3c2.7-0.9,5.6-1.5,8.7-1.5
		C544.9,40.9,548.7,44.7,548.7,51.9z"/>
</g>
<g>
	<path class="st1" d="M0,50.3C0,22.5,22.5,0,50.3,0c27.8,0,50.3,22.5,50.3,50.3c0,27.8-22.5,50.3-50.3,50.3
		C22.5,100.6,0,78.1,0,50.3"/>
	<path class="st2" d="M53.5,39.3c-2.5,0-5.4,0.9-7.7,2.2c-1.9-1.5-4.3-2.2-7.1-2.2c-2.9,0-5.9,0.5-8.9,1.5c-1.8,0.6-3,2.1-3,3.9
		v21.8c0,2.1,1.5,3.6,3.6,3.6c2.1,0,3.5-1.5,3.5-3.6v-20c1.6-0.4,3.1-0.6,4.6-0.6c1.1,0,1.8,0.2,2.5,0.5c0.9,0.5,1.3,1.3,1.3,2.3
		v17.8c0,2.1,1.5,3.6,3.6,3.6c2.1,0,3.5-1.5,3.5-3.6V47.2c1.4-0.9,2.8-1.3,4.2-1.3c2.7,0,4.3,1.7,4.3,4.4v16.2
		c0,2.1,1.5,3.6,3.6,3.6c2.1,0,3.5-1.5,3.5-3.6V50.6C64.9,43.6,60.7,39.3,53.5,39.3"/>
	<path class="st2" d="M79.7,60.5l-5.5-18.6c-0.5-1.5-1.7-2.5-3.4-2.5c-2.3,0-3.5,1.7-3.5,3.4c0,0.6,0.1,1.1,0.3,1.6l7.6,22.7
		c0.7,1.9,2.3,3.1,4.4,3.1c2.1,0,3.7-1.1,4.4-3l13.6-33.9c-1.1-2.9-2.4-5.7-3.9-8.4c-0.3,0.4-0.6,0.8-0.8,1.3L79.7,60.5z"/>
</g>
</svg>
