<?xml version="1.0" encoding="utf-8"?>
<!-- Generator: Adobe Illustrator 25.3.0, SVG Export Plug-In . SVG Version: 6.00 Build 0)  -->
<svg version="1.1" id="Ebene_1" xmlns="http://www.w3.org/2000/svg" xmlns:xlink="http://www.w3.org/1999/xlink" x="0px" y="0px"
	 viewBox="0 0 535.5 248.8" style="enable-background:new 0 0 535.5 248.8;" xml:space="preserve">
<style type="text/css">
	.st0{fill-rule:evenodd;clip-rule:evenodd;fill:#B11A3B;}
	.st1{fill:#B11A3B;}
</style>
<g>
	<path d="M0,217.4c1.2,0.1,2.4,0.2,3.4,0.2H4c0.7,0,5.1-0.3,6.2-0.3c1.1,0,2.3,0.1,3.4,0.5c2.3,0.8,4.1,3,4.1,6.6
		c0,2.8-1.1,5.5-3.5,6.8c-1.3,0.7-3.1,0.9-4.2,0.9c-0.9,0-1.9-0.1-2.7-0.2v5.9c0,1.2,0.1,2.6,2.3,2.8v1.2c-1.6-0.1-3.2-0.2-4.7-0.2
		c-1.6,0-3.2,0.1-4.7,0.2v-1.2c1.2-0.1,2.3-0.2,2.4-2.9v-15.9c0-2.1-0.5-2.9-2.4-3.1L0,217.4z M7.2,230.4c0.6,0.1,1.1,0.2,1.7,0.2
		c3.2,0,4.1-3.4,4.1-6.2c0-3.4-1.4-5.7-4.3-5.7c-0.9,0-1.5,0.3-1.5,1.3L7.2,230.4L7.2,230.4z"/>
	<path d="M23.9,225.8c1.3,0,2.7-0.1,3.9-0.5c0.3-0.1,0.5-0.3,0.7-0.4h1.3l0.2,3.9c0.6-1.4,1.6-3.8,3.6-3.8c1.2,0,2.4,1,2.4,2.7
		c0,1.9-1.2,2.7-2.1,2.7c-0.4,0-0.8-0.2-1.1-0.4c-0.2-0.2-0.3-0.3-0.5-1c-0.1-0.3-0.3-0.5-0.4-0.5c-0.2,0-0.3,0.1-0.4,0.2
		c-0.7,0.6-1,1.9-1.4,2.9v7.3c0.1,1.4,0.3,1.6,2.2,1.6v1.3c-1.4-0.1-2.8-0.3-4.2-0.3c-1.4,0-2.7,0.1-4.1,0.2v-1.3
		c1.5-0.1,1.7-0.2,1.7-1.5v-10.6c0-1.4-0.2-1.5-1.7-1.5V225.8z"/>
	<path d="M47.6,224.9v13.3c0,2.1,0.2,2.4,1.7,2.4v1.2c-1.4-0.1-2.7-0.3-4.1-0.3c-1.3,0-2.6,0.1-3.9,0.2v-1.3
		c1.7-0.1,1.8-0.2,1.8-1.7v-10.6c0-1.1-0.2-1.3-1.8-1.3v-1.2c2.7,0,3.3-0.2,4.8-0.9L47.6,224.9L47.6,224.9z M43.3,220.3
		c0-1.4,1.1-2.3,2.1-2.3c1.1,0,2.1,0.9,2.1,2.3c0,1.5-1.1,2.4-2.1,2.4c-0.6,0-1.1-0.3-1.5-0.7C43.5,221.5,43.3,220.9,43.3,220.3z"/>
	<path d="M55.3,225c1.5,0.1,3,0.2,4.5,0.2c1.3,0,2.4-0.1,3.8-0.2v1.3c-0.9,0-1.7,0.1-1.7,1.2c0,0.5,0.1,0.9,0.2,1.4l2.5,9.6l2.7-9.3
		c0.3-1.3,0.4-1.6,0.4-2.1c0-0.8-0.7-0.9-1.8-0.9V225c1,0.1,1.9,0.1,2.9,0.1c0.9,0,1.8-0.1,2.7-0.1v1.2c-1.6,0.2-1.7,0.6-2.7,3.6
		l-3.7,11.8H61l-3.8-13.4c-0.5-1.5-0.7-1.9-1.9-2L55.3,225L55.3,225z"/>
	<path d="M85.9,228.4c0-0.9-0.1-2.5-2.1-2.5c-1.8,0-1.8,1.5-1.8,1.6c0,0.2,0.2,1.1,0.2,1.4c0,0.9-0.7,1.8-2,1.8
		c-1.4,0-2.1-1-2.1-2.2c0-1,0.5-2.3,2.2-3.1c1.2-0.6,2.8-0.7,3.9-0.7c1,0,2.6,0.1,3.9,0.8c2.1,1.1,2.3,2.9,2.3,4.2v8.7
		c0,0.4,0,1.1,0.4,1.1c0.3,0,0.6-0.3,0.9-0.6l0.8,0.8c-1,1-2.2,2.3-4.1,2.3c-1.5,0-2.2-1-2.4-2.3c-0.8,0.8-1.4,1.5-2.8,2
		c-0.7,0.3-1.4,0.4-1.9,0.4c-2,0-4.1-1.6-4.1-4.5c0-1.9,0.8-3.1,1.5-3.7c1.9-1.9,5.1-2.1,7.1-2.3V228.4z M85.9,232.7
		c-1.6,0.1-4.4,0.3-4.4,3.5c0,1.8,0.9,3.1,2.4,3.1c1,0,1.6-0.6,1.9-1V232.7z"/>
	<path d="M98.3,225.2c1.1-0.5,1.9-0.9,3-1.9c1.5-1.6,1.8-3,2.2-4.7h1.4l-0.1,6.4h2.9v1.4h-3v9c0,1.5,0,2,0.1,2.2
		c0.1,0.8,0.2,1.5,1.1,1.5c0.2,0,0.9,0,1.7-1.3l1,0.6c-0.9,1.3-2.3,3.4-4.9,3.4c-0.4,0-1.4,0-2.2-0.9c-1.1-1-1.1-2.3-1.1-4.3
		l0.1-10.3h-2.1L98.3,225.2L98.3,225.2z"/>
	<path d="M128.1,236.2c-0.8,1.8-2.5,5.7-6.9,5.7c-3.7,0-6.9-3.4-6.9-8.9c0-5.5,3.4-8.3,7-8.3c1.9,0,3.4,0.7,4.5,1.8
		c2.1,2.1,2,4.5,2,6.1l-9.2,0.1c0.1,1.5,0.5,5.8,4.3,5.8c2.5,0,3.5-1.8,4.1-2.9L128.1,236.2z M123.8,231.4c0-2.3-0.1-5.4-2.4-5.4
		c-2.5,0-2.7,3.7-2.7,5.5L123.8,231.4z"/>
	<path d="M148.1,217.4c1.6,0.1,3.2,0.2,4.8,0.2c1.5,0,3.1-0.1,4.6-0.2v1.2c-1.8,0.3-2.2,1-2.3,2.7v7c0.5,0,0.8-0.1,1.2-0.5
		c0.1-0.1,0.4-0.5,1.1-1.3l4.3-5.6c0.3-0.4,0.6-0.8,0.6-1.3c0-0.8-0.9-0.9-2.1-1v-1.2c1.4,0.1,2.5,0.2,3.8,0.2
		c1.2,0,2.4-0.1,3.6-0.2v1.2c-1.9,0.3-2.1,0.6-4.5,3.6l-3.3,4.1l6,11.1c1.4,2.4,1.6,2.8,2.8,3v1.2c-1.6-0.1-2.9-0.1-4.4-0.1
		c-1.6,0-3.2,0.1-4.9,0.1v-1.2c0.7,0,1.8,0,1.8-0.9c0-0.3-0.3-1.1-0.5-1.4l-3.8-7.2c-0.6-1.2-0.8-1.5-1.9-1.5v8.4
		c0,1.5,0.4,2.5,2.2,2.5v1.2c-0.8,0-4-0.1-4.8-0.1c-1.6,0-3.1,0-4.7,0.1v-1.2c2-0.1,2.4-0.8,2.5-3.4v-15.5c-0.1-2-0.5-2.8-2.4-3
		C148.1,218.6,148.1,217.4,148.1,217.4z"/>
	<path d="M174.8,225.8c1.3,0,2.7-0.1,3.9-0.5c0.3-0.1,0.5-0.3,0.7-0.4h1.3l0.2,3.9c0.6-1.4,1.6-3.8,3.6-3.8c1.2,0,2.4,1,2.4,2.7
		c0,1.9-1.2,2.7-2.1,2.7c-0.4,0-0.8-0.2-1.1-0.4c-0.2-0.2-0.3-0.3-0.5-1c-0.1-0.3-0.3-0.5-0.4-0.5c-0.2,0-0.3,0.1-0.4,0.2
		c-0.7,0.6-1.1,1.9-1.4,2.9v7.3c0.1,1.4,0.3,1.6,2.2,1.6v1.3c-1.4-0.1-2.8-0.3-4.2-0.3c-1.4,0-2.7,0.1-4.1,0.2v-1.3
		c1.5-0.1,1.7-0.2,1.7-1.5v-10.6c0-1.4-0.2-1.5-1.7-1.5L174.8,225.8L174.8,225.8z"/>
	<path d="M201.1,228.4c0-0.9-0.1-2.5-2.1-2.5c-1.8,0-1.8,1.5-1.8,1.6c0,0.2,0.2,1.1,0.2,1.4c0,0.9-0.7,1.8-2,1.8
		c-1.4,0-2.1-1-2.1-2.2c0-1,0.5-2.3,2.2-3.1c1.2-0.6,2.8-0.7,3.9-0.7c1,0,2.6,0.1,3.9,0.8c2.1,1.1,2.3,2.9,2.3,4.2v8.7
		c0,0.4,0,1.1,0.4,1.1c0.3,0,0.6-0.3,0.9-0.6l0.8,0.8c-1,1-2.2,2.3-4.1,2.3c-1.5,0-2.2-1-2.4-2.3c-0.8,0.8-1.4,1.5-2.8,2
		c-0.7,0.3-1.4,0.4-1.9,0.4c-2,0-4.1-1.6-4.1-4.5c0-1.9,0.8-3.1,1.5-3.7c1.9-1.9,5-2.1,7.1-2.3L201.1,228.4L201.1,228.4z
		 M201.1,232.7c-1.6,0.1-4.4,0.3-4.4,3.5c0,1.8,0.9,3.1,2.4,3.1c1.1,0,1.6-0.6,1.9-1V232.7z"/>
	<path d="M219.9,224.8v3.1c0.9-1.2,2.2-3,4.8-3c1.4,0,2.3,0.6,2.8,1.1c1.1,1.1,1.2,2.4,1.2,4.1v8.9c0,1.2,0.4,1.6,1.7,1.6v1.2
		c-1.3-0.1-2.5-0.2-3.8-0.2c-1.2,0-2.4,0.1-3.6,0.2v-1.2c1.2-0.1,1.3-0.6,1.3-2v-8.2c0-0.9,0-2.7-1.6-2.7c-1,0-1.7,0.8-2.6,1.7v9.1
		c0,1.3,0,2.1,1.2,2.1v1.2c-1.3-0.1-2.5-0.2-3.8-0.2c-1.2,0-2.4,0.1-3.6,0.2v-1.2c1.3-0.1,1.7-0.4,1.7-1.9v-10.1
		c0-1.3-0.3-1.7-1.7-1.6v-1.2c2.7-0.1,3.5-0.3,4.7-0.9C218.6,224.8,219.9,224.8,219.9,224.8z"/>
	<path d="M243.2,215.7v16.2c0.4-0.1,0.7-0.2,1.1-0.6c0.4-0.4,3.4-3.8,3.4-4.5c0-0.5-0.5-0.5-1.5-0.5v-1.2c1.2,0.1,2.4,0.1,3.6,0.1
		c0.9,0,1.8,0,2.7-0.1v1.2c-1.7,0.2-2.3,0.5-3.5,1.9l-1.3,1.6l4.6,8.8c0.8,1.5,1.1,1.7,2.2,1.9v1.2c-1.4-0.1-2.8-0.2-4.1-0.2
		c-1.3,0-2.5,0.1-3.9,0.2v-1.2c0.9,0,1.2-0.1,1.2-0.5c0-0.1,0-0.2-0.1-0.5l-2.3-4.9c-0.8-1.5-1.2-1.9-2.1-1.8v5.3
		c0,1.8,0.2,2.4,1.6,2.4v1.2c-1.2-0.1-2.4-0.2-3.7-0.2c-1.4,0-2.7,0.1-4.2,0.2v-1.2c1.6,0,1.8-0.3,1.7-1.5v-19.5
		c0-1.5-0.2-1.9-1.7-1.8v-1.1c2.6-0.2,3.3-0.4,4.6-1L243.2,215.7L243.2,215.7z"/>
	<path d="M273.6,236.2c-0.8,1.8-2.5,5.7-6.8,5.7c-3.7,0-6.9-3.4-6.9-8.9c0-5.5,3.4-8.3,7-8.3c1.9,0,3.3,0.7,4.5,1.8
		c2.1,2.1,2,4.5,2,6.1l-9.1,0.1c0.1,1.5,0.5,5.8,4.3,5.8c2.5,0,3.5-1.8,4.1-2.9L273.6,236.2z M269.3,231.4c0-2.3-0.1-5.4-2.4-5.4
		c-2.5,0-2.6,3.7-2.7,5.5L269.3,231.4z"/>
	<path d="M285.8,224.8v3.1c0.9-1.2,2.2-3,4.7-3c1.4,0,2.3,0.6,2.8,1.1c1.1,1.1,1.1,2.4,1.1,4.1v8.9c0,1.2,0.4,1.6,1.7,1.6v1.2
		c-1.2-0.1-2.5-0.2-3.8-0.2c-1.2,0-2.4,0.1-3.6,0.2v-1.2c1.2-0.1,1.3-0.6,1.3-2v-8.2c0-0.9,0-2.7-1.6-2.7c-1,0-1.7,0.8-2.6,1.7v9.1
		c0,1.3,0,2.1,1.2,2.1v1.2c-1.3-0.1-2.5-0.2-3.8-0.2c-1.2,0-2.4,0.1-3.6,0.2v-1.2c1.3-0.1,1.7-0.4,1.7-1.9v-10.1
		c0-1.3-0.3-1.7-1.7-1.6v-1.2c2.7-0.1,3.5-0.3,4.7-0.9C284.4,224.8,285.8,224.8,285.8,224.8z"/>
	<path d="M301.5,225c1.5,0.1,3,0.2,4.5,0.2c1.3,0,2.4-0.1,3.8-0.2v1.3c-0.9,0-1.7,0.1-1.7,1.2c0,0.5,0.1,0.9,0.2,1.4l2.5,9.6
		l2.7-9.3c0.3-1.3,0.4-1.6,0.4-2.1c0-0.8-0.7-0.9-1.8-0.9V225c1,0.1,1.9,0.1,2.9,0.1c0.9,0,1.8-0.1,2.7-0.1v1.2
		c-1.6,0.2-1.7,0.6-2.7,3.6l-3.7,11.8h-4.2l-3.8-13.4c-0.5-1.5-0.7-1.9-1.9-2L301.5,225L301.5,225z"/>
	<path d="M337.3,236.2c-0.8,1.8-2.5,5.7-6.8,5.7c-3.7,0-6.9-3.4-6.9-8.9c0-5.5,3.4-8.3,7-8.3c1.9,0,3.4,0.7,4.5,1.8
		c2.1,2.1,2,4.5,2,6.1l-9.2,0.1c0.1,1.5,0.5,5.8,4.3,5.8c2.5,0,3.5-1.8,4.1-2.9L337.3,236.2z M333,231.4c0-2.3-0.1-5.4-2.4-5.4
		c-2.5,0-2.7,3.7-2.7,5.5L333,231.4z"/>
	<path d="M343.4,225.8c1.3,0,2.7-0.1,3.9-0.5c0.3-0.1,0.5-0.3,0.7-0.4h1.3l0.2,3.9c0.6-1.4,1.6-3.8,3.6-3.8c1.2,0,2.4,1,2.4,2.7
		c0,1.9-1.2,2.7-2.1,2.7c-0.4,0-0.8-0.2-1.1-0.4c-0.2-0.2-0.3-0.3-0.5-1c-0.1-0.3-0.3-0.5-0.4-0.5c-0.2,0-0.3,0.1-0.4,0.2
		c-0.7,0.6-1,1.9-1.4,2.9v7.3c0.1,1.4,0.3,1.6,2.2,1.6v1.3c-1.4-0.1-2.8-0.3-4.2-0.3c-1.4,0-2.7,0.1-4.1,0.2v-1.3
		c1.5-0.1,1.7-0.2,1.7-1.5v-10.6c0-1.4-0.2-1.5-1.7-1.5L343.4,225.8L343.4,225.8z"/>
	<path d="M362.9,236c0.1,1.2,0.2,2.6,1.2,3.6c0.5,0.5,1.3,0.9,2.3,0.9c1.6,0,2.6-1,2.6-2.2c0-1.3-1.3-2-1.7-2.3
		c-0.4-0.2-2.8-1.3-3.3-1.6c-0.8-0.4-2.7-1.4-2.7-4.3c0-2.7,1.8-5.4,6.2-5.4c1.5,0,2.9,0.3,4.3,0.5v4.2h-1.5
		c-0.1-0.8-0.1-1.6-0.9-2.5c-0.5-0.5-1.2-0.9-2.2-0.9c-1.8,0-2.3,1.1-2.3,1.8c0,1.1,1.2,1.7,2,2.1l1.8,0.8c2.2,1.1,4.2,2,4.2,5.4
		c0,2.5-1.5,5.7-6.1,5.7c-2.4,0-3.9-0.7-5.4-1.3V236L362.9,236L362.9,236z"/>
	<path d="M385.9,224.9v13.3c0,2.1,0.2,2.4,1.7,2.4v1.2c-1.4-0.1-2.7-0.3-4.1-0.3c-1.3,0-2.6,0.1-3.9,0.2v-1.3
		c1.7-0.1,1.8-0.2,1.8-1.7v-10.6c0-1.1-0.2-1.3-1.8-1.3v-1.2c2.7,0,3.3-0.2,4.8-0.9L385.9,224.9L385.9,224.9z M381.7,220.3
		c0-1.4,1.1-2.3,2.1-2.3s2.1,0.9,2.1,2.3c0,1.5-1.1,2.4-2.1,2.4c-0.6,0-1.1-0.3-1.5-0.7S381.7,220.9,381.7,220.3z"/>
	<path d="M408.3,236c-0.8,2-2.4,6-6.8,6c-3.8,0-6.7-3.4-6.7-8.7c0-5.6,3.3-8.6,7.4-8.6c3.5,0,5.3,2.1,5.3,4.1c0,1.6-1,2.4-2.1,2.4
		c-1.2,0-2.1-1-2.1-2.4c0-0.7,0.3-1.3,0.5-2c-0.3-0.4-0.8-0.9-1.8-0.9c-1.9,0-3,2.4-3,5.7c0,2.3,0.5,7.1,4.1,7.1
		c2.2,0,3.3-1.8,4-3.2L408.3,236z"/>
	<path d="M413.8,216.7c1.3-0.1,2.5-0.2,3.7-0.6c0.4-0.1,0.7-0.3,1.1-0.5h1.4v12c0.8-0.8,2.4-2.6,4.8-2.6c0.7,0,1.2,0.2,1.7,0.4
		c2,1,2.1,2.8,2.1,4v9.2c0,1.8,0.2,2.2,1.7,2.1v1.2c-1.4-0.1-2.6-0.2-3.9-0.2c-1.2,0-2.4,0.1-3.6,0.2v-1.2c1,0,1.2-0.5,1.2-1.7v-8.4
		c0-0.8,0-2.9-1.6-2.9c-1,0-1.9,0.9-2.6,1.5v9.5c0,1.4,0.3,1.9,1.3,2v1.2c-1.3-0.1-2.7-0.2-4.1-0.2c-1.1,0-2.2,0-3.4,0.1v-1.2
		c1.4,0,1.7-0.2,1.7-1.5v-19.6c0-1.4-0.3-1.7-1.7-1.7L413.8,216.7L413.8,216.7z"/>
	<path d="M451.1,236.2c-0.8,1.8-2.5,5.7-6.8,5.7c-3.7,0-6.9-3.4-6.9-8.9c0-5.5,3.4-8.3,7-8.3c1.9,0,3.4,0.7,4.5,1.8
		c2.1,2.1,2,4.5,2,6.1l-9.2,0.1c0.1,1.5,0.5,5.8,4.3,5.8c2.5,0,3.5-1.8,4.1-2.9L451.1,236.2z M446.8,231.4c0-2.3-0.1-5.4-2.4-5.4
		c-2.5,0-2.7,3.7-2.7,5.5L446.8,231.4z"/>
	<path d="M457.2,225.8c1.3,0,2.7-0.1,3.9-0.5c0.3-0.1,0.5-0.3,0.7-0.4h1.3l0.2,3.9c0.6-1.4,1.6-3.8,3.6-3.8c1.2,0,2.4,1,2.4,2.7
		c0,1.9-1.2,2.7-2.1,2.7c-0.4,0-0.8-0.2-1-0.4c-0.2-0.2-0.3-0.3-0.5-1c-0.1-0.3-0.3-0.5-0.4-0.5c-0.2,0-0.3,0.1-0.4,0.2
		c-0.7,0.6-1.1,1.9-1.4,2.9v7.3c0.1,1.4,0.3,1.6,2.2,1.6v1.3c-1.4-0.1-2.8-0.3-4.2-0.3c-1.4,0-2.8,0.1-4.1,0.2v-1.3
		c1.5-0.1,1.7-0.2,1.7-1.5v-10.6c0-1.4-0.2-1.5-1.7-1.5L457.2,225.8L457.2,225.8z"/>
	<path d="M480.8,224.8v10.9c0,1.7,0.1,3.3,1.7,3.3c1.1,0,1.7-0.7,2.4-1.5v-9.3c0-1-0.3-1.3-1.5-1.3v-1.1c2.9-0.1,3.5-0.4,4.4-0.9
		h1.6v14c0,1.3,0.2,1.9,1.7,1.8v1.2c-1.1-0.1-2.2-0.1-3.4-0.1c-0.9,0-1.8,0-2.7,0.1v-2.9c-0.7,1.2-1.9,3-4.5,3
		c-1.2,0-2.2-0.5-2.9-1.1c-1.2-1.2-1.3-2.9-1.3-4.7v-7.9c0-1.1-0.3-1.4-1.6-1.4v-1.1c2.3,0,2.9-0.2,4.6-0.9L480.8,224.8L480.8,224.8
		z"/>
	<path d="M503.8,224.8v3.1c0.9-1.2,2.2-3,4.7-3c1.4,0,2.3,0.6,2.8,1.1c1.1,1.1,1.1,2.4,1.1,4.1v8.9c0,1.2,0.4,1.6,1.7,1.6v1.2
		c-1.3-0.1-2.5-0.2-3.8-0.2c-1.2,0-2.4,0.1-3.6,0.2v-1.2c1.2-0.1,1.3-0.6,1.3-2v-8.2c0-0.9,0-2.7-1.6-2.7c-1,0-1.7,0.8-2.6,1.7v9.1
		c0,1.3,0,2.1,1.2,2.1v1.2c-1.3-0.1-2.5-0.2-3.8-0.2c-1.2,0-2.4,0.1-3.6,0.2v-1.2c1.3-0.1,1.7-0.4,1.7-1.9v-10.1
		c0-1.3-0.3-1.7-1.7-1.6v-1.2c2.7-0.1,3.5-0.3,4.7-0.9C502.5,224.8,503.8,224.8,503.8,224.8z"/>
	<path d="M531.6,238.8c1.4,0.1,3.6,0.3,3.6,3.7c0,4.1-3.3,6.4-8,6.4c-1.5,0-3-0.2-4.3-0.8c-1.1-0.6-2.1-1.6-2.1-2.8
		c0-1.4,1.3-2.3,2.7-3.2c-0.8-0.4-2-1.1-2-2.5c0-0.8,0.3-1.6,3.1-3.6c-0.9-0.6-2.7-2-2.7-5c0-2.6,1.7-6,6.2-6c0.9,0,1.9,0.1,2.7,0.6
		c0.2,0.1,0.4,0.2,0.6,0.4l1.2,0c1,0,1.7-0.1,3-0.3v2.2c-1.1-0.1-1.5-0.1-2.6-0.2c0.5,0.6,1.3,1.7,1.3,3.7c0,2.7-1.9,5.5-6,5.5
		c-1.1,0-1.6-0.2-2.4-0.4c-0.7,0.6-1.1,1-1.1,1.3c0,0.1,0,0.3,0.5,0.5c0.4,0.1,1.6,0.2,2.4,0.2L531.6,238.8z M526,231
		c0,1.5,0.2,4.5,2.1,4.5c0.3,0,0.9,0,1.4-1c0.3-0.6,0.5-1.7,0.5-3.6c0-1.5-0.2-2.8-0.6-3.7c-0.3-0.7-0.7-1-1.3-1
		C526.6,226.1,526,227.8,526,231z M523.8,244c0,1.2,1.4,3.1,4.7,3.1c2.6,0,3.8-1.3,3.8-2.4c0-0.5-0.2-0.8-0.4-1.1
		c-0.4-0.4-0.8-0.4-2.2-0.6c-1.8-0.2-3.1-0.4-5-0.7C524.2,242.8,523.8,243.3,523.8,244z"/>
	<g>
		<path class="st0" d="M178.7,41c0,0,3.3,5.8,12.1,15.4c3.7,4.1,9.1,9.6,15.1,13.5c5.8,4.3,12.6,8.3,18.9,11.1
			c13.2,6.1,30.1,10.2,49.3,9c9.6-0.6,13.6-2.2,13.6-2.2s-9.8-0.7-18.2-4.2c-7.9-3.1-12-6.4-16.8-9.8c-4.5-3.2-10.7-10.1-14-15.1
			c-4.2-6.4-5.7-12-5.7-12s-8.6,1.2-14.8,1.3c-6.6,0.1-16-0.1-23-2C186.7,43.8,178.7,41,178.7,41z"/>
		<circle class="st0" cx="280.7" cy="22.2" r="22.2"/>
		<path class="st0" d="M267.3,78.4c9-2.7,15.6-6.2,23-11.8c6.1-4.6,8.9-7.9,13-14.1c3.5-5.1,5-8.3,7.1-14.2
			c1.7-4.9,2.5-7.8,3.2-12.9c8.1,2.1,13.5,2.6,21.7,2.7c9.6,0.1,14.2-0.7,23.1-2.5c0,0-0.7,2.4-2.9,7.1c-2.4,4.9-4.8,9.8-7.3,13.7
			c-4.9,7.4-8,11.5-14.5,17.5c-5.8,5.3-8.8,8.3-15.5,12c-6,3.4-9.7,5.1-16.5,6.5c-5.5,1.1-8.8,1.3-14.4,0.9
			C279.3,82.8,275,81.5,267.3,78.4z"/>
	</g>
	<g>
		<path class="st1" d="M241,194.1l0-0.2c-0.1,0-0.2,0-0.2,0"/>
		<path class="st1" d="M279.9,120.1c-0.4,0-1.3,0-1.3,0c0,0-4.1,0.2-4.1,0.2c0,0-5,0.1-5,0.1c-5.9,0.3-7.8,0.3-9.8,0.3
			c-1.9,0-7.1,0-14.5-0.4l-2.1-0.2l-1.9-0.1c0,1.2,0.3,6.8,0.3,6.8l0.2,6.9c0.1,6.4,0.1,14,0.1,26.4c0,10.5-0.1,15.7-0.2,20.2
			l-0.3,6.9l-0.4,6.6c1.3,0,7.9-0.2,7.9-0.2s8.2-0.2,8.3-0.2c3,0,6,0,10.9,0.1l11.3,0.3l-0.1-0.7v0l0,0c0,0-0.2-2.5-0.2-2.5
			c0,0,0-2.2,0-2.2c0,0,0.1-1.5,0.1-1.6l0.3-2.5l-21.6,1.2l-0.2,0v-0.2V159v-0.2l0.2,0l6.2,0.1l7,0.3c0,0,4.5,0.2,4.5,0.2l4.1,0.3
			c-0.1-0.6-0.3-2.2-0.4-2.2l-0.1-0.8c-0.1-0.8-0.1-1.4-0.1-1.9c0-0.5,0-1.3,0.1-2.4l0.3-2.2c-1.1,0.1-5,0.5-5,0.5s-5.2,0.4-5.3,0.4
			l-6,0.2l-5.3,0.1h-0.2v-0.2v-22.7v-0.2l0.2,0c0,0,6.1,0.1,6.1,0.1c2.9,0,5.2,0.1,7,0.2l4.6,0.4l4.4,0.5c-0.1-0.7-0.3-2.2-0.3-2.2
			c-0.1-1.1-0.1-2-0.1-2.6c0,0,0.2-2.4,0.2-2.4L279.9,120.1z"/>
		<path class="st1" d="M324,151.1l-4.8-2.5c-0.8-0.3-1.5-0.6-2.4-1.1c-5.3-2.8-7.6-4.5-8.9-6.8c-1.1-1.8-1.6-3.7-1.6-5.4v0v0
			c0.1-1.2,0.4-2.3,0.8-3.4c1.6-3.5,4.3-5.1,8.5-5.1c1.4-0.1,3,0.1,4.7,0.7c3.9,1.3,6,3.4,8.2,8.1c0.1,0.2,0.2,0.4,0.3,0.5
			c0.1,0.1,0.1,0.3,0.2,0.5h2.3c0.1-0.6,0.4-2.3,0.4-2.3l0.5-2.5c0.2-0.9,0.6-2.3,1.2-4.1l1.3-3.5c-0.7-0.4-3.5-1.9-3.5-1.9
			c-5-2.3-9-3.2-14.2-3.3c-6.4,0-12.2,1.9-16.3,5.4c-5.1,4.1-7.3,8.4-7.7,15c-0.6,10.3,3.7,17.6,12.9,22.5l3.9,2.1
			c8.7,4.7,10.8,6.5,12.1,9.4c0.7,1.7,1.1,3.5,1,5c0,1.2-0.4,2.6-1.1,3.7c-2,3.7-5.3,5.3-10.6,5.2c-1.7-0.1-3.5-0.5-5.1-1.1
			c-4-1.6-6.2-3.9-8.3-8.7l0,0l0,0c0-0.2-0.1-0.4-0.2-0.6c-0.1-0.2-0.1-0.3-0.1-0.5l-2.6-0.6c0,0.8-0.2,3.3-0.2,3.4
			c0,0-0.4,3.6-0.4,3.6c-0.1,1.1-0.3,2.1-0.6,3.6l-0.2,0.8l-0.8,4c0.5,0.3,2.3,1.1,2.2,1.1c0,0,2.6,0.9,2.6,0.9
			c0.5,0.2,1.2,0.4,2.3,0.6c0,0,1.6,0.4,1.6,0.4c4.6,0.8,8.8,1.1,12.6,0.8c5.9-0.3,11.7-2.7,15.4-6.3c4.9-4.5,7.3-10.1,7.5-17.4
			C337,162.1,333.1,155.9,324,151.1z"/>
		<polygon class="st1" points="319.2,148.6 319.2,148.7 319.2,148.7 		"/>
		<path class="st1" d="M405.1,123.1c-8-3.5-12-4.3-20.6-4.3c-2.2,0-4.4,0.1-6.4,0.3c-9.1,0.9-16.9,4.7-22.4,10.9
			c-5.4,6.1-8.5,14.4-9,24c-0.1,1.5-0.1,3-0.1,3.9c0,1.6,0.1,3.2,0.3,4.6c1.3,12.8,5.5,20.5,14.6,26.7c5.7,3.9,12.5,6.1,19.7,6.4
			c0,0,3,0.1,3,0.1c5.6,0,10.8-0.8,15.6-2.5c0,0,2.4-0.9,2.4-0.9l2.4-1.1l2.5-10.4l-1.6-0.7c-0.1,0.1-0.2,0.2-0.3,0.3
			c-0.2,0.3-0.5,0.5-0.7,0.7c-6.1,5.7-11.8,8-19,7.7c-6.9-0.3-12.3-3.3-16.9-9.3c-3.2-4.5-5-10.3-5.7-18.4c-0.2-1.8-0.3-3.5-0.3-5.3
			c0.1-16.7,8.4-28.5,21.3-30.1l0.1,0c1.1-0.1,2.2-0.2,3.3-0.1c6.7,0.2,10.6,2.4,15.4,8.8l0.2,0.3c0.3,0.4,0.7,0.9,1.1,1.5h1.3
			l2.1-11.9C406.7,123.7,405.9,123.4,405.1,123.1z"/>
		<path class="st1" d="M535.5,120.1c-0.4,0-1.3,0-1.3,0s-4.1,0.2-4.1,0.2c0,0-5.1,0.1-5,0.1c-5.9,0.3-8.6,0.3-10.5,0.3
			c-3.7,0-8.3-0.1-13.7-0.4l-2.1-0.2L497,120c0,1.2,0.3,6.8,0.3,6.8l0.2,6.9c0.1,6.4,0.1,14,0.1,26.4c0,10.5-0.1,15.8-0.2,20.2
			l-0.3,6.9l-0.4,6.6c1.3,0,7.9-0.2,7.9-0.2s7.5-0.2,7.5-0.2c3,0,6.7,0,11.6,0.1l11.3,0.3l-0.1-0.7l0,0v0c0,0-0.2-2.5-0.2-2.5
			c0,0,0-2.2,0-2.2c0,0,0.1-1.5,0.1-1.6l0.3-2.5l-22.4,1.2l-0.2,0v-0.2V159v-0.2l0.2,0c0,0,6.9,0.1,6.9,0.1l7,0.3
			c0,0,4.5,0.2,4.5,0.2l4.1,0.3c-0.1-0.6-0.3-2.2-0.3-2.2l-0.1-0.8c-0.1-0.8-0.1-1.4-0.1-1.9c0-0.5,0-1.3,0.1-2.4l0.3-2.2
			c-1.1,0.1-5,0.5-5,0.5c0,0-5.2,0.4-5.2,0.4l-6,0.2l-6,0.1h-0.2v-0.2v-22.7v-0.2l0.2,0c0,0,6.8,0.1,6.8,0.1c2.9,0,5.2,0.1,7,0.2
			c0,0,4.6,0.4,4.6,0.4l4.4,0.5c-0.1-0.7-0.3-2.2-0.3-2.2c-0.1-1.1-0.1-2-0.1-2.6c0,0,0.2-2.4,0.2-2.4L535.5,120.1z"/>
		<path class="st0" d="M60.9,138.4l0.4-8.8l0.4-8.6c-0.8,0.1-3.5,0.4-3.5,0.4l-0.9,0.1c-1.1,0.1-2,0.1-2.7,0.1
			c-2.3,0-4.8-0.2-7.5-0.5c-0.7,0-1.3-0.1-1.9-0.2c0.1,1.3,0.5,6.7,0.5,6.7c0,0,0.3,6.9,0.3,6.9c0,0,0.1,7.8,0.1,7.8v7.9v0.2h-0.2
			c0,0-8.6,0.2-8.6,0.2c0,0-8.7,0-8.7,0l-5.3-0.2l-5.4-0.2l-0.2,0v-0.2c0,0,0-8.3,0-8.3c0,0,0.2-8.3,0.2-8.3L18,127l0.4-6.3
			c-0.8,0.1-3.2,0.4-3.2,0.4l-3.5,0.2c-1.7,0.1-4.3,0-7.8-0.3l0,0c-0.6-0.1-1.3-0.2-1.9-0.3c0,0.8,0.2,3.1,0.2,3.1s0.4,8.3,0.4,8.3
			c0,0,0.1,6.1,0.1,6.1v7.7v17.2c0,10.7-0.2,15.8-0.4,20.2c0,0-0.3,5.3-0.3,5.3l-0.5,5.1c1,0,4.7-0.2,4.7-0.2c2.2-0.1,3.6-0.1,5-0.1
			c0,0,3.7,0.1,3.7,0.1l3.5,0.3c-0.1-1.3-0.6-6.9-0.6-6.9l-0.4-7.3c0-1.4-0.1-3.1-0.1-5.1l-0.1-5.1c0-3.9,0.1-6.9,0.2-10l0-0.2
			l0-0.2l0.2,0l4.3-0.2c0,0,4.3-0.2,4.3-0.2c1.3-0.1,2.7-0.1,4-0.1c1.9,0,3.8,0,5.7,0.1c3.8,0,6.8,0.1,9.6,0.2l0.2,0l0,0.2
			c0.1,3.2,0.1,6.5,0.1,10.6c0,4.4-0.1,7.8-0.2,10.5c0,0-0.3,7-0.3,7.1l-0.6,6.8c0.5-0.1,1.4-0.2,1.4-0.2c0,0,4.2-0.4,4.2-0.4
			c0,0,1.4,0,1.4,0c1.9-0.1,4.5,0,7.6,0.3c0.7,0,1.3,0.1,2,0.2c-0.1-1.2-0.3-6.2-0.3-6.2l-0.3-6.5c-0.1-6.3-0.2-14-0.1-26.3
			C60.8,145.3,60.8,141.6,60.9,138.4z"/>
		<polygon class="st1" points="47,121.1 47,121.1 47.1,121.1 		"/>
		<polygon class="st1" points="463.8,121.1 463.8,121.1 463.8,121.1 		"/>
		<path class="st0" d="M477.7,138.4l0.4-8.8l0.4-8.6c-0.8,0.1-3.4,0.4-3.5,0.4l-0.9,0.1c-1.1,0.1-2,0.1-2.7,0.1
			c-2.3,0-4.9-0.2-7.5-0.5c-0.7,0-1.3-0.1-1.9-0.2c0.1,1.3,0.5,6.7,0.5,6.7c0,0,0.3,6.9,0.3,6.9c0,0,0.1,7.8,0.1,7.8v7.9v0.2h-0.2
			l-8.6,0.2c0,0-8.7,0-8.7,0l-5.3-0.2l-5.4-0.2l-0.2,0v-0.2c0,0,0-8.3,0-8.3c0,0,0.2-8.3,0.2-8.3l0.3-6.4l0.4-6.3
			c-0.8,0.1-3.2,0.4-3.2,0.4l-3.5,0.2c-1.7,0.1-4.3,0-7.7-0.3l-0.1,0c-0.6-0.1-1.3-0.2-1.9-0.3c0.1,0.8,0.2,3.1,0.2,3.1
			s0.4,8.3,0.4,8.3c0,0,0.1,6.1,0.1,6.1v7.7v17.2c0,10.7-0.2,15.8-0.4,20.2c0,0-0.3,5.3-0.3,5.3l-0.5,5.1c1,0,4.7-0.2,4.7-0.2
			c2.2-0.1,3.6-0.1,5-0.1c0,0,3.7,0.1,3.7,0.1l3.5,0.3c-0.1-1.3-0.5-6.9-0.6-6.9l-0.4-7.3c-0.1-1.4-0.1-3.1-0.1-5.1l-0.1-5.1
			c0-3.9,0.1-6.8,0.2-10l0-0.3V159l0.2,0l4.3-0.2c0,0,4.3-0.2,4.3-0.2c1.3-0.1,2.7-0.1,4-0.1c1.9,0,3.8,0,5.7,0.1
			c3.8,0,6.8,0.1,9.6,0.2l0.2,0l0,0.2c0.1,3.2,0.1,6.5,0.1,10.6c0,4.4-0.1,7.8-0.2,10.5c0,0-0.3,7-0.3,7.1l-0.6,6.8
			c0.5-0.1,1.4-0.2,1.4-0.2c0,0,4.2-0.4,4.2-0.4c0,0,1.4,0,1.4,0c1.9-0.1,4.5,0,7.6,0.3c0.7,0,1.3,0.1,2,0.2
			c-0.1-1.2-0.3-6.2-0.3-6.2l-0.3-6.5c-0.1-6.3-0.2-14-0.1-26.3C477.6,145.3,477.6,141.6,477.7,138.4z"/>
		<path class="st1" d="M89.2,166.1l10.5-29.5l2.1,7.9l2.3,7.7l2.2,7l2.3,6.9H89.2z M130.1,184.7L130.1,184.7L130.1,184.7
			c-0.3-1-0.7-2.2-1.8-5.8l-4.2-12.8c-1.4-4.3-2.4-7.2-3.1-9.5c0,0-2.8-9.9-2.8-9.9l-2.3-7.7c0,0-2.5-8.5-2.5-8.5c0,0-1.4-5-1.4-5
			l-1.2-4.8c-0.7,0.1-3.2,0.3-3.2,0.3c-1.4,0.1-2.4,0.1-3.3,0.1c0,0-3-0.2-3-0.2l-2.9-0.4c-0.3,1.1-2.2,7.2-2.2,7.2l-2.3,7.1
			c-1.2,3.6-2.8,7.7-5,13.5l-2.3,6c0,0-1.6,4-1.6,4l-1.7,4.2c-3.4,8.6-5.8,14.6-8,19.3l-2.9,6.2l-2.8,5.8c0.9,0,2.9-0.1,2.9-0.1
			c1.3,0,2.4,0,3.3,0.1l2,0.1h0l0,0l1.8,0.3c0.3-1,1.8-5.7,1.8-5.7s1.8-5.8,1.9-5.8l1.7-5.1l1.8-5.2l0.1-0.1H87
			c16.8,0,16.8,0,17.6,0c0.4,0,1.1,0,5.6-0.1h0.2l0,0.2l2.2,8.2l1.1,3.9c0.4,1.5,0.8,2.8,1.1,4c0,0,0.7,3,0.7,3l0.6,2.9
			c0.9-0.1,4.7-0.3,4.7-0.3l1.6-0.1c1.3-0.1,2.3-0.1,3.2-0.1c0,0,4.3,0.1,4.3,0.1l3.8,0.3c-0.4-1.1-1.7-4.7-1.7-4.7L130.1,184.7z"/>
		<path class="st1" d="M208.5,185.9l-0.2,0v-0.2c-0.1-5.7-0.2-13.2-0.2-21.3c0-8.6,0.1-15.7,0.2-21.4c0,0,0.4-11.5,0.4-11.5
			l0.5-11.1c-0.9,0.1-4.1,0.4-4.1,0.4c-1.9,0.1-3.2,0.1-4.4,0.1c-0.8,0-1.7-0.1-2.9-0.1c0,0-1.5-0.1-1.5-0.1l-3.9-0.4
			c0,1.3,0.2,7.4,0.2,7.4l0.1,7.5v4.5c0,2.9,0,5.8-0.1,8.6v9.7v3.9v5.4c0,4.9-0.2,11.9-0.5,20.9v0.1l-0.3,5.9
			c3.2-0.2,6.6-0.3,11.3-0.4c1.1-0.1,2.3-0.1,3.4-0.1c1.1,0,2.3-0.1,3.4-0.1c4.1,0,7.6,0.1,13.2,0.4l8,0.5c0,0-0.4-2-0.5-4.9
			c0-2.8,0.5-4.7,0.5-4.7L208.5,185.9z"/>
		<path class="st1" d="M159.7,185.9l-0.2,0l0-0.2c-0.1-5.7-0.2-13.2-0.2-21.3c0-8.6,0.1-15.7,0.2-21.4l0.4-11.5l0.5-11.1
			c-0.9,0.1-4.1,0.4-4.1,0.4c-2,0.1-3.2,0.1-4.4,0.1c-0.8,0-1.7-0.1-2.9-0.1c0,0-1.5-0.1-1.5-0.1l-3.9-0.4c0,1.3,0.2,7.4,0.2,7.4
			c0,0,0.1,7.5,0.1,7.5v4.5c0,2.9,0,5.8-0.1,8.6v9.7v3.9v5.4c0,4.9-0.2,11.9-0.5,20.9v0.1l-0.3,5.9c3.2-0.2,6.6-0.3,11.3-0.4
			c1.1,0,2.3-0.1,3.4-0.1c1.1,0,2.3-0.1,3.4-0.1c4.1,0,7.6,0.1,13.2,0.4l8,0.5c0,0-0.4-2-0.5-4.9c-0.1-2.8,0.5-4.7,0.5-4.7
			L159.7,185.9z"/>
	</g>
</g>
</svg>
