<?xml version="1.0" encoding="UTF-8"?>
<svg xmlns="http://www.w3.org/2000/svg" version="1.1" viewBox="0 0 117 40">
  <defs>
    <style>
      .cls-1, .cls-2 {
        fill: #006eb7;
      }

      .cls-2, .cls-3 {
        fill-rule: evenodd;
      }
    </style>
  </defs>
  <!-- Generator: Adobe Illustrator 28.7.1, SVG Export Plug-In . SVG Version: 1.2.0 Build 142)  -->
  <g>
    <g id="Ebene_1">
      <path class="cls-1" d="M36.7,10.3v6.1c0,2.9,1.4,4.9,4.8,4.9s4.8-2,4.8-4.9v-6.1h-2.2v5.9c0,1.7-.5,3.2-2.6,3.2s-2.6-1.5-2.6-3.2v-5.9h-2.2Z"/>
      <path class="cls-1" d="M50.6,10.3h-2.2v10.6h2.2v-4.9c0-1.9,0-4.2,2.8-4.2s2.5,1.2,2.5,3v6.1h2.2v-6.3c0-2.6-.8-4.6-4-4.6s-2.7.6-3.4,1.7h0v-1.4h0Z"/>
      <polygon class="cls-2" points="62.4 10.3 60.2 10.3 60.2 20.9 62.4 20.9 62.4 10.3 62.4 10.3"/>
      <polygon class="cls-1" points="65.1 8.3 62.6 8.3 70.5 23.3 78.4 8.3 75.9 8.3 70.5 18.8 65.1 8.3 65.1 8.3"/>
      <path class="cls-2" d="M87.6,16v-.3c0-3.1-1.7-5.6-5.3-5.6s-5.5,2.4-5.5,5.7,2.1,5.6,5.5,5.6,4.2-1.1,5.2-2.9l-1.8-1c-.8,1.3-1.7,2.1-3.4,2.1s-3.4-1.7-3.4-3.5h8.6ZM79.1,14.4c.3-1.5,1.5-2.6,3.2-2.6s2.8,1.1,3.1,2.6h-6.3Z"/>
      <path class="cls-1" d="M91.4,10.3h-2.2v10.6h2.2v-5.2c0-1.7.3-3.8,2.6-3.8s.9.1,1.3.4l1-1.9c-.5-.3-1.2-.5-1.8-.5-1.4,0-2.5.8-3.1,2h0v-1.7h0Z"/>
      <path class="cls-1" d="M96.1,17.5h1.9c0,.7.4,1.1.9,1.5.5.4,1.2.6,2.1.6.9,0,1.6-.1,2-.5.4-.3.7-.7.7-1.2,0-.4-.2-.7-.6-1-.3-.2-.9-.4-2-.7-1.4-.4-2.4-.7-3-.9-.5-.3-1-.6-1.2-1-.3-.4-.4-.9-.4-1.5,0-.5.1-.9.4-1.3.2-.4.6-.7,1-1,.3-.2.7-.4,1.2-.5.5-.1,1.1-.2,1.7-.2.9,0,1.7.2,2.4.4.7.3,1.2.6,1.5,1,.3.4.5,1.2.6,1.9h-1.9c0-.6-.3-1-.7-1.4-.4-.3-1-.5-1.7-.5-.9,0-1.5.1-1.9.4-.4.3-.6.6-.6,1,0,.2,0,.5.2.6.2.2.4.4.7.5.2,0,.8.2,1.7.5,1.4.4,2.3.7,2.9.9.5.2,1,.6,1.3,1,.3.4.4,1,.4,1.6,0,.6-.2,1.2-.6,1.7-.4.5-.9.9-1.7,1.2-.7.3-1.5.4-2.4.4-1.5,0-2.6-.3-3.4-.9-.8-.6-1.3-1.6-1.4-2.7h0Z"/>
      <path class="cls-2" d="M108.1,17.4c0-1.5,1.5-2.7,3-2.7s3,.7,3,2.7-1.5,2.7-3,2.7-3-1.2-3-2.7h0ZM114.6,20.2c-.9.7-2,1.1-3.3,1.1-2.7,0-4.8-1.8-4.8-3.9s2.2-3.9,4.8-3.9,2.3.3,3.1.9c0-.3,0-.8,0-.8,0-.7-.2-1.3-.6-1.6-.5-.4-1.2-.6-2.2-.6-.9,0-1.6.2-2,.5-.4.3-.6.5-.8,1.3h-2c.2-.7.5-1.3.9-1.8.4-.5,1-.9,1.7-1.1.8-.3,1.6-.4,2.6-.4,1,0,1.8.2,2.4.4.6.2,1,.5,1.3.8.3.3.5.7.7,1.2,0,.3,0,.9,0,1.7v2.4c0,1.7,0,3.9,0,4.6h-1.8c0-.3,0-.5,0-.8h0Z"/>
      <polygon points="36.4 29.4 36.4 25.1 37 25.1 37 28.9 39.1 28.9 39.1 29.4 36.4 29.4 36.4 29.4"/>
      <path class="cls-3" d="M42.6,28.4h.5c0,.4-.2.6-.5.8-.2.2-.5.3-.9.3s-.8-.1-1.1-.4c-.3-.3-.4-.7-.4-1.2s.1-.9.4-1.2.6-.4,1.1-.4c.4,0,.8.1,1,.4.3.3.4.7.4,1.2s0,0,0,.1h-2.3c0,.3.1.6.3.8.2.2.4.3.7.3s.4,0,.5-.2c.1-.1.2-.3.3-.5h0ZM40.8,27.6h1.7c0-.3,0-.5-.2-.6-.2-.2-.4-.3-.7-.3s-.4,0-.6.2c-.2.2-.3.4-.3.7h0Z"/>
      <path class="cls-3" d="M44.9,29.4h-.5v-4.3h.5v1.5c.2-.3.5-.4.9-.4.2,0,.4,0,.5.1.2,0,.3.2.4.3.1.1.2.3.3.5,0,.2,0,.4,0,.6,0,.5-.1,1-.4,1.2-.3.3-.6.4-1,.4s-.7-.2-.9-.5v.4h0ZM44.9,27.9c0,.4,0,.6.2.8.2.3.4.4.7.4s.4-.1.6-.3c.2-.2.3-.5.3-.9,0-.4,0-.7-.2-.9-.2-.2-.4-.3-.6-.3s-.4.1-.6.3c-.2.2-.3.5-.3.9h0Z"/>
      <path class="cls-3" d="M50.6,28.4h.5c0,.4-.2.6-.5.8-.2.2-.5.3-.9.3s-.8-.1-1.1-.4c-.3-.3-.4-.7-.4-1.2s.1-.9.4-1.2.6-.4,1.1-.4c.4,0,.8.1,1,.4.3.3.4.7.4,1.2s0,0,0,.1h-2.3c0,.3.1.6.3.8.2.2.4.3.7.3s.4,0,.5-.2c.1-.1.2-.3.3-.5h0ZM48.9,27.6h1.7c0-.3,0-.5-.2-.6-.2-.2-.4-.3-.7-.3s-.4,0-.6.2c-.2.2-.3.4-.3.7h0Z"/>
      <path d="M52.5,29.4v-3.1h.5v.4c.2-.3.6-.5,1-.5.2,0,.4,0,.5.1.2,0,.3.2.4.3,0,.1.1.2.2.4,0,0,0,.3,0,.5v1.9h-.5v-1.9c0-.2,0-.4,0-.5,0-.1-.1-.2-.2-.3-.1,0-.2,0-.4,0-.2,0-.4,0-.6.2-.2.1-.2.4-.2.8v1.7h-.5Z"/>
      <path d="M56.3,28.5h.5c0,.1.1.3.2.4.1.1.3.2.6.2s.4,0,.5-.1c.1-.1.2-.2.2-.4s0-.2-.2-.3c0,0-.3-.1-.5-.2-.4,0-.7-.2-.8-.3-.1,0-.3-.2-.3-.3,0-.1-.1-.3-.1-.4s0-.3,0-.4c0-.1.2-.2.3-.3,0,0,.2-.1.3-.2.1,0,.3,0,.5,0,.2,0,.5,0,.6.1.2,0,.3.2.4.3,0,.1.1.3.2.5h-.5c0,0,0-.2-.2-.3-.1,0-.3-.1-.5-.1s-.4,0-.5.1c-.1,0-.2.2-.2.3s0,.1,0,.2c0,0,.1.1.2.1,0,0,.2,0,.5.1.4.1.6.2.8.2.1,0,.3.2.4.3,0,.1.1.3.1.5s0,.3-.2.5c-.1.2-.3.3-.4.4-.2,0-.4.1-.7.1-.4,0-.7,0-.9-.3-.2-.2-.3-.4-.4-.8h0Z"/>
      <path d="M61.1,29.4l-1.2-3.1h.6l.7,1.9c0,.2.1.4.2.6,0-.2.1-.4.2-.6l.7-1.9h.5l-1.2,3.1h-.5Z"/>
      <path class="cls-3" d="M66.1,28.4h.5c0,.4-.2.6-.5.8-.2.2-.5.3-.9.3s-.8-.1-1.1-.4c-.3-.3-.4-.7-.4-1.2s.1-.9.4-1.2.6-.4,1.1-.4c.4,0,.8.1,1,.4.3.3.4.7.4,1.2s0,0,0,.1h-2.3c0,.3.1.6.3.8.2.2.4.3.7.3s.4,0,.5-.2c.1-.1.2-.3.3-.5h0ZM64.4,27.6h1.7c0-.3,0-.5-.2-.6-.2-.2-.4-.3-.7-.3s-.4,0-.6.2c-.2.2-.3.4-.3.7h0Z"/>
      <path d="M68,29.4v-3.1h.5v.5c.1-.2.2-.4.3-.4.1,0,.2-.1.3-.1.2,0,.4,0,.5.2l-.2.5c-.1,0-.3-.1-.4-.1s-.2,0-.3.1c0,0-.2.2-.2.3,0,.2,0,.4,0,.6v1.6h-.5Z"/>
      <path d="M70.5,28.5h.5c0,.1.1.3.2.4.1.1.3.2.6.2s.4,0,.5-.1c.1-.1.2-.2.2-.4s0-.2-.2-.3c0,0-.3-.1-.5-.2-.4,0-.7-.2-.8-.3-.1,0-.3-.2-.3-.3,0-.1-.1-.3-.1-.4s0-.3,0-.4c0-.1.2-.2.3-.3,0,0,.2-.1.3-.2.1,0,.3,0,.5,0,.2,0,.5,0,.6.1.2,0,.3.2.4.3,0,.1.1.3.2.5h-.5c0,0,0-.2-.2-.3-.1,0-.3-.1-.5-.1s-.4,0-.5.1-.2.2-.2.3,0,.1,0,.2c0,0,.1.1.2.1,0,0,.2,0,.5.1.4.1.6.2.8.2.1,0,.3.2.4.3,0,.1.1.3.1.5,0,.2,0,.3-.2.5-.1.2-.3.3-.4.4-.2,0-.4.1-.7.1-.4,0-.7,0-.9-.3-.2-.2-.3-.4-.4-.8h0Z"/>
      <path class="cls-3" d="M74.4,25.7v-.6h.5v.6h-.5ZM74.4,29.4v-3.1h.5v3.1h-.5Z"/>
      <path d="M78.4,28.3h.5c0,.4-.2.7-.4.9-.2.2-.5.3-.9.3s-.8-.1-1-.4c-.3-.3-.4-.7-.4-1.2s0-.6.2-.9c.1-.3.3-.4.5-.6.2-.1.5-.2.7-.2.3,0,.6,0,.8.3.2.2.4.4.4.7h-.5c0-.1-.1-.3-.3-.4-.1-.1-.3-.2-.5-.2-.3,0-.5,0-.7.3-.2.2-.3.5-.3.9s0,.7.2.9c.2.2.4.3.6.3s.4,0,.5-.2c.1-.1.2-.3.3-.6h0Z"/>
      <path d="M80.1,29.4v-4.3h.5v1.6c.2-.3.6-.4.9-.4.2,0,.4,0,.6.1.2,0,.3.2.4.4,0,.2.1.4.1.7v2h-.5v-2c0-.3,0-.5-.2-.6-.1-.1-.3-.2-.5-.2-.2,0-.3,0-.4.1-.1,0-.2.2-.3.3,0,.1,0,.3,0,.6v1.7h-.5Z"/>
      <path class="cls-3" d="M86.3,28.4h.5c0,.4-.2.6-.5.8-.2.2-.5.3-.9.3s-.8-.1-1.1-.4c-.3-.3-.4-.7-.4-1.2s.1-.9.4-1.2.6-.4,1.1-.4c.4,0,.8.1,1,.4.3.3.4.7.4,1.2s0,0,0,.1h-2.3c0,.3.1.6.3.8.2.2.4.3.7.3s.4,0,.5-.2c.1-.1.2-.3.3-.5h0ZM84.5,27.6h1.7c0-.3,0-.5-.2-.6-.2-.2-.4-.3-.7-.3s-.4,0-.6.2c-.2.2-.3.4-.3.7h0Z"/>
      <path d="M88.2,29.4v-3.1h.5v.5c.1-.2.2-.4.3-.4.1,0,.2-.1.3-.1.2,0,.4,0,.5.2l-.2.5c-.1,0-.3-.1-.4-.1s-.2,0-.3.1c0,0-.2.2-.2.3,0,.2,0,.4,0,.6v1.6h-.5Z"/>
      <path d="M92.9,29.4v-.5c-.2.4-.6.5-1,.5s-.4,0-.5-.1c-.2,0-.3-.2-.4-.3,0-.1-.1-.2-.2-.4,0-.1,0-.3,0-.5v-1.9h.5v1.7c0,.3,0,.5,0,.6,0,.1.1.2.2.3.1,0,.2.1.4.1s.3,0,.4-.1c.1,0,.2-.2.3-.3,0-.1,0-.3,0-.6v-1.7h.5v3.1h-.5Z"/>
      <path d="M94.9,29.4v-3.1h.5v.4c.2-.3.6-.5,1-.5.2,0,.4,0,.5.1.2,0,.3.2.4.3,0,.1.1.2.2.4,0,0,0,.3,0,.5v1.9h-.5v-1.9c0-.2,0-.4,0-.5,0-.1-.1-.2-.2-.3-.1,0-.2,0-.4,0-.2,0-.4,0-.6.2-.2.1-.2.4-.2.8v1.7h-.5Z"/>
      <path class="cls-3" d="M98.8,29.7h.5c0,.2,0,.4.2.4.1,0,.3.1.5.1s.4,0,.6-.1c.1,0,.2-.2.3-.4,0-.1,0-.3,0-.7-.2.3-.5.4-.9.4s-.8-.2-1-.5c-.2-.3-.4-.7-.4-1.1s0-.6.2-.8c.1-.3.3-.4.5-.6.2-.1.4-.2.7-.2.4,0,.7.1.9.4v-.4h.5v2.7c0,.5,0,.8-.2,1,0,.2-.3.4-.5.5-.2.1-.5.2-.8.2s-.7,0-.9-.3c-.2-.2-.3-.4-.3-.8h0ZM99.3,27.8c0,.4,0,.7.2.9.2.2.4.3.6.3s.4,0,.6-.3c.2-.2.2-.5.2-.9s0-.7-.3-.9c-.2-.2-.4-.3-.6-.3s-.4,0-.6.3c-.2.2-.2.5-.2.9h0Z"/>
      <path class="cls-3" d="M106.9,29.1c-.2.2-.4.3-.6.4-.2,0-.4.1-.6.1-.3,0-.6,0-.8-.3-.2-.2-.3-.4-.3-.6s0-.3.1-.4c0-.1.2-.2.3-.3.1,0,.2-.1.4-.2.1,0,.3,0,.5,0,.4,0,.7-.1.9-.2,0,0,0-.1,0-.1,0-.2,0-.4-.2-.5-.1-.1-.3-.2-.6-.2-.2,0-.4,0-.6.1-.1,0-.2.2-.3.5h-.5c0-.3.1-.5.2-.6.1-.1.3-.2.5-.3.2,0,.4-.1.7-.1.3,0,.5,0,.7,0s.3.1.4.2c0,0,.1.2.2.4,0,0,0,.3,0,.5v.7c0,.5,0,.8,0,.9,0,.1,0,.3.1.4h-.6c0-.1,0-.2-.1-.4h0ZM106.8,27.9c-.2,0-.5.1-.9.2-.2,0-.4,0-.5.1,0,0-.2,0-.2.2,0,0,0,.2,0,.3,0,.1,0,.3.2.4.1,0,.3.1.5.1s.4,0,.5-.1c.2,0,.3-.2.4-.4,0-.1,0-.3,0-.5v-.2h0Z"/>
      <polygon points="108.3 29.4 108.3 28.8 108.9 28.8 108.9 29.4 108.3 29.4 108.3 29.4"/>
      <path d="M113.3,27.7v-.5h1.8s0,1.6,0,1.6c-.3.2-.6.4-.9.5-.3.1-.6.2-.9.2s-.8,0-1.2-.3c-.3-.2-.6-.4-.8-.8-.2-.3-.3-.7-.3-1.2s0-.8.3-1.2c.2-.4.4-.6.8-.8.3-.2.7-.3,1.1-.3s.6,0,.8.2c.3.1.5.2.6.4.1.2.3.4.3.7h-.5c0,0-.1-.3-.2-.4,0-.1-.2-.2-.4-.3-.2,0-.4-.1-.6-.1s-.5,0-.7.1c-.2,0-.3.2-.5.3-.1.1-.2.3-.3.4-.1.3-.2.6-.2.9s0,.7.2,1c.1.3.3.5.6.6.3.1.5.2.8.2s.5,0,.7-.1c.2,0,.4-.2.5-.3v-.8h-1.3Z"/>
      <polygon points="115.9 29.4 115.9 28.8 116.5 28.8 116.5 29.4 115.9 29.4 115.9 29.4"/>
      <path class="cls-1" d="M16.9,20l-2.2-3.5v2.3c0,1.4.8,2.4,2.2,2.4s2.2-1,2.2-2.4v-2.3l-2.2,3.5M14.5,16.1l-1.1-1.8-2.5-4H1l1.4,2.2h8.2v1.1H3l1.3,2.2h6.3v1.1h-5.5l1.3,2.1h4.3v.2c.3,3.2,3,5.6,6.2,5.6h.1c3.2,0,5.9-2.5,6.2-5.6v-.2h4.3l1.3-2.1h-5.5v-1.1h6.3l1.3-2.2h-7.6v-1.1h8.2l1.4-2.2h-9.9l-2.5,4-1.1,1.8v2.7c0,1.5-.9,2.7-2.4,2.7s-2.4-1.1-2.4-2.7v-2.7ZM14.5,16.1l-1.1-1.8,1.1,1.8ZM10.7,10l-1.1-1.7h3.9l3.4,5.6,3.4-5.6h3.9l-1.1,1.7h10.2l-1.7,2.7h-8.1v.6h7.8l-1.6,2.7h-6.2v.6h5.7l-1.6,2.7h-4.2c-.3,3.3-3.1,5.9-6.4,5.9h-.1c-3.4,0-6.2-2.6-6.4-5.9h-4.2l-1.6-2.7h5.7v-.6h-6.2l-1.6-2.7h7.8v-.6H2.2l-1.7-2.7h10.2ZM20.4,14.3l-1.1,1.8,1.1-1.8ZM10.1,8.5l3.5,5.6,1.2,1.9,2.2,3.5,6.8-11h-3.3l-3.5,5.8-3.5-5.8h-3.3ZM13.6,14.1l1.2,1.9-1.2-1.9ZM19.1,16l1.2-1.9-1.2,1.9h0Z"/>
    </g>
  </g>
</svg>