<?xml version="1.0" encoding="utf-8"?>
<!-- Generator: Adobe Illustrator 28.3.0, SVG Export Plug-In . SVG Version: 6.00 Build 0)  -->
<svg version="1.1"
	 id="svg8" xmlns:svg="http://www.w3.org/2000/svg" xmlns:rdf="http://www.w3.org/1999/02/22-rdf-syntax-ns#" xmlns:cc="http://creativecommons.org/ns#" xmlns:dc="http://purl.org/dc/elements/1.1/" xmlns:inkscape="http://www.inkscape.org/namespaces/inkscape" xmlns:sodipodi="http://sodipodi.sourceforge.net/DTD/sodipodi-0.dtd"
	 xmlns="http://www.w3.org/2000/svg" xmlns:xlink="http://www.w3.org/1999/xlink" x="0px" y="0px" viewBox="0 0 128 64"
	 style="enable-background:new 0 0 128 64;" xml:space="preserve">
<style type="text/css">
	.st0{fill:#00008F;}
	.st1{fill:#FF1721;}
	.st2{fill:#FFFFFF;}
</style>
<sodipodi:namedview  bordercolor="#666666" borderopacity="1.0" fit-margin-bottom="0" fit-margin-left="0" fit-margin-right="0" fit-margin-top="0" id="base" inkscape:current-layer="layer1" inkscape:cx="131.46973" inkscape:cy="-389.58457" inkscape:document-units="mm" inkscape:pageopacity="0" inkscape:pageshadow="2" inkscape:window-height="1001" inkscape:window-maximized="1" inkscape:window-width="1920" inkscape:window-x="-9" inkscape:window-y="-9" inkscape:zoom="0.7" pagecolor="#00ffff" showgrid="false">
	</sodipodi:namedview>
<g>
	
		<rect id="base-2_00000080898320165770540420000000879358416198627001_" x="31.9" y="-0.1" class="st0" width="64.1" height="64.1"/>
	<polygon id="switch_00000114772104888510780850000003624709240441035941_" class="st1" points="68,31.7 71.7,31.7 96.1,0 92.5,0 	
		"/>
	<path id="axa_00000017495539784999910160000012560803274885945226_" inkscape:connector-curvature="0" class="st2" d="M80.9,45.8
		c1.1,3.1,3.4,11.3,4.3,11.9h-6c0-0.7-0.1-1.4-0.3-2.1c-0.3-0.9-2.4-8-2.4-8h-9.6l-1.5,2.1c0,0,1.8,5.7,1.9,6c0.2,0.5,1.1,2,1.1,2
		h-5.8c0,0-0.2-0.9-0.2-1.2c0-0.3-0.5-1.9-0.5-1.9s-1.3,1.4-1.7,2.1c-0.4,0.7-0.5,1-0.5,1h-4.5c0,0-0.2-0.9-0.2-1.2
		c0-0.3-0.6-2-0.6-2S53,56,52.6,56.7c-0.4,0.7-0.5,1-0.5,1h-4.5c0,0,1.3-1.2,1.7-1.7c0.7-0.9,3.5-4.5,3.5-4.5l-1.1-3.9h-9.5
		c0,0-5.4,7.1-5.7,7.4c-0.2,0.2-1.8,2.5-1.8,2.7h-2.8V56c0,0,0.1-0.1,0.1-0.1c0.1-0.1,4.1-5.1,7.8-10c3.3-4.3,6.5-8.5,6.7-8.9
		c0.7-1,1.6-3,1.6-3h4.9c0,0,0.2,1.9,0.3,2.4c0.1,0.4,3.1,10.3,3.2,10.4l1.7-2.1l-2.8-8.7c0,0-0.7-1.6-0.9-1.9h5.8
		c0,0.5,0,1.1,0.2,1.6c0.2,0.7,1.5,5.2,1.5,5.2s3.9-4.9,4.2-5.3c0.3-0.4,0.4-0.9,0.5-1.5h4.8c0,0-0.9,0.6-2.4,2.6
		c-0.5,0.7-5.6,7.1-5.6,7.1s0.4,1.5,0.7,2.3c0.1,0.2,0.1,0.4,0.1,0.4c0,0,0.1-0.1,0.3-0.4c1.3-1.7,7.3-9.5,7.6-10.1
		c0.3-0.5,0.7-1.2,1-1.8h4.7c0,0,0.1,1.4,0.3,1.8L80.9,45.8z M73.8,38.5c-0.7,1.5-4.7,6.4-4.7,6.4h6.4c0,0-1.2-3.8-1.5-4.7
		C73.9,39.6,73.9,39.1,73.8,38.5C73.9,38.4,73.9,38.3,73.8,38.5z M49.2,38.5c-0.7,1.5-4.7,6.4-4.7,6.4h6.4c0,0-1.2-3.8-1.5-4.7
		C49.3,39.6,49.3,39.1,49.2,38.5C49.3,38.4,49.3,38.3,49.2,38.5z M58.8,53.4l1.8-2.4c-0.2-0.2-1.2-3.2-1.2-3.2L57.7,50L58.8,53.4z"
		/>
</g>
</svg>
