<?xml version="1.0" encoding="utf-8"?>
<!-- Generator: Adobe Illustrator 27.7.0, SVG Export Plug-In . SVG Version: 6.00 Build 0)  -->
<svg version="1.1" id="Logo" xmlns="http://www.w3.org/2000/svg" xmlns:xlink="http://www.w3.org/1999/xlink" x="0px" y="0px"
	 viewBox="0 0 872 872" style="enable-background:new 0 0 872 872;" xml:space="preserve">
<style type="text/css">
	.st0{fill:#FFF100;}
</style>
<path id="Yellow" class="st0" d="M872,436c0,240.8-195.2,436-436,436S0,676.8,0,436S195.2,0,436,0S872,195.2,872,436z"/>
<g id="Black">
	<path d="M436,0C195.2,0,0,195.2,0,436s195.2,436,436,436s436-195.2,436-436S676.8,0,436,0z M436,844C210.7,844,28,661.3,28,436
		S210.7,28,436,28s408,182.7,408,408S661.3,844,436,844z"/>
	<path d="M760,392v-12.8c0-39.2-30.3-71.2-68-71.2s-68,31.9-68,69.6v109.7c0,37.8,30.3,68.7,68,68.7s68-30.9,68-68.7V432h-64v40h24
		v15.3c0,15.7-12.3,28.7-28,28.7s-28-12.6-28-28.7V377.6c0-15.7,12-29.6,28-29.6s28,14.2,28,31.2V392H760z"/>
	<path d="M524,308c-37.5,0-68,31.8-68,69.5V552h40v-80h56v80h40V377.5C592,339.8,561.5,308,524,308z M552,432h-56v-54.8
		c0-16,12.4-29.2,28-29.2c15.6,0.3,28,13.5,28,29.2V432z"/>
	<path d="M428,392c0-47.1-40.6-80-78-80h-62v240h40v-80h21.9c2.7,0,7.5,0,9.9-0.5L388,552l44,0l-35-96C416,441.7,428,418.9,428,392z
		 M350,432h-22v-80h22c20.8,0,38,18.6,38,40C388,413.4,371.1,432,350,432z"/>
	<path d="M188,308c-37.5,0-68,31.8-68,69.5V552h40v-80h56v80h40V377.5C256,339.8,225.5,308,188,308z M216,432h-56v-54.8
		c0-16,12.4-29.2,28-29.2c15.6,0.3,28,13.5,28,29.2V432z"/>
</g>
</svg>
