<?xml version="1.0" encoding="utf-8"?>
<!-- Generator: Adobe Illustrator 28.3.0, SVG Export Plug-In . SVG Version: 6.00 Build 0)  -->
<svg version="1.1" id="Ebene_1" xmlns="http://www.w3.org/2000/svg" xmlns:xlink="http://www.w3.org/1999/xlink" x="0px" y="0px"
	 viewBox="0 0 128 64" style="enable-background:new 0 0 128 64;" xml:space="preserve">
<style type="text/css">
	.st0{fill:#0E2C4F;}
</style>
<path class="st0" d="M12.5,30.1H6.7c0,0,0,0,0,0v0.5l0.5,1.2v3.6c0,0,0,0,0,0h4.7c0,0,0,0,0,0v-3.6l0.5-1.2L12.5,30.1
	C12.6,30.1,12.5,30.1,12.5,30.1L12.5,30.1z M11,26.9H8.2l-2.1,2.1c0,0,0,0.1,0,0.1h6.7c0,0,0.1,0,0.1-0.1L11,26.9z M8.2,25.9h2.9
	c0,0,0.1-0.1,0-0.1l-1.5-2c0,0,0,0-0.1,0L8.2,25.9C8,25.9,8.1,25.9,8.2,25.9L8.2,25.9z M17.9,33.4h-4.7c0,0-0.1,0,0,0.1l0.2,0.4v2.3
	c0,0,0,0,0,0l1.7,1.3c0,0,0,0,0.1,0h2.4c0,0,0,0,0,0c0,0,0,0,0,0v-3.8L17.9,33.4C17.9,33.4,17.9,33.4,17.9,33.4L17.9,33.4z
	 M21.7,31.7c0.4-5.4-3.7-10-9.1-10.4C7.3,21,2.6,25,2.3,30.4c0,0.4,0,0.9,0,1.3c0,1.7,0.5,3.4,1.3,4.9l8.4,0c0,0,0,0,0.1,0l2.6,2.1
	c0,0,0,0,0.1,0h3.9C20.7,37,21.8,34.4,21.7,31.7z M22.9,31.7c0,6-4.8,10.9-10.8,10.9c-6,0-10.9-4.9-10.9-10.9S6,20.8,12,20.8
	C18,20.9,22.8,25.7,22.9,31.7L22.9,31.7z M17.5,31.2c0,0-0.1,0-0.1,0l-0.4,1c0,0-0.1,0-0.1,0l-1.3-3c0,0-0.1,0-0.1,0l-1.2,3
	c0,0-0.1,0-0.1,0l-0.4-1c0,0-0.1,0-0.1,0l-0.3,1c0,0,0,0.1,0,0.1h4.7c0,0,0.1,0,0-0.1S17.5,31.2,17.5,31.2L17.5,31.2z M62.8,36.7
	v-5.4l5.7,5.8c0.1,0.1,0.2,0.1,0.3,0.1h0.1c0.2,0,0.3-0.1,0.3-0.3v-9.8c0-0.2-0.1-0.3-0.3-0.3h-1.7c-0.2,0-0.3,0.1-0.3,0.3v5.2
	l-5.7-5.5c-0.1-0.1-0.2-0.1-0.3-0.1h-0.2c-0.1,0-0.3,0.1-0.2,0.3v9.7c0,0.2,0.1,0.3,0.3,0.3h1.7C62.6,37,62.7,36.8,62.8,36.7
	L62.8,36.7z M55.9,30c0-0.6-0.5-1.1-1.1-1.1c0,0,0,0,0,0h-2.2v2.3h2.2C55.5,31.2,55.9,30.6,55.9,30C55.9,30,55.9,30,55.9,30z
	 M55.6,36.9l-2-3.9h-1v3.7c0,0.2-0.1,0.3-0.3,0.3h-1.7c-0.2,0-0.3-0.1-0.3-0.3v-9.7h0.1c0-0.2,0.1-0.3,0.3-0.3H55
	c1.7,0,3.2,1.3,3.2,3.1c0,0,0,0.1,0,0.1c0,1.3-0.9,2.5-2.2,2.9l2,3.7c0.1,0.2,0,0.4-0.2,0.4h-2C55.7,37,55.6,37,55.6,36.9z
	 M115.9,26.8h-6c-0.2,0-0.3,0.1-0.3,0.3c0,0,0,0,0,0v9.8c0,0.2,0.1,0.3,0.3,0.3h6c0.2,0,0.3-0.1,0.3-0.3v-1.6c0-0.2-0.1-0.3-0.3-0.3
	h-4V33h3.3c0.2,0,0.3-0.1,0.3-0.3v-1.6c0-0.2-0.1-0.3-0.3-0.3h-3.3V29h4c0.2,0,0.3-0.1,0.3-0.3v-1.6C116.1,26.9,116,26.8,115.9,26.8
	z M76.2,33.9c0-0.5-0.4-1-0.9-1c-0.1,0-0.1,0-0.2,0h-1.2V35H75v-0.1C75.8,34.9,76.2,34.6,76.2,33.9L76.2,33.9z M73.8,31H75
	c0.5,0,0.9-0.4,1-0.9c0,0,0-0.1,0-0.1c0-0.5-0.3-1-0.9-1c0,0-0.1,0-0.1,0h-1.2V31z M78.6,34.3c0,1.8-1.5,2.9-3.2,2.9h-3.6
	c-0.2,0-0.3-0.1-0.3-0.3v-9.7c0-0.2,0.1-0.3,0.3-0.3h3.4c1.7,0,3.1,1.2,3.1,2.7c0,1-0.6,2-1.6,2.3C77.8,32.1,78.6,33.1,78.6,34.3z
	 M107,31.1h-2.9c-0.2,0-0.3,0.1-0.3,0.3v1.2c0,0.2,0.1,0.3,0.3,0.3h1v1.6c-0.3,0.1-0.7,0.2-1.1,0.2c-1.6,0.1-3-1.1-3.1-2.7
	c0,0,0-0.1,0-0.1c-0.1-1.6,1.2-2.9,2.7-3c0,0,0.1,0,0.1,0c0.7,0,1.4,0.3,1.9,0.7c0.1,0.1,0.2,0.1,0.4,0l1.1-1.3
	c0.1-0.1,0.1-0.2,0.1-0.3c0,0,0-0.1-0.1-0.1c-1-0.9-2.3-1.4-3.6-1.4c-2.9,0-5.3,2.3-5.3,5.2c0,2.9,2.3,5.2,5.2,5.3c0,0,0,0,0.1,0
	c1.3,0,2.5-0.3,3.6-1c0.1,0,0.1-0.1,0.1-0.2v-4.6C107.3,31.2,107.2,31.1,107,31.1L107,31.1z M48,33.2v-6.1c0-0.2-0.2-0.3-0.4-0.3
	h-1.7c-0.2,0-0.3,0.1-0.3,0.3v6c0,1.1-0.6,1.8-1.9,1.8s-1.9-0.7-1.9-1.8v-6c0-0.2-0.1-0.3-0.3-0.3h-1.8c-0.2,0-0.3,0.1-0.3,0.3v6.1
	c0,2.2,1.7,4,4.3,4C46.3,37.3,48,35.5,48,33.2z M28.6,37h1.7c0.2,0,0.3-0.1,0.3-0.3v-5.4l5.7,5.8c0.1,0.1,0.2,0.1,0.3,0.1h0.1
	c0.2,0,0.3-0.1,0.3-0.3v-9.8c0-0.2-0.1-0.3-0.3-0.3H35c-0.2,0-0.3,0.1-0.3,0.3v5.2L29,26.8c-0.1-0.1-0.2-0.1-0.3-0.1h-0.2
	c-0.1,0-0.3,0.1-0.2,0.3v9.7C28.3,36.9,28.4,37,28.6,37L28.6,37z M80.9,37.2h6c0.2,0,0.3-0.1,0.3-0.3v-1.6c0-0.2-0.1-0.3-0.3-0.3h-4
	v-2h3.3c0.2,0,0.3-0.1,0.3-0.3v-1.6c0-0.2-0.1-0.3-0.3-0.3h-3.3V29h4c0.2,0,0.3-0.1,0.3-0.3v-1.6c0-0.2-0.1-0.3-0.3-0.3h-6
	c-0.1,0-0.3,0.1-0.3,0.3v9.8C80.6,37,80.8,37.2,80.9,37.2z M42.9,27.8h1.5c0.2,0,0.3-0.1,0.3-0.3c0,0,0,0,0,0v-1.3
	c0-0.2-0.1-0.3-0.3-0.3h-1.5c-0.2,0-0.3,0.1-0.3,0.3v1.3C42.6,27.7,42.7,27.8,42.9,27.8z M91.6,31.2h2.2c0.6,0,1.1-0.6,1.1-1.2
	c0-0.6-0.5-1.1-1.1-1.1c0,0,0,0,0,0h-2.2L91.6,31.2z M92.6,33h-1v3.7c0,0.2-0.1,0.3-0.3,0.3h-1.7c-0.2,0-0.3-0.1-0.3-0.3v-9.7h0.1
	c0-0.2,0.1-0.3,0.3-0.3H94c1.7,0,3.2,1.3,3.2,3.1c0,0,0,0,0,0.1c0,1.3-0.9,2.5-2.2,2.9l1.9,3.7c0.1,0.2,0,0.4-0.2,0.4h-2
	c-0.1,0-0.2-0.1-0.2-0.1L92.6,33L92.6,33z M123.8,30c0-0.6-0.5-1.1-1.1-1.1c0,0,0,0,0,0h-2.2v2.3h2.2
	C123.3,31.2,123.8,30.6,123.8,30C123.8,30,123.8,30,123.8,30z M125.9,36.6c0.1,0.2,0,0.4-0.2,0.4h-2c-0.1,0-0.2-0.1-0.2-0.1l-2-3.9
	h-1v3.7c0,0.2-0.1,0.3-0.3,0.3h-1.7c-0.2,0-0.3-0.1-0.3-0.3v-9.7h0.1c0-0.2,0.1-0.3,0.3-0.3h4.4c1.7,0,3.2,1.3,3.2,3.1
	c0,0,0,0,0,0.1c0,1.4-0.9,2.5-2.2,2.9L125.9,36.6L125.9,36.6z"/>
</svg>
