<?xml version="1.0" encoding="utf-8"?>
<!-- Generator: Adobe Illustrator 16.0.0, SVG Export Plug-In . SVG Version: 6.00 Build 0)  -->
<!DOCTYPE svg PUBLIC "-//W3C//DTD SVG 1.1//EN" "http://www.w3.org/Graphics/SVG/1.1/DTD/svg11.dtd">
<svg version="1.1" id="Ebene_1" xmlns="http://www.w3.org/2000/svg" xmlns:xlink="http://www.w3.org/1999/xlink" x="0px" y="0px"
	 width="165px" height="115px" viewBox="0 0 165 115" enable-background="new 0 0 165 115" xml:space="preserve">
<rect fill="#FFFFFF" width="165" height="88.801"/>
<rect y="94.352" fill="#FFFFFF" width="165" height="16.648"/>
<path fill-rule="evenodd" clip-rule="evenodd" fill="#0C57A5" d="M135.92,107.51h1.67v-1.65h-1.67V107.51z M133.699,100.301h-1.51
	v1.67h-0.91v1.02h0.91v3.27c0,1.1,0.811,1.32,1.74,1.32c0.301,0,0.631-0.01,0.881-0.049v-1.201c-0.16,0.041-0.311,0.051-0.471,0.051
	c-0.51,0-0.641-0.131-0.641-0.65v-2.74h1.111v-1.02h-1.111V100.301z M130.279,99.852h-1.51v1.258h1.51V99.852z M128.77,107.51h1.51
	v-5.539h-1.51V107.51z M123.549,104.15c0.02-0.43,0.301-1.18,1.262-1.18c0.729,0,1.059,0.4,1.199,1.18H123.549z M127.52,105.109
	c0.1-1.699-0.801-3.289-2.67-3.289c-1.67,0-2.811,1.26-2.811,2.93c0,1.711,1.07,2.91,2.811,2.91c1.24,0,2.15-0.551,2.57-1.859h-1.33
	c-0.09,0.34-0.58,0.721-1.191,0.721c-0.838,0-1.309-0.441-1.35-1.412H127.52z M115.68,107.51h1.51v-2.9
	c0-1.129,0.35-1.588,1.17-1.588c0.701,0,0.971,0.449,0.971,1.359v3.129h1.51v-3.408c0-1.371-0.4-2.281-2.01-2.281
	c-0.561,0-1.221,0.301-1.611,0.92h-0.029v-2.889h-1.51V107.51z M111.23,107.51h1.51v-2.5c0-0.969,0.379-1.779,1.49-1.779
	c0.18,0,0.398,0.02,0.539,0.061v-1.42c-0.1-0.031-0.23-0.051-0.33-0.051c-0.74,0-1.48,0.48-1.76,1.18h-0.02v-1.029h-1.43V107.51z
	 M106.049,104.15c0.02-0.43,0.301-1.18,1.25-1.18c0.74,0,1.07,0.4,1.211,1.18H106.049z M110.02,105.109
	c0.1-1.699-0.801-3.289-2.67-3.289c-1.67,0-2.811,1.26-2.811,2.93c0,1.711,1.07,2.91,2.811,2.91c1.24,0,2.141-0.551,2.57-1.859
	h-1.33c-0.1,0.34-0.58,0.721-1.191,0.721c-0.838,0-1.309-0.441-1.35-1.412H110.02z M98.18,107.51h1.51v-2.9
	c0-1.129,0.35-1.588,1.17-1.588c0.701,0,0.971,0.449,0.971,1.359v3.129h1.51v-3.408c0-1.371-0.41-2.281-2.01-2.281
	c-0.561,0-1.221,0.301-1.611,0.92h-0.029v-2.889h-1.51V107.51z M96.98,103.92c-0.102-1.42-1.291-2.1-2.582-2.1
	c-1.789,0-2.809,1.27-2.809,3c0,1.66,1.119,2.84,2.77,2.84c1.451,0,2.459-0.801,2.65-2.27h-1.449c-0.102,0.68-0.5,1.131-1.211,1.131
	c-0.939,0-1.25-0.961-1.25-1.75c0-0.82,0.32-1.801,1.289-1.801c0.621,0,1.021,0.33,1.111,0.949H96.98z M90.25,99.852h-1.51v1.258
	h1.51V99.852z M88.74,107.51h1.51v-5.539h-1.51V107.51z M81.161,104.971c-0.021,1.889,1.549,2.73,3.228,2.73
	c2.061,0,3.16-1.051,3.16-2.461c0-1.74-1.699-2.09-2.26-2.23c-1.9-0.5-2.26-0.57-2.26-1.158c0-0.641,0.619-0.871,1.15-0.871
	c0.801,0,1.439,0.24,1.5,1.16h1.609c0-1.77-1.449-2.471-3.039-2.471c-1.371,0-2.839,0.75-2.839,2.32c0,1.441,1.139,1.881,2.269,2.18
	c1.109,0.301,2.25,0.439,2.25,1.262c0,0.789-0.891,0.959-1.48,0.959c-0.889,0-1.679-0.4-1.679-1.42H81.161z M71.92,107.51h1.51
	v-1.908l0.58-0.561l1.51,2.469h1.83l-2.31-3.5l2.08-2.039h-1.79l-1.9,1.99v-4.109h-1.51V107.51z M70.58,103.92
	c-0.1-1.42-1.29-2.1-2.58-2.1c-1.79,0-2.81,1.27-2.81,3c0,1.66,1.12,2.84,2.77,2.84c1.45,0,2.46-0.801,2.65-2.27h-1.46
	c-0.09,0.68-0.5,1.131-1.2,1.131c-0.94,0-1.25-0.961-1.25-1.75c0-0.82,0.32-1.801,1.28-1.801c0.63,0,1.03,0.33,1.12,0.949H70.58z
	 M63.89,101.971h-1.51v2.9c0,1.129-0.35,1.59-1.17,1.59c-0.7,0-0.97-0.451-0.97-1.359v-3.131h-1.51v3.41
	c0,1.369,0.41,2.279,2.01,2.279c0.64,0,1.3-0.301,1.68-0.92h0.04v0.77h1.43V101.971z M59.5,101.109h1.44v-1.258H59.5V101.109z
	 M61.69,101.109h1.44v-1.258h-1.44V101.109z M56.59,100.301h-1.51v1.67h-0.92v1.02h0.92v3.27c0,1.1,0.81,1.32,1.73,1.32
	c0.3,0,0.63-0.01,0.88-0.049v-1.201c-0.16,0.041-0.31,0.051-0.47,0.051c-0.51,0-0.63-0.131-0.63-0.65v-2.74h1.1v-1.02h-1.1V100.301z
	 M47.13,104.971c-0.02,1.889,1.56,2.73,3.24,2.73c2.06,0,3.15-1.051,3.15-2.461c0-1.74-1.7-2.09-2.25-2.23
	c-1.9-0.5-2.26-0.57-2.26-1.158c0-0.641,0.61-0.871,1.14-0.871c0.8,0,1.45,0.24,1.5,1.16h1.62c0-1.77-1.46-2.471-3.04-2.471
	c-1.37,0-2.84,0.75-2.84,2.32c0,1.441,1.14,1.881,2.26,2.18c1.12,0.301,2.26,0.439,2.26,1.262c0,0.789-0.89,0.959-1.48,0.959
	c-0.89,0-1.68-0.4-1.68-1.42H47.13z M37.55,107.51h1.51v-2.9c0-1.129,0.36-1.588,1.17-1.588c0.71,0,0.97,0.449,0.97,1.359v3.129
	h1.51v-3.408c0-1.371-0.4-2.281-2.01-2.281c-0.64,0-1.3,0.301-1.68,0.92h-0.03v-0.77h-1.44V107.51z M36.04,99.852h-1.5v1.258h1.5
	V99.852z M34.54,107.51h1.5v-5.539h-1.5V107.51z M27.44,107.51h5.77v-1.408h-4.1v-1.881h3.68v-1.311h-3.68v-1.639h4.01v-1.42h-5.68
	V107.51z M29.57,38.23l2.97-8.43h-1.16l-2.41,7.31h-0.02l-2.39-7.31h-1.2l2.94,8.43H29.57z M33.66,29.8v8.43h5.8v-0.94h-4.69v-2.92
	h4.34v-0.94h-4.34v-2.68h4.66V29.8H33.66z M44.58,33.68h-2.31v-2.93h2.76c1.04,0,1.48,0.61,1.48,1.44
	C46.51,33.41,45.62,33.68,44.58,33.68z M41.16,29.8v8.43h1.11v-3.6h2.71c1.08,0,1.27,0.7,1.39,1.52c0.13,0.86,0.15,1.68,0.25,2.08
	h1.1c-0.11-0.73-0.19-1.52-0.29-2.33c-0.11-0.82-0.28-1.54-1.26-1.73v-0.02c1.01-0.29,1.46-1.13,1.46-2.14
	c0-1.35-0.98-2.21-2.54-2.21H41.16z M113.369,35.19V29.8h-1.109v5.39c0,1.49-0.77,2.3-2.17,2.3c-1.48,0-2.32-0.81-2.32-2.3V29.8
	h-1.109v5.39c0,2.24,1.27,3.25,3.43,3.25C112.17,38.44,113.369,37.32,113.369,35.19z M115.49,29.8v8.43h1.049v-6.76h0.029
	l4.361,6.76h1.219V29.8h-1.059v6.84h-0.021l-4.398-6.84H115.49z M130.43,37.18l0.18,1.05h0.811v-4.44h-3.66v0.95h2.67
	c0.07,1.53-0.961,2.75-2.68,2.75c-1.861,0-2.871-1.61-2.871-3.37c0-1.8,0.852-3.58,2.871-3.58c1.24,0,2.26,0.58,2.48,1.86h1.109
	c-0.311-1.97-1.771-2.8-3.59-2.8c-2.641,0-3.98,2.13-3.98,4.58c0,2.2,1.49,4.25,3.98,4.25C128.73,38.43,129.789,38.06,130.43,37.18z
	 M138.24,32.27h1.049c-0.07-1.86-1.369-2.67-3.07-2.67c-1.52,0-3.029,0.76-3.029,2.47c0,1.54,1.34,1.93,2.68,2.23
	c1.33,0.29,2.66,0.49,2.66,1.65c0,1.22-1.109,1.54-2.109,1.54c-1.27,0-2.439-0.62-2.439-2.03h-1.051c0,2.05,1.58,2.97,3.449,2.97
	c1.521,0,3.26-0.72,3.26-2.51c0-1.66-1.328-2.13-2.658-2.44c-1.352-0.3-2.682-0.46-2.682-1.49c0-1.1,0.932-1.45,1.871-1.45
	C137.318,30.54,138.109,31.06,138.24,32.27z M55.74,38.48c0.93,0,2.19-0.17,2.99-0.98c0.48-0.48,0.72-1.13,0.72-1.91
	c0-1.6-1.32-2.18-2.47-2.51c-0.26-0.07-0.52-0.13-0.76-0.19c-0.87-0.21-1.61-0.39-1.61-0.85c0-0.15,0.05-0.28,0.15-0.38
	c0.24-0.24,0.66-0.26,0.83-0.26c0.28,0,0.79,0.04,1.08,0.35c0.14,0.15,0.21,0.35,0.19,0.59v0.07h2.33l-0.01-0.07
	c0-0.9-0.38-1.63-1.08-2.13c-0.6-0.42-1.43-0.66-2.33-0.66c-1.73,0-3.48,0.82-3.48,2.64c0,1.57,1.26,2.14,2.5,2.5l0.64,0.17
	c0.91,0.23,1.7,0.43,1.7,0.99c0,0.58-0.65,0.78-1.26,0.78c-1,0-1.46-0.38-1.51-1.24v-0.07h-2.32v0.08
	C52.06,37.33,53.44,38.48,55.74,38.48z M63.47,38.3v-8.57h-2.32v8.57H63.47z M69.61,38.48c2.35,0,3.95-1.38,4.07-3.52l0.01-0.07
	h-2.43l-0.01,0.06c-0.08,0.97-0.69,1.5-1.69,1.5c-0.54,0-0.98-0.18-1.31-0.51c-0.43-0.43-0.66-1.11-0.66-1.92
	c0-0.82,0.23-1.5,0.66-1.93c0.33-0.33,0.77-0.5,1.31-0.5c0.96,0,1.58,0.45,1.69,1.23l0.01,0.06h2.42v-0.07
	c-0.06-2.04-2.12-3.26-4.07-3.26c-2.58,0-4.45,1.88-4.45,4.47c0,1.25,0.45,2.39,1.26,3.2C67.23,38.05,68.33,38.48,69.61,38.48z
	 M77.85,38.3v-3.47h3.33v3.47h2.38v-8.57h-2.38v3.07h-3.33v-3.07h-2.38v8.57H77.85z M92.73,38.3v-2.03h-4.602v-1.46h4.102v-1.85
	h-4.102v-1.33h4.48v-1.9h-6.799v8.57H92.73z M97.01,33.39v-1.76h1.66c0.35,0,0.641,0.1,0.82,0.28c0.139,0.14,0.209,0.33,0.209,0.56
	c0,0.6-0.32,0.92-0.93,0.92H97.01z M97.01,38.3v-3.07h1.58c0.959,0,1.1,0.82,1.15,1.66l0.129,1.41h2.23l-0.17-1.98
	c-0.1-1.1-0.49-1.8-1.119-2.03c0.75-0.37,1.209-1.16,1.209-2.12c0-0.65-0.209-1.2-0.621-1.61c-0.529-0.54-1.369-0.83-2.379-0.83
	h-4.33v8.57H97.01z M99.699,44.39c0,0.6-0.32,0.92-0.93,0.92h-1.76v-1.75h1.66c0.35,0,0.641,0.09,0.82,0.27
	C99.629,43.97,99.699,44.16,99.699,44.39z M101.93,48.25c-0.1-1.11-0.49-1.81-1.119-2.04c0.75-0.36,1.209-1.16,1.209-2.11
	c0-0.66-0.209-1.2-0.621-1.62c-0.529-0.54-1.369-0.83-2.379-0.83h-4.33v8.57h2.32v-3.06h1.58c0.959,0,1.1,0.81,1.15,1.65l0.129,1.41
	h2.23L101.93,48.25z M64.18,46.95H62.6l0.76-2.72L64.18,46.95z M62.28,41.66l-2.81,8.57h2.21l0.45-1.51h2.61l0.49,1.51h2.37
	l-3.18-8.57H62.28z M56.86,50.24l2.61-0.01c-3.06-5.17-3.05-5.17-3.05-5.17l3.15-3.4H56.7l-2.43,3.1v-3.1h-2.1v8.58h2.1v-2.65
	l0.72-0.84L56.86,50.24z M73.52,50.24h2.08v-8.58h-2.06l-1.67,3.31l-1.71-3.31h-2.03v8.58h2.07v-4.6l1.66,2.64h0.02l1.64-2.58V50.24
	z M82.69,41.66l-1.68,3.31l-1.7-3.31h-2.03v8.58h2.061v-4.6L81,48.28h0.029l1.641-2.58v4.54h2.07v-8.58H82.69z M88.719,48.2v-1.46
	h4.1V44.9h-4.1v-1.33h4.48v-1.91h-6.801v8.58h6.92V48.2H88.719z M57.2,59.381c0,0.58-0.36,0.869-1.1,0.869h-1.67v-1.789h1.67
	c0.4,0,0.69,0.09,0.88,0.279C57.12,58.881,57.2,59.102,57.2,59.381z M56.04,56.9h-1.61v-1.48h1.61c0.19,0,0.46,0.041,0.64,0.221
	c0.12,0.119,0.18,0.3,0.18,0.529C56.86,56.74,56.35,56.9,56.04,56.9z M58.18,57.451c0.63-0.381,1-0.99,1-1.681
	c0-0.61-0.18-1.101-0.54-1.45c-0.52-0.51-1.37-0.76-2.55-0.74h-3.98v8.57h4.09c1.21,0,2.1-0.279,2.66-0.83
	c0.44-0.449,0.66-1.07,0.66-1.859C59.52,58.531,59,57.75,58.18,57.451z M64.87,58.871h-1.58l0.75-2.721L64.87,58.871z M65.11,53.58
	h-2.14l-2.82,8.57h2.21l0.45-1.51h2.62l0.48,1.51h2.38L65.11,53.58z M73.07,53.58l-1.62,3.33l-1.61-3.33H67.2l3.09,5.381v3.189h2.32
	v-3.189l3.1-5.381H73.07z M78.81,60.121V58.66h4.101v-1.85H78.81v-1.33h4.489v-1.9h-6.808v8.57h6.919v-2.029H78.81z M99.91,53.58
	h-0.07v0.07v4.961l-2.791-4.991l-0.02-0.04H96.99h-2.24h-0.07v0.07v8.43v0.07h0.07h2.049h0.07v-0.07v-5.01l2.791,5.051l0.02,0.029
	h0.051h2.229h0.07v-0.07v-8.43v-0.07h-0.07H99.91z M90.318,56.32c0,0.6-0.328,0.92-0.939,0.92h-1.75v-1.76h1.66
	c0.35,0,0.641,0.1,0.82,0.279C90.25,55.9,90.318,56.089,90.318,56.32z M92.539,60.17c-0.09-1.1-0.479-1.799-1.119-2.029
	c0.75-0.372,1.219-1.161,1.219-2.122c0-0.648-0.209-1.199-0.619-1.609c-0.529-0.54-1.381-0.83-2.381-0.83h-4.328v8.57h2.318v-3.07
	h1.58c0.961,0,1.09,0.82,1.15,1.66l0.131,1.41h2.229L92.539,60.17z"/>
<rect x="49" y="16.19" fill-rule="evenodd" clip-rule="evenodd" fill="#0C57A5" width="1" height="55.5"/>
<rect x="104" y="16.19" fill-rule="evenodd" clip-rule="evenodd" fill="#0C57A5" width="1" height="55.5"/>
</svg>
