<?xml version="1.0" encoding="UTF-8" standalone="no"?>
<!-- Created with Inkscape (http://www.inkscape.org/) by Marsupilami -->
<svg
   xmlns:svg="http://www.w3.org/2000/svg"
   xmlns="http://www.w3.org/2000/svg"
   version="1.0"
   width="1024"
   height="162"
   viewBox="0 0 345.3457 54.502644"
   id="svg2558">
  <defs
     id="defs2560" />
  <g
     transform="translate(-202.32714,-505.11086)"
     id="layer1">
    <path
       d="M 521.48339,505.1135 C 521.2949,505.09713 521.08417,505.15397 520.88964,505.3635 C 520.37592,505.92352 516.18464,512.49225 515.10839,513.1135 C 513.99964,512.55348 509.52839,505.926 508.98339,505.39475 C 508.4359,504.86473 507.82714,505.45725 507.82714,505.45725 C 504.0084,509.7235 501.32714,514.33225 501.32714,514.33225 C 500.80087,514.91975 501.63964,515.801 501.63964,515.801 C 502.46339,516.53849 503.98339,515.83225 503.98339,515.83225 C 504.87961,515.57227 508.35839,513.08225 508.35839,513.08225 C 508.35838,513.08226 509.50214,514.11725 511.92089,516.95725 L 497.76464,534.14475 L 503.10839,534.14475 L 514.82714,519.95725 L 515.38964,519.95725 C 515.38966,519.95724 525.78214,529.34225 536.07714,538.70725 L 536.63964,555.2385 C 536.63966,555.23853 532.35214,555.046 529.45214,555.20725 L 525.26464,554.95725 C 525.26461,554.95726 523.57589,554.61475 523.38964,556.14475 C 523.38965,556.14473 523.29839,556.76225 523.60839,557.4885 C 523.6084,557.48849 523.95839,559.3985 525.54589,559.2385 C 525.54592,559.23851 533.04964,558.31975 543.73339,559.58225 L 543.73339,556.39475 C 543.73339,556.39475 543.55214,555.45725 541.92089,555.45725 L 540.82714,555.51975 C 540.82716,555.51977 539.15339,551.051 540.26464,541.4885 L 544.76464,544.89475 C 544.76466,544.89474 545.76089,545.836 546.95214,544.64475 C 546.95214,544.64477 548.61464,543.2535 546.88964,541.89475 C 546.88962,541.89473 541.11589,538.41225 518.13964,516.95725 L 521.92089,513.01975 C 521.92089,513.01973 525.54089,515.30975 526.45214,515.51975 C 526.45217,515.51977 528.01464,516.146 528.79589,515.3635 C 528.79589,515.36349 529.60214,514.45225 529.04589,513.89475 C 529.0459,513.89473 526.09339,509.41225 522.04589,505.3635 C 522.04591,505.36351 521.79754,505.14079 521.48339,505.1135 z M 304.29589,528.6135 C 294.43339,528.6135 289.9834,535.32472 289.98339,544.1135 C 289.98339,552.901 294.43339,559.61349 304.29589,559.6135 C 314.15589,559.6135 318.60839,552.90097 318.60839,544.1135 C 318.60839,535.32475 314.15589,528.61351 304.29589,528.6135 z M 213.10839,529.20725 L 202.32714,559.01975 L 208.42089,559.01975 L 210.67089,552.70725 L 222.45214,552.70725 L 224.60839,559.01975 L 231.04589,559.01975 L 220.67089,529.20725 L 213.10839,529.20725 z M 304.29589,533.20725 C 310.60839,533.20725 311.79589,538.99722 311.79589,544.1135 C 311.79589,549.22975 310.60839,555.01973 304.29589,555.01975 C 297.98214,555.01975 296.7959,549.22972 296.79589,544.1135 C 296.79589,538.99725 297.98214,533.20724 304.29589,533.20725 z M 216.67089,535.01975 L 216.76464,535.01975 L 220.85839,547.7385 L 212.29589,547.7385 L 216.67089,535.01975 z M 472.48339,535.926 C 468.00964,535.926 461.88964,538.72475 461.88964,547.70725 C 461.88964,556.69225 468.00963,559.48851 472.48339,559.4885 C 475.46089,559.4885 476.60712,559.36473 477.70214,559.26975 C 479.45464,559.11225 481.10464,558.80101 482.76464,558.26975 L 482.76464,546.95725 L 473.51464,546.95725 L 473.51464,550.70725 L 477.92089,550.70725 L 477.92089,555.45725 C 476.63589,555.70725 475.36087,555.95727 473.42089,555.95725 C 469.13089,555.95725 467.04588,552.80975 467.04589,547.70725 C 467.04589,542.606 469.13087,539.45726 473.42089,539.45725 C 476.08089,539.45725 477.95214,540.42226 477.95214,543.301 L 483.10839,543.301 C 483.07589,537.9185 479.02963,535.92602 472.48339,535.926 z M 232.60839,536.39475 L 232.60839,559.01975 L 247.23339,559.01975 L 247.23339,555.2385 L 237.45214,555.2385 L 237.45214,536.39475 L 232.60839,536.39475 z M 241.98339,536.39475 L 241.98339,540.176 L 248.70214,540.176 L 248.70214,559.01975 L 253.57714,559.01975 L 253.57714,540.176 L 260.29589,540.176 L 260.29589,536.39475 L 241.98339,536.39475 z M 261.51464,536.39475 L 261.51464,559.01975 L 277.01464,559.01975 L 277.01464,555.2385 L 266.35839,555.2385 L 266.35839,549.20725 L 276.01464,549.20725 L 276.01464,545.45725 L 266.35839,545.45725 L 266.35839,540.176 L 276.67089,540.176 L 276.67089,536.39475 L 261.51464,536.39475 z M 320.95214,536.39475 L 320.95214,559.01975 L 335.60839,559.01975 L 335.60839,555.2385 L 325.79589,555.2385 L 325.79589,536.39475 L 320.95214,536.39475 z M 338.17089,536.39475 L 338.17089,559.01975 L 345.88964,559.01975 C 352.92964,559.0835 357.2959,555.566 357.29589,547.70725 C 357.29589,539.851 352.92965,536.33227 345.88964,536.39475 L 338.17089,536.39475 z M 359.29589,536.39475 L 359.29589,559.01975 L 374.79589,559.01975 L 374.79589,555.2385 L 364.13964,555.2385 L 364.13964,549.20725 L 373.79589,549.20725 L 373.79589,545.45725 L 364.13964,545.45725 L 364.13964,540.176 L 374.45214,540.176 L 374.45214,536.39475 L 359.29589,536.39475 z M 377.10839,536.39475 L 377.10839,559.01975 L 381.63964,559.01975 L 381.63964,540.301 L 381.70214,540.2385 L 390.60839,559.01975 L 397.51464,559.01975 L 397.51464,536.39475 L 392.95214,536.39475 L 392.95214,554.1135 L 392.88964,554.176 L 384.29589,536.39475 L 377.10839,536.39475 z M 400.35839,536.39475 L 400.35839,559.01975 L 408.92089,559.01975 C 412.39339,559.271 418.01464,557.61974 418.01464,553.14475 C 418.01464,549.82725 415.89339,547.8635 413.04589,547.26975 L 413.04589,547.20725 C 415.29839,546.456 417.01463,544.74348 417.01464,542.26975 C 417.01464,537.85725 412.89712,536.14352 408.85839,536.39475 L 400.35839,536.39475 z M 420.35839,536.39475 L 420.35839,550.551 C 420.35839,556.56225 424.66216,559.48851 430.13964,559.4885 C 435.61714,559.4885 439.95211,556.56225 439.95214,550.551 L 439.95214,536.39475 L 435.10839,536.39475 L 435.10839,548.676 C 435.10839,552.4935 434.89716,555.95727 430.13964,555.95725 C 425.38214,555.95725 425.20213,552.4935 425.20214,548.676 L 425.20214,536.39475 L 420.35839,536.39475 z M 442.79589,536.39475 L 442.79589,559.01975 L 447.63964,559.01975 L 447.63964,549.89475 L 452.76464,549.89475 C 454.36089,549.9585 454.66966,551.67352 454.79589,552.926 C 455.01589,554.961 455.22963,557.01726 455.63964,559.01975 L 461.01464,559.01975 C 460.10714,557.7685 459.89088,555.08474 459.67089,553.64475 C 459.26339,550.51475 459.27088,548.23975 455.54589,547.83225 L 455.54589,547.76975 C 458.33339,547.17475 460.26462,545.24348 460.26464,542.301 C 460.26464,537.701 456.27214,536.42602 452.38964,536.39475 L 442.79589,536.39475 z M 485.51464,536.39475 L 485.51464,559.01975 L 500.98339,559.01975 L 500.98339,555.2385 L 490.35839,555.2385 L 490.35839,549.20725 L 499.98339,549.20725 L 499.98339,545.45725 L 490.35839,545.45725 L 490.35839,540.176 L 500.63964,540.176 L 500.63964,536.39475 L 485.51464,536.39475 z M 503.26464,536.39475 L 503.26464,559.01975 L 508.10839,559.01975 L 508.10839,549.89475 L 513.26464,549.89475 C 514.86214,549.9585 515.17087,551.67352 515.29589,552.926 C 515.51589,554.961 515.73465,557.01726 516.13964,559.01975 L 521.48339,559.01975 C 520.57464,557.7685 520.39089,555.08474 520.17089,553.64475 C 519.76339,550.51475 519.7684,548.23975 516.04589,547.83225 L 516.04589,547.76975 C 518.82964,547.17475 520.73336,545.24348 520.73339,542.301 C 520.73339,537.701 516.76965,536.42602 512.88964,536.39475 L 503.26464,536.39475 z M 343.04589,540.176 L 345.54589,540.176 C 351.30589,540.1135 352.13964,544.1085 352.13964,547.70725 C 352.13964,551.30725 351.3059,555.29977 345.54589,555.2385 L 343.04589,555.2385 L 343.04589,540.176 z M 405.23339,540.176 L 409.01464,540.176 C 411.04964,540.176 412.17089,541.01726 412.17089,542.83225 C 412.17089,544.64725 411.04965,545.4885 409.01464,545.4885 L 405.23339,545.4885 L 405.23339,540.176 z M 447.63964,540.176 L 451.70214,540.176 C 453.82589,540.2085 455.07716,541.04851 455.07714,543.051 C 455.07714,545.0535 453.82589,546.11222 451.70214,546.14475 L 447.63964,546.14475 L 447.63964,540.176 z M 508.10839,540.176 L 512.17089,540.176 C 514.29964,540.2085 515.57715,541.04851 515.57714,543.051 C 515.57714,545.0535 514.29966,546.11222 512.17089,546.14475 L 508.10839,546.14475 L 508.10839,540.176 z M 405.23339,549.2385 L 409.01464,549.2385 C 411.30089,549.2385 412.85839,549.63977 412.85839,552.2385 C 412.85839,554.836 411.3009,555.23852 409.01464,555.2385 L 405.23339,555.2385 L 405.23339,549.2385 z"
       id="path2480"
       style="fill:#155195;fill-opacity:1;fill-rule:nonzero;stroke:none" />
  </g>
</svg>
