<svg width="148" height="26" viewBox="0 0 148 26" fill="none" xmlns="http://www.w3.org/2000/svg">
<g clip-path="url(#clip0)">
<path d="M104.256 7.18322C106.012 5.55827 106.281 3.27711 106.281 3.27711C106.281 3.27711 104.715 4.97288 102.154 4.97288C100.131 4.97288 98.5856 4.9583 98.0252 4.95205C97.9502 4.94996 97.8731 4.94996 97.7981 4.94996C92.0316 4.94996 87.3568 9.61854 87.3568 15.3788C87.3568 21.139 92.0316 25.8075 97.7981 25.8075C103.565 25.8075 108.239 21.139 108.239 15.3788C108.239 12.0539 106.683 9.09148 104.256 7.18322ZM97.7981 21.6764C94.317 21.6764 91.4942 18.8578 91.4942 15.3788C91.4942 11.9018 94.317 9.08106 97.7981 9.08106C97.9898 9.08106 98.1793 9.0894 98.3668 9.10606C98.4064 9.11023 98.446 9.1144 98.4856 9.11856C98.5106 9.12065 98.5397 9.12481 98.5772 9.1269C101.692 9.51021 104.102 12.1622 104.102 15.3767C104.102 18.8557 101.281 21.6764 97.7981 21.6764Z" fill="#0077FF"/>
<path d="M105.569 8.41424C103.579 9.35379 101.727 9.63503 100.515 9.69544C99.9147 9.40795 99.2647 9.21213 98.5793 9.1288C99.1355 9.17046 101.098 9.13505 103.183 7.96425C103.592 7.7351 103.948 7.46844 104.256 7.18303C104.727 7.55385 105.167 7.96634 105.569 8.41424Z" fill="#0055BB"/>
<path d="M122.949 5.22481L117.733 19.6326H117.691L112.391 5.22481H107.464L115.495 25.4282H119.924L127.916 5.22481H122.949ZM77.3801 5.22481C74.7718 5.22481 72.874 5.71229 71.3219 6.90183V5.21856H66.6554V25.422H71.2928V15.5744C71.2928 11.5996 73.0719 9.40591 76.2176 9.40591C78.9925 9.40591 80.8966 10.7725 80.8966 15.037V25.422H85.5339V13.837C85.5339 8.15804 81.8111 5.22481 77.3801 5.22481ZM54.433 4.83108C48.6623 4.83108 43.9834 9.51007 43.9834 15.2807C43.9834 21.0513 48.6623 25.7303 54.433 25.7303C60.2036 25.7303 64.8826 21.0513 64.8826 15.2807C64.8805 9.50799 60.2036 4.83108 54.433 4.83108ZM54.433 21.3909C51.0581 21.3909 48.3207 18.6556 48.3207 15.2786C48.3207 11.9037 51.056 9.16633 54.433 9.16633C57.8099 9.16633 60.5453 11.9017 60.5453 15.2786C60.5432 18.6535 57.8079 21.3909 54.433 21.3909ZM23.5987 5.23314H21.1154V9.16633H23.5987V19.0618C23.5987 23.5741 25.7507 25.7678 29.2297 25.7678C31.8796 25.7678 32.49 25.1595 32.49 25.1595L31.5859 21.243C31.5859 21.243 30.9692 21.4221 30.1818 21.4221C28.8568 21.4221 28.236 20.6763 28.236 18.6077V9.16633H35.0337V19.0618C35.0337 23.5741 37.1857 25.7678 40.6647 25.7678C43.3146 25.7678 43.925 25.1595 43.925 25.1595L43.0209 21.243C43.0209 21.243 42.4042 21.4221 41.6168 21.4221C40.2918 21.4221 39.671 20.6763 39.671 18.6077V9.16633H43.6625V5.23314H39.671V0L35.0337 1.4937V5.23314H28.236V0L23.5987 1.4937V5.23314ZM10.6658 25.7282C16.4364 25.7282 21.1154 21.0492 21.1154 15.2786C21.1154 9.50799 16.4364 4.82899 10.6658 4.82899C4.89518 4.83108 0.216187 9.50799 0.216187 15.2786C0.216187 21.0492 4.89518 25.7282 10.6658 25.7282ZM10.6658 9.16842C14.0407 9.16842 16.7781 11.9037 16.7781 15.2807C16.7781 18.6556 14.0428 21.393 10.6658 21.393C7.29093 21.393 4.55353 18.6577 4.55353 15.2807C4.55353 11.9037 7.28885 9.16842 10.6658 9.16842ZM137.334 4.92899C131.564 4.92899 126.885 9.60799 126.885 15.3786C126.885 21.1492 131.564 25.8282 137.334 25.8282C143.105 25.8282 147.784 21.1492 147.784 15.3786C147.784 9.60799 143.105 4.92899 137.334 4.92899ZM137.334 21.4909C133.959 21.4909 131.222 18.7556 131.222 15.3786C131.222 12.0037 133.957 9.26633 137.334 9.26633C140.711 9.26633 143.446 12.0016 143.446 15.3786C143.446 18.7535 140.709 21.4909 137.334 21.4909ZM147.784 5.22273H143.446V25.4303H147.784V5.22273Z" fill="#00104B"/>
</g>
<defs>
<clipPath id="clip0">
<rect width="147.568" height="26" fill="white" transform="translate(0.216187)"/>
</clipPath>
</defs>
</svg>
