<?xml version="1.0" standalone="no"?>
<!DOCTYPE svg PUBLIC "-//W3C//DTD SVG 20010904//EN"
 "http://www.w3.org/TR/2001/REC-SVG-20010904/DTD/svg10.dtd">
<svg version="1.0" xmlns="http://www.w3.org/2000/svg"
 width="1000.000000pt" height="140.000000pt" viewBox="0 0 1000.000000 140.000000"
 preserveAspectRatio="xMidYMid meet">

<g transform="translate(0.000000,140.000000) scale(0.100000,-0.100000)"
fill="#000000" stroke="none">
<path d="M5 1388 c-3 -7 -4 -321 -3 -698 l3 -685 137 -3 138 -3 2 288 3 288
418 3 417 2 0 130 0 130 -417 2 -418 3 0 145 0 145 558 3 557 2 0 130 0 130
-695 0 c-547 0 -697 -3 -700 -12z"/>
<path d="M1780 700 l0 -701 138 3 137 3 3 278 2 277 213 0 212 -1 207 -279
207 -280 135 0 c74 0 137 4 141 9 3 5 -76 129 -176 276 -100 147 -177 270
-173 275 5 4 31 13 58 20 61 17 156 79 194 128 77 98 113 223 94 331 -31 172
-150 302 -317 346 -49 12 -143 15 -567 15 l-508 0 0 -700z m1056 410 c75 -69
81 -172 14 -244 l-39 -41 -375 -3 -376 -3 0 154 c0 85 3 157 7 161 4 4 172 5
374 4 l367 -3 28 -25z"/>
<path d="M3727 1394 c-4 -4 -7 -319 -7 -701 l0 -694 138 3 137 3 0 695 0 695
-131 3 c-71 1 -133 -1 -137 -4z"/>
<path d="M5377 1394 c-4 -4 -7 -319 -7 -701 l0 -693 380 0 c441 0 480 5 630
77 80 38 109 59 181 132 73 73 93 101 132 181 60 126 72 181 71 320 -1 94 -6
129 -27 193 -62 190 -201 346 -380 427 -137 62 -147 63 -577 67 -217 3 -399 1
-403 -3z m836 -283 c112 -44 205 -139 249 -256 30 -79 32 -213 3 -300 -26 -79
-96 -169 -173 -222 -99 -67 -130 -73 -404 -73 l-238 0 0 433 c0 239 3 437 7
441 4 4 118 6 253 4 227 -3 249 -5 303 -27z"/>
<path d="M7596 1313 c-24 -48 -182 -358 -350 -687 -169 -330 -304 -606 -302
-613 4 -11 33 -13 137 -11 l131 3 78 145 77 145 409 0 409 0 78 -147 79 -148
134 0 c121 0 134 2 134 18 0 9 -157 323 -348 697 l-348 680 -137 3 -137 3 -44
-88z m324 -461 c71 -145 130 -270 130 -278 0 -12 -42 -14 -269 -14 -165 0
-272 4 -276 10 -9 15 256 551 271 548 7 -2 72 -121 144 -266z"/>
<path d="M8556 1391 c-3 -5 125 -184 284 -399 l290 -390 2 -298 3 -299 138 -3
137 -3 0 297 0 296 287 387 c157 212 288 394 291 403 4 17 -7 18 -145 18
l-149 0 -204 -290 c-113 -159 -210 -289 -217 -287 -6 1 -103 130 -215 287
l-204 285 -146 3 c-81 1 -149 -2 -152 -7z"/>
<path d="M4642 1104 c-98 -50 -105 -180 -13 -241 89 -60 211 8 211 117 0 97
-112 168 -198 124z"/>
<path d="M4644 546 c-122 -53 -100 -237 31 -262 49 -9 80 1 123 41 35 31 37
37 37 93 0 50 -4 65 -25 87 -47 51 -108 66 -166 41z"/>
</g>
</svg>
