<?xml version="1.0" encoding="UTF-8" standalone="no"?>
<!-- Created with Inkscape (http://www.inkscape.org/) -->

<svg xmlns:svg="http://www.w3.org/2000/svg" xmlns="http://www.w3.org/2000/svg" version="1.1"
	width="550px"  height="160px" viewBox="0 0 550 160" id="svg2">
	<defs id="defs4"></defs>
	<rect x="0" y="0" width="8550" height="160" style="fill:#ffffff; stroke:none;" />
	<g transform="translate(-186.02,-78.82)" id="g3376">
		<g  style="fill:#66b335;fill-opacity:1;fill-rule:nonzero;stroke:none;">
			<path  d="M 593.98,132.73 593.98,143.99 585.17,132.73 558.73,132.73 558.73,210.19 585.17,210.19 585.17,176.08 593.98,187.32 620.41,187.32 620.41,132.73 593.98,132.73 z M 611.59,178.52 598.37,178.52 576.37,150.37 576.37,201.37 567.56,201.37 567.56,141.56 580.8,141.56 602.76,169.8 602.76,141.56 611.59,141.56 611.59,178.52 z M 611.59,178.52" />
			<path d="M 683.86,108 655.66,143.99 655.66,132.73 629.22,132.73 629.22,187.32 655.66,187.32 717.58,108 683.86,108 z M 651.3,178.52 638.05,178.52 638.05,141.56 646.86,141.56 646.86,169.8 688.36,116.5 699.62,116.5 651.3,178.52 z M 651.3,178.52" />
			<path d="M 186.02,238.82 519.02,238.82 519.02,79.371 186.02,79.371 186.02,238.82 z" />
		</g>
		<rect x="534" y="80.30" width="200" height="157" style="fill:none; stroke:#66b335; stroke-width:3;" />
		<g  style="fill:#ffffff;fill-opacity:1;fill-rule:nonzero;stroke:none;">
			<path d="M 221.14,201.32 218.44,210.21 212.52,210.21 222.58,178.83 229.89,178.83 240.09,210.21 233.9,210.21 231.05,201.32 221.14,201.32 z M 230.12,196.99 227.66,189.26 C 227.05,187.35 226.54,185.21 226.07,183.39 L 225.98,183.39 C 225.51,185.21 225,187.4 224.49,189.26 L 222.07,196.99 230.12,196.99 z" />
			<path d="M 244.05,177.15 249.77,177.15 249.77,210.21 244.05,210.21 244.05,177.15 z" />
			<path d="M 256.01,177.15 261.74,177.15 261.74,210.21 256.01,210.21 256.01,177.15 z" />
			<path d="M 272.03,200.48 C 272.17,204.57 275.34,206.35 279.02,206.35 281.66,206.35 283.53,205.93 285.3,205.32 L 286.14,209.23 C 284.18,210.07 281.48,210.67 278.22,210.67 270.86,210.67 266.53,206.16 266.53,199.22 266.53,192.94 270.35,187.02 277.62,187.02 284.97,187.02 287.39,193.08 287.39,198.05 287.39,199.13 287.3,199.96 287.21,200.48 L 272.03,200.48 z M 281.99,196.48 C 282.04,194.38 281.11,190.93 277.29,190.93 273.75,190.93 272.26,194.14 272.03,196.48 L 281.99,196.48 z" />
			<path d="M 291.77,204.9 C 293.03,205.7 295.5,206.58 297.54,206.58 300.06,206.58 301.18,205.51 301.18,204.02 301.18,202.48 300.24,201.74 297.45,200.71 293.03,199.22 291.21,196.8 291.21,194.1 291.21,190.1 294.52,187.02 299.78,187.02 302.3,187.02 304.48,187.63 305.83,188.37 L 304.67,192.38 C 303.73,191.82 301.87,191.07 299.87,191.07 297.82,191.07 296.7,192.1 296.7,193.5 296.7,194.94 297.78,195.59 300.66,196.66 304.8,198.11 306.67,200.2 306.71,203.55 306.71,207.7 303.5,210.67 297.5,210.67 294.75,210.67 292.29,210.02 290.61,209.09 L 291.77,204.9 z" />
			<path d="M 321.06,177.15 326.79,177.15 326.79,190.66 326.88,190.66 C 328.28,188.47 330.74,187.03 334.14,187.03 339.68,187.03 343.64,191.64 343.59,198.52 343.59,206.67 338.42,210.72 333.3,210.72 330.37,210.72 327.77,209.61 326.13,206.81 L 326.04,206.81 325.76,210.21 320.87,210.21 C 320.97,208.67 321.06,206.16 321.06,203.83 L 321.06,177.15 z M 326.79,200.85 C 326.79,201.32 326.83,201.78 326.92,202.2 327.53,204.53 329.53,206.21 332,206.21 335.59,206.21 337.77,203.36 337.77,198.75 337.77,194.75 335.86,191.49 332.05,191.49 329.72,191.49 327.58,193.17 326.97,195.68 326.88,196.1 326.79,196.62 326.79,197.17 L 326.79,200.85 z" />
			<path d="M 352.35,200.48 C 352.48,204.57 355.66,206.35 359.33,206.35 361.99,206.35 363.85,205.93 365.62,205.32 L 366.45,209.23 C 364.5,210.07 361.8,210.67 358.54,210.67 351.18,210.67 346.86,206.16 346.86,199.22 346.86,192.94 350.67,187.02 357.93,187.02 365.29,187.02 367.71,193.08 367.71,198.05 367.71,199.13 367.62,199.96 367.52,200.48 L 352.35,200.48 z M 362.31,196.48 C 362.36,194.38 361.43,190.93 357.61,190.93 354.07,190.93 352.58,194.14 352.35,196.48 L 362.31,196.48 z" />
			<path d="M 372.09,204.9 C 373.35,205.7 375.82,206.58 377.87,206.58 380.37,206.58 381.49,205.51 381.49,204.02 381.49,202.48 380.57,201.74 377.77,200.71 373.35,199.22 371.53,196.8 371.53,194.1 371.53,190.1 374.84,187.02 380.1,187.02 382.61,187.02 384.8,187.63 386.15,188.37 L 384.98,192.38 C 384.06,191.82 382.19,191.07 380.19,191.07 378.14,191.07 377.03,192.1 377.03,193.5 377.03,194.94 378.09,195.59 380.98,196.66 385.12,198.11 386.99,200.2 387.04,203.55 387.04,207.7 383.82,210.67 377.82,210.67 375.07,210.67 372.6,210.02 370.93,209.09 L 372.09,204.9 z" />
			<path d="M 398.3,181.72 398.3,187.54 403.75,187.54 403.75,191.82 398.3,191.82 398.3,201.83 C 398.3,204.62 399.05,206.02 401.24,206.02 402.26,206.02 402.82,205.97 403.47,205.79 L 403.56,210.12 C 402.73,210.45 401.19,210.72 399.42,210.72 397.28,210.72 395.55,210.02 394.49,208.86 393.23,207.56 392.67,205.46 392.67,202.48 L 392.67,191.82 389.46,191.82 389.46,187.54 392.67,187.54 392.67,183.3 398.3,181.72 z" />
			<path d="M 411.86,200.48 C 411.99,204.57 415.16,206.35 418.84,206.35 421.49,206.35 423.36,205.93 425.12,205.32 L 425.96,209.23 C 424,210.07 421.3,210.67 418.05,210.67 410.69,210.67 406.36,206.16 406.36,199.22 406.36,192.94 410.18,187.02 417.44,187.02 424.8,187.02 427.22,193.08 427.22,198.05 427.22,199.13 427.12,199.96 427.03,200.48 L 411.86,200.48 z M 421.82,196.48 C 421.87,194.38 420.93,190.93 417.11,190.93 413.58,190.93 412.09,194.14 411.86,196.48 L 421.82,196.48 z" />
			<path d="M 431.83,194.29 C 431.83,191.68 431.74,189.49 431.64,187.54 L 436.62,187.54 436.91,190.93 437.05,190.93 C 438.07,189.16 440.54,187.03 444.3,187.03 448.27,187.03 452.36,189.59 452.36,196.75 L 452.36,210.21 446.64,210.21 446.64,197.41 C 446.64,194.14 445.43,191.68 442.3,191.68 440.02,191.68 438.44,193.31 437.84,195.04 437.65,195.5 437.56,196.2 437.56,196.84 L 437.56,210.21 431.83,210.21 431.83,194.29 z" />
			<path d="M 458.23,204.9 C 459.49,205.7 461.96,206.58 464,206.58 466.52,206.58 467.64,205.51 467.64,204.02 467.64,202.48 466.7,201.74 463.91,200.71 459.49,199.22 457.67,196.8 457.67,194.1 457.67,190.1 460.98,187.02 466.24,187.02 468.75,187.02 470.94,187.63 472.29,188.37 L 471.13,192.38 C 470.2,191.82 468.34,191.07 466.33,191.07 464.28,191.07 463.16,192.1 463.16,193.5 463.16,194.94 464.24,195.59 467.12,196.66 471.27,198.11 473.13,200.2 473.18,203.55 473.18,207.7 469.96,210.67 463.96,210.67 461.21,210.67 458.75,210.02 457.07,209.09 L 458.23,204.9 z" />
			<path d="M 476.71,207.05 C 476.71,204.9 478.21,203.36 480.25,203.36 482.35,203.36 483.79,204.86 483.79,207.05 483.79,209.14 482.4,210.72 480.21,210.72 478.16,210.72 476.71,209.14 476.71,207.05" />
			<path d="M 213.17,148.49 213.17,132.79 216.46,132.79 220.51,139.52 C 221.53,141.27 222.46,143.09 223.19,144.79 L 223.23,144.79 C 223.03,142.69 222.98,140.66 222.98,138.27 L 222.98,132.79 225.63,132.79 225.63,148.49 222.65,148.49 218.55,141.57 C 217.55,139.85 216.53,137.94 215.76,136.17 L 215.67,136.19 C 215.78,138.22 215.83,140.29 215.83,142.87 L 215.83,148.49 213.17,148.49 z" />
			<path d="M 232.52,148.49 227.45,132.79 230.57,132.79 232.71,139.94 C 233.32,141.92 233.85,143.74 234.25,145.65 L 234.29,145.65 C 234.71,143.79 235.29,141.87 235.9,139.96 L 238.18,132.79 241.23,132.79 235.8,148.49 232.52,148.49 z" />
			<path d="M 247.47,143.27 241.53,143.27 241.53,141.29 247.47,141.29 247.47,143.27 z" />
			<path d="M 252.99,148.49 247.91,132.79 251.03,132.79 253.17,139.94 C 253.78,141.92 254.32,143.74 254.71,145.65 L 254.76,145.65 C 255.18,143.79 255.76,141.87 256.36,139.96 L 258.65,132.79 261.7,132.79 256.27,148.49 252.99,148.49 z" />
			<path d="M 264.44,143.62 C 264.51,145.67 266.09,146.56 267.93,146.56 269.26,146.56 270.2,146.35 271.08,146.05 L 271.5,148 C 270.52,148.42 269.17,148.73 267.54,148.73 263.86,148.73 261.69,146.46 261.69,142.99 261.69,139.85 263.6,136.89 267.23,136.89 270.91,136.89 272.12,139.92 272.12,142.41 272.12,142.95 272.08,143.36 272.03,143.62 L 264.44,143.62 z M 269.42,141.62 C 269.45,140.57 268.98,138.85 267.07,138.85 265.3,138.85 264.55,140.45 264.44,141.62 L 269.42,141.62 z" />
			<path d="M 274.43,140.8 C 274.43,139.27 274.41,138.15 274.34,137.15 L 276.8,137.15 276.92,139.29 276.99,139.29 C 277.55,137.71 278.87,136.89 280.11,136.89 280.39,136.89 280.55,136.91 280.79,136.96 L 280.79,139.64 C 280.53,139.59 280.27,139.57 279.92,139.57 278.57,139.57 277.62,140.43 277.36,141.74 277.31,141.99 277.29,142.3 277.29,142.6 L 277.29,148.49 274.43,148.49 274.43,140.8 z" />
			<path d="M 282.6,145.84 C 283.23,146.23 284.46,146.68 285.49,146.68 286.74,146.68 287.3,146.14 287.3,145.39 287.3,144.62 286.84,144.25 285.44,143.74 283.23,142.99 282.32,141.78 282.32,140.43 282.32,138.43 283.98,136.89 286.61,136.89 287.86,136.89 288.95,137.19 289.63,137.57 L 289.05,139.57 C 288.59,139.29 287.65,138.91 286.65,138.91 285.62,138.91 285.07,139.43 285.07,140.13 285.07,140.85 285.6,141.18 287.05,141.71 289.12,142.44 290.05,143.48 290.07,145.16 290.07,147.23 288.47,148.73 285.46,148.73 284.09,148.73 282.86,148.39 282.02,147.93 L 282.6,145.84 z" />
			<path d="M 295.47,133.98 C 295.47,134.82 294.84,135.52 293.84,135.52 292.89,135.52 292.26,134.82 292.26,133.98 292.26,133.09 292.91,132.42 293.87,132.42 294.84,132.42 295.45,133.09 295.47,133.98 M 292.42,137.15 295.29,137.15 295.29,148.49 292.42,148.49 292.42,137.15 z" />
			<path d="M 306.72,148.14 C 306.12,148.42 304.93,148.72 303.51,148.72 299.96,148.72 297.66,146.44 297.66,142.93 297.66,139.52 299.99,136.89 303.98,136.89 305.02,136.89 306.09,137.12 306.74,137.4 L 306.23,139.57 C 305.77,139.34 305.09,139.12 304.07,139.12 301.87,139.12 300.57,140.73 300.59,142.81 300.59,145.14 302.11,146.46 304.07,146.46 305.04,146.46 305.77,146.25 306.33,146.02 L 306.72,148.14 z" />
			<path d="M 308.84,131.95 311.7,131.95 311.7,138.69 311.75,138.69 C 312.09,138.15 312.59,137.7 313.17,137.4 313.75,137.08 314.43,136.89 315.15,136.89 317.08,136.89 319.11,138.17 319.11,141.8 L 319.11,148.49 316.25,148.49 316.25,142.11 C 316.25,140.48 315.63,139.22 314.05,139.22 312.93,139.22 312.14,139.96 311.82,140.83 311.72,141.09 311.7,141.39 311.7,141.69 L 311.7,148.49 308.84,148.49 308.84,131.95 z" />
			<path d="M 324.18,143.62 C 324.25,145.67 325.84,146.56 327.67,146.56 329,146.56 329.93,146.35 330.82,146.05 L 331.23,148 C 330.26,148.42 328.91,148.73 327.27,148.73 323.6,148.73 321.43,146.46 321.43,142.99 321.43,139.85 323.34,136.89 326.97,136.89 330.66,136.89 331.87,139.92 331.87,142.41 331.87,142.95 331.82,143.36 331.77,143.62 L 324.18,143.62 z M 329.16,141.62 C 329.18,140.57 328.72,138.85 326.81,138.85 325.04,138.85 324.3,140.45 324.18,141.62 L 329.16,141.62 z" />
			<path d="M 334.16,140.8 C 334.16,139.27 334.14,138.15 334.07,137.15 L 336.54,137.15 336.66,139.29 336.73,139.29 C 337.29,137.71 338.61,136.89 339.85,136.89 340.12,136.89 340.29,136.91 340.52,136.96 L 340.52,139.64 C 340.27,139.59 340.02,139.57 339.66,139.57 338.31,139.57 337.36,140.43 337.1,141.74 337.05,141.99 337.03,142.3 337.03,142.6 L 337.03,148.49 334.16,148.49 334.16,140.8 z" />
			<path d="M 352.61,145.09 C 352.61,146.44 352.66,147.56 352.7,148.49 L 350.21,148.49 350.07,146.79 350,146.79 C 349.51,147.58 348.39,148.75 346.34,148.75 344.29,148.75 342.41,147.51 342.41,143.81 L 342.41,137.15 345.27,137.15 345.27,143.32 C 345.27,145.2 345.88,146.41 347.39,146.41 348.55,146.41 349.3,145.62 349.58,144.88 349.7,144.65 349.74,144.32 349.74,143.99 L 349.74,137.15 352.61,137.15 352.61,145.09 z" />
			<path d="M 355.7,140.53 C 355.7,139.22 355.66,138.12 355.61,137.15 L 358.1,137.15 358.24,138.85 358.31,138.85 C 358.82,137.96 360.06,136.89 361.95,136.89 363.92,136.89 365.97,138.17 365.97,141.76 L 365.97,148.49 363.11,148.49 363.11,142.09 C 363.11,140.45 362.5,139.22 360.94,139.22 359.8,139.22 359.01,140.04 358.71,140.9 358.61,141.13 358.56,141.48 358.56,141.8 L 358.56,148.49 355.7,148.49 355.7,140.53 z" />
			<path d="M 379.29,146.84 C 379.29,149.21 378.8,150.91 377.61,151.98 376.45,153.03 374.8,153.36 373.23,153.36 371.79,153.36 370.25,153.03 369.27,152.45 L 369.9,150.28 C 370.62,150.7 371.84,151.14 373.21,151.14 375.07,151.14 376.47,150.16 376.47,147.72 L 376.47,146.74 376.43,146.74 C 375.77,147.74 374.63,148.42 373.12,148.42 370.3,148.42 368.3,146.09 368.3,142.87 368.3,139.15 370.72,136.89 373.44,136.89 375.19,136.89 376.19,137.73 376.73,138.66 L 376.77,138.66 376.89,137.15 379.38,137.15 C 379.34,137.91 379.29,138.85 379.29,140.41 L 379.29,146.84 z M 376.43,141.69 C 376.43,141.41 376.4,141.15 376.33,140.92 376.03,139.87 375.21,139.08 374,139.08 372.39,139.08 371.21,140.48 371.21,142.78 371.21,144.72 372.19,146.28 373.98,146.28 375.05,146.28 375.98,145.58 376.31,144.53 376.4,144.25 376.43,143.86 376.43,143.53 L 376.43,141.69 z" />
			<path d="M 384.38,143.62 C 384.45,145.67 386.04,146.56 387.87,146.56 389.2,146.56 390.14,146.35 391.02,146.05 L 391.44,148 C 390.46,148.42 389.11,148.73 387.48,148.73 383.8,148.73 381.64,146.46 381.64,142.99 381.64,139.85 383.55,136.89 387.18,136.89 390.86,136.89 392.07,139.92 392.07,142.41 392.07,142.95 392.02,143.36 391.98,143.62 L 384.38,143.62 z M 389.37,141.62 C 389.39,140.57 388.93,138.85 387.02,138.85 385.24,138.85 384.5,140.45 384.38,141.62 L 389.37,141.62 z" />
			<path d="M 394.37,140.53 C 394.37,139.22 394.33,138.12 394.28,137.15 L 396.77,137.15 396.91,138.85 396.98,138.85 C 397.5,137.96 398.73,136.89 400.62,136.89 402.59,136.89 404.64,138.17 404.64,141.76 L 404.64,148.49 401.78,148.49 401.78,142.09 C 401.78,140.45 401.17,139.22 399.61,139.22 398.47,139.22 397.68,140.04 397.37,140.9 397.29,141.13 397.23,141.48 397.23,141.8 L 397.23,148.49 394.37,148.49 394.37,140.53 z" />
			<path d="M 415.39,148.49 410.32,132.79 413.44,132.79 415.58,139.94 C 416.19,141.92 416.72,143.74 417.12,145.65 L 417.16,145.65 C 417.58,143.79 418.16,141.87 418.77,139.96 L 421.05,132.79 424.11,132.79 418.68,148.49 415.39,148.49 z" />
			<path d="M 429.62,148.49 424.55,132.79 427.66,132.79 429.8,139.94 C 430.41,141.92 430.95,143.74 431.34,145.65 L 431.39,145.65 C 431.81,143.79 432.39,141.87 433,139.96 L 435.28,132.79 438.33,132.79 432.91,148.49 429.62,148.49 z" />
			<path d="M 447.85,145.77 C 447.85,146.79 447.9,147.79 448.04,148.49 L 445.45,148.49 445.24,147.23 445.17,147.23 C 444.5,148.12 443.31,148.75 441.82,148.75 439.54,148.75 438.26,147.09 438.26,145.37 438.26,142.53 440.8,141.06 444.98,141.09 L 444.98,140.9 C 444.98,140.15 444.68,138.91 442.68,138.91 441.56,138.91 440.4,139.27 439.63,139.76 L 439.07,137.89 C 439.91,137.38 441.37,136.89 443.17,136.89 446.8,136.89 447.85,139.2 447.85,141.69 L 447.85,145.77 z M 445.06,142.95 C 443.03,142.93 441.1,143.34 441.1,145.07 441.1,146.18 441.82,146.7 442.73,146.7 443.89,146.7 444.71,145.95 444.98,145.14 445.06,144.93 445.06,144.72 445.06,144.51 L 445.06,142.95 z" />
			<path d="M 463.57,147.77 C 462.56,148.14 460.61,148.65 458.54,148.65 455.88,148.65 453.86,147.98 452.37,146.56 450.97,145.23 450.18,143.16 450.18,140.78 450.2,135.8 453.71,132.63 458.91,132.63 460.84,132.63 462.35,133.03 463.08,133.37 L 462.45,135.68 C 461.59,135.28 460.54,135 458.89,135 455.53,135 453.18,136.99 453.18,140.64 453.18,144.2 455.37,146.32 458.63,146.32 459.68,146.32 460.43,146.18 460.8,146.02 L 460.8,142.09 458.02,142.09 458.02,139.82 463.57,139.82 463.57,147.77 z" />
		</g>
	</g>
</svg>
