<?xml version="1.0" encoding="UTF-8" standalone="no"?>
<svg xmlns:dc="http://purl.org/dc/elements/1.1/" xmlns:cc="http://creativecommons.org/ns#"
   xmlns:rdf="http://www.w3.org/1999/02/22-rdf-syntax-ns#" xmlns:svg="http://www.w3.org/2000/svg"
   xmlns="http://www.w3.org/2000/svg" viewBox="0 0 479.61334 113.14667" height="113.14667" width="479.61334"
   xml:space="preserve" id="svg2" version="1.1">
   <metadata id="metadata8">
      <rdf:RDF>
         <cc:Work rdf:about="">
            <dc:format>image/svg+xml</dc:format>
            <dc:type rdf:resource="http://purl.org/dc/dcmitype/StillImage" />
         </cc:Work>
      </rdf:RDF>
   </metadata>
   <defs id="defs6" />
   <g transform="matrix(1.3333333,0,0,-1.3333333,0,113.14667)" id="g10">
      <g transform="scale(0.1)" id="g12">
         <path id="path14" style="fill:#ec2123;fill-opacity:1;fill-rule:nonzero;stroke:none"
            d="m 143.52,781.059 c 0,-37.45 30.46,-67.547 67.91,-67.547 37.449,0 67.558,30.097 67.558,67.547 0,37.461 -30.109,67.562 -67.558,67.562 -37.45,0 -67.91,-30.101 -67.91,-67.562 v 0 z M 75.9688,320.762 H 347.25 c 37.449,0 67.551,30.117 67.551,67.578 V 537.441 H 102.922 v 40.61 H 414.801 V 605 c 0,37.449 -30.102,67.559 -67.551,67.559 H 75.9688 C 38.5117,672.559 8.41016,642.449 8.41016,605 V 455.879 H 319.59 v -40.59 H 8.41016 V 388.34 c 0,-37.461 30.10154,-67.578 67.55864,-67.578 v 0 0" />
         <path id="path16" style="fill:#ec2123;fill-opacity:1;fill-rule:nonzero;stroke:none"
            d="m 1057.29,465.68 v 32.211 c -2.1,0.347 -6.65,1.039 -13.3,1.039 -22.76,0 -40.26,-14.34 -50.06,-34.641 l -0.692,33.602 H 960.68 V 320.762 h 33.949 v 95.937 c 0,22.031 16.461,50.039 50.411,50.039 5.25,0 10.5,-0.707 12.25,-1.058 v 0 z M 900.828,320.762 v 177.129 h -57.047 v -22.403 c 6.649,-0.347 16.797,-1.75 23.098,-2.808 V 320.762 h 33.949 z m 1.063,233.136 c 0,11.891 -10.161,21.34 -22.051,21.34 -12.262,0 -22.399,-9.449 -22.399,-21.34 0,-11.558 10.137,-21.007 22.399,-21.007 11.89,0 22.051,9.449 22.051,21.007 v 0 z M 774.5,442.25 c 0,-61.609 -26.961,-92.43 -72.461,-92.43 h -37.098 v 185.168 h 37.098 c 45.5,0 72.461,-31.148 72.461,-92.738 v 0 z m 37.809,0 c 0,80.84 -41.309,121.789 -110.618,121.789 h -71.75 V 320.762 h 71.75 c 68.957,0 110.618,40.629 110.618,121.488 v 0 0" />
         <path id="path18" style="fill:#ec2123;fill-opacity:1;fill-rule:nonzero;stroke:none"
            d="m 1759.32,564.039 h -36.76 c -12.95,-45.848 -32.9,-112.687 -66.5,-196.008 -33.96,83.321 -53.91,150.508 -66.52,196.008 h -38.14 c 21.7,-77 58.11,-178.16 89.26,-243.277 h 29.39 c 31.16,65.117 67.56,166.277 89.27,243.277 v 0 z m -212.81,-241.519 -5.95,25.191 c -4.2,-1.402 -14.36,-3.121 -23.11,-3.121 -18.2,0 -25.19,8.75 -25.19,29.019 v 97.68 h 45.85 v 26.602 h -45.85 v 54.597 c -11.9,-5.949 -24.51,-11.539 -33.96,-15.047 v -39.55 h -27.65 v -26.602 h 27.65 V 369.781 c 0,-32.929 14.35,-52.5 49.7,-52.5 14.01,0 27.66,2.071 38.51,5.239 v 0 z m -122.84,-1.758 c -23.11,35.347 -53.21,74.918 -82.61,100.468 l 74.56,76.661 h -40.96 l -66.15,-68.61 v 148.77 h -33.96 V 320.762 h 33.96 v 87.148 c 28,-26.949 54.25,-60.898 72.45,-87.148 h 42.71 z M 1191.61,423.34 h -78.75 c 2.09,33.941 15.75,53.898 42.35,53.898 24.85,0 36.4,-16.797 36.4,-45.847 v -8.051 z m 35.71,-3.871 c 0,53.211 -24.15,82.621 -71.41,82.621 -50.75,0 -78.41,-37.801 -78.41,-93.129 0,-56.32 30.8,-92.383 84.71,-92.383 22.4,0 39.21,2.074 53.91,6.641 l -6.65,25.902 c -10.15,-2.812 -26.96,-5.59 -42.36,-5.59 -33.95,0 -50.75,19.571 -53.55,55.321 h 113.05 c 0.36,5.929 0.71,13.277 0.71,20.617 v 0 0" />
         <path id="path20" style="fill:#ec2123;fill-opacity:1;fill-rule:nonzero;stroke:none"
            d="m 3555.96,402.68 c 0,-33.25 -16.09,-55.668 -42.03,-55.668 -33.24,0 -41.64,29.418 -41.64,62.308 0,40.27 18.55,63.36 45.15,63.36 19.61,0 30.47,-8.75 38.52,-16.801 V 402.68 Z m 33.95,-82.27 v 177.481 h -32.54 l -0.71,-15.051 c -9.8,10.5 -24.53,18.551 -48.67,18.551 -40.23,0 -72.46,-33.262 -72.46,-92.071 0,-63.359 29.41,-89.609 70,-89.609 23.13,0 39.22,8.039 50.78,25.891 v -27.301 c 0,-30.43 -16.09,-45.121 -51.48,-45.121 -18.52,0 -32.89,3.129 -42.7,5.59 l -5.23,-25.899 c 10.51,-2.461 28.36,-6.332 54.96,-6.332 25.55,0 45.86,6.332 59.14,19.262 12.27,12.269 18.91,29.41 18.91,54.609 v 0 z m -202.31,0.352 v 122.886 c 0,36.043 -20.66,57.743 -57.38,57.743 -25.94,0 -45.16,-11.563 -55.67,-28.352 l -0.7,24.852 h -32.58 V 320.762 h 33.99 v 102.929 c 0,26.95 19.57,48.637 44.45,48.637 22.73,0 33.95,-11.887 33.95,-38.476 v -113.09 h 33.94 z m -203.36,0 V 497.891 H 3150.3 V 394.629 c 0,-26.598 -19.61,-48.668 -44.81,-48.668 -22.73,0 -33.59,10.859 -33.59,37.109 v 114.821 h -33.95 V 375.719 c 0,-38.867 20.63,-58.438 57.03,-58.438 25.9,0 45.51,11.18 56.02,28.321 l 0.35,-24.84 h 32.89 z M 3006.12,465.68 v 32.211 c -2.11,0.347 -6.64,1.039 -13.32,1.039 -22.74,0 -40.24,-14.34 -50.04,-34.641 l -0.71,33.602 h -32.53 V 320.762 h 33.94 v 95.937 c 0,22.031 16.45,50.039 50.39,50.039 5.27,0 10.51,-0.707 12.27,-1.058 v 0 z M 2826.9,423.34 h -78.75 c 2.11,33.941 15.74,53.898 42.34,53.898 24.88,0 36.41,-16.797 36.41,-45.847 v -8.051 z m 35.7,-3.871 c 0,53.211 -24.14,82.621 -71.41,82.621 -50.74,0 -78.39,-37.801 -78.39,-93.129 0,-56.32 30.82,-92.383 84.72,-92.383 22.39,0 39.18,2.074 53.91,6.641 l -6.68,25.902 c -10.16,-2.812 -26.95,-5.59 -42.34,-5.59 -33.95,0 -50.75,19.571 -53.56,55.321 h 113.05 c 0.35,5.929 0.7,13.277 0.7,20.617 v 0 z m -197.73,-98.707 v 122.886 c 0,36.043 -20.67,57.743 -57.42,57.743 -26.61,0 -44.81,-10.852 -54.93,-26.961 v 103.621 h -33.98 V 320.762 h 33.98 v 102.929 c 0,26.95 19.57,48.637 44.46,48.637 22.73,0 33.94,-11.887 33.94,-38.476 v -113.09 h 33.95 z m -182.7,5.629 -8.05,26.597 c -5.62,-2.109 -19.96,-6.328 -37.81,-6.328 -34.29,0 -52.15,20.309 -52.15,62.66 0,43.41 18.91,63.008 54.61,63.008 14.69,0 29.73,-3.84 37.11,-5.937 v 27.988 c -3.16,1.41 -20.31,6.312 -43.4,6.312 -54.25,0 -84.72,-35.011 -84.72,-91.73 0,-56.68 29.76,-90.973 83.32,-90.973 22.38,0 38.12,3.832 51.09,8.403 v 0 z m -185.86,-5.629 v 177.129 h -57.07 v -22.403 c 6.68,-0.347 16.84,-1.75 23.13,-2.808 V 320.762 h 33.94 z m 1.06,233.136 c 0,11.891 -10.16,21.34 -22.07,21.34 -12.23,0 -22.39,-9.449 -22.39,-21.34 0,-11.558 10.16,-21.007 22.39,-21.007 11.91,0 22.07,9.449 22.07,21.007 v 0 z M 2213.03,370.84 c 0,32.89 -21.72,43.75 -53.55,53.551 -26.61,8.398 -42.7,12.929 -42.7,27.988 0,14.699 10.82,22.051 34.3,22.051 19.61,0 36.05,-3.141 50.74,-8.039 v 27.988 c -12.93,3.859 -29.77,7.012 -52.85,7.012 -39.22,0 -65.47,-18.211 -65.47,-51.801 0,-30.82 21.37,-40.981 50.08,-50.43 24.14,-8.051 44.8,-12.23 44.8,-30.43 0,-15.039 -10.51,-24.14 -39.22,-24.14 -25.54,0 -43.75,7.34 -51.79,10.469 l -9.1,-25.547 c 9.8,-4.532 31.13,-12.231 63,-12.231 43.4,0 71.76,17.5 71.76,53.559 v 0 z m -153.98,94.84 v 32.211 c -2.11,0.347 -6.68,1.039 -13.32,1.039 -22.74,0 -40.24,-14.34 -50.04,-34.641 l -0.71,33.602 h -32.57 V 320.762 h 33.98 v 95.937 c 0,22.031 16.45,50.039 50.39,50.039 5.24,0 10.51,-0.707 12.27,-1.058 v 0 z m -179.22,-42.34 h -78.75 c 2.1,33.941 15.75,53.898 42.35,53.898 24.84,0 36.4,-16.797 36.4,-45.847 v -8.051 z m 35.7,-3.871 c 0,53.211 -24.14,82.621 -71.4,82.621 -50.76,0 -78.41,-37.801 -78.41,-93.129 0,-56.32 30.81,-92.383 84.69,-92.383 22.43,0 39.22,2.074 53.91,6.641 l -6.64,25.902 c -10.16,-2.812 -26.95,-5.59 -42.34,-5.59 -33.96,0 -50.77,19.571 -53.57,55.321 h 113.06 c 0.35,5.929 0.7,13.277 0.7,20.617 v 0 0" />
         <path id="path22" style="fill:#a11c21;fill-opacity:1;fill-rule:nonzero;stroke:none"
            d="m 3589.04,39.9414 c 2.21,0.9805 4.11,2.5586 5.71,4.7383 1.59,2.1797 2.39,4.6992 2.39,7.5703 0,1.8203 -0.52,3.8086 -1.56,5.9492 -1.04,2.1524 -2.69,3.961 -4.93,5.4219 -2.25,1.4687 -4.9,2.1992 -7.96,2.1992 -2.02,0 -4.14,-0.4492 -6.35,-1.3711 -2.21,-0.9101 -4.1,-2.5 -5.66,-4.7773 -1.57,-2.2813 -2.35,-4.75 -2.35,-7.4219 0,-1.8906 0.38,-3.6602 1.13,-5.3203 0.74,-1.6602 1.77,-3.1094 3.07,-4.3516 1.3,-1.2383 2.82,-2.2265 4.54,-2.9765 1.73,-0.75 3.6,-1.1211 5.62,-1.1211 2.02,0 4.13,0.4883 6.35,1.4609 z m -67.66,-0.6797 c 3.78,0.5196 7.23,1.2383 10.36,2.1485 l -3.42,14.4492 c -1.31,-0.461 -3.16,-0.8789 -5.57,-1.2696 -2.41,-0.3906 -4.95,-0.5781 -7.62,-0.5781 -5.27,0 -9,1.2969 -11.18,3.8985 -2.18,2.6093 -3.27,6.8398 -3.27,12.6992 v 55.8596 h 26.27 v 15.133 h -26.27 v 31.25 c -7.88,-3.973 -14.32,-6.832 -19.33,-8.59 v -22.66 h -15.83 v -15.133 h 15.83 V 68.4609 c 0,-4.6914 0.53,-8.8906 1.61,-12.6015 1.07,-3.711 2.75,-6.8477 5.03,-9.418 2.27,-2.582 5.2,-4.543 8.78,-5.9101 3.58,-1.3711 7.91,-2.0508 12.99,-2.0508 3.97,0 7.85,0.2578 11.62,0.7812 z M 3412.96,162.648 c 1.79,0.68 3.47,2.063 5.03,4.153 1.56,2.078 2.34,4.359 2.34,6.828 0,1.699 -0.48,3.519 -1.46,5.473 -0.98,1.957 -2.46,3.57 -4.44,4.839 -1.99,1.27 -4.22,1.899 -6.69,1.899 -1.83,0 -3.71,-0.418 -5.67,-1.27 -1.95,-0.84 -3.63,-2.261 -5.03,-4.25 -1.4,-1.98 -2.1,-4.211 -2.1,-6.691 0,-1.688 0.34,-3.25 1.03,-4.68 0.68,-1.437 1.61,-2.711 2.78,-3.808 1.17,-1.11 2.52,-1.969 4.05,-2.59 1.53,-0.621 3.18,-0.93 4.94,-0.93 1.69,0 3.43,0.34 5.22,1.027 z m 6.79,-122.2183 V 141.602 h -32.62 v -12.793 c 2.8,-0.188 7.19,-0.719 13.18,-1.559 V 40.4297 h 19.44 z M 3288.62,121.68 c 3.97,5.398 9.73,8.109 17.28,8.109 7.17,0 12.42,-2.277 15.78,-6.84 3.35,-4.558 5.02,-11 5.02,-19.328 v -4.5897 h -44.92 c 0.59,9.6987 2.87,17.2497 6.84,22.6487 z m 38.43,-82.7581 c 4.91,0.6172 9.48,1.5781 13.72,2.8789 l -3.81,14.8398 c -3.19,-0.9101 -6.9,-1.6718 -11.13,-2.289 -4.24,-0.6211 -8.6,-0.9297 -13.09,-0.9297 -9.7,0 -17.03,2.7187 -21.97,8.1484 -4.95,5.4414 -7.82,13.2695 -8.6,23.4883 h 64.55 c 0.26,3.3828 0.39,7.3203 0.39,11.8203 0,15.1721 -3.41,26.8201 -10.25,34.9611 -6.84,8.14 -16.99,12.199 -30.47,12.199 -7.22,0 -13.64,-1.277 -19.24,-3.848 -5.6,-2.582 -10.28,-6.203 -14.06,-10.89 -3.77,-4.692 -6.64,-10.301 -8.59,-16.852 -1.96,-6.539 -2.93,-13.7498 -2.93,-21.6287 0,-8.0703 1.07,-15.3594 3.22,-21.8711 2.15,-6.5078 5.29,-12.0586 9.42,-16.6484 4.14,-4.5899 9.2,-8.1289 15.19,-10.6016 5.99,-2.4687 12.83,-3.7109 20.51,-3.7109 6.51,0 12.22,0.3125 17.14,0.9336 z m -181.28,1.5078 v 58.7891 c 0,3.8402 0.81,7.8832 2.44,12.1092 1.63,4.231 4.56,7.91 8.79,11.043 4.23,3.117 8.95,4.68 14.16,4.68 6.51,0 11.36,-1.762 14.55,-5.27 3.19,-3.519 4.79,-9.082 4.79,-16.703 V 40.4297 h 19.43 v 70.2183 c 0,5.141 -0.94,10.274 -2.83,15.383 -1.89,5.11 -5.37,9.321 -10.45,12.641 -5.08,3.316 -11.59,4.976 -19.53,4.976 -7.68,0 -14.1,-1.41 -19.24,-4.238 -5.14,-2.84 -9.18,-6.558 -12.11,-11.191 v 59.183 h -19.43 V 40.4297 h 19.43 z m -98.22,0 v 54.7891 c 0,3.121 0.59,6.3832 1.76,9.7612 1.17,3.391 2.96,6.481 5.37,9.282 2.41,2.797 5.4,5.09 8.99,6.879 3.58,1.789 7.81,2.687 12.69,2.687 3.06,0 5.37,-0.199 6.93,-0.59 v 18.364 c -1.75,0.386 -4.29,0.589 -7.61,0.589 -3.26,0 -6.64,-0.601 -10.16,-1.812 -3.51,-1.199 -6.9,-3.328 -10.16,-6.391 -3.25,-3.058 -6.02,-6.91 -8.3,-11.527 l -0.39,19.141 h -18.55 V 40.4297 h 19.43 z M 2918.57,121.68 c 3.97,5.398 9.73,8.109 17.29,8.109 7.16,0 12.41,-2.277 15.77,-6.84 3.35,-4.558 5.03,-11 5.03,-19.328 v -4.5897 h -44.92 c 0.58,9.6987 2.86,17.2497 6.83,22.6487 z M 2957,38.9219 c 4.91,0.6172 9.49,1.5781 13.72,2.8789 l -3.81,14.8398 c -3.19,-0.9101 -6.9,-1.6718 -11.13,-2.289 -4.23,-0.6211 -8.6,-0.9297 -13.09,-0.9297 -9.7,0 -17.02,2.7187 -21.97,8.1484 -4.95,5.4414 -7.81,13.2695 -8.59,23.4883 h 64.55 c 0.26,3.3828 0.39,7.3203 0.39,11.8203 0,15.1721 -3.42,26.8201 -10.26,34.9611 -6.83,8.14 -16.99,12.199 -30.46,12.199 -7.23,0 -13.64,-1.277 -19.24,-3.848 -5.6,-2.582 -10.29,-6.203 -14.07,-10.89 -3.77,-4.692 -6.64,-10.301 -8.59,-16.852 -1.95,-6.539 -2.93,-13.7498 -2.93,-21.6287 0,-8.0703 1.08,-15.3594 3.22,-21.8711 2.15,-6.5078 5.29,-12.0586 9.43,-16.6484 4.13,-4.5899 9.19,-8.1289 15.18,-10.6016 5.99,-2.4687 12.83,-3.7109 20.51,-3.7109 6.51,0 12.22,0.3125 17.14,0.9336 z m -181.28,1.5078 v 58.7891 c 0,3.8402 0.82,7.8832 2.45,12.1092 1.62,4.231 4.55,7.91 8.78,11.043 4.24,3.117 8.96,4.68 14.17,4.68 6.5,0 11.35,-1.762 14.55,-5.27 3.18,-3.519 4.78,-9.082 4.78,-16.703 V 40.4297 h 19.43 v 70.2183 c 0,5.141 -0.94,10.274 -2.83,15.383 -1.89,5.11 -5.37,9.321 -10.45,12.641 -5.07,3.316 -11.59,4.976 -19.53,4.976 -7.68,0 -14.09,-1.41 -19.24,-4.238 -5.14,-2.84 -9.18,-6.558 -12.11,-11.191 v 59.183 h -19.43 V 40.4297 h 19.43 z m -76.97,-0.1484 c 4.65,0.9492 8.83,2.0703 12.54,3.3671 l -4.59,15.1407 c -1.75,-0.7774 -4.58,-1.5586 -8.49,-2.3399 -3.91,-0.7773 -8.27,-1.1679 -13.09,-1.1679 -9.89,0 -17.33,2.9101 -22.31,8.7382 -4.98,5.8203 -7.47,14.8203 -7.47,27 0,12.3715 2.63,21.4605 7.91,27.2895 5.27,5.832 13.02,8.742 23.24,8.742 2.08,0 4.17,-0.129 6.25,-0.391 2.08,-0.262 4.05,-0.551 5.91,-0.879 1.85,-0.32 3.56,-0.703 5.13,-1.121 1.56,-0.422 2.86,-0.769 3.9,-1.031 v 16.019 c -1.56,0.653 -4.73,1.422 -9.52,2.301 -4.79,0.871 -9.88,1.313 -15.28,1.313 -7.75,0 -14.62,-1.203 -20.61,-3.614 -5.99,-2.41 -11.03,-5.886 -15.14,-10.449 -4.1,-4.558 -7.22,-10.07 -9.37,-16.551 -2.15,-6.476 -3.22,-13.7574 -3.22,-21.8277 0,-8.1406 1.04,-15.4101 3.12,-21.8203 2.08,-6.4219 5.14,-11.8516 9.18,-16.3086 4.04,-4.4609 9.02,-7.8828 14.94,-10.2617 5.93,-2.3711 12.7,-3.5586 20.32,-3.5586 6.44,0 11.99,0.4687 16.65,1.4102 z M 2574.16,162.648 c 1.79,0.68 3.47,2.063 5.03,4.153 1.56,2.078 2.34,4.359 2.34,6.828 0,1.699 -0.49,3.519 -1.46,5.473 -0.98,1.957 -2.46,3.57 -4.45,4.839 -1.98,1.27 -4.21,1.899 -6.68,1.899 -1.83,0 -3.72,-0.418 -5.67,-1.27 -1.95,-0.84 -3.63,-2.261 -5.03,-4.25 -1.4,-1.98 -2.1,-4.211 -2.1,-6.691 0,-1.688 0.34,-3.25 1.03,-4.68 0.68,-1.437 1.61,-2.711 2.78,-3.808 1.17,-1.11 2.52,-1.969 4.05,-2.59 1.53,-0.621 3.18,-0.93 4.94,-0.93 1.69,0 3.43,0.34 5.22,1.027 z m 6.79,-122.2183 V 141.602 h -32.62 v -12.793 c 2.8,-0.188 7.19,-0.719 13.18,-1.559 V 40.4297 h 19.44 z m -99.69,0.1992 c 6.12,1.75 11.31,4.3399 15.58,7.7617 4.26,3.418 7.52,7.6289 9.77,12.6485 2.24,5.0117 3.36,10.7422 3.36,17.1797 0,6.6523 -1.07,12.2109 -3.22,16.7031 -2.15,4.5 -5,8.2891 -8.54,11.3791 -3.55,3.09 -7.67,5.679 -12.36,7.758 -4.68,2.089 -9.57,4.07 -14.64,5.961 -4.63,1.628 -8.86,3.191 -12.7,4.691 -3.84,1.5 -7.16,3.141 -9.96,4.93 -2.8,1.789 -4.97,3.859 -6.5,6.199 -1.53,2.351 -2.29,5.211 -2.29,8.601 0,6.7 2.42,11.84 7.28,15.43 4.84,3.57 11.63,5.367 20.36,5.367 3.9,0 7.89,-0.258 11.96,-0.789 4.07,-0.519 8.02,-1.25 11.86,-2.187 3.85,-0.953 7.43,-2.043 10.75,-3.274 v 17.672 c -1.37,0.328 -3.63,0.93 -6.79,1.809 -3.16,0.883 -7.15,1.66 -11.96,2.34 -4.82,0.691 -10.03,1.031 -15.63,1.031 -7.36,0 -13.98,-0.899 -19.87,-2.692 -5.89,-1.789 -10.89,-4.339 -14.99,-7.66 -4.1,-3.316 -7.26,-7.359 -9.47,-12.109 -2.22,-4.758 -3.32,-10.059 -3.32,-15.918 0,-3.652 0.39,-7.109 1.17,-10.402 0.78,-3.289 2.39,-6.579 4.83,-9.86 2.44,-3.289 5.44,-6.129 8.99,-8.5 3.54,-2.379 7.06,-4.308 10.54,-5.808 3.48,-1.5 7.18,-2.93 11.09,-4.301 4.1,-1.559 8.67,-3.34 13.72,-5.3205 5.04,-1.9882 9.36,-4.6601 12.94,-8.0078 3.58,-3.3515 5.37,-7.7617 5.37,-13.2304 0,-3.2618 -0.64,-6.6797 -1.91,-10.25 -1.27,-3.5899 -4.26,-6.6016 -8.98,-9.043 -4.72,-2.4375 -11.31,-3.6602 -19.78,-3.6602 -4.16,0 -8.66,0.3907 -13.47,1.1719 -4.82,0.7813 -9.33,1.8594 -13.53,3.2188 -4.2,1.371 -7.24,2.5429 -9.13,3.5195 l -5.66,-16.1094 c 1.36,-0.6484 3.35,-1.4805 5.95,-2.4883 2.61,-1.0117 5.8,-1.9922 9.57,-2.9297 3.78,-0.9492 8.06,-1.7617 12.85,-2.4414 4.78,-0.6914 10.07,-1.0312 15.87,-1.0312 7.81,0 14.77,0.8828 20.89,2.6406 z M 2237.8,39.9414 c 2.21,0.9805 4.11,2.5586 5.71,4.7383 1.59,2.1797 2.39,4.6992 2.39,7.5703 0,1.8203 -0.52,3.8086 -1.56,5.9492 -1.04,2.1524 -2.69,3.961 -4.93,5.4219 -2.25,1.4687 -4.9,2.1992 -7.96,2.1992 -2.02,0 -4.14,-0.4492 -6.35,-1.3711 -2.21,-0.9101 -4.1,-2.5 -5.66,-4.7773 -1.57,-2.2813 -2.35,-4.75 -2.35,-7.4219 0,-1.8906 0.38,-3.6602 1.13,-5.3203 0.74,-1.6602 1.77,-3.1094 3.07,-4.3516 1.3,-1.2383 2.82,-2.2265 4.54,-2.9765 1.73,-0.75 3.6,-1.1211 5.62,-1.1211 2.02,0 4.13,0.4883 6.35,1.4609 z M 2112.92,121.68 c 3.97,5.398 9.73,8.109 17.28,8.109 7.16,0 12.42,-2.277 15.77,-6.84 3.36,-4.558 5.03,-11 5.03,-19.328 v -4.5897 h -44.92 c 0.59,9.6987 2.86,17.2497 6.84,22.6487 z m 38.42,-82.7581 c 4.92,0.6172 9.49,1.5781 13.73,2.8789 l -3.81,14.8398 c -3.19,-0.9101 -6.9,-1.6718 -11.14,-2.289 -4.23,-0.6211 -8.59,-0.9297 -13.08,-0.9297 -9.7,0 -17.03,2.7187 -21.97,8.1484 -4.95,5.4414 -7.82,13.2695 -8.6,23.4883 h 64.55 c 0.26,3.3828 0.39,7.3203 0.39,11.8203 0,15.1721 -3.42,26.8201 -10.25,34.9611 -6.84,8.14 -16.99,12.199 -30.47,12.199 -7.23,0 -13.64,-1.277 -19.24,-3.848 -5.6,-2.582 -10.29,-6.203 -14.06,-10.89 -3.78,-4.692 -6.64,-10.301 -8.59,-16.852 -1.96,-6.539 -2.93,-13.7498 -2.93,-21.6287 0,-8.0703 1.07,-15.3594 3.22,-21.8711 2.15,-6.5078 5.29,-12.0586 9.42,-16.6484 4.14,-4.5899 9.2,-8.1289 15.19,-10.6016 5.99,-2.4687 12.82,-3.7109 20.51,-3.7109 6.51,0 12.22,0.3125 17.13,0.9336 z m -113.06,1.3594 c 4.66,0.9492 8.84,2.0703 12.55,3.3671 l -4.59,15.1407 c -1.76,-0.7774 -4.59,-1.5586 -8.5,-2.3399 -3.9,-0.7773 -8.26,-1.1679 -13.08,-1.1679 -9.9,0 -17.33,2.9101 -22.32,8.7382 -4.98,5.8203 -7.47,14.8203 -7.47,27 0,12.3715 2.64,21.4605 7.91,27.2895 5.28,5.832 13.02,8.742 23.25,8.742 2.08,0 4.16,-0.129 6.25,-0.391 2.08,-0.262 4.05,-0.551 5.9,-0.879 1.86,-0.32 3.57,-0.703 5.13,-1.121 1.56,-0.422 2.87,-0.769 3.91,-1.031 v 16.019 c -1.56,0.653 -4.74,1.422 -9.52,2.301 -4.79,0.871 -9.88,1.313 -15.29,1.313 -7.75,0 -14.61,-1.203 -20.6,-3.614 -5.99,-2.41 -11.04,-5.886 -15.14,-10.449 -4.1,-4.558 -7.23,-10.07 -9.37,-16.551 -2.15,-6.476 -3.23,-13.7574 -3.23,-21.8277 0,-8.1406 1.04,-15.4101 3.13,-21.8203 2.08,-6.4219 5.14,-11.8516 9.18,-16.3086 4.03,-4.4609 9.01,-7.8828 14.94,-10.2617 5.92,-2.3711 12.69,-3.5586 20.31,-3.5586 6.45,0 12,0.4687 16.65,1.4102 z M 1913.7,162.648 c 1.79,0.68 3.46,2.063 5.03,4.153 1.56,2.078 2.34,4.359 2.34,6.828 0,1.699 -0.49,3.519 -1.47,5.473 -0.97,1.957 -2.45,3.57 -4.44,4.839 -1.99,1.27 -4.22,1.899 -6.69,1.899 -1.82,0 -3.71,-0.418 -5.66,-1.27 -1.96,-0.84 -3.63,-2.261 -5.03,-4.25 -1.4,-1.98 -2.1,-4.211 -2.1,-6.691 0,-1.688 0.34,-3.25 1.02,-4.68 0.69,-1.437 1.62,-2.711 2.79,-3.808 1.17,-1.11 2.52,-1.969 4.05,-2.59 1.53,-0.621 3.17,-0.93 4.93,-0.93 1.69,0 3.43,0.34 5.23,1.027 z m 6.78,-122.2183 V 141.602 h -32.61 v -12.793 c 2.79,-0.188 7.19,-0.719 13.18,-1.559 V 40.4297 h 19.43 z m -100.95,0 c 6.38,13.8711 12.92,29.75 19.63,47.6601 6.7,17.8982 12.76,35.7382 18.16,53.5122 h -20.21 c -3.19,-12.043 -7.03,-24.872 -11.53,-38.473 -4.49,-13.6095 -9.7,-27.5782 -15.62,-41.8985 -5.93,14.3906 -11.13,28.4687 -15.63,42.2385 -4.49,13.769 -8.36,26.48 -11.62,38.133 h -20.6 c 4.94,-16.211 10.97,-33.903 18.06,-53.0707 7.1,-19.1797 13.68,-35.211 19.73,-48.1016 h 19.63 z m -120.97,0 v 54.7891 c 0,3.121 0.58,6.3832 1.76,9.7612 1.17,3.391 2.96,6.481 5.37,9.282 2.4,2.797 5.4,5.09 8.98,6.879 3.58,1.789 7.81,2.687 12.7,2.687 3.06,0 5.37,-0.199 6.93,-0.59 v 18.364 c -1.76,0.386 -4.3,0.589 -7.62,0.589 -3.25,0 -6.64,-0.601 -10.15,-1.812 -3.52,-1.199 -6.91,-3.328 -10.16,-6.391 -3.26,-3.058 -6.02,-6.91 -8.3,-11.527 l -0.39,19.141 h -18.56 V 40.4297 h 19.44 z M 1569.58,121.68 c 3.97,5.398 9.73,8.109 17.28,8.109 7.16,0 12.42,-2.277 15.77,-6.84 3.36,-4.558 5.03,-11 5.03,-19.328 v -4.5897 h -44.92 c 0.59,9.6987 2.87,17.2497 6.84,22.6487 z M 1608,38.9219 c 4.92,0.6172 9.49,1.5781 13.73,2.8789 l -3.81,14.8398 c -3.19,-0.9101 -6.9,-1.6718 -11.14,-2.289 -4.23,-0.6211 -8.59,-0.9297 -13.08,-0.9297 -9.7,0 -17.03,2.7187 -21.97,8.1484 -4.95,5.4414 -7.82,13.2695 -8.6,23.4883 h 64.55 c 0.26,3.3828 0.39,7.3203 0.39,11.8203 0,15.1721 -3.41,26.8201 -10.25,34.9611 -6.84,8.14 -16.99,12.199 -30.47,12.199 -7.23,0 -13.64,-1.277 -19.24,-3.848 -5.6,-2.582 -10.29,-6.203 -14.06,-10.89 -3.78,-4.692 -6.64,-10.301 -8.59,-16.852 -1.96,-6.539 -2.93,-13.7498 -2.93,-21.6287 0,-8.0703 1.07,-15.3594 3.22,-21.8711 2.15,-6.5078 5.29,-12.0586 9.42,-16.6484 4.14,-4.5899 9.2,-8.1289 15.19,-10.6016 5.99,-2.4687 12.82,-3.7109 20.51,-3.7109 6.51,0 12.22,0.3125 17.13,0.9336 z m -138.99,1.707 c 6.12,1.75 11.32,4.3399 15.58,7.7617 4.26,3.418 7.52,7.6289 9.77,12.6485 2.24,5.0117 3.37,10.7422 3.37,17.1797 0,6.6523 -1.08,12.2109 -3.23,16.7031 -2.15,4.5 -4.99,8.2891 -8.54,11.3791 -3.55,3.09 -7.67,5.679 -12.36,7.758 -4.68,2.089 -9.57,4.07 -14.64,5.961 -4.63,1.628 -8.86,3.191 -12.7,4.691 -3.84,1.5 -7.16,3.141 -9.96,4.93 -2.8,1.789 -4.97,3.859 -6.49,6.199 -1.53,2.351 -2.3,5.211 -2.3,8.601 0,6.7 2.43,11.84 7.28,15.43 4.85,3.57 11.63,5.367 20.36,5.367 3.9,0 7.89,-0.258 11.96,-0.789 4.07,-0.519 8.02,-1.25 11.87,-2.187 3.84,-0.953 7.42,-2.043 10.74,-3.274 v 17.672 c -1.37,0.328 -3.63,0.93 -6.79,1.809 -3.16,0.883 -7.15,1.66 -11.96,2.34 -4.82,0.691 -10.03,1.031 -15.63,1.031 -7.36,0 -13.98,-0.899 -19.87,-2.692 -5.89,-1.789 -10.89,-4.339 -14.99,-7.66 -4.1,-3.316 -7.26,-7.359 -9.47,-12.109 -2.22,-4.758 -3.32,-10.059 -3.32,-15.918 0,-3.652 0.39,-7.109 1.17,-10.402 0.78,-3.289 2.39,-6.579 4.83,-9.86 2.44,-3.289 5.44,-6.129 8.99,-8.5 3.54,-2.379 7.06,-4.308 10.54,-5.808 3.49,-1.5 7.18,-2.93 11.09,-4.301 4.1,-1.559 8.67,-3.34 13.72,-5.3205 5.04,-1.9882 9.36,-4.6601 12.94,-8.0078 3.58,-3.3515 5.37,-7.7617 5.37,-13.2304 0,-3.2618 -0.64,-6.6797 -1.91,-10.25 -1.27,-3.5899 -4.26,-6.6016 -8.98,-9.043 -4.72,-2.4375 -11.31,-3.6602 -19.78,-3.6602 -4.16,0 -8.65,0.3907 -13.47,1.1719 -4.82,0.7813 -9.33,1.8594 -13.53,3.2188 -4.2,1.371 -7.24,2.5429 -9.13,3.5195 l -5.66,-16.1094 c 1.36,-0.6484 3.35,-1.4805 5.95,-2.4883 2.61,-1.0117 5.8,-1.9922 9.58,-2.9297 3.77,-0.9492 8.05,-1.7617 12.84,-2.4414 4.78,-0.6914 10.07,-1.0312 15.87,-1.0312 7.81,0 14.77,0.8828 20.89,2.6406 z m -243.46,-0.6875 c 2.21,0.9805 4.11,2.5586 5.71,4.7383 1.59,2.1797 2.39,4.6992 2.39,7.5703 0,1.8203 -0.52,3.8086 -1.56,5.9492 -1.04,2.1524 -2.69,3.961 -4.93,5.4219 -2.25,1.4687 -4.9,2.1992 -7.96,2.1992 -2.02,0 -4.14,-0.4492 -6.35,-1.3711 -2.21,-0.9101 -4.1,-2.5 -5.66,-4.7773 -1.57,-2.2813 -2.35,-4.75 -2.35,-7.4219 0,-1.8906 0.38,-3.6602 1.13,-5.3203 0.74,-1.6602 1.77,-3.1094 3.07,-4.3516 1.3,-1.2383 2.82,-2.2265 4.54,-2.9765 1.73,-0.75 3.6,-1.1211 5.62,-1.1211 2.02,0 4.13,0.4883 6.35,1.4609 z M 1100.67,121.68 c 3.97,5.398 9.73,8.109 17.28,8.109 7.16,0 12.42,-2.277 15.77,-6.84 3.36,-4.558 5.03,-11 5.03,-19.328 v -4.5897 h -44.92 c 0.59,9.6987 2.87,17.2497 6.84,22.6487 z m 38.43,-82.7581 c 4.91,0.6172 9.48,1.5781 13.72,2.8789 l -3.81,14.8398 c -3.19,-0.9101 -6.9,-1.6718 -11.14,-2.289 -4.23,-0.6211 -8.59,-0.9297 -13.08,-0.9297 -9.7,0 -17.03,2.7187 -21.97,8.1484 -4.95,5.4414 -7.82,13.2695 -8.6,23.4883 h 64.55 c 0.26,3.3828 0.39,7.3203 0.39,11.8203 0,15.1721 -3.41,26.8201 -10.25,34.9611 -6.84,8.14 -16.99,12.199 -30.47,12.199 -7.23,0 -13.64,-1.277 -19.24,-3.848 -5.6,-2.582 -10.28,-6.203 -14.06,-10.89 -3.78,-4.692 -6.64,-10.301 -8.59,-16.852 -1.96,-6.539 -2.93,-13.7498 -2.93,-21.6287 0,-8.0703 1.07,-15.3594 3.22,-21.8711 2.15,-6.5078 5.29,-12.0586 9.42,-16.6484 4.14,-4.5899 9.2,-8.1289 15.19,-10.6016 5.99,-2.4687 12.82,-3.7109 20.51,-3.7109 6.51,0 12.22,0.3125 17.14,0.9336 z m -135.24,1.4062 c 5.05,1.2422 9.36,3.1328 12.94,5.6719 3.58,2.5391 6.35,5.7305 8.31,9.5703 1.95,3.8399 2.92,8.3281 2.92,13.4688 0,4.6914 -0.92,9.0195 -2.78,12.9922 -1.85,3.9687 -5.01,7.289 -9.47,9.957 -4.46,2.6719 -10.6,5.2109 -18.409,7.6211 -3.781,1.1716 -7.18,2.2616 -10.199,3.2696 -3.031,1.012 -5.594,2.101 -7.672,3.269 -2.078,1.18 -3.699,2.512 -4.828,4.012 -1.141,1.488 -1.711,3.32 -1.711,5.469 0,4.23 1.59,7.391 4.777,9.473 3.192,2.078 8.141,3.117 14.852,3.117 5.66,0 10.85,-0.399 15.57,-1.219 4.72,-0.809 9.2,-1.93 13.43,-3.371 v 16.019 c -3.71,1.114 -8.01,2.051 -12.89,2.832 -4.88,0.782 -10.649,1.168 -17.29,1.168 -5.601,0 -10.711,-0.648 -15.332,-1.949 -4.617,-1.301 -8.558,-3.187 -11.808,-5.66 -3.258,-2.48 -5.782,-5.57 -7.571,-9.277 -1.789,-3.711 -2.687,-7.942 -2.687,-12.703 0,-4.418 0.718,-8.168 2.148,-11.231 1.43,-3.0585 3.43,-5.6561 6.012,-7.8085 2.566,-2.1484 5.59,-3.9687 9.078,-5.4687 3.48,-1.5 7.27,-2.9297 11.371,-4.2891 3.449,-1.2422 7.231,-2.5117 11.328,-3.8125 4.102,-1.3086 7.511,-3.0195 10.211,-5.1289 2.7,-2.1211 4.05,-4.9297 4.05,-8.4492 0,-2.1523 -0.54,-4.332 -1.61,-6.543 -1.07,-2.207 -3.35,-3.9883 -6.838,-5.3164 -3.481,-1.3398 -8.153,-2 -14.012,-2 -3.648,0 -7.281,0.2578 -10.891,0.7774 -3.609,0.5195 -6.789,1.1797 -9.519,2 -2.731,0.8125 -5.801,1.9023 -9.18,3.2695 l -5.18,-14.6484 c 1.372,-0.6485 3.161,-1.3711 5.379,-2.1485 2.211,-0.7812 4.832,-1.5312 7.86,-2.2422 3.019,-0.7187 6.441,-1.3203 10.25,-1.8086 3.812,-0.4921 7.992,-0.7304 12.551,-0.7304 6.179,0 11.8,0.6211 16.84,1.8476 z M 893.828,162.648 c 1.793,0.68 3.473,2.063 5.031,4.153 1.563,2.078 2.34,4.359 2.34,6.828 0,1.699 -0.488,3.519 -1.461,5.473 -0.976,1.957 -2.457,3.57 -4.449,4.839 -1.98,1.27 -4.211,1.899 -6.68,1.899 -1.828,0 -3.718,-0.418 -5.668,-1.27 -1.953,-0.84 -3.632,-2.261 -5.031,-4.25 -1.398,-1.98 -2.101,-4.211 -2.101,-6.691 0,-1.688 0.339,-3.25 1.031,-4.68 0.68,-1.437 1.609,-2.711 2.781,-3.808 1.168,-1.11 2.52,-1.969 4.051,-2.59 1.527,-0.621 3.18,-0.93 4.937,-0.93 1.692,0 3.43,0.34 5.219,1.027 z M 900.621,40.4297 V 141.602 H 868 v -12.793 c 2.801,-0.188 7.191,-0.719 13.18,-1.559 V 40.4297 h 19.441 z M 769.488,121.68 c 3.973,5.398 9.731,8.109 17.282,8.109 7.16,0 12.421,-2.277 15.769,-6.84 3.359,-4.558 5.031,-11 5.031,-19.328 v -4.5897 h -44.922 c 0.59,9.6987 2.872,17.2497 6.84,22.6487 z m 38.434,-82.7581 c 4.906,0.6172 9.476,1.5781 13.719,2.8789 l -3.813,14.8398 c -3.187,-0.9101 -6.898,-1.6718 -11.137,-2.289 -4.23,-0.6211 -8.589,-0.9297 -13.082,-0.9297 -9.699,0 -17.031,2.7187 -21.968,8.1484 -4.95,5.4414 -7.821,13.2695 -8.602,23.4883 h 64.551 c 0.262,3.3828 0.39,7.3203 0.39,11.8203 0,15.1721 -3.41,26.8201 -10.25,34.9611 -6.839,8.14 -16.992,12.199 -30.468,12.199 -7.231,0 -13.641,-1.277 -19.242,-3.848 -5.598,-2.582 -10.282,-6.203 -14.059,-10.89 -3.781,-4.692 -6.641,-10.301 -8.59,-16.852 -1.961,-6.539 -2.93,-13.7498 -2.93,-21.6287 0,-8.0703 1.071,-15.3594 3.219,-21.8711 2.149,-6.5078 5.289,-12.0586 9.418,-16.6484 4.141,-4.5899 9.203,-8.1289 15.192,-10.6016 5.992,-2.4687 12.82,-3.7109 20.511,-3.7109 6.508,0 12.219,0.3125 17.141,0.9336 z m -137.043,1.5078 v 54.7891 c 0,3.121 0.582,6.3832 1.762,9.7612 1.168,3.391 2.961,6.481 5.371,9.282 2.41,2.797 5.398,5.09 8.976,6.879 3.582,1.789 7.813,2.687 12.703,2.687 3.059,0 5.368,-0.199 6.93,-0.59 v 18.364 c -1.762,0.386 -4.301,0.589 -7.621,0.589 -3.25,0 -6.641,-0.601 -10.148,-1.812 -3.524,-1.199 -6.903,-3.328 -10.161,-6.391 -3.261,-3.058 -6.019,-6.91 -8.3,-11.527 L 670,141.602 H 651.441 V 40.4297 h 19.438 z M 539.75,56.7383 c -3.52,1.6914 -6.738,4 -9.672,6.9336 v 25.9765 c 0,5.4727 0.543,10.5116 1.613,15.1406 1.079,4.621 2.661,8.59 4.739,11.91 2.082,3.321 4.648,5.91 7.711,7.762 3.058,1.859 6.55,2.789 10.449,2.789 4.43,0 8.531,-1.129 12.308,-3.371 3.774,-2.25 6.641,-6.117 8.59,-11.617 1.953,-5.5 2.934,-12.262 2.934,-20.2737 0,-3.707 -0.231,-7.2578 -0.684,-10.6367 -0.457,-3.3907 -1.136,-6.543 -2.047,-9.4727 -0.851,-2.668 -2.121,-5.3672 -3.812,-8.1094 -1.699,-2.7304 -4.32,-5.0078 -7.859,-6.8281 -3.551,-1.832 -7.668,-2.7422 -12.36,-2.7422 -4.422,0 -8.39,0.8516 -11.91,2.5391 z M 530.078,0 v 46.5781 c 3,-2.4687 6.582,-4.4375 10.742,-5.8984 4.168,-1.4688 9.121,-2.1992 14.852,-2.1992 7.027,0 13.258,1.1992 18.699,3.6093 5.43,2.4102 9.988,5.9102 13.668,10.5 3.68,4.5899 6.461,10.2383 8.352,16.9415 1.89,6.707 2.828,14.3203 2.828,22.8476 0,8.2691 -1.117,16.4301 -3.367,24.4731 -2.243,8.039 -6.461,14.507 -12.641,19.429 -6.191,4.918 -13.973,7.367 -23.34,7.367 -4.172,0 -8.223,-0.597 -12.16,-1.796 -3.941,-1.211 -7.512,-3.161 -10.691,-5.864 -3.2,-2.699 -5.668,-5.75 -7.43,-9.129 l -0.391,14.743 H 510.648 V 0 h 19.43 z m -98.219,40.4297 v 54.7891 c 0,3.121 0.59,6.3832 1.762,9.7612 1.168,3.391 2.957,6.481 5.367,9.282 2.41,2.797 5.41,5.09 8.992,6.879 3.579,1.789 7.809,2.687 12.692,2.687 3.058,0 5.367,-0.199 6.937,-0.59 v 18.364 c -1.757,0.386 -4.3,0.589 -7.621,0.589 -3.258,0 -6.636,-0.601 -10.16,-1.812 -3.508,-1.199 -6.898,-3.328 -10.148,-6.391 -3.258,-3.058 -6.032,-6.91 -8.309,-11.527 l -0.391,19.141 H 412.43 V 40.4297 h 19.429 z M 304.641,55.0781 c -2.731,1.1133 -4.789,3.0117 -6.153,5.711 -1.367,2.6992 -2.047,5.7226 -2.047,9.039 0,3.7735 0.68,6.961 2.047,9.5703 1.364,2.6016 3.434,4.7227 6.203,6.3399 2.77,1.6328 6.231,2.793 10.399,3.4726 4.16,0.6797 9.082,1.0274 14.75,1.0274 h 7.219 V 62.7891 c -1.168,-1.2305 -2.77,-2.5508 -4.778,-3.9493 -2.019,-1.3984 -4.769,-2.6484 -8.261,-3.7617 -3.481,-1.1093 -6.95,-1.6562 -10.399,-1.6562 -3.25,0 -6.25,0.5469 -8.98,1.6562 z m 14.8,-15.1875 c 4,0.9492 7.508,2.2188 10.539,3.8086 3.032,1.6016 5.52,3.3711 7.469,5.3321 l 0.391,-8.6016 h 18.359 v 69.6293 c 0,5.863 -0.758,10.902 -2.289,15.14 -1.531,4.231 -3.89,7.711 -7.082,10.449 -3.187,2.731 -7.25,4.75 -12.156,6.051 -4.922,1.301 -10.731,1.949 -17.434,1.949 -3.386,0 -7,-0.179 -10.84,-0.527 -3.839,-0.359 -7,-0.769 -9.468,-1.223 -2.481,-0.457 -6.45,-1.398 -11.918,-2.839 v -15.821 c 4.226,1.5 8.66,2.801 13.277,3.91 4.621,1.114 9.672,1.661 15.141,1.661 4.359,0 8.461,-0.5 12.3,-1.508 3.84,-1.012 6.692,-2.903 8.551,-5.672 1.848,-2.77 2.778,-6.688 2.778,-11.758 v -5.473 c -0.321,0 -0.989,-0.019 -2,-0.046 -1.008,-0.043 -2.071,-0.051 -3.168,-0.051 -1.11,0 -2.172,-0.02 -3.18,-0.051 -1.012,-0.031 -1.641,-0.051 -1.902,-0.051 -5.93,-0.129 -11.278,-0.551 -16.071,-1.269 -4.777,-0.719 -9.097,-1.821 -12.937,-3.3206 -6.832,-2.7305 -12.012,-6.5899 -15.52,-11.5703 -3.519,-4.9805 -5.281,-11.3086 -5.281,-19 0,-5.5274 0.828,-10.2305 2.488,-14.1094 1.66,-3.8711 3.91,-7.0313 6.742,-9.4688 2.829,-2.4414 6.149,-4.2226 9.961,-5.3203 3.809,-1.1093 7.829,-1.6601 12.059,-1.6601 3.449,0 7.18,0.4687 11.191,1.4101 z M 172.34,56.7383 c -3.52,1.6914 -6.738,4 -9.668,6.9336 v 25.9765 c 0,5.4727 0.539,10.5116 1.609,15.1406 1.078,4.621 2.649,8.59 4.739,11.91 2.082,3.321 4.652,5.91 7.71,7.762 3.059,1.859 6.551,2.789 10.45,2.789 4.429,0 8.531,-1.129 12.308,-3.371 3.774,-2.25 6.641,-6.117 8.59,-11.617 1.953,-5.5 2.934,-12.262 2.934,-20.2737 0,-3.707 -0.231,-7.2578 -0.684,-10.6367 -0.457,-3.3907 -1.137,-6.543 -2.047,-9.4727 -0.851,-2.668 -2.121,-5.3672 -3.812,-8.1094 -1.699,-2.7304 -4.321,-5.0078 -7.86,-6.8281 -3.55,-1.832 -7.668,-2.7422 -12.359,-2.7422 -4.422,0 -8.391,0.8516 -11.91,2.5391 z M 162.672,0 v 46.5781 c 3,-2.4687 6.578,-4.4375 10.738,-5.8984 4.168,-1.4688 9.121,-2.1992 14.852,-2.1992 7.027,0 13.258,1.1992 18.699,3.6093 5.43,2.4102 9.988,5.9102 13.668,10.5 3.68,4.5899 6.461,10.2383 8.351,16.9415 1.891,6.707 2.829,14.3203 2.829,22.8476 0,8.2691 -1.118,16.4301 -3.368,24.4731 -2.242,8.039 -6.461,14.507 -12.64,19.429 -6.192,4.918 -13.973,7.367 -23.34,7.367 -4.172,0 -8.223,-0.597 -12.16,-1.796 -3.942,-1.211 -7.512,-3.161 -10.692,-5.864 -3.199,-2.699 -5.668,-5.75 -7.429,-9.129 l -0.391,14.743 H 143.238 V 0 h 19.434 z M 65.1406,40.6289 c 6.1211,1.75 11.3086,4.3399 15.5703,7.7617 4.2696,3.418 7.5196,7.6289 9.7696,12.6485 2.2383,5.0117 3.3711,10.7422 3.3711,17.1797 0,6.6523 -1.0821,12.2109 -3.2305,16.7031 -2.1406,4.5 -4.9922,8.2891 -8.543,11.3791 -3.5468,3.09 -7.6679,5.679 -12.3476,7.758 -4.6914,2.089 -9.5703,4.07 -14.6524,5.961 -4.6289,1.628 -8.8593,3.191 -12.6992,4.691 -3.8398,1.5 -7.1601,3.141 -9.9609,4.93 -2.7969,1.789 -4.9571,3.859 -6.4883,6.199 -1.5313,2.351 -2.3008,5.211 -2.3008,8.601 0,6.7 2.4297,11.84 7.2813,15.43 4.8515,3.57 11.6289,5.367 20.3593,5.367 3.9102,0 7.8907,-0.258 11.961,-0.789 4.0703,-0.519 8.0312,-1.25 11.8711,-2.187 3.8398,-0.953 7.4179,-2.043 10.7382,-3.274 v 17.672 c -1.371,0.328 -3.6289,0.93 -6.789,1.809 -3.1602,0.883 -7.1406,1.66 -11.961,2.34 -4.8203,0.691 -10.0312,1.031 -15.6289,1.031 -7.3515,0 -13.9804,-0.899 -19.8711,-2.692 -5.8906,-1.789 -10.8906,-4.339 -14.9882,-7.66 C 12.5,168.172 9.33984,164.129 7.12891,159.379 4.91016,154.621 3.80859,149.32 3.80859,143.461 c 0,-3.652 0.39063,-7.109 1.17188,-10.402 0.78125,-3.289 2.39062,-6.579 4.82812,-9.86 2.45311,-3.289 5.44141,-6.129 8.99221,-8.5 3.5508,-2.379 7.0586,-4.308 10.5508,-5.808 3.4765,-1.5 7.1679,-2.93 11.0781,-4.301 4.1016,-1.559 8.6719,-3.34 13.7187,-5.3205 5.043,-1.9882 9.3633,-4.6601 12.9414,-8.0078 3.5821,-3.3515 5.3711,-7.7617 5.3711,-13.2304 0,-3.2618 -0.6289,-6.6797 -1.9023,-10.25 -1.2695,-3.5899 -4.2695,-6.6016 -8.9883,-9.043 -4.7187,-2.4375 -11.3086,-3.6602 -19.7695,-3.6602 -4.1719,0 -8.6602,0.3907 -13.4805,1.1719 -4.8203,0.7813 -9.332,1.8594 -13.5312,3.2188 -4.1875,1.371 -7.23832,2.5429 -9.12894,3.5195 L 0,46.8789 c 1.37109,-0.6484 3.35156,-1.4805 5.96094,-2.4883 2.59765,-1.0117 5.78906,-1.9922 9.57036,-2.9297 3.7695,-0.9492 8.0468,-1.7617 12.8398,-2.4414 4.7773,-0.6914 10.0703,-1.0312 15.8672,-1.0312 7.8125,0 14.7812,0.8828 20.9023,2.6406 v 0" />
      </g>
   </g>
</svg>