<?xml version="1.0" encoding="utf-8"?>
<!-- Generator: Adobe Illustrator 25.3.0, SVG Export Plug-In . SVG Version: 6.00 Build 0)  -->
<svg version="1.1" id="Ebene_1" xmlns="http://www.w3.org/2000/svg" xmlns:xlink="http://www.w3.org/1999/xlink" x="0px" y="0px"
	 viewBox="0 0 1807.1 565" style="enable-background:new 0 0 1807.1 565;" xml:space="preserve">
<style type="text/css">
	.st0{fill:#4E5E67;}
	.st1{fill:#FF9002;}
	.st2{fill:#FF9102;}
	.st3{fill:#FF6602;}
	.st4{fill:#FF5603;}
	.st5{fill:#FF7705;}
	.st6{fill:#FF9204;}
	.st7{fill:#FF7302;}
	.st8{fill:#FF8604;}
	.st9{fill:#FF6B06;}
</style>
<g>
	<path class="st0" d="M930.9,360.9c-16,0-31,0-46,0c-10.1,0-10.5,0.5-7.7,10.5c6.2,22.3,19.7,39,39.5,50.7
		c16.6,9.8,34.7,14.2,53.7,14.7c23.9,0.6,47.5-1.8,70.3-9.3c14.9-4.9,28.7-11.9,40.7-22.2c1.1-1,2.2-2.1,3.4-2.7
		c1.8-0.9,3.4-0.6,3.9,1.8c0.1,0.3,0.1,0.6,0.1,0.9c-0.2,14.9,1.1,30-2,44.7c-4.5,21.5-17.1,37-36.1,47.4
		c-15.7,8.6-32.7,12.9-50.2,15.1c-23.7,3.1-47.5,4.9-71,0c-72.4-15.3-120.1-58.8-139.7-129.7c-16.7-60.4-9.1-119.7,22.1-174.3
		c27.6-48.3,70.5-74.7,125.9-81c33.1-3.8,64.5,1.4,93.4,18c44.1,25.4,66.8,64.4,70.6,114.8c0.7,9.9,0.5,19.9-1.3,29.8
		c-3.9,21.9-15.3,38.4-34.7,49.3c-18.2,10.3-38.3,14.4-58.7,17.4C981.5,360.5,955.6,360.6,930.9,360.9z M917.8,295.1
		c13.9,0.3,30.9-0.2,47.9-1.8c12.5-1.2,25.1-2.8,36.7-8.2c7.6-3.6,13.4-9,14.7-17.5c3.1-21.2-3.2-43.2-25.6-55.1
		c-9.8-5.2-20.4-7.4-31.2-8.4c-22.8-2.2-43.1,3.6-59.7,19.9c-18.8,18.3-25.7,41.4-26,67c0,3.8,2,4.2,5,4.2
		C891.2,295.1,902.9,295.1,917.8,295.1z"/>
	<path class="st0" d="M609.6,395.2c8.6-17.1,15.3-33,21.7-49.1c24.9-62.9,42.8-127.8,54.3-194.5c0.7-4.3,1.5-8.7,2-13
		c0.3-3,1.8-3.9,4.6-3.9c14.7,0.2,29.4-0.5,44,0.6c18.5,1.4,28.1,11.9,31.2,30.2c2.7,16.2-1.2,31.6-4.8,46.9
		c-13.9,59.6-35.4,116.6-60.2,172.5c-17.7,39.7-37.2,78.5-61,114.9c-7.5,11.4-7.5,10.9-20.8,11.5c-25.2,1.1-44-9.3-58-30
		c-13.8-20.5-25.5-42.2-36.1-64.4c-33.8-71-60.3-144.4-77.4-221.2c-4-18.1-7-36.3-8.9-54.7c-0.6-6.2-0.7-6.3,5.8-6.4
		c13.8-0.1,27.6-0.2,41.4,0c27.8,0.4,49.1,18.6,54.1,46c9.4,51.4,21.9,102.1,40.4,151C589.9,352.9,598.7,373.7,609.6,395.2z"/>
	<path class="st0" d="M1599,416.2c-0.5,16.7,1.9,33.4-2,49.9c-4.2,17.5-15.4,29.3-31.5,36.7c-13,6-27,8-41.1,8.4
		c-18.9,0.5-37.5-1.4-55.7-6.8c-42-12.6-67.2-41.1-77.7-83.2c-3.8-15.2-5.4-30.6-5.4-46.2c0-75.7,0-151.4,0-227.1
		c0-9.7,0.3-19.5,2.7-28.8c6.7-26.5,22.7-46.5,45-61.9c11.8-8.1,25.2-6.6,38.3-6.5c1.8,0,2.5,1.3,2.6,2.9c0.1,2.3,0.2,4.7,0.2,7
		c0,22,0,44,0,66c0,8,0.1,8.1,8.4,8.1c35.2,0,70.5,0,105.7,0c2.1,0,4.1,0.1,6.2,0c2.8-0.1,4.4,0.8,4.4,4
		c-0.2,13.2,0.7,26.5-0.6,39.6c-1.4,13.6-9.6,23.7-21.3,30.7c-10.4,6.3-21.9,8.1-33.8,8.1c-20.3,0.1-40.5,0-60.8,0
		c-8.1,0-8.1,0.1-8.1,8.3c0,45.2-0.1,90.4,0,135.6c0,8.8,0.6,17.6,2.5,26.2c5.5,25,18.6,38.1,44,40.9c22.3,2.4,44.5,0.2,65.8-7.8
		C1590.6,418.9,1593.7,415.6,1599,416.2z"/>
	<path class="st0" d="M1232.5,392.8c0,34.6,0,69.3,0,103.9c0,2.1-0.1,4.1,0,6.2c0.1,2.4-0.8,3.9-3.5,3.9
		c-15.5-0.4-31.1,1.5-46.4-3.1c-24.5-7.4-38.7-25.2-40-50.8c-0.1-2.3-0.1-4.7-0.1-7c0-56.6,0-113.3,0-169.9
		c0-26.1,4.4-51.4,15.7-75.1c18.7-39.4,50.1-61.7,93.2-67.8c17.6-2.5,35.1-2.9,52.4,1.8c30,8.1,46.1,29.3,46.2,60.4
		c0,8.5-0.1,17,0,25.5c0,3.7-1.7,4.8-5,3.8c-2.2-0.7-4.4-1.7-6.6-2.5c-19.7-7-39.7-10.2-60.5-6.3c-17.1,3.3-29.3,12.8-36.6,28.6
		c-6.8,14.7-8.6,30.4-8.7,46.3C1232.4,324.8,1232.5,358.8,1232.5,392.8z"/>
	<path class="st1" d="M295.7,395.4c21.4,5.6,42.8,11.2,64.2,16.9c21.1,5.6,42.3,11.2,63.4,17c5.6,1.5,11.4,2.5,15.9,6.7
		c0,4.4-0.3,8.8,0.1,13.1c1.1,12-1.7,22.5-10.6,31c-8.8,5.2-18.1,8.2-28.4,7c-5.6-0.6-8.2,2-8.7,7.3c-16.1-6.3-31.2-14.7-46.7-22.3
		c-19.7-9.6-39.3-19.6-59-29.4c-0.7-0.4-1.4-0.9-2.1-1.3c0,0,0.3,0.2,0.3,0.2c-0.6-1.8-2.1-2.1-3.8-2c0,0,0.2,0.2,0.2,0.2
		c-0.4-1.9-1.8-2.8-3.3-3.9c-7.9-6.1-16.3-11.4-24.8-16.5c-17.9-10.6-36-20.7-56.7-25.1c-17.8-3.8-32.5,3.9-38.3,20.9
		c-3.4,10-5.1,20.3-5.4,30.9c-0.5,17.2,1.4,34.5-1.8,51.7c-2.6,14.3-5.9,28.2-19.5,36.6c-8.6,0.7-16.1-1.9-22.9-7
		c-8.9-6.6-17.5-13.5-24-22.8c-2.5-3.5-5.6-6.8-9.5-9c6.5-11.8,14.8-22.4,22.1-33.7c6.4-9.8,13.1-19.4,19.2-29.4
		c6.1-10,10.7-20.7,12.3-32.6c0.7-5.7-0.6-11.1-0.8-16.6c0-8.9-3.3-16.3-9.1-23c-8.4-9.6-19.4-14.6-31.4-18
		c-9-2.5-18.3-3.8-27.4-4.8c-10.3-1.1-20.8-0.3-31.6-0.3c0.4,3.5,0.7,6,1,8.6c-3.8,0.4-7.6,0.1-11.4-0.8C5,342.5-1.9,332,0.4,319.7
		c2-10.7,12.8-18.3,24.3-16.8c26.5,3.4,52.9,6.6,79.3,10.5c18.1,2.7,33.6-2.6,47.6-13.3c19-14.4,28.3-34.5,33.7-57.1
		c6.9-28.5,1.7-55.3-10.3-81.2c-6.3-13.5-13.5-26.6-20.3-39.9c-1.5-2.9-3.1-5.7-4.3-8.7c-3.9-9.4,0-19.4,9-23.7
		c9.4-4.4,20-0.9,24.7,8.5c1.3,2.6,2.2,5.4,3.2,8.2c3.8,10.5,7.9,20.8,11.2,31.4c6.7,21.3,22.1,30.7,43.3,32.4
		c1.8,0.1,3.5,0.3,5.3,0.4c-3.8,6.5-8,12.7-11.4,19.4c-6.4,12.6-13.8,24.8-18.5,38.3c-12.5,28.2-21.8,57.1-17.7,88.6
		c1.6,12.6,5.3,24.6,12.2,35.2c11.9,18.1,29.2,29.1,49,36.5C272,392.7,283.5,395.9,295.7,395.4z"/>
	<path class="st0" d="M1646.4,275c0-43.1,0-86.2,0-129.4c0-2.1,0.1-4.1,0-6.2c-0.2-3.2,0.9-4.9,4.4-4.8c12,0.4,24.1-1,36,1.2
		c27.6,5,44,22.3,47.7,50.1c0.9,7,1.4,14,1.4,21c-0.1,57.8-0.1,115.6,0,173.4c0,8.5,0,17,2.1,25.4c3.3,13.1,11.3,21.5,24.2,25.4
		c11.4,3.4,23.2,3.3,34.9,3.3c11,0,9.9-1.2,9.9,9.8c-0.1,9.7,0.5,19.3-1.3,28.9c-4.4,22.7-15.8,34.1-38.7,36.6
		c-19.1,2-38.1,0.6-56.5-5.7c-34.1-11.7-52.5-36.8-60.3-70.8c-3-13.2-3.9-26.6-3.9-40.2C1646.4,353.6,1646.4,314.3,1646.4,275z"/>
	<path class="st2" d="M1635.8,54.2c0.2-29.8,24.5-54.1,54.5-54.2c30.5-0.1,55.2,24.9,55,55.6c-0.3,29.7-24.8,54.1-54.6,54.2
		C1660.1,109.8,1635.6,85,1635.8,54.2z"/>
	<path class="st3" d="M217.2,228.2c4.7-13.5,12.1-25.7,18.5-38.3c3.4-6.7,7.6-13,11.4-19.4c9.6-0.2,18.8-2.5,28.2-4
		c0,3.3,2.4,5.1,4.5,7.1c3.7,3.7,7.4,7.4,11.1,11.1c2.1,2.1,4.1,4.2,4.2,7.4c-11.6,5.7-13.7,18.2-4.7,27.3
		c4.2,4.2,8.8,7.8,14.1,10.4c5.8,2.8,11.7,5.5,17.3,8.6c10.4,5.7,13.7,17.6,7.6,27c-6.1,9.4-18.2,11.2-27.7,3.9
		c-6.5-5-12.7-10.5-19.1-15.6c-4.8-3.9-9.9-7.4-15.2-10.4c-10.1-5.7-20.3-7.2-30.8-1c-2.4-0.9-3-3.4-4.4-5.1
		C228.1,232.6,224.2,228,217.2,228.2z"/>
	<path class="st4" d="M130.8,534.7c13.6-8.5,16.8-22.3,19.5-36.6c3.2-17.2,1.2-34.5,1.8-51.7c0.3-10.6,2-20.9,5.4-30.9
		c5.8-17.1,20.5-24.7,38.3-20.9c20.7,4.4,38.8,14.5,56.7,25.1c8.6,5,16.9,10.4,24.8,16.5c1.4,1.1,2.9,2,3.3,3.9
		c-5.4-1.4-10.2-4.4-15.1-6.8c-15.1-7.3-30.7-13.1-47.3-15.6c-8.4-1.3-16.9-1.6-25.3,0.5c-15.6,4-25.1,14.9-26.7,31
		c-2.3,24.2-4.8,48.4-6.7,72.6c-1,12.2-5.7,22.3-14.5,30.6c0-3.3-2.6-4.9-4.4-6.9C137.3,541.8,134,538.2,130.8,534.7z"/>
	<path class="st5" d="M295.1,192.1c-0.1-3.2-2-5.3-4.2-7.4c-3.7-3.7-7.4-7.4-11.1-11.1c-2-2-4.5-3.8-4.5-7.1
		c21.1-7.1,39.1-19.5,56.4-33c4.5-3.5,9.5-5.8,15.4-5.1c7.8,0.9,14.5,6.8,16.2,14.2c2,8.6-1.2,16.7-9.2,20.8
		c-9.3,4.9-18.9,9.2-28.5,13.6C315.4,181.8,304.9,186.4,295.1,192.1z"/>
	<path class="st4" d="M217.2,228.2c6.9-0.3,10.9,4.4,14.9,9c1.5,1.7,2,4.2,4.4,5.1c-31.4,27.5-35,92,5.5,124.3
		c13.9,11.1,29.1,19.4,45.7,25.5c2.7,1,5.7,1.3,8,3.4c-12.2,0.5-23.7-2.7-34.9-6.9c-19.8-7.4-37.2-18.4-49-36.5
		c-7-10.6-10.6-22.6-12.2-35.2C195.5,285.3,204.7,256.5,217.2,228.2z"/>
	<path class="st6" d="M134.8,243.6c0,16.6-12.9,29.6-29.3,29.7c-16.5,0-29.4-13.1-29.3-29.7c0.1-16.4,13.4-29.5,29.8-29.2
		C121.9,214.6,134.7,227.6,134.8,243.6z"/>
	<path class="st7" d="M130.8,534.7c3.2,3.5,6.5,7,9.7,10.6c1.9,2,4.5,3.6,4.4,6.9c-6.5,7.4-15,10.9-24.6,12.2
		c-0.1-1.5-0.6-2.8-1.7-3.9c-14.8-14.8-29.6-29.6-44.3-44.4c-1.8-1.8-3.7-2.7-6.2-2.5c0.7-6.4,2.1-12.5,6.3-17.6
		c3.9,2.2,7,5.5,9.5,9c6.5,9.3,15.1,16.1,24,22.8C114.7,532.8,122.3,535.4,130.8,534.7z"/>
	<path class="st8" d="M68.1,513.6c2.5-0.1,4.4,0.8,6.2,2.5c14.7,14.8,29.5,29.6,44.3,44.4c1.1,1.1,1.6,2.4,1.7,3.9
		C88.3,570,63,540.3,68.1,513.6z"/>
	<path class="st9" d="M28.7,346.2c-0.3-2.5-0.6-5.1-1-8.6c10.8,0,21.3-0.9,31.6,0.3c9.2,1,18.4,2.2,27.4,4.8
		c12,3.4,22.9,8.4,31.4,18c5.8,6.6,9.1,14.1,9.1,23c-0.7-1.3-1.6-2.4-2.1-3.8c-6.5-17-19.5-24.9-37-26.6
		c-17.2-1.7-34.4-3.7-51.6-5.6C33.8,347.4,31.3,346.7,28.7,346.2z"/>
	<path class="st3" d="M428.7,480.1c8.9-8.5,11.7-19,10.6-31c-0.4-4.3-0.1-8.8-0.1-13.1c19.9,10.5,23.5,43.6,3.9,58.4
		C436.2,491.9,431.5,487,428.7,480.1z"/>
	<path class="st5" d="M428.7,480.1c2.8,6.8,7.5,11.7,14.5,14.2c-11,10.6-23.9,11.7-37.8,7.1c-4.9-1.6-9.6-3.9-13.8-7
		c0.5-5.3,3.1-8,8.7-7.3C410.6,488.4,419.9,485.3,428.7,480.1z"/>
	<path class="st4" d="M280.3,439.8c1.6-0.1,3.1,0.1,3.8,2C282.6,441.5,281.1,441.4,280.3,439.8z"/>
	<path class="st4" d="M283.8,441.5c0.7,0.4,1.4,0.9,2.1,1.3C284.9,442.9,284.2,442.5,283.8,441.5z"/>
</g>
</svg>
