<svg id="Ebene_1" data-name="Ebene 1" xmlns="http://www.w3.org/2000/svg" viewBox="0 0 163.51 40" width="267" height="150"><defs><style>.cls-1{fill:#1d1d1b;}.cls-1,.cls-2{fill-rule:evenodd;}.cls-2{fill:#e20613;}</style></defs><path class="cls-1" d="M116.5,19l-14,19.66h4.1l3.88-5.38h16l3.49,5.38h5L122.3,19Zm2.35,2.49-6.38,9.23h12.25Z"/><path class="cls-1" d="M162.51,28.14h-14.1V30.7h9c0,.29-.86,6-9,6.13-5.42,0-10.47-2.39-10.3-8,.4-5.45,4.63-7.59,10-7.73s8.33,2.07,8.8,4.1h5c-2-3.81-7.3-6.31-13.78-6.31-7.8,0-14.93,4.53-14.75,10.3,0,6,6.73,9.79,15,9.79s14.25-4.77,14.14-10.86"/><polygon class="cls-1" points="76.14 18.98 81.13 18.98 93.6 36.69 106.52 18.98 110.87 18.98 96.62 38.68 89.43 38.68 76.14 18.98"/><polygon class="cls-2" points="82.02 16.99 85.05 21.34 96.8 5.27 93.77 1 82.02 16.99"/><polygon class="cls-1" points="5.59 32.02 10.79 28.6 20.09 38.68 25.93 38.68 14.39 26.29 25.36 18.98 19.7 18.98 5.59 28.28 5.59 19.02 1 19.02 1 38.68 5.59 38.68 5.59 32.02"/><path class="cls-1" d="M27.43,19V38.68H32V30h7.3l7.16,8.69h5.41l-7.48-8.8a9.2,9.2,0,0,0,1.11-.07,8.86,8.86,0,0,0,1.85-.43c1.82-.57,4.06-1.85,4.27-4.66.18-2.24-1.56-5.81-7.73-5.77H27.43Zm17.48,8.36a2.73,2.73,0,0,0,2.49-2.77,2.84,2.84,0,0,0-2.63-3s-.75-.07-1.28-.07H32v5.92H43.31a7.35,7.35,0,0,0,1.6-.08"/><path class="cls-1" d="M64.78,19l-14,19.66h4.09l3.89-5.38h16l3.45,5.38h5L70.59,19Zm2.39,2.49L60.8,30.74H73.05Z"/><polygon class="cls-2" points="86.22 22.97 89.29 27.32 101 11.26 97.98 7.02 86.22 22.97"/><polygon class="cls-2" points="90.46 28.99 93.49 33.34 105.24 17.28 102.22 13 90.46 28.99"/></svg>
