<?xml version="1.0" encoding="UTF-8"?>
<svg xmlns="http://www.w3.org/2000/svg" version="1.1" viewBox="0 0 128 64">
  <defs>
    <style>
      .cls-1 {
        fill: #1d1d1b;
      }

      .cls-1, .cls-2 {
        fill-rule: evenodd;
      }

      .cls-2 {
        fill: #e20613;
      }
    </style>
  </defs>
  <!-- Generator: Adobe Illustrator 28.6.0, SVG Export Plug-In . SVG Version: 1.2.0 Build 709)  -->
  <g>
    <g id="Ebene_1">
      <g>
        <path class="cls-1" d="M91.2,31.2l-11,15.4h3.2l3-4.2h12.5l2.7,4.2h3.9l-9.9-15.4h-4.5ZM93.1,33.2l-5,7.2h9.6l-4.6-7.2Z"/>
        <path class="cls-1" d="M127.2,38.4h-11v2h7c0,.2-.7,4.7-7,4.8-4.2,0-8.2-1.9-8.1-6.3.3-4.3,3.6-5.9,7.8-6.1s6.5,1.6,6.9,3.2h3.9c-1.6-3-5.7-4.9-10.8-4.9s-11.7,3.5-11.6,8.1c0,4.7,5.3,7.7,11.7,7.7s11.2-3.7,11.1-8.5"/>
        <polygon class="cls-1" points="59.6 31.2 63.5 31.2 73.3 45.1 83.4 31.2 86.8 31.2 75.6 46.6 70 46.6 59.6 31.2"/>
        <polygon class="cls-2" points="64.2 29.7 66.6 33.1 75.8 20.5 73.4 17.1 64.2 29.7"/>
        <polygon class="cls-1" points="4.3 41.4 8.4 38.7 15.7 46.6 20.3 46.6 11.2 36.9 19.8 31.2 15.4 31.2 4.3 38.5 4.3 31.2 .7 31.2 .7 46.6 4.3 46.6 4.3 41.4"/>
        <path class="cls-1" d="M21.4,31.2v15.4h3.6v-6.8h5.7l5.6,6.8h4.2l-5.9-6.9c.3,0,.6,0,.9,0,.5,0,1-.2,1.4-.3,1.4-.4,3.2-1.4,3.3-3.7.1-1.8-1.2-4.6-6.1-4.5h-12.9ZM35.1,37.8c1.1,0,2-1,2-2.2,0-1.2-.8-2.3-2.1-2.3,0,0-.6,0-1,0h-9v4.6h8.9c.4,0,.8,0,1.3,0"/>
        <path class="cls-1" d="M50.7,31.2l-11,15.4h3.2l3-4.2h12.5l2.7,4.2h3.9l-9.9-15.4h-4.6ZM52.6,33.2l-5,7.2h9.6l-4.6-7.2Z"/>
        <polygon class="cls-2" points="67.5 34.3 69.9 37.7 79.1 25.2 76.7 21.8 67.5 34.3"/>
        <polygon class="cls-2" points="70.8 39 73.2 42.5 82.4 29.9 80 26.5 70.8 39"/>
      </g>
    </g>
  </g>
</svg>