<svg data-name="Ebene 1" xmlns="http://www.w3.org/2000/svg" xmlns:xlink="http://www.w3.org/1999/xlink" viewBox="0 0 180.57 40"><style>.svgCl0,.svgCl1{fill:none}.svgCl2{fill:#1d1d1b}.svgCl1{stroke:#1d1d1b;stroke-width:.78px}</style><defs><linearGradient id="svgId0" x1="-534.26" y1="498.34" x2="-533.68" y2="498.34" gradientTransform="matrix(0 19 19 0 -9449.6 10172.49)" gradientUnits="userSpaceOnUse"><stop offset="0" stop-color="#00a774"/><stop offset="1" stop-color="#fff"/></linearGradient><linearGradient id="svgId1" x1="-577.54" y1="489.47" x2="-576.96" y2="489.47" gradientTransform="matrix(0 -58.2 -58.2 0 28542.45 -33579.01)" gradientUnits="userSpaceOnUse"><stop offset="0" stop-color="#fff"/><stop offset="1" stop-color="#00a774"/></linearGradient><linearGradient id="svgId2" x1="-556.12" y1="493.59" x2="-555.54" y2="493.59" gradientTransform="matrix(0 58.2 58.2 0 -28710.04 32369.49)" xlink:href="#svgId1"/><clipPath id="svgId3"><path class="svgCl0" d="M17.17 30.23h7.2V19.99l-7.2 10.24z"/></clipPath><clipPath id="svgId4"><path class="svgCl0" d="M70.32 1.88L46.15 35.39H37.5V1.88h6.76v25.07L62.58 1.88h7.74z"/></clipPath><clipPath id="svgId5"><path class="svgCl0" d="M1.88 35.39L26.05 1.88h8.64v33.51h-6.76V10.31L9.62 35.39H1.88z"/></clipPath></defs><path class="svgCl2" d="M79.63 1.44h3.48L86.8 16.5h-2.94l-.64-3.17H79.5l-.64 3.17h-2.94zm.37 9.39h2.74L81.38 4zM87.55 5.15h2.58v1.16h.05a2.94 2.94 0 012.66-1.44 2.3 2.3 0 012.42 1.81h.06A2.59 2.59 0 0198 4.87c1.78 0 2.63 1.21 2.63 3.4v8.23H97.9V8.56c0-1-.29-1.47-1.06-1.47s-1.42.64-1.42 1.91v7.5h-2.71V8.56c0-1-.28-1.47-1.06-1.47s-1.42.64-1.42 1.91v7.5h-2.71V5.15zM102.2 5.15h2.58v1.16a3 3 0 012.66-1.44 2.31 2.31 0 012.43 1.81 2.59 2.59 0 012.66-1.81c1.78 0 2.63 1.21 2.63 3.4v8.23h-2.71V8.56c0-1-.29-1.47-1.06-1.47s-1.42.64-1.42 1.93v7.48h-2.71V8.56c0-1-.28-1.47-1-1.47s-1.42.64-1.42 1.93v7.48h-2.71V5.15zM119.18 11.27v.9c0 1.32.33 2.63 1.34 2.63s1.26-.75 1.42-2.14h2.42c-.1 2.63-1.26 4.1-3.81 4.1-3.93 0-4.08-3.25-4.08-6.06 0-3 .54-5.86 4.2-5.86 3.15 0 3.87 2.27 3.87 5.76v.64h-5.36zm2.76-1.73c0-1.73-.26-2.71-1.37-2.71s-1.39 1.17-1.39 2.24v.47zM125.76 5.15h2.58v1.53a2.73 2.73 0 012.42-1.81 3.87 3.87 0 01.49 0v2.84a7.92 7.92 0 00-.85 0 1.88 1.88 0 00-2 2v6.79h-2.68V5.15zM132.21 1.44h2.7V16.5h-2.7zM136.62 8.64v-.29c0-2.6 1.67-3.51 3.71-3.51 3.23 0 3.82 1.45 3.82 3.49v6a4.71 4.71 0 00.34 2.19h-2.58a4.91 4.91 0 01-.34-1.19 2.54 2.54 0 01-2.68 1.47c-1.89 0-2.56-1.73-2.56-3.25 0-2.14.8-3 2.66-3.53l1.52-.44c.8-.23 1.09-.57 1.09-1.32s-.37-1.39-1.27-1.39S139 7.42 139 8.3v.31h-2.4zm1.06-7.49h2.19v2.48h-2.19zm3.87 9.68a3.4 3.4 0 01-1.17.57 1.66 1.66 0 00-1.52 1.83c0 .85.29 1.57 1 1.57a1.65 1.65 0 001.68-1.75v-2.22zM141 1.15h2.19v2.48H141zM145.88 5.15h2.58v1.32a2.88 2.88 0 012.68-1.63c1.68 0 2.69 1 2.69 3.23v8.43h-2.71V8.66c0-1.13-.36-1.57-1.16-1.57s-1.42.62-1.42 1.88v7.53h-2.71V5.15zM160.92 15.29a2.55 2.55 0 01-2.4 1.5c-2.22 0-3.23-1.76-3.23-6s1-6 3.23-6a2.48 2.48 0 012.27 1.34V1.44h2.71V16.5h-2.58zm-1.55-.75c1.19 0 1.42-1.26 1.42-3.74s-.23-3.74-1.42-3.74S158 8.33 158 10.8s.18 3.74 1.37 3.74zM167.45 11.27v.9c0 1.32.33 2.63 1.34 2.63s1.26-.75 1.42-2.14h2.42c-.1 2.63-1.26 4.1-3.82 4.1-3.92 0-4.07-3.25-4.07-6.06 0-3 .54-5.86 4.2-5.86 3.15 0 3.87 2.27 3.87 5.76v.64h-5.36zm2.76-1.73c-.06-1.73-.26-2.71-1.37-2.71s-1.39 1.17-1.39 2.24v.47zM174 5.15h2.58v1.53h.06a2.73 2.73 0 012.42-1.81 3.87 3.87 0 01.49 0v2.84a8.08 8.08 0 00-.85 0 1.88 1.88 0 00-2 2v6.79H174V5.15zM79 20.09l2 11.12 2.09-11.12H86l-3.23 15h-3.6l-3.2-15zM89 29.89v.91c0 1.31.33 2.63 1.34 2.63s1.26-.75 1.42-2.14h2.42c-.1 2.63-1.26 4.1-3.81 4.1-3.92 0-4.08-3.25-4.08-6.06 0-3 .54-5.86 4.21-5.86 3.14 0 3.87 2.27 3.87 5.75v.65H89zm2.76-1.73c0-1.72-.26-2.7-1.37-2.7S89 26.67 89 27.7v.44h2.76zM95.83 23.78h2.58v1.52a2.75 2.75 0 012.43-1.8 2.81 2.81 0 01.49.05v2.76a8.24 8.24 0 00-.85 0 1.89 1.89 0 00-2 2v6.79h-2.65V23.78zM104.45 31.42v.38c0 1 .49 1.65 1.42 1.65a1.23 1.23 0 001.36-1.34 1.29 1.29 0 00-1-1.29l-1.91-.75a3.08 3.08 0 01-2.24-3.17c0-1.88 1.11-3.4 3.87-3.4 2.45 0 3.61 1.18 3.61 3.22v.46h-2.42c0-1.13-.31-1.7-1.19-1.7a1.16 1.16 0 00-1.26 1.21c0 .55.28 1 1.18 1.32l1.63.59a3 3 0 012.32 3.25c0 2.38-1.65 3.56-3.92 3.56-3 0-3.87-1.44-3.87-3.61v-.41h2.4zM111.39 19.91h2.71v2.48h-2.71zm0 3.87h2.71v11.35h-2.71zM121.19 27.88c0-1.08-.21-2.27-1.21-2.27-1.34 0-1.55 1.27-1.55 3.87 0 2.81.23 4 1.44 4 .91 0 1.32-.82 1.32-2.65h2.58c0 3-1.16 4.64-4 4.64-2.71 0-4-1.42-4-6s1.78-6 4.28-6 3.79 1.7 3.79 4.39h-2.58zM125.27 20.09H128V25a2.71 2.71 0 012.58-1.45c1.67 0 2.68 1 2.68 3.23v8.41h-2.71v-7.85c0-1.14-.36-1.57-1.16-1.57s-1.42.61-1.42 1.88v7.53h-2.71V20.09zM137.49 29.89v.91c0 1.31.34 2.63 1.35 2.63s1.26-.75 1.42-2.14h2.42c-.1 2.63-1.26 4.1-3.82 4.1-3.92 0-4.07-3.25-4.07-6.06 0-3 .54-5.86 4.2-5.86 3.15 0 3.87 2.27 3.87 5.75v.65h-5.37zm2.77-1.73c-.06-1.72-.26-2.7-1.37-2.7s-1.4 1.21-1.4 2.24v.44h2.77zM144.36 23.78h2.58v1.52h.06a2.73 2.73 0 012.42-1.8 2.63 2.63 0 01.49.05v2.76a7.92 7.92 0 00-.85 0 1.88 1.88 0 00-2 2v6.79h-2.71V23.78zM156.4 33.79h-.05a2.85 2.85 0 01-2.68 1.62c-1.68 0-2.68-1-2.68-3.22v-8.41h2.71v7.82c0 1.13.36 1.57 1.16 1.57s1.42-.62 1.42-1.88v-7.54H159V35.1h-2.6v-1.31zM160.89 23.78h2.58v1.32h.05a2.88 2.88 0 012.69-1.63c1.67 0 2.68 1 2.68 3.22v8.41h-2.71v-7.81c0-1.14-.36-1.58-1.16-1.58s-1.42.62-1.42 1.89v7.53h-2.71V23.78zM178.69 23.78v10.78c0 3-1.23 4.44-4.38 4.44-2.3 0-3.59-1.08-3.59-3h2.58a1 1 0 00.41.85 1.61 1.61 0 00.91.31c1.11 0 1.49-.88 1.49-2v-1.5h-.05a2.79 2.79 0 01-2.24 1.4c-2.17 0-3.23-1.58-3.23-5.73 0-2.66.36-5.78 3.31-5.78a2.34 2.34 0 012.16 1.45h.05v-1.25h2.58zm-4.05 9c1.14 0 1.47-1.32 1.47-3.25 0-2.76-.33-3.8-1.41-3.8s-1.42 1-1.42 4.11c.02 1.52.23 2.92 1.36 2.92zM16.3 29.56h7.48V18.88L16.3 29.56zM69.83 1L45.42 34.72H36.7V1h6.84v25.23L62.01 1h7.82z"/><path class="svgCl2" d="M1 34.72L25.38 1h8.72v33.72h-6.81V9.49L8.79 34.72H1z"/><g clip-path="url(#svgId3)"><path fill="url(#svgId0)" d="M17.17 19.99h7.17v10.27h-7.17z"/></g><path class="svgCl1" d="M17.17 30.23h7.2V19.99l-7.2 10.24z"/><g clip-path="url(#svgId4)"><path fill="url(#svgId1)" d="M37.5 1.88h32.81v33.51H37.5z"/></g><path class="svgCl1" d="M70.32 1.88L46.15 35.39H37.5V1.88h6.76v25.07L62.58 1.88h7.74z"/><g clip-path="url(#svgId5)"><path fill="url(#svgId2)" d="M1.88 1.88h32.81v33.51H1.88z"/></g><path class="svgCl1" d="M1.88 35.39L26.05 1.88h8.64v33.51h-6.76V10.31L9.62 35.39H1.88z"/></svg>