<svg xmlns="http://www.w3.org/2000/svg" viewBox="0 0 170.08 31"><title>rhion.digital Logo</title><path fill="#99d6eb" d="M120.73,55.32c0,3.36,1.58,5.1,4.87,5.1a8.89,8.89,0,0,0,5.51-1.85l.24,1.51h2.43V36.17l-2.88.41v7a26.69,26.69,0,0,0-4.76-.51c-3.91,0-5.41,2.12-5.41,5.45v6.82Zm10.17.58a7.71,7.71,0,0,1-4.73,2c-2,0-2.57-.86-2.57-2.57V48.5c0-2,.79-2.91,2.71-2.91a26.84,26.84,0,0,1,4.59.51v9.8Zm11.24,4.18V43.39h-2.88V60.08Zm0-19.35V36.58h-2.88v4.14Zm18.39,2.67h-4.8a10.88,10.88,0,0,0-2.81-.34c-4.76,0-6.51,2.09-6.51,5.72v.75c0,2.19.75,3.84,2.33,4.73a3.76,3.76,0,0,0-1.58,2.95c0,1.54.79,2.84,3.25,3,2,.17,2.57.24,4.42.41s2.47.41,2.47,1.82c0,1.75-.41,2.33-4.66,2.33a26.45,26.45,0,0,1-5.58-.69l-.41,2.26a26.8,26.8,0,0,0,6.06.79c6,0,7.3-1.2,7.3-4.83,0-2.53-1.17-3.7-4.18-4l-4.73-.48c-.75-.07-1.1-.31-1.1-1a2.6,2.6,0,0,1,1.2-1.78,13.15,13.15,0,0,0,1.71.1c4.35,0,6.54-2.09,6.54-5.69v-.75a5.93,5.93,0,0,0-.92-3.32l2-.38V43.39Zm-3.8,5.41v.72c0,2.19-1.06,3.32-3.8,3.32s-3.8-.79-3.8-3.32v-.72c0-2.47,1-3.39,3.8-3.39s3.8,1,3.8,3.39Zm10.55,11.27V43.39H164.4V60.08Zm0-19.35V36.58H164.4v4.14Zm13.8,16.85a10.58,10.58,0,0,1-2.67.41c-1.54,0-1.71-.62-1.71-1.85V45.79h4.49l.24-2.4H176.7V38.87l-2.88.41v4.11h-2.95v2.4h2.95V56.62c0,2.77,1.34,3.8,4.14,3.8a10.38,10.38,0,0,0,3.49-.62l-.38-2.23Zm16.13-9.11c0-3.56-1.58-5.41-6.34-5.41a23.53,23.53,0,0,0-5.48.72l.31,2.3a27.59,27.59,0,0,1,5-.55c2.71,0,3.63.72,3.63,2.81v2.6h-4.45c-3.36,0-5.1,1.23-5.1,4.69,0,2.95,1.3,4.8,4.42,4.8a9.5,9.5,0,0,0,5.41-1.58l.17,1.23h2.43V48.46Zm-2.88,8.12A8.34,8.34,0,0,1,190,58c-2.05,0-2.36-.69-2.36-2.4s.65-2.23,2.43-2.23h4.25v3.25Zm10.82,3.49V36.17l-2.88.41v23.5Z" transform="translate(-35.09 -36.17)"/><path fill="#09c" d="M44.34,47.86l-.41-4.61a15.89,15.89,0,0,0-4.44,1.93l-.34-1.59H35.09V60.1H40V50a23.89,23.89,0,0,1,4.37-2.17Z" transform="translate(-35.09 -36.17)"/><path fill="#09c" d="M61.29,60.1V48.54c0-3.19-1-5.29-3.8-5.29a14.51,14.51,0,0,0-5.9,1.53V36.17l-4.81.68V60.1h4.88V49.22A10.34,10.34,0,0,1,55.22,48a1,1,0,0,1,1.19,1.19V60.1Z" transform="translate(-35.09 -36.17)"/><polygon fill="#09c" points="35.32 5.36 35.32 0.47 30.44 0.47 30.44 5.36 35.32 5.36 35.32 5.36"/><polygon fill="#09c" points="35.32 23.93 35.32 7.42 30.44 7.42 30.44 23.93 35.32 23.93 35.32 23.93"/><path fill="#09c" d="M88.88,53.76V49.93c0-3.39-1.59-6.68-7.46-6.68S74,46.54,74,49.93v3.83c0,3.39,1.59,6.68,7.46,6.68s7.46-3.29,7.46-6.68ZM84,53.89c0,1.56-.81,2.44-2.58,2.44s-2.58-.88-2.58-2.44v-4.1c0-1.56.81-2.44,2.58-2.44S84,48.23,84,49.79v4.1Z" transform="translate(-35.09 -36.17)"/><path fill="#09c" d="M106.94,60.1V48.54c0-3.19-1-5.29-3.8-5.29a16.67,16.67,0,0,0-6.58,1.59l-.51-1.25H92.43V60.1h4.88V49.18A9.56,9.56,0,0,1,100.87,48a1,1,0,0,1,1.19,1.19V60.1Z" transform="translate(-35.09 -36.17)"/><polygon fill="#09c" points="80.97 23.93 80.97 19.05 76.09 19.05 76.09 23.93 80.97 23.93 80.97 23.93"/></svg>
