<svg data-name="Ebene 1" xmlns="http://www.w3.org/2000/svg" viewBox="0 0 278.3 40"><style>.svgCl0{fill:#344b67}</style><defs/><path d="M19.51 1l18.41 22.73 9.36-11.36L38 1H19.51" fill="#7ead27"/><path d="M19.52 1L1 23.63h18.52L38 1H19.52" fill="#99d331"/><path d="M29.58 13.44l-.86-1.06L38 1l-8.42 12.43" fill="#55751a"/><path class="svgCl0" d="M46.63 39l18.51-22.63H46.63L28.13 39h18.5"/><path d="M38.28 26.59l-.86 1.05L46.61 39l-8.33-12.41" fill="#293c4f"/><path d="M46.62 39L28.2 16.27l-9.36 11.36L28.1 39h18.52" fill="#456382"/><path class="svgCl0" d="M99.28 6.12v27.76h-4.21l-9.24-22.65v22.65h-2.58V6.12h3.25l10.12 24.55h.08V6.12h2.58m21.5 0v2.77H112v9.64h6.87v2.78H112V31h8.85v2.82h-11.57V6.12h11.5m20.75 7.14a4.41 4.41 0 00-.53-2.36 4.05 4.05 0 00-1.37-1.39 4.8 4.8 0 00-1.68-.66 9 9 0 00-1.47-.16 7.47 7.47 0 00-1.47.18 4.82 4.82 0 00-1.66.68 4.34 4.34 0 00-1.35 1.39 4.23 4.23 0 00-.58 2.36v13.64a4.12 4.12 0 00.58 2.36 4.06 4.06 0 001.37 1.31 4.39 4.39 0 001.66.58 11.05 11.05 0 001.47.12 9.94 9.94 0 001.47-.14 5 5 0 001.68-.6 3.81 3.81 0 001.35-1.31 4.21 4.21 0 00.56-2.32zm2.66 13.68a8.6 8.6 0 01-.34 2.12 6.86 6.86 0 01-1.23 2.4 7.52 7.52 0 01-2.4 2 8 8 0 01-3.81.81 7.66 7.66 0 01-3.73-.81 7.57 7.57 0 01-2.36-2 7.09 7.09 0 01-1.25-2.4 7.87 7.87 0 01-.36-2.12V13.3a9.1 9.1 0 01.34-2.17 7.27 7.27 0 013.59-4.52 7.81 7.81 0 019.94 2 7.63 7.63 0 011.25 2.48 8.32 8.32 0 01.36 2.17v13.68"/><path d="M155.86 31.89h3.84q4.7 0 4.69-5.76V13.58q0-5.84-4.69-5.84h-3.84zm-2.49 2V5.74h6.33a8.62 8.62 0 012.85.44 5.85 5.85 0 012 1.18 5.73 5.73 0 011.32 1.82 8.89 8.89 0 01.74 2.29 14.53 14.53 0 01.22 2.66v11.45q0 8.31-7.18 8.3h-6.33m21.79-27.76h2.58v27.76h-2.58V6.12m36.69 0h2.58v27.76h-2.58V6.12m25.59 2.65h-6.23v25.11h-2.66V8.77h-6.42V6.12h15.31v2.65m12.42.4q-.79 3.62-1.57 7.12c-.52 2.34-1 4.72-1.57 7.12h6.23zm-5.6 24.67h-2.69l6.34-27.76h3.77L258 33.85h-2.66l-1.74-7.58h-7.66l-1.71 7.58m21.7-27.73h2.74v25h8.65v2.73h-11.41V6.12m-64.88 7a20.1 20.1 0 00-.23-2 9.63 9.63 0 00-.49-1.81 6.85 6.85 0 00-.82-1.5 5 5 0 00-1.19-1.19 6 6 0 00-1.67-.73 8.28 8.28 0 00-2.2-.27 5.6 5.6 0 00-4.85 2.25c-1.26 1.49-1.9 3.75-1.9 6.73v11.86a8.75 8.75 0 00.51 3 7.23 7.23 0 003.7 4.12 6.54 6.54 0 002.85.62 11.39 11.39 0 001.95-.3 14.67 14.67 0 003.67-1.52V23.6h-3.93v2.62h1.31v4.56a8.72 8.72 0 01-1.88.78 5 5 0 01-1 .13 4.24 4.24 0 01-1.72-.36 4.46 4.46 0 01-1.45-1 5 5 0 01-1-1.48 4.21 4.21 0 01-.39-1.85V13.56a9.11 9.11 0 01.25-2.17 5.88 5.88 0 01.19-.64 6 6 0 01.6-1.29 3.91 3.91 0 011.29-1.32 3.42 3.42 0 011.11-.43 3.51 3.51 0 011 0 5 5 0 01.76.14 4.31 4.31 0 01.72.24 3.4 3.4 0 011.11.8A4.15 4.15 0 01198 10a4.91 4.91 0 01.36 1.56c.07.66.11 1.21.13 1.65s0 1.06 0 1.85v.47H201v-.23-2.15" fill="#393536"/></svg>