<?xml version="1.0" encoding="UTF-8"?>
<svg xmlns="http://www.w3.org/2000/svg" version="1.1" viewBox="0 0 128 64">
  <!-- Generator: Adobe Illustrator 28.6.0, SVG Export Plug-In . SVG Version: 1.2.0 Build 709)  -->
  <g>
    <g id="Ebene_1">
      <g>
        <path d="M0,23.2c0,0,0,4.1,0,8.9v8.8s1.8,0,1.8,0h1.8s0-3.7,0-3.7v-3.7s5.4,0,5.4,0h5.3v-3.4h-5.3s-5.4,0-5.4,0v-3.7h7.2s7.1,0,7.1,0v-3.3h-8.9c-7,0-8.9,0-9,.2Z"/>
        <path d="M22.8,32v9h1.8s1.8,0,1.8,0v-3.6s0-3.6,0-3.6h5.4s2.7,3.6,2.7,3.6l2.7,3.6h1.7c.9,0,1.8,0,1.8-.1,0,0-1-1.7-2.3-3.5s-2.3-3.5-2.2-3.5c0,0,.4-.2.7-.3.8-.2,2-1,2.5-1.6,1-1.3,1.4-2.9,1.2-4.2-.4-2.2-1.9-3.9-4.1-4.4-.6-.2-1.8-.2-7.3-.2h-6.5v9ZM36.3,26.7c1,.9,1,2.2.2,3.1l-.5.5h-4.8s-4.8,0-4.8,0v-2c0-1.1,0-2,0-2.1s2.2,0,4.8,0h4.7s.4.4.4.4Z"/>
        <path d="M47.7,23.1c0,0,0,4.1,0,9v8.9h1.8s1.8,0,1.8,0v-17.8h-1.7c-.9,0-1.7,0-1.8,0Z"/>
        <path d="M68.9,23.1c0,0,0,4.1,0,9v8.9h4.9c5.7,0,6.2,0,8.1-1,1-.5,1.4-.8,2.3-1.7.9-.9,1.2-1.3,1.7-2.3.8-1.6.9-2.3.9-4.1,0-1.2,0-1.7-.3-2.5-.8-2.4-2.6-4.4-4.9-5.5-1.8-.8-1.9-.8-7.4-.9-2.8,0-5.1,0-5.2,0ZM79.6,26.7c1.4.6,2.6,1.8,3.2,3.3.4,1,.4,2.7,0,3.8-.3,1-1.2,2.2-2.2,2.8-1.3.9-1.7.9-5.2.9h-3.1v-5.5c0-3.1,0-5.6,0-5.7s1.5,0,3.2,0c2.9,0,3.2,0,3.9.3Z"/>
        <path d="M97.3,24.1c-.3.6-2.3,4.6-4.5,8.8-2.2,4.2-3.9,7.8-3.9,7.9,0,.1.4.2,1.8.1h1.7s1-1.9,1-1.9l1-1.9h10.5l1,1.9,1,1.9h1.7c1.6,0,1.7,0,1.7-.2s-2-4.1-4.5-8.9l-4.5-8.7h-1.8s-1.8,0-1.8,0l-.6,1.1ZM101.5,30.1c.9,1.9,1.7,3.5,1.7,3.6,0,.2-.5.2-3.4.2s-3.5,0-3.5-.1c-.1-.2,3.3-7.1,3.5-7,0,0,.9,1.6,1.8,3.4Z"/>
        <path d="M109.6,23.1c0,0,1.6,2.4,3.6,5.1l3.7,5v3.8s0,3.8,0,3.8h1.8s1.8,0,1.8,0v-7.6l3.7-5c2-2.7,3.7-5,3.7-5.2,0-.2,0-.2-1.9-.2h-1.9l-2.6,3.7c-1.4,2-2.7,3.7-2.8,3.7,0,0-1.3-1.7-2.8-3.7l-2.6-3.7h-1.9c-1,0-1.9,0-1.9,0Z"/>
        <path d="M59.5,26.8c-1.3.6-1.3,2.3-.2,3.1,1.1.8,2.7-.1,2.7-1.5s-1.4-2.2-2.5-1.6Z"/>
        <path d="M59.5,34c-1.6.7-1.3,3,.4,3.4.6.1,1,0,1.6-.5.4-.4.5-.5.5-1.2s0-.8-.3-1.1c-.6-.7-1.4-.8-2.1-.5Z"/>
      </g>
    </g>
  </g>
</svg>