<?xml version="1.0" encoding="utf-8"?>
<!-- Generator: Adobe Illustrator 28.3.0, SVG Export Plug-In . SVG Version: 6.00 Build 0)  -->
<svg version="1.1" id="Layer_1" xmlns="http://www.w3.org/2000/svg" xmlns:xlink="http://www.w3.org/1999/xlink" x="0px" y="0px"
	 viewBox="0 0 128 64" style="enable-background:new 0 0 128 64;" xml:space="preserve">
<style type="text/css">
	.st0{fill:#FF6E4B;}
</style>
<path class="st0" d="M9.9,39.6c9.3,0,12.6-5.7,12.6-12.4c0-7.2-4.2-12.1-12.7-12.1H5.8v24.5H9.9z M0.6,10.5h9.6
	c11.7,0,17.9,6.8,17.9,16.6c0,10-6.7,17-18.3,17H0.6V10.5z M96.9,32.2c0,4.4-3,7.6-7,7.6c-4.1,0-7-3.2-7-7.6c0-4.4,3-7.6,7-7.6
	C94,24.6,96.9,27.8,96.9,32.2 M89.9,19.8c-6.8,0-12.2,5.5-12.2,12.5c0,7,5.4,12.5,12.2,12.5s12.2-5.5,12.2-12.5
	C102.1,25.2,96.7,19.8,89.9,19.8 M51.5,40c-2.4,0-3.9-1.2-3.9-3.2c0-1.2,0.6-2.1,1.7-2.6c0.9-0.4,2.4-0.7,4.2-0.7h3.2v4.6
	C55.7,38.8,53.9,40,51.5,40 M61.9,37v-8.8c0-5.8-3.3-8.5-9.2-8.5c-3.1,0-5.9,0.6-9,2l0,4.8c2.5-1.4,5.6-2.7,8.1-2.7
	c2.8,0,4.8,1.3,4.8,4.4v1.2h-4.3c-2.4,0-4.4,0.4-6.1,1.3c-2.4,1.2-4,3.3-4,6.5c0,4.6,3.3,7.6,7.8,7.6c3,0,5-1,7-2.4l0.8,1.8h5.9
	C62.3,42.7,61.9,39.8,61.9,37 M32.8,25.9l5.2-2v20.3h-5.2V25.9z M31.6,17.6c-0.5-2,0.8-4.1,2.8-4.6c2-0.5,4.1,0.8,4.6,2.8
	c0.5,2-0.7,3.7-2.5,4.5c0,0-4.7,1.8-4.7,1.8l1.2-2.5C32.2,19.2,31.8,18.4,31.6,17.6 M76.7,43.8c-1.3,0.6-2.8,0.8-4.1,0.8
	c-3.7,0-5.5-1.9-5.5-5.4V12.6l5.2-2v27.3c0,1.8,0.6,2.3,1.8,2.3c0.3,0,1.1-0.2,1.5-0.3L76.7,43.8z M115.2,52.2
	c-4.1,0-6.7-1.6-6.7-4.1c0-1.6,1.5-2.8,3.1-3.3c3.8,1,10.1,0.6,10.1,4C121.6,50.8,119.2,52.2,115.2,52.2 M114.8,24.1
	c2.7,0,4.4,2,4.4,4.5c0,2.9-1.9,4.5-4.3,4.5c-2.7,0-4.3-2-4.3-4.6C110.6,25.7,112.4,24.1,114.8,24.1 M111.1,39.1
	c0-0.6,0.2-1.2,0.8-2.1c0.8,0.3,1.9,0.5,3,0.5c5.7,0,9.6-3.5,9.6-8.7c0-1.7-0.5-3.3-1.4-4.7h3.5v-4.2h-11.9v0c0,0,0,0-0.1,0
	c-6,0-9.3,4.2-9.3,8.7c0,2.8,1.1,5.1,3,6.7c-0.8,0.6-2.2,2-2.2,4.4c0,1.7,1,3.2,2,3.7c-2.7,1.2-4.3,3.3-4.3,5.9
	c0,4.2,4.1,6.9,10.8,6.9c7.8,0,12.1-3.3,12.1-7.7C126.7,39.5,111.1,43.5,111.1,39.1"/>
</svg>
