<?xml version="1.0" encoding="UTF-8" standalone="no"?>
<!-- Created with Inkscape (http://www.inkscape.org/) -->
<!-- viewBox fix by in[k]firmary (http://inkfirmary.48design.de) -->
<svg
   xmlns:dc="http://purl.org/dc/elements/1.1/"
   xmlns:cc="http://creativecommons.org/ns#"
   xmlns:rdf="http://www.w3.org/1999/02/22-rdf-syntax-ns#"
   xmlns:svg="http://www.w3.org/2000/svg"
   xmlns="http://www.w3.org/2000/svg"
   version="1.1"
   width="100%"
   height="100%"
   id="svg2"
   xml:space="preserve"
   viewBox="0 0 993 483"><defs
     id="defs6" /><g
     transform="matrix(1.1722436,0,0,1.1722436,-78.170924,-112.89259)"
     id="Logo"><path
       d="m 488.59375,110.625 c -22.77875,25.20875 -30.03125,41.97125 -30.03125,61.5 0,26.8125 25.31,54.37625 30.03125,100.90625 4.72,-46.53 30.03125,-74.09375 30.03125,-100.90625 0,-19.52875 -7.2525,-36.29125 -30.03125,-61.5 z m -54.8125,107.78125 c -14.61375,0 -29.71875,12.3475 -29.71875,26.84375 0,25.64 23.4725,32.47 35.46875,21.875 -4.11625,-0.13125 -6.6875,-3.75375 -6.6875,-8.09375 0,-4.8875 5.22,-9.375 12.15625,-9.375 12.49625,0 18.2125,11.64875 19.21875,20.5625 0.85375,7.51875 -2.06875,18.07 -10.84375,22.375 18.745,-0.23625 23.8475,-17.98875 23.25,-29.25 -0.7775,-14.2675 -13.97625,-44.9375 -42.84375,-44.9375 z m 109.65625,0 c -28.875,0 -42.08,30.67 -42.84375,44.9375 -0.605,11.26125 4.49875,29.01375 23.25,29.25 -8.7825,-4.305 -11.705,-14.85625 -10.84375,-22.375 1.00625,-8.91375 6.715,-20.5625 19.21875,-20.5625 6.92875,0 12.15625,4.4875 12.15625,9.375 0,4.34 -2.595,7.9625 -6.71875,8.09375 11.99625,10.595 35.46875,3.765 35.46875,-21.875 0,-14.49625 -15.07375,-26.84375 -29.6875,-26.84375 z"
       id="Signet"
       style="fill:#e22026;fill-opacity:1;fill-rule:nonzero;stroke:none" /><path
       d="m 361.71875,339.59375 c -26.425,0 -48.15625,15.715 -48.15625,40.25 0,41.32375 77.65625,42.25375 77.65625,73.40625 0,18.54375 -22.48375,22.26375 -38.1875,21 -14.0175,-1.125 -26.2775,-5.6725 -39.46875,-14.21875 l 0,21.4375 c 13.24,8.7475 25.70875,11.99625 42.40625,12.84375 24.54125,1.2425 56.4375,-9.10875 56.4375,-40.34375 0,-47.9525 -77.03125,-48.05625 -77.03125,-77 0,-12.83 13.445,-19.625 28.78125,-19.625 10.16375,0 24.84625,2.12375 36.90625,12.40625 L 401,349.46875 c -10.8375,-6.18625 -22.2175,-9.875 -39.28125,-9.875 z M 509.375,339.625 c -48.8425,0 -80.875,35.58375 -80.875,77.34375 0,40.885 31.15875,77.34375 80.4375,77.34375 24.1125,0 43.63875,-8.17375 57.53125,-21.09375 l -11.46875,-19 c -10.5525,12.53875 -26.7075,20.21875 -45.625,20.21875 -33.59625,0 -58.5625,-24.54 -58.5625,-57.46875 0,-33.14375 24.96625,-57.4375 58.5625,-57.4375 18.3975,0 34.19,7.18625 44.75,19.09375 l 11.3125,-19.03125 C 551.56625,347.2425 532.43875,339.625 509.375,339.625 z m 146.3125,0 c -48.84125,0 -80.875,35.58375 -80.875,77.34375 0,40.88625 31.165,77.34375 80.4375,77.34375 51.04875,0 81.5625,-36.67375 81.5625,-77.34375 0,-41.98125 -31.40125,-77.34375 -81.125,-77.34375 z m -559.5625,2 0,150.71875 21.40625,0 0,-65.65625 89.75,0 0,65.65625 21.4375,0 0,-150.71875 -21.4375,0 0,65.625 -89.75,0 0,-65.625 -21.40625,0 z m 166.34375,0 0,150.71875 21.4375,0 0,-150.71875 -21.4375,0 z m 471.71875,0 60.34375,72.6875 -64.96875,78.03125 26.28125,0 51.9375,-62.34375 51.28125,62.34375 26.0625,0 -64.3125,-78.03125 60.125,-72.6875 -26.09375,0 -47.0625,57.4375 L 760.5,341.625 l -26.3125,0 z m -78.5,17.90625 c 33.81125,0 58.8125,24.29375 58.8125,57.4375 0,32.93 -25.00125,57.46875 -58.8125,57.46875 -33.5875,0 -58.53125,-24.53875 -58.53125,-57.46875 0,-33.14375 24.94375,-57.4375 58.53125,-57.4375 z"
       id="Text"
       style="fill:#231f20;fill-opacity:1;fill-rule:nonzero;stroke:none" /></g><metadata
     id="metadata3071"><rdf:RDF><cc:Work
         rdf:about=""><dc:title></dc:title></cc:Work></rdf:RDF></metadata></svg>