<?xml version="1.0" encoding="UTF-8"?>
<svg xmlns="http://www.w3.org/2000/svg" xmlns:svg="http://www.w3.org/2000/svg" version="1.1" viewBox="0 0 128 64">
  <defs>
    <style>
      .cls-1, .cls-2 {
        fill: #004a93;
      }

      .cls-2 {
        fill-rule: evenodd;
      }
    </style>
  </defs>
  <!-- Generator: Adobe Illustrator 28.6.0, SVG Export Plug-In . SVG Version: 1.2.0 Build 709)  -->
  <g>
    <g id="svg39820">
      <g id="layer1">
        <g id="g39870">
          <path id="path37627" class="cls-2" d="M12.1,33.3h-4.6l2.5-8,2.2,8ZM5.3,41.4l1.5-4.9h6l1.5,4.9h4.9l-5.2-18.6c-.3-1.2-.9-1.6-2.2-1.6h-7.3v1.7h.6c.9,0,1.3.3,1.3.9s0,.7-.4,1.7L.6,41.4h4.6Z"/>
          <path id="path37629" class="cls-1" d="M25.3,41.4v-18.7c0-1-.6-1.5-1.6-1.5h-4.5v1.7h.3c.9,0,1.3.4,1.3,1.1v17.4h4.5Z"/>
          <path id="path37631" class="cls-1" d="M33.4,41.4v-18.7c0-1-.6-1.5-1.6-1.5h-4.5v1.7h.3c.9,0,1.3.4,1.3,1.1v17.4h4.5Z"/>
          <path id="path37633" class="cls-2" d="M41.7,23c0-1.3-1-2.1-2.6-2.1s-2.6.8-2.6,2.1.9,2.2,2.6,2.2,2.6-.8,2.6-2.2M41.6,41.4v-13.6c0-.9-.6-1.5-1.5-1.5h-4.5v1.6h.3c.9,0,1.2.4,1.2,1.2v12.3h4.5Z"/>
          <path id="path37635" class="cls-2" d="M52.3,34.1v3c-.9.9-1.9,1.4-2.8,1.4s-1.3-.4-1.3-1.6.3-1.7,1.3-2.1c.7-.3,1.5-.5,2.8-.7M45.9,30.5l.4-.2c1.2-.5,1.9-.6,2.8-.8.4,0,1-.1,1.3-.1,1.5,0,1.9.5,1.9,1.8v.4c-2,.3-2.6.5-3.8.7-.6.1-1.2.3-1.7.6-1.9.8-2.8,2.2-2.8,4.5s1.2,4.2,3.8,4.2,2-.2,2.8-.7c.7-.3,1-.5,1.9-1.3v.5c0,.9.4,1.4,1.3,1.4h4.4v-1.6h-.1c-.9,0-1.3-.4-1.3-1.2v-7.4c0-3.9-1.3-5.2-5.1-5.2s-2.5.1-3.6.4c-1.2.3-1.7.5-3,1.2"/>
          <path id="path37637" class="cls-2" d="M64.9,41.4v-10.3c1-.9,1.7-1.3,2.8-1.3s1.3.4,1.3,2v9.6h4.5v-10.3c0-2.1-.3-3-.9-3.8-.7-.8-1.6-1.1-2.9-1.1s-3,.6-5.1,2.4v-.8c0-.9-.4-1.4-1.3-1.4h-4.4v1.6h.1c.9,0,1.3.4,1.3,1.2v12.3h4.5Z"/>
          <g id="g37643">
            <path id="path37645" class="cls-1" d="M87.4,38.5h-6.7l6.4-9.1v-3.1h-9.6c-1.2,0-1.6.5-1.6,1.6v2.7h1.6v-.3c0-.8.4-1.2,1.3-1.2h3.5l-6.5,9.1v3.1h11.6v-2.9Z"/>
            <path id="path37647" class="cls-2" d="M113.1,40.6v-17.1c0-1.4-.6-1.8-1.9-1.8h-3.9v1.9h.4c.7,0,1,.3,1,1.1v15.9h4.4ZM115.5,40.6h4.2v-12.9c0-1.3-.6-1.8-1.9-1.8h-2.3v14.7ZM106.5,40.6v-14.7h-2.3c-1.3,0-1.9.5-1.9,1.8v12.9h4.2ZM124.6,32c0,8-5.8,13.8-13.6,13.8s-13.6-5.8-13.6-13.8,5.8-13.8,13.6-13.8,13.6,5.8,13.6,13.8M127.4,32c0-9.4-7-16.4-16.4-16.4s-16.4,7-16.4,16.4,7.1,16.4,16.4,16.4,16.4-7,16.4-16.4"/>
          </g>
        </g>
      </g>
    </g>
  </g>
</svg>