<?xml version="1.0" encoding="UTF-8" standalone="no"?>
<!-- Generator: Adobe Illustrator 16.0.3, SVG Export Plug-In . SVG Version: 6.00 Build 0)  -->

<svg
   xmlns:dc="http://purl.org/dc/elements/1.1/"
   xmlns:cc="http://creativecommons.org/ns#"
   xmlns:rdf="http://www.w3.org/1999/02/22-rdf-syntax-ns#"
   xmlns:svg="http://www.w3.org/2000/svg"
   xmlns="http://www.w3.org/2000/svg"
   xmlns:sodipodi="http://sodipodi.sourceforge.net/DTD/sodipodi-0.dtd"
   xmlns:inkscape="http://www.inkscape.org/namespaces/inkscape"
   version="1.1"
   id="Ebene_1"
   x="0px"
   y="0px"
   width="291.85999"
   height="108.687"
   viewBox="0 0 291.85997 108.687"
   enable-background="new 0 0 340.157 141.732"
   xml:space="preserve"
   sodipodi:docname="logo-bgv.svg"
   inkscape:version="0.92.2 (5c3e80d, 2017-08-06)"><metadata
     id="metadata47"><rdf:RDF><cc:Work
         rdf:about=""><dc:format>image/svg+xml</dc:format><dc:type
           rdf:resource="http://purl.org/dc/dcmitype/StillImage" /><dc:title></dc:title></cc:Work></rdf:RDF></metadata><defs
     id="defs45" /><sodipodi:namedview
     pagecolor="#ffffff"
     bordercolor="#666666"
     borderopacity="1"
     objecttolerance="10"
     gridtolerance="10"
     guidetolerance="10"
     inkscape:pageopacity="0"
     inkscape:pageshadow="2"
     inkscape:window-width="1920"
     inkscape:window-height="1017"
     id="namedview43"
     showgrid="false"
     fit-margin-top="0"
     fit-margin-left="0"
     fit-margin-right="0"
     fit-margin-bottom="0"
     inkscape:zoom="1.0289366"
     inkscape:cx="145.00051"
     inkscape:cy="56.529003"
     inkscape:window-x="1912"
     inkscape:window-y="-8"
     inkscape:window-maximized="1"
     inkscape:current-layer="Ebene_1" /><g
     id="g4"
     transform="translate(-25.078,-18.708)"><polygon
       points="28.087,102.439 268.646,102.439 316.938,18.708 76.707,18.708 "
       id="polygon2"
       style="fill:#dadada" /></g><path
     d="m 126.812,38.857 h -8.244 c 0,0 3.521,-8.937 -5.239,-8.243 -7.222,0.576 -8.755,6.07 -9.33,8.564 l -3.898,18.275 c 0,0 -2.812,9.649 5.112,9.203 6.77,-0.38 7.924,-1.79 7.924,-1.79 l 2.557,-12.013 h -8.5 l 1.598,-7.223 h 16.296 l -5.111,24.156 c 0,0 -11.23,6.207 -21.983,2.813 -8.5,-2.686 -6.007,-14.573 -5.177,-18.789 0.831,-4.217 3.451,-16.166 3.451,-16.166 0,0 2.813,-14.179 18.468,-13.996 16.358,0.192 13.035,11.567 12.076,15.209 z"
     id="path6"
     inkscape:connector-curvature="0"
     style="fill:#0069b4" /><polygon
     points="165.544,81.672 187.783,43.906 196.794,43.906 168.868,91.962 155.704,91.962 164.266,43.906 172.766,43.906 "
     id="polygon8"
     style="fill:#0069b4"
     transform="translate(-25.078,-18.708)" /><g
     id="g14"
     transform="translate(-25.078,-18.708)"><g
       id="g12"><path
         d="m 104.937,66.56 c 0,0 8.216,-3.21 8.216,-12.617 0,-7.093 -4.106,-10.154 -10.006,-10.154 -5.898,0 -16.798,0 -16.798,0 L 76.119,91.946 H 93.89 c 0,0 12.17,-0.224 15.304,-11.572 0,0 2.536,-6.869 -0.522,-11.126 -1.499,-2.085 -3.735,-2.688 -3.735,-2.688 z m -2.916,9.325 c -0.895,9.268 -10.288,8.818 -10.288,8.818 h -6.135 l 3.067,-14.439 c 0,0 7.093,0.002 7.604,0.002 1.534,0 6.26,0.393 5.752,5.619 z M 97.932,63.168 H 90.135 L 92.755,50.9 c 0,0 7.476,0.002 7.987,0.002 1.534,0 5.178,0.379 4.026,6.195 -1.148,5.817 -6.836,6.071 -6.836,6.071 z"
         id="path10"
         inkscape:connector-curvature="0"
         style="fill:#0069b4" /></g></g><g
     id="g38"
     transform="translate(-25.078,-18.708)"><g
       id="g22"><polygon
         points="198.794,91.912 204.467,82.148 224.333,82.146 218.659,91.908 "
         id="polygon16"
         style="fill:#00998b" /><polygon
         points="222.75,80.093 224.333,82.146 204.467,82.148 203.414,80.096 "
         id="polygon18"
         style="fill:#00aba1" /><polygon
         points="203.414,80.096 204.467,82.148 198.794,91.912 197.892,89.598 "
         id="polygon20"
         style="fill:#00665c" /></g><g
       id="g30"><polygon
         points="230.392,66.732 232.165,68.456 212.3,68.458 211.057,66.732 "
         id="polygon24"
         style="fill:#f5a469" /><polygon
         points="206.666,78.22 212.3,68.458 232.165,68.456 226.532,78.218 "
         id="polygon26"
         style="fill:#f28a44" /><polygon
         points="211.057,66.732 212.3,68.458 206.666,78.22 205.573,76.234 "
         id="polygon28"
         style="fill:#a7622f" /></g><polyline
       points="236.192,67.708 250.196,91.973 247.55,89.582 233.917,65.961 220.169,42.122 222.067,43.216    236.192,67.708  "
       id="polyline32"
       style="fill:#00497f" /><polygon
       points="257.435,91.973 250.196,91.973 236.192,67.708 222.067,43.216 207.915,67.708 193.891,91.982 186.647,91.984 204.357,61.32 222.062,30.653 239.753,61.32 "
       id="polygon34"
       style="fill:#0069b4" /><polyline
       points="204.357,61.32 222.062,30.653 220.486,29.894 203.202,59.842 186.016,89.594 186.647,91.984    204.357,61.32  "
       id="polyline36"
       style="fill:#00497f" /></g><path
     d="m 242.025,94.671 -2.498,11.752 h -0.042 L 236.64,94.671 h -2.472 l -2.92,13.733 h 1.561 l 2.529,-11.906 h 0.041 l 2.891,11.906 h 2.391 l 2.923,-13.733 z m -13.669,13.733 0.327,-1.522 h -5.441 l 1.014,-4.754 h 4.942 l 0.322,-1.522 h -4.945 l 0.942,-4.415 h 5.322 l 0.326,-1.52 h -7.078 l -2.915,13.733 z m -8.737,-10.061 c 0.727,-2.874 -0.452,-3.956 -3.421,-3.956 -2.907,0 -4.689,1.747 -5.27,4.487 l -0.957,4.508 c -0.813,3.805 0.278,5.305 3.189,5.305 1.766,0 3.172,-0.418 4.42,-1.025 l 1.421,-6.678 h -4.281 l -0.322,1.521 h 2.53 l -0.874,4.111 c -0.419,0.266 -1.328,0.611 -2.583,0.611 -1.657,0 -2.366,-0.764 -1.73,-3.771 l 0.988,-4.64 c 0.608,-2.871 2.605,-2.965 3.159,-2.965 1.769,0 2.248,0.874 1.903,2.491 h 1.828 z m -12.836,-3.672 -2.499,11.752 h -0.035 L 201.4,94.671 h -2.474 l -2.916,13.733 h 1.56 l 2.526,-11.906 h 0.041 l 2.89,11.906 h 2.397 l 2.916,-13.733 z m -21.954,8.711 c -0.807,3.805 0.281,5.305 3.189,5.305 2.912,0 4.639,-1.5 5.444,-5.305 l 1.854,-8.711 h -1.753 l -1.866,8.785 c -0.639,3.008 -1.711,3.771 -3.369,3.771 -1.652,0 -2.403,-0.764 -1.769,-3.771 l 1.872,-8.785 h -1.75 z m -6.949,-1.291 c 0.589,0 1.922,0.074 1.699,1.748 -0.231,1.825 -0.73,3.614 -0.437,4.565 h 1.82 c -0.08,-0.857 0.187,-3.006 0.294,-3.598 0.49,-2.752 0.032,-3.286 -1.492,-3.536 l 0.01,-0.037 c 1.678,-0.284 2.832,-1.521 3.177,-3.135 0.361,-1.715 -0.131,-3.428 -2.564,-3.428 h -4.735 l -2.917,13.733 h 1.75 l 1.344,-6.313 h 2.051 z m -0.806,-5.901 h 2.648 c 1.349,0 1.607,1.104 1.398,2.095 -0.258,1.201 -1.094,2.278 -2.351,2.278 h -2.623 z m -7.101,12.214 0.325,-1.522 h -5.44 l 1.013,-4.754 h 4.945 l 0.323,-1.522 h -4.942 l 0.938,-4.415 h 5.323 l 0.323,-1.52 h -7.078 l -2.915,13.733 z m -17.416,0 1.33,-6.276 h 4.815 l -1.333,6.276 h 1.744 l 2.923,-13.733 h -1.75 l -1.263,5.935 h -4.811 l 1.263,-5.935 h -1.749 l -2.919,13.733 z m -2.947,-9.947 c 0.737,-2.663 -0.01,-4.07 -2.727,-4.07 -2.704,0 -4.646,1.103 -5.473,4.985 l -0.822,3.879 c -1.135,5.325 1.467,5.436 3.177,5.436 0.896,0 3.957,0 4.802,-4.336 h -1.806 c -0.591,2.68 -2.246,2.877 -2.777,2.877 -1.352,0 -2.373,-0.402 -1.656,-3.771 l 0.783,-3.666 c 0.498,-2.363 0.916,-2.705 1.004,-2.852 0.097,-0.193 0.854,-1.066 2.3,-1.066 0.36,0 1.144,0.151 1.412,0.59 0.267,0.436 0.16,1.215 -0.023,1.995 h 1.806 z m -10.83,-3.786 h -1.752 l -2.917,13.733 h 1.747 z m -15.457,9.642 c -0.321,1.313 -0.978,4.414 3.082,4.373 2.263,0 4.459,-0.932 5.071,-3.818 0.926,-4.361 -5.328,-3.919 -4.688,-6.945 0.319,-1.482 1.497,-2.014 2.542,-2.014 1.656,0 1.917,0.988 1.58,2.49 h 1.825 c 0.708,-2.795 -0.44,-4.013 -2.95,-4.013 -2.3,0 -4.308,1.293 -4.822,3.728 -0.879,4.129 5.354,3.784 4.711,6.828 -0.351,1.637 -1.543,2.224 -2.929,2.224 -1.123,0 -2.175,-0.587 -1.78,-2.454 l 0.089,-0.398 h -1.731 z m -6.432,-2.222 c 0.589,0 1.924,0.074 1.699,1.748 -0.233,1.825 -0.727,3.614 -0.437,4.565 h 1.825 c -0.083,-0.857 0.182,-3.006 0.288,-3.598 0.492,-2.752 0.034,-3.286 -1.491,-3.536 l 0.01,-0.037 c 1.677,-0.284 2.832,-1.521 3.177,-3.135 0.362,-1.715 -0.127,-3.428 -2.563,-3.428 h -4.734 l -2.919,13.733 h 1.752 l 1.342,-6.313 h 2.051 z m -0.802,-5.901 h 2.647 c 1.351,0 1.604,1.104 1.396,2.095 -0.254,1.201 -1.091,2.278 -2.351,2.278 h -2.623 z m -7.102,12.214 0.322,-1.522 h -5.436 l 1.008,-4.754 h 4.945 l 0.324,-1.522 h -4.943 l 0.938,-4.415 h 5.323 l 0.323,-1.52 h -7.076 l -2.918,13.733 z m -6.532,-13.733 h -1.786 l -5.782,12.08 h -0.036 l -0.574,-12.08 h -1.899 l 1.056,13.733 h 2.09 z m -19.197,13.733 0.324,-1.522 H 78.14 l 1.012,-4.754 h 4.945 l 0.324,-1.522 h -4.945 l 0.939,-4.415 h 5.323 l 0.326,-1.52 h -7.077 l -2.921,13.733 z m -17.422,0 1.336,-6.276 h 4.813 l -1.335,6.276 h 1.751 L 75.317,94.671 H 73.57 l -1.263,5.935 h -4.81 l 1.263,-5.935 h -1.752 l -2.918,13.733 z m -2.944,-9.947 c 0.738,-2.663 -0.011,-4.07 -2.728,-4.07 -2.699,0 -4.648,1.103 -5.47,4.985 l -0.827,3.879 c -1.131,5.325 1.47,5.436 3.18,5.436 0.894,0 3.954,0 4.803,-4.336 h -1.81 c -0.591,2.68 -2.244,2.877 -2.777,2.877 -1.35,0 -2.369,-0.402 -1.652,-3.771 l 0.781,-3.666 c 0.499,-2.363 0.917,-2.705 1.004,-2.852 0.099,-0.193 0.856,-1.066 2.301,-1.066 0.358,0 1.148,0.151 1.413,0.59 0.269,0.436 0.162,1.215 -0.023,1.995 h 1.805 z m -20.528,5.856 c -0.315,1.313 -0.976,4.414 3.083,4.373 2.262,0 4.459,-0.932 5.075,-3.818 0.923,-4.361 -5.329,-3.919 -4.689,-6.945 0.319,-1.482 1.494,-2.014 2.542,-2.014 1.654,0 1.917,0.988 1.581,2.49 h 1.825 c 0.71,-2.795 -0.44,-4.013 -2.952,-4.013 -2.301,0 -4.307,1.293 -4.823,3.728 -0.877,4.129 5.356,3.784 4.712,6.828 -0.35,1.637 -1.541,2.224 -2.928,2.224 -1.121,0 -2.175,-0.587 -1.778,-2.454 l 0.084,-0.398 h -1.732 z m -1.352,-9.642 h -1.754 l -2.917,13.733 h 1.747 z m -16.954,13.733 h 3.153 c 2.399,0 3.908,-0.592 4.906,-1.769 0.763,-0.914 1.39,-2.604 2.012,-5.533 0.095,-0.439 0.616,-3.18 0.313,-4.336 -0.373,-1.47 -1.495,-2.096 -3.243,-2.096 H 26.975 Z M 28.402,96.19 h 2.302 c 1.828,0 2.463,1.025 1.874,3.805 l -0.592,2.777 c -0.68,3.194 -1.768,4.109 -4.201,4.109 h -1.654 z m -9.088,7.419 h -4.395 l 3.708,-7.32 h 0.036 z m -8.642,4.795 h 1.766 l 1.722,-3.274 h 5.308 l 0.292,3.274 h 1.961 L 20.168,94.671 h -2.224 z m -6.258,0 c 1.56,0 4.199,-0.344 4.947,-3.859 0.398,-1.885 -0.208,-3.065 -2.116,-3.29 l 0.02,-0.095 C 9.12,100.757 9.951,99.617 10.314,97.901 10.372,97.64 10.469,96.824 10.153,96.076 9.801,95.317 9.292,94.671 7.389,94.671 H 2.92 L 0,108.404 Z M 4.343,96.19 h 2.473 c 1.467,0 1.913,0.932 1.672,2.076 -0.283,1.33 -1.124,2.167 -2.498,2.184 H 3.441 Z m -1.225,5.786 h 1.861 c 1.79,0 3.057,0.377 2.594,2.569 -0.214,1.005 -1.165,2.337 -3.029,2.337 H 2.072 Z"
     id="path40"
     inkscape:connector-curvature="0"
     style="fill:#0069b4" /></svg>