<?xml version="1.0" encoding="UTF-8" standalone="no"?>
<!DOCTYPE svg PUBLIC "-//W3C//DTD SVG 1.1//EN" "http://www.w3.org/Graphics/SVG/1.1/DTD/svg11.dtd">
<svg width="100%" height="100%" viewBox="0 0 3941 795" version="1.1" xmlns="http://www.w3.org/2000/svg" xmlns:xlink="http://www.w3.org/1999/xlink" xml:space="preserve" xmlns:serif="http://www.serif.com/" style="fill-rule:evenodd;clip-rule:evenodd;stroke-linejoin:round;stroke-miterlimit:1.41421;">
    <g id="ArtBoard1" transform="matrix(1,0,0,1,32.1914,50.8818)">
        <rect x="-32.191" y="-50.882" width="3940.78" height="794.053" style="fill:white;"/>
        <g transform="matrix(4.16667,0,0,4.16667,-396.135,972.809)">
            <path d="M930.888,-223.559C931.457,-222.119 931.647,-221.399 931.647,-219.719L931.647,-147.359C931.647,-145.799 931.457,-144.959 930.888,-143.519L1015.71,-143.519L1015.71,-152.19C1012.29,-151.71 1010.76,-151.59 1008.5,-151.59L952.692,-151.59L952.692,-180.342L996.41,-180.342C1000.01,-180.342 1000.77,-180.342 1003.24,-179.982L1003.24,-188.625C1000.39,-188.145 999.811,-188.145 996.22,-188.145L952.692,-188.145L952.692,-215.715L1008.43,-215.715C1010.89,-215.715 1011.84,-215.595 1014.3,-215.115L1014.3,-223.559L930.888,-223.559ZM829.911,-151.295L829.911,-216.024L843.752,-216.024C871.433,-216.024 888.876,-204.359 888.876,-184.319C888.876,-163.079 873.139,-151.295 847.164,-151.295L829.911,-151.295ZM808.107,-223.559C808.675,-222.119 808.865,-221.279 808.865,-219.719L808.865,-147.359C808.865,-146.039 808.675,-145.079 808.107,-143.519L852.473,-143.519C886.98,-143.519 911.439,-160.319 911.439,-184.199C911.439,-208.559 886.791,-223.559 846.975,-223.559L808.107,-223.559Z" style="fill:rgb(128,130,133);fill-rule:nonzero;"/>
            <path d="M706.102,-223.559C706.67,-221.999 706.86,-221.039 706.86,-219.719L706.86,-147.359C706.86,-146.066 706.67,-145.079 706.102,-143.519L728.664,-143.519C728.095,-144.839 727.906,-145.559 727.906,-147.359L727.906,-219.719C727.906,-221.519 728.095,-222.239 728.664,-223.559L706.102,-223.559ZM454.551,-221.159C444.313,-223.799 436.16,-224.759 424.595,-224.759C383.262,-224.759 359.941,-210.204 359.941,-184.164C359.941,-157.164 381.745,-142.47 421.561,-142.47C434.454,-142.47 442.607,-143.69 454.551,-147.29L454.551,-157.849C443.934,-151.489 436.35,-150.265 424.974,-150.265C399.188,-150.265 382.504,-162.924 382.504,-183.924C382.504,-205.164 398.43,-217.224 424.405,-217.224C435.781,-217.224 443.365,-216.239 454.551,-210.359L454.551,-221.159ZM263.056,-151.295L263.056,-216.024L276.896,-216.024C304.578,-216.024 322.021,-204.359 322.021,-184.319C322.021,-163.079 306.284,-151.295 280.309,-151.295L263.056,-151.295ZM241.251,-223.559C241.82,-222.119 242.01,-221.279 242.01,-219.719L242.01,-147.359C242.01,-146.039 241.82,-145.079 241.251,-143.519L285.618,-143.519C320.125,-143.519 344.584,-160.319 344.584,-184.199C344.584,-208.559 319.936,-223.559 280.12,-223.559L241.251,-223.559ZM145.866,-175.29L165.328,-210.599L185.345,-175.29L145.866,-175.29ZM141.926,-167.789L189.879,-167.789L201.541,-146.879C202.333,-145.46 202.489,-144.839 202.489,-143.519L228.359,-143.519C226.652,-145.079 226.083,-145.679 225.325,-146.879L182.665,-220.919C182.096,-221.999 181.907,-222.599 181.717,-223.559L155.826,-223.559C155.636,-222.479 155.522,-221.83 154.878,-220.679L113.545,-146.879C112.856,-145.649 112.218,-144.839 110.859,-143.519L129.304,-143.519C129.304,-144.959 129.407,-145.725 130.062,-146.879L141.926,-167.789ZM573.459,-150.066C564.141,-146.674 546.507,-141.959 522.415,-141.959C485.205,-141.959 472.42,-155.734 472.42,-169.459L472.42,-219.719C472.42,-221.039 472.23,-221.999 471.661,-223.559L494.224,-223.559C493.655,-221.999 493.465,-221.159 493.465,-219.719L493.465,-169.531C493.465,-154.813 510.518,-149.755 524.143,-149.755C536.329,-149.755 545.466,-151.108 553.265,-155.538L553.265,-219.719C553.265,-221.396 553.076,-222.239 552.507,-223.559L574.218,-223.559C573.649,-222.119 573.459,-221.394 573.459,-219.719L573.459,-150.066ZM619.883,-216.744L633.876,-216.744C641.65,-216.744 646.955,-216.3 651.32,-213.919C656.617,-211.028 659.852,-206.435 659.852,-201.395C659.852,-191.915 648.804,-185.44 634.028,-185.44L623.207,-185.44L623.218,-185.423L660.893,-146.999C662.193,-145.674 662.789,-144.959 663.548,-143.519L692.474,-143.519L692.417,-143.573C690.614,-144.286 690.129,-144.717 688.153,-146.639L652.668,-181.173C656.455,-181.87 659.007,-182.424 662.102,-183.286C674.864,-186.842 681.277,-193.199 681.277,-201.839C681.277,-214.799 665.157,-223.559 641.65,-223.559L598.079,-223.559C598.647,-221.879 598.837,-220.919 598.837,-219.719L598.837,-147.359C598.837,-145.799 598.647,-144.959 598.079,-143.519L620.641,-143.519C620.072,-145.079 619.883,-145.919 619.883,-147.359L619.883,-216.744Z" style="fill:rgb(35,31,32);fill-rule:nonzero;"/>
            <path d="M768.386,-176.032C778.039,-176.032 785.911,-168.159 785.911,-158.507C785.911,-148.855 778.039,-140.982 768.386,-140.982C758.734,-140.982 750.861,-148.855 750.861,-158.507C750.861,-168.159 758.734,-176.032 768.386,-176.032Z" style="fill:rgb(237,28,36);"/>
            <path d="M131.374,-79.911C131.374,-89.019 126.011,-92.915 117.207,-92.915C114.474,-92.915 111.286,-92.814 109.161,-92.814L109.161,-66.502C111.084,-66.502 113.108,-66.393 115.942,-66.393C124.847,-66.393 131.374,-70.753 131.374,-79.911ZM127.984,-79.658C127.984,-72.321 123.228,-69.032 116.346,-69.032C115.183,-69.032 113.361,-69.083 112.4,-69.184L112.4,-90.233C113.766,-90.335 115.385,-90.385 116.6,-90.385C124.139,-90.385 127.984,-86.793 127.984,-79.658Z" style="fill:rgb(35,31,32);fill-rule:nonzero;"/>
            <rect x="139.217" y="-92.814" width="3.239" height="26.312" style="fill:rgb(35,31,32);"/>
            <path d="M167.3,-66.502L167.3,-69.083L156.624,-69.083L156.624,-78.849L166.845,-78.849L166.845,-81.328L156.624,-81.328L156.624,-90.284L167.3,-90.284L167.3,-92.814L153.385,-92.814L153.385,-66.502L167.3,-66.502Z" style="fill:rgb(35,31,32);fill-rule:nonzero;"/>
            <path d="M206.11,-92.814L202.72,-92.814L195.939,-76.167C195.13,-74.092 194.371,-71.967 193.662,-69.842L193.612,-69.842C193.005,-71.967 192.245,-74.143 191.335,-76.42L185.061,-92.814L181.367,-92.814L191.841,-66.502L195.383,-66.502L206.11,-92.814Z" style="fill:rgb(35,31,32);fill-rule:nonzero;"/>
            <path d="M225.742,-66.502L225.742,-69.083L215.066,-69.083L215.066,-78.849L225.287,-78.849L225.287,-81.328L215.066,-81.328L215.066,-90.284L225.742,-90.284L225.742,-92.814L211.827,-92.814L211.827,-66.502L225.742,-66.502Z" style="fill:rgb(35,31,32);fill-rule:nonzero;"/>
            <path d="M252.408,-66.502L244.313,-75.964C243.452,-76.976 242.643,-77.988 241.884,-78.697C246.944,-78.798 250.789,-81.48 250.789,-86.287C250.789,-90.537 247.602,-92.915 241.681,-92.915C238.645,-92.915 236.419,-92.864 234.952,-92.814L234.952,-66.502L238.19,-66.502L238.19,-78.545L238.342,-78.545L248.209,-66.502L252.408,-66.502ZM247.45,-85.882C247.45,-82.795 245.122,-80.822 241.378,-80.822C240.264,-80.822 239.101,-80.872 238.19,-80.974L238.19,-90.284C239.05,-90.385 239.86,-90.436 241.226,-90.436C245.071,-90.436 247.45,-88.968 247.45,-85.882Z" style="fill:rgb(35,31,32);fill-rule:nonzero;"/>
            <path d="M274.976,-74.295C274.976,-82.846 261.263,-79.962 261.263,-86.034C261.263,-88.766 263.338,-90.537 267.74,-90.537C269.359,-90.537 271.737,-90.183 273.255,-89.727L273.407,-92.713C271.838,-92.966 269.612,-93.168 267.942,-93.168C261.719,-93.168 257.924,-90.233 257.924,-85.629C257.924,-77.28 271.535,-80.114 271.535,-73.991C271.535,-70.247 268.044,-68.881 264.906,-68.881C262.477,-68.881 260.201,-69.336 258.581,-70.044L258.379,-66.806C259.846,-66.393 262.326,-66.089 264.451,-66.089C270.017,-66.089 274.976,-69.133 274.976,-74.295Z" style="fill:rgb(35,31,32);fill-rule:nonzero;"/>
            <rect x="283.577" y="-92.814" width="3.239" height="26.312" style="fill:rgb(35,31,32);"/>
            <path d="M315.202,-67.565L314.898,-70.449C313.077,-69.538 310.648,-69.032 308.472,-69.032C301.945,-69.032 298.504,-72.726 298.504,-79.506C298.504,-85.528 301.54,-90.385 308.169,-90.385C310.243,-90.385 312.368,-90.031 314.595,-89.323L314.898,-92.308C312.976,-92.814 310.749,-93.067 308.675,-93.067C299.162,-93.067 295.063,-86.742 295.063,-79.152C295.063,-70.955 299.466,-66.19 307.663,-66.19C310.547,-66.19 313.077,-66.705 315.202,-67.565Z" style="fill:rgb(35,31,32);fill-rule:nonzero;"/>
            <path d="M344.398,-66.502L344.398,-92.814L341.159,-92.814L341.159,-81.48L326.283,-81.48L326.283,-92.814L323.045,-92.814L323.045,-66.502L326.283,-66.502L326.283,-78.747L341.159,-78.747L341.159,-66.502L344.398,-66.502Z" style="fill:rgb(35,31,32);fill-rule:nonzero;"/>
            <path d="M369.242,-66.502L369.242,-69.083L358.566,-69.083L358.566,-78.849L368.787,-78.849L368.787,-81.328L358.566,-81.328L358.566,-90.284L369.242,-90.284L369.242,-92.814L355.327,-92.814L355.327,-66.502L369.242,-66.502Z" style="fill:rgb(35,31,32);fill-rule:nonzero;"/>
            <path d="M395.908,-66.502L387.812,-75.964C386.952,-76.976 386.143,-77.988 385.383,-78.697C390.444,-78.798 394.289,-81.48 394.289,-86.287C394.289,-90.537 391.101,-92.915 385.181,-92.915C382.145,-92.915 379.919,-92.864 378.451,-92.814L378.451,-66.502L381.69,-66.502L381.69,-78.545L381.842,-78.545L391.709,-66.502L395.908,-66.502ZM390.949,-85.882C390.949,-82.795 388.622,-80.822 384.877,-80.822C383.764,-80.822 382.601,-80.872 381.69,-80.974L381.69,-90.284C382.55,-90.385 383.36,-90.436 384.726,-90.436C388.571,-90.436 390.949,-88.968 390.949,-85.882Z" style="fill:rgb(35,31,32);fill-rule:nonzero;"/>
            <path d="M425.408,-76.47L425.408,-92.814L422.22,-92.814L422.22,-76.47C422.22,-71.967 420.196,-68.779 414.478,-68.779C409.722,-68.779 406.838,-71.006 406.838,-75.813L406.838,-92.814L403.599,-92.814L403.599,-75.458C403.599,-69.336 407.394,-66.14 414.225,-66.14C422.22,-66.14 425.408,-70.955 425.408,-76.47Z" style="fill:rgb(35,31,32);fill-rule:nonzero;"/>
            <path d="M457.336,-66.502L457.336,-92.814L454.148,-92.814L454.199,-80.164C454.199,-75.458 454.3,-72.169 454.452,-70.297L454.401,-70.297C453.389,-72.119 452.175,-73.991 451.011,-75.762L439.778,-92.814L435.578,-92.814L435.578,-66.502L438.766,-66.502L438.716,-81.783C438.716,-85.123 438.564,-87.299 438.462,-89.171L438.513,-89.171C439.424,-87.45 440.537,-85.528 441.701,-83.757L453.136,-66.502L457.336,-66.502Z" style="fill:rgb(35,31,32);fill-rule:nonzero;"/>
            <path d="M487.746,-67.666L487.746,-81.024L478.233,-81.024L478.233,-78.545L484.508,-78.545L484.508,-69.69C483.091,-69.184 481.219,-68.931 479.346,-68.931C473.022,-68.931 468.721,-72.726 468.721,-79.608C468.721,-86.995 473.781,-90.537 479.397,-90.537C481.927,-90.537 484.356,-89.981 486.785,-89.07L487.19,-92.004C484.66,-92.763 482.231,-93.118 479.65,-93.118C470.694,-93.118 465.331,-87.096 465.331,-79.203C465.331,-70.803 470.846,-66.19 478.739,-66.19C482.13,-66.19 485.014,-66.705 487.746,-67.666Z" style="fill:rgb(35,31,32);fill-rule:nonzero;"/>
            <path d="M512.793,-74.295C512.793,-82.846 499.08,-79.962 499.08,-86.034C499.08,-88.766 501.155,-90.537 505.557,-90.537C507.176,-90.537 509.555,-90.183 511.072,-89.727L511.224,-92.713C509.656,-92.966 507.429,-93.168 505.76,-93.168C499.536,-93.168 495.741,-90.233 495.741,-85.629C495.741,-77.28 509.352,-80.114 509.352,-73.991C509.352,-70.247 505.861,-68.881 502.724,-68.881C500.295,-68.881 498.018,-69.336 496.399,-70.044L496.196,-66.806C497.664,-66.393 500.143,-66.089 502.268,-66.089C507.834,-66.089 512.793,-69.133 512.793,-74.295Z" style="fill:rgb(35,31,32);fill-rule:nonzero;"/>
            <path d="M534.702,-66.502L534.702,-69.133L524.633,-69.133L524.633,-92.814L521.395,-92.814L521.395,-66.502L534.702,-66.502Z" style="fill:rgb(35,31,32);fill-rule:nonzero;"/>
            <path d="M563.797,-79.81C563.797,-88.311 559.394,-93.168 551.552,-93.168C544.569,-93.168 538.699,-88.209 538.699,-79.456C538.699,-71.815 542.292,-66.14 550.793,-66.14C558.13,-66.14 563.797,-71.006 563.797,-79.81ZM560.356,-79.456C560.356,-72.524 556.308,-68.881 551.046,-68.881C544.367,-68.881 542.14,-73.991 542.14,-79.81C542.14,-86.742 546.441,-90.487 551.248,-90.487C556.915,-90.487 560.356,-86.641 560.356,-79.456ZM558.13,-99.797C558.13,-101.062 557.168,-101.972 555.954,-101.972C554.739,-101.972 553.778,-101.062 553.778,-99.797C553.778,-98.582 554.739,-97.621 555.954,-97.621C557.168,-97.621 558.13,-98.582 558.13,-99.797ZM548.819,-99.797C548.819,-101.062 547.858,-101.972 546.644,-101.972C545.378,-101.972 544.468,-101.062 544.468,-99.797C544.468,-98.582 545.378,-97.621 546.644,-97.621C547.858,-97.621 548.819,-98.582 548.819,-99.797Z" style="fill:rgb(35,31,32);fill-rule:nonzero;"/>
            <path d="M586.617,-74.295C586.617,-82.846 572.904,-79.962 572.904,-86.034C572.904,-88.766 574.979,-90.537 579.381,-90.537C581,-90.537 583.379,-90.183 584.897,-89.727L585.048,-92.713C583.48,-92.966 581.253,-93.168 579.584,-93.168C573.36,-93.168 569.565,-90.233 569.565,-85.629C569.565,-77.28 583.176,-80.114 583.176,-73.991C583.176,-70.247 579.685,-68.881 576.548,-68.881C574.119,-68.881 571.842,-69.336 570.223,-70.044L570.02,-66.806C571.488,-66.393 573.967,-66.089 576.092,-66.089C581.658,-66.089 586.617,-69.133 586.617,-74.295Z" style="fill:rgb(35,31,32);fill-rule:nonzero;"/>
            <path d="M616.875,-76.47L616.875,-92.814L613.688,-92.814L613.688,-76.47C613.688,-71.967 611.664,-68.779 605.946,-68.779C601.19,-68.779 598.305,-71.006 598.305,-75.813L598.305,-92.814L595.067,-92.814L595.067,-75.458C595.067,-69.336 598.862,-66.14 605.693,-66.14C613.688,-66.14 616.875,-70.955 616.875,-76.47Z" style="fill:rgb(35,31,32);fill-rule:nonzero;"/>
            <path d="M648.804,-66.502L648.804,-92.814L645.616,-92.814L645.666,-80.164C645.666,-75.458 645.768,-72.169 645.92,-70.297L645.869,-70.297C644.857,-72.119 643.642,-73.991 642.479,-75.762L631.246,-92.814L627.046,-92.814L627.046,-66.502L630.234,-66.502L630.183,-81.783C630.183,-85.123 630.031,-87.299 629.93,-89.171L629.981,-89.171C630.892,-87.45 632.005,-85.528 633.168,-83.757L644.604,-66.502L648.804,-66.502Z" style="fill:rgb(35,31,32);fill-rule:nonzero;"/>
            <path d="M679.214,-67.666L679.214,-81.024L669.701,-81.024L669.701,-78.545L675.975,-78.545L675.975,-69.69C674.559,-69.184 672.686,-68.931 670.814,-68.931C664.489,-68.931 660.188,-72.726 660.188,-79.608C660.188,-86.995 665.248,-90.537 670.865,-90.537C673.395,-90.537 675.824,-89.981 678.252,-89.07L678.657,-92.004C676.127,-92.763 673.698,-93.118 671.118,-93.118C662.162,-93.118 656.798,-87.096 656.798,-79.203C656.798,-70.803 662.313,-66.19 670.207,-66.19C673.597,-66.19 676.481,-66.705 679.214,-67.666Z" style="fill:rgb(35,31,32);fill-rule:nonzero;"/>
            <rect x="107.439" y="-128.115" width="911.233" height="14.174" style="fill:rgb(237,28,36);"/>
        </g>
    </g>
</svg>
