<?xml version="1.0" encoding="utf-8"?>
<!-- Generator: Adobe Illustrator 14.0.0, SVG Export Plug-In  -->
<!DOCTYPE svg PUBLIC "-//W3C//DTD SVG 1.1//EN" "http://www.w3.org/Graphics/SVG/1.1/DTD/svg11.dtd" [
	<!ENTITY ns_flows "http://ns.adobe.com/Flows/1.0/">
]>
<svg version="1.1"
	 xmlns="http://www.w3.org/2000/svg" xmlns:xlink="http://www.w3.org/1999/xlink" xmlns:a="http://ns.adobe.com/AdobeSVGViewerExtensions/3.0/"
	 x="0px" y="0px" width="460px" height="230px" viewBox="-5.323 -7.495 460 230" enable-background="new -5.323 -7.495 460 230"
	 xml:space="preserve">
<defs>
</defs>
<path fill="#004D95" d="M43.576,171.74c-0.069,0.217-0.346,0.434-0.552,0.58c-4.566,1.746-9.476,2.766-15.218,2.766
	C12.589,175.085,0,164.673,0,148.871c0-17.045,12.935-25.857,27.599-25.857c5.187,0,10.305,0.873,15.286,2.766
	c0.208,0.146,0.485,0.369,0.554,0.586c0.138,3.422,0.554,8.449,0.829,12.164c-0.415,0.07-0.968,0.287-1.521,0.287
	c-0.899,0-1.245-0.07-1.453-0.873c-1.729-7.354-6.709-10.412-12.658-10.412c-10.721,0-15.217,8.666-15.217,19.811
	c0,13.91,6.917,23.232,16.876,23.232c6.571,0,9.684-4.008,11.689-10.488c0.208-0.727,0.623-0.873,1.522-0.803
	c0.554,0.076,1.037,0.146,1.453,0.293C44.476,163.291,43.922,168.312,43.576,171.74z"/>
<path fill="#004D95" d="M76.441,175.085c-15.079,0-26.354-10.998-26.354-26.068c0-15.369,10.792-26.004,26.146-26.004
	c15.079,0,26.353,11.145,26.353,26.221C102.586,164.597,91.796,175.085,76.441,175.085z M75.611,127.238
	c-9.13,0-12.173,10.635-12.173,20.537c0,10.488,4.011,23.162,13.695,23.162c9.13,0,12.104-10.559,12.104-20.467
	C89.237,139.982,85.295,127.238,75.611,127.238z"/>
<path fill="#004D95" d="M157.794,127.021l-2.351,0.434c-2.353,0.439-2.836,2.771-2.836,12.094v19.225
	c0,6.334,0.346,12.381,0.691,15.586c-1.314,0.217-4.704,0.293-7.263,0.217c-0.691,0-0.968-0.287-1.314-0.797
	c-0.623-1.02-2.145-3.205-4.22-5.83l-22.963-28.986H117.4l0.277,16.898c0.139,11.578,0.762,14.203,4.081,14.783l2.975,0.51
	c0.691,0.146,0.829,0.586,0.829,1.459c0,0.51-0.138,1.02-0.207,1.383c-3.458-0.076-6.294-0.217-9.684-0.217
	c-3.321,0-6.157,0.141-9.615,0.217c-0.069-0.363-0.207-0.873-0.207-1.383c0-0.873,0.207-1.313,0.899-1.459l2.42-0.434
	c2.353-0.439,2.767-2.771,2.767-12.094v-24.322c0-2.115-0.277-3.715-1.176-4.951c-1.037-1.313-2.005-1.676-3.319-1.898l-1.868-0.287
	c-0.691-0.076-0.899-0.586-0.899-1.459c0-0.51,0.139-1.166,0.208-1.529c3.319,0.146,5.878,0.217,8.714,0.217
	c3.321,0,6.018-0.146,9.062-0.217c0.277,0.07,0.554,0.217,0.76,0.363c1.176,2.039,3.529,5.537,6.226,8.889l17.292,21.99h0.138
	l-0.138-13.107c-0.208-11.578-0.762-14.203-4.081-14.783l-2.975-0.51c-0.691-0.146-0.898-0.586-0.898-1.459
	c0-0.51,0.138-1.02,0.207-1.383c3.458,0.07,6.363,0.217,9.753,0.217c3.321,0,6.086-0.146,9.545-0.217
	c0.069,0.363,0.208,0.873,0.208,1.383C158.694,126.435,158.486,126.875,157.794,127.021z"/>
<path fill="#004D95" d="M205.046,171.74c-0.067,0.217-0.346,0.434-0.554,0.58c-4.564,1.746-9.475,2.766-15.217,2.766
	c-15.217,0-27.806-10.412-27.806-26.215c0-17.045,12.935-25.857,27.601-25.857c5.186,0,10.304,0.873,15.284,2.766
	c0.208,0.146,0.483,0.369,0.554,0.586c0.138,3.422,0.554,8.449,0.829,12.164c-0.413,0.07-0.97,0.287-1.521,0.287
	c-0.899,0-1.245-0.07-1.453-0.873c-1.729-7.354-6.709-10.412-12.656-10.412c-10.723,0-15.218,8.666-15.218,19.811
	c0,13.91,6.917,23.232,16.876,23.232c6.571,0,9.686-4.008,11.689-10.488c0.208-0.727,0.621-0.873,1.523-0.803
	c0.551,0.076,1.037,0.146,1.453,0.293C205.945,163.291,205.392,168.312,205.046,171.74z"/>
<path fill="#004D95" d="M237.911,175.085c-15.079,0-26.353-10.998-26.353-26.068c0-15.369,10.793-26.004,26.147-26.004
	c15.076,0,26.353,11.145,26.353,26.221C264.059,164.597,253.269,175.085,237.911,175.085z M237.082,127.238
	c-9.129,0-12.173,10.635-12.173,20.537c0,10.488,4.011,23.162,13.693,23.162c9.132,0,12.105-10.559,12.105-20.467
	C250.708,139.982,246.765,127.238,237.082,127.238z"/>
<path fill="#004D95" d="M317.88,173.996c-1.178-0.146-6.088-0.293-8.232-0.293c-2.282,0-6.363,0-8.783,0.217
	c-4.151-4.729-8.578-13.617-12.659-21.99c-0.138-0.146-0.275-0.293-0.483-0.439h-2.145c-0.208,0.146-0.275,0.363-0.346,0.586v11.871
	c0,5.021,0,6.48,1.729,6.773l2.49,0.434c0.691,0.146,0.832,0.586,0.832,1.459c0,0.51-0.07,1.02-0.141,1.383
	c-3.527-0.076-7.676-0.217-11.065-0.217s-7.746,0.141-11.273,0.217c-0.07-0.363-0.141-0.873-0.141-1.383
	c0-0.873,0.141-1.313,0.832-1.459l2.49-0.434c1.729-0.293,1.799-1.752,1.799-6.773v-29.719c0-5.021-0.07-6.48-1.799-6.773
	l-2.49-0.434c-0.691-0.146-0.832-0.586-0.832-1.459c0-0.51,0.07-1.02,0.141-1.383c3.527,0.07,6.155,0.217,9.545,0.217
	c4.84,0,12.794-0.51,15.838-0.51c10.169,0,16.395,4.664,16.395,13.184c0,5.684-3.943,9.832-9.199,11.725
	c-0.07,0.293-0.141,0.293-0.07,0.586c1.661,3.346,5.534,9.539,8.37,13.688c4.148,6.123,5.394,7.506,7.471,7.869l1.104,0.217
	c0.691,0.146,0.832,0.586,0.832,1.459C318.088,173.123,317.947,173.632,317.88,173.996z M288.829,127.818
	c-0.97,0-1.937,0.146-2.836,0.516c-0.416,0.65-0.762,2.473-0.762,7.137v11.871c0.07,0.217,0.138,0.287,0.346,0.434h3.182
	c4.427,0,7.954-2.982,7.954-9.539C296.713,130.373,292.772,127.818,288.829,127.818z"/>
<path fill="#004D95" d="M365.687,166.419c-4.497,4.811-10.998,7.359-18.606,7.359h-17.016c-3.527,0-7.884,0.141-9.82,0.217
	c-0.07-0.363-0.141-0.873-0.141-1.383c0-0.873,0.141-1.313,0.832-1.459l2.49-0.434c1.729-0.293,1.799-1.752,1.799-6.773v-29.789
	c0-5.027-0.07-6.48-1.799-6.773l-2.49-0.439c-0.691-0.146-0.832-0.51-0.832-1.383c0-0.51,0.07-1.09,0.141-1.453
	c1.658,0.141,6.155,0.287,9.199,0.287c5.531,0,10.236-0.873,16.324-0.873c7.954,0,15.076,2.186,20.057,7.359
	c4.151,4.295,6.571,10.412,6.571,17.912C372.396,155.498,370.043,161.761,365.687,166.419z M343.828,128.111
	c-1.937,0-4.286,0.293-5.602,0.803c-0.346,0.656-0.554,1.313-0.554,6.188v26.15c0,6.551,0.832,8.01,3.46,8.01h4.286
	c6.366,0,13.559-4.881,13.559-19.154C358.978,134.814,352.198,128.111,343.828,128.111z"/>
<path fill="#004D95" d="M398.76,173.996c-3.527-0.076-7.679-0.217-11.068-0.217c-3.387,0-7.746,0.141-11.273,0.217
	c-0.067-0.363-0.138-0.873-0.138-1.383c0-0.873,0.138-1.313,0.829-1.459l2.49-0.434c1.729-0.293,1.799-1.752,1.799-6.773v-29.719
	c0-5.021-0.07-6.48-1.799-6.773l-2.49-0.434c-0.691-0.146-0.829-0.586-0.829-1.459c0-0.51,0.07-1.02,0.138-1.383
	c3.527,0.07,7.679,0.217,11.068,0.217c3.387,0,7.746-0.146,11.273-0.217c0.07,0.363,0.138,0.873,0.138,1.383
	c0,0.873-0.138,1.313-0.829,1.459l-2.49,0.434c-1.729,0.293-1.729,1.752-1.729,6.773v29.719c0,5.021,0,6.48,1.729,6.773l2.49,0.434
	c0.691,0.146,0.829,0.586,0.829,1.459C398.897,173.123,398.83,173.632,398.76,173.996z"/>
<path fill="#004D95" d="M451.333,173.996c-3.39-0.076-8.092-0.217-11.344-0.217s-8.37,0.141-11.76,0.217
	c-0.067-0.363-0.205-0.873-0.205-1.383c0-0.873,0.138-1.313,0.829-1.459l2.074-0.363c1.453-0.293,2.077-0.727,2.077-1.746
	c0-1.166-1.178-4.447-1.869-6.627l-1.591-4.734c-0.138-0.223-0.275-0.363-0.554-0.439h-13.764c-0.278,0.076-0.346,0.217-0.483,0.439
	l-1.453,4.734c-1.523,5.021-0.97,7.934,1.658,8.373l2.215,0.363c0.691,0.146,0.829,0.586,0.829,1.459c0,0.51-0.138,1.02-0.208,1.383
	c-3.387-0.076-5.186-0.217-8.367-0.217s-4.564,0.141-7.954,0.217c-0.07-0.363-0.208-0.873-0.208-1.383
	c0-0.873,0.138-1.313,0.829-1.459l0.97-0.217c1.799-0.439,2.903-2.256,4.91-8.596l9.545-29.713c0.275-0.873,0.554-2.039,0.554-2.912
	c0-0.223,0-0.51-0.07-0.732c0.624-1.529,2.077-1.453,5.95-3.568c3.457-1.893,3.94-3.059,5.326-3.059
	c0.483,0,0.899,0.223,1.245,0.586c0.829,3.422,1.866,6.264,3.665,11.139l10.444,28.26c2.353,6.48,3.044,8.086,4.91,8.52l1.107,0.293
	c0.691,0.146,0.899,0.586,0.899,1.459C451.541,173.123,451.403,173.632,451.333,173.996z M421.866,134.304h-0.275l-5.326,18.059
	c0.07,0.223,0.208,0.363,0.416,0.51h10.72c0.208-0.146,0.346-0.287,0.416-0.51L421.866,134.304z"/>
<path d="M29.323,186.866h3.309l-11.114,27.281h-3.582L7.548,186.866h3.863l8.653,22.869L29.323,186.866z"/>
<path d="M61.74,209.102h3.27v0.176c0,0.867-0.34,1.752-1.02,2.654c-0.681,0.902-1.579,1.588-2.697,2.057
	c-1.119,0.469-2.404,0.703-3.855,0.703c-2.94,0-5.208-0.967-6.803-2.9c-1.597-1.934-2.395-4.377-2.395-7.33
	c0-3.023,0.844-5.528,2.533-7.515s3.864-2.979,6.527-2.979c1.463,0,2.789,0.322,3.977,0.967c1.187,0.645,2.127,1.649,2.818,3.015
	s1.037,3.267,1.037,5.704v1.09H51.475c0,2.098,0.551,3.826,1.651,5.186c1.102,1.359,2.626,2.039,4.578,2.039
	c1.402,0,2.426-0.278,3.07-0.835s0.967-1.175,0.967-1.854V209.102z M51.68,202.282h10.324v-0.387c0-0.914-0.214-1.802-0.642-2.663
	s-1.02-1.5-1.772-1.916s-1.632-0.624-2.637-0.624c-1.187,0-2.282,0.489-3.287,1.468S51.999,200.512,51.68,202.282z"/>
<path d="M86.612,214.147h-3.27v-19.635h3.27v3.463c0.552-0.996,1.156-1.77,1.811-2.32s1.351-0.97,2.09-1.257
	c0.738-0.287,1.491-0.431,2.26-0.431c0.697,0,1.298,0.1,1.802,0.299v3.393c-0.792-0.375-1.633-0.563-2.522-0.563
	c-1.261,0-2.483,0.539-3.667,1.617c-1.182,1.078-1.774,2.988-1.774,5.73V214.147z"/>
<path d="M109.462,208.961h3.27v0.07c0,0.844,0.319,1.544,0.959,2.101c0.639,0.557,1.72,0.835,3.243,0.835
	c1.336,0,2.42-0.328,3.252-0.984c0.831-0.656,1.247-1.43,1.247-2.32c0-1.207-0.816-2.063-2.446-2.566l-1.66-0.51l-1.1-0.352
	l-2.253-0.703c-2.575-0.949-3.861-2.525-3.861-4.729c0-1.547,0.624-2.906,1.872-4.078c1.247-1.172,3.101-1.758,5.562-1.758
	c2.424,0,4.151,0.501,5.177,1.503c1.027,1.002,1.54,2.112,1.54,3.331v0.07h-3.287v-0.07c0-0.656-0.328-1.172-0.984-1.547
	s-1.529-0.563-2.621-0.563c-1.301,0-2.297,0.272-2.988,0.817c-0.69,0.545-1.036,1.216-1.036,2.013c0,0.609,0.224,1.104,0.672,1.485
	s1.203,0.724,2.263,1.028l1.572,0.439l1.135,0.334c1.585,0.457,2.571,0.779,2.962,0.967c0.39,0.188,0.782,0.428,1.179,0.721
	c0.546,0.422,0.952,0.932,1.214,1.529s0.393,1.295,0.393,2.092c0,1.852-0.662,3.41-1.986,4.676s-3.258,1.898-5.801,1.898
	c-1.61,0-2.944-0.24-4.006-0.721s-1.907-1.146-2.537-1.995s-0.945-1.831-0.945-2.944V208.961z"/>
<path d="M142.436,190.153v-3.287h3.27v3.287H142.436z M142.436,194.512h3.27v19.635h-3.27V194.512z"/>
<path d="M176.729,209.102h3.287v0.176c0,0.879-0.334,1.764-1.002,2.654s-1.542,1.573-2.624,2.048s-2.385,0.712-3.91,0.712
	c-2.918,0-5.167-0.917-6.744-2.751c-1.579-1.834-2.367-4.374-2.367-7.62c0-3.234,0.788-5.769,2.367-7.603
	c1.578-1.834,3.826-2.751,6.744-2.751c1.525,0,2.829,0.237,3.91,0.712s1.956,1.125,2.624,1.951s1.002,1.743,1.002,2.751v0.176
	h-3.287v-0.176c0.035-0.715-0.283-1.342-0.955-1.881c-0.671-0.539-1.708-0.809-3.11-0.809c-1.664,0-3.062,0.604-4.191,1.811
	s-1.693,3.146-1.693,5.818c0,2.684,0.564,4.629,1.693,5.836s2.527,1.811,4.191,1.811c1.402,0,2.43-0.27,3.083-0.809
	c0.655-0.539,0.981-1.166,0.981-1.881V209.102z"/>
<path d="M200.653,214.147h-3.27v-28.371h3.27v12.129c0.691-1.066,1.362-1.857,2.013-2.373s1.33-0.905,2.039-1.169
	s1.497-0.396,2.364-0.396c1.23,0,2.335,0.252,3.313,0.756s1.737,1.245,2.276,2.224s0.809,2.546,0.809,4.702v12.498h-3.27v-11.092
	c0-1.758-0.117-3.003-0.352-3.735s-0.68-1.307-1.336-1.723s-1.406-0.624-2.25-0.624c-0.961,0-1.875,0.281-2.742,0.844
	s-1.562,1.348-2.083,2.355s-0.782,2.449-0.782,4.324V214.147z"/>
<path d="M244.367,209.102h3.27v0.176c0,0.867-0.34,1.752-1.02,2.654s-1.579,1.588-2.698,2.057c-1.116,0.469-2.402,0.703-3.855,0.703
	c-2.938,0-5.206-0.967-6.803-2.9s-2.394-4.377-2.394-7.33c0-3.023,0.844-5.528,2.534-7.515c1.688-1.986,3.864-2.979,6.527-2.979
	c1.462,0,2.789,0.322,3.976,0.967s2.127,1.649,2.818,3.015s1.037,3.267,1.037,5.704v1.09h-13.658c0,2.098,0.551,3.826,1.652,5.186
	c1.099,1.359,2.625,2.039,4.576,2.039c1.403,0,2.426-0.278,3.07-0.835s0.967-1.175,0.967-1.854V209.102z M234.306,202.282h10.324
	v-0.387c0-0.914-0.214-1.802-0.642-2.663s-1.02-1.5-1.772-1.916s-1.632-0.624-2.637-0.624c-1.187,0-2.282,0.489-3.287,1.468
	S234.625,200.512,234.306,202.282z"/>
<path d="M269.237,214.147h-3.27v-19.635h3.27v3.463c0.554-0.996,1.154-1.77,1.811-2.32c0.653-0.551,1.351-0.97,2.089-1.257
	s1.494-0.431,2.262-0.431c0.697,0,1.298,0.1,1.802,0.299v3.393c-0.794-0.375-1.635-0.563-2.522-0.563
	c-1.26,0-2.481,0.539-3.665,1.617s-1.775,2.988-1.775,5.73V214.147z"/>
<path d="M306.028,194.512h3.27v19.635h-3.27v-3.428c-0.689,1.055-1.365,1.846-2.031,2.373c-0.664,0.527-1.35,0.926-2.051,1.195
	c-0.699,0.27-1.467,0.404-2.297,0.404c-1.842,0-3.404-0.513-4.688-1.538s-1.924-3.091-1.924-6.196v-12.445h3.27v11.074
	c0,2.871,0.387,4.605,1.162,5.203c0.777,0.598,1.738,0.896,2.883,0.896c0.99,0,1.926-0.284,2.801-0.853
	c0.879-0.568,1.576-1.365,2.096-2.391c0.518-1.025,0.779-2.452,0.779-4.28V194.512z"/>
<path d="M331.003,214.147h-3.27v-19.635h3.27v3.393c0.691-1.066,1.363-1.857,2.014-2.373s1.33-0.905,2.039-1.169
	s1.496-0.396,2.363-0.396c1.23,0,2.336,0.252,3.314,0.756s1.736,1.245,2.275,2.224s0.809,2.546,0.809,4.702v12.498h-3.27v-11.092
	c0-1.758-0.117-3.003-0.352-3.735s-0.691-1.307-1.371-1.723s-1.418-0.624-2.215-0.624c-0.961,0-1.875,0.281-2.742,0.844
	s-1.561,1.348-2.082,2.355s-0.783,2.449-0.783,4.324V214.147z"/>
<path d="M375.704,209.999c-0.67,1.383-1.537,2.42-2.607,3.111c-1.068,0.691-2.338,1.037-3.805,1.037
	c-2.338,0-4.27-0.917-5.789-2.751c-1.521-1.834-2.283-4.245-2.283-7.233c0-1.969,0.34-3.762,1.023-5.379
	c0.68-1.617,1.637-2.824,2.871-3.621c1.232-0.797,2.678-1.195,4.336-1.195c1.232,0,2.338,0.243,3.313,0.729
	c0.973,0.486,1.955,1.474,2.941,2.962v-3.146h3.27v16.049c0,4.031-0.422,6.691-1.268,7.98c-0.848,1.289-1.916,2.244-3.215,2.865
	c-1.297,0.621-2.82,0.932-4.57,0.932c-1.619,0-3.072-0.24-4.359-0.721c-1.285-0.48-2.264-1.14-2.932-1.978
	c-0.672-0.838-1.006-1.708-1.006-2.61v-0.299h3.27v0.281c0,0.867,0.469,1.562,1.412,2.083c0.938,0.521,2.133,0.782,3.58,0.782
	c1.176,0,2.184-0.202,3.023-0.606c0.842-0.404,1.518-1.061,2.027-1.969c0.514-0.908,0.768-2.558,0.768-4.948V209.999z
	 M375.704,203.741c0-2.098-0.541-3.797-1.623-5.098c-1.08-1.301-2.373-1.951-3.879-1.951c-1.6,0-2.926,0.656-3.984,1.969
	c-1.057,1.313-1.588,3.158-1.588,5.537c0,1.5,0.211,2.813,0.637,3.938c0.422,1.125,1.084,1.978,1.982,2.558
	c0.9,0.58,1.861,0.87,2.883,0.87c1.658,0,3-0.729,4.029-2.188C375.188,207.916,375.704,206.038,375.704,203.741z"/>
<path d="M410.103,209.102h3.27v0.176c0,0.867-0.34,1.752-1.02,2.654s-1.58,1.588-2.699,2.057c-1.115,0.469-2.402,0.703-3.855,0.703
	c-2.938,0-5.205-0.967-6.803-2.9c-1.596-1.934-2.393-4.377-2.393-7.33c0-3.023,0.844-5.528,2.533-7.515
	c1.688-1.986,3.865-2.979,6.527-2.979c1.463,0,2.789,0.322,3.977,0.967c1.186,0.645,2.127,1.649,2.818,3.015
	s1.037,3.267,1.037,5.704v1.09h-13.658c0,2.098,0.551,3.826,1.652,5.186c1.098,1.359,2.625,2.039,4.576,2.039
	c1.402,0,2.426-0.278,3.07-0.835s0.967-1.175,0.967-1.854V209.102z M400.042,202.282h10.324v-0.387c0-0.914-0.215-1.802-0.643-2.663
	s-1.02-1.5-1.771-1.916c-0.754-0.416-1.633-0.624-2.637-0.624c-1.188,0-2.283,0.489-3.287,1.468
	C401.022,199.138,400.36,200.512,400.042,202.282z"/>
<path d="M434.976,214.147h-3.27v-19.635h3.27v3.393c0.691-1.066,1.361-1.857,2.012-2.373s1.33-0.905,2.039-1.169
	s1.498-0.396,2.365-0.396c1.23,0,2.334,0.252,3.313,0.756s1.738,1.245,2.277,2.224s0.809,2.546,0.809,4.702v12.498h-3.27v-11.092
	c0-1.758-0.117-3.003-0.352-3.735s-0.691-1.307-1.371-1.723s-1.418-0.624-2.215-0.624c-0.961,0-1.875,0.281-2.742,0.844
	s-1.563,1.348-2.084,2.355s-0.781,2.449-0.781,4.324V214.147z"/>
<path fill="#004D95" d="M187.131,1.887V53.49c0.45,23.49,18.68,40.298,44.646,47.35c24.806-7.26,43.898-23.859,44.646-47.35V1.887
	c0,0-22.406-1.866-44.646-1.887C209.534-0.021,187.131,1.887,187.131,1.887L187.131,1.887z"/>
<polygon fill="#FFFFFF" points="233.098,57.908 250.014,73.846 261.609,62.074 245.183,46.585 233.2,57.873 233.098,57.908 "/>
<path fill-rule="evenodd" clip-rule="evenodd" fill="#FFFFFF" d="M213.724,34.626c-3.064-7.576-3.064-7.576-3.064-7.576
	c-0.035-0.141-0.176-0.539-0.176-0.697c0-0.838,0.193-1.477,0.858-1.477c1.157,0.006,1.471,1.166,1.682,1.4
	c0,0,3.023,4.33,3.627,9.381c0.217,1.799-0.076,2.578-0.867,4.541c-0.146,0.369-0.237,0.521-0.217,0.873
	c0.023,0.475,0.284,0.439,0.656,0.932l2.08,2.027l12.146-11.537l-10.11-9.674c-3.636-3.504-3.896-4.389-7.816-5.385
	c-3.234-0.539-6.026,0.902-7.775,2.191l0,0c-2.259,1.629-3.627,3.352-5.783,4.178c-0.419,0.158-0.765,0.322-0.879,0.82
	c-0.094,0.428,0.05,0.709,0.22,1.096c0.208,0.463,0.483,0.592,0.791,0.973l12.483,11.854c0,0,0,0,2.016-2.678
	C213.867,35.499,213.902,35.071,213.724,34.626L213.724,34.626z"/>
<path fill-rule="evenodd" clip-rule="evenodd" fill="#FFFFFF" d="M249.832,34.626c3.062-7.576,3.062-7.576,3.062-7.576
	c0.038-0.141,0.179-0.539,0.179-0.697c0-0.838-0.193-1.477-0.858-1.477c-1.157,0.006-1.468,1.166-1.682,1.4
	c0,0-3.023,4.33-3.63,9.381c-0.214,1.799,0.079,2.578,0.87,4.541c0.146,0.369,0.237,0.521,0.22,0.873
	c-0.029,0.475-0.287,0.439-0.659,0.932l-33.817,31.86l-10.91-12.135l40.611-38.909c3.636-3.504,3.896-4.207,7.816-5.203
	c3.234-0.533,6.026,0.721,7.775,2.01l0,0c2.259,1.629,3.814,3.352,5.783,4.178c0.41,0.17,0.765,0.322,0.876,0.82
	c0.097,0.428-0.047,0.709-0.217,1.096c-0.208,0.463-0.483,0.592-0.788,0.973l-12.486,11.854c0,0,0,0-2.013-2.678
	C249.688,35.499,249.653,35.071,249.832,34.626L249.832,34.626z"/>
<path fill="#FFFFFF" d="M231.762,97.028l-0.516-0.142c-25.049-6.879-40.239-23.288-40.633-43.897V5.32l1.714-0.146
	c0.196-0.018,19.825-1.686,39.149-1.686h0.305c19.427,0.016,39.243,1.668,39.442,1.686l1.717,0.144v47.637
	c-0.636,20.183-15.838,36.58-40.666,43.922L231.762,97.028L231.762,97.028z M194.363,8.771v44.183
	c0.357,18.678,14.312,33.68,37.361,40.173c22.897-6.932,36.891-21.942,37.468-40.232L269.19,8.774
	c-5.21-0.396-21.45-1.523-37.412-1.537h-0.302C215.615,7.238,199.538,8.372,194.363,8.771L194.363,8.771z"/>
</svg>
