<?xml version="1.0" encoding="utf-8"?>
<!-- Generator: Adobe Illustrator 14.0.0, SVG Export Plug-In  -->
<!DOCTYPE svg PUBLIC "-//W3C//DTD SVG 1.1//EN" "http://www.w3.org/Graphics/SVG/1.1/DTD/svg11.dtd" [ <!ENTITY
    ns_flows "http://ns.adobe.com/Flows/1.0/">
]>
<svg version="1.1" xmlns="http://www.w3.org/2000/svg" xmlns:xlink="http://www.w3.org/1999/xlink"
    xmlns:a="http://ns.adobe.com/AdobeSVGViewerExtensions/3.0/" x="0px" y="0px" width="394px" height="135px"
    viewBox="-0.342 -4.045 394 135" enable-background="new -0.342 -4.045 394 135" xml:space="preserve">
    <defs>
    </defs>
    <polygon fill="#00539F" points="0.122,17.775 394.353,17.775 394.353,76.912 0.122,76.912 0.122,17.775 " />
    <path fill="#00539F" d="M146.105,11.733c6.941,9.843,11.624,22.771,11.624,35.722c0,12.912-4.582,25.636-11.506,35.441l-9.902-6.924
	c5.506-7.841,9.262-18.189,9.262-28.517c0-10.362-3.939-20.811-9.479-28.659L146.105,11.733L146.105,11.733z" />
    <path fill="#00539F" d="M162.964,0c9.313,13.222,15.213,30.056,15.213,47.455c0,17.365-5.859,34.09-15.163,47.299l-9.977-7.007
	c7.903-11.253,12.979-25.507,12.979-40.292c0-14.811-5.102-29.257-13.021-40.488L162.964,0L162.964,0z" />
    <path fill-rule="evenodd" clip-rule="evenodd" fill="#00539F" d="M12.896,108.72c0-4.014-1.447-6.556-5.085-7.342
	c-1.096-0.234-2.221-0.25-3.346-0.25H0v15.253h4.691C9.316,116.38,12.896,114.39,12.896,108.72L12.896,108.72z M9.069,108.569
	c0,3.629-1.99,4.901-4.993,4.901H3.826v-9.4C6.82,104.07,9.069,104.706,9.069,108.569L9.069,108.569z" />
    <path fill-rule="evenodd" clip-rule="evenodd" fill="#00539F" d="M25.402,109.941c0-4.022-1.994-5.704-5.499-5.704
	c-3.429,0-5.641,2.358-5.641,6.23c0,4.859,2.851,6.164,6.736,6.164c1.242,0,3.191-0.05,4.354-0.418v-2.333
	c-1.121,0.117-2.262,0.15-3.413,0.15c-1.397,0-4.194-0.201-4.169-2.367h7.556C25.385,111.079,25.402,110.518,25.402,109.941
	L25.402,109.941z M22.215,109.473h-4.47c0-1.673,0.69-2.843,2.275-2.843C21.693,106.629,22.24,107.816,22.215,109.473
	L22.215,109.473z" />
    <path fill-rule="evenodd" clip-rule="evenodd" fill="#00539F" d="M38.564,116.38v-11.841h-3.5v7.024
	c0,0.101-0.209,0.435-0.276,0.535c-0.573,0.837-1.539,1.405-2.471,1.405c-1.292,0-1.317-1.046-1.317-2.175v-6.79h-3.491v8.003
	c0,3.002,0.748,3.922,3.491,3.922c1.426,0,3.081-0.786,4.064-1.907v1.823H38.564L38.564,116.38z" />
    <path fill="#00539F" d="M49.001,116.146v-2.434c-0.682,0.117-1.376,0.134-2.066,0.134c-1.438,0-1.488-1.238-1.488-2.484v-3.947
	h3.554v-2.659h-3.554v-3.011h-3.496v3.011h-1.514v2.659h1.514v5.093c0,3.329,1.973,4.006,4.553,4.006
	C47.354,116.514,48.203,116.414,49.001,116.146L49.001,116.146z" />
    <path fill="#00539F" d="M58.911,112.851c0-4.382-5.26-2.877-5.26-4.901c0-1.045,1.53-1.045,2.174-1.045
	c0.962,0,1.919,0.017,2.86,0.201v-2.317c-0.915-0.401-2.952-0.452-3.984-0.452c-2.124,0-4.528,0.753-4.528,3.613
	c0,4.349,5.285,3.044,5.285,4.951c0,1.145-1.347,1.187-2.082,1.187c-1.171,0-2.338,0-3.501-0.242v2.266
	c0.892,0.435,2.927,0.469,3.96,0.469C56.055,116.581,58.911,115.954,58.911,112.851L58.911,112.851z" />
    <path fill="#00539F"
        d="M69.912,116.162v-2.383c-0.669,0.05-1.309,0.067-1.973,0.067c-2.065,0-4.102-0.627-4.102-3.345
	c0-2.685,1.697-3.312,3.784-3.312c0.695,0,1.342,0.067,2.041,0.151v-2.451c-0.848-0.334-2.107-0.451-3.002-0.451
	c-3.78,0-6.327,1.689-6.327,6.23c0,4.775,2.915,5.879,6.666,5.879C67.98,116.547,68.946,116.414,69.912,116.162L69.912,116.162z" />
    <path fill="#00539F" d="M82.883,116.38v-7.978c0-2.994-0.748-3.93-3.496-3.93c-1.421,0-3.069,0.769-4.06,1.89v-6.774h-3.495v16.792
	h3.495v-7.016c0-0.083,0.209-0.443,0.276-0.527c0.573-0.836,1.539-1.389,2.479-1.389c1.28,0,1.304,1.021,1.304,2.142v6.79H82.883
	L82.883,116.38z" />
    <path fill-rule="evenodd" clip-rule="evenodd" fill="#00539F" d="M96.079,109.941c0-4.022-1.994-5.704-5.507-5.704
	c-3.429,0-5.632,2.358-5.632,6.23c0,4.859,2.844,6.164,6.737,6.164c1.241,0,3.182-0.05,4.353-0.418v-2.333
	c-1.129,0.117-2.271,0.15-3.413,0.15c-1.396,0-4.194-0.201-4.168-2.367h7.564C96.054,111.079,96.079,110.518,96.079,109.941
	L96.079,109.941z M92.893,109.473h-4.47c0-1.673,0.695-2.843,2.275-2.843C92.362,106.629,92.917,107.816,92.893,109.473
	L92.893,109.473z" />
    <path fill-rule="evenodd" clip-rule="evenodd" fill="#00539F"
        d="M119.127,116.38l-6.272-15.253h-3.58l-6.247,15.253h3.504
	l1.421-4.047h5.516l1.664,4.047H119.127L119.127,116.38z M112.257,109.364h-3.346l1.515-4.457L112.257,109.364L112.257,109.364z" />
    <polygon fill="#00539F" points="123.931,116.38 123.931,99.588 120.436,99.588 120.436,116.38 123.931,116.38 " />
    <polygon fill="#00539F" points="130.262,116.38 130.262,99.588 126.758,99.588 126.758,116.38 130.262,116.38 " />
    <path fill-rule="evenodd" clip-rule="evenodd" fill="#00539F" d="M143.382,114.239v-9.483c-1.859-0.151-3.733-0.218-5.59-0.218
	c-3.529,0-5.465,3.061-5.465,6.74c0,2.96,1.179,5.101,4.052,5.101c1.296,0,2.743-0.702,3.495-1.89
	c0.026,3.279-0.932,4.399-3.914,4.399c-0.74,0-1.472-0.067-2.203-0.117v2.408c0.731,0.134,1.463,0.251,2.203,0.251
	c2.497,0,5.766-0.251,6.891-3.211C143.308,116.991,143.382,115.56,143.382,114.239L143.382,114.239z M139.875,111.931
	c-0.393,1.02-1.325,1.781-2.333,1.781c-1.289,0-1.828-1.38-1.828-2.634c0-2.142,0.849-3.939,2.968-3.939
	c0.398,0,0.799,0.067,1.192,0.151V111.931L139.875,111.931z" />
    <path fill-rule="evenodd" clip-rule="evenodd" fill="#00539F" d="M156.571,109.941c0-4.022-1.995-5.704-5.499-5.704
	c-3.437,0-5.632,2.358-5.632,6.23c0,4.859,2.835,6.164,6.724,6.164c1.237,0,3.194-0.05,4.369-0.418v-2.333
	c-1.133,0.117-2.282,0.15-3.42,0.15c-1.401,0-4.186-0.201-4.161-2.367h7.556C156.551,111.079,156.571,110.518,156.571,109.941
	L156.571,109.941z M153.385,109.473h-4.458c0-1.673,0.673-2.843,2.254-2.843C152.853,106.629,153.401,107.816,153.385,109.473
	L153.385,109.473z" />
    <path fill="#00539F" d="M177.337,116.38v-7.978c0-2.994-0.763-3.93-3.504-3.93c-1.582,0-3.1,0.836-4.212,2.057
	c-0.394-1.839-1.907-2.057-3.346-2.057c-1.421,0-3.077,0.769-4.06,1.89v-1.823h-3.496v11.841h3.496v-7.016
	c0-0.067,0.213-0.393,0.255-0.477c0.578-0.87,1.51-1.439,2.505-1.439c1.284,0,1.3,1.021,1.3,2.142v6.79h3.505v-7.016
	c0-0.067,0.205-0.393,0.247-0.477c0.576-0.87,1.513-1.439,2.505-1.439c1.275,0,1.301,1.021,1.301,2.142v6.79H177.337L177.337,116.38
	z" />
    <path fill-rule="evenodd" clip-rule="evenodd" fill="#00539F" d="M190.525,109.941c0-4.022-1.991-5.704-5.495-5.704
	c-3.437,0-5.633,2.358-5.633,6.23c0,4.859,2.841,6.164,6.731,6.164c1.23,0,3.187-0.05,4.354-0.418v-2.333
	c-1.124,0.117-2.275,0.15-3.412,0.15c-1.404,0-4.194-0.201-4.169-2.367h7.556C190.508,111.079,190.525,110.518,190.525,109.941
	L190.525,109.941z M187.338,109.473h-4.462c0-1.673,0.69-2.843,2.271-2.843C186.82,106.629,187.359,107.816,187.338,109.473
	L187.338,109.473z" />
    <path fill-rule="evenodd" clip-rule="evenodd" fill="#00539F" d="M196.072,102.557v-2.467h-3.277v2.467H196.072L196.072,102.557z
	 M196.182,116.38v-11.841h-3.504v11.841H196.182L196.182,116.38z" />
    <path fill-rule="evenodd" clip-rule="evenodd" fill="#00539F" d="M210.067,116.38v-7.978c0-2.994-0.755-3.93-3.504-3.93
	c-1.421,0-3.077,0.769-4.052,1.89v-1.823h-3.503v11.841h3.503v-7.016c0-0.083,0.217-0.443,0.286-0.527
	c0.556-0.836,1.521-1.389,2.461-1.389c1.279,0,1.305,1.021,1.305,2.142v6.79H210.067L210.067,116.38z" />
    <path fill-rule="evenodd" clip-rule="evenodd" fill="#00539F" d="M223.256,109.941c0-4.022-1.986-5.704-5.498-5.704
	c-3.438,0-5.625,2.358-5.625,6.23c0,4.859,2.836,6.164,6.725,6.164c1.237,0,3.193-0.05,4.357-0.418v-2.333
	c-1.121,0.117-2.271,0.15-3.414,0.15c-1.395,0-4.188-0.201-4.167-2.367h7.556C223.23,111.079,223.256,110.518,223.256,109.941
	L223.256,109.941z M220.068,109.473h-4.456c0-1.673,0.681-2.843,2.271-2.843C219.547,106.629,220.095,107.816,220.068,109.473
	L220.068,109.473z" />
    <polygon fill="#00539F" points="244.385,101.127 240.955,101.127 237.584,111.998 234.174,101.127 230.271,101.127 235.063,116.38 
	238.475,116.38 244.385,101.127 " />
    <path fill-rule="evenodd" clip-rule="evenodd" fill="#00539F" d="M254.876,109.941c0-4.022-2.003-5.704-5.507-5.704
	c-3.438,0-5.634,2.358-5.634,6.23c0,4.859,2.845,6.164,6.733,6.164c1.237,0,3.185-0.05,4.355-0.418v-2.333
	c-1.119,0.117-2.271,0.15-3.416,0.15c-1.391,0-4.184-0.201-4.169-2.367h7.562C254.842,111.079,254.876,110.518,254.876,109.941
	L254.876,109.941z M251.689,109.473h-4.465c0-1.673,0.681-2.843,2.269-2.843C251.167,106.629,251.706,107.816,251.689,109.473
	L251.689,109.473z" />
    <path fill="#00539F" d="M265.062,108.067v-3.378c-0.339-0.151-0.706-0.218-1.084-0.218c-1.438,0-2.81,1.137-3.457,2.534v-2.467
	h-3.504v11.841h3.504v-5.678c0-0.15,0.213-0.61,0.279-0.761c0.641-1.372,1.832-1.973,3.178-1.973
	C264.355,107.968,264.689,108,265.062,108.067L265.062,108.067z" />
    <path fill="#00539F" d="M274.786,112.851c0-4.382-5.265-2.877-5.265-4.901c0-1.045,1.538-1.045,2.179-1.045
	c0.968,0,1.933,0.017,2.865,0.201v-2.317c-0.915-0.401-2.966-0.452-3.997-0.452c-2.112,0-4.524,0.753-4.524,3.613
	c0,4.349,5.284,3.044,5.284,4.951c0,1.145-1.343,1.187-2.074,1.187c-1.176,0-2.338,0-3.504-0.242v2.266
	c0.891,0.435,2.925,0.469,3.949,0.469C271.936,116.581,274.786,115.954,274.786,112.851L274.786,112.851z" />
    <path fill-rule="evenodd" clip-rule="evenodd" fill="#00539F" d="M280.372,102.557v-2.467h-3.268v2.467H280.372L280.372,102.557z
	 M280.491,116.38v-11.841h-3.496v11.841H280.491L280.491,116.38z" />
    <path fill="#00539F" d="M292.122,116.162v-2.383c-0.667,0.05-1.316,0.067-1.964,0.067c-2.066,0-4.104-0.627-4.104-3.345
	c0-2.685,1.691-3.312,3.769-3.312c0.694,0,1.359,0.067,2.049,0.151v-2.451c-0.85-0.334-2.117-0.451-3.016-0.451
	c-3.758,0-6.305,1.689-6.305,6.23c0,4.775,2.906,5.879,6.655,5.879C290.198,116.547,291.166,116.414,292.122,116.162
	L292.122,116.162z" />
    <path fill="#00539F" d="M305.093,116.38v-7.978c0-2.994-0.756-3.93-3.504-3.93c-1.412,0-3.069,0.769-4.052,1.89v-6.774h-3.504
	v16.792h3.504v-7.016c0-0.083,0.21-0.443,0.285-0.527c0.557-0.836,1.521-1.389,2.464-1.389c1.279,0,1.303,1.021,1.303,2.142v6.79
	H305.093L305.093,116.38z" />
    <path fill-rule="evenodd" clip-rule="evenodd" fill="#00539F" d="M318.281,109.941c0-4.022-1.996-5.704-5.498-5.704
	c-3.438,0-5.621,2.358-5.621,6.23c0,4.859,2.831,6.164,6.717,6.164c1.24,0,3.199-0.05,4.361-0.418v-2.333
	c-1.122,0.117-2.271,0.15-3.412,0.15c-1.405,0-4.194-0.201-4.169-2.367h7.555C318.264,111.079,318.281,110.518,318.281,109.941
	L318.281,109.941z M315.105,109.473h-4.472c0-1.673,0.685-2.843,2.274-2.843C314.581,106.629,315.119,107.816,315.105,109.473
	L315.105,109.473z" />
    <path fill="#00539F" d="M328.466,108.067v-3.378c-0.343-0.151-0.706-0.218-1.074-0.218c-1.438,0-2.81,1.137-3.451,2.534v-2.467
	h-3.502v11.841h3.502v-5.678c0-0.15,0.198-0.61,0.275-0.761c0.638-1.372,1.821-1.973,3.176-1.973
	C327.76,107.968,328.1,108,328.466,108.067L328.466,108.067z" />
    <path fill="#00539F" d="M340.948,116.38v-11.841h-3.503v7.024c0,0.101-0.202,0.435-0.268,0.535c-0.574,0.837-1.54,1.405-2.481,1.405
	c-1.277,0-1.303-1.046-1.303-2.175v-6.79h-3.504v8.003c0,3.002,0.756,3.922,3.504,3.922c1.421,0,3.077-0.786,4.052-1.907v1.823
	H340.948L340.948,116.38z" />
    <path fill="#00539F" d="M354.852,116.38v-7.978c0-2.994-0.756-3.93-3.512-3.93c-1.413,0-3.062,0.769-4.044,1.89v-1.823h-3.512
	v11.841h3.512v-7.016c0-0.083,0.201-0.443,0.268-0.527c0.58-0.836,1.53-1.389,2.47-1.389c1.289,0,1.307,1.021,1.307,2.142v6.79
	H354.852L354.852,116.38z" />
    <path fill-rule="evenodd" clip-rule="evenodd" fill="#00539F" d="M367.956,114.239v-9.483c-1.846-0.151-3.726-0.218-5.582-0.218
	c-3.529,0-5.466,3.061-5.466,6.74c0,2.96,1.179,5.101,4.045,5.101c1.304,0,2.755-0.702,3.504-1.89
	c0.031,3.279-0.934,4.399-3.915,4.399c-0.731,0-1.463-0.067-2.196-0.117v2.408c0.733,0.134,1.465,0.251,2.196,0.251
	c2.496,0,5.775-0.251,6.9-3.211C367.895,116.991,367.956,115.56,367.956,114.239L367.956,114.239z M364.457,111.931
	c-0.386,1.02-1.334,1.781-2.342,1.781c-1.271,0-1.827-1.38-1.827-2.634c0-2.142,0.855-3.939,2.985-3.939
	c0.385,0,0.798,0.067,1.184,0.151V111.931L364.457,111.931z" />
    <path fill-rule="evenodd" clip-rule="evenodd" fill="#00539F" d="M381.148,109.941c0-4.022-1.999-5.704-5.493-5.704
	c-3.43,0-5.625,2.358-5.625,6.23c0,4.859,2.831,6.164,6.73,6.164c1.23,0,3.17-0.05,4.354-0.418v-2.333
	c-1.141,0.117-2.283,0.15-3.412,0.15c-1.407,0-4.194-0.201-4.169-2.367h7.549C381.14,111.079,381.148,110.518,381.148,109.941
	L381.148,109.941z M377.966,109.473h-4.458c0-1.673,0.691-2.843,2.254-2.843C377.436,106.629,377.991,107.816,377.966,109.473
	L377.966,109.473z" />
    <path fill="#00539F" d="M394.36,116.38v-7.978c0-2.994-0.747-3.93-3.504-3.93c-1.412,0-3.06,0.769-4.042,1.89v-1.823h-3.513v11.841
	h3.513v-7.016c0-0.083,0.209-0.443,0.271-0.527c0.569-0.836,1.534-1.389,2.472-1.389c1.275,0,1.299,1.021,1.299,2.142v6.79H394.36
	L394.36,116.38z" />
    <path fill-rule="evenodd" clip-rule="evenodd" fill="#FFFFFF" d="M54.011,47.195c0-11.273-4.487-18.578-15.978-20.811
	c-3.478-0.656-7.1-0.723-10.633-0.723H11.056v43.377h17.068C42.726,69.039,54.011,63.331,54.011,47.195L54.011,47.195z
	 M39.698,46.698c0,8.601-4.354,13.171-13.021,13.171h-1.309V34.773h2.107C35.495,34.773,39.698,38.594,39.698,46.698L39.698,46.698z
	" />
    <path fill-rule="evenodd" clip-rule="evenodd" fill="#FFFFFF"
        d="M107.938,69.039L88.632,25.662H74.746L55.432,69.039h12.373
	l3.471-10.194h17.499l4.487,10.194H107.938L107.938,69.039z M84.647,49.658H74.312l4.486-13.155L84.647,49.658L84.647,49.658z" />
    <path fill-rule="evenodd" clip-rule="evenodd" fill="#FFFFFF"
        d="M221.516,69.039V21.777h-10.953v14.458
	c-2.158-0.355-4.371-0.564-6.521-0.564c-11.03,0-17.112,8.739-17.112,19.113c0,8.313,3.719,14.48,12.672,14.48
	c4.02,0,8.584-2.016,10.961-5.377v5.151H221.516L221.516,69.039z M210.563,56.725c-1.152,2.935-4.153,5.018-7.31,5.018
	c-4.02,0-5.733-4.085-5.733-7.522c0-5.942,2.656-11.252,9.313-11.252c1.224,0,2.504,0.226,3.73,0.443V56.725L210.563,56.725z" />
    <path fill-rule="evenodd" clip-rule="evenodd" fill="#FFFFFF" d="M241.258,30.082V23.14h-10.237v6.941H241.258L241.258,30.082z
	 M241.622,69.039V35.672H230.67v33.367H241.622L241.622,69.039z" />
    <path fill="#FFFFFF" d="M275.912,45.631v-9.534c-1.091-0.426-2.229-0.652-3.371-0.652c-4.516,0-8.817,3.228-10.816,7.175v-6.949
	h-10.952v33.367h10.952V52.995c0-0.422,0.641-1.714,0.864-2.145c1.999-3.797,5.734-5.52,9.952-5.52
	C273.683,45.331,274.746,45.406,275.912,45.631L275.912,45.631z" />
    <path fill-rule="evenodd" clip-rule="evenodd" fill="#FFFFFF" d="M313.138,50.85c0-11.319-6.229-16.044-17.188-16.044
	c-10.733,0-17.616,6.665-17.616,17.558c0,13.673,8.878,17.323,21.063,17.323c3.858,0,9.95-0.067,13.601-1.138v-6.602
	c-3.508,0.359-7.088,0.426-10.676,0.426c-4.356,0-13.113-0.564-13.029-6.648h23.644C313.071,54.078,313.138,52.498,313.138,50.85
	L313.138,50.85z M303.188,49.558h-13.98c0-4.717,2.162-8.012,7.102-8.012C301.53,41.546,303.254,44.908,303.188,49.558
	L303.188,49.558z" />
    <polygon fill="#FFFFFF" points="355.018,69.039 340.199,49.353 353.589,35.672 341.487,35.672 331.097,50.783 331.097,21.777 
	320.139,21.777 320.139,69.039 331.097,69.039 331.097,52.648 343.354,69.039 355.018,69.039 " />
    <path fill="#FFFFFF" d="M383.227,68.333v-6.816c-2.145,0.293-4.304,0.368-6.448,0.368c-4.521,0-4.652-3.512-4.652-7.016v-11.11
	h11.101v-7.447h-11.101v-8.454h-10.957v8.454h-4.728v7.447h4.728v14.321c0,9.396,6.146,11.328,14.242,11.328
	C378.067,69.407,380.715,69.114,383.227,68.333L383.227,68.333z" />
    <path fill="#FFFFFF" d="M142.777,14.079c6.64,9.413,10.541,20.895,10.541,33.276c0,12.347-3.868,23.796-10.483,33.2l-8.07-5.666
	c5.474-7.79,8.694-17.273,8.694-27.534c0-10.286-3.229-19.794-8.727-27.593L142.777,14.079L142.777,14.079z" />
    <path fill="#FFFFFF" d="M125.353,26.276c4.211,5.958,6.691,13.23,6.691,21.078c0,7.789-2.438,15.037-6.616,20.978l-8.061-5.674
	c3.043-4.328,4.825-9.604,4.825-15.304c0-5.733-1.807-11.043-4.884-15.383L125.353,26.276L125.353,26.276z" />
    <path fill="#FFFFFF" d="M159.41,2.48c8.943,12.699,14.179,28.174,14.179,44.875c0,16.692-5.243,32.184-14.179,44.883l-8.07-5.695
	c7.811-11.081,12.391-24.595,12.391-39.188c0-14.609-4.588-28.133-12.408-39.226L159.41,2.48L159.41,2.48z" />
</svg>