<svg width="128" height="64" viewBox="0 0 128 64" fill="none" xmlns="http://www.w3.org/2000/svg">
<path d="M69.6591 17.4594C70.2368 17.6119 71.0484 17.6662 71.6158 17.6662C75.1969 17.6662 77.3344 15.6695 77.3344 12.3249C77.3344 8.98024 75.2731 7.04688 71.6791 7.04688C70.9321 7.04688 70.1011 7.13217 69.6578 7.25494C68.6782 7.53022 68.6782 8.20354 68.6782 8.74374V15.9706C68.6782 16.5108 68.6782 17.1841 69.6591 17.4594ZM71.7411 15.6243C71.471 15.6243 71.228 15.6087 71.0019 15.5751V9.13791C71.228 9.10431 71.471 9.0888 71.7411 9.0888C73.8076 9.0888 74.9462 10.2545 74.9462 12.3727C74.9462 14.4909 73.8076 15.6255 71.7411 15.6255V15.6243Z" fill="#00A0DE"/>
<path d="M79.9152 17.6354C80.6868 17.6354 81.0771 17.3188 81.0771 16.6933V8.02025C81.0771 7.39475 80.6855 7.07812 79.9152 7.07812C79.145 7.07812 78.7534 7.39475 78.7534 8.02025V16.692C78.7534 17.3175 79.145 17.6341 79.9152 17.6341V17.6354Z" fill="#00A0DE"/>
<path d="M84.0885 17.5563H88.6286C89.2541 17.5563 89.5707 17.2126 89.5707 16.5354C89.5707 15.8582 89.2541 15.5144 88.6286 15.5144H85.1405V13.236H87.8894C88.5149 13.236 88.8315 12.8922 88.8315 12.215C88.8315 11.5378 88.5149 11.1941 87.8894 11.1941H85.1405V9.19866H88.5343C89.1598 9.19866 89.4764 8.8549 89.4764 8.1777C89.4764 7.50051 89.1598 7.15674 88.5343 7.15674H84.0885C83.295 7.15674 82.9267 7.52635 82.9009 8.31986V16.3945C82.9267 17.188 83.2963 17.5576 84.0885 17.5576V17.5563Z" fill="#00A0DE"/>
<path d="M76.7996 21.1531C76.7996 20.5276 76.408 20.2109 75.6377 20.2109C74.8675 20.2109 74.4914 20.5276 74.4914 21.1531V24.3116H71.0033V21.1531C71.0033 20.5276 70.6118 20.2109 69.8415 20.2109C69.0713 20.2109 68.6797 20.5276 68.6797 21.1531V29.8248C68.6797 30.4503 69.0713 30.7669 69.8415 30.7669C70.6118 30.7669 71.0033 30.4503 71.0033 29.8248V26.4H74.4914V29.8248C74.4914 30.4503 74.883 30.7669 75.6533 30.7669C76.4235 30.7669 76.7996 30.4503 76.7996 29.8248V21.1531Z" fill="#00A0DE"/>
<path d="M78.9047 30.767C79.6103 30.767 79.9722 30.5344 80.1557 29.9644L80.6843 28.3942H84.3985L84.9271 29.9631C85.1145 30.5408 85.4737 30.767 86.2104 30.767C86.947 30.767 87.3102 30.5344 87.3102 30.0756C87.3102 29.8636 87.2391 29.6271 87.1318 29.3363L84.2253 21.3858C83.9165 20.5729 83.605 20.2097 82.5815 20.2097C81.5579 20.2097 81.2788 20.5561 80.9699 21.3871L78.0323 29.3363C77.9251 29.6271 77.854 29.8649 77.854 30.0756C77.854 30.3909 78.0362 30.767 78.906 30.767H78.9047ZM81.3602 26.4156L82.5336 22.9379L83.7213 26.4156H81.3602Z" fill="#00A0DE"/>
<path d="M93.6723 20.2883H89.5251C88.7316 20.2883 88.3633 20.6579 88.3633 21.4502V29.8233C88.3633 30.4488 88.7549 30.7655 89.5251 30.7655C90.2954 30.7655 90.6869 30.4488 90.6869 29.8233V27.2154H93.3104C93.7408 27.2154 94.2526 27.0357 94.2526 26.1789C94.2526 25.3221 93.7395 25.1424 93.3104 25.1424H90.6869V22.3768H93.6723C94.1026 22.3768 94.6144 22.1946 94.6144 21.3248C94.6144 20.455 94.1014 20.2883 93.6723 20.2883Z" fill="#00A0DE"/>
<path d="M102.989 20.2883H96.5168C96.0865 20.2883 95.5747 20.4706 95.5747 21.3403C95.5747 22.2101 96.0878 22.3768 96.5168 22.3768H98.5911V29.8233C98.5911 30.4488 98.9827 30.7655 99.7529 30.7655C100.523 30.7655 100.915 30.4488 100.915 29.8233V22.3768H102.989C103.419 22.3768 103.931 22.1946 103.931 21.3248C103.931 20.455 103.418 20.2883 102.989 20.2883Z" fill="#00A0DE"/>
<path d="M69.8401 43.8997C70.6116 43.8997 71.0019 43.5831 71.0019 42.9576V40.8601C71.2384 40.9066 71.524 40.9312 71.851 40.9312C73.0193 40.9312 74.0273 40.6146 74.7678 40.0149C75.604 39.3377 76.046 38.318 76.046 37.067C76.046 34.6813 74.4253 33.3127 71.6002 33.3127C70.8998 33.3127 70.1011 33.398 69.6578 33.5208C68.6782 33.7961 68.6782 34.4694 68.6782 35.0096V42.9589C68.6782 43.5844 69.0698 43.901 69.8401 43.901V43.8997ZM71.5847 35.3534C72.3653 35.3534 73.6745 35.586 73.6745 37.1446C73.6745 38.2896 72.9598 38.9203 71.6636 38.9203C71.4154 38.9203 71.2035 38.9009 71.0032 38.8608V35.4012C71.1867 35.3689 71.3741 35.3547 71.5847 35.3547V35.3534Z" fill="#00A0DE"/>
<path d="M79.706 42.9564V40.3484H82.3295C82.7598 40.3484 83.2716 40.1688 83.2716 39.312C83.2716 38.4551 82.7585 38.2755 82.3295 38.2755H79.706V35.5098H82.6913C83.1217 35.5098 83.6335 35.3276 83.6335 34.4579C83.6335 33.5881 83.1204 33.4214 82.6913 33.4214H78.5442C77.7506 33.4214 77.3823 33.791 77.3823 34.5845V42.9577C77.3823 43.5832 77.7739 43.8998 78.5442 43.8998C79.3144 43.8998 79.706 43.5832 79.706 42.9577V42.9564Z" fill="#00A0DE"/>
<path d="M85.9431 33.3425C85.1715 33.3425 84.7812 33.6592 84.7812 34.2847V42.6578C84.7812 43.4513 85.1509 43.821 85.9431 43.821H90.1226C90.5529 43.821 91.0647 43.6387 91.0647 42.769C91.0647 41.8992 90.5516 41.7325 90.1226 41.7325H87.1062V34.286C87.1062 33.6604 86.7146 33.3438 85.9444 33.3438L85.9431 33.3425Z" fill="#00A0DE"/>
<path d="M94.4931 42.9564V34.2847C94.4931 33.6592 94.1015 33.3425 93.3313 33.3425C92.561 33.3425 92.1694 33.6592 92.1694 34.2847V42.9564C92.1694 43.5819 92.561 43.8985 93.3313 43.8985C94.1015 43.8985 94.4931 43.5819 94.4931 42.9564Z" fill="#00A0DE"/>
<path d="M100.897 35.3212C101.474 35.3212 102.015 35.4608 102.419 35.7167C102.488 35.758 102.55 35.7981 102.609 35.8356C102.833 35.979 103.01 36.0915 103.222 36.0915C103.779 36.0915 104.274 35.4595 104.274 34.9607C104.274 34.5885 103.958 34.1982 103.409 33.8893C102.657 33.4641 101.785 33.2483 100.818 33.2483C97.8016 33.2483 95.854 35.3445 95.854 38.5896C95.854 41.8347 97.8559 43.9942 100.835 43.9942C101.809 43.9942 102.701 43.7668 103.412 43.3377C103.992 42.9927 104.275 42.6373 104.275 42.2509C104.275 41.7714 103.788 41.1511 103.27 41.1511C103.064 41.1511 102.891 41.2583 102.671 41.394C102.604 41.4354 102.533 41.4793 102.45 41.5271C102.016 41.7959 101.543 41.9213 100.96 41.9213C99.2839 41.9213 98.2423 40.6328 98.2423 38.5586C98.2423 36.4844 99.2348 35.3225 100.898 35.3225L100.897 35.3212Z" fill="#00A0DE"/>
<path d="M112.464 33.3425C111.703 33.3425 111.318 33.6592 111.318 34.2847V37.4432H107.856V34.2847C107.856 33.6592 107.464 33.3425 106.694 33.3425C105.924 33.3425 105.532 33.6592 105.532 34.2847V42.9564C105.532 43.5819 105.924 43.8985 106.694 43.8985C107.464 43.8985 107.856 43.5819 107.856 42.9564V39.5316H111.318V42.9564C111.318 43.5819 111.71 43.8985 112.48 43.8985C113.25 43.8985 113.626 43.5819 113.626 42.9564V34.2847C113.626 33.6592 113.235 33.3425 112.464 33.3425Z" fill="#00A0DE"/>
<path d="M122.056 33.4214H115.584C115.154 33.4214 114.642 33.6036 114.642 34.4734C114.642 35.3431 115.155 35.5098 115.584 35.5098H117.658V42.9564C117.658 43.5819 118.05 43.8985 118.82 43.8985C119.591 43.8985 119.982 43.5819 119.982 42.9564V35.5098H122.056C122.487 35.5098 122.998 35.3276 122.998 34.4579C122.998 33.5881 122.485 33.4214 122.056 33.4214Z" fill="#00A0DE"/>
<path d="M73.0451 51.5208L76.1933 48.1102C76.5487 47.7277 76.7206 47.4033 76.7206 47.119C76.7206 46.5426 76.1015 46.4754 75.6363 46.4754C74.9332 46.4754 74.5584 46.6473 74.1501 47.1526L71.0019 50.8979V47.4163C71.0019 46.7907 70.6103 46.4741 69.8401 46.4741C69.0698 46.4741 68.6782 46.7907 68.6782 47.4163V56.088C68.6782 56.7135 69.0698 57.0301 69.8401 57.0301C70.6103 57.0301 71.0019 56.7135 71.0019 56.088V52.2471L74.0376 56.1759C74.552 56.8466 74.9061 57.0301 75.6828 57.0301C76.161 57.0301 76.7981 56.9616 76.7981 56.371C76.7981 56.0893 76.6521 55.7856 76.3522 55.447L73.0438 51.5195L73.0451 51.5208Z" fill="#00A0DE"/>
<path d="M83.9501 47.6502C83.6412 46.8373 83.3311 46.4741 82.3075 46.4741C81.284 46.4741 81.0048 46.8205 80.696 47.6515L77.7584 55.6008C77.6512 55.8915 77.5801 56.128 77.5801 56.34C77.5801 56.6553 77.7623 57.0314 78.6321 57.0314C79.3377 57.0314 79.6995 56.7988 79.8831 56.2288L80.4116 54.6586H84.1259L84.6532 56.2275C84.8405 56.8052 85.1998 57.0314 85.9365 57.0314C86.6731 57.0314 87.0363 56.7988 87.0363 56.34C87.0363 56.1293 86.9652 55.8915 86.8579 55.6008L83.9514 47.6502H83.9501ZM83.4474 52.68H81.0862L82.2597 49.2023L83.4474 52.68Z" fill="#00A0DE"/>
<path d="M91.8946 50.6071C91.0041 50.2297 90.2339 49.9028 90.2339 49.3186C90.2339 48.7823 90.7521 48.423 91.5224 48.423C92.0729 48.423 92.5317 48.6014 93.0499 48.8676L93.152 48.9206C93.426 49.0653 93.5772 49.1455 93.7543 49.1455C94.2867 49.1455 94.7442 48.498 94.7442 47.9668C94.7442 47.5623 94.4948 47.3155 94.12 47.0712C93.457 46.6447 92.4684 46.3811 91.5392 46.3811C89.421 46.3811 87.9413 47.6347 87.9413 49.4285C87.9413 51.3205 89.5619 52.0158 90.8646 52.5754C91.8338 52.9915 92.6713 53.3508 92.6713 54.0629C92.6713 54.6742 92.0962 55.0838 91.2419 55.0838C90.5505 55.0838 90.0633 54.7956 89.5942 54.5165L89.5541 54.4919C89.2556 54.3123 89.0759 54.2037 88.8394 54.2037C88.307 54.2037 87.834 54.8628 87.834 55.3824C87.834 55.7339 88.0304 56.0247 88.4724 56.3245C89.2595 56.8647 90.1602 57.1258 91.2277 57.1258C93.4635 57.1258 94.9665 55.8502 94.9665 53.953C94.9665 51.9085 93.2658 51.1874 91.8985 50.6071H91.8946Z" fill="#00A0DE"/>
<path d="M99.9291 50.6071C99.0386 50.2297 98.2684 49.9028 98.2684 49.3186C98.2684 48.7823 98.7866 48.423 99.5569 48.423C100.107 48.423 100.566 48.6014 101.084 48.8676L101.187 48.9219C101.461 49.0666 101.61 49.1455 101.787 49.1455C102.32 49.1455 102.777 48.498 102.777 47.9668C102.777 47.5623 102.528 47.3155 102.153 47.0712C101.49 46.6447 100.502 46.3811 99.5724 46.3811C97.4542 46.3811 95.9745 47.6347 95.9745 49.4285C95.9745 51.3205 97.5951 52.0158 98.8978 52.5754C99.867 52.9915 100.704 53.3508 100.704 54.0629C100.704 54.6742 100.129 55.0838 99.2751 55.0838C98.5837 55.0838 98.0965 54.7956 97.6274 54.5165L97.5873 54.4919C97.2888 54.3123 97.1091 54.2037 96.8726 54.2037C96.3402 54.2037 95.8672 54.8628 95.8672 55.3824C95.8672 55.7339 96.0636 56.0247 96.5056 56.3245C97.2927 56.8647 98.1934 57.1258 99.2609 57.1258C101.497 57.1258 103 55.8502 103 53.953C103 51.9085 101.299 51.1874 99.9317 50.6071H99.9291Z" fill="#00A0DE"/>
<path d="M109.983 54.9109H106.495V52.6325H109.244C109.869 52.6325 110.186 52.2887 110.186 51.6115C110.186 50.9343 109.869 50.5905 109.244 50.5905H106.495V48.5951H109.889C110.514 48.5951 110.831 48.2514 110.831 47.5742C110.831 46.897 110.514 46.5532 109.889 46.5532H105.443C104.65 46.5532 104.281 46.9228 104.281 47.7163V55.791C104.281 56.5845 104.651 56.9541 105.443 56.9541H109.983C110.609 56.9541 110.925 56.6103 110.925 55.9332C110.925 55.256 110.609 54.9122 109.983 54.9122V54.9109Z" fill="#00A0DE"/>
<path d="M56.2253 43.9994C55.76 43.9994 55.2987 43.8043 54.9717 43.423L46.1591 33.1268C45.6306 32.5104 45.6306 31.6005 46.1591 30.9828L54.9717 20.6866C55.5636 19.9952 56.604 19.9138 57.2954 20.5057C57.9868 21.0976 58.0682 22.1379 57.4763 22.8293L49.5813 32.0529L57.4763 41.2764C58.0682 41.9678 57.9881 43.0082 57.2954 43.6001C56.9852 43.8663 56.604 43.9956 56.224 43.9956L56.2253 43.9994Z" fill="#FDC300"/>
<path d="M39.2371 32.0539L44.8033 25.5508C45.9871 24.168 45.8255 22.0873 44.4427 20.9035C43.0599 19.7197 40.9792 19.8812 39.7954 21.264L33.0661 29.1267V23.4081C33.0661 21.5884 31.5902 20.1125 29.7706 20.1125C27.9509 20.1125 26.4751 21.5884 26.4751 23.4081V28.7584H21.3845V23.4081C21.3845 21.5884 19.9086 20.1125 18.089 20.1125C16.2693 20.1125 14.7935 21.5884 14.7935 23.4081V40.6985C14.7935 42.5181 16.2693 43.994 18.089 43.994C19.9086 43.994 21.3845 42.5181 21.3845 40.6985V35.3481H26.4751V40.6985C26.4751 42.5181 27.9509 43.994 29.7706 43.994C31.5902 43.994 33.0661 42.5181 33.0661 40.6985V34.9798L39.7954 42.8425C40.4468 43.6037 41.3708 43.9953 42.3 43.9953C43.0586 43.9953 43.8198 43.7355 44.4414 43.2031C45.8243 42.0193 45.9858 39.9386 44.802 38.5558L39.2358 32.0526L39.2371 32.0539Z" fill="#00A0DE"/>
<path d="M51.6683 58.6094H11.4411C7.88971 58.6094 5 55.7197 5 52.1683V11.9411C5 8.38971 7.88971 5.5 11.4411 5.5H51.667C55.2184 5.5 58.1081 8.38971 58.1081 11.9411V13.8719C58.1081 14.7817 57.3702 15.5196 56.4604 15.5196C55.5506 15.5196 54.8126 14.7817 54.8126 13.8719V11.9411C54.8126 10.2068 53.4014 8.7968 51.6683 8.7968H11.4411C9.70677 8.7968 8.2968 10.2081 8.2968 11.9411V52.167C8.2968 53.9014 9.70806 55.3113 11.4411 55.3113H51.667C53.4014 55.3113 54.8113 53.9001 54.8113 52.167V50.2259C54.8113 49.3161 55.5493 48.5782 56.4591 48.5782C57.3689 48.5782 58.1068 49.3161 58.1068 50.2259V52.167C58.1068 55.7184 55.2171 58.6081 51.6657 58.6081L51.6683 58.6094Z" fill="#00A0DE"/>
</svg>
