<?xml version="1.0" encoding="UTF-8"?>
<svg xmlns="http://www.w3.org/2000/svg" xmlns:svg="http://www.w3.org/2000/svg" version="1.1" viewBox="0 0 128 64">
  <defs>
    <style>
      .cls-1 {
        fill: #63bc48;
      }

      .cls-2 {
        fill: #242021;
      }

      .cls-3 {
        fill: #818286;
      }
    </style>
  </defs>
  <!-- Generator: Adobe Illustrator 28.6.0, SVG Export Plug-In . SVG Version: 1.2.0 Build 709)  -->
  <g>
    <g id="svg3644">
      <g>
        <path id="path3214" class="cls-1" d="M14.7,17.2h16.4v3.6c0,1.5,0,3.6-2.6,6.1l-13.6,14c-3.3,3.4-5.7,4.4-9,3.6-3.4-.8-5.7-3.9-5.7-7.7v-11.9c1.6,2.1,2.2,3,4.3,3.9,6.4,2.8,12.7-3.4,11-9.6,0-.3-.1-.6-.8-2"/>
        <path id="path3230" class="cls-2" d="M88.4,34.7h-3.5v-7.6c0-1.2-.2-2-.6-2.6-.4-.6-1-.9-2-.9s-2,.6-2.5,1.3c-.5.6-.6,1.4-.6,2.8v7h-3.5v-17.5h3.5v6h0v-.2c.6-.8,1.2-1.2,1.9-1.5.7-.4,1.6-.6,2.3-.6,1,0,1.8.1,2.4.4.6.3,1.1.6,1.5,1.1.4.5.6,1,.8,1.7.1.7.2,1.5.2,2.3v8.3h0M122.8,34.7h-3.5v-13.4h3.3v2.5h.1c.2-.5.5-.8.8-1.2.3-.3.7-.7,1.1-.9.4-.2.8-.4,1.2-.6.4-.1.9-.2,1.3-.2s.4,0,.7,0v3.2c-.1,0-.3,0-.5,0-.2,0-.5,0-.7,0-.7,0-1.3.1-1.8.4-.5.2-.9.6-1.2,1-.3.4-.5.9-.6,1.4-.1.5-.2,1.1-.2,1.8v6h0M96.5,23.5c-.7,0-1.2.1-1.7.4-.4.3-.8.6-1.1,1-.3.4-.5.9-.6,1.5-.1.5-.2,1.1-.2,1.6s0,1.1.2,1.6c.1.5.3,1,.6,1.4.3.4.6.8,1.1,1,.4.3,1,.4,1.7.4s1.2-.1,1.7-.4c.5-.3.8-.6,1.1-1,.3-.4.5-.9.6-1.4.1-.5.2-1.1.2-1.6s0-1.1-.2-1.6c-.1-.5-.3-1-.6-1.5-.3-.4-.6-.8-1.1-1-.5-.3-1-.4-1.7-.4h0ZM96.5,35c-1.1,0-2-.2-2.9-.5-.8-.3-1.6-.8-2.2-1.4-.6-.6-1.1-1.4-1.4-2.2-.3-.9-.5-1.8-.5-2.9s.2-2.1.5-2.9c.3-.9.8-1.6,1.4-2.2.6-.6,1.3-1.1,2.2-1.4.8-.3,1.8-.5,2.9-.5s2,.2,2.9.5c.9.3,1.6.8,2.2,1.4.6.6,1.1,1.4,1.4,2.2.3.9.5,1.9.5,2.9s-.2,2.1-.5,2.9-.8,1.6-1.4,2.2c-.6.6-1.3,1.1-2.2,1.4-.9.3-1.8.5-2.9.5h0M111.3,23.5c-.6,0-1.1.1-1.6.3-.4.2-.7.5-1,.8-.3.3-.4.6-.5,1-.1.3-.2.6-.2.8h0c0,.1,6.5.1,6.5.1,0,0,0,0,0-.1-.1-.9-.5-1.6-1-2.1-.5-.5-1.2-.8-2.2-.8h0ZM111.4,35c-1.1,0-2-.2-2.9-.5-.8-.3-1.6-.8-2.1-1.4-.6-.6-1-1.4-1.4-2.2-.3-.9-.5-1.8-.5-2.9s.2-1.9.5-2.8c.3-.9.8-1.6,1.4-2.2.6-.6,1.3-1.1,2.2-1.5.8-.4,1.8-.5,2.8-.5s2.1.2,3,.7c.8.4,1.5,1,2.1,1.8.5.7.9,1.6,1.2,2.5.2.9.3,1.9.3,2.9h-9.9c0,1.4.4,2.3,1,2.9.6.6,1.4.9,2.5.9s1.5-.2,2-.6c.5-.4.9-.8,1-1.2h3c-.5,1.5-1.3,2.6-2.3,3.3-1.1.7-2.4,1-3.9,1h0M68.1,23.5c-.6,0-1.1.1-1.6.3-.4.2-.8.5-1,.8-.2.3-.4.6-.5,1-.1.3-.2.6-.2.8h0c0,.1,6.5.1,6.5.1,0,0,0,0,0-.1-.1-.9-.5-1.6-1-2.1-.5-.5-1.2-.8-2.2-.8h0ZM68.2,35c-1.1,0-2-.2-2.9-.5-.8-.3-1.6-.8-2.2-1.4-.6-.6-1-1.4-1.4-2.2-.3-.9-.5-1.8-.5-2.9s.2-1.9.5-2.8c.3-.9.8-1.6,1.4-2.2.6-.6,1.3-1.1,2.2-1.5.8-.4,1.8-.5,2.8-.5s2.1.2,3,.7c.8.4,1.5,1,2.1,1.8.5.7.9,1.6,1.2,2.5.2.9.3,1.9.3,2.9h-9.9c0,1.4.4,2.3,1,2.9.6.6,1.4.9,2.5.9s1.5-.2,2-.6c.5-.4.9-.8,1-1.2h3c-.5,1.5-1.3,2.6-2.3,3.3-1.1.7-2.4,1-3.9,1h0M61.1,34.7h-12.3v-2.6l7.3-8.2h-6.8v-2.6h11.3v2.6l-7.3,8.2h7.8v2.6h0M45.3,34.8c-.6,0-1.1,0-1.6-.1-.5,0-.9-.2-1.3-.4-.4-.2-.7-.5-.9-.9-.2-.4-.3-.9-.3-1.6v-7.9h-2.3v-2.6h2.3v-4.1h3.5v4.1h2.8v2.6h-2.8v6.6c0,.7.1,1.1.4,1.4.2.2.7.4,1.4.4s.4,0,.6,0c.1,0,.3,0,.4,0v2.6c-.3,0-.6,0-.9,0-.4,0-.8,0-1.1,0h0M37.3,34.7h-3.7v-17.5h3.7v17.5h0"/>
        <path id="path3258" class="cls-3" d="M99.6,39.2h.8v.9h0c.4-.7,1-1,1.8-1,1.4,0,1.9.8,1.9,2v3.6h-.9v-3.7c0-.7-.4-1.1-1.1-1.1-1.1,0-1.6.7-1.6,1.7v3.1h-.9v-5.4M97.8,41.4c0-.9-.7-1.5-1.6-1.5s-1.5.7-1.6,1.5h3.1ZM98.7,42.9c-.2,1.2-1.1,1.8-2.3,1.8-1.7,0-2.5-1.2-2.6-2.9,0-1.6,1.1-2.8,2.5-2.8s2.5,1.8,2.5,3.1h-4.1c0,.9.5,1.8,1.7,1.8s1.2-.4,1.4-1.1h.9M92.1,41.8c0-1-.4-1.9-1.5-1.9s-1.6.9-1.6,2,.4,2.1,1.5,2.1,1.6-1.1,1.6-2.1h0ZM93,44.2c0,1.8-.8,2.7-2.5,2.7s-2.2-.4-2.2-1.6h.9c0,.7.8.9,1.4.9,1.2,0,1.6-.8,1.6-2.1v-.4h0c-.3.7-1,1-1.7,1-1.6,0-2.4-1.3-2.4-2.7s.6-2.9,2.5-2.9,1.3.3,1.6.9h0v-.8h.8v5M82.7,39.2h.8v.9h0c.4-.7,1-1,1.8-1,1.4,0,1.9.8,1.9,2v3.6h-.9v-3.7c0-.7-.4-1.1-1.1-1.1-1.1,0-1.6.7-1.6,1.7v3.1h-.9v-5.4M81.5,44.6h-.8v-.9h0c-.4.7-1,1-1.8,1-1.4,0-1.9-.8-1.9-2v-3.6h.9v3.7c0,.7.4,1.1,1.1,1.1,1.1,0,1.6-.7,1.6-1.7v-3.1h.9v5.4M73.4,39.2h.8v1.1h0c.4-.9,1-1.3,2-1.3v.9c-1.4,0-2,.8-2,2.2v2.4h-.9v-5.4M71.6,41.4c0-.9-.7-1.5-1.6-1.5s-1.5.7-1.6,1.5h3.1ZM72.4,42.9c-.2,1.2-1.1,1.8-2.3,1.8-1.7,0-2.5-1.2-2.6-2.9,0-1.6,1.1-2.8,2.5-2.8s2.5,1.8,2.5,3.1h-4.1c0,.9.5,1.8,1.7,1.8s1.3-.4,1.4-1.1h.9M62.2,37.1h.9v2.9h0c.3-.7,1.1-.9,1.7-.9,1.4,0,1.9.8,1.9,2v3.6h-.9v-3.7c0-.7-.4-1.1-1.1-1.1-1.1,0-1.6.7-1.6,1.7v3.1h-.9v-7.5M60.4,41c-.1-.7-.6-1.1-1.3-1.1-1.3,0-1.7,1-1.7,2.1s.5,2,1.6,2,1.4-.5,1.5-1.3h.9c-.2,1.3-1,2.1-2.4,2.1s-2.5-1.2-2.5-2.8.8-2.9,2.6-2.9,2.2.6,2.3,1.9h-.9M54.5,39.2h.9v5.4h-.9v-5.4ZM55.4,38.2h-.9v-1.1h.9v1.1M49.8,42.9c0,.8.7,1,1.5,1s1.3-.1,1.3-.8-.9-.8-1.8-1c-.9-.2-1.8-.5-1.8-1.5s1.1-1.5,2-1.5,2.2.4,2.2,1.7h-.9c0-.7-.7-.9-1.3-.9s-1.2.1-1.2.7.9.7,1.8.9c.9.2,1.8.5,1.8,1.5s-1.2,1.7-2.3,1.7-2.2-.5-2.3-1.8h.9M45.6,39.2h.8v1.1h0c.4-.9,1-1.3,2-1.3v.9c-1.4,0-2,.8-2,2.2v2.4h-.9v-5.4M43.8,41.4c0-.9-.7-1.5-1.6-1.5s-1.4.7-1.5,1.5h3,0ZM44.6,42.9c-.2,1.2-1.1,1.8-2.3,1.8-1.7,0-2.5-1.2-2.6-2.9,0-1.6,1.1-2.8,2.5-2.8s2.5,1.8,2.5,3.1h-4c0,.9.4,1.8,1.6,1.8s1.2-.4,1.4-1.1h.9M37.4,44.6h-1.1l-2.6-7.5h1.1l2.1,6.5h0l2.2-6.5h1l-2.7,7.5"/>
      </g>
    </g>
  </g>
</svg>