<?xml version="1.0" encoding="UTF-8"?>
<svg xmlns="http://www.w3.org/2000/svg" xmlns:svg="http://www.w3.org/2000/svg" version="1.1" viewBox="0 0 128 64">
  <defs>
    <style>
      .cls-1, .cls-2 {
        fill: #be2f37;
      }

      .cls-2 {
        fill-rule: evenodd;
      }
    </style>
  </defs>
  <!-- Generator: Adobe Illustrator 28.6.0, SVG Export Plug-In . SVG Version: 1.2.0 Build 709)  -->
  <g>
    <g id="svg2646">
      <g id="g2488">
        <g id="g2494">
          <g id="g2500">
            <g id="g2506">
              <path id="path2508" class="cls-1" d="M46.7,21.8s.6,1,2.2,2.8c.7.7,1.6,1.7,2.7,2.4,1,.8,2.2,1.5,3.4,2,2.4,1.1,5.4,1.8,8.8,1.6,1.7-.1,2.4-.4,2.4-.4,0,0-1.8-.1-3.3-.8-1.4-.6-2.2-1.1-3-1.8-.8-.6-1.9-1.8-2.5-2.7-.8-1.1-1-2.1-1-2.1,0,0-1.5.2-2.7.2-1.2,0-2.9,0-4.1-.4-1.5-.4-2.9-.9-2.9-.9"/>
              <path id="path2510" class="cls-1" d="M61,18.4c0-2.2,1.8-4,4-4,2.2,0,4,1.8,4,4,0,2.2-1.8,4-4,4-2.2,0-4-1.8-4-4"/>
              <path id="path2512" class="cls-1" d="M62.6,28.5c1.6-.5,2.8-1.1,4.1-2.1,1.1-.8,1.6-1.4,2.3-2.5.6-.9.9-1.5,1.3-2.5.3-.9.4-1.4.6-2.3,1.5.4,2.4.5,3.9.5,1.7,0,2.6-.1,4.1-.5,0,0-.1.4-.5,1.3-.4.9-.9,1.8-1.3,2.5-.9,1.3-1.4,2.1-2.6,3.2-1,1-1.6,1.5-2.8,2.2-1.1.6-1.7.9-3,1.2-1,.2-1.6.2-2.6.2-1.4,0-2.2-.3-3.6-.9"/>
              <path id="path2514" class="cls-2" d="M5.4,38.9c.2.9.5,1.8.7,2.6.3.9.6,1.7.8,2.6h-3.4s1.8-5.2,1.8-5.2ZM5,45.3c.4,0,.9,0,1.3,0s.6,0,.9,0c.2.7.4,1.4.6,2.2.1.6.3,1.1.4,1.7.6,0,1.1,0,1.7,0s1,0,1.4,0c-.2-.6-.4-1.1-.6-1.7-.3-.8-.5-1.7-.8-2.5-.2-.7-.5-1.3-.7-2-.3-.9-.5-1.7-.8-2.6-.2-.7-.4-1.5-.6-2.2-.2-.7-.4-1.4-.6-2.1-.3,0-.7,0-1,0s-.8,0-1.2,0c-.3,1-.6,2-.9,3-.4,1.2-.9,2.4-1.4,3.7-.5,1.2-.9,2.4-1.4,3.6-.4.9-.9,1.9-1.3,2.8,1.1,0,1.2,0,1.9,0,.2-.7.5-1.4.7-2.1.2-.6.4-1.1.6-1.7h1.8"/>
              <path id="path2516" class="cls-1" d="M16.3,47.7c0-1.9,0-3.7,0-5.6,0-2,0-4,.2-6-.5,0-1,0-1.5,0s-1,0-1.6-.1c0,.7,0,1.5,0,2.2v2c0,1.3,0,2.5,0,3.8s0,3.5-.1,5.2c1.1,0,2.2,0,3.4,0s2.4,0,3.6.2v-1.8s-4,.2-4,.2"/>
              <path id="path2518" class="cls-1" d="M23,39.3c0,1.7,0,3.5,0,5.2,0,2.7,0,3.1-.2,4.6.8,0,1.2-.1,1.6-.1.6,0,1.4.1,1.6.2,0-.6,0-1.2-.1-1.8,0-1.2,0-2.4,0-3.6,0-2,0-4.1,0-6.1.6,0,1.2,0,1.7,0,.5,0,1,.1,1.5.2,0-.4,0-.6,0-1s0-.6,0-.9c-1.4,0-2.9,0-4.3,0s-3.5,0-5.2,0c0,.8,0,1,0,1.8.6,0,1.2-.1,1.8-.2.5,0,1.1,0,1.6,0v1.6"/>
              <path id="path2520" class="cls-1" d="M33.9,37.5c.7,0,1.3,0,2,0,.6,0,1.3.1,2,.2,0-.3,0-.6,0-.8s0-.6,0-.9c-.5,0-1,0-1.5,0-.7,0-1.5,0-2.3,0-1.1,0-2.1,0-3.1-.1,0,.7,0,1.4,0,2.2,0,1.1,0,2.3,0,3.4s0,2.8,0,4.2c0,1.1,0,2.3-.1,3.4,1.1,0,2.2,0,3.2,0s2.4,0,3.6,0c0-.3,0-.6,0-.9s0-.6,0-.9l-3.9.2v-4.7c.6,0,1.2,0,1.7,0,.7,0,1.5,0,2.2.1,0-.4-.1-.6-.1-.9s0-.5,0-.8c-.6,0-1.2.1-1.9.1-.7,0-1.3,0-2,0v-4"/>
              <path id="path2522" class="cls-1" d="M48,47.7c0-1.9,0-3.7,0-5.6,0-2,0-4,.2-6-.5,0-1,0-1.5,0s-1,0-1.6-.1c0,.7,0,1.5,0,2.2v2c0,1.3,0,2.5,0,3.8s0,3.5-.1,5.2c1.1,0,2.2,0,3.3,0s2.4,0,3.6.2v-1.8s-4,.2-4,.2"/>
              <path id="path2524" class="cls-1" d="M57,37.5c.7,0,1.4,0,2,0,.7,0,1.3.1,2,.2,0-.3,0-.6,0-.8s0-.6,0-.9c-.5,0-1,0-1.5,0-.8,0-1.5,0-2.3,0-1.1,0-2.1,0-3.2-.1,0,.7,0,1.4,0,2.2,0,1.1,0,2.3,0,3.4s0,2.8,0,4.2c0,1.1,0,2.3-.1,3.4,1.1,0,2.2,0,3.3,0s2.4,0,3.7,0c0-.3,0-.6,0-.9s0-.6,0-.9l-4,.2v-4.7c.6,0,1.2,0,1.8,0,.7,0,1.5,0,2.2.1,0-.4-.1-.6-.1-.9s0-.5,0-.8c-.6,0-1.3.1-1.9.1-.7,0-1.4,0-2,0v-4"/>
              <path id="path2526" class="cls-1" d="M66.3,39.9c0-1.3,0-2.6.1-3.9-.8.1-1.1.1-1.5.1s-1,0-1.5-.1c0,1,0,1.9.1,2.9,0,.9,0,1.9,0,2.8v3c0,.6,0,1.2,0,1.8,0,.9,0,1.8-.1,2.7.5,0,1,0,1.5,0s1,0,1.5,0c0-.7,0-1.3-.1-2,0-1.6,0-3.3,0-4.9v-2.4"/>
              <path id="path2528" class="cls-2" d="M72.4,37.3c.8,0,1.5,0,2.1.8.4.6.4,1.2.4,1.4,0,1.2-.4,1.9-.6,2.2-.6.7-1.6.6-1.8.6,0-.8,0-1.6,0-2.5s0-1.8,0-2.7ZM69.5,36.1c0,.8,0,1.6.1,2.4,0,.9,0,1.8,0,2.7s0,2.3,0,3.5c0,.8,0,1.5,0,2.3,0,.8,0,1.5-.1,2.3.5,0,.9,0,1.4,0,.8,0,1.3.1,1.6.1,0-1,0-2-.1-3.1,0-.8,0-1.7,0-2.6,1.3,0,2.7,0,3.8-.8.2-.1.6-.4.9-.8.7-.9.7-2,.7-2.4,0-1-.4-1.8-.6-2.1-.4-.7-1.1-1.3-2.7-1.4-.3,0-.7,0-1,0h-4"/>
              <path id="path2530" class="cls-1" d="M88.2,36c-1.5,0-3.1.1-4.6.1s-3.3,0-5,0c0,.1,0,.6,0,1s0,.9,0,.9c.7,0,1.4-.1,2.1-.2,1.2,0,2.3-.1,3.5-.1-1,1.7-1.9,3.5-2.9,5.3-.6,1.1-1.2,2.3-1.8,3.4-.5.9-1,1.7-1.5,2.5v.5c1.7,0,3.5-.1,5.3-.1s3.3,0,4.9,0c0-.8,0-1,0-1.8-.9,0-1.9.2-2.9.2-1.1,0-2.2,0-3.3,0,.2-.4.4-.8.6-1.2.5-.9,1-1.8,1.5-2.7.8-1.4,1.5-2.8,2.3-4.2.6-1,1.1-2,1.7-3v-.5"/>
              <path id="path2532" class="cls-1" d="M93.1,39.9c0-1.3,0-2.6.1-3.9-.8.1-1.1.1-1.5.1s-1,0-1.5-.1c0,1,0,1.9.1,2.9,0,.9,0,1.9,0,2.8v3c0,.6,0,1.2,0,1.8,0,.9,0,1.8-.1,2.7.5,0,1,0,1.6,0s1,0,1.5,0c0-.7,0-1.3-.1-2,0-1.6,0-3.3,0-4.9v-2.4"/>
              <path id="path2534" class="cls-1" d="M105.8,39.1c.1-1.2.2-1.5.4-2.2-.3-.2-.4-.3-.6-.4-.3-.1-.6-.2-.9-.3-1.2-.4-1.8-.4-2.5-.4-2.6,0-4.2.9-5,1.8-1.9,1.8-2,4.4-2,5.3,0,3.1,1.2,4.5,2.2,5.3,1.4,1.2,2.9,1.4,4.6,1.4s2.8-.3,4.4-.7c0-.8,0-1.6,0-2.5s0-1.5.1-2.2v-1c-.7.1-1,.2-1.5.2s-.9,0-1.4,0c0,.8,0,1.5,0,2.3s0,1.7,0,2.5c-.3,0-.7.2-1.4.2s-1.3-.2-1.7-.3c-.5-.2-.9-.6-1.2-1-1-1.4-1.1-3.8-1.1-4.1,0-2.9,1.2-4.4,2.2-5,.8-.5,1.7-.6,2-.6,1.6,0,2.3.9,2.7,1.3.1.2.3.4.4.5h.4"/>
              <path id="path2536" class="cls-1" d="M112,37.6c.7,0,1.3,0,2,0,.6,0,1.3.1,2,.2,0-.3,0-.6,0-.8s0-.6,0-.9c-.5,0-1,0-1.5,0-.7,0-1.5,0-2.3,0-1.1,0-2.1,0-3.1-.1,0,.7,0,1.4,0,2.2,0,1.1,0,2.3,0,3.4s0,2.8,0,4.2c0,1.1,0,2.3-.1,3.4,1.1,0,2.2,0,3.2,0s2.4,0,3.6,0c0-.3,0-.6,0-.9s0-.6,0-.9l-3.9.2v-4.7c.6,0,1.2,0,1.7,0,.7,0,1.5,0,2.2.1,0-.4-.1-.6-.1-.9s0-.5,0-.8c-.6,0-1.2.1-1.9.1-.7,0-1.3,0-2,0v-4"/>
              <path id="path2538" class="cls-2" d="M121.3,37.4c.9,0,1.7,0,2.3.8.2.3.4.8.4,1.6,0,1.7-1,2.3-1.6,2.5-.3,0-.5,0-1,0v-5ZM124.2,42.9c1-.4,1.9-.9,2.4-2,.3-.6.3-1.1.3-1.4,0-.9-.3-1.6-.5-1.9-.9-1.4-2.4-1.5-3.8-1.5h-1.9c-1.3.1-1.6,0-2.3,0,0,.7,0,1.5,0,2.2,0,1.3,0,2.5,0,3.7s0,2.4,0,3.6,0,.9,0,1.3c0,.8,0,1.5-.1,2.3.5,0,1,0,1.5,0s1,0,1.5,0c0-.9-.1-1.7-.1-2.6,0-.6,0-1.3,0-1.9,0-.6,0-1.2,0-1.8l3.4,6.4c.6,0,1.2-.1,1.8-.1s.7,0,1.6.2c-.6-1.1-1.2-2.1-1.8-3.1-.4-.6-.8-1.2-1.2-1.8l-.8-1.4"/>
            </g>
          </g>
        </g>
      </g>
    </g>
  </g>
</svg>