<svg id="Logos" xmlns="http://www.w3.org/2000/svg" viewBox="0 0 193.343 40.258"><title>ALH_Alte-Leipziger-Endorsment_rot_RGB</title><path d="M54.334,38.188q-.191-.5-.358-.991t-.347-.99H50.116l-.706,1.981H48.28q.448-1.232.84-2.278t.766-1.986q.375-.941.744-1.8t.772-1.7h1q.4.839.773,1.7t.743,1.8q.376.941.767,1.986t.84,2.278Zm-1.018-2.876q-.359-.974-.711-1.886t-.733-1.751q-.392.838-.744,1.751t-.7,1.886Z" fill="#be0d3e"/><path d="M61.239,37.248v.94H56.572V30.433h1.086v6.815Z" fill="#be0d3e"/><path d="M67.259,30.433h1.085v7.755H67.259V34.607H63.465v3.581H62.38V30.433h1.085v3.234h3.794Z" fill="#be0d3e"/><path d="M77.587,34.372h1.085V38a3.928,3.928,0,0,1-.386.1q-.251.057-.582.112t-.721.095q-.392.039-.8.039a3.977,3.977,0,0,1-1.488-.268,3.166,3.166,0,0,1-1.153-.783,3.553,3.553,0,0,1-.744-1.265A5.209,5.209,0,0,1,72.54,34.3a4.692,4.692,0,0,1,.3-1.728,3.726,3.726,0,0,1,.8-1.27,3.36,3.36,0,0,1,1.181-.784,3.89,3.89,0,0,1,1.448-.268,5.785,5.785,0,0,1,.935.067,5.551,5.551,0,0,1,.7.156,3.409,3.409,0,0,1,.476.18,2.351,2.351,0,0,1,.252.134l-.347.906a2.951,2.951,0,0,0-.862-.352,4.348,4.348,0,0,0-1.1-.14,2.661,2.661,0,0,0-1.079.213,2.241,2.241,0,0,0-.828.615,2.9,2.9,0,0,0-.532.979,4.1,4.1,0,0,0-.19,1.292,4.622,4.622,0,0,0,.162,1.265,2.7,2.7,0,0,0,.493.979,2.218,2.218,0,0,0,.816.632,2.714,2.714,0,0,0,1.147.224,5.487,5.487,0,0,0,.8-.05,3.726,3.726,0,0,0,.476-.095Z" fill="#be0d3e"/><path d="M82.455,32.246c.089,0,.192,0,.307.016s.23.027.342.045.214.038.308.056a1.646,1.646,0,0,1,.206.051l-.179.906a3.622,3.622,0,0,0-.408-.107,3.662,3.662,0,0,0-.733-.061,2.79,2.79,0,0,0-.576.061l-.375.084v4.891H80.306V32.615a6.924,6.924,0,0,1,.918-.252A5.91,5.91,0,0,1,82.455,32.246Z" fill="#be0d3e"/><path d="M89.259,38.02q-.359.09-.946.19a8.145,8.145,0,0,1-1.36.1,2.893,2.893,0,0,1-1.13-.2,1.82,1.82,0,0,1-.738-.554,2.247,2.247,0,0,1-.4-.845,4.409,4.409,0,0,1-.123-1.08V32.369H85.6v3.043a2.637,2.637,0,0,0,.336,1.522,1.307,1.307,0,0,0,1.13.459c.112,0,.228,0,.347-.011s.231-.017.336-.028.2-.022.285-.034a.836.836,0,0,0,.185-.039V32.369h1.041Z" fill="#be0d3e"/><path d="M96.174,35.289A4.12,4.12,0,0,1,96,36.509a2.758,2.758,0,0,1-.51.962,2.312,2.312,0,0,1-.822.627,2.643,2.643,0,0,1-1.113.224,2.717,2.717,0,0,1-.89-.134,2.793,2.793,0,0,1-.576-.258v2.328H91.049v-7.71q.369-.09.923-.2a6.843,6.843,0,0,1,1.281-.106,3.256,3.256,0,0,1,1.209.212,2.588,2.588,0,0,1,.918.605,2.68,2.68,0,0,1,.587.956A3.674,3.674,0,0,1,96.174,35.289Zm-1.085,0a2.232,2.232,0,0,0-.5-1.566,1.734,1.734,0,0,0-1.343-.549,6.22,6.22,0,0,0-.733.034,3.006,3.006,0,0,0-.419.078v3.671a2.134,2.134,0,0,0,.548.3,2.059,2.059,0,0,0,.783.145,1.677,1.677,0,0,0,.767-.162,1.4,1.4,0,0,0,.52-.448A1.894,1.894,0,0,0,95,36.123,3.67,3.67,0,0,0,95.089,35.289Z" fill="#be0d3e"/><path d="M102.765,35.289a4.12,4.12,0,0,1-.173,1.22,2.758,2.758,0,0,1-.51.962,2.312,2.312,0,0,1-.822.627,2.644,2.644,0,0,1-1.114.224,2.715,2.715,0,0,1-.889-.134,2.793,2.793,0,0,1-.576-.258v2.328H97.64v-7.71q.369-.09.923-.2a6.843,6.843,0,0,1,1.281-.106,3.256,3.256,0,0,1,1.209.212,2.576,2.576,0,0,1,.917.605,2.668,2.668,0,0,1,.588.956A3.674,3.674,0,0,1,102.765,35.289Zm-1.085,0a2.237,2.237,0,0,0-.5-1.566,1.736,1.736,0,0,0-1.343-.549,6.208,6.208,0,0,0-.733.034,3.006,3.006,0,0,0-.419.078v3.671a2.134,2.134,0,0,0,.548.3,2.055,2.055,0,0,0,.783.145,1.673,1.673,0,0,0,.766-.162,1.4,1.4,0,0,0,.521-.448,1.894,1.894,0,0,0,.291-.671A3.728,3.728,0,0,0,101.68,35.289Z" fill="#be0d3e"/><path d="M103.906,35.289a3.714,3.714,0,0,1,.224-1.348,2.823,2.823,0,0,1,.593-.957,2.4,2.4,0,0,1,.851-.57,2.65,2.65,0,0,1,.984-.191,2.242,2.242,0,0,1,1.8.733,3.372,3.372,0,0,1,.626,2.233v.173a1.492,1.492,0,0,1-.011.2h-3.983a2.124,2.124,0,0,0,.526,1.376,1.92,1.92,0,0,0,1.432.47,3.79,3.79,0,0,0,.923-.1,3.259,3.259,0,0,0,.565-.185l.145.873a2.983,2.983,0,0,1-.665.213,4.767,4.767,0,0,1-1.08.112,3.425,3.425,0,0,1-1.315-.23,2.441,2.441,0,0,1-.912-.632,2.561,2.561,0,0,1-.531-.956A4.04,4.04,0,0,1,103.906,35.289Zm3.995-.57a1.748,1.748,0,0,0-.353-1.159,1.213,1.213,0,0,0-1-.453,1.372,1.372,0,0,0-.632.14,1.508,1.508,0,0,0-.465.364,1.657,1.657,0,0,0-.3.514,2.527,2.527,0,0,0-.14.594Z" fill="#be0d3e"/><path d="M23.451,22.11c-7.208-.851-11.087-6.475-12.794-10.93-.052-.137-.113-.3-.525-.3H.306A.332.332,0,0,0,.06,11.4,25.728,25.728,0,0,0,23.449,22.546C23.754,22.5,23.763,22.157,23.451,22.11Z" fill="#be0d3e"/><circle cx="21.88" cy="5.43" r="5.43" fill="#be0d3e"/><path d="M21.233,19.823c6.434-1.889,9.193-7.3,10.124-12.413a.323.323,0,0,1,.317-.241H40.7c.253,0,.343.259.324.475a6.033,6.033,0,0,1-.716,2.08C39.125,12.29,33.031,21.011,23.5,20.686a6.07,6.07,0,0,1-2.276-.42C21.111,20.2,20.978,19.9,21.233,19.823Z" fill="#be0d3e"/><path d="M60.454,14.037Q59.721,12.159,59,10.471t-1.467-3.3H54.31q-.764,1.609-1.475,3.3t-1.442,3.566q-.732,1.876-1.5,4T48.28,22.666h3.529q.248-.8.535-1.654c.192-.567.382-1.135.573-1.7h5.9l.578,1.694c.194.568.373,1.121.542,1.659h3.64q-.854-2.5-1.62-4.628T60.454,14.037Zm-6.764,2.5q.357-1,.7-1.919c.23-.612.438-1.17.626-1.678s.352-.955.5-1.343.257-.693.333-.917c.09.221.209.523.356.91s.318.833.513,1.341.4,1.068.617,1.681.44,1.254.672,1.925Z" fill="#be0d3e"/><path d="M68.855,19.537a1.41,1.41,0,0,1-.25-.6,4.546,4.546,0,0,1-.066-.8V6.644l-3.246.535V18.8a7.026,7.026,0,0,0,.186,1.689,2.712,2.712,0,0,0,.7,1.273,3.387,3.387,0,0,0,1.395.817,7.9,7.9,0,0,0,2.3.313l.458-2.751a2.84,2.84,0,0,1-.936-.2A1.326,1.326,0,0,1,68.855,19.537Z" fill="#be0d3e"/><path d="M78.532,19.97a6.05,6.05,0,0,1-1.078.1,1.524,1.524,0,0,1-1.449-.626,3.352,3.352,0,0,1-.36-1.676V13.631h3.9V10.86h-3.9V6.6L72.4,7.134V17.812a9.675,9.675,0,0,0,.207,2.08,3.864,3.864,0,0,0,.73,1.6,3.459,3.459,0,0,0,1.394,1.03,5.679,5.679,0,0,0,2.2.368,7.383,7.383,0,0,0,1.764-.179A8.876,8.876,0,0,0,80,22.284l-.457-2.594A5.389,5.389,0,0,1,78.532,19.97Z" fill="#be0d3e"/><path d="M86.69,10.5a5.346,5.346,0,0,0-2.037.4A5.079,5.079,0,0,0,82.9,12.088a5.883,5.883,0,0,0-1.231,1.956,7.364,7.364,0,0,0-.468,2.738A7.847,7.847,0,0,0,81.56,19.2a5.139,5.139,0,0,0,1.111,1.932,5.211,5.211,0,0,0,1.895,1.286,7.061,7.061,0,0,0,2.691.47,10.844,10.844,0,0,0,1.22-.068c.406-.043.788-.1,1.144-.167a9.326,9.326,0,0,0,.969-.235,4.391,4.391,0,0,0,.7-.267l-.436-2.706a6.439,6.439,0,0,1-1.405.413,9.2,9.2,0,0,1-1.753.168,3.68,3.68,0,0,1-2.222-.6,2.218,2.218,0,0,1-.937-1.632H91.9c.014-.178.029-.382.044-.615s.021-.442.021-.636a6.415,6.415,0,0,0-1.416-4.5A4.994,4.994,0,0,0,86.69,10.5Zm-2.156,5.009a4.76,4.76,0,0,1,.207-.839,2.289,2.289,0,0,1,.4-.726,1.956,1.956,0,0,1,.654-.5,2.136,2.136,0,0,1,.937-.189,2.027,2.027,0,0,1,.947.2,1.982,1.982,0,0,1,.632.515,2.091,2.091,0,0,1,.371.715,3.545,3.545,0,0,1,.142.828Z" fill="#be0d3e"/><polygon points="103.312 7.172 99.913 7.172 99.913 22.666 109.427 22.666 109.427 19.67 103.312 19.67 103.312 7.172" fill="#be0d3e"/><path d="M116.383,10.5a5.346,5.346,0,0,0-2.037.4,5.079,5.079,0,0,0-1.753,1.184,5.883,5.883,0,0,0-1.231,1.956,7.364,7.364,0,0,0-.468,2.738,7.847,7.847,0,0,0,.359,2.417,5.153,5.153,0,0,0,1.111,1.932,5.207,5.207,0,0,0,1.9,1.286,7.053,7.053,0,0,0,2.69.47,10.844,10.844,0,0,0,1.22-.068c.407-.043.788-.1,1.144-.167a9.264,9.264,0,0,0,.969-.235,4.447,4.447,0,0,0,.7-.267l-.437-2.706a6.439,6.439,0,0,1-1.405.413,9.2,9.2,0,0,1-1.753.168,3.68,3.68,0,0,1-2.222-.6,2.218,2.218,0,0,1-.937-1.632h7.363c.015-.178.029-.382.044-.615s.021-.442.021-.636a6.415,6.415,0,0,0-1.415-4.5A5,5,0,0,0,116.383,10.5Zm-2.156,5.009a4.76,4.76,0,0,1,.207-.839,2.272,2.272,0,0,1,.4-.726,1.943,1.943,0,0,1,.653-.5,2.136,2.136,0,0,1,.937-.189,2.031,2.031,0,0,1,.948.2,2,2,0,0,1,.632.515,2.107,2.107,0,0,1,.37.715,3.545,3.545,0,0,1,.142.828Z" fill="#be0d3e"/><rect x="124.16" y="10.86" width="3.246" height="11.759" fill="#be0d3e"/><path d="M139.541,12.257a5.18,5.18,0,0,0-1.874-1.23,6.87,6.87,0,0,0-2.527-.436q-.588,0-1.231.056t-1.264.146q-.621.087-1.187.211t-1,.258l-.026,15.885h3.246l.026-4.819a5.941,5.941,0,0,0,1.133.38,5.7,5.7,0,0,0,1.264.135,4.941,4.941,0,0,0,2.157-.448,4.34,4.34,0,0,0,1.568-1.252,5.615,5.615,0,0,0,.958-1.923,8.812,8.812,0,0,0,.327-2.481,7.629,7.629,0,0,0-.4-2.549A5.3,5.3,0,0,0,139.541,12.257Zm-4.053,7.769a3.756,3.756,0,0,1-.991-.134,2.806,2.806,0,0,1-.8-.335V13.542c.16-.029.363-.057.61-.078s.516-.033.807-.033a2.32,2.32,0,0,1,2,.928,4.111,4.111,0,0,1,.674,2.469Q137.8,20.026,135.488,20.026Z" fill="#be0d3e"/><path d="M147.974,17.93q.776-1.009,1.539-1.931c.509-.612.986-1.175,1.43-1.683s.8-.913,1.059-1.213V10.86H142.9v2.782h4.88q-.588.719-1.285,1.606t-1.405,1.828q-.71.943-1.351,1.875t-1.1,1.741v1.974h9.477V19.882h-5.545Q147.2,18.94,147.974,17.93Z" fill="#be0d3e"/><rect x="154.615" y="10.86" width="3.246" height="11.759" fill="#be0d3e"/><path d="M168.319,10.793q-.61-.09-1.232-.146c-.414-.038-.816-.056-1.209-.056a6.907,6.907,0,0,0-2.461.413,5.079,5.079,0,0,0-1.841,1.175A5.028,5.028,0,0,0,160.432,14a6.751,6.751,0,0,0-.392,2.358,5.922,5.922,0,0,0,1.263,4.036,4.578,4.578,0,0,0,3.639,1.443,5.576,5.576,0,0,0,1.208-.124,5.111,5.111,0,0,0,1.079-.368v.424a3.3,3.3,0,0,1-.577,1.972,2.6,2.6,0,0,1-1.971.626,8.745,8.745,0,0,1-3.508-.671l-.567,2.794a12.662,12.662,0,0,0,1.939.5,11.751,11.751,0,0,0,2.091.19,6.091,6.091,0,0,0,4.412-1.4,6.709,6.709,0,0,0,1.427-4.643V11.262q-.435-.134-.991-.258T168.319,10.793Zm-1.09,7.914a3.612,3.612,0,0,1-.741.313,3.185,3.185,0,0,1-.936.133q-2.2,0-2.2-2.795a3.674,3.674,0,0,1,.632-2.212,2.209,2.209,0,0,1,1.917-.872c.29,0,.545.011.763.033s.407.049.566.078Z" fill="#be0d3e"/><path d="M178.154,10.545a5.358,5.358,0,0,0-2.037.4,5.085,5.085,0,0,0-1.754,1.185,5.894,5.894,0,0,0-1.231,1.955,7.37,7.37,0,0,0-.468,2.739,7.871,7.871,0,0,0,.359,2.416,5.141,5.141,0,0,0,1.112,1.932,5.214,5.214,0,0,0,1.9,1.287,7.053,7.053,0,0,0,2.69.469,11.083,11.083,0,0,0,1.22-.067q.611-.066,1.144-.168a8.971,8.971,0,0,0,.969-.234,4.538,4.538,0,0,0,.7-.268l-.436-2.705a6.53,6.53,0,0,1-1.405.413,9.22,9.22,0,0,1-1.754.167,3.681,3.681,0,0,1-2.222-.6A2.224,2.224,0,0,1,176,17.834h7.364c.014-.178.028-.382.043-.615s.022-.442.022-.637a6.419,6.419,0,0,0-1.416-4.505A5,5,0,0,0,178.154,10.545ZM176,15.554a4.875,4.875,0,0,1,.208-.839,2.272,2.272,0,0,1,.4-.726,1.976,1.976,0,0,1,.653-.5,2.157,2.157,0,0,1,.937-.189,2.043,2.043,0,0,1,.948.2,2,2,0,0,1,.632.515,2.09,2.09,0,0,1,.37.715,3.554,3.554,0,0,1,.142.828Z" fill="#be0d3e"/><path d="M192.712,10.918c-.247-.053-.495-.1-.741-.134s-.494-.068-.741-.09-.457-.034-.631-.034a11.585,11.585,0,0,0-2.647.28,18.871,18.871,0,0,0-2.059.593V22.666h3.246V13.678a4.415,4.415,0,0,1,.643-.122,5.576,5.576,0,0,1,.729-.056,6.179,6.179,0,0,1,1.264.124q.588.123,1.024.234l.544-2.751A3.333,3.333,0,0,0,192.712,10.918Z" fill="#be0d3e"/><circle cx="125.783" cy="7.021" r="1.968" fill="#be0d3e"/><circle cx="156.238" cy="7.021" r="1.968" fill="#be0d3e"/></svg>
