<?xml version="1.0" encoding="UTF-8"?>
<svg xmlns="http://www.w3.org/2000/svg" xmlns:svg="http://www.w3.org/2000/svg" xmlns:sodipodi="http://sodipodi.sourceforge.net/DTD/sodipodi-0.dtd" xmlns:rdf="http://www.w3.org/1999/02/22-rdf-syntax-ns#" xmlns:inkscape="http://www.inkscape.org/namespaces/inkscape" xmlns:dc="http://purl.org/dc/elements/1.1/" xmlns:cc="http://web.resource.org/cc/" version="1.1" viewBox="0 0 128 64">
  <defs>
    <style>
      .cls-1 {
        fill: #30529d;
      }
    </style>
  </defs>
  <!-- Generator: Adobe Illustrator 28.6.0, SVG Export Plug-In . SVG Version: 1.2.0 Build 709)  -->
  <g>
    <g id="Ebene_1">
      <sodipodi:namedview id="base" width="800px" height="360px" bordercolor="#666666" borderopacity="1.0" gridtolerance="10.0" guidetolerance="10.0" inkscape:current-layer="Ebene_1" inkscape:cx="182.71186" inkscape:cy="63.276905" inkscape:pageopacity="0.0" inkscape:pageshadow="2" inkscape:window-height="579" inkscape:window-width="801" inkscape:window-x="176" inkscape:window-y="176" inkscape:zoom="0.34050863" objecttolerance="10.0" pagecolor="#ffffff"/>
      <path id="path3" class="cls-1" d="M128,6l-29.3,51.3h-19.6v-23.5s-17.3,0-17.3,0v23.5h-4.9v-23.5h-19.4l13.8,23.5h-17.8l-14.1-25.2c.4.2,5.8-1.2,5.9-6.4,0-5.8-5.5-6.7-5.8-6.6-.3,0-3.3,0-3.3,0v38.3H0s0-51.4,0-51.4c0,0,24.7,0,24.6,0,9.8.2,15.7,6.5,15.7,14.6,0,4.9-3,8.3-3,8.3h19.6V6h4.9v22.9h17.3V6h16.3v33.7s.9-4.3,3.6-9.2l12.1-24.5h17"/>
    </g>
  </g>
</svg>