<svg width="128" height="64" viewBox="0 0 128 64" fill="none" xmlns="http://www.w3.org/2000/svg">
<g clip-path="url(#clip0_26059_113672)">
<mask id="mask0_26059_113672" style="mask-type:luminance" maskUnits="userSpaceOnUse" x="0" y="17" width="136" height="35">
<path d="M0.453125 51.438H135.099V17.7767H0.453125V51.438Z" fill="white"/>
</mask>
<g mask="url(#mask0_26059_113672)">
<path d="M42.7419 43.1167L40.5669 37.5042H41.3719L42.8294 41.5817C42.9469 41.908 43.0457 42.2142 43.1244 42.5005C43.2119 42.1942 43.3119 41.888 43.4269 41.5817L44.9432 37.5042H45.7006L43.5031 43.1167H42.7419Z" fill="black"/>
<path d="M47.2456 43.1167V37.5042H51.3031V38.1667H47.9881V39.8854H51.0918V40.5442H47.9881V42.4542H51.4331V43.1167H47.2456Z" fill="black"/>
<path fill-rule="evenodd" clip-rule="evenodd" d="M53.333 43.1167V37.5042H55.8217C56.3217 37.5042 56.7018 37.5555 56.9618 37.6567C57.223 37.7567 57.4305 37.9342 57.5868 38.1892C57.7418 38.4442 57.8192 38.7267 57.8192 39.0354C57.8192 39.4342 57.6905 39.7692 57.433 40.0417C57.1755 40.3154 56.7767 40.4892 56.238 40.563C56.4355 40.658 56.5842 40.7504 56.6867 40.8429C56.903 41.0417 57.1092 41.2904 57.303 41.5892L58.2792 43.1167H57.3455L56.6017 41.9492C56.3855 41.6117 56.2068 41.3542 56.0668 41.1755C55.9255 40.9967 55.7993 40.8717 55.6868 40.8005C55.578 40.7292 55.4655 40.6792 55.3505 40.6504C55.2668 40.6329 55.128 40.6242 54.9368 40.6242H54.0755V43.1167H53.333ZM54.0755 39.9804H55.6717C56.0117 39.9804 56.2768 39.9467 56.468 39.8779C56.6593 39.8067 56.8055 39.6942 56.9043 39.5404C57.0043 39.3854 57.0542 39.2167 57.0542 39.0354C57.0542 38.7705 56.9568 38.5517 56.763 38.3804C56.5718 38.2104 56.268 38.1242 55.8518 38.1242H54.0755V39.9804Z" fill="black"/>
<path d="M59.5928 41.3129L60.294 41.2517C60.3265 41.5329 60.4028 41.7642 60.5228 41.9454C60.6453 42.1242 60.834 42.2692 61.0903 42.3817C61.3453 42.4917 61.6328 42.5454 61.9516 42.5454C62.2341 42.5454 62.484 42.5042 62.7015 42.4192C62.919 42.3354 63.079 42.2204 63.184 42.0754C63.2915 41.9267 63.3453 41.7667 63.3453 41.5929C63.3453 41.4167 63.2941 41.2629 63.1916 41.1329C63.0891 41.0004 62.9215 40.8892 62.6865 40.8004C62.5352 40.7417 62.2028 40.6504 61.6865 40.5279C61.1715 40.4029 60.8103 40.2867 60.604 40.1767C60.3353 40.0354 60.1353 39.8629 60.0028 39.6554C59.8728 39.4467 59.8078 39.2129 59.8078 38.9554C59.8078 38.6717 59.8878 38.4079 60.049 38.1629C60.209 37.9154 60.444 37.7279 60.7527 37.6004C61.0615 37.4717 61.4053 37.4092 61.7828 37.4079C62.199 37.4079 62.5653 37.4767 62.8815 37.6117C63.2003 37.7442 63.4453 37.9404 63.6165 38.2004C63.7878 38.4617 63.879 38.7554 63.8928 39.0854L63.1803 39.1392C63.1415 38.7842 63.0115 38.5167 62.789 38.3354C62.5703 38.1542 62.2453 38.0629 61.8128 38.0629C61.364 38.0629 61.0365 38.1454 60.829 38.3117C60.6253 38.4754 60.5228 38.6729 60.5228 38.9054C60.5228 39.1067 60.5965 39.2729 60.7415 39.4029C60.884 39.5329 61.2565 39.6667 61.859 39.8054C62.464 39.9404 62.879 40.0592 63.104 40.1604C63.4303 40.3117 63.6716 40.5029 63.8266 40.7354C63.9828 40.9654 64.0602 41.2304 64.0602 41.5317C64.0602 41.8304 63.9753 42.1117 63.804 42.3779C63.6328 42.6404 63.3865 42.8454 63.0653 42.9942C62.7465 43.1392 62.3865 43.2117 61.9853 43.2117C61.4778 43.2117 61.0515 43.1379 60.7065 42.9904C60.3653 42.8417 60.0953 42.6204 59.899 42.3242C59.7053 42.0254 59.6028 41.6879 59.5928 41.3129Z" fill="black"/>
<path d="M66.0645 37.5042H66.8069V43.1167H66.0645V37.5042Z" fill="black"/>
<path d="M72.9829 41.1492L73.7254 41.3367C73.5692 41.9467 73.2892 42.4117 72.883 42.7329C72.4805 43.0529 71.9867 43.2117 71.4017 43.2117C70.7967 43.2117 70.3042 43.0892 69.9242 42.8442C69.5467 42.5967 69.2579 42.2404 69.0592 41.7729C68.8617 41.3054 68.7642 40.8042 68.7642 40.2679C68.7642 39.6842 68.8755 39.1742 69.0967 38.7404C69.3217 38.3042 69.6392 37.9742 70.0505 37.7492C70.4642 37.5217 70.9179 37.4092 71.4129 37.4079C71.9742 37.4079 72.4467 37.5517 72.8292 37.8367C73.2129 38.1229 73.4792 38.5254 73.6292 39.0429L72.8992 39.2154C72.768 38.8067 72.5792 38.5092 72.3317 38.3229C72.0842 38.1367 71.7729 38.0442 71.3979 38.0442C70.9667 38.0442 70.6055 38.1467 70.3142 38.3542C70.0255 38.5604 69.823 38.8392 69.7055 39.1892C69.588 39.5354 69.5292 39.8942 69.5292 40.2642C69.5292 40.7417 69.5992 41.1592 69.7367 41.5167C69.8767 41.8704 70.0942 42.1367 70.3867 42.3129C70.6805 42.4879 70.998 42.5767 71.3405 42.5767C71.7567 42.5767 72.1092 42.4567 72.3967 42.2167C72.6854 41.9767 72.8804 41.6204 72.9829 41.1492Z" fill="black"/>
<path d="M75.5254 43.1167V37.5042H76.268V39.8092H79.1854V37.5042H79.9279V43.1167H79.1854V40.4717H76.268V43.1167H75.5254Z" fill="black"/>
<path d="M82.043 43.1167V37.5042H86.1004V38.1667H82.7855V39.8854H85.8905V40.5442H82.7855V42.4542H86.2304V43.1167H82.043Z" fill="black"/>
<path fill-rule="evenodd" clip-rule="evenodd" d="M88.1304 43.1167V37.5042H90.6191C91.1191 37.5042 91.4991 37.5555 91.7604 37.6567C92.0204 37.7567 92.2278 37.9342 92.3841 38.1892C92.5391 38.4442 92.6178 38.7267 92.6178 39.0354C92.6178 39.4342 92.4878 39.7692 92.2303 40.0417C91.9728 40.3154 91.5754 40.4892 91.0366 40.563C91.2329 40.658 91.3816 40.7504 91.4841 40.8429C91.7016 41.0417 91.9066 41.2904 92.1003 41.5892L93.0766 43.1167H92.1428L91.4003 41.9492C91.1828 41.6117 91.0041 41.3542 90.8641 41.1755C90.7241 40.9967 90.5966 40.8717 90.4853 40.8005C90.3753 40.7292 90.2628 40.6792 90.1478 40.6504C90.0641 40.6329 89.9266 40.6242 89.7341 40.6242H88.8729V43.1167H88.1304ZM88.8729 39.9804H90.4704C90.8091 39.9804 91.0741 39.9467 91.2666 39.8779C91.4578 39.8067 91.6028 39.6942 91.7028 39.5404C91.8016 39.3854 91.8516 39.2167 91.8516 39.0354C91.8516 38.7705 91.7541 38.5517 91.5603 38.3804C91.3691 38.2104 91.0653 38.1242 90.6491 38.1242H88.8729V39.9804Z" fill="black"/>
<path d="M98.3265 37.5042H99.069V40.7467C99.069 41.3104 99.0053 41.7592 98.8778 42.0904C98.7503 42.4217 98.5191 42.6929 98.1853 42.9017C97.8528 43.1092 97.4165 43.2117 96.8753 43.2117C96.3503 43.2117 95.9203 43.1217 95.5853 42.9404C95.2515 42.7592 95.0128 42.4979 94.869 42.1554C94.7265 41.8104 94.6553 41.3417 94.6553 40.7467V37.5042H95.3978V40.7429C95.3978 41.2304 95.4428 41.5904 95.5315 41.8229C95.624 42.0517 95.779 42.2292 95.999 42.3542C96.2203 42.4792 96.4915 42.5417 96.8103 42.5417C97.3565 42.5417 97.7453 42.4179 97.9778 42.1704C98.2103 41.9229 98.3265 41.4479 98.3265 40.7429V37.5042Z" fill="black"/>
<path d="M101.161 43.1167V37.5042H101.923L104.871 41.9105V37.5042H105.582V43.1167H104.821L101.873 38.7067V43.1167H101.161Z" fill="black"/>
<path d="M110.319 40.9154V40.2567L112.697 40.2529V42.3354C112.332 42.6267 111.954 42.8454 111.567 42.9942C111.179 43.1392 110.78 43.2117 110.373 43.2117C109.822 43.2117 109.319 43.0942 108.868 42.8604C108.419 42.6229 108.079 42.2804 107.849 41.8342C107.62 41.3879 107.505 40.8879 107.505 40.3367C107.505 39.7904 107.619 39.2817 107.845 38.8092C108.075 38.3354 108.404 37.9829 108.833 37.7529C109.262 37.5229 109.757 37.4079 110.315 37.4079C110.72 37.4079 111.087 37.4742 111.414 37.6079C111.743 37.7379 112 37.9204 112.187 38.1554C112.373 38.3892 112.515 38.6954 112.612 39.0742L111.942 39.2579C111.858 38.9717 111.753 38.7467 111.628 38.5842C111.503 38.4204 111.324 38.2904 111.092 38.1929C110.86 38.0942 110.602 38.0442 110.319 38.0442C109.979 38.0442 109.685 38.0967 109.438 38.2004C109.19 38.3029 108.99 38.4379 108.838 38.6067C108.687 38.7754 108.569 38.9604 108.485 39.1617C108.342 39.5092 108.27 39.8854 108.27 40.2917C108.27 40.7917 108.357 41.2104 108.527 41.5467C108.7 41.8842 108.952 42.1342 109.282 42.2967C109.61 42.4604 109.96 42.5417 110.33 42.5417C110.652 42.5417 110.965 42.4804 111.272 42.3579C111.578 42.2329 111.81 42.1004 111.969 41.9604V40.9154H110.319Z" fill="black"/>
<path d="M114.669 43.1167V37.5042H118.727V38.1667H115.412V39.8854H118.517V40.5442H115.412V42.4542H118.857V43.1167H114.669Z" fill="black"/>
<path d="M120.738 43.1167V37.5042H121.499L124.447 41.9105V37.5042H125.159V43.1167H124.398L121.45 38.7067V43.1167H120.738Z" fill="black"/>
<path d="M16.6455 28.2353V31.1391C16.6455 32.5628 17.8092 33.6366 19.2329 33.6366M21.7967 28.2353V31.1391C21.7967 32.5628 20.6317 33.6366 19.208 33.6366M25.6879 21.9653H36.2817L34.4742 24.7616H26.0492V25.3603H34.1254L32.473 28.1491H26.0492V28.7478H32.0067L30.3217 31.5178H25.9767C25.6904 34.9528 22.7892 37.6228 19.2805 37.6228H19.1604C15.6517 37.6228 12.7505 34.9528 12.4642 31.5178H8.11919L6.43423 28.7478H12.3917V28.1491H5.96793L4.31548 25.3603H12.3917V24.7616H3.96674L2.15918 21.9653H12.753M19.2205 32.4065L11.643 20.1566H15.7192L19.2205 25.944L22.7217 20.1566H26.7979L19.2205 32.4065Z" stroke="#0769AE" stroke-width="0.3175" stroke-miterlimit="3.864"/>
<path d="M40.0967 22.1529V28.6079C40.0967 31.6791 41.6267 33.7666 45.1467 33.7666C48.6667 33.7666 50.1979 31.6791 50.1979 28.6079V22.1529H47.9016V28.3679C47.9016 30.1679 47.4179 31.7516 45.1467 31.7516C42.8767 31.7516 42.3929 30.1679 42.3929 28.3679V22.1529H40.0967Z" fill="#0769AE"/>
<path d="M54.8817 22.1528H52.5854V33.3828H54.8817V28.2241C54.8817 26.1841 54.8817 23.7366 57.8405 23.7366C60.1867 23.7366 60.468 25.0316 60.468 26.9516V33.3828H62.763V26.6878C62.763 23.9528 61.8955 21.8166 58.5292 21.8166C57.0755 21.8166 55.6467 22.4641 54.9329 23.6641H54.8817V22.1528Z" fill="#0769AE"/>
<path fill-rule="evenodd" clip-rule="evenodd" d="M67.3905 22.153H65.0942V33.3843H67.3905V22.153Z" fill="#0769AE"/>
<path d="M70.3265 20.038H67.644L76.0103 35.9167L84.3516 20.038H81.7241L76.0103 31.1767L70.3265 20.038Z" fill="#0769AE"/>
<path fill-rule="evenodd" clip-rule="evenodd" d="M94.1694 28.1278V27.7916C94.1694 24.4566 92.3844 21.8166 88.5831 21.8166C84.7319 21.8166 82.7681 24.4079 82.7681 27.8641C82.7681 31.1754 84.9868 33.7666 88.6343 33.7666C90.9556 33.7666 93.0469 32.6391 94.1694 30.6954L92.2306 29.6641C91.3631 31.0078 90.4193 31.8478 88.6593 31.8478C86.4656 31.8478 85.0881 30.0478 85.0631 28.1278H94.1694ZM85.1906 26.4966C85.4719 24.8878 86.7981 23.6878 88.5831 23.6878C90.4194 23.6878 91.5931 24.8166 91.8731 26.4966H85.1906Z" fill="#0769AE"/>
<path d="M98.1993 22.1528H95.9043V33.3828H98.1993V27.8641C98.1993 26.0403 98.5055 23.8803 100.981 23.8803C101.516 23.8803 101.974 24.0003 102.383 24.3366L103.429 22.3691C102.868 22.0328 102.204 21.8166 101.542 21.8166C100.011 21.8166 98.8368 22.6566 98.2768 23.9766H98.1993V22.1528Z" fill="#0769AE"/>
<path d="M103.178 29.783H105.228C105.329 30.5555 105.634 30.9717 106.148 31.3917C106.669 31.8105 107.399 32.0293 108.342 32.0455C109.29 32.0618 109.996 31.8943 110.463 31.5418C110.929 31.183 111.165 30.7592 111.174 30.2692C111.182 29.8292 110.985 29.4805 110.584 29.2217C110.304 29.0442 109.603 28.8117 108.483 28.5255C106.974 28.1392 105.927 27.8117 105.342 27.5417C104.764 27.2655 104.327 26.8942 104.029 26.428C103.739 25.9542 103.599 25.4367 103.608 24.8755C103.618 24.3642 103.748 23.8942 104 23.4667C104.26 23.0317 104.608 22.6743 105.042 22.393C105.367 22.1755 105.807 21.9968 106.36 21.8543C106.922 21.7055 107.519 21.638 108.155 21.648C109.111 21.6655 109.948 21.8093 110.663 22.0805C111.385 22.353 111.914 22.7155 112.252 23.168C112.588 23.613 112.812 24.483 112.929 25.2267L110.907 25.228C110.825 24.6355 110.565 24.118 110.128 23.7792C109.696 23.4405 109.08 23.2642 108.277 23.2492C107.327 23.233 106.647 23.3692 106.237 23.6567C105.825 23.9455 105.617 24.2868 105.61 24.683C105.605 24.9355 105.685 25.163 105.85 25.368C106.015 25.5805 106.277 25.7568 106.634 25.9005C106.839 25.9767 107.445 26.1517 108.45 26.4292C109.905 26.8217 110.919 27.1417 111.489 27.3892C112.067 27.6305 112.515 27.9767 112.838 28.4292C113.159 28.8805 113.313 29.438 113.301 30.1005C113.29 30.7493 113.077 31.358 112.662 31.9267C112.253 32.488 111.668 32.9217 110.904 33.2242C110.142 33.5205 109.281 33.6605 108.324 33.6442C106.74 33.6167 105.537 33.2855 104.713 32.6518C103.897 32.018 103.386 31.0042 103.178 29.783Z" fill="#0769AE"/>
<path fill-rule="evenodd" clip-rule="evenodd" d="M115.957 29.6492C115.957 28.0904 117.503 26.8279 119.159 26.8279C120.817 26.8279 122.363 27.5854 122.363 29.6492C122.363 31.7342 120.817 32.4717 119.159 32.4717C117.503 32.4717 115.957 31.2079 115.957 29.6492ZM122.799 32.6604C121.883 33.3704 120.638 33.8054 119.272 33.8054C116.447 33.8054 114.157 31.9454 114.157 29.6492C114.157 27.3542 116.447 25.4929 119.272 25.4929C120.535 25.4929 121.667 25.8492 122.559 26.4679C122.567 26.2017 122.558 25.6667 122.559 25.5942C122.559 24.8017 122.364 24.2442 121.973 23.9204C121.445 23.4804 120.66 23.2617 119.619 23.2604C118.647 23.2604 117.928 23.4754 117.46 23.7992C117.002 24.1167 116.787 24.3242 116.564 25.1379L114.418 25.1842C114.602 24.3704 114.903 23.7154 115.324 23.2179C115.746 22.7142 116.354 22.2767 117.151 22.0092C117.947 21.7354 118.869 21.5992 119.918 21.5992C120.959 21.5992 121.804 21.7667 122.455 21.9967C123.107 22.2279 123.529 22.5192 123.835 22.8717C124.142 23.2179 124.412 23.6567 124.534 24.1904C124.603 24.5217 124.637 25.1192 124.637 25.9829V28.5754C124.637 30.3842 124.651 32.6954 124.651 33.4654H122.772C122.772 33.1942 122.793 32.9554 122.799 32.6604Z" fill="#0769AE"/>
</g>
</g>
<defs>
<clipPath id="clip0_26059_113672">
<rect width="125.16" height="25.21" fill="white" transform="translate(1 19)"/>
</clipPath>
</defs>
</svg>
