<svg xmlns="http://www.w3.org/2000/svg" id="Ebene_1" data-name="Ebene 1" viewBox="0 0 144.2769 47.9458"><defs><style>.cls-1{fill:#868686;}.cls-2{fill:#B5004A;}</style></defs><title>Logo prokundo VB Gruppe</title><path class="cls-1" d="M.1357,7.7129H3.0283v2.3144h.064A5.3461,5.3461,0,0,1,3.88,9.0952,5.5071,5.5071,0,0,1,5.085,8.2275a7.9562,7.9562,0,0,1,1.5908-.643,7.0873,7.0873,0,0,1,1.9765-.2569,6.781,6.781,0,0,1,3.1016.6748,6.4487,6.4487,0,0,1,2.2173,1.816A7.79,7.79,0,0,1,15.2891,12.47a11.3624,11.3624,0,0,1,.434,3.1494,13.4119,13.4119,0,0,1-.4018,3.2945,8.705,8.705,0,0,1-1.2534,2.8281,6.5044,6.5044,0,0,1-2.1856,1.9927,6.3919,6.3919,0,0,1-3.1977.7553,6.8382,6.8382,0,0,1-3.4712-.7553,5.7074,5.7074,0,0,1-1.9927-1.88h-.064V30.853H.1357Zm12.3736,8.1313a8.926,8.926,0,0,0-.209-2.1855,6.1266,6.1266,0,0,0-.7876-1.96A4.3042,4.3042,0,0,0,10.0986,10.3,3.9313,3.9313,0,0,0,8.01,9.77a4.188,4.188,0,0,0-2.1372.53,4.7573,4.7573,0,0,0-1.5269,1.3979,6.0573,6.0573,0,0,0-.9,1.9766,8.9382,8.9382,0,0,0-.2891,2.2661,8.5415,8.5415,0,0,0,.273,2.105,6.65,6.65,0,0,0,.852,1.9766,4.6371,4.6371,0,0,0,1.4942,1.4624,4.1261,4.1261,0,0,0,2.2016.562,3.5355,3.5355,0,0,0,2.0889-.61A4.9339,4.9339,0,0,0,11.4805,19.91a7.0533,7.0533,0,0,0,.8037-2.0083A7.8679,7.8679,0,0,0,12.5093,15.8442Z"/><path class="cls-1" d="M19.7725,7.7129h2.8281V10.252h.0644a5.2991,5.2991,0,0,1,1.7837-2.105A4.2725,4.2725,0,0,1,26.94,7.3276a7.5275,7.5275,0,0,1,1.0927.064q.4169.0652.9.1606v2.7a4.0174,4.0174,0,0,0-.852-.2247,5.5971,5.5971,0,0,0-.8194-.0644,3.7515,3.7515,0,0,0-3.2461,1.8,8.5849,8.5849,0,0,0-1.2211,4.8852V24.104h-3.021Z"/><path class="cls-1" d="M31.1816,15.9087a9.6583,9.6583,0,0,1,.5943-3.439A7.7974,7.7974,0,0,1,33.48,9.7539,7.9209,7.9209,0,0,1,36.1147,7.97a9.3944,9.3944,0,0,1,6.83,0A7.7073,7.7073,0,0,1,45.58,9.7539,7.9285,7.9285,0,0,1,47.2671,12.47a9.6694,9.6694,0,0,1,.5947,3.439,9.0432,9.0432,0,0,1-.6108,3.3262,8.53,8.53,0,0,1-1.7031,2.7319,7.8638,7.8638,0,0,1-2.6358,1.8481,8.8152,8.8152,0,0,1-6.7651,0,8.0763,8.0763,0,0,1-2.6353-1.8481,8.3733,8.3733,0,0,1-1.72-2.7319A9.0327,9.0327,0,0,1,31.1816,15.9087Zm3.2139,0a8.0869,8.0869,0,0,0,.3052,2.1855,6.3315,6.3315,0,0,0,.9321,1.9766,4.8639,4.8639,0,0,0,1.5908,1.43,4.6215,4.6215,0,0,0,2.314.5459,4.5523,4.5523,0,0,0,2.2817-.5459,4.8532,4.8532,0,0,0,1.5909-1.43,6.3338,6.3338,0,0,0,.9321-1.9766,8.0875,8.0875,0,0,0,.3056-2.1855,7.4252,7.4252,0,0,0-.3535-2.2661,6.7516,6.7516,0,0,0-.9965-1.9766,4.77,4.77,0,0,0-1.607-1.3818,4.7995,4.7995,0,0,0-4.3227,0,4.979,4.979,0,0,0-1.607,1.3818,6.5026,6.5026,0,0,0-1.0122,1.9766A7.3978,7.3978,0,0,0,34.3955,15.9087Z"/><path class="cls-2" d="M51.9111,0h3.021V14.3657l6.5884-6.6528h4.1138l-7.6167,7.2637,8.581,9.1274H62.26l-7.3277-8.42v8.42h-3.021Z"/><path class="cls-2" d="M84.2749,24.104H81.35V21.501h-.0645a4.8038,4.8038,0,0,1-2.1533,2.2011,6.7284,6.7284,0,0,1-3.2138.7876,5.5863,5.5863,0,0,1-4.66-1.8642,8.1253,8.1253,0,0,1-1.478-5.1743V7.7129h3.021v8.4849a9.6515,9.6515,0,0,0,.7392,4.3066,3.0357,3.0357,0,0,0,2.7315,1.5425,4.736,4.736,0,0,0,2.2339-.4981,4.2993,4.2993,0,0,0,1.5586-1.3818,6.1637,6.1637,0,0,0,.9-2.1211,12.0861,12.0861,0,0,0,.29-2.748V7.7129h3.021Z"/><path class="cls-2" d="M89.417,7.7129h2.9243v2.6035h.0645a4.8118,4.8118,0,0,1,2.1523-2.2017,6.7445,6.7445,0,0,1,3.2148-.7871,5.59,5.59,0,0,1,4.66,1.8638,8.1343,8.1343,0,0,1,1.4785,5.1743V24.104H100.89V15.6191a9.6707,9.6707,0,0,0-.7382-4.3066A3.0434,3.0434,0,0,0,97.4194,9.77a4.7422,4.7422,0,0,0-2.2343.4981A4.319,4.319,0,0,0,93.6265,11.65a6.1606,6.1606,0,0,0-.8994,2.1372,12.169,12.169,0,0,0-.2891,2.7314v7.585H89.417Z"/><path class="cls-2" d="M120.6548,21.79h-.0635a5.0728,5.0728,0,0,1-.8037.9322,6.1212,6.1212,0,0,1-1.2051.8676,7.4624,7.4624,0,0,1-1.5908.6426,7.2478,7.2478,0,0,1-1.9932.2573,6.1833,6.1833,0,0,1-5.3828-2.7641,8.8661,8.8661,0,0,1-1.2539-2.8443,13.2817,13.2817,0,0,1-.4014-3.2622,11.3622,11.3622,0,0,1,.4336-3.1494,7.7984,7.7984,0,0,1,1.3174-2.6513,6.492,6.492,0,0,1,2.2022-1.816,7.8776,7.8776,0,0,1,6.5566.08,5.7237,5.7237,0,0,1,1.9922,1.88h.0645V0h3.02V24.104h-2.8926Zm-9.48-5.9458a7.8282,7.8282,0,0,0,.2246,2.0572,7.0533,7.0533,0,0,0,.8037,2.0083,4.94,4.94,0,0,0,1.4141,1.5268,3.5333,3.5333,0,0,0,2.0889.61,4.1291,4.1291,0,0,0,2.2021-.562,4.642,4.642,0,0,0,1.4942-1.4624,6.6614,6.6614,0,0,0,.8515-1.9766,8.3976,8.3976,0,0,0-.0322-4.3711,6.5717,6.5717,0,0,0-.8994-1.9766A4.6163,4.6163,0,0,0,117.811,10.3a4.19,4.19,0,0,0-2.1377-.53,3.9313,3.9313,0,0,0-2.0888.53,4.3645,4.3645,0,0,0-1.4141,1.3818,5.933,5.933,0,0,0-.7871,1.9444A9.0371,9.0371,0,0,0,111.1743,15.8442Z"/><path class="cls-2" d="M127.5972,15.9087a9.6363,9.6363,0,0,1,.5947-3.439,7.7832,7.7832,0,0,1,1.7031-2.7158A7.9123,7.9123,0,0,1,132.5308,7.97a9.3931,9.3931,0,0,1,6.8291,0,7.71,7.71,0,0,1,2.6357,1.7837,7.9338,7.9338,0,0,1,1.6865,2.7158,9.6584,9.6584,0,0,1,.5948,3.439,9.0327,9.0327,0,0,1-.61,3.3262,8.5386,8.5386,0,0,1-1.7031,2.7319,7.8618,7.8618,0,0,1-2.6358,1.8481,8.8139,8.8139,0,0,1-6.7646,0,8.0731,8.0731,0,0,1-2.6358-1.8481,8.3816,8.3816,0,0,1-1.72-2.7319A9.0326,9.0326,0,0,1,127.5972,15.9087Zm3.2138,0a8.068,8.068,0,0,0,.3057,2.1855,6.3216,6.3216,0,0,0,.9316,1.9766,4.8632,4.8632,0,0,0,1.5909,1.43,4.6215,4.6215,0,0,0,2.3144.5459,4.5523,4.5523,0,0,0,2.2813-.5459,4.8639,4.8639,0,0,0,1.5908-1.43,6.3437,6.3437,0,0,0,.9326-1.9766,8.1058,8.1058,0,0,0,.3047-2.1855,7.4282,7.4282,0,0,0-.3535-2.2661,6.7168,6.7168,0,0,0-.9961-1.9766,4.7726,4.7726,0,0,0-1.6065-1.3818,4.8005,4.8005,0,0,0-4.3232,0,4.9783,4.9783,0,0,0-1.6065,1.3818,6.5012,6.5012,0,0,0-1.0126,1.9766A7.3949,7.3949,0,0,0,130.811,15.9087Z"/><rect class="cls-1" x="6.7524" y="28.9624" width="137.2217" height="1.876"/><rect class="cls-2" y="0.2969" width="47.3335" height="1.6787"/><path class="cls-1" d="M10.6,45.6353H9.2661L6.46,37.957H7.6553l2.2939,6.71H9.97l2.3584-6.71h1.12Z"/><path class="cls-1" d="M14.0781,41.7964a5.0147,5.0147,0,0,1,.24-1.584,3.5632,3.5632,0,0,1,.7041-1.2539,3.3135,3.3135,0,0,1,1.1254-.8306,3.9311,3.9311,0,0,1,3.0254,0,3.3022,3.3022,0,0,1,1.1309.8306,3.5648,3.5648,0,0,1,.7041,1.2539,5.0148,5.0148,0,0,1,.24,1.584,5.0915,5.0915,0,0,1-.24,1.6064,3.6349,3.6349,0,0,1-.6987,1.2539,3.1368,3.1368,0,0,1-1.126.8194,4.1166,4.1166,0,0,1-3.04,0,3.1316,3.1316,0,0,1-1.126-.8194,3.6317,3.6317,0,0,1-.6987-1.2539A5.0914,5.0914,0,0,1,14.0781,41.7964Zm1.1309,0a4.2987,4.2987,0,0,0,.144,1.1113,2.9928,2.9928,0,0,0,.4429.9619,2.2153,2.2153,0,0,0,.7632.6768,2.5372,2.5372,0,0,0,2.2085,0,2.2172,2.2172,0,0,0,.7632-.6768,2.9917,2.9917,0,0,0,.4423-.9619,4.2773,4.2773,0,0,0,.1441-1.1113,4.1028,4.1028,0,0,0-.1543-1.127,3.04,3.04,0,0,0-.459-.9633,2.2761,2.2761,0,0,0-3.6811,0,3.0269,3.0269,0,0,0-.459.9633A4.0993,4.0993,0,0,0,15.209,41.7964Z"/><path class="cls-1" d="M22.7529,37.957H23.82v6.71h3.1157v.9678H22.7529Z"/><path class="cls-1" d="M28.1519,37.957h1.0669v3.3775l3.18-3.3775h1.4195l-3.5,3.63,3.7773,4.0479H32.5371l-3.3183-3.7618v3.7618H28.1519Z"/><path class="cls-1" d="M38.5977,39.1123q-.203-.0769-.3682-.1377c-.11-.04-.2188-.0752-.3252-.1045a1.9862,1.9862,0,0,0-.3311-.06q-.1706-.0162-.3735-.0161a2.1274,2.1274,0,0,0-.4531.0493,1.3786,1.3786,0,0,0-.4219.165.89.89,0,0,0-.3091.3135.9537.9537,0,0,0-.1177.4956.8317.8317,0,0,0,.2349.61,2.6106,2.6106,0,0,0,.5923.4346q.3575.1978.7734.3906a3.7164,3.7164,0,0,1,.7735.4786,2.3826,2.3826,0,0,1,.5923.7031,2.1114,2.1114,0,0,1,.2348,1.0459,2.3633,2.3633,0,0,1-.2134,1.05,1.913,1.913,0,0,1-.5869.71,2.4712,2.4712,0,0,1-.87.4014,4.2552,4.2552,0,0,1-1.0508.126,3.03,3.03,0,0,1-.7739-.0986q-.3786-.1-.752-.22l.1065-1.0234c.0928.0371.1992.0771.32.1211s.249.0849.3843.1211.2754.0683.4214.0937a2.4511,2.4511,0,0,0,.4213.0381,1.8363,1.8363,0,0,0,.4854-.0713,1.5481,1.5481,0,0,0,.4751-.22,1.2674,1.2674,0,0,0,.3574-.3857,1.0912,1.0912,0,0,0,.1441-.5772,1.0256,1.0256,0,0,0-.2349-.6982,2.2828,2.2828,0,0,0-.5923-.4737c-.2383-.1347-.4961-.2656-.7734-.39a4.373,4.373,0,0,1-.7735-.4463,2.1781,2.1781,0,0,1-.5922-.6436,1.8489,1.8489,0,0,1-.2349-.9785,2.0568,2.0568,0,0,1,.1865-.8969,1.894,1.894,0,0,1,.5068-.6543,2.2277,2.2277,0,0,1,.7579-.4014,3.1094,3.1094,0,0,1,.9389-.1377,5.0587,5.0587,0,0,1,.79.0659,4.17,4.17,0,0,1,.8.209Z"/><path class="cls-1" d="M39.6221,37.957h1.1733l1.7822,6.5786h.021l1.59-6.5786h1.5151l1.6113,6.5786h.0215l1.7818-6.5786H50.249l-2.2939,7.6783H46.5786l-1.6216-6.71h-.0215l-1.6323,6.71h-1.43Z"/><path class="cls-1" d="M50.8364,41.7964a5.0147,5.0147,0,0,1,.24-1.584,3.5632,3.5632,0,0,1,.7041-1.2539,3.3129,3.3129,0,0,1,1.1255-.8306,3.9308,3.9308,0,0,1,3.0253,0,3.3022,3.3022,0,0,1,1.1309.8306,3.5648,3.5648,0,0,1,.7041,1.2539,5.0148,5.0148,0,0,1,.24,1.584,5.0915,5.0915,0,0,1-.24,1.6064,3.6349,3.6349,0,0,1-.6987,1.2539,3.1368,3.1368,0,0,1-1.126.8194,4.1166,4.1166,0,0,1-3.04,0,3.1316,3.1316,0,0,1-1.126-.8194,3.6317,3.6317,0,0,1-.6987-1.2539A5.0914,5.0914,0,0,1,50.8364,41.7964Zm1.1309,0a4.2987,4.2987,0,0,0,.144,1.1113,2.9928,2.9928,0,0,0,.4429.9619,2.2153,2.2153,0,0,0,.7632.6768,2.5372,2.5372,0,0,0,2.2085,0,2.2172,2.2172,0,0,0,.7632-.6768,2.9917,2.9917,0,0,0,.4423-.9619,4.2773,4.2773,0,0,0,.1441-1.1113,4.1028,4.1028,0,0,0-.1543-1.127,3.04,3.04,0,0,0-.459-.9633,2.2762,2.2762,0,0,0-3.6811,0,3.0269,3.0269,0,0,0-.459.9633A4.0993,4.0993,0,0,0,51.9673,41.7964Z"/><path class="cls-1" d="M59.5752,37.957h1.0669v3.2124h3.564V37.957h1.0668v7.6783H64.2061V42.1372h-3.564v3.4981H59.5752Z"/><path class="cls-1" d="M67.2148,37.957h1.0669v6.71h3.1158v.9678H67.2148Z"/><path class="cls-1" d="M75.4624,37.957H77.479a5.0733,5.0733,0,0,1,1.0615.1045,2.3409,2.3409,0,0,1,.8272.336,1.6094,1.6094,0,0,1,.5332.5991,1.9229,1.9229,0,0,1,.1924.8965,1.6632,1.6632,0,0,1-.4165,1.2158,2.3875,2.3875,0,0,1-1.12.61v.0225a2.12,2.12,0,0,1,.6988.1758,1.7717,1.7717,0,0,1,.5444.38,1.6837,1.6837,0,0,1,.3574.56,2.2618,2.2618,0,0,1-.1015,1.7432,1.709,1.709,0,0,1-.6187.6269,2.6178,2.6178,0,0,1-.9072.3194,6.4636,6.4636,0,0,1-1.083.0879H75.4624Zm1.0669,3.2788h.5869c.2559,0,.4995-.0117.731-.0332a1.7928,1.7928,0,0,0,.6079-.1591,1.0088,1.0088,0,0,0,.416-.3692,1.2358,1.2358,0,0,0,.1548-.6709,1.1013,1.1013,0,0,0-.128-.561,1.0317,1.0317,0,0,0-.3305-.3521,1.283,1.283,0,0,0-.4429-.1816,2.3687,2.3687,0,0,0-.4751-.0493h-1.12Zm0,3.4981h.8a4.6517,4.6517,0,0,0,.6933-.05,1.7328,1.7328,0,0,0,.5816-.1875,1.062,1.062,0,0,0,.4-.3789,1.1826,1.1826,0,0,0,.1494-.627,1.3123,1.3123,0,0,0-.1709-.71,1.1437,1.1437,0,0,0-.4482-.4121,1.8515,1.8515,0,0,0-.6241-.1875,5.4761,5.4761,0,0,0-.6884-.044h-.6934Z"/><path class="cls-1" d="M87.84,42.4565a3.5981,3.5981,0,0,1-.7524,2.47,3.1422,3.1422,0,0,1-4.2788,0,3.5981,3.5981,0,0,1-.752-2.47V37.957h1.0669v4.357a5.1558,5.1558,0,0,0,.0909,1.0058,2.2367,2.2367,0,0,0,.3037.7871,1.4584,1.4584,0,0,0,.5659.5108,2.1473,2.1473,0,0,0,1.7285,0,1.46,1.46,0,0,0,.5654-.5108,2.2467,2.2467,0,0,0,.3042-.7871,5.1966,5.1966,0,0,0,.09-1.0058V37.957H87.84Z"/><path class="cls-1" d="M89.7388,37.957H91.19l3.2862,6.1822h.0215V37.957H95.564v7.6783H94.1987l-3.3716-6.314h-.0214v6.314H89.7388Z"/><path class="cls-1" d="M97.3892,37.957h2.1982a4.5571,4.5571,0,0,1,1.5518.2588,3.7659,3.7659,0,0,1,1.26.7427,3.4458,3.4458,0,0,1,.8477,1.1826,3.8914,3.8914,0,0,1,.31,1.59,4.7864,4.7864,0,0,1-.2774,1.6992,3.2588,3.2588,0,0,1-.7891,1.2207,3.3047,3.3047,0,0,1-1.249.7373,5.1685,5.1685,0,0,1-1.6533.2471H97.3892Zm1.0664,6.71h1.1211a2.9372,2.9372,0,0,0,2.1123-.7041,2.9016,2.9016,0,0,0,.7363-2.1885,3.2493,3.2493,0,0,0-.208-1.1992,2.5975,2.5975,0,0,0-.5762-.897,2.4662,2.4662,0,0,0-.8642-.561,2.9483,2.9483,0,0,0-1.0723-.1924h-1.249Z"/><path class="cls-1" d="M113.7778,39.3213a3,3,0,0,0-.8584-.396,4.4578,4.4578,0,0,0-1.19-.1318,2.9531,2.9531,0,0,0-1.168.2251,2.6369,2.6369,0,0,0-.9072.6328,2.8218,2.8218,0,0,0-.581.9575,3.3913,3.3913,0,0,0-.2032,1.1875,3.3176,3.3176,0,0,0,.2188,1.2324,2.8415,2.8415,0,0,0,.6035.9453,2.6761,2.6761,0,0,0,.8955.6113,2.7971,2.7971,0,0,0,1.0889.2139c.1845,0,.3379-.0039.459-.0107a3.0335,3.0335,0,0,0,.3144-.0332c.0889-.0147.165-.0293.2295-.044s.1279-.0293.1924-.0439V42.3354h-1.5694v-.9023h2.6358v3.9932a6.51,6.51,0,0,1-2.2725.3408,4.4225,4.4225,0,0,1-1.6113-.28,3.4338,3.4338,0,0,1-1.2373-.8027,3.6252,3.6252,0,0,1-.7949-1.2647,4.6216,4.6216,0,0,1-.2832-1.6562,4.2605,4.2605,0,0,1,.2939-1.6162,3.5906,3.5906,0,0,1,.8213-1.2437,3.6613,3.6613,0,0,1,1.2481-.7973,4.3,4.3,0,0,1,1.5742-.2808q.4057,0,.7148.0273a4.345,4.345,0,0,1,.5547.0826c.1631.0371.3184.0791.4639.1264s.2968.0977.4541.1489Z"/><path class="cls-1" d="M115.73,40.0259h.9394v.8681h.02a1.8046,1.8046,0,0,1,.5928-.72,1.3886,1.3886,0,0,1,.8272-.2812,2.4027,2.4027,0,0,1,.3623.0224c.0927.0147.1924.0332.2988.0547v.9238a1.32,1.32,0,0,0-.2832-.0761,1.7978,1.7978,0,0,0-.2715-.0225,1.2374,1.2374,0,0,0-1.0781.6162,3.0082,3.0082,0,0,0-.4053,1.6719v2.5518H115.73Z"/><path class="cls-1" d="M124.6929,45.6353h-.9717v-.8907h-.02a1.62,1.62,0,0,1-.7149.753,2.1865,2.1865,0,0,1-1.0673.27,1.8266,1.8266,0,0,1-1.5469-.6377,2.8409,2.8409,0,0,1-.4912-1.77v-3.333h1.0029v2.9033a3.4074,3.4074,0,0,0,.2451,1.4746,1.0049,1.0049,0,0,0,.9072.5274,1.542,1.542,0,0,0,.7422-.17,1.4452,1.4452,0,0,0,.5166-.4736,2.1152,2.1152,0,0,0,.2989-.7256,4.2335,4.2335,0,0,0,.0966-.94V40.0259h1.003Z"/><path class="cls-1" d="M126.4,40.0259h.96v.792h.0214a1.8589,1.8589,0,0,1,.2618-.3194,1.8069,1.8069,0,0,1,.4-.2968,2.5757,2.5757,0,0,1,.5283-.22,2.2768,2.2768,0,0,1,.6553-.0888,2.125,2.125,0,0,1,1.7666.8525,2.7257,2.7257,0,0,1,.4375.9082,4.0117,4.0117,0,0,1,.1435,1.0781,4.72,4.72,0,0,1-.1328,1.127,3.0591,3.0591,0,0,1-.416.9678,2.197,2.197,0,0,1-.7256.6826,2.0781,2.0781,0,0,1-1.0625.2578,2.2215,2.2215,0,0,1-1.1524-.2578,1.9268,1.9268,0,0,1-.6611-.6436h-.0215v3.08H126.4Zm4.1084,2.7822a3.1908,3.1908,0,0,0-.0693-.748,2.1407,2.1407,0,0,0-.2618-.6709,1.4562,1.4562,0,0,0-.47-.4786,1.2715,1.2715,0,0,0-.6933-.1806,1.36,1.36,0,0,0-.71.1806,1.6227,1.6227,0,0,0-.5068.4786,2.1264,2.1264,0,0,0-.2989.6767,3.1791,3.1791,0,0,0-.0957.7754,3.0021,3.0021,0,0,0,.0909.7207,2.2852,2.2852,0,0,0,.2832.6768,1.5566,1.5566,0,0,0,.496.5,1.3316,1.3316,0,0,0,.7305.1924,1.1451,1.1451,0,0,0,.6934-.209,1.6638,1.6638,0,0,0,.47-.5225,2.4314,2.4314,0,0,0,.2666-.6875A2.7914,2.7914,0,0,0,130.5083,42.8081Z"/><path class="cls-1" d="M132.9194,40.0259h.96v.792h.0215a1.8532,1.8532,0,0,1,.2617-.3194,1.8093,1.8093,0,0,1,.4-.2968,2.5757,2.5757,0,0,1,.5283-.22,2.2773,2.2773,0,0,1,.6553-.0888,2.1247,2.1247,0,0,1,1.7666.8525,2.7257,2.7257,0,0,1,.4375.9082,4.0117,4.0117,0,0,1,.1435,1.0781,4.72,4.72,0,0,1-.1328,1.127,3.0591,3.0591,0,0,1-.416.9678,2.1961,2.1961,0,0,1-.7256.6826,2.0781,2.0781,0,0,1-1.0625.2578,2.2208,2.2208,0,0,1-1.1523-.2578,1.9262,1.9262,0,0,1-.6612-.6436h-.0214v3.08h-1.003Zm4.1084,2.7822a3.1855,3.1855,0,0,0-.0693-.748,2.1406,2.1406,0,0,0-.2617-.6709,1.4581,1.4581,0,0,0-.47-.4786,1.2721,1.2721,0,0,0-.6934-.1806,1.36,1.36,0,0,0-.71.1806,1.6227,1.6227,0,0,0-.5068.4786,2.124,2.124,0,0,0-.2988.6767,3.1742,3.1742,0,0,0-.0957.7754,3.0019,3.0019,0,0,0,.0908.7207,2.2878,2.2878,0,0,0,.2832.6768,1.5569,1.5569,0,0,0,.4961.5,1.3313,1.3313,0,0,0,.73.1924,1.1449,1.1449,0,0,0,.6934-.209,1.6638,1.6638,0,0,0,.47-.5225,2.4314,2.4314,0,0,0,.2666-.6875A2.7823,2.7823,0,0,0,137.0278,42.8081Z"/><path class="cls-1" d="M143.6108,45.4048c-.1.0361-.2021.0752-.31.1152s-.2256.0791-.3575.1153a3.6331,3.6331,0,0,1-.4589.0937,4.1263,4.1263,0,0,1-.5918.0381,3.258,3.258,0,0,1-1.2539-.22,2.3331,2.3331,0,0,1-.875-.6162,2.5769,2.5769,0,0,1-.5176-.9571,4.2731,4.2731,0,0,1-.17-1.2422,3.4358,3.4358,0,0,1,.1806-1.1445,2.6767,2.6767,0,0,1,.5176-.8965,2.3427,2.3427,0,0,1,.8057-.5888,2.5572,2.5572,0,0,1,1.0459-.209,2.4292,2.4292,0,0,1,1.1416.2422,1.9686,1.9686,0,0,1,.7363.666,2.9208,2.9208,0,0,1,.4,1.0058,6.1483,6.1483,0,0,1,.1221,1.2539h-3.8838a1.9226,1.9226,0,0,0,.1445.76,1.7943,1.7943,0,0,0,.3945.5879,1.8268,1.8268,0,0,0,.5762.3857,1.719,1.719,0,0,0,.6777.1368,2.2154,2.2154,0,0,0,.5069-.0606,4.3191,4.3191,0,0,0,.49-.1426,2.6394,2.6394,0,0,0,.4063-.1816,1.9347,1.9347,0,0,0,.2714-.1758Zm-.65-3.1133a1.9911,1.9911,0,0,0-.0908-.6055,1.5326,1.5326,0,0,0-.2617-.5,1.1876,1.1876,0,0,0-.4267-.3359,1.34,1.34,0,0,0-.5762-.12,1.3,1.3,0,0,0-.6348.1426,1.395,1.395,0,0,0-.4375.3681,1.65,1.65,0,0,0-.2666.501,2.7867,2.7867,0,0,0-.123.55Z"/></svg>