<?xml version="1.0" encoding="utf-8"?>
<!-- Generator: Adobe Illustrator 23.0.2, SVG Export Plug-In . SVG Version: 6.00 Build 0)  -->
<svg version="1.1" id="Ebene_1" xmlns="http://www.w3.org/2000/svg" xmlns:xlink="http://www.w3.org/1999/xlink" x="0px" y="0px"
	 viewBox="0 0 278.87 103.84" style="enable-background:new 0 0 278.87 103.84;" xml:space="preserve">
<style type="text/css">
	.st0{clip-path:url(#SVGID_2_);fill:#0F5582;}
	.st1{clip-path:url(#SVGID_2_);fill:#55B48C;}
	.st2{clip-path:url(#SVGID_2_);fill:#FFFFFF;}
	.st3{fill:#0F5582;}
</style>
<g>
	<g>
		<defs>
			<rect id="SVGID_1_" x="19.72" y="7.98" width="239.44" height="68.41"/>
		</defs>
		<clipPath id="SVGID_2_">
			<use xlink:href="#SVGID_1_"  style="overflow:visible;"/>
		</clipPath>
		<path class="st0" d="M19.72,42.19c0-10.43,0.39-14.13,1.75-18.22C24.88,13.44,33.46,7.98,45.15,7.98
			c12.37,0,20.36,6.63,23.09,14.03c0.19,0.49,0.1,1.07-0.39,1.36l-8.18,3.61c-0.59,0.2-1.07-0.1-1.27-0.49
			c-2.92-5.26-6.92-8.19-13.35-8.19c-6.72,0-10.62,3.31-12.47,8.67c-0.78,2.44-1.17,5.75-1.17,15.2c0,9.35,0.39,12.76,1.17,15.2
			c1.85,5.36,5.75,8.68,12.47,8.68c5.85,0,10.82-2.93,12.57-8.28c0.68-2.05,1.07-4.78,1.07-8.58c0-0.39-0.19-0.58-0.58-0.58H47.2
			c-0.59,0-0.98-0.39-0.98-0.98v-7.8c0-0.58,0.39-0.97,0.98-0.97h21.92c0.59,0,0.98,0.39,0.98,0.97v5.75
			c0,5.46-0.49,11.21-1.56,14.52c-3.22,10.33-11.99,16.28-23.39,16.28c-11.7,0-20.27-5.46-23.68-15.98
			C20.11,56.32,19.72,52.62,19.72,42.19"/>
		<path class="st0" d="M78.89,10.03c0-0.58,0.39-0.97,0.98-0.97h41.51c0.59,0,0.98,0.39,0.98,0.97v8.38c0,0.58-0.39,0.97-0.98,0.97
			h-30.4c-0.39,0-0.58,0.19-0.58,0.58v16.18c0,0.39,0.19,0.58,0.58,0.58h25.63c0.58,0,0.98,0.39,0.98,0.98v8.38
			c0,0.59-0.39,0.98-0.98,0.98H90.98c-0.39,0-0.58,0.2-0.58,0.58v16.76c0,0.39,0.19,0.58,0.58,0.58h30.4c0.59,0,0.98,0.39,0.98,0.98
			v8.38c0,0.59-0.39,0.98-0.98,0.98H79.87c-0.59,0-0.98-0.39-0.98-0.98V10.03z"/>
		<path class="st0" d="M150.23,75.32c-0.59,0-0.97-0.39-1.17-0.98L128.1,10.03c-0.19-0.58,0.19-0.97,0.78-0.97h9.46
			c0.68,0,1.07,0.29,1.27,0.97L154.42,57h0.29l14.23-46.97c0.19-0.68,0.58-0.97,1.27-0.97h9.45c0.59,0,0.98,0.39,0.78,0.97
			l-21.05,64.32c-0.19,0.59-0.58,0.98-1.17,0.98H150.23z"/>
		<path class="st1" d="M258.32,9.06h-61.05c-0.58,0-0.97,0.39-1.17,0.98l-21.05,64.32c-0.19,0.58,0.19,0.97,0.78,0.97h61.05
			c0.58,0,0.97-0.39,1.17-0.98l21.05-64.31C259.3,9.45,258.91,9.06,258.32,9.06"/>
		<path class="st2" d="M222.1,31.41l-5.93-5.93c-0.41-0.41-0.96-0.41-1.38,0l-20.87,20.87c-0.42,0.42-0.42,0.97,0,1.38l5.93,5.93
			c0.41,0.41,0.96,0.41,1.38,0l20.87-20.87C222.51,32.37,222.51,31.82,222.1,31.41"/>
		<path class="st2" d="M237.05,46.36l-11.2-11.2c-0.41-0.41-0.97-0.41-1.38,0l-5.93,5.93c-0.41,0.41-0.41,0.96,0,1.38l11.2,11.2
			c0.41,0.42,0.96,0.42,1.38,0l5.93-5.93C237.46,47.32,237.46,46.77,237.05,46.36"/>
	</g>
	<g>
		<path class="st3" d="M250.84,93.45c0.51,1.58,1.8,2.4,3.56,2.4c1.71,0,3.03-0.89,3.52-2.45c0.16-0.5,0.23-1.36,0.23-2.18v-0.86
			c0-0.09-0.06-0.15-0.15-0.15h-3.3c-0.09,0-0.15,0.06-0.15,0.15v1.17c0,0.09,0.06,0.15,0.15,0.15h1.64c0.06,0,0.09,0.03,0.09,0.09
			c0,0.57-0.06,0.98-0.16,1.29c-0.26,0.81-1.01,1.25-1.89,1.25c-1.01,0-1.6-0.5-1.88-1.3c-0.12-0.37-0.18-0.88-0.18-2.29
			c0-1.42,0.06-1.92,0.18-2.29c0.28-0.81,0.86-1.3,1.88-1.3c0.97,0,1.57,0.44,2.01,1.23c0.03,0.06,0.1,0.1,0.19,0.07l1.23-0.54
			c0.07-0.04,0.09-0.13,0.06-0.21c-0.41-1.11-1.61-2.11-3.47-2.11c-1.76,0-3.05,0.82-3.56,2.4c-0.2,0.62-0.26,1.17-0.26,2.74
			C250.58,92.28,250.64,92.83,250.84,93.45 M241.24,95.55c0,0.09,0.06,0.15,0.15,0.15h1.28c0.09,0,0.15-0.06,0.15-0.15v-6.86h0.06
			l4.07,6.86c0.06,0.1,0.13,0.15,0.25,0.15h1.33c0.09,0,0.15-0.06,0.15-0.15v-9.67c0-0.09-0.06-0.15-0.15-0.15h-1.28
			c-0.09,0-0.15,0.06-0.15,0.15v6.87h-0.06l-4.06-6.87c-0.06-0.1-0.13-0.15-0.25-0.15h-1.35c-0.09,0-0.15,0.06-0.15,0.15V95.55z
			 M235.43,94.3c-1.13,0-1.93-0.76-1.93-2.14v-6.29c0-0.09-0.06-0.15-0.15-0.15h-1.44c-0.09,0-0.15,0.06-0.15,0.15v6.31
			c0,2.32,1.57,3.66,3.66,3.66c2.11,0,3.68-1.35,3.68-3.66v-6.31c0-0.09-0.06-0.15-0.15-0.15h-1.44c-0.09,0-0.15,0.06-0.15,0.15
			v6.29C237.38,93.54,236.57,94.3,235.43,94.3 M226.69,90.11h-2.12c-0.06,0-0.09-0.03-0.09-0.09v-2.65c0-0.06,0.03-0.09,0.09-0.09
			h2.12c0.91,0,1.52,0.56,1.52,1.42C228.22,89.55,227.6,90.11,226.69,90.11 M230.04,95.69c0.1,0,0.16-0.09,0.1-0.19l-2.1-4.06
			c1.14-0.43,1.89-1.44,1.89-2.74c0-1.76-1.35-2.97-3.18-2.97h-3.85c-0.09,0-0.15,0.06-0.15,0.15v9.67c0,0.09,0.06,0.15,0.15,0.15
			h1.44c0.09,0,0.15-0.06,0.15-0.15v-3.79c0-0.06,0.03-0.09,0.09-0.09h1.71l1.91,3.88c0.04,0.1,0.1,0.15,0.22,0.15H230.04z
			 M214.4,95.55c0,0.09,0.06,0.15,0.15,0.15h6.24c0.09,0,0.15-0.06,0.15-0.15v-1.26c0-0.09-0.06-0.15-0.15-0.15h-4.57
			c-0.06,0-0.09-0.03-0.09-0.09v-2.52c0-0.06,0.03-0.09,0.09-0.09h3.85c0.09,0,0.15-0.06,0.15-0.15v-1.26
			c0-0.09-0.06-0.15-0.15-0.15h-3.85c-0.06,0-0.09-0.03-0.09-0.09v-2.43c0-0.06,0.03-0.09,0.09-0.09h4.57
			c0.09,0,0.15-0.06,0.15-0.15v-1.26c0-0.09-0.06-0.15-0.15-0.15h-6.24c-0.09,0-0.15,0.06-0.15,0.15V95.55z M204.77,95.55
			c0,0.09,0.06,0.15,0.15,0.15h1.44c0.09,0,0.15-0.06,0.15-0.15v-4.01c0-0.06,0.03-0.09,0.09-0.09h3.8c0.06,0,0.09,0.03,0.09,0.09
			v4.01c0,0.09,0.06,0.15,0.15,0.15h1.44c0.09,0,0.15-0.06,0.15-0.15v-9.67c0-0.09-0.06-0.15-0.15-0.15h-1.44
			c-0.09,0-0.15,0.06-0.15,0.15v3.93c0,0.06-0.03,0.09-0.09,0.09h-3.8c-0.06,0-0.09-0.03-0.09-0.09v-3.93
			c0-0.09-0.06-0.15-0.15-0.15h-1.44c-0.09,0-0.15,0.06-0.15,0.15V95.55z M196.32,93.41c0.51,1.63,1.77,2.45,3.46,2.45
			c1.6,0,2.8-0.82,3.37-2.14c0.03-0.07,0-0.15-0.07-0.18l-1.25-0.6c-0.09-0.04-0.16,0-0.19,0.07c-0.32,0.7-0.88,1.29-1.86,1.29
			c-0.95,0-1.51-0.51-1.79-1.32c-0.13-0.41-0.18-0.81-0.18-2.27s0.04-1.86,0.18-2.27c0.28-0.81,0.84-1.32,1.79-1.32
			c0.98,0,1.54,0.59,1.86,1.29c0.03,0.07,0.1,0.12,0.19,0.07l1.25-0.6c0.07-0.03,0.1-0.1,0.07-0.18c-0.57-1.32-1.77-2.14-3.37-2.14
			c-1.69,0-2.95,0.82-3.46,2.45c-0.2,0.62-0.26,1.11-0.26,2.7C196.06,92.29,196.12,92.79,196.32,93.41 M192.42,95.55
			c0,0.09,0.06,0.15,0.15,0.15H194c0.09,0,0.15-0.06,0.15-0.15v-9.67c0-0.09-0.06-0.15-0.15-0.15h-1.44c-0.09,0-0.15,0.06-0.15,0.15
			V95.55z M186.96,95.85c2.48,0,3.75-1.32,3.75-3.09c0-1.71-1.06-2.62-2.97-2.89l-0.53-0.07c-1.35-0.19-1.83-0.66-1.83-1.35
			c0-0.78,0.56-1.33,1.57-1.33c0.84,0,1.58,0.25,2.39,0.78c0.07,0.04,0.15,0.03,0.2-0.04l0.7-1.08c0.06-0.09,0.04-0.15-0.03-0.21
			c-0.79-0.6-1.98-1-3.22-1c-2.05,0-3.37,1.2-3.37,3c0,1.66,1.08,2.58,3,2.84l0.53,0.07c1.38,0.19,1.82,0.66,1.82,1.38
			c0,0.83-0.69,1.44-1.88,1.44c-1.11,0-2.07-0.54-2.71-1.06c-0.06-0.06-0.15-0.06-0.2,0.01l-0.91,1.06
			c-0.06,0.07-0.03,0.16,0.03,0.22C184.07,95.27,185.49,95.85,186.96,95.85 M178.69,90.11h-2.12c-0.06,0-0.09-0.03-0.09-0.09v-2.65
			c0-0.06,0.03-0.09,0.09-0.09h2.12c0.91,0,1.52,0.56,1.52,1.42C180.22,89.55,179.6,90.11,178.69,90.11 M182.03,95.69
			c0.1,0,0.16-0.09,0.1-0.19l-2.1-4.06c1.14-0.43,1.89-1.44,1.89-2.74c0-1.76-1.35-2.97-3.18-2.97h-3.85
			c-0.09,0-0.15,0.06-0.15,0.15v9.67c0,0.09,0.06,0.15,0.15,0.15h1.44c0.09,0,0.15-0.06,0.15-0.15v-3.79c0-0.06,0.03-0.09,0.09-0.09
			h1.71l1.9,3.88c0.04,0.1,0.1,0.15,0.22,0.15H182.03z M166.4,95.55c0,0.09,0.06,0.15,0.15,0.15h6.24c0.09,0,0.15-0.06,0.15-0.15
			v-1.26c0-0.09-0.06-0.15-0.15-0.15h-4.57c-0.06,0-0.09-0.03-0.09-0.09v-2.52c0-0.06,0.03-0.09,0.09-0.09h3.85
			c0.09,0,0.15-0.06,0.15-0.15v-1.26c0-0.09-0.06-0.15-0.15-0.15h-3.85c-0.06,0-0.09-0.03-0.09-0.09v-2.43
			c0-0.06,0.03-0.09,0.09-0.09h4.57c0.09,0,0.15-0.06,0.15-0.15v-1.26c0-0.09-0.06-0.15-0.15-0.15h-6.24
			c-0.09,0-0.15,0.06-0.15,0.15V95.55z M161.75,95.69c0.09,0,0.15-0.06,0.18-0.15l3.16-9.67c0.03-0.09-0.03-0.15-0.12-0.15h-1.42
			c-0.1,0-0.16,0.04-0.19,0.15l-2.14,7.06h-0.04l-2.23-7.06c-0.03-0.1-0.09-0.15-0.19-0.15h-1.42c-0.09,0-0.15,0.06-0.12,0.15
			l3.15,9.67c0.03,0.09,0.09,0.15,0.18,0.15H161.75z M153.17,92.53h4.03c0.09,0,0.15-0.06,0.15-0.15v-1.16
			c0-0.09-0.06-0.15-0.15-0.15h-4.03c-0.09,0-0.15,0.06-0.15,0.15v1.16C153.02,92.47,153.08,92.53,153.17,92.53 M148.55,90.11h-2.12
			c-0.06,0-0.09-0.03-0.09-0.09v-2.65c0-0.06,0.03-0.09,0.09-0.09h2.12c0.91,0,1.52,0.56,1.52,1.42
			C150.08,89.55,149.46,90.11,148.55,90.11 M151.89,95.69c0.1,0,0.16-0.09,0.1-0.19l-2.1-4.06c1.14-0.43,1.89-1.44,1.89-2.74
			c0-1.76-1.35-2.97-3.18-2.97h-3.85c-0.09,0-0.15,0.06-0.15,0.15v9.67c0,0.09,0.06,0.15,0.15,0.15h1.44c0.09,0,0.15-0.06,0.15-0.15
			v-3.79c0-0.06,0.03-0.09,0.09-0.09h1.71l1.9,3.88c0.04,0.1,0.1,0.15,0.22,0.15H151.89z M136.26,95.55c0,0.09,0.06,0.15,0.15,0.15
			h6.24c0.09,0,0.15-0.06,0.15-0.15v-1.26c0-0.09-0.06-0.15-0.15-0.15h-4.57c-0.06,0-0.09-0.03-0.09-0.09v-2.52
			c0-0.06,0.03-0.09,0.09-0.09h3.85c0.09,0,0.15-0.06,0.15-0.15v-1.26c0-0.09-0.06-0.15-0.15-0.15h-3.85
			c-0.06,0-0.09-0.03-0.09-0.09v-2.43c0-0.06,0.03-0.09,0.09-0.09h4.57c0.09,0,0.15-0.06,0.15-0.15v-1.26
			c0-0.09-0.06-0.15-0.15-0.15h-6.24c-0.09,0-0.15,0.06-0.15,0.15V95.55z M125.18,95.55c0,0.09,0.06,0.15,0.15,0.15h1.27
			c0.09,0,0.15-0.06,0.15-0.15v-6.1h0.06l2.11,4.69c0.06,0.13,0.15,0.19,0.28,0.19h0.85c0.13,0,0.22-0.06,0.28-0.19l2.11-4.69h0.06
			v6.1c0,0.09,0.06,0.15,0.15,0.15h1.27c0.09,0,0.15-0.06,0.15-0.15v-9.67c0-0.09-0.06-0.15-0.15-0.15h-1.29
			c-0.13,0-0.2,0.04-0.25,0.15l-2.7,6.14h-0.06l-2.74-6.14c-0.04-0.1-0.12-0.15-0.25-0.15h-1.3c-0.09,0-0.15,0.06-0.15,0.15V95.55z
			 M119.37,94.3c-1.13,0-1.93-0.76-1.93-2.14v-6.29c0-0.09-0.06-0.15-0.15-0.15h-1.44c-0.09,0-0.15,0.06-0.15,0.15v6.31
			c0,2.32,1.57,3.66,3.66,3.66c2.11,0,3.68-1.35,3.68-3.66v-6.31c0-0.09-0.06-0.15-0.15-0.15h-1.44c-0.09,0-0.15,0.06-0.15,0.15
			v6.29C121.31,93.54,120.51,94.3,119.37,94.3 M118.44,84.42c0.09,0,0.15-0.06,0.15-0.15V83c0-0.09-0.06-0.15-0.15-0.15h-1.07
			c-0.09,0-0.15,0.06-0.15,0.15v1.27c0,0.09,0.06,0.15,0.15,0.15H118.44z M121.37,84.42c0.09,0,0.15-0.06,0.15-0.15V83
			c0-0.09-0.06-0.15-0.15-0.15h-1.07c-0.09,0-0.15,0.06-0.15,0.15v1.27c0,0.09,0.06,0.15,0.15,0.15H121.37z M111.35,95.69
			c0.09,0,0.15-0.06,0.15-0.15v-8.18c0-0.06,0.03-0.09,0.09-0.09h2.61c0.09,0,0.15-0.06,0.15-0.15v-1.26c0-0.09-0.06-0.15-0.15-0.15
			h-7.12c-0.09,0-0.15,0.06-0.15,0.15v1.26c0,0.09,0.06,0.15,0.15,0.15h2.61c0.06,0,0.09,0.03,0.09,0.09v8.18
			c0,0.09,0.06,0.15,0.15,0.15H111.35z M98.08,95.55c0,0.09,0.06,0.15,0.15,0.15h1.27c0.09,0,0.15-0.06,0.15-0.15v-6.86h0.06
			l4.07,6.86c0.06,0.1,0.13,0.15,0.25,0.15h1.33c0.09,0,0.15-0.06,0.15-0.15v-9.67c0-0.09-0.06-0.15-0.15-0.15h-1.27
			c-0.09,0-0.15,0.06-0.15,0.15v6.87h-0.06l-4.06-6.87c-0.06-0.1-0.13-0.15-0.25-0.15h-1.35c-0.09,0-0.15,0.06-0.15,0.15V95.55z
			 M89.72,95.55c0,0.09,0.06,0.15,0.15,0.15h6.24c0.09,0,0.15-0.06,0.15-0.15v-1.26c0-0.09-0.06-0.15-0.15-0.15h-4.57
			c-0.06,0-0.09-0.03-0.09-0.09v-2.52c0-0.06,0.03-0.09,0.09-0.09h3.85c0.09,0,0.15-0.06,0.15-0.15v-1.26
			c0-0.09-0.06-0.15-0.15-0.15h-3.85c-0.06,0-0.09-0.03-0.09-0.09v-2.43c0-0.06,0.03-0.09,0.09-0.09h4.57
			c0.09,0,0.15-0.06,0.15-0.15v-1.26c0-0.09-0.06-0.15-0.15-0.15h-6.24c-0.09,0-0.15,0.06-0.15,0.15V95.55z M80.51,93.45
			c0.51,1.58,1.8,2.4,3.56,2.4c1.71,0,3.03-0.89,3.52-2.45c0.16-0.5,0.23-1.36,0.23-2.18v-0.86c0-0.09-0.06-0.15-0.15-0.15h-3.3
			c-0.09,0-0.15,0.06-0.15,0.15v1.17c0,0.09,0.06,0.15,0.15,0.15h1.64c0.06,0,0.09,0.03,0.09,0.09c0,0.57-0.06,0.98-0.16,1.29
			c-0.26,0.81-1.01,1.25-1.89,1.25c-1.01,0-1.6-0.5-1.88-1.3C82.06,92.63,82,92.12,82,90.71c0-1.42,0.06-1.92,0.18-2.29
			c0.28-0.81,0.86-1.3,1.88-1.3c0.97,0,1.57,0.44,2.01,1.23c0.03,0.06,0.1,0.1,0.19,0.07l1.23-0.54c0.07-0.04,0.09-0.13,0.06-0.21
			c-0.41-1.11-1.61-2.11-3.47-2.11c-1.76,0-3.05,0.82-3.56,2.4c-0.21,0.62-0.26,1.17-0.26,2.74C80.24,92.28,80.3,92.83,80.51,93.45
			 M76.61,95.55c0,0.09,0.06,0.15,0.15,0.15h1.44c0.09,0,0.15-0.06,0.15-0.15v-9.67c0-0.09-0.06-0.15-0.15-0.15h-1.44
			c-0.09,0-0.15,0.06-0.15,0.15V95.55z M68.26,95.55c0,0.09,0.06,0.15,0.15,0.15h6.24c0.09,0,0.15-0.06,0.15-0.15v-1.26
			c0-0.09-0.06-0.15-0.15-0.15h-4.57c-0.06,0-0.09-0.03-0.09-0.09v-2.52c0-0.06,0.03-0.09,0.09-0.09h3.85
			c0.09,0,0.15-0.06,0.15-0.15v-1.26c0-0.09-0.06-0.15-0.15-0.15h-3.85c-0.06,0-0.09-0.03-0.09-0.09v-2.43
			c0-0.06,0.03-0.09,0.09-0.09h4.57c0.09,0,0.15-0.06,0.15-0.15v-1.26c0-0.09-0.06-0.15-0.15-0.15H68.4c-0.09,0-0.15,0.06-0.15,0.15
			V95.55z M60.83,94.05v-6.68c0-0.06,0.03-0.09,0.09-0.09h1.48c1.1,0,1.77,0.37,2.07,1.26c0.1,0.28,0.18,0.72,0.18,2.17
			c0,1.44-0.07,1.89-0.18,2.17c-0.29,0.89-0.97,1.26-2.07,1.26h-1.48C60.86,94.14,60.83,94.11,60.83,94.05 M59.1,95.55
			c0,0.09,0.06,0.15,0.15,0.15h3.56c1.71,0,2.86-0.76,3.33-2.21c0.16-0.5,0.25-1.04,0.25-2.77c0-1.73-0.09-2.27-0.25-2.77
			c-0.47-1.45-1.61-2.21-3.33-2.21h-3.56c-0.09,0-0.15,0.06-0.15,0.15V95.55z M49.47,95.55c0,0.09,0.06,0.15,0.15,0.15h1.27
			c0.09,0,0.15-0.06,0.15-0.15v-6.86h0.06l4.07,6.86c0.06,0.1,0.13,0.15,0.25,0.15h1.33c0.09,0,0.15-0.06,0.15-0.15v-9.67
			c0-0.09-0.06-0.15-0.15-0.15h-1.27c-0.09,0-0.15,0.06-0.15,0.15v6.87h-0.06l-4.06-6.87c-0.06-0.1-0.13-0.15-0.25-0.15h-1.35
			c-0.09,0-0.15,0.06-0.15,0.15V95.55z M43.66,94.3c-1.13,0-1.93-0.76-1.93-2.14v-6.29c0-0.09-0.06-0.15-0.15-0.15h-1.44
			c-0.09,0-0.15,0.06-0.15,0.15v6.31c0,2.32,1.57,3.66,3.66,3.66c2.11,0,3.68-1.35,3.68-3.66v-6.31c0-0.09-0.06-0.15-0.15-0.15
			h-1.44c-0.09,0-0.15,0.06-0.15,0.15v6.29C45.6,93.54,44.8,94.3,43.66,94.3 M34.92,90.11H32.8c-0.06,0-0.09-0.03-0.09-0.09v-2.65
			c0-0.06,0.03-0.09,0.09-0.09h2.12c0.91,0,1.52,0.56,1.52,1.42C36.45,89.55,35.83,90.11,34.92,90.11 M38.26,95.69
			c0.1,0,0.16-0.09,0.1-0.19l-2.1-4.06c1.14-0.43,1.89-1.44,1.89-2.74c0-1.76-1.35-2.97-3.18-2.97h-3.85
			c-0.09,0-0.15,0.06-0.15,0.15v9.67c0,0.09,0.06,0.15,0.15,0.15h1.44c0.09,0,0.15-0.06,0.15-0.15v-3.79c0-0.06,0.03-0.09,0.09-0.09
			h1.71l1.9,3.88c0.04,0.1,0.1,0.15,0.22,0.15H38.26z M21.76,93.45c0.51,1.58,1.8,2.4,3.56,2.4c1.71,0,3.03-0.89,3.52-2.45
			c0.16-0.5,0.23-1.36,0.23-2.18v-0.86c0-0.09-0.06-0.15-0.15-0.15h-3.3c-0.09,0-0.15,0.06-0.15,0.15v1.17
			c0,0.09,0.06,0.15,0.15,0.15h1.64c0.06,0,0.09,0.03,0.09,0.09c0,0.57-0.06,0.98-0.16,1.29c-0.26,0.81-1.01,1.25-1.89,1.25
			c-1.01,0-1.6-0.5-1.88-1.3c-0.12-0.37-0.18-0.88-0.18-2.29c0-1.42,0.06-1.92,0.18-2.29c0.28-0.81,0.86-1.3,1.88-1.3
			c0.97,0,1.57,0.44,2.01,1.23c0.03,0.06,0.1,0.1,0.19,0.07l1.23-0.54c0.07-0.04,0.09-0.13,0.06-0.21
			c-0.41-1.11-1.61-2.11-3.47-2.11c-1.76,0-3.05,0.82-3.56,2.4c-0.2,0.62-0.26,1.17-0.26,2.74C21.5,92.28,21.56,92.83,21.76,93.45"
			/>
	</g>
</g>
</svg>
