<svg version="1.1" xmlns="http://www.w3.org/2000/svg" xmlns:xlink="http://www.w3.org/1999/xlink" x="0px" y="0px"
	 viewBox="0 0 121 20.6" style="enable-background:new 0 0 121 20.6;" xml:space="preserve">
<style type="text/css">
	.st0{fill:#153878;}
</style>
<g id="Gruppe_10531" transform="translate(-423.471 -472.095)">
	<g id="Gruppe_10528" transform="translate(423.471 472.095)">
		<g id="Gruppe_10527" transform="translate(0 0)">
			<path id="Pfad_4832" class="st0" d="M15.4,20.4H0V0h109.8l2.2,3.9H5v4.3h8.2v4.3H5v3.8h10.3V20.4z"/>
			<path id="Pfad_4833" class="st0" d="M15.4,20.4H0V0h109.8l2.2,3.9H5v4.3h8.2v4.3H5v3.8h10.3V20.4z"/>
		</g>
	</g>
	<g id="Gruppe_10530" transform="translate(440.266 477.365)">
		<g id="Gruppe_10529" transform="translate(0 0)">
			<path id="Pfad_4834" class="st0" d="M12.6,15.3H6.2c-1.7,0.1-3.4-0.4-4.7-1.4C0.4,12.8-0.1,11.2,0,9.6V0h5v8.7
				C5,9.3,5.1,9.9,5.5,10.5C6,10.9,6.6,11,7.2,11h4.4c0.6,0.1,1.2-0.1,1.7-0.5c0.4-0.5,0.6-1.1,0.5-1.8V0h5v9.6
				c0.1,1.6-0.4,3.1-1.5,4.2C16,14.9,14.3,15.4,12.6,15.3z"/>
		</g>
	</g>
	<path id="Pfad_4835" class="st0" d="M479.5,485.4c0.4-0.8,0.6-1.6,0.5-2.5V482c0.1-1.2-0.2-2.4-1-3.3c-1-0.9-2.3-1.4-3.7-1.3h-13.7
		v15.1h5v-3.8h6.7c0.4-0.1,0.9,0.1,1.2,0.3c0.3,0.4,0.4,0.9,0.3,1.4v2h5v-2.8c0.1-0.9-0.2-1.9-0.8-2.6c-0.3-0.3-0.6-0.5-1-0.6
		C478.7,486.3,479.1,485.9,479.5,485.4z M475.1,483.3c0,0.3-0.1,0.7-0.3,0.9c-0.3,0.2-0.7,0.3-1.1,0.3h-7.1v-3h6.7
		c0.5,0,1,0,1.4,0.2c0.2,0.1,0.4,0.3,0.4,1L475.1,483.3z"/>
	<path id="Pfad_4836" class="st0" d="M500.8,478.3c-1.1-0.8-2.6-1.1-4.9-1.1h-7.1c-2.3,0-3.8,0.3-4.9,1.1c-1.2,0.9-1.8,2.3-1.8,4.5
		v4.3c0,2.1,0.6,3.6,1.8,4.5c1.1,0.8,2.6,1.1,4.9,1.1h7.1c2.3,0,3.8-0.3,4.9-1.1c1.2-0.9,1.8-2.3,1.8-4.5v-4.3
		C502.6,480.6,502,479.2,500.8,478.3z M497.5,485.7c0.1,0.7-0.1,1.4-0.4,2.1c-0.3,0.4-0.9,0.6-1.8,0.6h-5.7c-1,0-1.5-0.2-1.8-0.6
		c-0.4-0.6-0.5-1.4-0.4-2.1v-1.6c-0.1-0.7,0.1-1.4,0.5-2c0.5-0.5,1.3-0.8,2.1-0.7h5.2c0.8-0.1,1.5,0.1,2.1,0.7
		c0.4,0.6,0.5,1.3,0.5,2L497.5,485.7z"/>
	<path id="Pfad_4837" class="st0" d="M521.9,478.9c-0.9-1-2.4-1.5-4.4-1.5h-12.4v15.1h5v-3.7h8.6c1.4,0.1,2.7-0.5,3.5-1.6
		c0.6-1,1-2.1,0.9-3.3v-1.2C523.2,481.3,522.8,479.9,521.9,478.9z M517.9,483.4c0,0.3-0.1,0.6-0.3,0.9c-0.2,0.2-0.6,0.4-0.9,0.3
		h-6.6v-3.1h6.3c0.4,0,0.9,0.1,1.2,0.3c0.2,0.3,0.3,0.6,0.3,0.9L517.9,483.4z"/>
	<path id="Pfad_4838" class="st0" d="M536.2,477.4H530l-8.2,15.1h5.6l1.3-2.6h8.7l1.4,2.6h5.6L536.2,477.4z M530.7,486.2l2.3-4.6
		l2.4,4.6H530.7z"/>
</g>
</svg>
