<?xml version="1.0" encoding="UTF-8"?>
<svg xmlns="http://www.w3.org/2000/svg" version="1.1" viewBox="0 0 128 64">
  <defs>
    <style>
      .cls-1 {
        fill: #153878;
      }
    </style>
  </defs>
  <!-- Generator: Adobe Illustrator 28.6.0, SVG Export Plug-In . SVG Version: 1.2.0 Build 709)  -->
  <g>
    <g id="Ebene_1">
      <g id="Gruppe_10531">
        <g id="Gruppe_10528">
          <g id="Gruppe_10527">
            <path id="Pfad_4832" class="cls-1" d="M16.8,42.6H.6v-21.4h115.1l2.3,4.1H5.9v4.5h8.6v4.5H5.9v4h10.8v4.3h.1Z"/>
            <path id="Pfad_4833" class="cls-1" d="M16.8,42.6H.6v-21.4h115.1l2.3,4.1H5.9v4.5h8.6v4.5H5.9v4h10.8v4.3h.1Z"/>
          </g>
        </g>
        <g id="Gruppe_10530">
          <g id="Gruppe_10529">
            <path id="Pfad_4834" class="cls-1" d="M31.4,42.8h-6.7c-1.8.1-3.6-.4-4.9-1.5-1.2-1.2-1.7-2.8-1.6-4.5v-10.1h5.2v9.1c0,.6.1,1.3.5,1.9.5.4,1.2.5,1.8.5h4.6c.6.1,1.3-.1,1.8-.5.4-.5.6-1.2.5-1.9v-9.1h5.2v10.1c.1,1.7-.4,3.2-1.6,4.4-1.4,1.2-3.1,1.7-4.9,1.6Z"/>
          </g>
        </g>
        <path id="Pfad_4835" class="cls-1" d="M59.4,35.1c.4-.8.6-1.7.5-2.6v-.9c.1-1.3-.2-2.5-1-3.5-1-.9-2.4-1.5-3.9-1.4h-14.4v15.8h5.2v-4h7c.4-.1.9.1,1.3.3.3.4.4.9.3,1.5v2.1h5.2v-2.9c.1-.9-.2-2-.8-2.7-.3-.3-.6-.5-1-.6.7-.1,1.2-.5,1.6-1ZM54.7,32.9c0,.3-.1.7-.3.9-.3.2-.7.3-1.2.3h-7.4v-3.1h7c.5,0,1,0,1.5.2.2.1.4.3.4,1v.6Z"/>
        <path id="Pfad_4836" class="cls-1" d="M81.7,27.7c-1.2-.8-2.7-1.2-5.1-1.2h-7.4c-2.4,0-4,.3-5.1,1.2-1.3.9-1.9,2.4-1.9,4.7v4.5c0,2.2.6,3.8,1.9,4.7,1.2.8,2.7,1.2,5.1,1.2h7.4c2.4,0,4-.3,5.1-1.2,1.3-.9,1.9-2.4,1.9-4.7v-4.5c0-2.3-.6-3.8-1.9-4.7ZM78.2,35.5c.1.7-.1,1.5-.4,2.2-.3.4-.9.6-1.9.6h-6c-1,0-1.6-.2-1.9-.6-.4-.6-.5-1.5-.4-2.2v-1.7c-.1-.7.1-1.5.5-2.1.5-.5,1.4-.8,2.2-.7h5.4c.8-.1,1.6.1,2.2.7.4.6.5,1.4.5,2.1l-.3,1.7Z"/>
        <path id="Pfad_4837" class="cls-1" d="M103.8,28.3c-.9-1-2.5-1.6-4.6-1.6h-13v15.8h5.2v-3.9h9c1.5.1,2.8-.5,3.7-1.7.6-1,1-2.2.9-3.5v-1.3c.1-1.5-.3-2.9-1.3-4ZM99.6,33.1c0,.3-.1.6-.3.9-.2.2-.6.4-.9.3h-6.9v-3.2h6.6c.4,0,.9.1,1.3.3.2.3.3.6.3.9v.7Z"/>
        <path id="Pfad_4838" class="cls-1" d="M118.8,26.8h-6.5l-8.6,15.8h5.9l1.4-2.7h9.1l1.5,2.7h5.9l-8.6-15.8ZM113,36l2.4-4.8,2.5,4.8h-4.9Z"/>
      </g>
    </g>
  </g>
</svg>