<?xml version="1.0" encoding="UTF-8"?>
<svg xmlns="http://www.w3.org/2000/svg" xmlns:svg="http://www.w3.org/2000/svg" xmlns:sodipodi="http://sodipodi.sourceforge.net/DTD/sodipodi-0.dtd" xmlns:rdf="http://www.w3.org/1999/02/22-rdf-syntax-ns#" xmlns:inkscape="http://www.inkscape.org/namespaces/inkscape" xmlns:dc="http://purl.org/dc/elements/1.1/" xmlns:cc="http://creativecommons.org/ns#" version="1.1" viewBox="0 0 128 64">
  <defs>
    <style>
      .cls-1 {
        fill: #00008f;
      }

      .cls-2 {
        fill: #fff;
      }

      .cls-3 {
        fill: #ff1721;
      }
    </style>
  </defs>
  <!-- Generator: Adobe Illustrator 28.6.0, SVG Export Plug-In . SVG Version: 1.2.0 Build 709)  -->
  <g>
    <g id="svg8">
      <sodipodi:namedview id="base" bordercolor="#666666" borderopacity="1.0" fit-margin-bottom="0" fit-margin-left="0" fit-margin-right="0" fit-margin-top="0" inkscape:current-layer="layer1" inkscape:cx="131.46973" inkscape:cy="-389.58457" inkscape:document-units="mm" inkscape:pageopacity="0" inkscape:pageshadow="2" inkscape:window-height="1001" inkscape:window-maximized="1" inkscape:window-width="1920" inkscape:window-x="-9" inkscape:window-y="-9" inkscape:zoom="0.7" pagecolor="#00ffff" showgrid="false"/>
      <g id="layer1" inkscape:groupmode="layer" inkscape:label="Layer 1">
        <g id="g76">
          <rect id="base-2" class="cls-1" x="32.2" y=".2" width="63.5" height="63.5"/>
          <polygon id="switch" class="cls-3" points="68 31.6 71.6 31.6 95.8 .2 92.2 .2 68 31.6"/>
          <path id="axa" class="cls-2" d="M80.8,45.6c1.1,3.1,3.4,11.2,4.3,11.8h-6c0-.7-.1-1.4-.3-2.1-.3-.9-2.4-7.9-2.4-7.9h-9.5l-1.5,2.1s1.8,5.6,1.9,5.9c.2.5,1.1,2,1.1,2h-5.7s-.1-.9-.2-1.2c0-.3-.5-1.9-.5-1.9,0,0-1.3,1.4-1.7,2.1-.4.7-.5,1-.5,1h-4.5s-.1-.9-.2-1.2c0-.3-.6-2-.6-2,0,0-1.3,1.5-1.6,2.2-.4.7-.5,1-.5,1h-4.4s1.3-1.2,1.7-1.7c.7-.9,3.5-4.5,3.5-4.5l-1.1-3.8h-9.4s-5.4,7.1-5.6,7.3c-.2.2-1.8,2.5-1.8,2.7h-2.8v-1.8s0,0,.1-.1c0,0,4.1-5,7.8-9.9,3.3-4.3,6.4-8.4,6.7-8.8.7-1,1.6-3,1.6-3h4.9s.2,1.9.3,2.4c.1.4,3.1,10.2,3.2,10.3l1.6-2.1-2.8-8.7s-.7-1.6-.9-1.9h5.7c0,.5,0,1,.2,1.6.2.7,1.5,5.1,1.5,5.1,0,0,3.9-4.9,4.1-5.2.3-.4.4-.9.5-1.4h4.8s-.9.6-2.4,2.6c-.5.6-5.5,7-5.5,7,0,0,.4,1.5.7,2.2,0,.2,0,.4,0,.4s.1-.1.3-.4c1.3-1.6,7.2-9.4,7.5-10,.3-.5.7-1.1,1-1.8h4.6s.1,1.4.2,1.8l2.9,10.1ZM73.7,38.3c-.7,1.5-4.7,6.3-4.7,6.3h6.3s-1.2-3.8-1.4-4.6c-.1-.5-.2-1.1-.1-1.7,0,0,0-.2,0,0ZM49.3,38.3c-.7,1.5-4.7,6.3-4.7,6.3h6.3s-1.2-3.8-1.4-4.6c-.1-.5-.2-1.1-.1-1.7,0,0,0-.2,0,0ZM58.9,53.1l1.7-2.4c-.2-.2-1.1-3.2-1.1-3.2l-1.7,2.2,1.1,3.4Z" inkscape:connector-curvature="0"/>
        </g>
      </g>
    </g>
  </g>
</svg>