<svg version="1.1" id="Ebene_1" xmlns="http://www.w3.org/2000/svg" x="0" y="0" viewBox="0 0 453.5 255.1" xml:space="preserve" width="267" height="150"><style>.st0{fill:#0d57a6}.st1,.st2{fill:red}.st2{fill-rule:evenodd;clip-rule:evenodd}</style><path class="st0" d="M0 118.9V63.6h17.6c4.2 0 7.6.8 10.1 2.3 2.5 1.5 4.2 3.4 4.9 5.5.8 2.1 1.1 4 1.1 5.8 0 2-.4 3.9-1.1 5.7-.8 1.7-1.7 3-2.8 3.9-1.1.9-2.2 1.5-3.2 2 2.5.7 4.7 1.7 6.4 3 1.7 1.3 2.9 2.9 3.6 4.9.7 1.9 1 3.9 1 5.9 0 2.3-.4 4.4-1.2 6.4-.8 2-2 3.7-3.5 5.2-1.6 1.5-3.6 2.6-6 3.5-2.4.9-5.2 1.3-8.5 1.3H0zm7.8-32.5h6.8c2.8 0 5.1-.5 6.8-1.4 1.7-.9 2.9-2 3.4-3.3.5-1.3.8-2.6.8-3.8 0-2-.4-3.5-1.2-4.7-.8-1.1-2-1.9-3.7-2.4-1.6-.5-3.4-.7-5.4-.7H7.8v16.3zm0 26h8.5c4.4 0 7.6-.8 9.6-2.5s3.1-4.1 3.1-7.4c0-3.3-1.1-5.8-3.3-7.3-2.2-1.5-5.6-2.3-10.2-2.3H7.8v19.5zM53.9 119.7c-1.7 0-3.3-.2-4.8-.7-1.5-.4-2.8-1.1-4-2.1-1.1-1-2-2.2-2.7-3.8-.7-1.5-1-3.4-1-5.6 0-3.1.7-5.6 2.1-7.6 1.4-2 3.5-3.5 6.2-4.6 1.5-.6 3.2-1 5.1-1.3 1.9-.3 4-.5 6.4-.5h4.2v-2.2c0-2-.4-3.6-1.1-4.7-.7-1.1-1.9-1.9-3.4-2.3-1.5-.4-3.2-.6-4.9-.6-2.2 0-4.2.2-6 .7-1.8.4-3.6 1-5.3 1.6v-6.3c2.2-.6 3.8-.9 4.7-1.1 1-.2 2.2-.3 3.8-.5 1.5-.1 3-.2 4.3-.2 2.7 0 5 .3 6.9.8 2 .5 3.6 1.3 4.8 2.4 1.3 1.1 2.2 2.5 2.8 4.2.6 1.7.9 3.7.9 6V119h-7.3l-.2-3.4c-.8.8-1.8 1.5-3 2.1-1.2.6-2.6 1.1-4.2 1.5-1.4.3-2.9.5-4.3.5zm2.1-5.9c1.4 0 2.8-.2 4.1-.7 1.4-.4 2.5-.9 3.3-1.5.8-.6 1.4-1.1 1.9-1.6V99.1h-2.9c-2.3 0-4.2.1-5.9.4-1.7.3-3 .7-4.1 1.4-1.1.6-1.9 1.5-2.5 2.5-.5 1-.8 2.3-.8 3.8 0 1.3.3 2.5.8 3.6s1.4 1.8 2.4 2.3c1.3.4 2.5.7 3.7.7zM131.2 119.7c-1.7 0-3.3-.2-4.8-.7-1.5-.4-2.8-1.1-4-2.1-1.1-1-2-2.2-2.7-3.8-.7-1.5-1-3.4-1-5.6 0-3.1.7-5.6 2.1-7.6 1.4-2 3.5-3.5 6.2-4.6 1.5-.6 3.2-1 5.1-1.3 1.9-.3 4-.5 6.4-.5h4.2v-2.2c0-2-.4-3.6-1.1-4.7-.7-1.1-1.9-1.9-3.4-2.3-1.5-.4-3.2-.6-4.9-.6-2.2 0-4.2.2-6 .7-1.8.4-3.6 1-5.3 1.6v-6.3c2.2-.6 3.8-.9 4.7-1.1 1-.2 2.2-.3 3.8-.5 1.5-.1 3-.2 4.3-.2 2.7 0 5 .3 6.9.8 2 .5 3.6 1.3 4.8 2.4 1.3 1.1 2.2 2.5 2.8 4.2.6 1.7.9 3.7.9 6V119h-7.3l-.2-3.4c-.8.8-1.8 1.5-3 2.1-1.2.6-2.6 1.1-4.2 1.5-1.5.3-3 .5-4.3.5zm2.1-5.9c1.4 0 2.8-.2 4.1-.7 1.4-.4 2.5-.9 3.3-1.5.8-.6 1.4-1.1 1.9-1.6V99.1h-2.9c-2.3 0-4.2.1-5.9.4-1.7.3-3 .7-4.1 1.4-1.1.6-1.9 1.5-2.5 2.5-.5 1-.8 2.3-.8 3.8 0 1.3.3 2.5.8 3.6s1.4 1.8 2.4 2.3c1.2.4 2.4.7 3.7.7zM157 118.9V78.7h7.4l.2 7.6c.9-1.8 2-3.4 3.3-4.6 1.3-1.2 2.6-2.1 4-2.5 1.4-.5 2.7-.7 4-.7 1.3 0 2.3.1 3 .2V86c-.6-.2-1.5-.2-2.8-.2-1.9 0-3.6.4-5.1 1.1-1.4.7-2.6 1.6-3.6 2.7s-1.7 2.3-2.1 3.7c-.5 1.3-.7 2.6-.7 3.9V119H157zM189.5 118.9V84.4c-2.4-.3-4.1-.5-5.2-.6v-5.1h13V119h-7.8zM192.4 70.7c-.7 0-1.4-.1-2-.4-.6-.2-1.1-.6-1.6-1s-.8-.9-1.1-1.5c-.3-.6-.4-1.2-.4-1.9 0-1 .3-1.9.8-2.7.6-.8 1.2-1.4 2-1.7.8-.3 1.5-.5 2.3-.5 1 0 1.9.3 2.7.8.8.5 1.4 1.1 1.8 1.9.4.8.6 1.5.6 2.2 0 1-.3 1.9-.9 2.7-.6.8-1.3 1.4-2 1.7-.8.3-1.5.4-2.2.4zM217.1 119.7c-1.7 0-3.3-.2-4.8-.7-1.5-.4-2.8-1.1-4-2.1-1.1-1-2-2.2-2.7-3.8-.7-1.5-1-3.4-1-5.6 0-3.1.7-5.6 2.1-7.6 1.4-2 3.5-3.5 6.2-4.6 1.5-.6 3.2-1 5.1-1.3 1.9-.3 4-.5 6.4-.5h4.2v-2.2c0-2-.4-3.6-1.1-4.7-.7-1.1-1.9-1.9-3.4-2.3-1.5-.4-3.2-.6-4.9-.6-2.2 0-4.2.2-6 .7-1.8.4-3.6 1-5.3 1.6v-6.3c2.2-.6 3.8-.9 4.7-1.1 1-.2 2.2-.3 3.8-.5 1.5-.1 3-.2 4.3-.2 2.7 0 5 .3 6.9.8 2 .5 3.6 1.3 4.8 2.4 1.3 1.1 2.2 2.5 2.8 4.2.6 1.7.9 3.7.9 6V119h-7.3l-.2-3.4c-.8.8-1.8 1.5-3 2.1-1.2.6-2.6 1.1-4.2 1.5-1.4.3-2.9.5-4.3.5zm2.2-5.9c1.4 0 2.8-.2 4.1-.7 1.4-.4 2.5-.9 3.3-1.5.8-.6 1.4-1.1 1.9-1.6V99.1h-2.9c-2.3 0-4.2.1-5.9.4-1.7.3-3 .7-4.1 1.4-1.1.6-1.9 1.5-2.5 2.5-.5 1-.8 2.3-.8 3.8 0 1.3.3 2.5.8 3.6s1.4 1.8 2.4 2.3c1.2.4 2.4.7 3.7.7zM244.7 118.9V63.6h17.8c4.1 0 7.8.6 11 1.7 3.2 1.2 6 2.9 8.2 5.2 2.2 2.3 3.9 5.2 5.1 8.6 1.2 3.5 1.8 7.5 1.8 12.1s-.6 8.6-1.8 12.1c-1.2 3.5-2.9 6.3-5.1 8.6-2.2 2.3-5 4-8.2 5.2-3.2 1.2-6.9 1.7-11 1.7h-17.8zm11.3-9.1h6.5c3.3 0 6-.8 8.2-2.4 2.2-1.6 3.7-3.9 4.5-6.8.8-2.9 1.3-6 1.3-9.3 0-4.8-.7-8.7-2.2-11.5-1.5-2.9-3.3-4.8-5.4-5.7-2.2-.9-4.3-1.3-6.4-1.3H256v37zM298.2 118.9v-33c-3.1-.3-4.8-.5-5-.5v-7h16V119h-11zm4.5-47.1c-.9 0-1.8-.2-2.5-.5-.8-.3-1.5-.8-2.1-1.3-.6-.5-1.1-1.2-1.4-1.9-.4-.7-.5-1.5-.5-2.4 0-1.3.4-2.4 1.1-3.4.7-1 1.6-1.7 2.6-2.1 1-.4 2-.6 2.9-.6 1.2 0 2.4.3 3.6 1 1.1.6 1.9 1.5 2.4 2.4.5 1 .7 1.9.7 2.7 0 1.3-.4 2.4-1.2 3.4-.8 1-1.7 1.7-2.7 2.1-1 .4-2 .6-2.9.6zM317.3 118.9V78.4h10.3l.3 7.3c1.3-2.6 2.9-4.5 4.7-5.8 1.8-1.3 3.9-2 6.1-2 .8 0 1.5.1 2.2.2.7.1 1.1.2 1.4.3v10c-.4-.1-1-.2-1.7-.3-.8-.1-1.6-.1-2.5-.1-2.3 0-4.2.7-5.9 2-1.6 1.3-2.7 2.8-3.2 4.4-.5 1.6-.7 3-.7 4.2v20.3h-11zM364.4 119.9c-3.2 0-6-.5-8.5-1.5s-4.6-2.5-6.3-4.3c-1.7-1.9-3-4.1-3.9-6.7-.9-2.6-1.4-5.5-1.4-8.7 0-3.1.4-5.9 1.2-8.5.8-2.6 2-4.8 3.6-6.7 1.6-1.9 3.5-3.4 5.9-4.4 2.4-1.1 5.1-1.6 8.2-1.6 5.6 0 9.9 1.7 12.8 5.1 2.9 3.4 4.4 8.2 4.4 14.6 0 2.1-.1 3.8-.2 5h-24.4c.3 3.2 1.3 5.6 3 7.1s4.1 2.2 7.2 2.2c1.7 0 3.4-.1 5.3-.4 1.9-.3 3.5-.6 4.8-1l2.1 8.2c-2 .5-4.1.9-6.4 1.3-2.4.1-4.8.3-7.4.3zm-9-25.3h13.9v-1.2c0-2.9-.6-5-1.7-6.3-1.1-1.4-2.7-2-4.8-2-2.2 0-3.9.8-5.2 2.4-1.3 1.7-2 4-2.2 7.1zM385.7 118.9V60.4h11v33.1l12.7-15.2h13.1L407 95.9c2.2 2.4 4.7 5.6 7.6 9.5 2.9 3.9 6 8.4 9.1 13.5h-13.4c-2.1-3.4-6.7-9.8-13.6-19.1v19.1h-11zM442.6 119.7c-2.2 0-4.1-.3-5.6-.9-1.5-.6-2.8-1.5-3.8-2.6s-1.7-2.4-2.1-3.9c-.4-1.5-.7-3.2-.7-5.1V86.9h-5.9v-8.6h5.9v-8.6c1.5-.5 3.3-1.2 5.2-2 1.9-.8 3.9-1.7 5.8-2.7v13.4h10.2V87h-10.2v19c0 1.9.4 3.3 1.1 4 .7.8 1.8 1.1 3.2 1.1 1.1 0 2.2-.1 3.3-.2 1.1-.2 1.9-.3 2.6-.5l1.9 7.9c-1.8.5-3.6.8-5.4 1.1-1.7.2-3.6.3-5.5.3z"/><path class="st1" d="M128.2 54.1h-1.5l1-.2c-.7 0-2 0-3.2.1-1.4 0-1.9.2-2.2.5-.1-.1-.3-.2 0-.3-.4 0-.9.1-1.4.2-.5.1-.9.3-1.4.4-.9.3-1.7.7-2.4.7l.1-.2c-.3.1-.4.5-.9.5 0-.1.1-.2-.1-.1s-.7.6-1.1.7l.3-.3c-.4.2-.8.4-1.1.6-.1.1-.3.2-.5.4s-.2.4-.3.5c-.3.6-.5 1.2-.9 1.8-.3-.2-1.1.8-1.6 1.4-.6.8-.8 1.6-1.1 2.4-.3.8-.5 1.5-.8 2.4-.4.4-.9 1.3-1.3 2.2-.4.9-.8 2-1.3 2.7.2-.2.3.2.2.5-.2.4-.2 1.2-.5 1l.1-.1c-.5.2-.7 1-.9 1.6l.4.3c-1.3 1.4-1.4 4.4-2.3 5.1 0 .4-.2.9-.2 1.4l-.2-.1c-.5 1.1-.7 1.6-1.1 3l-.1-.3c-.3.8.4 1.2.2 1.9l-.5.1c-.5 1.4-1.2 2.6-1.3 4.1 0 0-.1-.1-.1-.3-.2.6-1.1 2.4-.5 2.3-.3-.1-.5 1.4-.6 2.2l-.4-.2c.1.7.2.8 0 1.7-.1.2-.3.1-.1-.1-.3.6.1.6-.3 1.4l-.1-.4c-.2.7-.1.7-.1 1.1 0 .2-.1.6-.3.8-.1.1-.2.3-.2.4-.1.1-.1.1-.2.1.1.1.2.5.1.7-.1-.1-.1-.2-.1-.3-.2.2-.2.5-.2.9 0 .3-.1.7-.2.6 0-.2 0-.3-.1-.3.1-.4.2-.8.2-.7-.2-.3-.2-.3-.4-1 0 .2.1.5.1.9s-.1.8-.1.8V99.3v.1c0-.2 0-.3-.1-.4 0-.6 0-.5-.1-.6-.1.5-.2.2-.2.9 0-.1 0 0 .1.1 0 .1.1.2.1.4-.1.3-.1.3-.2-.3-.1.3-.2.5-.3.5 0-1.1 0-1.8.2-1.9l-.1-.1v-.1l-.1-.2c-.1-.3-.3-.6-.4-.9-.3-.6-.6-1.1-1-1.4-.2-.3 0-.4 0-.6.1.2.2.4.3.5-.4-.6-.8-1.9-1.2-1.9-.2-.9.5.3 0-.7l.2.1c-.2-1.2-.8-2-1.3-2.8-.5-.8-1.1-1.7-1.4-3 0 .2.1.3 0 .3-.9-2.4-2.5-4.6-3.5-6.9-.3-.5-.7-.9-1.1-1.2-.8-.5-1-.3-1.5-.3l-.1-.3h-1c-1.2-.1-2-1.2-3.6-.9l.2.2c-.6-.1-1.8 0-1.7-.3-.1 0-.2.2-.4.1v-.1s-.4.1-.7.1c-.3.1-.7.1-.7.1-.5 0-.5-.2-.5-.3 0-.1-.1-.3-1-.1-.2.1-.4.1-.6.3l-.3.3c-.1.2-.2.3-.3.5-.1.2-.1.4 0 .6 0 .2.1.2.2.3.1.1.2.1.1 0 0-.1-.1-.2-.1-.3 0-.1 0-.3.1-.4.1-.2.3-.2.3-.2s-.1.1-.2.3c0 .2.1.3.1.3h.1v.1c1.1 1.8 2.2 3.6 3.2 5.3h-.1l.2.1c.1.2.3.4.4.7-.1 0-.1 0-.2-.1.1.6.4.4.4.9 0 .1 0 .1-.1 0l.4.4c-.1-.1-.2.2-.3-.1.3 1 1.1 1.3 1 1.8V88c.6.9.5.4.7.5l.3.6-.2.7h.3c.1.1.2.4 0 .4.4.4.1-.1.4.1.1.7 1 1.7.7 2 .3.1-.1-.7.3-.1-.3.4.5.7.5 1.4-.3-.1-.5-.7-.4 0 .6.2.5 1.2.8 1.6.3-.1.6 1 1.1 1.8-.1 0 .6 1.6.8 2.4h-.1c.4 0 .7.8 1 1.4-.2.1-.3 0-.5-.3l.2.5c.2.1.3.2.5.6H86c.3.7.9 1.3 1.2 2.3.2 0 .3-.5.5-.5.1.2.1.3.2.5-.1 0-.2 0-.3-.1.1.1.2.3.3.5l-.4-.3c.1.5.3.2.4.5-.2.1 0 .3-.2.3-.1-.1-.1-.3-.2-.4.1.4.2.9.2 1.1.1-.1.2-.1.4.2.3.7-.1.3 0 .8.2.1.3.6.5.6.1.2 0 .3-.1.4.3.3.7 1.8.8 1.2v-.1.1c.7 1.2.9 2.7 1.4 3.9h-.1c.4.7.7 1.6 1.1 2.1.1.2 0 .6-.1.5.3.6.4.6.6 1.5-.4-.5-.1.2-.3-.5.2.8.1 1 .7 1.7-.3-.2-.1.7.2 1l-.1-.6c.2.4.3.7.5 1.1l-.4-.1c.1.4.3.8.5 1.2.1.2.3.4.5.5.1.2.3.3.6.4.4.3.9.4 1.3.5H97c.2-.2 0-.1-.4-.1-.3 0-.6 0-.4-.1.9-.1 1.9-.3 2.1-.5 1-.6.5-1 1.4-1.8-.2 0-.5-.1 0-.8.5-.6 1-.5.7 0-.1.2-.2.2-.2.2-.1.2-.3.5 0 .3v-.1c.3-.2 1-1.1 1-.8.3-.5 0-.3-.3 0 .7-.7.9-1.2 1.5-2.2-.1.1-.3.2-.2.1.8-1.3.1-.7.5-1.6.4-.5.3.3.5-.6.3-.5.3 0 .3.2.2-.9.7-1.5.9-2l-.1.5c0-.3.1-.5.2-.7l-.3.2c.1-.2.2-.5.3-.4 0-.3-.4.1-.4-.5.2-.3.3-1.1.6-1.1-.5 1.1.3 0 0 .9 0-.2.1-.4.2-.7v.1c.6-1-.1-.6.2-1.7.1.2.4-.2.4-.3-.2.4-.3.1-.3-.3.4-.7.2-.8.3-1.2l-.2.4c-.1-.2 0-.5.1-1 .1 0-.1.5 0 .3-.1-.6.7-1.1.8-2 .2-.3.3.1.5-.2.1-.9.5-.8.7-1.8-.3.2-.3.2-.3-.5l-.3 1.5v-1c-.2.4-.2 1-.3 1.2 0-.5 0-.4-.2-.3.5-.5.2-1.3.7-1.9l.5.2c.6-1 .4-2 1-3.3l-.2.4c-.1-.3.3-.9.3-1.3.2.1.3-.2.5-.3-.1 0 .4-1 0-1.2l.4-.5c.5-1.1-.1-1.4.4-2.5.1.4.4-.1.3.7.1-.4.3-.7.1-.7.2-.2.1-1.1.4-1.3 0-.2-.2-.3 0-.7h.1c-.1 0 .1-.7-.2-.4.9-.9 1-3 1.9-3.8.2-.8.5-1.7.8-2.4 0 .1.1 0 0 .2.5-.9-.3-.8.3-1.8.5-.4-.1.6.2.3.6.1.4-1.3 1-1.9v.2c.4-.5.3-1.4.7-2.3 0 0 0 .1.1 0 0-.7.3-2 .6-2.9.1.4 0 .4.2.4.1-.4-.4 0-.1-.8.2-.2.6-.7.8-.7l-.3.7c.5-.2.4-.9.6-1.3l.1.1c.4-1.1.1-1.3.6-2.5l-.2.1c0-.8.4-.5.5-1.2h.4c.1-.5.3-1.6.6-2.4.1.6-.2 1.5-.3 2.1.2-.4.6-1.5.6-1.8 0 .2-.1.4-.2.6 0-.6.1-1.4.6-2.2.6.5 1.2-2.1 2-2.4.5-1.6 1.6-2.8 2.5-4.5-.8.3.3-.5-.3-.7.2-.4.3-.5.3-.6l-.1.1.1-.1s.3-.2.5-.5l.4-.4c.1-.2.2-.3.2-.3.4-.4-.3.7-.1.6.4-.6.6-.8.7-.9.1-.1.2-.1.7-.6-.4.2 0-.5.6-1.4l-1.1 1.3c.4-.9.8-1.3 1.3-1.9.1-.1.2-.3.4-.4l.2-.2c0-.4-.2-.3-.2-.4zM96.7 98.8v-.2.2zM79.2 86v-.1c.1.1.1.2.2.3l-.2-.2z"/><g><path class="st1" d="M105.7 152.2c0 4.1-3.3 7.5-7.5 7.5-4.1 0-7.5-3.3-7.5-7.5 0-4.1 3.3-7.5 7.5-7.5 4.1.1 7.5 3.4 7.5 7.5zm14.9 26.9H86.3v-4.5h34.3v-3c0-4.1-3.3-7.5-7.5-7.5H83.3c-4.1 0-7.5 3.3-7.5 7.5V188h34.3v4.5H75.9v3c0 4.1 3.3 7.5 7.5 7.5h29.8c4.1 0 7.5-3.3 7.5-7.5v-16.4h-.1zM158.3 179.3v-3.2H143v26.8h3.9v-12.8h9.5v-3.2h-9.5v-7.6h11.4z"/><path class="st2" d="M166.7 177.2c0-1.3-1.1-2.4-2.4-2.4-1.4 0-2.5 1-2.5 2.4 0 1.3 1.1 2.3 2.5 2.3 1.3 0 2.4-1.1 2.4-2.3zm-.1 25.7v-19.6h-6.3v2.5c.7 0 1.9.2 2.6.3v16.8h3.7z"/><path class="st1" d="M189.3 202.9v-13.6c0-4-2.3-6.4-6.3-6.4-2.9 0-5 1.3-6.1 3.1l-.1-2.7h-3.6v19.6h3.8v-11.4c0-3 2.2-5.4 4.9-5.4 2.5 0 3.8 1.3 3.8 4.3v12.5h3.6z"/><path class="st2" d="M209.5 202.9v-13.5c0-4.6-2.3-6.5-7.5-6.5-2.6 0-4.3.3-6.2.9v3.1c1.6-.6 3.4-1.1 5.5-1.1 3.4 0 4.6 1.2 4.6 3.7v1h-2c-2.3 0-4.1.3-5.6.9-2.6 1-4 3-4 5.9 0 4.3 2.7 5.9 6 5.9 2.7 0 4.8-1.2 5.6-2l.1 1.7h3.5zm-3.7-4.3c-.9 1-2.6 1.8-4.5 1.8-2.5 0-3.3-1.5-3.3-3.2 0-2.9 2.1-3.9 6.5-3.9h1.4v5.3h-.1z"/><path class="st1" d="M231.9 202.9v-13.6c0-4-2.3-6.4-6.3-6.4-2.9 0-5 1.3-6.1 3.1l-.1-2.7h-3.6v19.6h3.7v-11.4c0-3 2.2-5.4 4.9-5.4 2.5 0 3.7 1.3 3.7 4.3v12.5h3.8zM251.8 202.9V200h-11.2c1.1-1.7 3.1-4.4 5.2-7 2.3-2.9 4.8-5.7 5.6-6.8v-2.9h-14.7v2.9h10.2c-.8 1-2.7 3.2-4.8 5.9-2.5 3.2-4.8 6.4-5.7 7.8v2.9h15.4v.1z"/><path class="st2" d="M271.9 203v-19.6h-3.6l-.1 1.7c-1.1-1.2-2.7-2-5.4-2-4.4 0-8 3.7-8 10.2 0 7 3.2 9.9 7.7 9.9 2.6 0 4.3-.9 5.6-2.9v3c0 3.4-1.8 5-5.7 5-2 0-3.6-.3-4.7-.6l-.6 2.9c1.2.3 3.1.7 6.1.7 2.8 0 5.1-.7 6.5-2.1 1.5-1.6 2.2-3.5 2.2-6.2zm-3.7-9.1c0 3.7-1.8 6.1-4.6 6.1-3.7 0-4.6-3.2-4.6-6.9 0-4.4 2-7 5-7 2.2 0 3.4 1 4.3 1.9v5.9h-.1z"/><path class="st1" d="M288.9 186.9v-3.6c-.2 0-.7-.1-1.5-.1-2.5 0-4.4 1.6-5.5 3.8l-.1-3.7h-3.6v19.6h3.7v-10.6c0-2.4 1.8-5.5 5.6-5.5.6 0 1.2.1 1.4.1zM308.6 202.9v-19.6h-3.8v11.4c0 2.9-2.2 5.4-4.9 5.4-2.5 0-3.7-1.2-3.7-4.1v-12.7h-3.8v13.5c0 4.3 2.3 6.5 6.3 6.5 2.9 0 5-1.2 6.2-3.1v2.7h3.7z"/><path class="st2" d="M332.1 192.9c0-6.4-2.8-9.9-7.6-9.9-3.2 0-5 1.7-5.8 3.2l-.1-2.9H315v27.4h3.7v-9c1.2 1 2.7 1.6 4.9 1.6 5.5 0 8.5-3.8 8.5-10.4zm-4 0c0 1.4-.2 2.8-.5 3.9-.7 2-2 3.4-4.6 3.4-1.7 0-3.1-.7-4.2-1.8v-5c0-4.3 1.7-7.3 4.8-7.3 3.3 0 4.5 2.9 4.5 6.8zM354.7 192.9c0-6.4-2.8-9.9-7.6-9.9-3.2 0-5 1.7-5.8 3.2l-.1-2.9h-3.6v27.4h3.7v-9c1.2 1 2.7 1.6 4.9 1.6 5.5 0 8.5-3.8 8.5-10.4zm-4.1 0c0 1.4-.2 2.8-.5 3.9-.7 2-2 3.4-4.6 3.4-1.7 0-3.1-.7-4.2-1.8v-5c0-4.3 1.7-7.3 4.8-7.3 3.3 0 4.5 2.9 4.5 6.8zM375.8 192c0-5.9-2.7-9.1-7.9-9.1-5.6 0-8.7 4.2-8.7 10.3 0 6.2 3.4 10.2 9.4 10.2 2.5 0 4.3-.2 6-.7l-.7-2.9c-1.1.3-3 .6-4.7.6-3.7 0-5.6-2.2-5.9-6.1h12.5c-.1-.7 0-1.5 0-2.3zm-4-.4h-8.7c.2-3.7 1.7-6 4.7-6 2.7 0 4 1.9 4 5.1v.9z"/></g></svg>
