<?xml version="1.0" encoding="UTF-8"?>
<svg xmlns="http://www.w3.org/2000/svg" version="1.1" viewBox="0 0 128 64">
  <defs>
    <style>
      .cls-1 {
        fill-rule: evenodd;
      }

      .cls-1, .cls-2 {
        fill: red;
      }

      .cls-3 {
        fill: #0d57a6;
      }
    </style>
  </defs>
  <!-- Generator: Adobe Illustrator 28.6.0, SVG Export Plug-In . SVG Version: 1.2.0 Build 709)  -->
  <g>
    <g id="Ebene_1">
      <g>
        <path class="cls-3" d="M1.6,28.2v-15.2h4.8c1.2,0,2.1.2,2.8.6s1.2.9,1.3,1.5c.2.6.3,1.1.3,1.6s-.1,1.1-.3,1.6c-.2.5-.5.8-.8,1.1-.3.2-.6.4-.9.6.7.2,1.3.5,1.8.8s.8.8,1,1.3c.2.5.3,1.1.3,1.6s-.1,1.2-.3,1.8-.6,1-1,1.4c-.4.4-1,.7-1.7,1s-1.4.4-2.3.4H1.6ZM3.7,19.3h1.9c.8,0,1.4-.1,1.9-.4s.8-.6.9-.9.2-.7.2-1c0-.6-.1-1-.3-1.3-.2-.3-.6-.5-1-.7-.4-.1-.9-.2-1.5-.2h-2.1v4.5ZM3.7,26.4h2.3c1.2,0,2.1-.2,2.6-.7s.9-1.1.9-2-.3-1.6-.9-2c-.6-.4-1.5-.6-2.8-.6h-2.1v5.4ZM16.4,28.4c-.5,0-.9,0-1.3-.2-.4-.1-.8-.3-1.1-.6-.3-.3-.6-.6-.7-1-.2-.4-.3-.9-.3-1.5s.2-1.5.6-2.1c.4-.6,1-1,1.7-1.3.4-.2.9-.3,1.4-.4.5,0,1.1-.1,1.8-.1h1.2v-.6c0-.6-.1-1-.3-1.3-.2-.3-.5-.5-.9-.6s-.9-.2-1.3-.2-1.2,0-1.7.2c-.5.1-1,.3-1.5.4v-1.7c.6-.2,1-.2,1.3-.3.3,0,.6,0,1-.1.4,0,.8,0,1.2,0,.7,0,1.4,0,1.9.2.6.1,1,.4,1.3.7.4.3.6.7.8,1.2.2.5.2,1,.2,1.7v7.6h-2v-.9c-.3.2-.6.4-.9.6s-.7.3-1.2.4c-.4,0-.8.1-1.2.1ZM17,26.8c.4,0,.8,0,1.1-.2.4-.1.7-.2.9-.4s.4-.3.5-.4v-3h-.8c-.6,0-1.2,0-1.6.1s-.8.2-1.1.4c-.3.2-.5.4-.7.7-.1.3-.2.6-.2,1s0,.7.2,1,.4.5.7.6c.4.1.7.2,1,.2ZM37.7,28.4c-.5,0-.9,0-1.3-.2-.4-.1-.8-.3-1.1-.6-.3-.3-.6-.6-.7-1-.2-.4-.3-.9-.3-1.5s.2-1.5.6-2.1,1-1,1.7-1.3c.4-.2.9-.3,1.4-.4s1.1-.1,1.8-.1h1.2v-.6c0-.6-.1-1-.3-1.3-.2-.3-.5-.5-.9-.6s-.9-.2-1.3-.2-1.2,0-1.7.2c-.5.1-1,.3-1.5.4v-1.7c.6-.2,1-.2,1.3-.3.3,0,.6,0,1-.1.4,0,.8,0,1.2,0,.7,0,1.4,0,1.9.2.6.1,1,.4,1.3.7.4.3.6.7.8,1.2s.2,1,.2,1.7v7.6h-2v-.9c-.3.2-.6.4-.9.6s-.7.3-1.2.4c-.4,0-.8.1-1.2.1ZM38.3,26.8c.4,0,.8,0,1.1-.2.4-.1.7-.2.9-.4s.4-.3.5-.4v-3h-.8c-.6,0-1.2,0-1.6.1s-.8.2-1.1.4c-.3.2-.5.4-.7.7-.1.3-.2.6-.2,1s0,.7.2,1,.4.5.7.6c.3.1.7.2,1,.2ZM44.8,28.2v-11.1h2v2.1c.3-.5.6-.9,1-1.3s.7-.6,1.1-.7c.4-.1.7-.2,1.1-.2s.6,0,.8,0v2c-.2,0-.4,0-.8,0-.5,0-1,.1-1.4.3-.4.2-.7.4-1,.7s-.5.6-.6,1c-.1.4-.2.7-.2,1.1v6h-2.1ZM53.7,28.2v-9.5c-.7,0-1.1-.1-1.4-.2v-1.4h3.6v11.1h-2.1ZM54.5,15c-.2,0-.4,0-.6-.1-.2,0-.3-.2-.4-.3s-.2-.2-.3-.4-.1-.3-.1-.5c0-.3,0-.5.2-.7.2-.2.3-.4.6-.5s.4-.1.6-.1.5,0,.7.2.4.3.5.5c.1.2.2.4.2.6,0,.3,0,.5-.2.7-.2.2-.4.4-.6.5-.2,0-.4.1-.6.1ZM61.3,28.4c-.5,0-.9,0-1.3-.2-.4-.1-.8-.3-1.1-.6-.3-.3-.6-.6-.7-1-.2-.4-.3-.9-.3-1.5s.2-1.5.6-2.1c.4-.6,1-1,1.7-1.3.4-.2.9-.3,1.4-.4.5,0,1.1-.1,1.8-.1h1.2v-.6c0-.6-.1-1-.3-1.3-.2-.3-.5-.5-.9-.6s-.9-.2-1.3-.2-1.2,0-1.7.2c-.5.1-1,.3-1.5.4v-1.7c.6-.2,1-.2,1.3-.3.3,0,.6,0,1-.1.4,0,.8,0,1.2,0,.7,0,1.4,0,1.9.2.6.1,1,.4,1.3.7.4.3.6.7.8,1.2s.2,1,.2,1.7v7.6h-2v-.9c-.3.2-.6.4-.9.6s-.7.3-1.2.4c-.4,0-.8.1-1.2.1ZM61.9,26.8c.4,0,.8,0,1.1-.2.4-.1.7-.2.9-.4s.4-.3.5-.4v-3h-.8c-.6,0-1.2,0-1.6.1s-.8.2-1.1.4c-.3.2-.5.4-.7.7-.1.3-.2.6-.2,1s0,.7.2,1,.4.5.7.6c.3.1.7.2,1,.2ZM68.9,28.2v-15.2h4.9c1.1,0,2.1.2,3,.5.9.3,1.7.8,2.3,1.4.6.6,1.1,1.4,1.4,2.4.3,1,.5,2.1.5,3.3s-.2,2.4-.5,3.3c-.3,1-.8,1.7-1.4,2.4-.6.6-1.4,1.1-2.3,1.4s-1.9.5-3,.5h-4.9ZM72.1,25.7h1.8c.9,0,1.7-.2,2.3-.7s1-1.1,1.2-1.9.4-1.7.4-2.6c0-1.3-.2-2.4-.6-3.2-.4-.8-.9-1.3-1.5-1.6-.6-.2-1.2-.4-1.8-.4h-1.8v10.2ZM83.7,28.2v-9.1c-.9,0-1.3-.1-1.4-.1v-1.9h4.4v11.2h-3ZM84.9,15.3c-.2,0-.5,0-.7-.1-.2,0-.4-.2-.6-.4s-.3-.3-.4-.5c-.1-.2-.1-.4-.1-.7,0-.4.1-.7.3-.9s.4-.5.7-.6c.3-.1.6-.2.8-.2s.7,0,1,.3c.3.2.5.4.7.7.1.3.2.5.2.7,0,.4-.1.7-.3.9-.2.3-.5.5-.7.6s-.6.2-.8.2ZM88.9,28.2v-11.1h2.8v2c.4-.7.9-1.2,1.4-1.6.5-.4,1.1-.6,1.7-.6s.4,0,.6,0,.3,0,.4,0v2.8c-.1,0-.3,0-.5,0-.2,0-.4,0-.7,0-.6,0-1.2.2-1.6.6-.4.4-.7.8-.9,1.2s-.2.8-.2,1.2v5.6h-3,0ZM101.9,28.5c-.9,0-1.7-.1-2.3-.4s-1.3-.7-1.7-1.2c-.5-.5-.8-1.1-1.1-1.8s-.4-1.5-.4-2.4.1-1.6.3-2.3c.2-.7.6-1.3,1-1.8.4-.5,1-.9,1.6-1.2.7-.3,1.4-.4,2.3-.4,1.5,0,2.7.5,3.5,1.4s1.2,2.3,1.2,4,0,1,0,1.4h-6.7c0,.9.4,1.5.8,2s1.1.6,2,.6.9,0,1.5-.1,1-.2,1.3-.3l.6,2.3c-.6.1-1.1.2-1.8.4-.7,0-1.3,0-2,0h0ZM99.4,21.5h3.8v-.3c0-.8-.2-1.4-.5-1.7-.3-.4-.7-.6-1.3-.6s-1.1.2-1.4.7c-.4.5-.6,1.1-.6,2h0ZM107.8,28.2V12.1h3v9.1l3.5-4.2h3.6l-4.3,4.8c.6.7,1.3,1.5,2.1,2.6s1.7,2.3,2.5,3.7h-3.7c-.6-.9-1.8-2.7-3.7-5.3v5.3h-3ZM123.4,28.4c-.6,0-1.1,0-1.5-.2s-.8-.4-1-.7-.5-.7-.6-1.1-.2-.9-.2-1.4v-5.6h-1.6v-2.4h1.6v-2.4c.4-.1.9-.3,1.4-.6.5-.2,1.1-.5,1.6-.7v3.7h2.8v2.4h-2.8v5.2c0,.5.1.9.3,1.1.2.2.5.3.9.3s.6,0,.9,0c.3,0,.5,0,.7-.1l.5,2.2c-.5.1-1,.2-1.5.3-.5,0-1,0-1.5,0Z"/>
        <path class="cls-2" d="M36.9,10.4h-.4.3c-.2,0-.6,0-.9,0-.4,0-.5,0-.6.1,0,0,0,0,0,0-.1,0-.2,0-.4,0-.1,0-.2,0-.4.1-.2,0-.5.2-.7.2h0c0,0-.1,0-.2,0,0,0,0,0,0,0s-.2.2-.3.2h0c-.1,0-.2,0-.3,0,0,0,0,0-.1.1s0,.1,0,.1c0,.2-.1.3-.2.5,0,0-.3.2-.4.4-.2.2-.2.4-.3.7,0,.2-.1.4-.2.7-.1.1-.2.4-.4.6-.1.2-.2.6-.4.7,0,0,0,0,0,.1,0,.1,0,.3-.1.3h0c-.1,0-.2.2-.2.4h.1c-.4.5-.4,1.3-.6,1.5,0,.1,0,.2,0,.4h0c-.1.3-.2.4-.3.8h0c0,.1.1.2,0,.4h-.1c-.1.4-.3.7-.4,1.2,0,0,0,0,0,0,0,.2-.3.7-.1.6,0,0-.1.4-.2.6h-.1c0,.1,0,.2,0,.4,0,0,0,0,0,0,0,.2,0,.2,0,.4h0c0,0,0,0,0,.2s0,.2,0,.2,0,0,0,.1t0,0s0,.1,0,.2c0,0,0,0,0,0,0,0,0,.1,0,.2s0,.2,0,.2c0,0,0,0,0,0,0-.1,0-.2,0-.2q0,0-.1-.3c0,0,0,.1,0,.2s0,.2,0,.2h0c0,0,0,0,0,0,0,0,0,0,0-.1,0-.2,0-.1,0-.2,0,.1,0,0,0,.2,0,0,0,0,0,0,0,0,0,0,0,.1q0,0,0,0c0,0,0,.1,0,.1,0-.3,0-.5,0-.5h0c0,0,0-.1,0-.1,0,0,0-.2-.1-.2,0-.2-.2-.3-.3-.4,0,0,0-.1,0-.2,0,0,0,.1,0,.1-.1-.2-.2-.5-.3-.5,0-.2.1,0,0-.2h0c0-.3-.2-.5-.4-.7s-.3-.5-.4-.8c0,0,0,0,0,0-.2-.7-.7-1.3-1-1.9,0-.1-.2-.2-.3-.3-.2-.1-.3,0-.4,0h0c0,0-.3,0-.3,0-.3,0-.6-.3-1-.2h0c-.2,0-.5,0-.5,0,0,0,0,0-.1,0h0s-.1,0-.2,0c0,0-.2,0-.2,0-.1,0-.1,0-.1,0s0,0-.3,0c0,0-.1,0-.2,0h0c0,.1,0,.2,0,.2,0,0,0,.1,0,.2,0,0,0,0,0,0,0,0,0,0,0,0,0,0,0,0,0,0s0,0,0-.1c0,0,0,0,0,0,0,0,0,0,0,0,0,0,0,0,0,0h0c.3.5.6,1,.9,1.5h0,0c0,0,0,.1.1.2t0,0c0,.2.1.1.1.2s0,0,0,0h.1c0,0,0,.2,0,0,0,.3.3.4.3.5h0c.2.2.1,0,.2,0v.2c0,0,0,.2,0,.2h0s0,.1,0,.1c.1.1,0,0,.1,0,0,.2.3.5.2.6,0,0,0-.2,0,0,0,.1.1.2.1.4,0,0-.1-.2-.1,0,.2,0,.1.3.2.4,0,0,.2.3.3.5,0,0,.2.4.2.7h0c.1,0,.2.2.3.4,0,0,0,0-.1,0h0c0,.2,0,.2.1.3h0c0,.2.2.4.3.6,0,0,0-.1.1-.1,0,0,0,0,0,.1,0,0,0,0,0,0,0,0,0,0,0,.1h-.1c0,0,0,0,.1,0,0,0,0,0,0,0,0,0,0,0,0-.1,0,.1,0,.2,0,.3,0,0,0,0,.1,0,0,.2,0,0,0,.2,0,0,0,.2.1.2,0,0,0,0,0,.1,0,0,.2.5.2.3h0s0,0,0,0c.2.3.2.7.4,1.1h0c.1.2.2.4.3.6,0,0,0,.2,0,.1,0,.2.1.2.2.4-.1-.1,0,0,0-.1,0,.2,0,.3.2.5,0,0,0,.2,0,.3v-.2c0,.1,0,.2.1.3h-.1c0,0,0,.2.1.3s0,.1.1.1c0,0,0,0,.2.1.1,0,.2.1.4.1h.4c0,0,0,0-.1,0s-.2,0-.1,0c.2,0,.5,0,.6-.1.3-.2.1-.3.4-.5,0,0-.1,0,0-.2.1-.2.3-.1.2,0,0,0,0,0,0,0,0,0,0,.1,0,0h0c0,0,.3-.3.3-.2,0-.1,0,0,0,0,.2-.2.2-.3.4-.6,0,0,0,0,0,0,.2-.4,0-.2.1-.4.1-.1,0,0,.1-.2,0-.1,0,0,0,0,0-.2.2-.4.2-.6h0c0,0,0,0,0,0h0s0,0,0,0c0,0-.1,0-.1-.1,0,0,0-.3.2-.3-.1.3,0,0,0,.2,0,0,0-.1,0-.2h0c.2-.2,0-.1,0-.4,0,0,.1,0,.1,0,0,.1,0,0,0,0,.1-.2,0-.2,0-.3h0c0,0,0,0,0-.2,0,0,0,.1,0,0,0-.2.2-.3.2-.6,0,0,0,0,.1,0,0-.2.1-.2.2-.5q0,0,0-.1v.4c0,0,0-.3,0-.3,0,.1,0,.3,0,.3,0-.1,0-.1,0,0,.1-.1,0-.4.2-.5h.1c.2-.2.1-.5.3-.9h0s0-.1,0-.2c0,0,0,0,.1,0,0,0,.1-.3,0-.3h.1c.1-.4,0-.5.1-.8,0,.1.1,0,0,.2,0-.1,0-.2,0-.2,0,0,0-.3.1-.4,0,0,0,0,0-.2h0s0-.2,0-.1c.2-.2.3-.8.5-1,0-.2.1-.5.2-.7,0,0,0,0,0,0,.1-.2,0-.2,0-.5.1-.1,0,.2,0,0,.2,0,.1-.4.3-.5h0c.1,0,0-.3.2-.6,0,0,0,0,0,0,0-.2,0-.6.2-.8,0,.1,0,.1,0,.1,0-.1-.1,0,0-.2,0,0,.2-.2.2-.2v.2c0,0,0-.2,0-.4h0c.1-.3,0-.3.2-.7h0c0-.2.1-.1.1-.3h.1c0-.1,0-.4.2-.7,0,.2,0,.4,0,.6,0-.1.2-.4.2-.5,0,0,0,.1,0,.2,0-.2,0-.4.2-.6.2.1.3-.6.6-.7.1-.4.4-.8.7-1.2-.2,0,0-.1,0-.2,0-.1,0-.1,0-.2h0s0,0,0,0c0,0,0,0,.1-.1h.1c0-.2,0-.2,0-.2.1-.1,0,.2,0,.2.1-.2.2-.2.2-.2,0,0,0,0,.2-.2-.1,0,0-.1.2-.4l-.3.4c.1-.2.2-.4.4-.5,0,0,0,0,.1-.1h0c0-.2,0-.1,0-.2h0ZM28.2,22.7h0c0,0,0,0,0,0ZM23.4,19.2h0s0,0,0,0c0,0,0,0,0,0Z"/>
        <g>
          <path class="cls-2" d="M30.7,37.4c0,1.1-.9,2.1-2.1,2.1s-2.1-.9-2.1-2.1.9-2.1,2.1-2.1c1.1,0,2.1.9,2.1,2.1ZM34.8,44.8h-9.4v-1.2h9.4v-.8c0-1.1-.9-2.1-2.1-2.1h-8.2c-1.1,0-2.1.9-2.1,2.1v4.5h9.4v1.2h-9.4v.8c0,1.1.9,2.1,2.1,2.1h8.2c1.1,0,2.1-.9,2.1-2.1v-4.5s0,0,0,0ZM45.2,44.9v-.9h-4.2v7.4h1.1v-3.5h2.6v-.9h-2.6v-2.1h3.1Z"/>
          <path class="cls-1" d="M47.5,44.3c0-.4-.3-.7-.7-.7s-.7.3-.7.7.3.6.7.6.7-.3.7-.6ZM47.4,51.4v-5.4h-1.7v.7c.2,0,.5,0,.7,0v4.6h1Z"/>
          <path class="cls-2" d="M53.7,51.4v-3.7c0-1.1-.6-1.8-1.7-1.8s-1.4.4-1.7.9v-.7h-1v5.4h1v-3.1c0-.8.6-1.5,1.3-1.5s1,.4,1,1.2v3.4h1Z"/>
          <path class="cls-1" d="M59.3,51.4v-3.7c0-1.3-.6-1.8-2.1-1.8s-1.2,0-1.7.2v.9c.4-.2.9-.3,1.5-.3.9,0,1.3.3,1.3,1v.3h-.6c-.6,0-1.1,0-1.5.2-.7.3-1.1.8-1.1,1.6,0,1.2.7,1.6,1.7,1.6s1.3-.3,1.5-.6v.5h1,0ZM58.2,50.2c-.2.3-.7.5-1.2.5s-.9-.4-.9-.9c0-.8.6-1.1,1.8-1.1h.4v1.5s0,0,0,0Z"/>
          <path class="cls-2" d="M65.4,51.4v-3.7c0-1.1-.6-1.8-1.7-1.8s-1.4.4-1.7.9v-.7h-1v5.4h1v-3.1c0-.8.6-1.5,1.3-1.5s1,.4,1,1.2v3.4h1ZM70.9,51.4v-.8h-3.1c.3-.5.9-1.2,1.4-1.9.6-.8,1.3-1.6,1.5-1.9v-.8h-4v.8h2.8c-.2.3-.7.9-1.3,1.6-.7.9-1.3,1.8-1.6,2.1v.8h4.2Z"/>
          <path class="cls-1" d="M76.4,51.4v-5.4h-1v.5c-.3-.3-.8-.6-1.5-.6-1.2,0-2.2,1-2.2,2.8s.9,2.7,2.1,2.7,1.2-.2,1.5-.8v.8c0,.9-.5,1.4-1.6,1.4s-1,0-1.3-.2l-.2.8c.3,0,.9.2,1.7.2s1.4-.2,1.8-.6c.4-.4.6-1,.6-1.7h0ZM75.4,48.9c0,1-.5,1.7-1.3,1.7s-1.3-.9-1.3-1.9.6-1.9,1.4-1.9.9.3,1.2.5v1.6h0,0Z"/>
          <path class="cls-2" d="M81.1,46.9v-1c0,0-.2,0-.4,0-.7,0-1.2.4-1.5,1v-1h-1v5.4h1v-2.9c0-.7.5-1.5,1.5-1.5s.3,0,.4,0ZM86.5,51.4v-5.4h-1v3.1c0,.8-.6,1.5-1.3,1.5s-1-.3-1-1.1v-3.5h-1v3.7c0,1.2.6,1.8,1.7,1.8s1.4-.3,1.7-.9v.7h1,0Z"/>
          <path class="cls-1" d="M93,48.6c0-1.8-.8-2.7-2.1-2.7s-1.4.5-1.6.9v-.8h-1v7.5h1v-2.5c.3.3.7.4,1.3.4,1.5,0,2.3-1,2.3-2.9ZM91.9,48.6c0,.4,0,.8-.1,1.1-.2.6-.6.9-1.3.9s-.9-.2-1.2-.5v-1.4c0-1.2.5-2,1.3-2s1.2.8,1.2,1.9h0ZM99.2,48.6c0-1.8-.8-2.7-2.1-2.7s-1.4.5-1.6.9v-.8h-1v7.5h1v-2.5c.3.3.7.4,1.3.4,1.5,0,2.3-1,2.3-2.9ZM98.1,48.6c0,.4,0,.8-.1,1.1-.2.6-.6.9-1.3.9s-.9-.2-1.2-.5v-1.4c0-1.2.5-2,1.3-2s1.2.8,1.2,1.9h0ZM105,48.4c0-1.6-.7-2.5-2.2-2.5s-2.4,1.2-2.4,2.8.9,2.8,2.6,2.8,1.2,0,1.7-.2l-.2-.8c-.3,0-.8.2-1.3.2-1,0-1.5-.6-1.6-1.7h3.4c0-.2,0-.4,0-.6h0ZM103.9,48.2h-2.4c0-1,.5-1.7,1.3-1.7s1.1.5,1.1,1.4v.2Z"/>
        </g>
      </g>
    </g>
  </g>
</svg>