<?xml version="1.0" encoding="UTF-8"?>
<svg xmlns="http://www.w3.org/2000/svg" xmlns:svg="http://www.w3.org/2000/svg" version="1.1" viewBox="0 0 128 64">
  <defs>
    <style>
      .cls-1 {
        fill: #f0ab00;
      }

      .cls-2, .cls-3 {
        fill: #1e1e1e;
      }

      .cls-3 {
        fill-rule: evenodd;
      }
    </style>
  </defs>
  <!-- Generator: Adobe Illustrator 28.6.0, SVG Export Plug-In . SVG Version: 1.2.0 Build 709)  -->
  <g>
    <g id="svg3349">
      <g>
        <path id="path3131" class="cls-2" d="M.2,10.6h7.6l2.9,20.7h0l2.9-20.7h7.6l-5.9,27.5H6.1L.2,10.6"/>
        <path id="path3133" class="cls-2" d="M22.2,10.6h7.2v10.1h4.4v-10.1h7.2v27.5h-7.2v-11.3h-4.4v11.3h-7.2V10.6"/>
        <path id="path3135" class="cls-2" d="M41.9,10.6h7.6l2.9,20.7h0l2.9-20.7h7.6l-5.9,27.5h-9.2l-5.9-27.5"/>
        <path id="path3137" class="cls-1" d="M63.4,38.1h5.8l6-27.5h-5.8l-6,27.5"/>
        <path id="path3139" class="cls-1" d="M72.1,38.1h5.8s6-27.5,6-27.5h-5.8l-6,27.5"/>
        <path id="path3141" class="cls-1" d="M80.9,38.1h5.8l6-27.5h-5.8l-6,27.5"/>
        <path id="path3143" class="cls-2" d="M2.9,40.9h3.4l1.3,9.2h0l1.3-9.2h3.4l-2.6,12.3h-4.1l-2.6-12.3"/>
        <path id="path3145" class="cls-2" d="M12.7,40.9h7.3v2.6h-4.1v2.1h3.8v2.5h-3.8v2.4h4.2v2.6h-7.4v-12.3"/>
        <path id="path3147" class="cls-2" d="M35.8,44.4v-.3c0-.7-.3-1.3-.9-1.3s-1,.5-1,1.1c0,2.4,5.2,1.2,5.2,5.7s-1.5,3.8-4.3,3.8-4.1-.9-4.1-3.5v-.4h3.1v.3c0,1,.4,1.4,1,1.4s1-.5,1-1.2c0-2.4-5-1.2-5-5.6s1.3-3.8,4-3.8,4,1.2,4,3.8h-3"/>
        <path id="path3149" class="cls-2" d="M40,53.2h3.2v-12.3h-3.2v12.3h0Z"/>
        <path id="path3151" class="cls-3" d="M21.2,40.9h5c2.4,0,3.4,1.4,3.4,3.3s-.6,2.7-2.1,2.9c1.5.2,2,1.2,2,2.8v1c0,.6,0,1.5.2,1.7,0,.1.2.3.4.4v.2h-3.4c-.3-.7-.3-1.8-.3-2.3v-.8c0-1.4-.3-1.8-1-1.8h-.8v4.9h-3.2v-12.3h0ZM24.4,46.1h.6c.9,0,1.3-.6,1.3-1.5s-.4-1.4-1.4-1.4h-.6v2.9"/>
        <path id="path3153" class="cls-2" d="M49.4,44.6c0-1.4-.3-1.8-.9-1.8-1,0-1.1.9-1.1,4.2s.1,4.2,1.1,4.2,1-.7,1-3h3.1v.9c0,3.4-2,4.3-4.1,4.3-3.6,0-4.4-1.8-4.4-6.4s1.1-6.4,4.4-6.4,4,1.5,4,3.9v.8h-3.1v-.7"/>
        <path id="path3155" class="cls-2" d="M53.6,40.9h3.2v4.5h2v-4.5h3.2v12.3h-3.2v-5h-2v5h-3.2v-12.3"/>
        <path id="path3157" class="cls-2" d="M63.4,40.9h7.3v2.6h-4.1v2.1h3.8v2.5h-3.8v2.4h4.2v2.6h-7.4v-12.3"/>
        <path id="path3159" class="cls-2" d="M84.7,40.9v8.8c0,1.2.4,1.5,1,1.5s1-.3,1-1.5v-8.8h3.2v8c0,3.4-1.5,4.5-4.2,4.5s-4.2-1-4.2-4.5v-8h3.2"/>
        <path id="path3161" class="cls-2" d="M91.1,40.9h3.6l2.1,7.6h0v-7.6h3v12.3h-3.5l-2.1-7.6h0v7.6h-3v-12.3"/>
        <path id="path3163" class="cls-3" d="M71.9,40.9h5c2.4,0,3.4,1.4,3.4,3.3s-.6,2.7-2.1,2.9c1.5.2,2,1.2,2,2.8v1c0,.6,0,1.5.2,1.7,0,.1.2.3.4.4v.2h-3.4c-.3-.7-.3-1.8-.3-2.3v-.8c0-1.4-.3-1.8-1-1.8h-.8v4.9h-3.2v-12.3h0ZM75.1,46.1h.6c.9,0,1.3-.6,1.3-1.5s-.4-1.4-1.4-1.4h-.6v2.9"/>
        <path id="path3165" class="cls-2" d="M105.3,46.5h4.1v6.7h-2.2v-1.1h-.1c-.4,1-1.6,1.3-2.6,1.3-3.2,0-3.5-2.3-3.5-6.4s.8-6.4,4.6-6.4,3.9,1.2,3.9,4.1h-3.1c0-.6,0-1.1-.2-1.4-.1-.3-.4-.5-.7-.5-1,0-1.1.9-1.1,4.2s.1,4.2,1.1,4.2,1.1-.4,1.1-2.6h-1.1v-2.2"/>
        <path id="path3167" class="cls-2" d="M110.7,40.9h7.3v2.6h-4.1v2.1h3.8v2.5h-3.8v2.4h4.2v2.6h-7.4v-12.3"/>
        <path id="path3169" class="cls-2" d="M119.2,40.9h3.6l2.1,7.6h0v-7.6h3v12.3h-3.5l-2.1-7.6h0v7.6h-3v-12.3"/>
      </g>
    </g>
  </g>
</svg>