<svg width="1388" height="246" viewBox="0 0 1388 246" fill="none" xmlns="http://www.w3.org/2000/svg">
<path d="M147.122 28.0859H0V217.071H147.122V28.0859Z" fill="#375AC3"/>
<path d="M266.036 216.396C301.913 200.449 312.278 145.543 289.186 93.7607C266.095 41.9781 218.292 12.9278 182.415 28.875C146.537 44.8222 136.172 99.7281 159.264 151.511C182.355 203.293 230.158 232.344 266.036 216.396Z" fill="#375AC3"/>
<path d="M491.455 28.0996H527.966L600.179 217.116H570.429L550.145 162.033H469.009L448.725 217.116H419.244L491.455 28.0996ZM541.22 137.459L509.577 51.594L477.934 137.459H541.22Z" fill="#283232"/>
<path d="M592.604 101.545C592.604 48.0818 626.142 24.3184 667.249 24.3184C728.912 24.3184 765.965 90.4735 765.965 143.668C765.965 197.131 732.158 220.895 691.048 220.895C629.388 220.895 592.604 154.74 592.604 101.545ZM691.32 196.052C717.014 196.052 737.568 179.851 737.568 143.127C737.568 101.273 708.089 49.1609 666.98 49.1609C641.286 49.1609 620.732 65.3619 620.732 102.086C620.732 143.94 650.211 196.052 691.32 196.052Z" fill="#283232"/>
<path d="M824.879 28.0996H857.875L946.313 175.26V28.0996H973.357V217.114H940.361L851.923 69.6813V217.114H824.879V28.0996Z" fill="#283232"/>
<path d="M998.236 101.545C998.236 48.0818 1031.77 24.3184 1072.88 24.3184C1134.54 24.3184 1171.6 90.4735 1171.6 143.668C1171.6 197.131 1137.79 220.895 1096.68 220.895C1035.02 220.895 998.236 154.74 998.236 101.545ZM1096.96 196.052C1122.65 196.052 1143.2 179.851 1143.2 143.127C1143.2 101.273 1113.72 49.1609 1072.61 49.1609C1046.92 49.1609 1026.37 65.3619 1026.37 102.086C1026.36 143.94 1055.85 196.052 1096.96 196.052Z" fill="#283232"/>
<path d="M1161.03 28.0859H1191.2L1250.79 175.14L1260.84 28.0859H1292.84L1360.57 175.14V28.0859H1387.59V217.091H1351.4L1283.21 69.8365L1274.05 217.18H1237.82L1161.03 28.0859Z" fill="#283232"/>
</svg>
