<?xml version="1.0" encoding="UTF-8"?>
<svg id="Ebene_1" data-name="Ebene 1" xmlns="http://www.w3.org/2000/svg" version="1.1" viewBox="0 0 267 67.2">
  <defs>
    <style>
      .cls-1 {
        fill: #262020;
      }

      .cls-1, .cls-2 {
        stroke-width: 0px;
      }

      .cls-2 {
        fill: #f08400;
      }
    </style>
  </defs>
  <path class="cls-2" d="M31.7,67.2H.2L20.2,0h31.5l-19.9,67.2Z"/>
  <path class="cls-1" d="M100.8,46.1c-5.1,5.2-11.6,7.7-19.7,7.7h-12.1c0,0,12.6-42.5,12.6-42.5h12.1c9.8,0,14.6,4.9,14.6,14.8,0,8.2-2.5,14.8-7.6,20M94.7,0h-26.1l-19.9,67.2h28.9c13.6,0,24.8-3.4,33.7-10.1,9.9-7.4,14.9-17.6,14.9-30.7C126.2,8.8,115.7,0,94.7,0M159.6,55.8h-15.5l4.8-16.8c0-.2,5.5-.2,16.4,0,5.5,0,8.2,2.3,8.2,6.9,0,6.6-4.7,9.9-13.9,9.9M174.8,0h-31.9l-18.5,67.2h39.2c17.9,0,26.8-6.8,26.8-20.3s-4.5-12.5-13.5-13c12.3-.8,18.4-7.1,18.4-18.7,0-10.1-6.8-15.2-20.5-15.2M249.8,0l-24.2,38.7c-3,5.4-5.2,9.9-6.7,13.6.2-5.1.2-9.5,0-13.3L217.3,0h-15.6c2.1,42.9,3.2,65.3,3.4,67.2h18.8L266.8,0h-17ZM167.7,26.6h-15.7c3.4-11.1,5.1-16.2,5.1-15.3h16.5c4.6,0,6.9,2.1,6.9,6.2v.3c0,5.9-4.3,8.8-12.9,8.8"/>
</svg>