<?xml version="1.0" encoding="UTF-8"?>
<svg xmlns="http://www.w3.org/2000/svg" version="1.1" viewBox="0 0 128 64">
  <defs>
    <style>
      .cls-1 {
        fill: #66b330;
      }

      .cls-2 {
        fill: #5dc4ed;
      }

      .cls-3 {
        fill: #66b32f;
      }

      .cls-4 {
        fill: #67b432;
      }
    </style>
  </defs>
  <!-- Generator: Adobe Illustrator 28.6.0, SVG Export Plug-In . SVG Version: 1.2.0 Build 709)  -->
  <g>
    <g id="Ebene_1">
      <g>
        <path class="cls-3" d="M104.4,30.3s0,0,.1,0c.5.2.8.4,1,.9.2.5.3,1,.3,1.5,0,0,0,.1,0,.2,0,.1,0,.2,0,.4,0,.2,0,.4,0,.6,0,.3,0,.6,0,.9,0,.6,0,1.1,0,1.7,0,.2,0,.4,0,.6,0,.1,0,.2,0,.4,0,0,0,.2,0,.2,0,.8,0,1.9.6,2.5.3.2.6.3.9.3t0,0c.7,0,1.2-.3,1.7-.7.5-.5.6-1.1.6-1.8q0,0,0-.2c0-.5,0-1,0-1.6,0-.2,0-.3,0-.5,0-.4,0-.9,0-1.3,0-.3,0-.6,0-1,0-.1,0-.2,0-.3q0-1.6.5-2.3c.4-.4.9-.6,1.5-.6,0,0,.2,0,.2,0t0,0c.4,0,.9.3,1.1.5.6.7.6,1.5.6,2.4,0,0,0,.2,0,.3,0,.3,0,.5,0,.8,0,.2,0,.4,0,.7,0,.5,0,1.1,0,1.6,0,.5,0,.9,0,1.4,0,.5,0,1,0,1.5,0,.3,0,.5,0,.8,0,.3,0,.5,0,.8,0,0,0,.2,0,.3,0,.8,0,1.5-.6,2.1-.2.2-.4.3-.6.4,0,0,0,0-.1,0-.2,0-.3,0-.5,0,0,0,0,0-.1,0-.4,0-.8-.1-1.1-.4t0,0c-.3-.3-.4-.6-.6-1,0,0,0,0,0,0-.8.7-1.8,1.2-2.8,1.3q0,0-.1,0c-.7,0-1.4,0-2-.1,0,0,0,0,0,0-.6-.2-1.2-.4-1.7-.8,0,0,0,0,0,0-.9-.7-1.2-1.9-1.3-3,0-.3,0-.6,0-.8,0,0,0-.1,0-.2,0-.2,0-.4,0-.6,0-.2,0-.3,0-.5,0-.4,0-.8,0-1.2,0-.4,0-.8,0-1.2,0-.3,0-.7,0-1,0-.2,0-.4,0-.6,0-.2,0-.4,0-.6,0,0,0-.1,0-.2,0-.8,0-1.5.6-2,.5-.5,1.3-.6,2-.4Z"/>
        <path class="cls-3" d="M119,30.6c.3.2.5.5.6.9v.2s0,0,0,0c1.3-1,2.6-1.5,4.2-1.4,1.2.1,2.3.6,3,1.5.1.2.3.4.4.6,0,0,0,0,0,.1.3.6.5,1.2.5,1.9t0,0c0,.3,0,.7,0,1,0,0,0,.1,0,.2,0,.2,0,.5,0,.7,0,0,0,.2,0,.2,0,.4,0,.7,0,1.1,0,.4,0,.8,0,1.3,0,.3,0,.7,0,1,0,.2,0,.4,0,.6,0,.2,0,.4,0,.6,0,0,0,.1,0,.2,0,.7-.1,1.4-.6,1.9-.4.4-.9.5-1.5.5-.5,0-1-.2-1.3-.6-.4-.5-.5-1-.5-1.6q0,0,0-.2t0-.2c0,0,0-.1,0-.2,0-.1,0-.3,0-.4,0-.2,0-.4,0-.6,0-.6,0-1.2,0-1.7,0-.3,0-.6,0-1,0-.2,0-.3,0-.5q0-1.3-.3-2.6s0,0,0-.1c-.1-.3-.3-.4-.5-.6-.5-.2-1.1-.2-1.6,0,0,0,0,0-.1,0,0,0,0,0-.1,0-.6.3-1,.8-1.2,1.5,0,.2,0,.5,0,.7,0,0,0,0,0,.1,0,.5,0,1.1,0,1.6,0,.2,0,.3,0,.5,0,0,0,.1,0,.2,0,0,0,0,0,0,0,.4,0,.8,0,1.2,0,.3,0,.5,0,.8,0,.1,0,.3,0,.4,0,.8,0,1.7-.6,2.3-.4.4-.9.6-1.5.6-.6,0-1-.2-1.4-.6-.5-.7-.5-1.4-.5-2.2,0,0,0-.2,0-.3,0-.3,0-.5,0-.8,0-.2,0-.4,0-.7,0-.6,0-1.1,0-1.7,0-.5,0-1,0-1.4,0-.5,0-1,0-1.5,0-.3,0-.6,0-.8,0-.3,0-.5,0-.8,0,0,0-.2,0-.3,0-.7,0-1.3.4-1.9,0,0,0,0,0-.1.7-.7,1.8-.7,2.6-.2Z"/>
        <path class="cls-2" d="M33.5,30.2h0c1.7,0,3.4.4,4.7,1.6.4.5.8,1.1.8,1.7,0,.4-.2.8-.5,1.1t0,0c-.4.4-.9.4-1.5.4-.6,0-1-.4-1.4-.8-.1-.1-.2-.2-.3-.4-.3-.4-.7-.8-1.3-.9,0,0-.1,0-.2,0,0,0,0,0,0,0-.6,0-1.2,0-1.7.4-.1.2-.1.4,0,.6.2.3.7.5,1,.6.3,0,.5.2.8.2.2,0,.3,0,.5.1,0,0,0,0,0,0,.3,0,.7.2,1,.3,0,0,0,0,.1,0,1,.3,2,.7,2.8,1.3,0,0,0,0,.1,0,.7.5,1,1.3,1.1,2.1,0,1.1-.2,2.2-.9,3,0,0,0,0,0,0,0,0,0,0,0,0-.8.9-2.1,1.4-3.3,1.6,0,0-.1,0-.2,0-1.6.2-3.5,0-4.9-.7,0,0,0,0,0,0-1-.5-1.7-1.3-2.1-2.3-.1-.5-.1-1.1.2-1.6.3-.4.7-.7,1.2-.8.5,0,1,0,1.4.3.2.2.4.5.5.7.4.7.9,1.2,1.7,1.4.3,0,.6,0,.8,0,0,0,0,0,.1,0,.3,0,.6,0,.9-.1,0,0,0,0,0,0,.2-.1.5-.3.6-.5q0-.5-.1-.9c-.6-.5-1.5-.7-2.2-.8-.7-.2-1.4-.4-2.1-.6,0,0,0,0,0,0-1.1-.4-2.2-1-2.7-2.1,0-.2-.1-.3-.2-.5,0,0,0-.1,0-.2,0-.2,0-.4,0-.6,0,0,0,0,0-.1,0-1,.4-1.9,1.1-2.6,1.1-1.1,2.7-1.4,4.2-1.4Z"/>
        <path class="cls-2" d="M50.4,31.3s0,0,0,0c.6.5,1.1,1,1.3,1.8,0,.5,0,1-.3,1.4-.2.2-.3.3-.5.5,0,0,0,0,0,0-.3.1-.6.1-.9.1,0,0,0,0-.1,0-.6,0-1-.3-1.4-.7-.1-.1-.3-.3-.4-.5-.3-.4-.7-.8-1.3-.9,0,0-.1,0-.2,0,0,0-.1,0-.2,0-.6,0-1.1,0-1.5.4-.1.1-.1.2-.1.4,0,.1,0,.2,0,.4.5.4,1.2.6,1.9.8q3.3.8,4.5,1.8s0,0,.1,0c.7.5,1,1.3,1.1,2.1,0,1.1-.2,2.2-.9,3.1,0,0,0,0,0,0-.8,1-2.3,1.5-3.6,1.6-.5,0-.9,0-1.4,0t0,0c-.8,0-1.5,0-2.3-.3,0,0,0,0,0,0-1.1-.3-2.2-1-2.8-2.1-.3-.6-.5-1.3-.3-1.9.2-.5.5-.8.9-1,.4-.2.9-.2,1.4,0,.5.2.8.6,1.1,1.1.3.4.6.8,1,1t0,0c.6.3,1.5.4,2.2.2,0,0,.1,0,.2,0,0,0,0,0,0,0,.2-.1.5-.3.6-.5q0-.5-.1-.9c-.6-.5-1.5-.7-2.2-.8-.7-.2-1.4-.4-2.1-.6,0,0,0,0,0,0-1.1-.4-2.2-1-2.7-2.1,0-.2-.1-.3-.2-.5,0,0,0-.1,0-.2-.2-.9,0-1.8.5-2.6.7-1.1,1.9-1.8,3.1-2,1.8-.4,4.3-.2,5.8.9Z"/>
        <path class="cls-2" d="M71.2,30.6c.3.2.4.5.6.8.2-.1.3-.3.5-.4.5-.5,1.2-.7,1.9-.7,1,0,2.1.3,2.9,1,.4.5.5,1,.4,1.6,0,.4-.3.8-.7,1-.4.3-.8.4-1.2.3-.2,0-.3,0-.5-.1-.6-.2-1.3-.4-2-.1-.5.3-.7.9-.8,1.4-.3,1.4-.2,3-.3,4.4,0,.3,0,.6,0,.9,0,.1,0,.3,0,.4q0,1.1-.2,1.6s0,0,0,0c-.2.5-.6.8-1.1,1-.5.1-.9.1-1.4,0,0,0,0,0,0,0-.4-.2-.8-.5-.9-.9,0-.2-.1-.5-.2-.7,0,0,0,0,0,0,0-.2,0-.3,0-.5,0,0,0,0,0-.1,0-.1,0-.3,0-.4,0,0,0-.2,0-.3,0-.3,0-.6,0-.9,0-.1,0-.2,0-.3,0-.5,0-1,0-1.5,0-.6,0-1.1,0-1.7,0-.4,0-.9,0-1.3,0-.3,0-.5,0-.8,0-.2,0-.5,0-.7,0,0,0-.2,0-.3,0-.9,0-1.8.7-2.5.7-.6,1.7-.6,2.5,0Z"/>
        <path class="cls-1" d="M95.3,30.6c.3.2.4.5.6.8.2-.1.3-.3.5-.4.5-.5,1.2-.7,1.9-.7,1,0,2.1.3,2.9,1,.4.5.5,1,.4,1.6,0,.4-.3.8-.7,1-.4.3-.8.4-1.2.3-.2,0-.4-.1-.6-.2-.5-.2-1.2-.4-1.7-.1q0,0-.2,0t-.1,0c-.8.7-.8,2.2-.8,3.1,0,.3,0,.6,0,.9,0,.2,0,.3,0,.5,0,.4,0,.9,0,1.3,0,.3,0,.5,0,.8,0,0,0,.2,0,.3q0,1.2-.2,1.8s0,0,0,0c-.2.5-.6.8-1.1,1-.5.1-.9.1-1.4,0,0,0,0,0,0,0-.4-.2-.7-.5-.9-.9,0,0,0,0,0-.1-.2-.6-.2-1.2-.2-1.8,0,0,0-.2,0-.3,0-.2,0-.5,0-.7,0-.2,0-.3,0-.5,0-.5,0-1.1,0-1.6,0-.5,0-1,0-1.5,0-.4,0-.9,0-1.3,0-.3,0-.5,0-.8,0-.2,0-.5,0-.7,0,0,0-.2,0-.3,0-.9,0-1.8.7-2.5.7-.6,1.7-.6,2.5,0Z"/>
        <path class="cls-1" d="M117.6,20.4c0,.4,0,.8,0,1.1,0,0,0,0,0,0-.2,1-.6,2-1,3,0,0,0,0,0,.1-.8,1.7-2,3.4-3.8,4.1-.2,0-.4.1-.6.2,0,0-.1,0-.2,0-.2,0-.5,0-.7,0,0,0-.1,0-.2,0-.4,0-.7,0-1.1-.1,0,0,0,0,0,0-.4-.1-.8-.3-1.2-.5,0,0,.1-.1.2-.2,0,0,0,0,0,0q.2-.2.4-.2c.1,0,.2,0,.3,0,0,0,.2,0,.2,0,0,0,0,0,.1,0,.7.2,1.5.1,2.2,0,0,0,0,0,.1,0,1-.4,1.9-1.1,2.5-1.9,0,0,0,0,0-.1.8-.9,1.4-2.1,1.8-3.2,0,0,0,0,0,0,0-.2,0-.3,0-.5q0,0-.1-.1c-.1,0-.2,0-.3,0-.2.1-.2.4-.3.6-.5,1.3-1.2,2.5-2.2,3.6,0,0,0,0,0,0-.7.7-1.7,1.3-2.7,1.3-.9,0-1.6-.2-2.4-.7,0-1.5.2-3.2,1.3-4.4,0,0,.2-.2.2-.2,0,0,0,0,0,0,.3-.2.5-.4.8-.6,0,0,0,0,.1,0,.6-.3,1.1-.4,1.7-.4,0,0,.1,0,.2,0,.2,0,.4,0,.5,0,.3,0,.6,0,.8,0,0,0,.2,0,.3,0,.3,0,.6,0,.9,0,0,0,0,0,0,0,.6,0,1.1-.3,1.6-.6q0,0,.1,0Z"/>
        <path class="cls-2" d="M12.2,32.8c-.7-1.2-1.8-2-3.2-2.4,0,0,0,0-.1,0-.1,0-.3,0-.4,0-1.5-.2-2.9,0-4.1,1,0,0,0,0-.1,0,0,0-.2.1-.3.2,0,0,0,0,0,0,0-.5,0-1,0-1.5,0-.3,0-.5,0-.8,0-.3,0-.5,0-.8,0,0,0-.2,0-.3,0-.4,0-.7,0-1.1-.1-.5-.4-1-.8-1.3-.7-.5-1.7-.4-2.4.2-.5.5-.6,1.2-.6,2,0,0,0,.2,0,.3,0,.2,0,.3,0,.5,0,.2,0,.3,0,.5,0,.3,0,.7,0,1,0,.4,0,.8,0,1.2,0,.7,0,1.4,0,2.1,0,.7,0,1.4,0,2.1,0,.8,0,1.5,0,2.3,0,0,0,.2,0,.2,0,0,0,0,0,.1,0,.3,0,.6,0,.8,0,.3,0,.7,0,1,0,.2,0,.4,0,.5,0,.2,0,.3,0,.5,0,0,0,.1,0,.2,0,.5,0,.9.2,1.4.2.5.6.8,1.1,1,.6.2,1.2,0,1.7-.2.3-.2.6-.6.7-1q0,0,0-.2c0,0,.2.2.3.2q0,0,.1.1c.3.2.6.4.9.6,0,0,0,0,.1,0,.5.2,1,.3,1.5.4,1.5.2,2.9-.2,4.1-1.1,1.3-1.1,2-2.7,2.2-4.4,0,0,0,0,0-.1.2-1.9,0-3.8-.9-5.4ZM8.9,38.7s0,0,0,0c-.2.7-.7,1.3-1.3,1.6-.1,0-.3,0-.4.1,0,0,0,0,0,0-.6.1-1.2,0-1.7-.3-.7-.5-1.1-1.2-1.3-2-.2-1.2-.1-2.7.6-3.7.4-.5.9-1,1.6-1.1.1,0,.2,0,.3,0,.7,0,1.2.2,1.7.6.8.8.9,1.8.9,2.9,0,0,0,0,0,0,0,.6,0,1.1-.2,1.7Z"/>
        <path class="cls-3" d="M89.7,30.7c-.4-.4-.8-.5-1.3-.5,0,0,0,0-.1,0-.3,0-.6,0-.9.2q0,0-.1,0c-.3.2-.4.4-.6.6,0,.2-.2.3-.3.5-.7-.6-1.4-1-2.2-1.2,0,0-.1,0-.2,0-1.5-.4-3.1,0-4.4.8-1.2.8-2,2.2-2.3,3.6,0,0,0,.1,0,.2-.1.5-.1,1-.1,1.5,0,.1,0,.3,0,.4,0,.7,0,1.3.2,1.9,0,0,0,0,0,.1.3,1,.7,2,1.4,2.9.9,1,2.2,1.7,3.6,1.8,1.4,0,2.7-.2,3.8-1.2,0,0,0,0,0,0,0,.5,0,1,0,1.5,0,0,0,0,0,.1,0,0,0,.2,0,.3-.1.4-.4.7-.7.9t0,0c-.5.2-1,.3-1.5.3q0,0-.2,0c-.2,0-.4,0-.7,0-.8,0-1.2-.5-1.7-1-.2-.2-.4-.4-.6-.6-.5-.4-1-.5-1.6-.5-.5,0-.8.3-1.1.7-.3.4-.4.9-.3,1.4.2.8.7,1.4,1.4,1.9,1.8,1.3,4.3,1.5,6.5,1.1,0,0,0,0,.1,0,1.2-.2,2.5-.6,3.3-1.6,0,0,0,0,0-.1.7-.8,1-1.7,1.1-2.7q0,0,0-.1c0-.5,0-1.1,0-1.6,0-.1,0-.2,0-.3,0-.3,0-.6,0-.8,0-.2,0-.4,0-.6t0,0c0,0,0-.1,0-.2,0-.6,0-1.1,0-1.7,0-.5,0-1,0-1.6,0-.5,0-1.1,0-1.6,0-.3,0-.6,0-.9,0-.3,0-.5,0-.8,0-.1,0-.2,0-.3,0-.8,0-1.8-.5-2.4ZM85.6,39.4s0,0,0,0c-.3.4-.8.7-1.3.8-.7,0-1.4,0-1.9-.4-.1,0-.2-.2-.3-.3t0,0c-.7-.7-.7-1.9-.7-2.8,0-1,.2-1.9.9-2.6.8-.8,2.1-.9,3-.2.7.6,1.1,1.4,1.2,2.3.1,1.2,0,2.3-.7,3.3Z"/>
        <path class="cls-4" d="M104.8,15.6c0,0,.1.1.1.2,0,0,0,0,0,.1,0,0,0,0,0,.1,0,0,0,0,0,.1,0,1.1.5,1.9,1.2,2.7.1.1.2.2.3.4.1.1.2.2.3.3.2.2.4.4.5.6,0,0,0,0,0,0,.7.9.8,2.1.7,3.2-.2,1.3-.9,2.4-1.8,3.4,0,0,0,0,0,0-.3.3-.7.6-1,.9,0,0,0,0,0,0-.1,0-.2,0-.4,0-.1,0-.2,0-.3-.1,0,0,0,0,0,0-1.2-.5-2.1-1.3-2.6-2.4-.7-1.7-.2-3.5.4-5.1q.8-1.9,1.2-2.1c.2,0,.3,0,.4,0,0,.1,0,.2,0,.4,0,.1-.1.2-.2.3-1,1.6-1.7,3.6-1.5,5.5.2.9.7,1.7,1.4,2.2.3.2.6.3.9.5,0,0,0,0,.1,0,.1,0,.2,0,.3,0,1.1-.7,2.1-2,2.4-3.3,0,0,0-.2,0-.2q0,0,0-.1c.2-.8,0-1.8-.4-2.5-.3-.4-.6-.8-1-1.1-.1-.1-.2-.2-.3-.3,0,0-.1-.1-.2-.2-.8-.8-1.2-1.7-1.4-2.8-.9.7-1.5,1.6-2.1,2.6t0,0c-.8,1.4-1.5,3-1.5,4.7,0,0,0,.2,0,.3,0,.5,0,1,.2,1.4,0,0,0,0,0,0,.2.5.4.9.7,1.3,0,0,0,0,.1.1.5.6,1.2.9,1.9,1.2,0,0,.1,0,.2,0,0,0,0,0,.1,0q.1,0,.2.2c0,.1,0,.2,0,.3-.1.1-.2.1-.3.1-1.2-.2-2.3-1.2-3-2.2-.2-.3-.3-.6-.4-.9,0,0,0,0,0,0-.2-.6-.3-1.2-.3-1.9,0,0,0,0,0-.1,0-.6,0-1.3.2-1.9,0,0,0,0,0-.1.4-1.6,1.2-3.1,2.2-4.4,0,0,0,0,0,0q1.6-2.1,2.4-1.9Z"/>
        <path class="cls-2" d="M61.1,38.2c.3,0,.7,0,1,0,.2,0,.4,0,.5,0,.8,0,1.7,0,2.4-.2,0,0,0,0,0,0,.2,0,.3-.2.5-.3.4-.3.5-.7.7-1.2.3-1.4-.3-2.8-1-3.9-.9-1.2-2.3-2.1-3.8-2.3,0,0,0,0-.1,0-.4,0-.8,0-1.2,0,0,0-.1,0-.2,0-.7,0-1.3,0-1.9.2-1.5.4-2.8,1.3-3.6,2.6-1,1.6-1.3,3.8-.8,5.7,0,0,0,0,0,.1,0,.3.1.6.3.9.6,1.5,1.6,2.7,3,3.4,1.8.8,4.1.9,6,.2,1.2-.5,2.4-1.2,3-2.4,0,0,0,0,0-.1.1-.2.1-.4.1-.7,0,0,0,0,0,0,0-.4,0-.7-.4-1-.3-.3-.7-.4-1.2-.5-.5,0-.8.2-1.2.5,0,0-.1.1-.2.2,0,0-.2.1-.3.2-.9.8-1.7,1.3-3,1.3-.6,0-1.1-.3-1.5-.7,0,0,0,0,0,0-.3-.4-.6-.9-.7-1.3q0,0,0-.1c0-.1,0-.3,0-.4.8,0,1.5,0,2.3,0,.4,0,.8,0,1.1,0ZM58.6,33.7c.4-.3.8-.4,1.3-.5.6,0,1.1,0,1.6.5,0,0,0,0,0,0,.5.4.7,1.1.8,1.7h0c-1.6.1-3.1.1-4.7.1,0-.7.3-1.4.9-1.9Z"/>
        <path class="cls-2" d="M21.7,38.2c.3,0,.7,0,1,0,.2,0,.4,0,.5,0,.2,0,.3,0,.5,0,0,0,.1,0,.2,0,.8,0,1.5,0,2.2-.5.5-.3.6-.7.8-1.2.2-1.2-.2-2.6-.8-3.6,0,0,0,0,0,0,0-.1-.2-.3-.3-.4-.9-1.1-2.3-1.9-3.7-2.2,0,0,0,0-.1,0-1.7-.3-3.6,0-5.1.9-1.4.9-2.2,2.3-2.6,3.9-.4,2.1-.2,4.3,1,6.1.9,1.3,2.3,2.2,3.9,2.5,0,0,0,0,.1,0,.5.1,1,.1,1.6.1,0,0,0,0,.1,0,1.2,0,2.4-.2,3.5-.8,0,0,0,0,.1,0,.2-.1.4-.2.6-.3.7-.5,1.4-1.3,1.6-2.2,0-.5,0-.9-.3-1.4-.3-.3-.7-.4-1.2-.5-.5,0-.8.2-1.2.5,0,0-.1.1-.2.2,0,0-.2.1-.3.2-.4.4-.8.7-1.3,1-.7.3-1.6.4-2.3.2-.6-.3-1.1-.7-1.4-1.4,0,0,0,0,0,0,0-.2-.2-.4-.2-.6,0,0,0,0,0,0,0-.1,0-.2,0-.3.8,0,1.6,0,2.3,0,.4,0,.8,0,1.1,0ZM19.2,33.7c.4-.3.8-.4,1.3-.5.6,0,1.1,0,1.6.5,0,0,0,0,0,0,.5.4.7,1.1.8,1.7h0c-1.6.1-3.1.1-4.7.1,0-.7.3-1.4.9-1.9Z"/>
      </g>
    </g>
  </g>
</svg>