<?xml version="1.0" encoding="UTF-8"?>
<svg id="Ebene_1" data-name="Ebene 1" xmlns="http://www.w3.org/2000/svg" viewBox="0 0 258.65 33.96">
  <defs>
    <style>
      .cls-1 {
        fill: #1d1d1b;
      }
    </style>
  </defs>
  <path class="cls-1" d="M21.43,0c.51,0,.88.14,1.14.4.25.27.41.63.47,1.07l1.61,14.61.52,6.4h.09l.66-6.4,1.94-14.61c.06-.47.21-.84.45-1.09.24-.25.62-.38,1.16-.38h6.31c.54,0,.92.15,1.14.45.22.3.29.7.19,1.21l-4.98,30.02c-.22,1.27-.9,1.9-2.04,1.9h-7.68c-1.14,0-1.82-.63-2.04-1.9l-.95-7.49-.81-7.73h-.09l-.81,7.73-.95,7.49c-.22,1.27-.9,1.9-2.04,1.9h-7.68c-1.14,0-1.82-.63-2.04-1.9L.04,1.66C-.05,1.16.01.75.23.45c.22-.3.6-.45,1.14-.45h6.31c.54,0,.92.13,1.16.38.24.25.39.62.45,1.09l1.94,14.61.66,6.4h.09l.52-6.4,1.61-14.61c.06-.44.22-.8.47-1.07.25-.27.63-.4,1.14-.4h5.69Z"/>
  <path class="cls-1" d="M56.91,32.2c0,.92-.46,1.38-1.38,1.38h-3.89c-.54,0-.93-.08-1.16-.24-.24-.16-.4-.46-.5-.9l-.19-.76c-.44.54-1.07,1.03-1.87,1.47s-1.87.66-3.2.66c-1.77,0-3.25-.65-4.43-1.94-1.19-1.3-1.78-3.34-1.78-6.12,0-1.8.24-3.26.71-4.36s1.16-1.97,2.06-2.58c.9-.62,2.02-1.04,3.37-1.26,1.34-.22,2.87-.35,4.58-.38v-1.52c0-.76-.18-1.26-.55-1.52-.36-.25-1-.38-1.92-.38-1.11,0-2.09.12-2.96.36-.87.24-1.53.4-1.97.5-.51.09-.91.07-1.21-.07-.3-.14-.45-.48-.45-1.02v-4.32c0-.44.1-.78.31-1.02.21-.24.48-.4.83-.5.79-.25,1.81-.46,3.06-.62,1.25-.16,2.44-.24,3.58-.24,1.68,0,3.08.14,4.22.4,1.14.27,2.06.71,2.75,1.33.69.62,1.2,1.42,1.52,2.4.32.98.47,2.18.47,3.6v17.64ZM49.22,21.86c-.6.03-1.1.09-1.49.17-.4.08-.71.23-.95.45-.24.22-.4.54-.47.95-.08.41-.12.98-.12,1.71,0,.82.09,1.48.29,1.97.19.49.6.74,1.23.74.69,0,1.12-.3,1.28-.9.16-.6.24-1.41.24-2.42v-2.66Z"/>
  <path class="cls-1" d="M68.95,32.2c0,.92-.46,1.38-1.38,1.38h-5.31c-.92,0-1.38-.46-1.38-1.38V1.38c0-.92.46-1.38,1.38-1.38h5.31c.92,0,1.38.46,1.38,1.38v30.83Z"/>
  <path class="cls-1" d="M85.5,31.68c-.35.54-.99,1.05-1.92,1.54-.93.49-2,.74-3.2.74s-2.33-.21-3.3-.64c-.96-.43-1.77-1.16-2.42-2.21-.65-1.04-1.14-2.44-1.47-4.2s-.5-3.94-.5-6.57.16-4.62.47-6.36c.32-1.74.8-3.15,1.45-4.22.65-1.07,1.45-1.85,2.42-2.32s2.09-.71,3.39-.71c1.2,0,2.23.19,3.08.57.85.38,1.45.76,1.8,1.14V1.38c0-.92.46-1.38,1.38-1.38h5.34c.92,0,1.38.46,1.38,1.38v30.83c0,.92-.46,1.38-1.38,1.38h-4.68c-.54,0-.93-.08-1.17-.24-.24-.16-.41-.46-.5-.9l-.19-.76ZM85.36,20.35c0-1.3-.05-2.37-.14-3.23-.09-.85-.24-1.53-.43-2.04s-.43-.85-.71-1.04c-.28-.19-.63-.29-1.04-.29s-.75.09-1.02.29c-.27.19-.48.54-.64,1.04-.16.51-.28,1.19-.36,2.04-.08.85-.12,1.93-.12,3.23s.04,2.37.12,3.23.2,1.53.36,2.02c.16.49.37.84.64,1.04.27.21.61.31,1.02.31s.76-.1,1.04-.31c.29-.2.52-.55.71-1.04.19-.49.33-1.16.43-2.02s.14-1.93.14-3.23Z"/>
  <path class="cls-1" d="M99.78,8.49c.13-.92.63-1.38,1.52-1.38h5.31c.95,0,1.36.46,1.23,1.38l-2.66,15.08c-.09.57-.14,1.04-.14,1.42,0,.85.33,1.28,1,1.28s1.15-.25,1.47-.76.59-1.38.81-2.61l2.56-14.42c.13-.92.63-1.38,1.52-1.38h5.31c.95,0,1.36.46,1.23,1.38l-4.17,23.71c-.1.47-.25.82-.47,1.04-.22.22-.57.33-1.04.33h-4.65c-.54,0-.93-.08-1.16-.24-.24-.16-.37-.46-.4-.9l-.05-.76c-.54.57-1.16,1.09-1.85,1.57-.7.47-1.68.71-2.94.71-1.8,0-3.22-.43-4.27-1.3s-1.57-2.24-1.57-4.1c0-.32.02-.63.05-.95.03-.32.08-.65.14-1l3.23-18.12Z"/>
  <path class="cls-1" d="M137.72,32.2c-.1.47-.25.82-.47,1.04-.22.22-.57.33-1.04.33h-5.31c-1.01,0-1.42-.46-1.23-1.38l2.66-15.27c.06-.28.11-.54.14-.78.03-.24.05-.45.05-.64,0-.73-.3-1.09-.9-1.09-.73,0-1.26.29-1.61.85s-.65,1.5-.9,2.8l-2.47,14.13c-.1.47-.25.82-.47,1.04-.22.22-.57.33-1.04.33h-5.31c-1.01,0-1.42-.46-1.23-1.38l4.17-23.71c.13-.92.63-1.38,1.52-1.38h4.65c.54,0,.92.08,1.16.24.24.16.37.46.4.9l.05.76c.51-.54,1.19-1.05,2.04-1.54.85-.49,1.9-.74,3.13-.74,1.77,0,3.1.5,3.98,1.49.88,1,1.33,2.4,1.33,4.2,0,.35-.02.71-.05,1.09-.03.38-.08.78-.14,1.19l-3.08,17.5Z"/>
  <path class="cls-1" d="M154.17,31.68c-.44.54-1.11,1.05-2.01,1.54-.9.49-1.95.74-3.15.74-.98,0-1.86-.13-2.63-.38-.78-.25-1.43-.68-1.97-1.28-.54-.6-.95-1.38-1.23-2.35-.29-.96-.43-2.17-.43-3.63,0-1.74.21-3.73.62-5.98.44-2.5.96-4.62,1.54-6.36.59-1.74,1.26-3.15,2.04-4.22.77-1.07,1.67-1.85,2.68-2.32s2.17-.71,3.46-.71c1.2,0,2.26.19,3.18.57.92.38,1.52.76,1.8,1.14l1.23-7.07c.09-.47.25-.82.47-1.04s.57-.33,1.04-.33h5.31c1.01,0,1.42.46,1.23,1.38l-5.41,30.83c-.09.47-.25.82-.47,1.04-.22.22-.57.33-1.04.33h-4.65c-.54,0-.92-.08-1.16-.24-.24-.16-.37-.46-.4-.9l-.05-.76ZM156.02,20.35c.16-.89.28-1.66.36-2.32.08-.66.12-1.25.12-1.76,0-.98-.14-1.64-.43-1.99-.29-.35-.7-.52-1.23-.52-.41,0-.77.09-1.07.29-.3.19-.58.54-.83,1.04s-.49,1.19-.71,2.04c-.22.85-.44,1.93-.66,3.23-.19,1.01-.32,1.87-.4,2.59-.08.71-.12,1.32-.12,1.82,0,.82.12,1.39.36,1.71s.61.47,1.11.47c.41,0,.77-.1,1.09-.31.32-.2.62-.55.9-1.04.28-.49.55-1.16.81-2.02s.49-1.93.71-3.23Z"/>
  <path class="cls-1" d="M181.11,25.56c-.44,0-.78-.1-1.02-.31s-.44-.53-.59-.97l-3.18-7.54v15.32c0,1.01-.51,1.52-1.52,1.52h-5.5c-1.01,0-1.52-.51-1.52-1.52V1.52c0-1.01.51-1.52,1.52-1.52h5.07c.57,0,1,.1,1.31.29.3.19.54.51.74.95l4.7,10.91,4.7-10.91c.19-.44.43-.76.74-.95.3-.19.74-.29,1.3-.29h5.07c1.01,0,1.52.51,1.52,1.52v30.54c0,1.01-.51,1.52-1.52,1.52h-5.5c-1.01,0-1.52-.51-1.52-1.52v-15.32l-3.18,7.54c-.16.44-.36.77-.59.97s-.58.31-1.02.31Z"/>
  <path class="cls-1" d="M208.29,33.96c-1.74,0-3.24-.24-4.5-.71-1.27-.47-2.31-1.24-3.13-2.3-.82-1.06-1.43-2.46-1.83-4.2-.4-1.74-.59-3.87-.59-6.4s.2-4.66.59-6.4,1-3.14,1.83-4.2c.82-1.06,1.86-1.83,3.13-2.3,1.26-.47,2.77-.71,4.5-.71s3.24.24,4.51.71c1.26.47,2.31,1.24,3.13,2.3s1.43,2.46,1.83,4.2c.39,1.74.59,3.87.59,6.4s-.2,4.66-.59,6.4c-.4,1.74-1,3.14-1.83,4.2s-1.87,1.83-3.13,2.3c-1.26.47-2.77.71-4.51.71ZM208.29,27.03c.38,0,.7-.09.95-.28.25-.19.44-.54.57-1.04.13-.5.21-1.19.26-2.04.05-.86.07-1.96.07-3.32s-.02-2.47-.07-3.34c-.05-.87-.14-1.55-.26-2.04-.13-.49-.32-.83-.57-1.02-.25-.19-.57-.29-.95-.29s-.7.09-.95.29c-.25.19-.44.53-.57,1.02-.13.49-.21,1.17-.26,2.04-.05.87-.07,1.98-.07,3.34s.02,2.47.07,3.32c.05.85.13,1.53.26,2.04.13.51.32.85.57,1.04.25.19.57.28.95.28Z"/>
  <path class="cls-1" d="M231.62,33.96c-1.74,0-3.24-.24-4.5-.71-1.27-.47-2.31-1.24-3.13-2.3-.82-1.06-1.43-2.46-1.83-4.2-.4-1.74-.59-3.87-.59-6.4s.2-4.66.59-6.4,1-3.14,1.83-4.2c.82-1.06,1.86-1.83,3.13-2.3,1.26-.47,2.77-.71,4.5-.71s3.24.24,4.51.71c1.26.47,2.31,1.24,3.13,2.3s1.43,2.46,1.83,4.2c.39,1.74.59,3.87.59,6.4s-.2,4.66-.59,6.4c-.4,1.74-1,3.14-1.83,4.2s-1.87,1.83-3.13,2.3c-1.26.47-2.77.71-4.51.71ZM231.62,27.03c.38,0,.7-.09.95-.28.25-.19.44-.54.57-1.04.13-.5.21-1.19.26-2.04.05-.86.07-1.96.07-3.32s-.02-2.47-.07-3.34c-.05-.87-.14-1.55-.26-2.04-.13-.49-.32-.83-.57-1.02-.25-.19-.57-.29-.95-.29s-.7.09-.95.29c-.25.19-.44.53-.57,1.02-.13.49-.21,1.17-.26,2.04-.05.87-.07,1.98-.07,3.34s.02,2.47.07,3.32c.05.85.13,1.53.26,2.04.13.51.32.85.57,1.04.25.19.57.28.95.28Z"/>
  <path class="cls-1" d="M251.4,7.11c.57,0,.96.1,1.16.31.21.21.34.58.4,1.11l.19,1.71c.16-.35.36-.72.59-1.11.24-.39.52-.76.85-1.09s.72-.6,1.16-.81c.44-.21.93-.31,1.47-.31.57,0,.95.11,1.14.33.19.22.29.6.29,1.14v6.92c0,.85-.4,1.28-1.19,1.28-.25,0-.49-.02-.71-.07-.22-.05-.49-.07-.81-.07-1.8-.03-2.7,1.26-2.7,3.89v11.86c0,.92-.46,1.38-1.38,1.38h-5.31c-.92,0-1.38-.46-1.38-1.38V8.49c0-.92.46-1.38,1.38-1.38h4.84Z"/>
</svg>