<?xml version="1.0" encoding="UTF-8"?>
<svg version="1.1" xmlns="http://www.w3.org/2000/svg" width="3110" height="968">
<path d="M0 0 C1026.3 0 2052.6 0 3110 0 C3110 319.44 3110 638.88 3110 968 C2083.7 968 1057.4 968 0 968 C0 648.56 0 329.12 0 0 Z " fill="#FEFEFE" transform="translate(0,0)"/>
<path d="M0 0 C1.2065625 0.30164063 2.413125 0.60328125 3.65625 0.9140625 C24.20678086 6.40909575 39.93389997 16.52753047 56 30 C58.46298369 26.30552446 60.2905173 22.36881616 62.16992188 18.35742188 C65.29454265 11.92111877 69.09171578 7.17493265 75.25 3.3125 C76.55710937 2.47138672 76.55710937 2.47138672 77.890625 1.61328125 C84.90616039 -2.02668875 91.36644943 -3.53853982 99.25 -3.4375 C100.07266357 -3.43137695 100.89532715 -3.42525391 101.74291992 -3.41894531 C113.77607924 -3.11380326 123.61452388 0.31735788 132.0625 9 C145.49681163 24.74173157 144.43881075 46.53028999 144.37231445 65.94897461 C144.37474631 68.4473638 144.37846944 70.94575202 144.38337708 73.44413757 C144.39176718 79.49345683 144.38631967 85.54261518 144.37411413 91.59191578 C144.36040035 98.65554248 144.36214024 105.71914146 144.36424746 112.78277809 C144.36742841 125.39777174 144.35582182 138.01270871 144.33618164 150.62768555 C144.31718545 162.83245571 144.31009418 175.03715947 144.31567383 187.24194336 C144.32175001 200.57204027 144.32152068 213.90210807 144.310188 227.23220259 C144.30898087 228.65728446 144.30777488 230.08236633 144.30657005 231.5074482 C144.30566475 232.55885222 144.30566475 232.55885222 144.30474115 233.63149674 C144.30088328 238.5398818 144.30124731 243.44825593 144.3031559 248.35664177 C144.30551627 254.97975953 144.2968499 261.60280499 144.2810955 268.22590828 C144.27687996 270.64609554 144.27598353 273.0662914 144.27878571 275.48648071 C144.29122607 288.16060292 144.03054374 300.47102138 142 313 C141.76862068 314.50141242 141.76862068 314.50141242 141.53256702 316.03315639 C137.82417339 339.59516819 130.36379842 361.45199466 115 380 C114.32582031 380.84949219 113.65164063 381.69898438 112.95703125 382.57421875 C93.95230466 405.28718468 62.93238087 415.75502451 34.5625 420.125 C33.52029297 420.29386719 32.47808594 420.46273438 31.40429688 420.63671875 C-18.35893316 428.47296204 -77.25999368 424.2409254 -119.62890625 394.5234375 C-134.87508344 383.35288514 -147.80878584 368.91108226 -152 350 C-153.45188082 338.11362782 -151.87705889 327.02651187 -144.78515625 317.1640625 C-137.82395303 308.72531724 -128.97698951 302.65969452 -118 301 C-103.96756198 299.84166196 -92.10936258 302.96849968 -81 312 C-76.01960111 316.44927244 -71.68551119 321.30444357 -67.5 326.5 C-56.71202181 339.86811855 -45.57297341 349.06813266 -28 351 C-22.81073562 351.31216331 -17.6340909 351.41405241 -12.4375 351.4375 C-10.5035437 351.45272705 -10.5035437 351.45272705 -8.53051758 351.46826172 C3.51440606 351.35971446 15.71991311 350.07024075 26.5 344.3125 C27.50305176 343.79139648 27.50305176 343.79139648 28.52636719 343.25976562 C37.27506761 338.49243255 42.70792346 331.33662511 45.67822266 321.82910156 C46.23806554 319.60259999 46.73004405 317.37472021 47.1875 315.125 C47.35475586 314.32835937 47.52201172 313.53171875 47.69433594 312.7109375 C50.07261465 301.09012654 50.11590196 289.82199968 50 278 C49.51273438 278.47308594 49.02546875 278.94617188 48.5234375 279.43359375 C23.72092941 302.56756947 -7.58369191 308.83267826 -40.57519531 308.13183594 C-73.27015599 306.87326175 -102.14194763 290.23692316 -124.125 266.75 C-140.56810112 247.54363914 -150.13037859 224.00440831 -156.3125 199.75 C-156.55500488 198.80511719 -156.79750977 197.86023438 -157.04736328 196.88671875 C-160.66149164 182.03175725 -161.34752451 167.56337403 -161.31567383 152.34936523 C-161.31251582 149.20325966 -161.33605026 146.05809941 -161.36132812 142.91210938 C-161.39954762 130.61853546 -160.50048912 119.03520533 -158 107 C-157.70699835 105.53535814 -157.41419256 104.07067708 -157.12158203 102.60595703 C-150.45310741 69.89949639 -132.17521229 37.5103742 -104.12255859 18.57543945 C-73.69888029 -1.23522897 -35.61223978 -9.21821251 0 0 Z " fill="#66B32F" transform="translate(1992,346)"/>
<path d="M0 0 C10.49137751 7.55912318 16.62699762 17.59513567 18.96841812 30.22328186 C20.0932881 38.5693401 19.60476825 47.17859017 19.54296875 55.578125 C19.53736477 57.82541621 19.53309846 60.07271112 19.53010559 62.32000732 C19.51872003 68.19885602 19.48930759 74.07747792 19.45599365 79.95623779 C19.42515645 85.96949192 19.41157122 91.98278313 19.39648438 97.99609375 C19.36443136 109.76832812 19.31331198 121.54039511 19.25 133.3125 C19.752397 132.94487549 20.25479401 132.57725098 20.77241516 132.19848633 C23.09198737 130.50403443 25.41510172 128.81450227 27.73828125 127.125 C28.52819458 126.54685547 29.31810791 125.96871094 30.13195801 125.37304688 C58.12733537 105.04930714 92.01094672 98.06523075 126.33642578 103.08178711 C129.67940526 103.68355646 132.96607383 104.4537101 136.25 105.3125 C137.03632813 105.51117676 137.82265625 105.70985352 138.6328125 105.91455078 C171.17488014 114.3208318 196.89732844 133.41489971 214.27441406 162.26049805 C236.69957949 200.70535132 240.68673855 245.83373574 235.25 289.3125 C235.13172852 290.27124023 235.01345703 291.22998047 234.89160156 292.21777344 C229.88630752 330.84641681 213.24125745 369.48725346 182.25 394.3125 C154.42905997 415.1090675 121.28689506 423.9520475 86.71484375 419.89794922 C74.89561425 418.06773271 63.06856046 415.53525333 52.25 410.3125 C51.18136719 409.79945313 50.11273438 409.28640625 49.01171875 408.7578125 C41.11144221 404.7287643 34.17877337 399.82167394 27.25 394.3125 C25.77853516 393.14847656 25.77853516 393.14847656 24.27734375 391.9609375 C21.92582286 390.08898135 19.58333396 388.20704328 17.25 386.3125 C16.9715625 388.1996875 16.9715625 388.1996875 16.6875 390.125 C14.55838695 399.57945304 8.29828473 408.00433852 0.25 413.3125 C-12.41344496 420.15634709 -25.82799028 423.01229922 -40 418.8125 C-51.57270439 414.35786547 -59.4687513 406.83460827 -64.9921875 395.83984375 C-69.56139431 385.31732733 -70.04434627 374.59270144 -70.01069641 363.26557922 C-70.01372279 361.8733041 -70.0176147 360.48103064 -70.02228898 359.08876008 C-70.03251537 355.29074173 -70.03040092 351.49281834 -70.02610838 347.69479239 C-70.02363131 343.58760999 -70.03266756 339.48044988 -70.04014587 335.37327576 C-70.05286853 327.33688674 -70.05468954 319.30053118 -70.05234561 311.26413379 C-70.05055926 304.72753488 -70.05231889 298.19094608 -70.05657005 291.65434837 C-70.05716524 290.72238623 -70.05776043 289.79042409 -70.05837366 288.83022067 C-70.05958547 286.93662324 -70.06079961 285.04302581 -70.06201603 283.14942839 C-70.07288259 265.40656167 -70.0707335 247.66371397 -70.06463119 229.92084619 C-70.05946506 213.71428218 -70.07071103 197.50777834 -70.08972941 181.30122624 C-70.10913584 164.63537216 -70.11735875 147.96954651 -70.11360615 131.30368108 C-70.11169808 121.95716223 -70.11414303 112.61069455 -70.12832069 103.26418495 C-70.14027141 95.30559197 -70.14159833 87.34708164 -70.12953053 79.38848744 C-70.12366711 75.33381658 -70.1224714 71.27929662 -70.13453293 67.22463608 C-70.14547817 63.5017077 -70.14218736 59.77905463 -70.12827124 56.05613866 C-70.12441969 54.09509696 -70.13510048 52.13404262 -70.14656812 50.17303067 C-70.04646974 33.47093486 -67.22679739 16.89480392 -55.4375 4.25 C-40.18435175 -9.72988716 -17.29214457 -10.55761888 0 0 Z " fill="#5DC4ED" transform="translate(95.75,240.6875)"/>
<path d="M0 0 C0.89332031 0.12117188 1.78664063 0.24234375 2.70703125 0.3671875 C35.82058061 5.35202289 68.70836466 24.05098152 88.86938477 50.9465332 C91.00423577 53.9065998 93.02553789 56.93103419 95 60 C95.38929688 60.60408691 95.77859375 61.20817383 96.1796875 61.83056641 C111.28967808 85.78218318 120.71485862 118.05637814 115.28125 146.41796875 C112.28956495 158.25201324 108.11350898 169.05564431 97.33984375 175.62109375 C81.01842484 184.24413589 64.05207196 186.32781989 45.82470703 186.22705078 C44.36453255 186.22648489 42.9043575 186.22680669 41.44418335 186.22793579 C37.52773046 186.22850336 33.6114032 186.21684703 29.69497919 186.20278788 C25.58440973 186.19017977 21.47383655 186.18910215 17.36325073 186.18673706 C9.60050954 186.18055163 1.83782552 186.1641811 -5.92489064 186.14403808 C-14.7714718 186.12158698 -23.61805588 186.11066262 -32.4646585 186.10064721 C-50.64313793 186.07981185 -68.82156435 186.04469378 -87 186 C-86.5370712 188.56934183 -86.06926888 191.13763504 -85.59863281 193.70556641 C-85.46876984 194.4292189 -85.33890686 195.1528714 -85.20510864 195.89845276 C-84.26308488 201.00894078 -82.99757558 205.67032364 -80.75 210.375 C-80.44698975 211.03435547 -80.14397949 211.69371094 -79.83178711 212.37304688 C-72.88585357 227.02930757 -62.53269778 237.7764481 -47.44140625 244.06640625 C-29.88685664 250.19421699 -9.55508242 248.12089579 7.125 240.375 C18.67615394 234.13706341 28.48091692 225.95735091 38 217 C39.98098831 215.24320517 41.97884258 213.50927909 43.98828125 211.78515625 C45.46001468 210.47917144 46.88973802 209.12541935 48.29296875 207.74609375 C56.40713658 199.91572829 64.0814693 195.81073083 75.5 195.4375 C85.81647362 195.82819552 95.58291583 198.50013587 103 206 C110.88469103 215.80306452 112.26425051 225.76635893 111 238 C107.29062257 259.19352286 90.60240816 276.61108179 74 289 C69.77598789 291.88048351 65.4552935 294.49389741 61 297 C59.96875 297.58394531 58.9375 298.16789062 57.875 298.76953125 C32.40879671 312.32906017 4.74176865 317.22764995 -23.8125 317.25 C-24.58934143 317.25067474 -25.36618286 317.25134949 -26.16656494 317.25204468 C-38.67620053 317.23483062 -50.71846116 316.53464218 -63 314 C-63.85126465 313.83371094 -64.7025293 313.66742187 -65.57958984 313.49609375 C-101.928751 306.26509466 -135.00321336 286.91963825 -156.0625 255.875 C-183.54770532 214.1395776 -188.41268031 162.23187222 -179 114 C-171.0691934 76.87746579 -150.69348898 43.32639626 -119 22 C-84.33146541 -0.15349247 -40.2809419 -6.76910503 0 0 Z " fill="#5DC4ED" transform="translate(540,344)"/>
<path d="M0 0 C1.28374512 0.00080566 2.56749023 0.00161133 3.89013672 0.00244141 C13.0612447 0.06160984 21.84187877 0.60370003 30.875 2.1875 C31.86886719 2.34347656 32.86273437 2.49945313 33.88671875 2.66015625 C68.68082961 8.43491105 101.45049928 27.65772438 122.21484375 56.4296875 C139.85169593 82.50123039 152.20904438 116.78139861 146.1484375 148.56640625 C143.53526988 159.09343517 139.85288032 169.51541408 130.875 176.1875 C126.99082641 178.48441716 123.01460327 180.39695731 118.875 182.1875 C118.16859375 182.49558594 117.4621875 182.80367187 116.734375 183.12109375 C98.8510902 189.91533384 78.94127417 188.59352063 60.16440344 188.49168181 C56.06454332 188.4727025 51.96467389 188.47114808 47.86477661 188.46760559 C40.13046659 188.45834667 32.39628647 188.43381792 24.6620332 188.40355712 C15.84438964 188.36981938 7.0267393 188.35347881 -1.79095292 188.33847082 C-19.9023751 188.30726152 -38.01367704 188.25462322 -56.125 188.1875 C-55.55165015 191.17608138 -54.96362437 194.16054455 -54.3671875 197.14453125 C-54.12971802 198.39466003 -54.12971802 198.39466003 -53.88745117 199.67004395 C-51.54514339 211.23273116 -45.98579768 222.34670898 -38.125 231.1875 C-37.62871094 231.7753125 -37.13242188 232.363125 -36.62109375 232.96875 C-27.49976777 242.99121903 -14.09782795 248.80390993 -0.65625 249.49609375 C28.05353117 250.23324903 48.53145473 238.33054898 68.875 219.1875 C70.85598831 217.43070517 72.85384258 215.69677909 74.86328125 213.97265625 C76.33501468 212.66667144 77.76473802 211.31291935 79.16796875 209.93359375 C87.28213658 202.10322829 94.9564693 197.99823083 106.375 197.625 C116.83572385 198.02115843 126.25199018 200.78569359 133.875 208.1875 C140.26745863 215.1935205 142.26164626 222.12473451 142.1875 231.5 C142.18186035 232.24983154 142.1762207 232.99966309 142.17041016 233.7722168 C142.04154354 239.67520088 141.23402214 244.73394312 138.875 250.1875 C138.48441406 251.115625 138.09382813 252.04375 137.69140625 253 C124.62000391 281.43863171 96.95711186 299.18981683 68.625 310.0625 C25.48843094 325.72261023 -29.29471835 323.30336382 -70.97070312 304.21533203 C-104.99775762 287.98075594 -129.15904475 259.19657056 -142.109375 224.203125 C-144.65741599 216.99783131 -146.42706771 209.63037794 -148.125 202.1875 C-148.32867188 201.40503906 -148.53234375 200.62257813 -148.7421875 199.81640625 C-159.6376383 156.82128118 -151.4457425 105.33966654 -128.984375 67.25341797 C-109.68337443 35.73649246 -80.06495402 14.46858768 -44.24658203 5.46386719 C-29.32590514 1.90294995 -15.35752478 -0.01001012 0 0 Z " fill="#5DC4ED" transform="translate(1432.125,341.8125)"/>
<path d="M0 0 C0.78761719 0.25652344 1.57523438 0.51304687 2.38671875 0.77734375 C13.07122487 4.58973261 20.44802973 11.12501121 26 21 C31.3380788 32.52691392 32.29704324 44.3096604 32.30297852 56.86230469 C32.31065953 58.21888728 32.31920958 59.57546519 32.32855225 60.93203735 C32.34669703 63.83202362 32.35882065 66.73194717 32.36609077 69.6319809 C32.3776858 74.23252654 32.40319086 78.83293468 32.43040466 83.43341064 C32.4719137 90.7214659 32.50438496 98.00952813 32.53287882 105.29764485 C32.58390506 118.32229362 32.64658464 131.34688127 32.71821922 144.37143254 C32.74288218 148.92921596 32.76242861 153.48698241 32.77760136 158.04480696 C32.78793334 160.89935727 32.8020788 163.75388066 32.81707764 166.60840988 C32.82599474 168.52936363 32.83027988 170.45033721 32.83433533 172.37130737 C32.94968245 192.14685618 33.11657949 215.99582151 48 231 C54.62067611 236.23763352 61.30383295 238.37014032 69.75 238.25 C70.81323486 238.23658569 70.81323486 238.23658569 71.89794922 238.22290039 C87.43066918 237.88107428 100.46201641 231.9509122 111.3671875 220.94921875 C122.07588652 208.95356925 124.24371921 195.09208822 125.16821289 179.48583984 C125.28776762 177.60642732 125.28776762 177.60642732 125.40973759 175.68904686 C126.13150307 163.45550375 126.29543343 151.23568412 126.30496025 138.98360062 C126.30872032 135.09569187 126.32569065 131.20801727 126.34571838 127.32015991 C126.39749551 116.99077593 126.42889306 106.66135173 126.451644 96.33186567 C126.46831394 88.8237942 126.49854487 81.3159351 126.54106331 73.80796432 C126.55261797 71.2414171 126.55864281 68.67483816 126.55874443 66.10826492 C126.56078101 28.43892985 126.56078101 28.43892985 138.25 12.6875 C147.52120573 3.62700349 159.1281604 -2.16336795 172.25 -2.125 C174.16678825 -2.0893625 176.08348097 -2.04797961 178 -2 C179.06541016 -2.02707031 179.06541016 -2.02707031 180.15234375 -2.0546875 C189.35952912 -1.80727753 200.2643208 4.08217404 207.0625 10.125 C220.64060937 25.8770324 220.45020117 46.17708412 220.41992188 65.72998047 C220.42727504 67.99029964 220.43586486 70.25061507 220.44558716 72.51092529 C220.46767833 78.61019118 220.47074015 84.70932149 220.46883965 90.80862188 C220.46871939 95.91761905 220.4773057 101.02658805 220.48561716 106.13557732 C220.50590014 118.88445764 220.50701793 131.6332383 220.49981004 144.38212289 C220.49423633 155.41460737 220.51506421 166.44685953 220.54817051 177.47928976 C220.5820265 188.85118841 220.59658832 200.22294295 220.59245348 211.59490502 C220.59039418 217.96189929 220.59573869 224.32866192 220.62034607 230.69561386 C220.64273684 236.68604712 220.64063308 242.67599907 220.62041855 248.66643524 C220.61703049 250.85238907 220.62200126 253.03837611 220.63640213 255.22428513 C220.74794037 273.42425201 219.30565461 290.28570727 206.0546875 304.015625 C201.82412096 307.96415377 197.36901955 310.84626782 192 313 C191.12085937 313.35835937 190.24171875 313.71671875 189.3359375 314.0859375 C185.07461683 315.25355932 181.14843093 315.3428819 176.75 315.3125 C175.9038916 315.30686035 175.0577832 315.3012207 174.18603516 315.29541016 C163.72838595 315.09217318 156.24876859 312.49721519 148 306 C146.98099609 305.22269531 146.98099609 305.22269531 145.94140625 304.4296875 C138.80233767 298.22301189 135.6380938 289.51468762 132 281 C131.50113281 281.47308594 131.00226562 281.94617188 130.48828125 282.43359375 C111.46903109 299.95042559 89.32917211 309.61553512 64 314 C62.60189087 314.25910156 62.60189087 314.25910156 61.17553711 314.5234375 C45.96197482 316.80658301 28.83456895 316.02375563 14 312 C13.34676758 311.82839355 12.69353516 311.65678711 12.02050781 311.47998047 C-2.47260615 307.60568651 -15.221123 301.41577415 -27 292 C-27.75667969 291.41992188 -28.51335938 290.83984375 -29.29296875 290.2421875 C-50.03533943 273.28116935 -57.78886372 246.66534238 -60.80762267 221.0282917 C-61.42628967 214.5055005 -61.28573279 207.92977183 -61.2746582 201.38476562 C-61.2790164 199.66159344 -61.2842032 197.93842319 -61.29014587 196.21525574 C-61.30342542 191.57684072 -61.30412718 186.93850773 -61.30158257 182.30007744 C-61.3005057 178.41114933 -61.30541422 174.52223733 -61.310188 170.6333127 C-61.32124413 161.45230664 -61.32174206 152.27134151 -61.31567383 143.09033203 C-61.30963165 133.65288977 -61.32196026 124.2155965 -61.3432439 114.77817965 C-61.36091305 106.64100594 -61.36685306 98.50387945 -61.36360615 90.3666873 C-61.36180223 85.52174536 -61.36434013 80.67690984 -61.37832069 75.83198547 C-61.39098203 71.27473082 -61.38887722 66.71770719 -61.37590981 62.1604557 C-61.37356277 60.49893932 -61.37621056 58.83740624 -61.38453293 57.17590904 C-61.46845185 39.10378427 -59.31222448 22.76471346 -46.33984375 9.2734375 C-33.99343773 -2.10977373 -15.80590197 -5.26863399 0 0 Z " fill="#66B32F" transform="translate(2469,345)"/>
<path d="M0 0 C6.36498519 5.52114246 11.6530781 12.64141213 14.0625 20.7890625 C14.0625 22.1090625 14.0625 23.4290625 14.0625 24.7890625 C14.72894531 24.2321875 15.39539062 23.6753125 16.08203125 23.1015625 C45.657938 -1.38646099 76.39073555 -11.52385656 115.0625 -9.2109375 C142.33089005 -6.61039714 168.42753951 5.62255307 186.0625 26.7890625 C189.48340342 31.22447452 192.31999636 35.91167578 195.0625 40.7890625 C195.69800781 41.88605469 196.33351563 42.98304688 196.98828125 44.11328125 C204.42543441 57.82503473 207.74319307 73.15798011 208.61393738 88.6569519 C208.67700727 89.76372656 208.67700727 89.76372656 208.74135131 90.89286029 C209.16599017 98.89584622 209.22563474 106.89039637 209.23950195 114.90283203 C209.24579049 116.53615454 209.25243924 118.16947569 209.25941467 119.80279541 C209.28014764 125.09247904 209.29077742 130.38216203 209.30078125 135.671875 C209.30483828 137.50940845 209.30895544 139.34694176 209.31313133 141.18447495 C209.33210344 149.81231631 209.34635915 158.44014947 209.3547433 167.06800759 C209.3645311 176.97027619 209.39092451 186.87232222 209.43124419 196.77451241 C209.46150198 204.4735415 209.47622069 212.17250697 209.47952431 219.87159431 C209.48186058 224.45109979 209.4906366 229.03036525 209.51598549 233.60980606 C209.53944677 237.91598401 209.54342788 242.22176668 209.53322411 246.52799225 C209.53273326 248.09557546 209.53891825 249.66317945 209.55278015 251.23070145 C209.69212563 267.93960872 206.64939863 283.87307954 194.9375 296.6015625 C185.09449839 305.87925658 173.15878749 309.2662011 159.91015625 309.03125 C147.35800036 308.24116506 137.36598253 303.65885207 128.6875 294.4765625 C119.95369893 283.92098697 115.96861846 270.33490353 115.91773987 256.73532104 C115.90739212 254.94884659 115.90739212 254.94884659 115.89683533 253.12628174 C115.89291527 251.18601105 115.89291527 251.18601105 115.88891602 249.20654297 C115.88260354 247.81940506 115.87583698 246.43226916 115.86865234 245.0451355 C115.85401836 242.06268612 115.84227823 239.08024436 115.83270454 236.09777451 C115.81716754 231.36186903 115.793212 226.62602871 115.76780701 221.89016724 C115.69684995 208.42405343 115.63717228 194.95790105 115.58569336 181.49169922 C115.55717141 174.0502745 115.5216674 166.60891347 115.47903961 159.16755593 C115.45688914 155.24119704 115.43827582 151.31489596 115.42859077 147.38848495 C116.02760381 116.0399704 116.02760381 116.0399704 109.0625 85.7890625 C108.76472656 85.01175781 108.46695313 84.23445313 108.16015625 83.43359375 C105.43263983 77.19425362 101.5381351 73.42286469 95.38671875 70.53125 C83.74542035 66.30074003 68.98946929 65.44812017 57.4765625 70.52734375 C56.67992188 70.94371094 55.88328125 71.36007812 55.0625 71.7890625 C54.20398437 72.23636719 53.34546875 72.68367188 52.4609375 73.14453125 C38.62864962 80.93825236 29.61298378 92.47802297 25.0625 107.7890625 C23.94027233 113.39878209 23.47379766 119.0895851 23.0625 124.7890625 C22.98077042 125.7714238 22.89904083 126.7537851 22.81483459 127.76591492 C21.88958237 140.22789406 21.91147531 152.6806698 21.89383507 165.17175484 C21.88657693 169.24760619 21.87118884 173.32334404 21.85249329 177.39915466 C21.84615947 178.80599686 21.83983381 180.21283909 21.83351612 181.61968136 C21.83035031 182.32323155 21.8271845 183.02678175 21.82392275 183.75165164 C21.78215759 193.21129251 21.74885972 202.670888 21.73657227 212.13061523 C21.72814478 218.55363038 21.70549885 224.97643252 21.6672166 231.39934105 C21.6476436 234.78061341 21.63723388 238.16129506 21.64005089 241.54266548 C21.65249256 261.33569414 21.5169312 280.25853057 7.6875 295.9765625 C-1.48646759 304.61508451 -13.89720055 309.13912198 -26.29296875 309 C-39.71056572 308.22341883 -50.75579298 304.10579221 -60.0546875 294.2421875 C-71.8713846 278.84615891 -72.38341602 261.68314272 -72.34155273 243.0925293 C-72.34726217 240.79985218 -72.35422865 238.5071779 -72.36235046 236.21450806 C-72.38023471 230.01395475 -72.37912221 223.81354333 -72.37340808 217.61297202 C-72.37030898 212.42440812 -72.37641679 207.23587118 -72.38244683 202.04731113 C-72.39727603 189.10075686 -72.3936918 176.15429102 -72.38158352 163.20773832 C-72.37165713 151.99591448 -72.38458653 140.78425582 -72.40851771 129.57245746 C-72.43297382 118.0266457 -72.44210191 106.48092944 -72.43586498 94.93509036 C-72.43250422 88.4664324 -72.4348518 81.9979108 -72.45211601 75.52927208 C-72.46765213 69.44290489 -72.46355565 63.35685146 -72.44481087 57.27049637 C-72.44114324 55.04662063 -72.44417963 52.82272131 -72.45469666 50.59886742 C-72.52279174 34.99972163 -72.0585714 20.14592558 -62.9375 6.7890625 C-62.23625 5.7578125 -61.535 4.7265625 -60.8125 3.6640625 C-45.12900899 -13.87604115 -18.04560022 -12.9371031 0 0 Z " fill="#66B32F" transform="translate(2811.9375,352.2109375)"/>
<path d="M0 0 C1.13453613 0.00273422 1.13453613 0.00273422 2.29199219 0.00552368 C42.20113049 0.16632935 81.95772961 9.41986753 111.625 37.5 C122.03117866 48.18544052 129.94163722 62.23637576 130.5625 77.4375 C130.05863509 87.54203421 127.01282532 96.92544038 120 104.3125 C119.12021484 105.25222656 119.12021484 105.25222656 118.22265625 106.2109375 C108.82542876 115.31990648 96.72427446 116.61655086 84.23486328 116.62719727 C69.42534991 116.38769413 60.4825355 108.18402996 50.4765625 97.9921875 C47.99210829 95.30396102 45.67194768 92.53697805 43.375 89.6875 C35.22618641 79.6254867 26.22625368 70.29012766 12.63671875 68.640625 C11.09258211 68.51256028 9.54677219 68.40335323 8 68.3125 C7.24533447 68.26794678 6.49066895 68.22339355 5.71313477 68.17749023 C-8.4628173 67.53855281 -21.74570072 68.65492052 -33 78.3125 C-35.98736259 82.79354389 -35.57987534 87.06269523 -35 92.3125 C-31.18375932 100.4901586 -18.7032497 104.02193346 -10.78442383 107.0234375 C-4.50912947 109.16094825 1.89341807 110.70875648 8.33682251 112.24981689 C12.3409633 113.20829052 16.33777973 114.19661507 20.3359375 115.1796875 C21.10788956 115.36864594 21.87984161 115.55760437 22.67518616 115.75228882 C30.83976966 117.75357565 38.93484525 119.94376333 47 122.3125 C47.88365234 122.56708984 48.76730469 122.82167969 49.67773438 123.08398438 C73.517796 129.97111329 96.62399638 138.35241405 116 154.3125 C116.79792969 154.94671875 117.59585938 155.5809375 118.41796875 156.234375 C133.70055195 168.96547701 141.59736057 185.90539825 144 205.3125 C146.14492794 230.04604556 139.78916146 255.86543669 123.78515625 275.2109375 C123.19605469 275.90445312 122.60695313 276.59796875 122 277.3125 C121.44183594 278.02664063 120.88367188 278.74078125 120.30859375 279.4765625 C102.15427615 301.66952959 70.46373059 312.53907421 43 316.3125 C41.7521875 316.51488281 40.504375 316.71726562 39.21875 316.92578125 C1.45096583 322.51793761 -41.96295001 319.19011258 -76 301.3125 C-76.64098633 300.9810498 -77.28197266 300.64959961 -77.94238281 300.30810547 C-101.05320732 288.20890911 -117.94502265 270.16785868 -126 245.3125 C-128.67367417 233.19844544 -128.77303677 218.99184634 -122 208.3125 C-115.00273983 198.86752905 -106.74959546 192.29856065 -95 190.3125 C-82.53226425 189.00496252 -71.75997171 190.38820027 -61.6875 198.5 C-56.44756011 203.52430451 -52.69117698 209.58608312 -48.87890625 215.71484375 C-39.09941675 231.38172295 -28.3610962 243.22871992 -9.84716797 247.84985352 C-3.24535003 249.32884503 3.12334663 249.66150703 9.875 249.625 C10.93203125 249.62081055 11.9890625 249.61662109 13.078125 249.61230469 C20.38710937 249.5062793 27.12680291 248.98797269 34 246.3125 C34.72703125 246.0340625 35.4540625 245.755625 36.203125 245.46875 C41.72443492 243.02420057 48.2448626 238.82277481 51 233.3125 C52.04904213 222.65163676 52.04904213 222.65163676 48.09375 213.10546875 C34.44174687 201.41466756 13.15560604 197.10002442 -3.90405273 193.22363281 C-20.56993821 189.40704143 -37.02805711 184.4172629 -53 178.3125 C-53.7017334 178.04469727 -54.4034668 177.77689453 -55.12646484 177.50097656 C-80.492845 167.7020188 -106.13214679 153.40858801 -117.84082031 127.44824219 C-119.46471466 123.47293214 -120.80384465 119.43419191 -122 115.3125 C-122.36609375 114.07371094 -122.7321875 112.83492188 -123.109375 111.55859375 C-124.30422706 106.64034499 -124.34284411 101.79064041 -124.3125 96.75 C-124.30758545 95.78271973 -124.3026709 94.81543945 -124.29760742 93.81884766 C-123.91482086 70.1803054 -114.09084817 49.80935566 -97.6953125 32.94140625 C-71.37827088 8.04807344 -35.2101091 -0.17778455 0 0 Z " fill="#5DC4ED" transform="translate(810,342.6875)"/>
<path d="M0 0 C0.75023437 0.52980469 1.50046875 1.05960937 2.2734375 1.60546875 C16.60759497 12.19262716 28.83575542 25.95790978 32 44 C33.30851645 55.87730316 32.43014116 66.29977608 25.35546875 76.33203125 C21.80936477 80.64659117 17.87667736 84.26477777 13 87 C12.30261719 87.39316406 11.60523438 87.78632813 10.88671875 88.19140625 C4.38891203 91.16568142 -2.02989379 91.41720819 -9.0625 91.5 C-9.98426025 91.51844971 -10.90602051 91.53689941 -11.85571289 91.5559082 C-25.60190114 91.4322892 -34.50671886 84.47957889 -44 75.25 C-47.41603956 71.7705046 -50.56539523 68.17059217 -53.625 64.375 C-61.64359057 54.47378382 -70.92675661 44.95455823 -84.25 43.0625 C-85.83247276 43.00630003 -87.41654498 42.99302443 -89 43 C-90.37637249 42.95387817 -91.752669 42.90546355 -93.12890625 42.85546875 C-106.32013764 42.48780302 -118.18821233 43.60906802 -129 52 C-131.9072186 55.07594111 -132.43167464 57.23741306 -132.4375 61.4375 C-132.31362046 64.77339917 -132.10849733 66.76750571 -130.6875 69.8125 C-117.99352991 80.14480124 -101.48199554 83.84903439 -85.92773438 87.56356812 C-8.90232416 106.01675225 -8.90232416 106.01675225 19 129 C19.79792969 129.63421875 20.59585937 130.2684375 21.41796875 130.921875 C36.69816186 143.65098595 44.60170012 160.59385152 47 180 C49.22748004 205.85523017 41.71872879 232.05233217 25 252 C24.44054688 252.71671875 23.88109375 253.4334375 23.3046875 254.171875 C3.59876154 278.22845993 -31.27504216 288.78247351 -61 292 C-71.69767243 292.89585021 -82.39107219 293.2392444 -93.125 293.25 C-94.19184525 293.25151062 -94.19184525 293.25151062 -95.28024292 293.25305176 C-113.2785129 293.23596821 -130.73377876 291.20858539 -148 286 C-148.66773438 285.80067871 -149.33546875 285.60135742 -150.0234375 285.39599609 C-176.61929169 277.24787945 -202.18177689 261.66712133 -216.03027344 236.86474609 C-223.22155369 223.03619661 -226.99694449 206.92092173 -222.875 191.5 C-218.96707765 180.79411041 -211.35496999 172.75809271 -201.15234375 167.82421875 C-191.41242158 164.09441189 -179.40762498 162.90942547 -169.4375 166.625 C-157.79808353 172.2969999 -150.96820371 181.44519718 -144.625 192.4375 C-138.6677749 202.69222579 -131.45127787 211.09358976 -121 217 C-120.08541016 217.56460938 -120.08541016 217.56460938 -119.15234375 218.140625 C-104.96242129 226.214721 -83.54888993 226.35037909 -68 222.75 C-66.31616213 222.21826173 -64.64552807 221.64054113 -63 221 C-62.27296875 220.7215625 -61.5459375 220.443125 -60.796875 220.15625 C-55.27556508 217.71170057 -48.7551374 213.51027481 -46 208 C-44.95095787 197.33913676 -44.95095787 197.33913676 -48.90625 187.79296875 C-62.55825313 176.10216756 -83.84439396 171.78752442 -100.90405273 167.91113281 C-117.56993821 164.09454143 -134.02805711 159.1047629 -150 153 C-150.7017334 152.73219727 -151.4034668 152.46439453 -152.12646484 152.18847656 C-177.492845 142.3895188 -203.13214679 128.09608801 -214.84082031 102.13574219 C-216.46471466 98.16043214 -217.80384465 94.12169191 -219 90 C-219.36609375 88.76121094 -219.7321875 87.52242188 -220.109375 86.24609375 C-225.09982377 65.70441391 -219.32327718 43.65811817 -209.15234375 25.74609375 C-192.57955486 -0.35519799 -165.70986101 -15.26245476 -136 -22 C-92.99128704 -31.3851217 -36.33804052 -26.43319001 0 0 Z " fill="#5DC4ED" transform="translate(1205,368)"/>
<path d="M0 0 C6.25887072 5.17416604 9.62751897 11.29052292 12.9609375 18.62109375 C16.75854084 15.4564243 20.31842218 12.27937961 23.7109375 8.68359375 C35.96134169 -3.59023378 52.22287224 -8.57314793 69.2734375 -8.62890625 C93.26348786 -8.59818635 119.36668084 -1.50934244 136.9609375 15.62109375 C146.36302156 26.60500292 148.3648567 38.06248258 147.30566406 52.17529297 C145.92637487 61.96121301 139.6841987 70.69561216 131.9609375 76.62109375 C122.89455827 82.76231319 113.89959964 85.53590237 102.9609375 84.62109375 C99.01090038 83.76028251 95.22531585 82.54142396 91.3984375 81.24609375 C76.90253867 76.47553708 60.30393965 71.64380075 45.7265625 78.703125 C33.81173718 85.64011222 29.68582372 98.87597785 26.3359375 111.49609375 C18.43047018 145.11618995 20.59467955 180.94680771 20.44525146 215.21875 C20.41386303 222.26121638 20.37464261 229.30355465 20.32499695 236.34591675 C20.30516537 239.60506002 20.29666769 242.86410056 20.28869629 246.12329102 C20.16018981 271.16641636 20.16018981 271.16641636 14.7734375 282.87109375 C14.46374023 283.55292725 14.15404297 284.23476074 13.83496094 284.93725586 C8.30555063 296.63613233 -0.7554336 303.4427334 -12.7890625 308.05859375 C-23.49178027 311.2791262 -34.63321827 310.49381895 -45.0390625 306.62109375 C-45.73257812 306.36585938 -46.42609375 306.110625 -47.140625 305.84765625 C-56.81310656 301.64725589 -64.96109938 293.28548283 -69.0390625 283.62109375 C-70.72166442 278.3721218 -71.91000971 273.01159706 -73.0390625 267.62109375 C-73.21673755 266.90375596 -73.39441259 266.18641817 -73.57747173 265.44734287 C-74.21519702 261.54264925 -74.18710918 257.71464283 -74.18623352 253.76438904 C-74.18991021 252.87176316 -74.1935869 251.97913728 -74.197375 251.05946213 C-74.20838994 248.06754898 -74.2122521 245.0756706 -74.21606445 242.08374023 C-74.22233116 239.93813975 -74.22897815 237.79254036 -74.23597717 235.64694214 C-74.25700971 228.59536493 -74.26738445 221.54378754 -74.27734375 214.4921875 C-74.28139276 212.05920971 -74.28550972 209.62623203 -74.28969383 207.19325447 C-74.3087502 195.75205235 -74.32297568 184.31085666 -74.3313058 172.86964172 C-74.34105543 159.69818771 -74.36731356 146.52690278 -74.40780669 133.35550827 C-74.43807839 123.1556025 -74.45278545 112.95574485 -74.45608681 102.75579506 C-74.4584263 96.67417621 -74.46724131 90.59273785 -74.49254799 84.51116753 C-74.51602513 78.77619119 -74.51998382 73.04151163 -74.50978661 67.30649948 C-74.50929574 65.21694889 -74.51548119 63.12738271 -74.52934265 61.03787804 C-74.66200511 39.82945151 -73.03496374 18.03552619 -58.0390625 1.62109375 C-41.19191555 -11.70652634 -17.59864581 -12.73836998 0 0 Z " fill="#5DC4ED" transform="translate(1693.0390625,351.37890625)"/>
<path d="M0 0 C6.25887072 5.17416604 9.62751897 11.29052292 12.9609375 18.62109375 C16.75854084 15.4564243 20.31842218 12.27937961 23.7109375 8.68359375 C35.93837961 -3.56722779 52.18686462 -8.5746266 69.2109375 -8.62890625 C93.49934078 -8.57770247 119.00745952 -1.59834083 136.9609375 15.62109375 C146.37117967 26.59084875 148.36405833 38.07312015 147.30566406 52.17529297 C145.92637487 61.96121301 139.6841987 70.69561216 131.9609375 76.62109375 C123.13256734 82.60109493 113.67642535 86.03412511 102.9609375 84.62109375 C97.94387231 83.4558399 93.04525695 81.84651131 88.13525391 80.30126953 C75.53897226 76.36086523 60.6149182 72.02979715 47.7734375 77.30859375 C45.75222418 78.4041507 45.75222418 78.4041507 43.9609375 79.62109375 C42.4140625 80.61109375 42.4140625 80.61109375 40.8359375 81.62109375 C22.91619772 98.25378039 21.82459881 131.94325698 20.9609375 154.62109375 C20.78924334 161.76374319 20.76386938 168.9084911 20.73114204 176.05288124 C20.71446032 179.56510304 20.69122312 183.07722915 20.66624451 186.58940125 C20.59616554 196.56191093 20.53528655 206.53445533 20.48413086 216.50708008 C20.4522114 222.64108096 20.41092612 228.77496192 20.36393547 234.90886497 C20.34802101 237.22948231 20.33565138 239.55012697 20.32702827 241.87078285 C20.21693664 271.04311325 20.21693664 271.04311325 14.7734375 282.87109375 C14.46374023 283.55292725 14.15404297 284.23476074 13.83496094 284.93725586 C8.30555063 296.63613233 -0.7554336 303.4427334 -12.7890625 308.05859375 C-23.49178027 311.2791262 -34.63321827 310.49381895 -45.0390625 306.62109375 C-45.73257813 306.36585938 -46.42609375 306.110625 -47.140625 305.84765625 C-56.66899947 301.70983626 -63.88649024 294.00813448 -68.0390625 284.62109375 C-68.40644531 283.83992188 -68.77382812 283.05875 -69.15234375 282.25390625 C-74.90730679 269.15351765 -74.33742344 255.3021922 -74.32958984 241.2890625 C-74.33558285 239.14242827 -74.34239017 236.99579618 -74.34994507 234.84916687 C-74.36753695 229.04498905 -74.37229766 223.2408703 -74.37357664 217.4366684 C-74.37500305 213.8008107 -74.37928199 210.16496778 -74.38457108 206.52911377 C-74.40305124 193.81708837 -74.41124451 181.10510479 -74.40966797 168.39306641 C-74.40846823 156.58932373 -74.42954299 144.78576439 -74.4611553 132.98206806 C-74.48741139 122.81173763 -74.49803131 112.64146672 -74.49675715 102.47110271 C-74.49625011 96.41307302 -74.50178908 90.35520629 -74.52311325 84.29721069 C-74.54265264 78.59085446 -74.54251396 72.88481399 -74.52807999 67.17844582 C-74.52600988 65.10018254 -74.53058348 63.02189867 -74.5428009 60.94367027 C-74.6592127 39.74536005 -72.99235573 18.03818828 -58.0390625 1.62109375 C-41.51512052 -11.82255573 -17.24402517 -12.48168609 0 0 Z " fill="#66B330" transform="translate(2256.0390625,351.37890625)"/>
<path d="M0 0 C0.35267138 9.14721545 -0.62356555 17.70384175 -2.3125 26.6875 C-2.43982513 27.36898102 -2.56715027 28.05046204 -2.69833374 28.75259399 C-7.25047218 52.68890108 -15.63402338 75.98801931 -26 98 C-26.38478516 98.82709473 -26.76957031 99.65418945 -27.16601562 100.50634766 C-45.85766309 140.35993807 -75.01121534 179.14428716 -117 196 C-121.29519361 197.48886985 -125.61308575 198.80996161 -130 200 C-131.17820312 200.35964844 -132.35640625 200.71929687 -133.5703125 201.08984375 C-139.32560765 202.50385728 -145.16912846 202.34110265 -151.0625 202.3125 C-152.26898193 202.30686035 -153.47546387 202.3012207 -154.71850586 202.29541016 C-163.53277069 202.17550434 -171.50690453 201.50293211 -180 199 C-180.71446289 198.79068848 -181.42892578 198.58137695 -182.16503906 198.36572266 C-191.93435698 195.44978556 -201.05996476 191.9433136 -210 187 C-208.37465596 185.26979506 -206.72310038 183.63071971 -205 182 C-204.33355469 181.35289062 -203.66710938 180.70578125 -202.98046875 180.0390625 C-197.36827583 175.06573567 -197.36827583 175.06573567 -193.8046875 174.89453125 C-191.44003297 175.4157723 -189.26919188 176.15556302 -187 177 C-185.1716067 177.53791861 -183.33795394 178.05821459 -181.5 178.5625 C-180.6646875 178.81128906 -179.829375 179.06007813 -178.96875 179.31640625 C-162.41414033 183.12832295 -144.04343566 182.37129295 -128 177 C-126.89785156 176.63777344 -125.79570312 176.27554688 -124.66015625 175.90234375 C-100.51529848 167.26872794 -80.59929998 151.14162488 -65 131 C-64.34773438 130.21367187 -63.69546875 129.42734375 -63.0234375 128.6171875 C-44.97472103 106.82929471 -30.81510765 79.88802156 -21.25 53.375 C-21.00991211 52.71943115 -20.76982422 52.0638623 -20.52246094 51.38842773 C-19.08986581 47.15983647 -18.71416961 43.44686125 -19 39 C-19.85219923 36.89757556 -19.85219923 36.89757556 -22 36 C-24.750837 35.54152717 -27.28639844 35.3051867 -30 36 C-33.62099181 39.4275037 -34.80600086 44.606508 -36.4375 49.1875 C-48.01648294 80.48182554 -64.75205929 108.22136669 -87 133 C-87.61230469 133.68578125 -88.22460938 134.3715625 -88.85546875 135.078125 C-105.17915653 152.32883703 -128.61946557 164.6941534 -152.4140625 166.21875 C-172.46489636 166.72529738 -190.83402014 161.25594559 -208 151 C-209.06538821 114.97409498 -202.57272628 76.00630865 -177.4375 48.5 C-175.65720538 46.62912953 -173.83922733 44.81477674 -172 43 C-171.26136719 42.26265625 -170.52273437 41.5253125 -169.76171875 40.765625 C-163.81643191 35.15727398 -157.07882142 31.03510213 -150 27 C-149.17757812 26.525625 -148.35515625 26.05125 -147.5078125 25.5625 C-134.40337612 18.50287098 -121.72620414 16.25806312 -107.06640625 16.58203125 C-105.49334306 16.59650833 -103.92025409 16.60838662 -102.34715271 16.61784363 C-98.24837627 16.64789759 -94.15056776 16.70633111 -90.05224609 16.77325439 C-83.50153681 16.87651254 -76.95044986 16.94011416 -70.39918327 16.99506187 C-68.14769252 17.01867861 -65.89687733 17.05737433 -63.64564514 17.0983429 C-56.33214514 17.20139288 -49.1691936 16.96175345 -41.89819336 16.1237793 C-41.21548905 16.04539983 -40.53278475 15.96702036 -39.82939243 15.88626575 C-25.91358999 14.104008 -14.42202124 7.8856735 -2.52783203 0.83862305 C-1 0 -1 0 0 0 Z " fill="#66B330" transform="translate(2779,114)"/>
<path d="M0 0 C15.24249434 -0.4841366 28.04095038 3.80997947 39.25 14.25390625 C56.83394002 32.80092426 60.99272706 57.40596878 61 81.94140625 C61.00190338 82.62811401 61.00380676 83.31482178 61.00576782 84.02233887 C61.0016075 97.2854584 60.42771882 110.92668597 55.875 123.50390625 C55.60896973 124.25824951 55.34293945 125.01259277 55.06884766 125.78979492 C49.26092127 141.78474873 39.15766478 155.47157884 23.625 163.19140625 C20.6647784 164.40818445 17.72279212 165.39395481 14.625 166.19140625 C14.04492188 166.37445312 13.46484375 166.5575 12.8671875 166.74609375 C-0.71138686 169.44288378 -15.90810359 166.96310283 -27.74609375 159.984375 C-44.26279375 148.71964202 -53.98024682 131.99519721 -57.9375 112.61083984 C-63.06358433 84.26290696 -60.76516617 50.41130776 -44.55224609 25.86132812 C-35.58084969 13.13541535 -23.15297177 3.58692593 -7.6875 0.44140625 C-5.12798408 0.24015399 -2.56359971 0.14538934 0 0 Z " fill="#FEFEFE" transform="translate(178.375,417.80859375)"/>
<path d="M0 0 C17.53581091 13.64179194 26.36960389 32.61861771 29.1875 54.4921875 C32.03655004 81.85713727 30.34184333 108.90698563 12.69140625 131.09375 C12.2221875 131.72539063 11.75296875 132.35703125 11.26953125 133.0078125 C3.75712043 142.58824652 -8.43252927 149.11864718 -20.22265625 151.7421875 C-35.94763734 153.53364104 -52.06757354 152.1479659 -64.90625 142.05078125 C-67.46390676 139.80945609 -69.90011715 137.49410358 -72.30859375 135.09375 C-73.28505859 134.15208984 -73.28505859 134.15208984 -74.28125 133.19140625 C-90.31171055 116.52677363 -91.79246838 88.78339876 -91.59130859 66.9921875 C-91.13431614 44.58211483 -86.39650765 22.20622813 -70.171875 5.79296875 C-51.19974567 -12.09208086 -21.77131829 -14.95787807 0 0 Z " fill="#FEFEFE" transform="translate(2015.30859375,426.90625)"/>
<path d="M0 0 C2.27815745 1.65258171 2.92081149 2.52220587 3.38476562 5.3215332 C3.39185547 6.22218506 3.39894531 7.12283691 3.40625 8.05078125 C3.4256665 9.05238281 3.44508301 10.05398438 3.46508789 11.0859375 C3.47660889 12.15070312 3.48812988 13.21546875 3.5 14.3125 C4.27077528 40.96437161 14.19780192 58.83997407 32.296875 78.11328125 C34.82351268 80.81152583 37.29323536 83.55072887 39.75 86.3125 C42.25774168 89.11370082 44.79885598 91.82308996 47.5 94.4375 C52.07946275 98.94258632 56.0093547 103.97691252 60 109 C60.54785156 109.65742187 61.09570312 110.31484375 61.66015625 110.9921875 C78.72575912 132.19904333 80.68808028 159.91052541 79 186 C75.24158624 216.67638107 56.82564683 243.25400084 36 265 C35.52836426 265.49886719 35.05672852 265.99773437 34.57080078 266.51171875 C26.9782681 274.51306033 18.81283994 281.37901329 10 288 C9.3503125 288.59683594 8.700625 289.19367188 8.03125 289.80859375 C4.91635714 291.63559821 2.55621038 291.32872533 -1 291 C-3.61070292 290.2636479 -5.99436765 289.49050437 -8.5 288.5 C-9.18924561 288.23300293 -9.87849121 287.96600586 -10.58862305 287.69091797 C-37.5725854 276.91947876 -59.85083637 258.32432808 -71.53979492 231.4309082 C-87.64303129 192.49313004 -77.18767444 148.38160577 -62 111 C-43.4459571 66.72297855 -43.4459571 66.72297855 -34 62 C-30.16385043 61.64480097 -27.85370366 61.45275406 -24.5625 63.5625 C-22.38854163 66.95387505 -22.61311756 69.00770251 -23 73 C-24.34535013 75.54770209 -25.67463863 77.72434732 -27.3125 80.0625 C-51.43244196 116.71752243 -67.18258182 164.31448056 -61.375 208.5 C-56.94209587 229.3499353 -45.52369341 247.73856277 -27.77587891 259.72900391 C-21.13924596 264.01170325 -14.18951916 267.73203675 -7 271 C-6.16597656 271.40347656 -5.33195312 271.80695313 -4.47265625 272.22265625 C-1.45978967 273.16982916 0.01851142 273.00636996 3 272 C28.98959916 255.6767079 52.08854144 224.48556193 59.75 194.75 C60.17683171 192.83557139 60.59416339 190.91898902 61 189 C61.30744141 187.77410156 61.30744141 187.77410156 61.62109375 186.5234375 C66.15741902 167.31444637 61.89692632 144.16607658 52.4375 127 C46.29265558 117.38680268 38.14466827 108.93270526 30.0078125 101 C27.48734617 98.48934093 25.17355788 95.84000796 22.86328125 93.13671875 C21.51589817 91.5916065 20.13348363 90.07680959 18.73046875 88.58203125 C0.6104156 69.26348639 -10.20770231 49.47755224 -13 23 C-33.19414532 40.0352846 -49.00486668 61.10163953 -62 84 C-62.60473145 85.0513916 -62.60473145 85.0513916 -63.22167969 86.12402344 C-82.59213929 119.84738315 -97.18986586 156.28428713 -97.18530273 195.63671875 C-97.18748126 197.73198017 -97.20567417 199.82670673 -97.22460938 201.921875 C-97.27467336 213.4503604 -96.36497812 224.62024064 -92.3125 235.5 C-92.05194824 236.21357666 -91.79139648 236.92715332 -91.52294922 237.66235352 C-87.38814727 248.63171103 -81.83479634 258.2638554 -74 267 C-73.19949219 267.89460938 -72.39898438 268.78921875 -71.57421875 269.7109375 C-59.38277295 282.60677794 -44.20429051 290.54612351 -28.171875 297.72265625 C-27.00140625 298.24730469 -25.8309375 298.77195312 -24.625 299.3125 C-23.58601563 299.76238281 -22.54703125 300.21226562 -21.4765625 300.67578125 C-19 302 -19 302 -17 305 C-16.77977706 307.80078401 -17.14924146 310.32539309 -18 313 C-20.73373995 315.65333583 -22.27588235 316 -26.0625 316 C-53.59931519 310.30475251 -80.90007471 288.40776172 -96.30859375 265.640625 C-100.63491781 258.98215608 -104.01371444 252.11616698 -106.8125 244.6875 C-107.07820801 243.99076172 -107.34391602 243.29402344 -107.61767578 242.57617188 C-112.73760616 228.14639951 -114.7341344 213.80711077 -114.5625 198.5625 C-114.55824005 197.74361298 -114.5539801 196.92472595 -114.54959106 196.08102417 C-114.44106875 180.96494553 -112.7817328 166.68090499 -109 152 C-108.74831055 151.01580078 -108.49662109 150.03160156 -108.23730469 149.01757812 C-98.44924341 111.95837757 -80.05387719 76.51462012 -57 46 C-56.57009766 45.42733398 -56.14019531 44.85466797 -55.69726562 44.26464844 C-19.22961107 -4.04833917 -19.22961107 -4.04833917 0 0 Z " fill="#67B432" transform="translate(2479,1)"/>
<path d="M0 0 C13.5543449 -0.61387738 26.89974725 2.28006078 37.5 11.23046875 C38.24507812 11.83117187 38.99015625 12.431875 39.7578125 13.05078125 C51.02700782 23.09755538 55.84101444 37.76348812 58.5 52.23046875 C58.5 53.22046875 58.5 54.21046875 58.5 55.23046875 C22.2 55.23046875 -14.1 55.23046875 -51.5 55.23046875 C-49.76144913 37.84496002 -43.56552809 23.2366297 -30.5 11.23046875 C-20.88548596 3.96129266 -11.93886983 0.78615326 0 0 Z " fill="#FEFEFE" transform="translate(1428.5,412.76953125)"/>
<path d="M0 0 C13.5543449 -0.61387738 26.89974725 2.28006078 37.5 11.23046875 C38.24507812 11.83117187 38.99015625 12.431875 39.7578125 13.05078125 C51.02700782 23.09755538 55.84101444 37.76348812 58.5 52.23046875 C58.5 53.22046875 58.5 54.21046875 58.5 55.23046875 C22.2 55.23046875 -14.1 55.23046875 -51.5 55.23046875 C-49.76144913 37.84496002 -43.56552809 23.2366297 -30.5 11.23046875 C-20.88548596 3.96129266 -11.93886983 0.78615326 0 0 Z " fill="#FEFEFE" transform="translate(505.5,412.76953125)"/>
</svg>
