<?xml version="1.0" encoding="UTF-8"?>
<svg id="Ebene_1" xmlns="http://www.w3.org/2000/svg" viewBox="0 0 1086.83299 186.2001">
  <defs>
    <style>
      .cls-1 {
        fill: #65041d;
      }

      .cls-2 {
        fill: #b0063e;
      }

      .cls-3 {
        fill: #b2b2b2;
      }
    </style>
  </defs>
  <g id="Ebene_1-2">
    <g>
      <path class="cls-2" d="M287.43306,59.30001c4.89999-3.6,7.39999-10.1,7.39999-19.6,0-8.4-2.5-14.5-7.39999-18.2-4.89999-3.7-12-5.6-21.20001-5.6h-14.5v48.8h14.10001c9.5.1,16.70001-1.7,21.60001-5.4M300.13307,12.50001c7.89999,6.1,11.89999,15.1,11.89999,27.1,0,12.8-4.10001,22.3-12.39999,28.6-8.29999,6.2-19.29999,9.4-33,9.4h-14.8v43.00001h-16.2V3.40001h30.79999c14.5,0,25.70001,3,33.70001,9.1"/>
      <path class="cls-2" d="M366.93306,58.50001c8.5,0,14.89999-1.7,19.20001-5.2,4.29999-3.5,6.5-9,6.5-16.7,0-7.3-2.20001-12.5-6.5-15.7-4.39999-3.2-11.39999-4.8-21-4.8h-14.5v42.5h16.29999v-.10001ZM368.83305,70.90001h-18.20001v49.7h-16.20001V3.40001h30.79999c14.60001,0,25.70001,2.8,33.20001,8.3,7.5,5.6,11.29999,13.8,11.29999,24.8,0,8.2-2.10001,14.8-6.29999,19.9-4.20001,5.1-10.5,9-19,11.6l31.60001,52.5h-19.20001l-28-49.6h.00003Z"/>
      <path class="cls-2" d="M453.83305,26.20001c-5.70001,7.7-8.5,19.7-8.5,36s2.89999,28.10001,8.60001,35.7c5.70001,7.60001,13.60001,11.39999,23.70001,11.39999,21.5,0,32.29999-15.8,32.29999-47.3s-10.79999-47.4-32.29999-47.4c-10.20001,0-18.10001,3.9-23.79999,11.6M503.5331,8.39999c7.39999,4.7,13.19998,11.6,17.30002,20.7,4.10004,9.1,6.20001,20.1,6.20001,33s-2.09998,23.6-6.20001,32.6c-4.09998,9.10001-9.89999,16-17.29999,20.7-7.39999,4.8-16.10001,7.10001-25.89999,7.10001s-18.5-2.3-25.89999-7c-7.39999-4.60001-13.20001-11.5-17.29999-20.60001-4.10001-9.1-6.20001-20-6.20001-32.8s2.10001-23.5,6.20001-32.6c4.10001-9.2,9.89999-16.2,17.39999-21,7.5-4.8,16.10001-7.2,25.79999-7.2,9.89999,0,18.5,2.4,25.89999,7.1"/>
    </g>
    <path class="cls-3" d="M641.33305,2.90001l-37.59998,52.90001,40.59998,65h-32.29999l-37.5-63,37.40002-54.9h29.40002-.00006ZM573.73308,120.70001h-27.90002V2.90001h27.90002v117.8Z"/>
    <g>
      <path class="cls-3" d="M742.23308,81.60001c0,8-1.70001,15.2-5.20001,21.6-3.5,6.3-8.59998,11.3-15.59998,15-6.90002,3.60001-15.40002,5.39999-25.29999,5.39999-15,0-26.40002-3.8-34.20001-11.39999-7.79999-7.60001-11.70001-17.8-11.70001-30.6V2.90001h27.90002v77.5c0,7.6,1.40002,13.2,4.29999,16.89999,2.90002,3.7,7.5,5.5,13.70001,5.5s11-1.8,13.90002-5.5c2.90002-3.7,4.29999-9.3,4.29999-16.9V2.90001h27.90002v78.69999h-.00006Z"/>
      <path class="cls-3" d="M853.43309,120.70001h-35.5l-34-91.3c1.09998,9,2,16.9,2.59998,23.7.59998,6.9.90002,15,.90002,24.4v43.2h-24.79999V2.90001h34.70001l34.90002,91.5c-2.5-15.5-3.70001-30.2-3.70001-43.9V2.90001h25v117.8h-.10004Z"/>
      <path class="cls-3" d="M903.23308,23.10001v77.4h9.20001c9.20001,0,16.20001-2.89999,20.90002-8.60001,4.79999-5.7,7.09998-16,7.09998-30.7,0-10.1-1.20001-17.9-3.59998-23.5-2.40002-5.6-5.59998-9.4-9.70001-11.5-4.09998-2.1-9.09998-3.1-15.09998-3.1h-8.80005ZM952.6331,15.40001c11.20001,8.3,16.70001,23.6,16.70001,45.8s-5.40002,37.3-16.29999,46.2c-10.90002,8.89999-25,13.3-42.29999,13.3h-35.40002V2.90001h32.79999c18.5,0,33.29999,4.1,44.5,12.5"/>
      <path class="cls-3" d="M1015.73308,30.10001c-3.90002,6.5-5.90002,17-5.90002,31.5s2,25.1,6,31.6c4,6.60001,9.89996,9.89999,17.89996,9.89999s14.19995-3.3,18.09998-9.8c3.90002-6.5,5.90002-17.1,5.90002-31.7s-2-25.2-6-31.6c-4-6.5-10-9.7-18-9.7-8.09998.1-14.09998,3.3-18,9.8M1072.83299,16.1c9.40002,10.8,14,26,14,45.6,0,12.8-2.09998,23.9-6.40002,33.2-4.30005,9.3-10.40002,16.39999-18.40002,21.3-8,4.89999-17.5,7.39999-28.5,7.39999s-20.5-2.39999-28.40002-7.3c-7.90002-4.89999-14-11.89999-18.29999-21.2-4.20001-9.2-6.40002-20.4-6.40002-33.4s2.09998-23.7,6.40002-33c4.20001-9.3,10.29999-16.4,18.29999-21.3,7.90002-4.9,17.40002-7.4,28.40002-7.4,16.90002,0,30,5.4,39.30005,16.1"/>
      <path class="cls-3" d="M855.23308,151.30001v34.3h19v-3.8h-14.20001v-11.7h11.5v-3.8h-11.5v-11.2h13.29999l.5-3.8h-18.59998ZM833.6331,169.30001h-4.09998v-14.3h4.20001c2.70001,0,4.70001.5,6.20001,1.60001,1.5,1.10001,2.20001,2.89999,2.20001,5.3,0,2.8-.70001,4.7-2.20001,5.7-1.40002,1.10001-3.5,1.7-6.29999,1.7M833.83318,151.30001h-9v34.3h4.70001v-12.60001h4.29999c4,0,7.20001-.89999,9.70001-2.7,2.40002-1.8,3.59998-4.60001,3.59998-8.39999,0-3.5-1.20001-6.2-3.5-7.89999-2.29999-1.8-5.59998-2.7-9.79999-2.7M803.2332,169.30003h-4.09998v-14.3h4.20001c2.70001,0,4.79999.5,6.20001,1.60001,1.40002,1.10001,2.20001,2.89999,2.20001,5.3,0,2.8-.70001,4.7-2.20001,5.7-1.40002,1.10001-3.5,1.7-6.29999,1.7M803.43327,151.30003h-9v34.3h4.70001v-12.60001h4.29999c4,0,7.20001-.89999,9.70001-2.7,2.40002-1.8,3.59998-4.60001,3.59998-8.39999,0-3.5-1.20001-6.2-3.5-7.89999-2.29999-1.8-5.59998-2.7-9.79999-2.7M783.43327,151.30005h-4.79999v22.89999c0,2.7-.59998,4.7-1.79999,6s-3,2-5.5,2-4.20001-.7-5.40002-2c-1.20001-1.3-1.79999-3.3-1.79999-6v-22.89999h-4.70001v23.3c0,3.5,1,6.3,3.09998,8.39999,2.09998,2.10001,5,3.2,8.79999,3.2,2.5,0,4.70001-.5,6.5-1.5s3.20001-2.3,4.09998-4.10001,1.40002-3.8,1.40002-6v-23.3h.09998l.00006.00002ZM733.43327,167.40005v-12.39999h4.20001c2.79999,0,4.90002.5,6.09998,1.39999,1.29999.89999,1.90002,2.5,1.90002,4.60001,0,2.3-.59998,3.89999-1.90002,4.89999-1.29999,1-3.09998,1.5-5.59998,1.5h-4.70001ZM747.03325,185.60005h5.59998l-9.29999-15.39999c2.5-.8,4.29999-1.89999,5.59998-3.39999,1.20001-1.5,1.79999-3.39999,1.79999-5.8,0-3.2-1.09998-5.60001-3.29999-7.3-2.20001-1.60001-5.40002-2.39999-9.70001-2.39999h-9v34.3h4.70001v-14.5h5.29999l8.29999,14.5.00006-.00002ZM708.43327,150.70005c-2.70001,0-5.20001.7-7.40002,2.10001-2.29999,1.39999-4.09998,3.39999-5.40002,6.10001-1.29999,2.7-2,5.89999-2,9.60001,0,5.8,1.29999,10.2,3.79999,13.2s6.09998,4.5,10.59998,4.5c3.90002,0,7.59998-1,11.20001-3v-16.60001h-11.29999l.5,3.8h6.09998v10.39999c-1.79999,1-4,1.5-6.5,1.5-3.09998,0-5.40002-1.10001-7-3.3-1.59998-2.2-2.40002-5.7-2.40002-10.5,0-3.2.5-5.8,1.40002-7.89999.90002-2.10001,2.09998-3.60001,3.59998-4.5s3.09998-1.39999,4.90002-1.39999c1.5,0,2.90002.2,4,.60001,1.09998.39999,2.29999,1.10001,3.5,2.10001l2.79999-2.89999c-1.59998-1.3-3.09998-2.2-4.70001-2.89999-1.59998-.60001-3.5-.89999-5.70001-.89999M655.83318,155.10009c2.20001,0,4,.3,5.59998,1,1.59998.60001,2.90002,1.89999,3.90002,3.89999,1,1.89999,1.5,4.7,1.5,8.3,0,5.10001-1,8.7-3,10.60001-2,2-4.59998,2.89999-7.79999,2.89999h-3.79999v-26.8h3.59998v.10001ZM654.83318,151.30009h-7.20001v34.3h8.20001c4.5,0,8.29999-1.3,11.40002-3.89999,3.09998-2.60001,4.70001-7.10001,4.70001-13.39999s-1.59998-11-4.70001-13.39999c-3.09998-2.39999-7.29999-3.60001-12.40002-3.60001M636.13316,151.30011h-4.40002v18.7c0,1.8.09998,3.8.20001,5.89999.20001,2.2.29999,3.7.40002,4.5l-14.09998-29.2h-6.20001v34.3h4.40002v-15.7c0-2.8-.09998-5.10001-.20001-7-.09998-1.89999-.29999-4.10001-.5-6.3l13.90002,29.10001h6.29999v-34.3h.20001-.00006ZM601.23314,151.30011h-4.79999v22.89999c0,2.7-.59998,4.7-1.79999,6-1.20001,1.3-3,2-5.5,2s-4.20001-.7-5.40002-2c-1.20001-1.3-1.79999-3.3-1.79999-6v-22.89999h-4.70001v23.3c0,3.5,1,6.3,3.09998,8.39999,2.09998,2.10001,5,3.2,8.79999,3.2,2.5,0,4.70001-.5,6.5-1.5s3.20001-2.3,4.09998-4.10001c.89996-1.8,1.40002-3.8,1.40002-6v-23.3h.09998l.00006.00002ZM555.43315,181.80011h-4.70001v-12.3h5.59998c2.29999,0,4.09998.5,5.59998,1.5,1.40002,1,2.09998,2.60001,2.09998,4.89999s-.70001,3.89999-2.20001,4.7-3.59998,1.2-6.40002,1.2M554.53301,155.00009c2.70001,0,4.79999.39999,6.09998,1.10001,1.29999.8,2,2.10001,2,4.10001,0,1.8-.59998,3.10001-1.90002,4.10001-1.29999,1-2.90002,1.39999-4.90002,1.39999h-5.20001v-10.8h3.90002v.10001l.00006-.00002ZM561.13298,167.50009c1.79999-.39999,3.29999-1.2,4.59998-2.5,1.20001-1.3,1.90002-3,1.90002-5,0-2.89999-1.20001-5.10001-3.5-6.5-2.29999-1.39999-5.59998-2.10001-10-2.10001h-8.09998v34.3h9.5c9.09998,0,13.59998-3.3,13.59998-9.8,0-2.7-.70001-4.60001-2.20001-5.89999-1.59998-1.3-3.5-2.10001-5.79999-2.5M504.03298,151.30009v34.3h18.30002l.5-4.10001h-14.10001v-30.2h-4.70001ZM492.53298,185.60009v-34.3h-4.70001v14.3h-14.39999v-14.3h-4.70001v34.3h4.70001v-16.10001h14.39999v16.10001h4.70001ZM445.03298,154.60009c6.29999,0,9.5,4.60001,9.5,13.89999s-3.20001,13.8-9.5,13.8c-3,0-5.29999-1.10001-6.89999-3.3-1.70001-2.2-2.5-5.7-2.5-10.39999s.79999-8.3,2.5-10.5c1.60001-2.39999,3.89999-3.5,6.89999-3.5M445.03298,150.7001c-2.89999,0-5.39999.7-7.60001,2.10001-2.20001,1.39999-3.89999,3.5-5.10001,6.10001-1.20001,2.7-1.79999,5.89999-1.79999,9.60001s.60001,7,1.79999,9.60001c1.20001,2.7,2.89999,4.7,5.10001,6,2.20001,1.39999,4.70001,2,7.60001,2s5.39999-.7,7.60001-2.10001c2.20001-1.39999,3.89999-3.39999,5.10001-6.10001,1.20001-2.7,1.79999-5.8,1.79999-9.60001s-.60001-7-1.79999-9.7c-1.20001-2.7-2.89999-4.7-5.10001-6-2.20001-1.2-4.79999-1.89999-7.60001-1.89999M420.73299,151.30012l-5.70001,30.2-6.79999-30.2h-5l-6.60001,30.2-5.5-30.2h-4.60001l7,34.3h5.89999l6.39999-28.7,6.29999,28.7h6.10001l7-34.3h-4.5.00003ZM370.53298,150.70012c-2.10001,0-4,.39999-5.60001,1.10001-1.60001.8-2.89999,1.8-3.79999,3.2-.89999,1.39999-1.39999,2.89999-1.39999,4.60001,0,2.60001.79999,4.60001,2.39999,6.10001,1.60001,1.5,4.20001,2.8,7.70001,3.8,2,.60001,3.5,1.2,4.60001,1.8s1.79999,1.3,2.20001,2c.39999.7.60001,1.7.60001,2.8,0,2-.70001,3.5-2.10001,4.60001-1.39999,1-3.20001,1.60001-5.29999,1.60001-1.79999,0-3.29999-.3-4.79999-.89999-1.39999-.60001-2.79999-1.39999-4.20001-2.60001l-2.60001,2.89999c3,3,6.89999,4.39999,11.60001,4.39999,2.5,0,4.70001-.39999,6.5-1.3,1.79999-.89999,3.29999-2.10001,4.20001-3.60001,1-1.5,1.5-3.3,1.5-5.3,0-2.10001-.39999-3.8-1.29999-5.10001-.89999-1.3-2-2.39999-3.5-3.2-1.39999-.8-3.20001-1.5-5.39999-2.10001-2.10001-.60001-3.60001-1.2-4.70001-1.8s-1.79999-1.2-2.20001-1.89999c-.39999-.7-.60001-1.5-.60001-2.5,0-1.60001.60001-2.8,1.70001-3.60001,1.20001-.8,2.60001-1.2,4.39999-1.2,1.39999,0,2.79999.2,4,.7s2.5,1.2,3.79999,2.3l2.60001-2.89999c-1.5-1.39999-3.10001-2.39999-4.70001-3-1.39999-.60001-3.29999-.89999-5.60001-.89999M349.73302,151.30014l-13,16,13.5,18.3h5.79999l-13.89999-18.60001,13-15.7h-5.39999ZM331.73302,185.60014h4.70001v-34.3h-4.70001v34.3ZM305.43303,151.30014v34.3h18.29999l.5-4.10001h-14.10001v-30.2h-4.70001.00003ZM281.83302,154.60014c6.29999,0,9.5,4.60001,9.5,13.89999s-3.20001,13.8-9.5,13.8c-3,0-5.29999-1.10001-6.89999-3.3-1.70001-2.2-2.5-5.7-2.5-10.39999s.79999-8.3,2.5-10.5c1.5-2.39999,3.89999-3.5,6.89999-3.5M281.83302,150.70015c-2.89999,0-5.39999.7-7.60001,2.10001-2.20001,1.39999-3.89999,3.5-5.10001,6.10001-1.20001,2.7-1.79999,5.89999-1.79999,9.60001s.60001,7,1.79999,9.60001c1.20001,2.7,2.89999,4.7,5.10001,6,2.20001,1.39999,4.70001,2,7.60001,2s5.39999-.7,7.60001-2.10001c2.20001-1.39999,3.89999-3.39999,5.10001-6.10001,1.20001-2.7,1.79999-5.8,1.79999-9.60001s-.60001-7-1.79999-9.7c-1.20001-2.7-2.89999-4.7-5.10001-6-2.20001-1.2-4.79999-1.89999-7.60001-1.89999M258.23302,151.30017l-8.60001,29.2-8.60001-29.2h-5.10001l11,34.3h5.10001l10.89999-34.3h-4.70001.00003Z"/>
    </g>
  </g>
  <polygon class="cls-1" points="30.226 3.47684 57.61096 51.66097 85.46984 3.47684 30.226 3.47684"/>
  <polygon class="cls-1" points="97.16452 3.47684 124.54948 51.66097 152.40836 3.47684 97.16452 3.47684"/>
  <polygon class="cls-2" points="85.4682 3.47684 0 151.30988 55.7055 151.30988 113.29439 52.03275 85.4682 3.47684"/>
  <polygon class="cls-2" points="152.40673 3.47684 84.70627 120.57482 140.47304 120.57482 180.23292 52.03275 152.40673 3.47684"/>
</svg>