<?xml version="1.0" encoding="UTF-8"?>
<svg xmlns="http://www.w3.org/2000/svg" version="1.1" viewBox="0 0 128 64">
  <defs>
    <style>
      .cls-1 {
        fill: #868686;
      }

      .cls-2 {
        fill: #b5004a;
      }
    </style>
  </defs>
  <!-- Generator: Adobe Illustrator 28.6.0, SVG Export Plug-In . SVG Version: 1.2.0 Build 709)  -->
  <g>
    <g id="Ebene_1">
      <g>
        <path class="cls-1" d="M.9,17.8h2.5v2h0c.2-.3.4-.6.7-.8.3-.3.7-.6,1.1-.8.4-.2.9-.4,1.4-.6.6-.2,1.1-.2,1.7-.2.9,0,1.9.2,2.7.6.8.4,1.4.9,1.9,1.6.5.7.9,1.5,1.2,2.3.3.9.4,1.8.4,2.8,0,1-.1,1.9-.4,2.9-.2.9-.6,1.7-1.1,2.5-.5.7-1.2,1.3-1.9,1.7-.9.5-1.8.7-2.8.7-1.1,0-2.1-.2-3-.7-.7-.4-1.3-1-1.7-1.6h0v7.9H.9v-20.3ZM11.8,24.9c0-.6,0-1.3-.2-1.9-.1-.6-.4-1.2-.7-1.7-.3-.5-.7-.9-1.2-1.2-.6-.3-1.2-.5-1.8-.5-.7,0-1.3.1-1.9.5-.5.3-1,.7-1.3,1.2-.4.5-.6,1.1-.8,1.7-.2.6-.3,1.3-.3,2,0,.6,0,1.2.2,1.8.2.6.4,1.2.7,1.7.3.5.8,1,1.3,1.3.6.3,1.3.5,1.9.5.7,0,1.3-.2,1.8-.5.5-.4.9-.8,1.2-1.3.3-.5.6-1.1.7-1.8.1-.6.2-1.2.2-1.8Z"/>
        <path class="cls-1" d="M18.1,17.8h2.5v2.2h0c.3-.7.9-1.4,1.6-1.8.6-.5,1.4-.7,2.2-.7.3,0,.6,0,1,0,.2,0,.5,0,.8.1v2.4c-.2,0-.5-.2-.7-.2-.2,0-.5,0-.7,0-1.2,0-2.2.6-2.8,1.6-.8,1.3-1.1,2.8-1.1,4.3v6.5h-2.6v-14.4Z"/>
        <path class="cls-1" d="M28.1,24.9c0-1,.2-2,.5-3,.3-.9.8-1.7,1.5-2.4.7-.7,1.4-1.2,2.3-1.6,1.9-.8,4.1-.8,6,0,.9.4,1.7.9,2.3,1.6.6.7,1.2,1.5,1.5,2.4.4,1,.5,2,.5,3,0,1-.2,2-.5,2.9-.3.9-.8,1.7-1.5,2.4-.6.7-1.4,1.2-2.3,1.6-1.9.8-4,.8-5.9,0-.9-.4-1.7-.9-2.3-1.6-.7-.7-1.2-1.5-1.5-2.4-.4-.9-.5-1.9-.5-2.9ZM30.9,24.9c0,.6,0,1.3.3,1.9.2.6.4,1.2.8,1.7.4.5.8.9,1.4,1.3.6.3,1.3.5,2,.5.7,0,1.4-.1,2-.5.6-.3,1-.7,1.4-1.3.4-.5.6-1.1.8-1.7.2-.6.3-1.3.3-1.9,0-.7-.1-1.3-.3-2-.2-.6-.5-1.2-.9-1.7-.4-.5-.9-.9-1.4-1.2-1.2-.6-2.6-.6-3.8,0-.6.3-1,.7-1.4,1.2-.4.5-.7,1.1-.9,1.7-.2.6-.3,1.3-.3,2Z"/>
        <path class="cls-2" d="M46.3,11h2.6v12.6l5.8-5.8h3.6l-6.7,6.4,7.5,8h-3.8l-6.4-7.4v7.4h-2.6V11Z"/>
        <path class="cls-2" d="M74.6,32.1h-2.6v-2.3h0c-.4.8-1.1,1.5-1.9,1.9-.9.5-1.8.7-2.8.7-1.5.1-3.1-.5-4.1-1.6-.9-1.3-1.4-2.9-1.3-4.5v-8.5h2.6v7.4c0,1.3.1,2.6.6,3.8.5.9,1.4,1.4,2.4,1.4.7,0,1.4-.1,2-.4.5-.3,1-.7,1.4-1.2.4-.6.6-1.2.8-1.9.2-.8.3-1.6.3-2.4v-6.6h2.6v14.4Z"/>
        <path class="cls-2" d="M79.1,17.8h2.6v2.3h0c.4-.8,1.1-1.5,1.9-1.9.9-.5,1.8-.7,2.8-.7,1.5-.1,3.1.5,4.1,1.6.9,1.3,1.4,2.9,1.3,4.5v8.5h-2.6v-7.4c0-1.3-.1-2.6-.6-3.8-.5-.9-1.4-1.4-2.4-1.4-.7,0-1.4.1-2,.4-.5.3-1,.7-1.4,1.2-.4.6-.6,1.2-.8,1.9-.2.8-.3,1.6-.3,2.4v6.6h-2.6v-14.4Z"/>
        <path class="cls-2" d="M106.5,30.1h0c-.2.3-.4.6-.7.8-.3.3-.7.6-1.1.8-.4.2-.9.4-1.4.6-.6.2-1.2.2-1.7.2-1.9,0-3.7-.8-4.7-2.4-.5-.8-.9-1.6-1.1-2.5-.2-.9-.4-1.9-.4-2.9,0-.9.1-1.9.4-2.8.2-.8.6-1.6,1.2-2.3.5-.7,1.2-1.2,1.9-1.6,1.8-.8,3.9-.8,5.7,0,.7.4,1.3,1,1.7,1.6h0v-8.7h2.6v21.1h-2.5v-2ZM98.2,24.9c0,.6,0,1.2.2,1.8.1.6.4,1.2.7,1.8.3.5.7,1,1.2,1.3.5.4,1.2.6,1.8.5.7,0,1.3-.2,1.9-.5.5-.3,1-.8,1.3-1.3.3-.5.6-1.1.7-1.7.3-1.3.3-2.6,0-3.8-.2-.6-.4-1.2-.8-1.7-.3-.5-.8-.9-1.3-1.2-.6-.3-1.2-.5-1.9-.5-.6,0-1.3.1-1.8.5-.5.3-.9.7-1.2,1.2-.3.5-.6,1.1-.7,1.7-.1.6-.2,1.3-.2,1.9h0Z"/>
        <path class="cls-2" d="M112.6,24.9c0-1,.2-2,.5-3,.3-.9.8-1.7,1.5-2.4.7-.7,1.4-1.2,2.3-1.6,1.9-.8,4.1-.8,6,0,.9.4,1.7.9,2.3,1.6.6.7,1.2,1.5,1.5,2.4.4,1,.5,2,.5,3,0,1-.2,2-.5,2.9-.3.9-.8,1.7-1.5,2.4-.6.7-1.4,1.2-2.3,1.6-1.9.8-4,.8-5.9,0-.9-.4-1.7-.9-2.3-1.6-.7-.7-1.2-1.5-1.5-2.4-.4-.9-.5-1.9-.5-2.9ZM115.4,24.9c0,.6,0,1.3.3,1.9.2.6.4,1.2.8,1.7.4.5.8.9,1.4,1.3.6.3,1.3.5,2,.5.7,0,1.4-.1,2-.5.6-.3,1-.7,1.4-1.3.4-.5.6-1.1.8-1.7.2-.6.3-1.3.3-1.9,0-.7-.1-1.3-.3-2-.2-.6-.5-1.2-.9-1.7-.4-.5-.9-.9-1.4-1.2-1.2-.6-2.6-.6-3.8,0-.6.3-1,.7-1.4,1.2-.4.5-.7,1.1-.9,1.7-.2.6-.3,1.3-.3,2Z"/>
        <rect class="cls-1" x="6.7" y="36.4" width="120.2" height="1.6"/>
        <rect class="cls-2" x=".8" y="11.3" width="41.5" height="1.5"/>
        <path class="cls-1" d="M10.1,51h-1.2l-2.5-6.7h1l2,5.9h0l2.1-5.9h1l-2.5,6.7Z"/>
        <path class="cls-1" d="M13.1,47.6c0-.5,0-.9.2-1.4.1-.4.3-.8.6-1.1.3-.3.6-.6,1-.7.8-.4,1.8-.4,2.7,0,.4.2.7.4,1,.7.3.3.5.7.6,1.1.1.4.2.9.2,1.4,0,.5,0,1-.2,1.4-.1.4-.3.8-.6,1.1-.3.3-.6.6-1,.7-.9.3-1.8.3-2.7,0-.4-.2-.7-.4-1-.7-.3-.3-.5-.7-.6-1.1-.1-.5-.2-.9-.2-1.4ZM14.1,47.6c0,.3,0,.7.1,1,0,.3.2.6.4.8.2.2.4.4.7.6.6.3,1.3.3,1.9,0,.3-.1.5-.3.7-.6.2-.3.3-.5.4-.8,0-.3.1-.6.1-1,0-.3,0-.7-.1-1,0-.3-.2-.6-.4-.8-.6-.9-1.9-1.1-2.8-.4-.2.1-.3.3-.4.4-.2.3-.3.5-.4.8,0,.3-.1.7-.1,1Z"/>
        <path class="cls-1" d="M20.7,44.3h.9v5.9h2.7v.8h-3.7v-6.7Z"/>
        <path class="cls-1" d="M25.5,44.3h.9v3l2.8-3h1.2l-3.1,3.2,3.3,3.5h-1.4l-2.9-3.3v3.3h-.9v-6.7Z"/>
        <path class="cls-1" d="M34.6,45.3c-.1,0-.2,0-.3-.1,0,0-.2,0-.3,0,0,0-.2,0-.3,0,0,0-.2,0-.3,0-.1,0-.3,0-.4,0-.1,0-.3,0-.4.1-.1,0-.2.2-.3.3,0,.1-.1.3-.1.4,0,.2,0,.4.2.5.2.2.3.3.5.4.2.1.4.2.7.3.2.1.5.3.7.4.2.2.4.4.5.6.1.3.2.6.2.9,0,.3,0,.6-.2.9-.1.2-.3.5-.5.6-.2.2-.5.3-.8.4-.3,0-.6.1-.9.1-.2,0-.5,0-.7,0-.2,0-.4-.1-.7-.2v-.9c.2,0,.3,0,.4.1s.2,0,.3.1.2,0,.4,0c.1,0,.2,0,.4,0,.1,0,.3,0,.4,0,.1,0,.3-.1.4-.2.1,0,.2-.2.3-.3,0-.2.1-.3.1-.5,0-.2,0-.4-.2-.6-.1-.2-.3-.3-.5-.4-.2-.1-.4-.2-.7-.3-.2-.1-.5-.2-.7-.4-.2-.2-.4-.3-.5-.6-.1-.3-.2-.6-.2-.9,0-.3,0-.5.2-.8.1-.2.3-.4.4-.6.2-.2.4-.3.7-.4.3,0,.5-.1.8-.1.2,0,.5,0,.7,0,.2,0,.5,0,.7.2v.9Z"/>
        <path class="cls-1" d="M35.5,44.3h1l1.6,5.8h0l1.4-5.8h1.3l1.4,5.8h0l1.6-5.8h1l-2,6.7h-1.2l-1.4-5.9h0l-1.4,5.9h-1.3l-2-6.7Z"/>
        <path class="cls-1" d="M45.3,47.6c0-.5,0-.9.2-1.4.1-.4.3-.8.6-1.1.3-.3.6-.6,1-.7.8-.4,1.8-.4,2.7,0,.4.2.7.4,1,.7.3.3.5.7.6,1.1.1.4.2.9.2,1.4,0,.5,0,1-.2,1.4-.1.4-.3.8-.6,1.1-.3.3-.6.6-1,.7-.9.3-1.8.3-2.7,0-.4-.2-.7-.4-1-.7-.3-.3-.5-.7-.6-1.1-.1-.5-.2-.9-.2-1.4ZM46.3,47.6c0,.3,0,.7.1,1,0,.3.2.6.4.8.2.2.4.4.7.6.6.3,1.3.3,1.9,0,.3-.1.5-.3.7-.6.2-.3.3-.5.4-.8,0-.3.1-.6.1-1,0-.3,0-.7-.1-1,0-.3-.2-.6-.4-.8-.6-.9-1.9-1.1-2.8-.4-.2.1-.3.3-.4.4-.2.3-.3.5-.4.8,0,.3-.1.7-.1,1Z"/>
        <path class="cls-1" d="M53,44.3h.9v2.8h3.1v-2.8h.9v6.7h-.9v-3.1h-3.1v3.1h-.9v-6.7Z"/>
        <path class="cls-1" d="M59.7,44.3h.9v5.9h2.7v.8h-3.7v-6.7Z"/>
        <path class="cls-1" d="M66.9,44.3h1.8c.3,0,.6,0,.9,0,.3,0,.5.2.7.3.2.1.4.3.5.5.1.2.2.5.2.8,0,.4-.1.8-.4,1.1-.3.3-.6.4-1,.5h0c.2,0,.4,0,.6.2.2,0,.3.2.5.3.1.1.2.3.3.5.2.5.1,1.1,0,1.5-.1.2-.3.4-.5.5-.2.1-.5.2-.8.3-.3,0-.6,0-.9,0h-1.7v-6.7ZM67.8,47.1h.5c.2,0,.4,0,.6,0,.2,0,.4,0,.5-.1.1,0,.3-.2.4-.3,0-.2.1-.4.1-.6,0-.2,0-.3-.1-.5,0-.1-.2-.2-.3-.3-.1,0-.2-.1-.4-.2-.1,0-.3,0-.4,0h-1v2.1ZM67.8,50.2h.7c.2,0,.4,0,.6,0,.2,0,.4,0,.5-.2.1,0,.3-.2.4-.3,0-.2.1-.4.1-.5,0-.2,0-.4-.1-.6,0-.2-.2-.3-.4-.4-.2,0-.4-.1-.5-.2-.2,0-.4,0-.6,0h-.6v2.3Z"/>
        <path class="cls-1" d="M77.8,48.2c0,.8-.2,1.5-.7,2.2-1.1,1-2.7,1-3.7,0-.5-.6-.7-1.4-.7-2.2v-3.9h.9v3.8c0,.3,0,.6,0,.9,0,.2.1.5.3.7.1.2.3.3.5.4.5.2,1,.2,1.5,0,.2-.1.4-.3.5-.4.1-.2.2-.4.3-.7,0-.3,0-.6,0-.9v-3.8h.9v3.9Z"/>
        <path class="cls-1" d="M79.4,44.3h1.3l2.9,5.4h0v-5.4h.9v6.7h-1.2l-3-5.5h0v5.5h-.9v-6.7Z"/>
        <path class="cls-1" d="M86.1,44.3h1.9c.5,0,.9,0,1.4.2.4.1.8.4,1.1.7.3.3.6.6.7,1,.2.4.3.9.3,1.4,0,.5,0,1-.2,1.5-.1.4-.4.8-.7,1.1-.3.3-.7.5-1.1.6-.5.2-1,.2-1.4.2h-1.9v-6.7ZM87.1,50.1h1c.7,0,1.3-.2,1.9-.6.5-.5.7-1.2.6-1.9,0-.4,0-.7-.2-1.1-.1-.3-.3-.6-.5-.8-.2-.2-.5-.4-.8-.5-.3-.1-.6-.2-.9-.2h-1.1v5Z"/>
        <path class="cls-1" d="M100.5,45.4c-.2-.2-.5-.3-.8-.3-.3,0-.7-.1-1-.1-.4,0-.7,0-1,.2-.3.1-.6.3-.8.6-.2.2-.4.5-.5.8-.1.3-.2.7-.2,1,0,.4,0,.7.2,1.1.1.3.3.6.5.8.2.2.5.4.8.5.3.1.6.2,1,.2.2,0,.3,0,.4,0,0,0,.2,0,.3,0,0,0,.1,0,.2,0s.1,0,.2,0v-2h-1.4v-.8h2.3v3.5c-.6.2-1.3.3-2,.3-.5,0-1,0-1.4-.2-.4-.2-.8-.4-1.1-.7-.3-.3-.5-.7-.7-1.1-.2-.5-.3-1-.2-1.5,0-.5,0-1,.3-1.4.2-.4.4-.8.7-1.1.3-.3.7-.5,1.1-.7.4-.2.9-.3,1.4-.2.2,0,.4,0,.6,0,.2,0,.3,0,.5,0,.1,0,.3,0,.4.1s.3,0,.4.1v1Z"/>
        <path class="cls-1" d="M102.2,46.1h.8v.8h0c.1-.3.3-.5.5-.6.2-.2.5-.2.7-.2.1,0,.2,0,.3,0,0,0,.2,0,.3,0v.8c0,0-.2,0-.2,0,0,0-.2,0-.2,0-.4,0-.7.2-.9.5-.3.4-.4,1-.4,1.5v2.2h-.9v-4.9Z"/>
        <path class="cls-1" d="M110,51h-.9v-.8h0c-.1.3-.4.5-.6.7-.3.2-.6.2-.9.2-.5,0-1-.2-1.4-.6-.3-.5-.5-1-.4-1.6v-2.9h.9v2.5c0,.4,0,.9.2,1.3.2.3.5.5.8.5.2,0,.4,0,.7-.1.2,0,.3-.2.5-.4.1-.2.2-.4.3-.6,0-.3,0-.5,0-.8v-2.3h.9v4.9Z"/>
        <path class="cls-1" d="M111.5,46.1h.8v.7h0c0-.1.1-.2.2-.3.1-.1.2-.2.4-.3.1,0,.3-.1.5-.2.2,0,.4,0,.6,0,.6,0,1.2.3,1.5.7.2.2.3.5.4.8,0,.3.1.6.1.9,0,.3,0,.7-.1,1,0,.3-.2.6-.4.8-.2.2-.4.4-.6.6-.3.2-.6.2-.9.2-.4,0-.7,0-1-.2-.2-.1-.4-.3-.6-.6h0v2.7h-.9v-6.9ZM115.1,48.5c0-.2,0-.4,0-.7,0-.2-.1-.4-.2-.6-.1-.2-.2-.3-.4-.4-.2-.1-.4-.2-.6-.2-.2,0-.4,0-.6.2-.2.1-.3.2-.4.4-.1.2-.2.4-.3.6,0,.2,0,.5,0,.7,0,.2,0,.4,0,.6,0,.2.1.4.2.6.1.2.3.3.4.4.2.1.4.2.6.2.2,0,.4,0,.6-.2.2-.1.3-.3.4-.5.1-.2.2-.4.2-.6,0-.2,0-.4,0-.6h0Z"/>
        <path class="cls-1" d="M117.2,46.1h.8v.7h0c0-.1.1-.2.2-.3.1-.1.2-.2.4-.3.1,0,.3-.1.5-.2.2,0,.4,0,.6,0,.6,0,1.2.3,1.5.7.2.2.3.5.4.8,0,.3.1.6.1.9,0,.3,0,.7-.1,1,0,.3-.2.6-.4.8-.2.2-.4.5-.6.6-.3.2-.6.2-.9.2-.4,0-.7,0-1-.2-.2-.1-.4-.3-.6-.6h0v2.7h-.9v-6.9ZM120.8,48.5c0-.2,0-.4,0-.7,0-.2-.1-.4-.2-.6-.1-.2-.2-.3-.4-.4-.2-.1-.4-.2-.6-.2-.2,0-.4,0-.6.2-.2.1-.3.2-.4.4-.1.2-.2.4-.3.6,0,.2,0,.5,0,.7,0,.2,0,.4,0,.6,0,.2.1.4.2.6.1.2.3.3.4.4.2.1.4.2.6.2.2,0,.4,0,.6-.2.2-.1.3-.3.4-.5.1-.2.2-.4.2-.6,0-.2,0-.4,0-.6Z"/>
        <path class="cls-1" d="M126.6,50.8c0,0-.2,0-.3.1s-.2,0-.3.1c-.1,0-.3,0-.4,0-.2,0-.3,0-.5,0-.4,0-.7,0-1.1-.2-.3-.1-.6-.3-.8-.5-.2-.2-.4-.5-.5-.8-.1-.4-.2-.7-.1-1.1,0-.3,0-.7.2-1,0-.3.3-.6.5-.8.2-.2.4-.4.7-.5.3-.1.6-.2.9-.2.3,0,.7,0,1,.2.3.1.5.3.6.6.2.3.3.6.4.9,0,.4.1.7.1,1.1h-3.4c0,.2,0,.5.1.7,0,.2.2.4.3.5.1.1.3.3.5.3.2,0,.4.1.6.1.1,0,.3,0,.4,0,.1,0,.3,0,.4-.1.1,0,.2,0,.4-.2,0,0,.2,0,.2-.2v.9ZM126,48c0-.2,0-.4,0-.5,0-.2-.1-.3-.2-.4-.1-.1-.2-.2-.4-.3-.2,0-.3-.1-.5-.1-.2,0-.4,0-.6.1-.1,0-.3.2-.4.3-.1.1-.2.3-.2.4,0,.2,0,.3-.1.5h2.5Z"/>
      </g>
    </g>
  </g>
</svg>