<?xml version="1.0" encoding="utf-8"?>
<!-- Generator: Adobe Illustrator 19.2.1, SVG Export Plug-In . SVG Version: 6.00 Build 0)  -->
<svg version="1.1" id="Layer_1" xmlns="http://www.w3.org/2000/svg" xmlns:xlink="http://www.w3.org/1999/xlink" x="0px" y="0px"
	 viewBox="0 0 156.3 55" style="enable-background:new 0 0 156.3 55;" xml:space="preserve">
<style type="text/css">
	.st0{filter:url(#Adobe_OpacityMaskFilter);}
	.st1{filter:url(#Adobe_OpacityMaskFilter_1_);}
	.st2{fill:#FFFFFF;}
	.st3{fill:#4FD4E7;}
	.st4{clip-path:url(#SVGID_4_);}
	.st5{clip-path:url(#SVGID_4_);fill:#FFFFFF;}
	.st6{fill:none;stroke:#000000;stroke-width:0.5;}
	.st7{fill:none;stroke:#000000;stroke-width:0.5;stroke-miterlimit:10;}
	.st8{opacity:0.4;fill:none;stroke:#000000;stroke-miterlimit:10;stroke-dasharray:4,6;}
	.st9{opacity:0.4;}
	.st10{fill:#4FD4E7;stroke:#4FD4E7;stroke-width:0.5;stroke-miterlimit:10;}
	.st11{stroke:#FFFFFF;stroke-width:0.25;stroke-miterlimit:10;}
	.st12{fill:none;}
	.st13{stroke:#000000;stroke-width:0.25;stroke-miterlimit:10;}
	.st14{fill:none;stroke:#C6C6C6;}
	.st15{fill:#00F0FC;}
	.st16{fill:none;stroke:#000000;stroke-width:1.5;stroke-miterlimit:10;}
	.st17{fill:none;stroke:#000000;stroke-width:1.6;stroke-miterlimit:10;}
	.st18{fill:none;stroke:#4FD4E7;stroke-width:15;stroke-linecap:round;stroke-linejoin:round;stroke-miterlimit:10;}
	.st19{fill:none;stroke:#000000;}
	.st20{fill:none;stroke:#FF723B;stroke-width:4;stroke-miterlimit:10;}
	.st21{fill:none;stroke:#4FD4E7;stroke-width:19;stroke-linecap:round;stroke-linejoin:round;stroke-miterlimit:10;}
	.st22{fill:#4FD4E8;}
	.st23{clip-path:url(#SVGID_8_);fill:#4FD4E7;}
	.st24{clip-path:url(#SVGID_8_);}
	.st25{clip-path:url(#SVGID_10_);}
	.st26{clip-path:url(#SVGID_10_);fill:#FFFFFF;}
	.st27{fill:none;stroke:#000000;stroke-miterlimit:10;}
	.st28{fill:url(#SVGID_13_);}
	.st29{clip-path:url(#SVGID_15_);fill:#4FD4E7;}
	.st30{clip-path:url(#SVGID_15_);}
	.st31{fill:#F5F5F5;}
	.st32{fill:#37AFC9;}
	.st33{fill:none;stroke:#000000;stroke-width:2;}
	.st34{clip-path:url(#SVGID_17_);fill:#4FD4E8;}
	.st35{clip-path:url(#SVGID_19_);fill:#4FD4E8;}
	.st36{clip-path:url(#SVGID_21_);fill:#4FD4E8;}
	.st37{clip-path:url(#SVGID_23_);}
	.st38{clip-path:url(#SVGID_23_);fill:#4FD4E8;}
	.st39{fill:none;stroke:#009EE3;stroke-width:0.5;stroke-dasharray:1.509,1.009;}
	.st40{fill:none;stroke:#009EE3;stroke-width:0.5;stroke-dasharray:1.508,1.008;}
	.st41{fill:none;stroke:#009EE3;stroke-width:0.5;stroke-dasharray:1.502,1.002;}
	.st42{fill:none;stroke:#009EE3;stroke-width:0.5;stroke-dasharray:1.503,1.003;}
	.st43{fill:none;stroke:#009EE3;stroke-width:0.5;stroke-dasharray:1.498,0.998;}
	.st44{fill:none;stroke:#009EE3;stroke-width:0.5;stroke-dasharray:1.504,1.004;}
	.st45{fill:#858685;}
	.st46{fill:none;stroke:#4FD4E7;stroke-width:19;stroke-miterlimit:10;}
	.st47{opacity:0.15;fill:none;stroke:#002F4B;stroke-width:0.5;stroke-miterlimit:10;}
	.st48{clip-path:url(#SVGID_25_);fill:#4FD4E7;}
	.st49{clip-path:url(#SVGID_25_);}
	.st50{clip-path:url(#SVGID_27_);fill:#4FD4E7;}
	.st51{clip-path:url(#SVGID_27_);}
</style>
<g>
	<g>
		<path d="M24,21.4l-5.7,16h3.7l1-3.2l5.6,0l1,3.2h3.7l-5.7-16H24z M24.1,31.1l1.8-5.3l1.8,5.3H24.1z"/>
		<path d="M41.7,21v4.9c-0.6-0.7-1.5-1.2-3-1.2c-2.6,0-4.9,2.1-4.9,6.5c0,4.4,2.3,6.5,4.9,6.5c1.4,0,2.6-0.6,3.2-1.3v1h3.3l0-16.4
			H41.7z M41.7,33.7c-0.5,0.6-1.2,1-2.1,1c-1.3,0-2.3-1.3-2.3-3.5c0-2.3,1-3.5,2.3-3.5c0.9,0,1.6,0.4,2.1,1V33.7z"/>
		<path d="M52.8,24.7c-1.9,0-3.8,0.8-5.1,1.7l1.4,2.4c0.9-0.7,2.2-1.1,3.5-1.1c1,0,1.6,0.5,1.6,1.5v0.3c-5.1,0-7.2,1.6-7.2,4.3
			c0,2.7,1.9,3.9,4,3.9c1.8,0,2.9-0.7,3.5-1.5v1.2h3.3v-8C57.7,26.4,56.1,24.7,52.8,24.7z M54.1,33.8c-0.4,0.6-1.3,1.2-2.4,1.2
			c-0.8,0-1.4-0.4-1.4-1.2c0-1.3,1.5-1.8,3.8-1.8V33.8z"/>
		<path d="M74,24.7c-1.6,0-2.9,0.8-3.7,1.7c-0.7-1.1-1.8-1.7-3.6-1.7c-1.4,0-2.5,0.5-3.3,1.5V25h-3.3v12.4h3.5v-8.5
			c0.3-0.7,1-1.2,1.9-1.2c1.3,0,1.9,0.7,1.9,2.5v7.2H71v-7.5c0-0.3,0-0.7,0-1c0.3-0.6,1-1.2,2-1.2c1.3,0,1.9,0.7,1.9,2.5v7.2h3.5
			v-7.5C78.3,26.3,77.1,24.7,74,24.7z"/>
		<path d="M97,26.3c0-2.9-2.1-4.9-5.2-4.9h-7.3v16h3.6v-6.2h2.3l2.6,6.2H97l-3-6.6C95.9,30.1,97,28.5,97,26.3z M91.3,28.1h-3.2v-3.6
			h3.2c1.2,0,2,0.7,2,1.8C93.3,27.4,92.5,28.1,91.3,28.1z"/>
		<path d="M100.7,19.6c-1.3,0-2.1,0.9-2.1,2c0,1.1,0.8,2,2.1,2c1.3,0,2.1-0.9,2.1-2C102.8,20.5,102,19.6,100.7,19.6z"/>
		<rect x="99" y="25" width="3.5" height="12.4"/>
		<path d="M110.2,24.7c-3.7,0-5.7,3-5.7,6.6c0,3.9,2.1,6.4,6,6.4c1.7,0,3.2-0.5,4.7-2l-2.1-2.3c-0.5,0.6-1.5,1.3-2.6,1.3
			c-1.6,0-2.4-0.9-2.4-2.5h7.5c0-0.4,0.1-0.8,0.1-1.2C115.6,27.1,113.6,24.7,110.2,24.7z M108,29.7c0.1-1.4,0.9-2.1,2.1-2.1
			c1.4,0,2,0.8,2.1,2.1H108z"/>
		<path d="M123.5,29.8l-2.1-0.6c-0.6-0.2-0.8-0.5-0.8-0.8c0-0.4,0.3-0.8,1.1-0.8c0.9,0,2.2,0.4,3.4,1.2l1.4-2.6
			c-1.2-0.9-3-1.5-4.7-1.5c-3.3,0-4.9,1.8-4.9,4c0,1.8,1.3,3.1,3.1,3.6l2.1,0.6c0.8,0.2,1,0.5,1,1c0,0.6-0.5,0.9-1.3,0.9
			c-1.4,0-2.8-0.6-4.1-1.5l-1.2,2.8c1.2,0.9,3.2,1.6,5.4,1.6c3,0,4.8-1.7,4.8-4.1C126.9,31.7,125.6,30.4,123.5,29.8z"/>
		<path d="M139.4,31c0-3.9-2.1-6.3-5.4-6.3c-3.7,0-5.7,3-5.7,6.6c0,3.9,2.1,6.4,6,6.4c1.7,0,3.2-0.5,4.7-2l-2.1-2.3
			c-0.5,0.6-1.5,1.3-2.6,1.3c-1.6,0-2.4-0.9-2.4-2.5h7.5C139.3,31.8,139.4,31.4,139.4,31z M131.7,29.7c0.1-1.4,0.9-2.1,2.1-2.1
			c1.4,0,2,0.8,2.1,2.1H131.7z"/>
	</g>
	<path class="st3" d="M151.2,17.6c0.6-0.4,1-1.5,1-2.8c0-1.2-0.1-2.3-0.7-2.6c-0.6-0.4-1.3-0.6-1.6-0.7c-3.7-1.2-6.4-1.9-10.1-2.7
		c-2-1.1-4-2-6.1-2.9C127.8,3.4,116.3,0.1,115,0c-0.8,0-1.7,0.9-2.1,2.3c-0.5,1.5-0.3,2.9,0.4,3.2c1.1,0.5,2.9,0.7,4,1
		C105.3,6,93.4,5.8,81.5,5.8c-6.4,0-12.7,0-19.1,0.2c-5.3,0.1-10.6,0.5-16,0.5c-9,0-18-0.2-26.9,1.5c-8.7,1.7-16.7,7-19,16
		c-2,8.3,2.1,16.7,8.8,21.5c6.4,4.6,15,6.2,22.7,7.3c9.4,1.3,18.9,1.6,28.3,1.7c14.5,0.2,29,0.8,43.5,0.4c8.1-0.2,16.3-0.8,24.4-2.2
		c6.4-1.1,13.2-2.8,18.7-6.4c4.7-3.1,8.4-8.5,9.2-14.1C156.9,26.6,154.7,21.6,151.2,17.6z M144.7,40.6c-5,3.8-11.5,5.2-17.6,6.3
		c-15.1,2.7-30.9,2.4-46.2,2c-16.3-0.4-32.8,0.3-48.9-2c-7-1-15.4-2.6-20.9-7.4c-6-5.3-6.9-14.2-1.5-20.1c5.7-6.3,15.8-6.5,23.7-6.8
		c4.3-0.1,8.7-0.1,13-0.1c5.3,0,10.6-0.4,16-0.5c15.1-0.4,30.3,0,45.4,0.3c10,0.2,20.1,0.5,30,2.3c4.9,2.7,9.6,6.3,11.9,11.3
		C151.9,30.7,148.7,37.5,144.7,40.6z"/>
</g>
</svg>
