<?xml version="1.0" encoding="utf-8"?>
<svg version="1.1" id="Ebene_1" xmlns="http://www.w3.org/2000/svg" xmlns:xlink="http://www.w3.org/1999/xlink" x="0px" y="0px"
	 viewBox="0 0 492 133" enable-background="new 0 0 492 133" xml:space="preserve">
<g>
	<g>
		<path fill="#002F53" d="M139.044,41.62c3.86-0.69,8.898-1.031,14.134-1.031c8.897,0,14.684,1.443,19.103,4.818
			c4.817,3.589,7.853,9.381,7.853,17.651c0,8.905-3.23,15.029-7.648,18.823c-4.895,4.067-12.411,6-21.505,6
			c-5.462,0-9.385-0.346-11.938-0.687V41.62z M149.526,79.468c0.894,0.209,2.415,0.209,3.652,0.209
			c9.587,0.075,15.859-5.175,15.859-16.272c0-10-5.652-14.756-14.756-14.756c-2.266,0-3.861,0.209-4.756,0.426V79.468z"/>
		<path fill="#002F53" d="M209.508,88.158c-13.718,0-21.852-10.406-21.852-23.646c0-13.923,8.954-24.333,22.606-24.333
			c14.273,0,22.063,10.682,22.063,23.501c0,15.314-9.162,24.479-22.755,24.479H209.508z M209.989,79.818
			c7.101,0,11.174-6.69,11.174-15.8c0-8.331-3.932-15.506-11.174-15.506c-7.236,0-11.307,7.03-11.307,15.726
			c0,8.76,4.213,15.581,11.232,15.581H209.989z"/>
		<path fill="#002F53" d="M282.653,69.615c-0.205-5.598-0.411-12.28-0.411-19.107h-0.135c-1.518,5.931-3.449,12.549-5.244,17.999
			l-5.654,18.129h-8.204l-4.959-17.925c-1.513-5.512-3.036-12.063-4.204-18.204h-0.143c-0.206,6.279-0.482,13.448-0.761,19.238
			l-0.888,17.651h-9.722l2.962-46.468h13.989l4.557,15.588c1.514,5.308,2.892,11.095,3.932,16.542h0.277
			c1.237-5.384,2.824-11.444,4.409-16.695l4.895-15.435h13.787l2.483,46.468h-10.199L282.653,69.615z"/>
		<path fill="#002F53" d="M337.127,86.158c-1.864,0.891-6.273,1.999-11.87,1.999c-16.064,0-24.325-10.071-24.325-23.371
			c0-15.864,11.305-24.609,25.371-24.609c5.445,0,9.585,1.1,11.439,2.056l-2.201,8.274c-2.072-0.883-5.035-1.719-8.826-1.719
			c-8.269,0-14.759,5.036-14.759,15.448c0,9.304,5.513,15.162,14.823,15.162c3.251,0,6.69-0.615,8.824-1.521L337.127,86.158z"/>
		<path fill="#002F53" d="M357.325,40.929v26.683c0,8.063,3.102,12.14,8.405,12.14c5.52,0,8.556-3.865,8.556-12.14V40.929h10.48
			v26.067c0,14.341-7.245,21.161-19.378,21.161c-11.717,0-18.546-6.554-18.546-21.307V40.929H357.325z"/>
		<path fill="#002F53" d="M393.857,41.62c3.378-0.626,8.358-1.031,14.006-1.031c6.889,0,11.722,1.031,15.029,3.723
			c2.831,2.2,4.344,5.439,4.344,9.716c0,5.858-4.201,9.928-8.211,11.374v0.209c3.242,1.318,5.037,4.346,6.215,8.625
			c1.444,5.302,2.828,11.367,3.725,13.162h-10.759c-0.698-1.312-1.871-5.111-3.178-10.818c-1.307-5.856-3.303-7.385-7.648-7.448
			h-3.103v18.266h-10.419V41.62z M404.276,61.537h4.145c5.229,0,8.334-2.614,8.334-6.683c0-4.208-2.892-6.409-7.72-6.409
			c-2.546,0-3.999,0.14-4.759,0.343V61.537z"/>
		<polygon fill="#002F53" points="435.458,87.277 449.661,40.802 463.384,40.802 477.859,87.277 466.552,87.277 456.208,48.657 
			446.35,87.277 		"/>
	</g>
	<g>
		<linearGradient id="SVGID_1_" gradientUnits="userSpaceOnUse" x1="101.5809" y1="107.2767" x2="33.1473" y2="25.7207">
			<stop  offset="0.0056" style="stop-color:#B8B8B0"/>
			<stop  offset="0.0122" style="stop-color:#BCBDB5"/>
			<stop  offset="0.0475" style="stop-color:#D2D2CC"/>
			<stop  offset="0.0882" style="stop-color:#E3E3DF"/>
			<stop  offset="0.1357" style="stop-color:#F0F0ED"/>
			<stop  offset="0.1945" style="stop-color:#F9F9F8"/>
			<stop  offset="0.2769" style="stop-color:#FEFEFD"/>
			<stop  offset="0.5056" style="stop-color:#FFFFFF"/>
			<stop  offset="0.7239" style="stop-color:#FEFEFD"/>
			<stop  offset="0.8069" style="stop-color:#F8F8F7"/>
			<stop  offset="0.8669" style="stop-color:#EFEFED"/>
			<stop  offset="0.9158" style="stop-color:#E2E2DE"/>
			<stop  offset="0.9579" style="stop-color:#D1D1CB"/>
			<stop  offset="0.9947" style="stop-color:#BBBCB3"/>
			<stop  offset="1" style="stop-color:#B8B8B0"/>
		</linearGradient>
		<path fill="url(#SVGID_1_)" d="M120.596,66.499c0,29.404-23.831,53.228-53.242,53.228c-29.395,0-53.212-23.823-53.212-53.228
			s23.817-53.226,53.212-53.226C96.764,13.273,120.596,37.095,120.596,66.499z"/>
		<linearGradient id="SVGID_2_" gradientUnits="userSpaceOnUse" x1="100.8539" y1="106.4198" x2="33.8588" y2="26.5781">
			<stop  offset="0.0056" style="stop-color:#6A971F"/>
			<stop  offset="0.021" style="stop-color:#779F20"/>
			<stop  offset="0.0641" style="stop-color:#93B220"/>
			<stop  offset="0.1149" style="stop-color:#AAC120"/>
			<stop  offset="0.1778" style="stop-color:#BBCC1F"/>
			<stop  offset="0.2661" style="stop-color:#C5D21F"/>
			<stop  offset="0.5112" style="stop-color:#C8D41F"/>
			<stop  offset="0.7482" style="stop-color:#C5D21F"/>
			<stop  offset="0.8335" style="stop-color:#BBCC1F"/>
			<stop  offset="0.8943" style="stop-color:#AAC120"/>
			<stop  offset="0.9435" style="stop-color:#93B220"/>
			<stop  offset="0.9851" style="stop-color:#779F20"/>
			<stop  offset="1" style="stop-color:#6A971F"/>
		</linearGradient>
		<path fill="url(#SVGID_2_)" d="M67.354,14.393c-28.784,0-52.108,23.321-52.108,52.106c0,28.787,23.324,52.106,52.108,52.106
			c28.783,0,52.12-23.319,52.12-52.106C119.473,37.714,96.136,14.393,67.354,14.393z M67.354,113.389
			c-25.897,0-46.875-21-46.875-46.89c0-25.895,20.978-46.889,46.875-46.889c25.913,0,46.89,20.993,46.89,46.889
			C114.244,92.389,93.266,113.389,67.354,113.389z"/>
		<linearGradient id="SVGID_3_" gradientUnits="userSpaceOnUse" x1="95.6691" y1="100.2376" x2="39.043" y2="32.7533">
			<stop  offset="0.0056" style="stop-color:#6A971F"/>
			<stop  offset="0.018" style="stop-color:#739D1F"/>
			<stop  offset="0.0667" style="stop-color:#91B020"/>
			<stop  offset="0.1233" style="stop-color:#A9C020"/>
			<stop  offset="0.1916" style="stop-color:#BACC1F"/>
			<stop  offset="0.2841" style="stop-color:#C5D21F"/>
			<stop  offset="0.5056" style="stop-color:#C8D41F"/>
			<stop  offset="0.7453" style="stop-color:#C5D21F"/>
			<stop  offset="0.8316" style="stop-color:#BBCC1F"/>
			<stop  offset="0.8931" style="stop-color:#AAC120"/>
			<stop  offset="0.9428" style="stop-color:#93B220"/>
			<stop  offset="0.985" style="stop-color:#779F20"/>
			<stop  offset="1" style="stop-color:#6A971F"/>
		</linearGradient>
		<path fill="url(#SVGID_3_)" d="M67.354,22.452c-24.312,0-44.051,19.708-44.051,44.047c0,24.333,19.739,44.036,44.051,44.036
			c24.329,0,44.05-19.703,44.05-44.036C111.404,42.16,91.682,22.452,67.354,22.452z M67.354,109.896
			c-23.947,0-43.383-19.435-43.383-43.396c0-23.961,19.436-43.396,43.383-43.396c23.962,0,43.425,19.435,43.425,43.396
			C110.778,90.461,91.315,109.896,67.354,109.896z"/>
		<linearGradient id="SVGID_4_" gradientUnits="userSpaceOnUse" x1="90.1557" y1="92.6341" x2="50.5704" y2="45.4582">
			<stop  offset="0.0056" style="stop-color:#6A971F"/>
			<stop  offset="0.0208" style="stop-color:#779F20"/>
			<stop  offset="0.0634" style="stop-color:#93B220"/>
			<stop  offset="0.1137" style="stop-color:#AAC120"/>
			<stop  offset="0.1759" style="stop-color:#BBCC1F"/>
			<stop  offset="0.2632" style="stop-color:#C5D21F"/>
			<stop  offset="0.5056" style="stop-color:#C8D41F"/>
			<stop  offset="0.6912" style="stop-color:#C4D21F"/>
			<stop  offset="0.7904" style="stop-color:#B9CA1F"/>
			<stop  offset="0.8691" style="stop-color:#A5BE20"/>
			<stop  offset="0.9367" style="stop-color:#8CAD20"/>
			<stop  offset="0.9973" style="stop-color:#6C981F"/>
			<stop  offset="1" style="stop-color:#6A971F"/>
		</linearGradient>
		<path fill="url(#SVGID_4_)" d="M66.422,65.668c0,9.294-4.107,17.345-10.167,21.445h40.48L67.746,31.046l-8.404,15.847
			C63.652,51.335,66.422,58.112,66.422,65.668z"/>
		<path fill="#002F53" d="M63.51,65.668c0-6.168-2.185-11.751-5.743-15.882L37.989,87.027c0.025,0.02,0.07,0.049,0.114,0.087h12.151
			C57.99,83.879,63.51,75.526,63.51,65.668z"/>
	</g>
</g>
</svg>
