<svg width="128" height="64" viewBox="0 0 128 64" fill="none" xmlns="http://www.w3.org/2000/svg">
<g clip-path="url(#clip0_42677_205010)">
<path d="M16.2382 17C7.98139 17 1.26855 23.6457 1.26855 31.9696C1.26855 40.2936 7.91427 46.9393 16.2382 46.9393C24.5621 46.9393 31.2078 40.2936 31.2078 31.9696C31.2078 23.6457 24.5621 17 16.2382 17ZM16.2382 45.4624C8.78694 45.4624 2.74538 39.4209 2.74538 31.9696C2.74538 24.5184 8.78694 18.4097 16.2382 18.4097C23.6894 18.4097 29.731 24.4513 29.731 31.9025C29.731 39.3538 23.6894 45.4624 16.2382 45.4624Z" fill="#C3D221"/>
<path d="M13.6201 37.8098H24.8306L16.2381 21.6318L14.09 25.6595C15.4326 27.2035 16.2381 29.2845 16.2381 31.4997C16.2381 33.9835 15.2983 36.1987 13.6201 37.8098Z" fill="#C3D221"/>
<path d="M14.8282 31.4998C14.8282 29.8887 14.2912 28.2776 13.4186 27.0693L7.64551 37.8099H11.4047C13.4186 36.4673 14.8282 34.1178 14.8282 31.4998Z" fill="#5F5E5E"/>
<path d="M34.4971 25.4582C35.5711 25.2568 36.9137 25.1897 38.3905 25.1897C40.8071 25.1897 42.4182 25.5925 43.6265 26.5323C44.9691 27.5392 45.7746 29.0831 45.7746 31.3655C45.7746 33.7821 44.902 35.4603 43.6265 36.5344C42.284 37.6756 40.2701 38.1455 37.7864 38.1455C36.3095 38.1455 35.2355 38.0783 34.5642 37.9441V25.4582H34.4971ZM37.3836 35.7289C37.585 35.796 37.9877 35.796 38.3905 35.796C41.0085 35.796 42.6867 34.3863 42.6867 31.3655C42.6867 28.6132 41.1428 27.3378 38.659 27.3378C38.0549 27.3378 37.585 27.4049 37.3836 27.4721V35.7289Z" fill="#5F5E5E"/>
<path d="M53.763 38.1455C50.0038 38.1455 47.8557 35.3261 47.8557 31.7011C47.8557 27.8748 50.3395 25.0554 54.0315 25.0554C57.7236 25.0554 60.006 27.9419 60.006 31.4997C60.006 35.5946 57.5222 38.1455 53.763 38.1455ZM53.8973 35.8631C55.7769 35.8631 56.918 34.0506 56.918 31.5669C56.918 29.2845 55.844 27.3378 53.8973 27.3378C51.9505 27.3378 50.8094 29.2174 50.8094 31.634C50.8094 34.0506 51.9505 35.8631 53.8973 35.8631Z" fill="#5F5E5E"/>
<path d="M73.7671 33.0437C73.7 31.4998 73.6329 29.7544 73.6329 27.8077H73.5657C73.163 29.4188 72.6259 31.2984 72.156 32.7752L70.6121 37.7427H68.3297L67.0543 32.8423C66.6515 31.3655 66.1816 29.553 65.9131 27.8748H65.846C65.7788 29.553 65.7117 31.5669 65.6446 33.1108L65.4432 37.9441H62.7581L63.5636 25.2568H67.3899L68.6654 29.4859C69.0681 30.9627 69.4709 32.5067 69.7394 33.9835H69.8065C70.1422 32.5067 70.6121 30.8956 71.0149 29.4188L72.3574 25.1897H76.1166L76.855 37.877H74.1028L73.7671 33.0437Z" fill="#5F5E5E"/>
<path d="M88.6025 37.6084C88.1326 37.8098 86.9243 38.1455 85.3803 38.1455C81.017 38.1455 78.7346 35.3932 78.7346 31.7683C78.7346 27.472 81.8225 25.0554 85.6488 25.0554C87.1257 25.0554 88.2668 25.3239 88.7367 25.5924L88.1326 27.8748C87.5956 27.6734 86.79 27.4049 85.716 27.4049C83.4336 27.4049 81.6883 28.7475 81.6883 31.634C81.6883 34.1849 83.1651 35.796 85.716 35.796C86.6558 35.796 87.5284 35.6617 88.1326 35.3932L88.6025 37.6084Z" fill="#5F5E5E"/>
<path d="M94.107 25.1897V32.4396C94.107 34.6548 94.9797 35.7289 96.4565 35.7289C97.9333 35.7289 98.806 34.6548 98.806 32.4396V25.1897H101.625V32.3053C101.625 36.1988 99.6786 38.0784 96.3222 38.0784C92.9658 38.0784 91.2205 36.333 91.2205 32.3053V25.324H94.107V25.1897Z" fill="#5F5E5E"/>
<path d="M104.109 25.4582C105.049 25.324 106.391 25.1897 107.935 25.1897C109.815 25.1897 111.09 25.4582 112.03 26.1966C112.836 26.8008 113.239 27.6734 113.239 28.8818C113.239 30.4928 112.097 31.5669 110.956 31.9697V32.0368C111.896 32.3724 112.299 33.2451 112.634 34.3863C113.037 35.8631 113.44 37.4742 113.641 38.0112H110.688C110.486 37.6756 110.218 36.6015 109.815 35.0576C109.479 33.4465 108.875 32.9766 107.667 32.9766H106.794V38.0112H103.975L104.109 25.4582ZM106.929 30.8956H108.07C109.479 30.8956 110.352 30.1572 110.352 29.0831C110.352 28.0091 109.547 27.3378 108.204 27.3378C107.466 27.3378 107.13 27.4049 106.929 27.4049V30.8956Z" fill="#5F5E5E"/>
<path d="M115.387 37.877L119.28 25.1897H123.039L127 37.877H123.979L121.16 27.3378L118.475 37.877H115.387Z" fill="#5F5E5E"/>
</g>
<defs>
<clipPath id="clip0_42677_205010">
<rect width="126" height="29.9393" fill="white" transform="translate(1 17)"/>
</clipPath>
</defs>
</svg>
