<?xml version="1.0" encoding="UTF-8" standalone="no"?>
<!-- Created with Pixodesk SVG (https://pixodesk.com) -->
<svg xmlns="http://www.w3.org/2000/svg" viewBox="0 0 198.28 83.51" text-rendering="geometricPrecision" shape-rendering="geometricPrecision">
  <g id="Logo_Clean_Black_">
    <path fill="#17191c" fill-rule="evenodd" stroke-width="0px" d="M133.88,52.13C128.75,52.13,124.58,47.48,124.58,41.77C124.58,36.06,128.75,31.41,133.88,31.41C139.01,31.41,143.18,36.06,143.18,41.77C143.18,47.48,139.01,52.13,133.88,52.13zM133.88,27.45C126.59,27.45,120.63,33.87,120.63,41.76C120.63,49.65,126.58,56.07,133.88,56.07C141.18,56.07,147.14,49.65,147.14,41.76C147.14,33.87,141.19,27.45,133.88,27.45zM162.71,40.17L158.15,39.25C155.24,38.74,153.76,37.39,153.76,35.24C153.76,32.67,156.05,30.95,159.46,30.95C162.14,30.95,163.95,31.88,165.03,33.52C165.46,34.19,166.25,34.63,167.02,34.85C167.79,35.07,168.6,35.03,169.33,34.71L169.31,34.61C169.28,34.46,169.24,34.31,169.21,34.16L169.21,34.16C167.96,29.27,163.36,27.52,159.48,27.52C153.9,27.52,150.15,30.74,150.15,35.53C150.15,39.5,152.47,41.95,157.03,42.78L162.27,43.82C164.72,44.24,166.12,45.72,166.12,47.88C166.12,50.65,163.69,52.46,159.97,52.46C157.01,52.46,154.99,51.43,153.75,49.47C153.32,48.78,152.53,48.28,151.75,48.04C150.97,47.8,150.13,47.83,149.38,48.15L149.4,48.25C150.51,53.24,154.26,56,159.91,56C165.56,56,169.63,52.72,169.63,47.65C169.63,43.52,167.36,41.06,162.69,40.16L162.69,40.16L162.71,40.17zM75.66,31.81L84.28,31.81L84.28,51.7C84.28,52.68,84.67,53.63,85.37,54.32C86.07,55.02,87.01,55.41,87.99,55.41L87.99,31.82L92.56,31.82C93.05,31.82,93.53,31.73,93.98,31.55C94.43,31.36,94.83,31.09,95.17,30.74C95.51,30.39,95.77,29.98,95.95,29.53C96.12,29.08,96.2,28.59,96.18,28.11L79.28,28.11C78.31,28.13,77.39,28.53,76.71,29.22C76.03,29.91,75.66,30.84,75.66,31.81zM116.3,30.74C115.6,31.43,114.66,31.82,113.68,31.82L103.81,31.82L103.81,39.91L117.39,39.91C117.39,40.89,117,41.83,116.3,42.53C115.6,43.23,114.66,43.61,113.68,43.61L103.81,43.61L103.81,51.69L117.39,51.69C117.39,52.67,117,53.61,116.31,54.31C115.62,55,114.68,55.4,113.69,55.4L100.11,55.4L100.11,28.12L117.39,28.12C117.39,29.1,117,30.04,116.3,30.74zM74.89,51.73L66.33,51.73L66.36,28.14C65.87,28.14,65.39,28.23,64.94,28.42C64.49,28.61,64.08,28.88,63.73,29.22C63.38,29.56,63.11,29.97,62.92,30.42C62.73,30.87,62.64,31.35,62.64,31.84L62.61,55.4L78.58,55.42C78.58,54.44,78.19,53.5,77.49,52.81C76.8,52.12,75.86,51.73,74.88,51.73L74.89,51.73zM50.25,48.32L52.55,53.29C53.77,55.85,56.02,55.89,57.41,55.37L53.42,46.7L50.25,48.32zM43.08,33.35L34.22,50.86C33.8,51.15,32.54,51.76,31.3,52.37C30.3,52.86,29.31,53.34,28.76,53.65L41.25,28.95C41.44,28.59,41.72,28.28,42.08,28.07C42.43,27.86,42.84,27.75,43.25,27.76C43.66,27.77,44.06,27.89,44.4,28.12C44.74,28.34,45.02,28.66,45.19,29.03L51.52,42.62L48.23,43.93L43.37,33.35C43.37,33.35,43.33,33.3,43.31,33.28C43.28,33.26,43.25,33.25,43.22,33.25C43.19,33.25,43.16,33.25,43.13,33.28C43.1,33.3,43.08,33.32,43.07,33.35L43.08,33.35z"/>
    <path fill="#ffbd3e" stroke-width="0px" d="M52.72,43.58C54.46,42.89,56.37,43.41,57.41,45.49C57.41,45.49,32.33,55.4,31.59,55.65C30.85,55.9,29.21,56.04,28.77,54.86C28.33,53.68,29.14,52.92,29.82,52.59C30.5,52.26,52.72,43.59,52.72,43.59L52.72,43.58z"/>
  </g>
  <rect fill="none" stroke-width="0px" x="27.2597" y="26.2836" width="143.4376" height="31.1515"/>
</svg>