<?xml version="1.0" encoding="UTF-8"?>
<svg id="Ebene_1" xmlns="http://www.w3.org/2000/svg" version="1.1" viewBox="0 0 2834.6 1417.3">
  <!-- Generator: Adobe Illustrator 29.6.1, SVG Export Plug-In . SVG Version: 2.1.1 Build 9)  -->
  <defs>
    <style>
      .st0 {
        fill: #cd282d;
      }

      .st1 {
        fill: #e00;
      }
    </style>
  </defs>
  <g>
    <path class="st0" d="M2056.3,565.3v-83.1h361.5v80.8c-8.6,14.9-21.6,46.3-39.1,82-17.5,35.7-33.3,69.2-47.4,100.5-6.6,14.4-13.4,30.2-20.5,47.2-7.1,17.1-14.2,34.5-21.4,52.2-7.2,17.7-14.3,35.4-21.2,52.9-7,17.6-13.5,34.2-19.5,49.9-6.1,15.7-11.5,29.9-16.3,42.7-4.8,12.8-9.8,27.1-12.6,35.4h-113.5c13.1-38.2,29.6-83.1,46.9-127.1,17.3-44,34.7-86.2,52.2-126.7,12.9-30.4,29.5-67,49.7-110,20.2-43,35-79.3,44.4-96.8h-243.1,0Z"/>
    <path class="st0" d="M285.1,482.3v203.4c-46.3-9.2-95.2-19.7-146.7-31.4v-172.1H14.2v543.7h124.2v-266.9c51.5,11.5,100.3,21.7,146.7,30.8v236.1h124.2V482.3h-124.2Z"/>
    <path class="st0" d="M1195.8,1025.9h126.5s-96.4-191.3-156.7-309.2c8.7-7.7,17.2-15.7,25.3-24.1,12.8-13.2,25-27.5,36.4-42.5,11.2-14.7,21.9-30.6,31.8-47.3,21.1-35.4,39.5-75.4,55.5-120.6h-109.4c-10.4,25-21.6,47.7-34,68.4-32.1,53.9-71.6,94.5-120.7,124.2-11.4,6.9-23.6,13.3-36.3,19.2v-211.7h-120.8v543.7h120.8v-221.9c20.3-7.2,39.9-15.6,58.4-24.9l123.1,246.7h0Z"/>
    <path class="st0" d="M837.3,571.8v-89.6h-347.4v543.7h127.7v-187.7c5.2.4,10.3.8,15.4,1.2,39.1,2.8,76.4,4.2,111.5,4.2s20.9-.1,31.1-.4c10.5-.3,20.9-.7,31.1-1.2v-102.3c-11,.7-22.3,1.1-33.7,1.4-40.5,1-85.1-.2-132.7-3.6-7.5-.5-15.1-1.1-22.7-1.8v-163.9h219.7,0Z"/>
    <path class="st0" d="M1422.5,482.2c-11.3,43.5-43.5,113.7-76.1,151.6l-3.4,3.9h118.7v388.2h120.8c0,0,0-543.7,0-543.7h-160Z"/>
    <path class="st0" d="M1983.9,707.6c-13.5-14.6-29.8-25.4-49.1-32.5-19.3-7.1-41.1-10.6-65.5-10.6s-27.7,1.4-40.6,4.3c-12.9,2.9-23.1,6.5-30.7,10.9-7.6,4.4-15.2,9.3-22.8,14.9,3.8-23.5,6.3-37.5,14.2-53.4,33.1-66.8,94-76.2,132.6-75.9,13.9.1,37.5,0,59.5,0v-83.1h-6.5c-16.1,0-52.7.1-62.3,0h-23.8c-58.7,1.1-128.2,13.3-187.3,103.4-13.7,20.9-22.8,44.1-30.4,67.3-7.6,23.3-12.9,46.7-15.9,70.2-3,23.5-4.6,45.5-4.6,66,0,37.9,3.9,71.8,11.8,101.5,7.8,29.7,19.5,54.9,35.1,75.5,15.6,20.6,34.9,36.4,58,47.2,23.1,10.9,50.1,16.3,81,16.3s55.6-4.4,79.2-13.3c23.5-8.8,43.6-21.6,60.3-38.3,16.6-16.7,29.4-37.2,38.4-61.5,8.9-24.3,13.4-51.8,13.4-82.7,0-73.9-30.6-111.7-44-126.3h0ZM1897.5,920.9c-13.2,17.9-32.1,26.8-56.8,26.8s-20.5-2.2-29.3-6.6c-8.7-4.4-16.2-10.8-22.5-19-6.2-8.3-11.1-18.4-14.5-30.4-3.5-12-5.2-25.4-5.2-40.2,0-31.1,6.6-55.1,19.8-72,13.2-16.9,31.6-25.3,55.3-25.3s42.1,7.6,54.4,22.8c12.3,15.2,18.5,38.9,18.5,70.9s-6.6,55.3-19.8,73.1h0Z"/>
    <path class="st0" d="M2773.9,707.6c-13.5-14.6-29.8-25.4-49.1-32.5-19.3-7.1-41.1-10.6-65.5-10.6s-27.7,1.4-40.6,4.3c-12.9,2.9-23.1,6.5-30.7,10.9-7.6,4.4-15.2,9.3-22.8,14.9,3.8-23.5,6.3-37.5,14.2-53.4,33.1-66.8,94-76.2,132.6-75.9,13.9.1,37.5,0,59.5,0v-83.1h-6.5c-16.1,0-52.7.1-62.3,0h-23.8c-58.7,1.1-128.2,13.3-187.3,103.4-13.7,20.9-22.8,44.1-30.4,67.3-7.6,23.3-12.9,46.7-15.9,70.2-3,23.5-4.6,45.5-4.6,66,0,37.9,3.9,71.8,11.8,101.5,7.8,29.7,19.5,54.9,35.1,75.5,15.6,20.6,34.9,36.4,58,47.2,23.1,10.9,50.1,16.3,81,16.3s55.6-4.4,79.2-13.3c23.5-8.8,43.6-21.6,60.3-38.3,16.6-16.7,29.4-37.2,38.4-61.5,8.9-24.3,13.4-51.8,13.4-82.7,0-73.9-30.6-111.7-44-126.3h0ZM2687.4,920.9c-13.2,17.9-32.1,26.8-56.8,26.8s-20.5-2.2-29.3-6.6c-8.7-4.4-16.2-10.8-22.5-19-6.2-8.3-11.1-18.4-14.5-30.4-3.5-12-5.2-25.4-5.2-40.2,0-31.1,6.6-55.1,19.8-72,13.2-16.9,31.6-25.3,55.3-25.3s42.1,7.6,54.4,22.8c12.3,15.2,18.5,38.9,18.5,70.9s-6.6,55.3-19.8,73.1h0Z"/>
  </g>
  <g>
    <path class="st0" d="M14.5,1412.5v-264.7h85c19.7,0,37.3,2.8,52.8,8.3,15.5,5.5,28.6,13.8,39.2,24.8,10.7,11,18.8,24.8,24.5,41.4,5.6,16.6,8.5,35.9,8.5,57.9s-2.8,41.4-8.5,57.9c-5.6,16.6-13.8,30.3-24.6,41.3-10.7,11-23.8,19.2-39.3,24.7-15.5,5.5-33,8.3-52.6,8.3H14.5ZM68.6,1368.6h31.2c15.6,0,28.7-3.8,39.2-11.5,10.5-7.7,17.7-18.5,21.8-32.4,4-13.9,6-28.7,6-44.5,0-23.1-3.5-41.5-10.4-55.2-6.9-13.8-15.6-22.8-25.9-27.1-10.4-4.3-20.6-6.4-30.6-6.4h-31.2v177.1Z"/>
    <path class="st0" d="M263.4,1412.5v-158.1c-15-1.6-23-2.5-24-2.6v-33.5h76.6v194.2h-52.6ZM285.1,1187.1c-4.3,0-8.4-.8-12.2-2.3-3.8-1.5-7.1-3.6-10-6.2-2.9-2.6-5.2-5.7-6.9-9.2-1.7-3.5-2.5-7.3-2.5-11.3,0-6.2,1.7-11.6,5.2-16.3,3.5-4.6,7.7-8,12.6-10,4.9-2,9.5-3.1,13.9-3.1s11.6,1.6,17,4.7c5.4,3.1,9.2,7,11.5,11.6,2.3,4.7,3.4,9,3.4,13.1,0,6.2-1.9,11.7-5.7,16.5-3.8,4.8-8.1,8.1-12.8,9.9-4.8,1.8-9.3,2.7-13.5,2.7Z"/>
    <path class="st0" d="M446,1417.2c-15.3,0-28.9-2.5-40.8-7.3-12-4.9-22-11.8-30.2-20.7-8.2-8.9-14.4-19.6-18.8-32.1-4.3-12.5-6.5-26.3-6.5-41.6s1.9-28.1,5.8-40.5c3.8-12.4,9.5-23.1,17-32.2,7.5-9.1,16.9-16.1,28.2-21.3,11.3-5.1,24.4-7.7,39.2-7.7,26.9,0,47.3,8.1,61.3,24.2,14,16.1,20.9,39.4,20.9,69.9s-.3,18.3-.7,24h-116.8c1.5,15.4,6.3,26.6,14.4,33.8,8.1,7.1,19.7,10.7,34.7,10.7s16.4-.6,25.5-1.9c9-1.2,16.7-2.9,22.9-4.8l9.9,39.2c-9.5,2.5-19.8,4.5-30.9,6-11,1.5-22.7,2.3-35,2.3ZM402.9,1296.3h66.4v-5.6c0-13.6-2.7-23.7-8-30.2-5.3-6.5-13-9.8-22.9-9.8s-18.9,3.9-25,11.6c-6.1,7.7-9.6,19.1-10.5,33.9Z"/>
    <path class="st0" d="M640.4,1412.5c0-13.1.2-27.3.5-42.4.3-15.1.7-30.6,1.2-46.5.5-15.9,1.1-31.9,1.9-48,.7-16.1,1.6-31.8,2.6-47.1,1-15.2,2-29.8,3.2-43.5,1.1-13.8,2.3-26.2,3.5-37.2h54.5l64,165.2,63.6-165.2h52.6c1.2,10.9,2.4,23.4,3.5,37.4,1.1,14,2.1,28.8,3.1,44.5.9,15.6,1.8,31.7,2.6,48.3.8,16.6,1.5,32.8,2,48.8.6,16,1,31.3,1.3,45.9.3,14.6.5,27.9.5,39.8h-50c0-19-.4-44.6-1.2-76.9-.8-32.3-1.9-65.4-3.3-99.4l-58.4,147.7h-35.3l-57.8-148.4c-.6,13.6-1.4,34.2-2.2,61.6-.9,27.4-1.5,50.5-1.8,69.2-.3,18.7-.5,34.2-.7,46.3h-49.8Z"/>
    <path class="st0" d="M995.2,1416.3c-8.2,0-15.9-1.1-23.1-3.3-7.2-2.2-13.5-5.6-18.9-10.2-5.4-4.7-9.7-10.7-12.8-18.1-3.2-7.4-4.7-16.4-4.7-27,0-16.6,4-30,11.9-40.2,7.9-10.2,19.2-17.6,33.9-22.3,6.1-2.1,12.7-3.7,19.9-4.7,7.2-1.1,14.9-1.8,23.1-2.1,2.6-.2,5.5-.4,8.6-.4s5.5,0,7.3-.2c1.8-.1,3.5-.2,5.1-.2v-7.6c0-7.3-1.6-13-4.7-17.2-3.1-4.2-7.7-6.9-13.9-8.4-6.1-1.4-12.8-2.1-20-2.1s-17.3.9-26.3,2.6c-9,1.7-18.9,4.5-29.7,8.4v-40c11.9-3.1,22.7-5.3,32.4-6.7,9.7-1.4,21.3-2,35-2,20.3,0,36.5,2.9,48.5,8.6,12,5.7,20.1,13.8,24.2,24.3,4.1,10.5,6.1,21.6,6.1,33.4v131.9h-49.1l-1.5-14.1c-3.5,3.2-8.1,6.3-13.9,9.2-5.8,2.9-11.9,5.1-18.3,6.5-6.4,1.4-12.8,2.1-19.2,2.1ZM1010.6,1377.6c5.3,0,10.5-.7,15.6-2.2,5.1-1.5,9.1-3.1,12.2-4.7,3-1.7,5.4-3.2,7-4.6v-43h-8c-14.4,0-25.4,1.6-33,4.7-7.6,3.1-12.5,7-14.6,11.8-2.1,4.8-3.2,9.6-3.2,14.4s1,9.3,3.1,13.1c2,3.8,4.9,6.5,8.6,8.1,3.7,1.6,7.8,2.4,12.3,2.4Z"/>
    <path class="st0" d="M1139.6,1412.5v-279.9h52.4v158.5l61-72.7h62.9l-74.2,84.1c10.3,11.5,22.4,26.7,36.5,45.6,14,18.8,28.5,40.4,43.5,64.5h-64.4c-10.3-16.5-32.1-47-65.3-91.5v91.5h-52.4Z"/>
    <path class="st0" d="M1352.3,1412.5v-243.8c-15-1.6-23-2.5-24-2.6v-33.5h76.6v279.9h-52.6Z"/>
    <path class="st0" d="M1540.3,1417.2c-15.3,0-28.9-2.5-40.8-7.3-12-4.9-22-11.8-30.2-20.7-8.2-8.9-14.4-19.6-18.8-32.1-4.3-12.5-6.5-26.3-6.5-41.6s1.9-28.1,5.8-40.5c3.8-12.4,9.5-23.1,17-32.2,7.5-9.1,16.9-16.1,28.2-21.3,11.3-5.1,24.4-7.7,39.2-7.7,26.9,0,47.3,8.1,61.3,24.2,14,16.1,20.9,39.4,20.9,69.9s-.3,18.3-.7,24h-116.8c1.5,15.4,6.3,26.6,14.4,33.8,8.1,7.1,19.7,10.7,34.7,10.7s16.4-.6,25.5-1.9c9-1.2,16.7-2.9,22.9-4.8l9.9,39.2c-9.5,2.5-19.8,4.5-30.9,6-11,1.5-22.7,2.3-35,2.3ZM1497.2,1296.3h66.4v-5.6c0-13.6-2.7-23.7-8-30.2-5.3-6.5-13-9.8-22.9-9.8s-18.9,3.9-25,11.6c-6.1,7.7-9.6,19.1-10.5,33.9Z"/>
    <path class="st0" d="M1652.8,1412.5v-194.2h49.5l1.5,35c6.2-12.4,13.7-21.7,22.5-28,8.8-6.3,18.5-9.4,29-9.4s7.3.3,10.5.8c3.2.6,5.4,1.1,6.6,1.6v48c-2-.5-4.8-1-8.4-1.4-3.6-.4-7.6-.7-11.9-.7-10.9,0-20.3,3.2-28.1,9.7-7.8,6.4-12.9,13.5-15.3,21.3-2.4,7.7-3.5,14.5-3.5,20.2v97.1h-52.4Z"/>
    <path class="st0" d="M1798.9,1412.5v-194.2h49.5l1.5,22.3c5.2-7.7,12.2-14,21-18.9,8.8-4.9,19.3-7.3,31.6-7.3s24.5,2.5,33.2,7.4c8.7,5,15.3,12.2,19.6,21.6,4.8-6.4,10.4-12,16.6-16.6,6.3-4.6,13-7.8,20.1-9.7,7.1-1.9,14.1-2.8,20.9-2.8,15.1,0,27.4,3.2,36.9,9.6,9.5,6.4,15.8,14.5,19.1,24.5,3.2,9.9,4.8,19.9,4.8,29.9v134.1h-52.4v-122.6c0-10.9-2-18.8-6-23.8-4-5-10.4-7.4-19.2-7.4s-9.5,1.1-13.7,3.4c-4.2,2.3-7.7,5.4-10.7,9.2-3,3.8-5.3,8.3-6.9,13.5-1.6,5.1-2.4,10.5-2.4,16.1v111.6h-52.4v-122.6c0-10.9-2-18.8-6-23.8-4-5-10.4-7.4-19.2-7.4s-9.5,1.1-13.7,3.4c-4.2,2.3-7.7,5.4-10.7,9.2-3,3.8-5.3,8.3-6.9,13.5-1.6,5.1-2.4,10.5-2.4,16.1v111.6h-52.4Z"/>
    <path class="st0" d="M2167.7,1416.3c-8.2,0-15.9-1.1-23.1-3.3-7.2-2.2-13.5-5.6-18.9-10.2-5.4-4.7-9.7-10.7-12.8-18.1-3.2-7.4-4.7-16.4-4.7-27,0-16.6,4-30,11.9-40.2,7.9-10.2,19.2-17.6,33.9-22.3,6.1-2.1,12.7-3.7,19.9-4.7,7.2-1.1,14.9-1.8,23.1-2.1,2.6-.2,5.5-.4,8.6-.4s5.5,0,7.3-.2c1.8-.1,3.5-.2,5.1-.2v-7.6c0-7.3-1.6-13-4.7-17.2-3.1-4.2-7.7-6.9-13.9-8.4-6.1-1.4-12.8-2.1-20-2.1s-17.3.9-26.3,2.6c-9,1.7-18.9,4.5-29.7,8.4v-40c11.9-3.1,22.7-5.3,32.4-6.7,9.7-1.4,21.3-2,35-2,20.3,0,36.5,2.9,48.5,8.6,12,5.7,20.1,13.8,24.2,24.3,4.1,10.5,6.1,21.6,6.1,33.4v131.9h-49.1l-1.5-14.1c-3.5,3.2-8.1,6.3-13.9,9.2-5.8,2.9-11.9,5.1-18.3,6.5-6.4,1.4-12.8,2.1-19.2,2.1ZM2183.1,1377.6c5.3,0,10.5-.7,15.6-2.2,5.1-1.5,9.1-3.1,12.2-4.7,3-1.7,5.4-3.2,7-4.6v-43h-8c-14.4,0-25.4,1.6-33,4.7-7.6,3.1-12.5,7-14.6,11.8-2.1,4.8-3.2,9.6-3.2,14.4s1,9.3,3.1,13.1c2,3.8,4.9,6.5,8.6,8.1,3.7,1.6,7.8,2.4,12.3,2.4Z"/>
    <path class="st0" d="M2312.1,1412.5v-194.2h49.5l1.5,35c6.2-12.4,13.7-21.7,22.5-28,8.8-6.3,18.5-9.4,29-9.4s7.3.3,10.5.8c3.2.6,5.4,1.1,6.6,1.6v48c-2-.5-4.8-1-8.4-1.4-3.6-.4-7.6-.7-11.9-.7-10.9,0-20.3,3.2-28.1,9.7-7.8,6.4-12.9,13.5-15.3,21.3-2.4,7.7-3.5,14.5-3.5,20.2v97.1h-52.4Z"/>
    <path class="st0" d="M2458.3,1412.5v-279.9h52.4v158.5l61-72.7h62.9l-74.2,84.1c10.3,11.5,22.4,26.7,36.5,45.6,14,18.8,28.5,40.4,43.5,64.5h-64.4c-10.3-16.5-32.1-47-65.3-91.5v91.5h-52.4Z"/>
    <path class="st0" d="M2741.5,1417.2c-15.3,0-28.9-2.5-40.8-7.3-12-4.9-22-11.8-30.2-20.7-8.2-8.9-14.4-19.6-18.8-32.1-4.3-12.5-6.5-26.3-6.5-41.6s1.9-28.1,5.8-40.5c3.8-12.4,9.5-23.1,17-32.2,7.5-9.1,16.9-16.1,28.2-21.3,11.3-5.1,24.4-7.7,39.2-7.7,26.9,0,47.3,8.1,61.3,24.2,14,16.1,20.9,39.4,20.9,69.9s-.3,18.3-.7,24h-116.8c1.5,15.4,6.3,26.6,14.4,33.8,8.1,7.1,19.7,10.7,34.7,10.7s16.4-.6,25.5-1.9c9-1.2,16.7-2.9,22.9-4.8l9.9,39.2c-9.5,2.5-19.8,4.5-30.9,6-11,1.5-22.7,2.3-35,2.3ZM2698.3,1296.3h66.4v-5.6c0-13.6-2.7-23.7-8-30.2-5.3-6.5-13-9.8-22.9-9.8s-18.9,3.9-25,11.6c-6.1,7.7-9.6,19.1-10.5,33.9Z"/>
  </g>
  <g>
    <path class="st1" d="M1680.1,162.2h-153.3v-21.1h153.3v-14.1c0-19.5-14.9-35.3-33.3-35.3h-133.3c-18.4,0-33.3,15.8-33.3,35.3v77.5h153.3v21.2h-153.3v14.1c0,19.5,14.9,35.3,33.3,35.3h133.3c18.4,0,33.3-15.8,33.3-35.3v-77.5ZM1613.4,35.4c0,19.5-14.9,35.3-33.3,35.3s-33.3-15.8-33.3-35.3S1561.7.1,1580.1.1s33.3,15.8,33.3,35.3Z"/>
    <path class="st1" d="M1848.5,163.2v-15.2h-68.4v127h17.3v-60.7h42.7v-15h-42.7v-36.2h51.1Z"/>
    <path class="st1" d="M1885.5,275v-92.5h-28.2v11.7c3.3.2,8.3.9,11.4,1.4v79.3h16.7ZM1886,153.4c0-6.2-5-11.1-10.9-11.1s-11,4.9-11,11.1,5,11,11,11c5.9,0,10.9-4.9,10.9-11Z"/>
    <path class="st1" d="M1987.2,275v-64.1c0-18.8-10.2-30.1-28.3-30.1s-22.3,6-27.5,14.8l-.3-13h-16.1v92.5h16.8v-53.7c0-14.1,9.7-25.4,21.9-25.4s16.8,6.2,16.8,20.1v59h16.7Z"/>
    <path class="st1" d="M2060.8,254.6c-4.2,4.6-11.6,8.6-20.2,8.6s-14.8-7.3-14.8-15c0-13.9,9.3-18.6,28.8-18.6h6.2v25ZM2077.4,275v-63.6c0-21.6-10.4-30.7-33.7-30.7s-19.4,1.6-27.8,4.2v14.4c7.2-2.8,15.2-5.1,24.5-5.1,15.4,0,20.4,5.5,20.4,17.4v4.9c-1,0-7.8.2-8.8.2-10.2.2-18.5,1.5-25.1,4.2-11.7,4.9-18,14.1-18,27.9,0,20.3,12.3,28,27,28s21.3-5.5,25.2-9.7l.3,7.8h15.9Z"/>
    <path class="st1" d="M2177.5,275v-64.1c0-18.8-10.2-30.1-28.3-30.1s-22.3,6-27.5,14.8l-.3-13h-16.1v92.5h16.7v-53.7c0-14.1,9.7-25.4,22-25.4s16.8,6.2,16.8,20.1v59h16.7Z"/>
    <path class="st1" d="M2266.4,275v-13.9h-50.3c5-8.1,14-20.6,23.3-32.9,10.4-13.5,21.2-27,25.2-32v-13.7h-65.6v13.9h45.4c-3.8,4.7-12.3,15-21.6,27.8-11.2,15.3-21.4,30.3-25.6,37.1v13.7h69.1Z"/>
    <path class="st1" d="M2339.5,232.3c0,17.4-8,29-20.7,29s-20.6-15.3-20.6-32.5,9.2-33.1,22.3-33.1,15,4.5,19,8.8v27.8ZM2356.2,275.2v-92.6h-16.1l-.3,7.9c-4.9-5.5-12.1-9.7-24-9.7-19.9,0-35.8,17.3-35.8,48s14.5,46.8,34.6,46.8,19.4-4.2,25-13.5v14.3c0,15.9-7.9,23.6-25.4,23.6s-16.2-1.6-21.1-2.9l-2.6,13.5c5.2,1.3,14,3.3,27.1,3.3s22.6-3.3,29.2-10c6-6.5,9.3-15.4,9.3-28.5Z"/>
    <path class="st1" d="M2432.2,199.4v-16.8c-1-.2-3.3-.5-6.6-.5-11.2,0-19.9,7.5-24.7,18.1l-.3-17.5h-16.1v92.5h16.8v-50.1c0-11.5,8.1-26.1,24.9-26.1,2.6,0,5.2.3,6,.5Z"/>
    <path class="st1" d="M2520.4,275v-92.5h-16.8v53.9c0,13.9-9.6,25.4-22.1,25.4s-16.6-5.7-16.6-19.4v-59.9h-16.8v63.8c0,20.3,10.2,30.5,28.1,30.5s22.5-5.9,27.6-14.8l.2,13h16.3Z"/>
    <path class="st1" d="M2607.2,227.9c0,6.8-.9,13.2-2.4,18.5-2.9,9.7-9.1,16.1-20.7,16.1s-13.6-3.3-18.7-8.6v-23.7c0-20.1,7.6-34.4,21.2-34.4,15.2,0,20.6,13.5,20.6,32.1ZM2625.2,227.5c0-30.3-12.4-46.8-34-46.8s-22.5,7.9-26.1,15.3l-.3-13.5h-16.1v129.4h16.8v-42.6c5.2,4.6,12.3,7.5,22.1,7.5,24.3,0,37.6-18.1,37.6-49.3Z"/>
    <path class="st1" d="M2708.1,227.9c0,6.8-.8,13.2-2.4,18.5-2.9,9.7-9.1,16.1-20.7,16.1s-13.7-3.3-18.7-8.6v-23.7c0-20.1,7.6-34.4,21.3-34.4,15.2,0,20.5,13.5,20.5,32.1ZM2726.1,227.5c0-30.3-12.4-46.8-34-46.8s-22.5,7.9-26.1,15.3l-.3-13.5h-16.1v129.4h16.8v-42.6c5.2,4.6,12.3,7.5,22.1,7.5,24.3,0,37.6-18.1,37.6-49.3Z"/>
    <path class="st1" d="M2802.8,221.5h-38.9c1-17.7,7.8-28.1,20.9-28.1s18,8.8,18,23.9v4.2ZM2820.5,223.5c0-27.8-11.9-43.1-35.2-43.1s-38.7,19.7-38.7,48.6,15.2,48.2,41.8,48.2,19.4-1.1,26.6-3.5l-3.3-13.5c-5,1.5-13.3,2.9-20.9,2.9-16.8,0-25.1-10.2-26.4-28.9h55.8c.1-3.1.3-7,.3-10.8Z"/>
  </g>
</svg>