<?xml version="1.0" encoding="UTF-8"?>
<svg id="Ebene_1" xmlns="http://www.w3.org/2000/svg" version="1.1" viewBox="0 0 461.11 342.77">
  <!-- Generator: Adobe Illustrator 29.8.2, SVG Export Plug-In . SVG Version: 2.1.1 Build 3)  -->
  <defs>
    <style>
      .st0 {
        fill: #f4971a;
      }

      .st1 {
        fill: #053a57;
      }
    </style>
  </defs>
  <path class="st1" d="M86.77,21.34v216.57H30.65V27.01l56.13-5.67ZM184,86.54l-39.97,66.33,42.24,85.04h-62.08l-36.28-82.77,40.54-68.6h55.56Z"/>
  <path class="st1" d="M199.64,122.39v23.61h22.86v18.47h-22.86v23.61h-19.83v-23.61h-23.01v-18.47h23.01v-23.61h19.83Z"/>
  <path class="st1" d="M429.25,96c6.93,7.86,10.4,18.72,10.4,32.59v109.28h-54.92v-99.29c0-5.36-.65-9.11-1.94-11.23-1.3-2.12-3.15-3.19-5.55-3.19-2.77,0-5.45,1.25-8.04,3.74-2.59,2.5-4.99,6.15-7.21,10.95v99.01h-54.92v-99.29c0-5.36-.65-9.11-1.94-11.23-1.3-2.12-3.15-3.19-5.55-3.19-2.77,0-5.46,1.25-8.04,3.74-2.59,2.5-4.99,6.15-7.21,10.95v99.01h0c-30.33,0-54.91-24.59-54.91-54.91v-93.19h47.98l3.88,14.98c5.92-7.21,12.34-12.43,19.28-15.67,6.93-3.23,14.84-4.85,23.71-4.85,7.77,0,14.51,1.85,20.25,5.55,5.73,3.7,10.08,8.97,13.04,15.81,6.28-7.39,12.94-12.8,19.97-16.22,7.02-3.42,15.16-5.13,24.41-5.13,11.28,0,20.39,3.93,27.32,11.79Z"/>
  <path class="st0" d="M385.22,252.39c-46.88,33.76-129.17,37.79-181.28,5.54-2.9-1.79-5.76-3.68-8.58-5.62h-67.5c12.69,17.34,28.6,32.9,48.42,45.17,86.7,53.65,203.82,33.85,263.28-45.08h-54.33Z"/>
</svg>