<?xml version="1.0" encoding="utf-8"?>
<!-- Generator: Adobe Illustrator 18.0.0, SVG Export Plug-In . SVG Version: 6.00 Build 0)  -->
<!DOCTYPE svg PUBLIC "-//W3C//DTD SVG 1.0//EN" "http://www.w3.org/TR/2001/REC-SVG-20010904/DTD/svg10.dtd">
<svg version="1.0" id="Ebene_1" xmlns="http://www.w3.org/2000/svg" xmlns:xlink="http://www.w3.org/1999/xlink" x="0px" y="0px"
	 viewBox="0 0 503 102.8" enable-background="new 0 0 503 102.8" xml:space="preserve">
<polygon fill="#80A4A3" points="26.9,0.6 26.9,40.7 26.3,40.7 20.8,30.6 4.9,0.6 0,0.6 0,43.5 2.9,43.5 2.9,3.8 3.4,3.8 8.6,13.7 
	24.6,43.5 29.6,43.5 29.6,0.6 "/>
<path fill="#769E9C" d="M124.6,0c-10.3,0-16.6,6.4-16.6,22.3c0,15.7,6.1,21.9,16.1,21.9c10.3,0,16.6-6.4,16.6-22.3
	C140.8,6.1,134.7,0,124.6,0 M124.5,40.7c-7.7,0-12.6-4.7-12.6-18.8c0-14,4.9-18.4,12.5-18.4c7.7,0,12.6,4.7,12.6,18.8
	C137,36.3,132.1,40.7,124.5,40.7"/>
<path fill="#6D9796" d="M231.4,0.6h-5l-9.9,30.9c-0.2,0.9-2.4,7.5-2.6,8.3h-0.2c-0.1-0.9-2.3-7.5-2.6-8.3l-9.9-30.9h-5.3l14,42.9
	h7.5L231.4,0.6z"/>
<polygon fill="#64918F" points="298.9,0.6 276.1,0.6 276.1,43.5 299.7,43.5 299.7,38.9 281.3,38.9 281.3,24.2 296.7,24.2 
	296.7,19.3 281.3,19.3 281.3,5.3 298.9,5.3 "/>
<path fill="#5B8B89" d="M373.3,0.6h-9.6L352.6,29h-0.3L341.2,0.6h-9.8v42.9h5.8V7.9h0.4l11.7,29.8h5.9c2.4-5.9,9.3-23.8,11.8-29.8
	h0.3v35.6h6V0.6z"/>
<polygon fill="#487E7C" points="461.5,0.6 437,0.6 437,43.5 462.3,43.5 462.3,37.1 444.7,37.1 444.7,25 459.2,25 459.2,18.6 
	444.7,18.6 444.7,7 461.5,7 "/>
<path fill="#528482" d="M409,0.5h-13.8H395v0.2v42.7v0.2h0.2h13.3C422,43.7,424,35.7,424,31c0-5.2-2.7-8.8-7.3-9.8
	c3.2-1.4,5.2-4.9,5.2-9.4C421.9,6.7,419.7,0.5,409,0.5 M401.8,18.8V6.5h6.2c4.7,0,7.1,2,7.1,6c0,4.3-2.2,6.3-7,6.3H401.8z
	 M401.8,37.6V24.9h7.2c5.3,0,8,2.2,8,6.4c0,4.3-2.4,6.3-7.7,6.3H401.8z"/>
<path fill="#3F7876" d="M490.4,14c0,4.2-2,6-6.8,6h-3.5V8.2h3.4C488.2,8.2,490.4,10.1,490.4,14 M495.6,30.5
	c-1.6-2.7-2.8-4.3-4.3-5.3c5.1-1.4,8.1-5.7,8.1-11.8c0-8.6-4.9-12.7-14.9-12.7h-13v42.9h8.7V27.4h0.9c2.1,0,3.3,0.7,4.2,2.3
	l7.3,13.8H503L495.6,30.5z"/>
<polygon fill="#979585" points="207.9,76.8 206.2,76.8 201.3,91.6 200.2,95 200.1,95 199,91.6 194.1,76.8 192.3,76.8 198.7,96.2 
	201.5,96.2 "/>
<path fill="#979585" d="M215.9,81c-4.4,0-6.1,3.2-6.1,7.8c0,4.5,1.5,7.6,5.9,7.6c4.4,0,6.1-3.2,6.1-7.8
	C221.8,84.1,220.2,81,215.9,81 M215.9,94.9c-3.1,0-4.4-2.1-4.4-6.3c0-4.1,1.2-6.1,4.3-6.1c3.1,0,4.4,2,4.4,6.3
	C220.1,92.9,219,94.9,215.9,94.9"/>
<path fill="#979585" d="M231.7,81c-1.7,0-3,0.8-3.7,1.7h-0.1l-0.4-1.5h-1.2v14.9h1.6V84.8c0.7-1.5,2.2-2.1,3.7-2.1
	c0.6,0,1.1,0.1,1.7,0.2v-1.7C233,81.1,232.5,81,231.7,81"/>
<path fill="#979585" d="M241.3,81c-3.2,0-5,1.9-5,4c0,5.1,7.7,3.5,7.7,7.2c0,1.4-1.2,2.7-3.5,2.7c-1.7,0-3.1-0.6-4.1-1.6l-1.1,1.3
	c1,1,2.8,1.8,5.1,1.8c3.4,0,5.1-2.1,5.1-4.2c0-5.1-7.7-3.6-7.7-7.3c0-1.3,1-2.5,3.3-2.5c1.1,0,2.3,0.4,3.1,1.2l1.1-1.2
	C244.5,81.6,242.9,81,241.3,81"/>
<path fill="#979585" d="M255.6,81c-4.4,0-6.1,3.2-6.1,7.8c0,4.5,1.6,7.6,5.9,7.6c4.4,0,6.1-3.2,6.1-7.8C261.5,84.1,260,81,255.6,81
	 M255.6,94.9c-3.1,0-4.4-2.1-4.4-6.3c0-4.1,1.2-6.1,4.3-6.1c3.1,0,4.4,2,4.4,6.3C259.9,92.9,258.7,94.9,255.6,94.9"/>
<path fill="#979585" d="M271.5,81c-1.7,0-3,0.8-3.7,1.7h-0.1l-0.4-1.5h-1.2v14.9h1.6V84.8c0.7-1.5,2.2-2.1,3.7-2.1
	c0.6,0,1.1,0.1,1.7,0.2v-1.7C272.7,81.1,272.2,81,271.5,81"/>
<path fill="#979585" d="M282.5,81.1c-4.9,0-7.3,3.2-7.3,8.1c0,5,2.6,7,5.6,7c2.1,0,3.4-0.9,3.8-1.3h0.1v1.6c0,2.8-1.2,4.3-4,4.3
	c-2.1,0-3.2-0.7-4-1.3l-0.9,1.4c0.6,0.5,2,1.4,4.6,1.4c3.7,0,6-1.9,6-5.8V81.9C285.6,81.5,284.2,81.1,282.5,81.1 M281.4,94.8
	c-2.2,0-4.4-1.2-4.4-5.8c0-4.3,2.1-6.3,5.2-6.3c1.1,0,2,0.2,2.7,0.5v10C284.1,94.2,282.6,94.8,281.4,94.8"/>
<path fill="#979585" d="M297.1,81c-3,0-6.1,2-6.1,7.6c0,5.6,2.3,7.7,6.4,7.7c1.9,0,3.5-0.6,4.5-1.2l-0.7-1.3c-0.7,0.5-2,1.1-3.5,1.1
	c-3.1,0-4.8-1.4-5-5.5h9.6c0.1-0.9,0.1-1.8,0.1-2.5C302.4,83.3,300.6,81,297.1,81 M292.6,87.9c0.2-4.1,2.3-5.3,4.3-5.3
	c2.6,0,3.8,1.6,3.8,4.3c0,0.2,0,0.6,0,1H292.6z"/>
<rect x="317.2" y="73.1" fill="#979585" width="1.4" height="29.6"/>
<path fill="#979585" d="M339.6,76.8h-5.7v19.4h5.8c4.2,0,6.2-2,6.2-5.4c0-2.8-1.5-4.3-3.6-4.5v-0.1c1.6-0.4,2.6-2,2.6-4.5
	C344.9,78.1,342.5,76.8,339.6,76.8 M335.5,85.7v-7.4h3.7c2.4,0,4,0.9,4,3.5c0,2.8-1.3,3.8-3.8,3.8H335.5z M335.5,94.7v-7.5h4.1
	c2.5,0,4.5,0.8,4.5,3.8c0,2.7-1.4,3.7-4.4,3.7H335.5z"/>
<path fill="#979585" d="M356.1,81c-3,0-6.1,2-6.1,7.6c0,5.6,2.3,7.7,6.4,7.7c1.9,0,3.5-0.6,4.5-1.2l-0.7-1.3c-0.7,0.5-2,1.1-3.5,1.1
	c-3.1,0-4.8-1.4-5-5.5h9.6c0.1-0.9,0.1-1.8,0.1-2.5C361.3,83.3,359.5,81,356.1,81 M351.6,87.9c0.2-4.1,2.3-5.3,4.3-5.3
	c2.6,0,3.8,1.6,3.8,4.3c0,0.2,0,0.6,0,1H351.6z"/>
<path fill="#979585" d="M370.7,81c-3.2,0-5,1.9-5,4c0,5.1,7.7,3.5,7.7,7.2c0,1.4-1.2,2.7-3.5,2.7c-1.7,0-3.1-0.6-4.1-1.6l-1.1,1.3
	c1,1,2.8,1.8,5.1,1.8c3.4,0,5.1-2.1,5.1-4.2c0-5.1-7.7-3.6-7.7-7.3c0-1.3,1-2.5,3.3-2.5c1.1,0,2.3,0.4,3.1,1.2l1.1-1.2
	C373.8,81.6,372.2,81,370.7,81"/>
<path fill="#979585" d="M382.2,77.3H381l-0.4,4l-2.3,0.3v1h2.3v9.8c0,2.6,1.2,3.9,3.7,3.9c1.6,0,2.5-0.3,3.1-0.6l-0.5-1.4
	c-0.3,0.2-1,0.5-2.4,0.5c-1.4,0-2.3-0.7-2.3-2.6v-9.6h4.2v-1.4h-4.2V77.3z"/>
<path fill="#979585" d="M395.8,81.1c-3,0-4.4,1.7-4.9,2.4l1.2,1c0.5-0.7,1.5-1.9,3.6-1.9c2.2,0,3.4,0.8,3.4,3.4v1.7
	c-0.1,0-0.2,0-0.3,0c-5.3,0-8.4,1.6-8.4,4.8c0,2,1.5,3.9,4.3,3.9c2.6,0,3.8-1.2,4.6-2.1h0.1c0.3,1,1.2,1.9,2.7,1.9
	c0.2,0,0.4,0,0.4-0.1V95h-0.4c-1.1,0-1.6-1-1.6-2.5v-7C400.6,82.5,398.8,81.1,395.8,81.1 M395,95.1c-1.9,0-3-1.2-3-2.7
	c0-2.4,2.9-3.3,6.5-3.3c0.2,0,0.4,0,0.6,0v3.7C398.4,93.9,396.9,95.1,395,95.1"/>
<path fill="#979585" d="M408.5,77.3h-1.2l-0.4,4l-2.3,0.3v1h2.3v9.8c0,2.6,1.2,3.9,3.7,3.9c1.6,0,2.5-0.3,3.1-0.6l-0.5-1.4
	c-0.3,0.2-1,0.5-2.4,0.5c-1.4,0-2.3-0.7-2.3-2.6v-9.6h4.2v-1.4h-4.2V77.3z"/>
<path fill="#979585" d="M420,77.3h-1.2l-0.4,4l-2.3,0.3v1h2.3v9.8c0,2.6,1.2,3.9,3.7,3.9c1.6,0,2.5-0.3,3.1-0.6l-0.5-1.4
	c-0.3,0.2-1,0.5-2.4,0.5c-1.4,0-2.3-0.7-2.3-2.6v-9.6h4.2v-1.4H420V77.3z"/>
<path fill="#979585" d="M439.4,81.3h-1.6v9.6c0,2.9-1.9,4.1-4.1,4.1c-2.5,0-3.6-1.3-3.6-3.9v-9.8h-1.6v10.3c0.1,3.3,1.9,5,4.9,5
	c2.7,0,4-1.5,4.3-1.9h0.1l0.4,1.6h1.2V81.3z"/>
<path fill="#979585" d="M450.6,81c-2.5,0-4,1.5-4.3,1.9h-0.1l-0.4-1.6h-1.2v14.9h1.6V85.4c0.6-1.6,2.1-2.9,4.2-2.9
	c2.3,0,3.5,1.4,3.5,3.8v9.9h1.6V85.9C455.4,82.6,453.6,81,450.6,81"/>
<path fill="#979585" d="M467.1,81.1c-4.9,0-7.3,3.2-7.3,8.1c0,5,2.6,7,5.6,7c2.1,0,3.4-0.9,3.8-1.3h0.1v1.6c0,2.8-1.2,4.3-4,4.3
	c-2.1,0-3.2-0.7-4-1.3l-0.9,1.4c0.6,0.5,2,1.4,4.6,1.4c3.7,0,6-1.9,6-5.8V81.9C470.2,81.5,468.8,81.1,467.1,81.1 M466,94.8
	c-2.2,0-4.4-1.2-4.4-5.8c0-4.3,2.1-6.3,5.2-6.3c1.1,0,2,0.2,2.7,0.5v10C468.7,94.2,467.2,94.8,466,94.8"/>
<path fill="#979585" d="M481.7,81c-3,0-6.1,2-6.1,7.6c0,5.6,2.3,7.7,6.4,7.7c1.9,0,3.5-0.6,4.5-1.2l-0.7-1.3c-0.7,0.5-2,1.1-3.5,1.1
	c-3.1,0-4.8-1.4-5-5.5h9.6c0.1-0.9,0.1-1.8,0.1-2.5C487,83.3,485.2,81,481.7,81 M477.2,87.9c0.2-4.1,2.3-5.3,4.3-5.3
	c2.6,0,3.8,1.6,3.8,4.3c0,0.2,0,0.6,0,1H477.2z"/>
<path fill="#979585" d="M497.6,81c-2.5,0-4,1.5-4.3,1.9h-0.1l-0.4-1.6h-1.2v14.9h1.6V85.4c0.6-1.6,2.1-2.9,4.2-2.9
	c2.3,0,3.5,1.4,3.5,3.8v9.9h1.6V85.9C502.4,82.6,500.5,81,497.6,81"/>
</svg>
