<?xml version="1.0" encoding="UTF-8" standalone="no"?>
<svg xmlns="http://www.w3.org/2000/svg" viewBox="0 0 128 64" text-rendering="geometricPrecision" shape-rendering="geometricPrecision">
  <g id="g10" transform="translate(127.8492, 47.063)scale(0.355, -0.355)translate(-359.714, 0)" style="pointer-events:none">
    <g id="g12" transform="scale(0.1, 0.1)">
      <path id="path14" fill="#ec2123" stroke="none" d="M143.52,781.059C143.52,743.609,173.98,713.512,211.43,713.512C248.879,713.512,278.988,743.609,278.988,781.059C278.988,818.52,248.879,848.621,211.43,848.621C173.98,848.621,143.52,818.52,143.52,781.059L143.52,781.059zM75.9688,320.762L347.25,320.762C384.699,320.762,414.801,350.879,414.801,388.34L414.801,537.441L102.922,537.441L102.922,578.051L414.801,578.051L414.801,605C414.801,642.449,384.699,672.559,347.25,672.559L75.9688,672.559C38.5117,672.559,8.4102,642.449,8.4102,605L8.4102,455.879L319.59,455.879L319.59,415.289L8.4102,415.289L8.4102,388.34C8.4102,350.879,38.5117,320.762,75.9688,320.762L75.9688,320.762L75.9688,320.762"/>
      <path id="path16" fill="#ec2123" stroke="none" d="M1057.29,465.68L1057.29,497.891C1055.19,498.238,1050.64,498.93,1043.99,498.93C1021.23,498.93,1003.73,484.59,993.93,464.289L993.238,497.891L960.68,497.891L960.68,320.762L994.629,320.762L994.629,416.699C994.629,438.73,1011.09,466.738,1045.04,466.738C1050.29,466.738,1055.54,466.031,1057.29,465.68L1057.29,465.68zM900.828,320.762L900.828,497.891L843.781,497.891L843.781,475.488C850.43,475.141,860.578,473.738,866.879,472.68L866.879,320.762L900.828,320.762zM901.891,553.898C901.891,565.789,891.73,575.238,879.84,575.238C867.578,575.238,857.441,565.789,857.441,553.898C857.441,542.34,867.578,532.891,879.84,532.891C891.73,532.891,901.891,542.34,901.891,553.898L901.891,553.898zM774.5,442.25C774.5,380.641,747.539,349.82,702.039,349.82L664.941,349.82L664.941,534.988L702.039,534.988C747.539,534.988,774.5,503.84,774.5,442.25L774.5,442.25zM812.309,442.25C812.309,523.09,771,564.039,701.691,564.039L629.941,564.039L629.941,320.762L701.691,320.762C770.648,320.762,812.309,361.391,812.309,442.25L812.309,442.25L812.309,442.25"/>
      <path id="path18" fill="#ec2123" stroke="none" d="M1759.32,564.039L1722.56,564.039C1709.61,518.191,1689.66,451.352,1656.06,368.031C1622.1,451.352,1602.15,518.539,1589.54,564.039L1551.4,564.039C1573.1,487.039,1609.51,385.879,1640.66,320.762L1670.05,320.762C1701.21,385.879,1737.61,487.039,1759.32,564.039L1759.32,564.039zM1546.51,322.52L1540.56,347.711C1536.36,346.309,1526.2,344.59,1517.45,344.59C1499.25,344.59,1492.26,353.34,1492.26,373.609L1492.26,471.289L1538.11,471.289L1538.11,497.891L1492.26,497.891L1492.26,552.488C1480.36,546.539,1467.75,540.949,1458.3,537.441L1458.3,497.891L1430.65,497.891L1430.65,471.289L1458.3,471.289L1458.3,369.781C1458.3,336.852,1472.65,317.281,1508,317.281C1522.01,317.281,1535.66,319.352,1546.51,322.52L1546.51,322.52zM1423.67,320.762C1400.56,356.109,1370.46,395.68,1341.06,421.23L1415.62,497.891L1374.66,497.891L1308.51,429.281L1308.51,578.051L1274.55,578.051L1274.55,320.762L1308.51,320.762L1308.51,407.91C1336.51,380.961,1362.76,347.012,1380.96,320.762L1423.67,320.762zM1191.61,423.34L1112.86,423.34C1114.95,457.281,1128.61,477.238,1155.21,477.238C1180.06,477.238,1191.61,460.441,1191.61,431.391L1191.61,423.34zM1227.32,419.469C1227.32,472.68,1203.17,502.09,1155.91,502.09C1105.16,502.09,1077.5,464.289,1077.5,408.961C1077.5,352.641,1108.3,316.578,1162.21,316.578C1184.61,316.578,1201.42,318.652,1216.12,323.219L1209.47,349.121C1199.32,346.309,1182.51,343.531,1167.11,343.531C1133.16,343.531,1116.36,363.102,1113.56,398.852L1226.61,398.852C1226.97,404.781,1227.32,412.129,1227.32,419.469L1227.32,419.469L1227.32,419.469"/>
      <path id="path20" fill="#ec2123" stroke="none" d="M3555.96,402.68C3555.96,369.43,3539.87,347.012,3513.93,347.012C3480.69,347.012,3472.29,376.43,3472.29,409.32C3472.29,449.59,3490.84,472.68,3517.44,472.68C3537.05,472.68,3547.91,463.93,3555.96,455.879L3555.96,402.68zM3589.91,320.41L3589.91,497.891L3557.37,497.891L3556.66,482.84C3546.86,493.34,3532.13,501.391,3507.99,501.391C3467.76,501.391,3435.53,468.129,3435.53,409.32C3435.53,345.961,3464.94,319.711,3505.53,319.711C3528.66,319.711,3544.75,327.75,3556.31,345.602L3556.31,318.301C3556.31,287.871,3540.22,273.18,3504.83,273.18C3486.31,273.18,3471.94,276.309,3462.13,278.77L3456.9,252.871C3467.41,250.41,3485.26,246.539,3511.86,246.539C3537.41,246.539,3557.72,252.871,3571,265.801C3583.27,278.07,3589.91,295.211,3589.91,320.41L3589.91,320.41zM3387.6,320.762L3387.6,443.648C3387.6,479.691,3366.94,501.391,3330.22,501.391C3304.28,501.391,3285.06,489.828,3274.55,473.039L3273.85,497.891L3241.27,497.891L3241.27,320.762L3275.26,320.762L3275.26,423.691C3275.26,450.641,3294.83,472.328,3319.71,472.328C3342.44,472.328,3353.66,460.441,3353.66,433.852L3353.66,320.762L3387.6,320.762zM3184.24,320.762L3184.24,497.891L3150.3,497.891L3150.3,394.629C3150.3,368.031,3130.69,345.961,3105.49,345.961C3082.76,345.961,3071.9,356.82,3071.9,383.07L3071.9,497.891L3037.95,497.891L3037.95,375.719C3037.95,336.852,3058.58,317.281,3094.98,317.281C3120.88,317.281,3140.49,328.461,3151,345.602L3151.35,320.762L3184.24,320.762zM3006.12,465.68L3006.12,497.891C3004.01,498.238,2999.48,498.93,2992.8,498.93C2970.06,498.93,2952.56,484.59,2942.76,464.289L2942.05,497.891L2909.52,497.891L2909.52,320.762L2943.46,320.762L2943.46,416.699C2943.46,438.73,2959.91,466.738,2993.85,466.738C2999.12,466.738,3004.36,466.031,3006.12,465.68L3006.12,465.68zM2826.9,423.34L2748.15,423.34C2750.26,457.281,2763.89,477.238,2790.49,477.238C2815.37,477.238,2826.9,460.441,2826.9,431.391L2826.9,423.34zM2862.6,419.469C2862.6,472.68,2838.46,502.09,2791.19,502.09C2740.45,502.09,2712.8,464.289,2712.8,408.961C2712.8,352.641,2743.62,316.578,2797.52,316.578C2819.91,316.578,2836.7,318.652,2851.43,323.219L2844.75,349.121C2834.59,346.309,2817.8,343.531,2802.41,343.531C2768.46,343.531,2751.66,363.102,2748.85,398.852L2861.9,398.852C2862.25,404.781,2862.6,412.129,2862.6,419.469L2862.6,419.469zM2664.87,320.762L2664.87,443.648C2664.87,479.691,2644.2,501.391,2607.45,501.391C2580.84,501.391,2562.64,490.539,2552.52,474.43L2552.52,578.051L2518.54,578.051L2518.54,320.762L2552.52,320.762L2552.52,423.691C2552.52,450.641,2572.09,472.328,2596.98,472.328C2619.71,472.328,2630.92,460.441,2630.92,433.852L2630.92,320.762L2664.87,320.762zM2482.17,326.391L2474.12,352.988C2468.5,350.879,2454.16,346.66,2436.31,346.66C2402.02,346.66,2384.16,366.969,2384.16,409.32C2384.16,452.73,2403.07,472.328,2438.77,472.328C2453.46,472.328,2468.5,468.488,2475.88,466.391L2475.88,494.379C2472.72,495.789,2455.57,500.691,2432.48,500.691C2378.23,500.691,2347.76,465.68,2347.76,408.961C2347.76,352.281,2377.52,317.988,2431.08,317.988C2453.46,317.988,2469.2,321.82,2482.17,326.391L2482.17,326.391zM2296.31,320.762L2296.31,497.891L2239.24,497.891L2239.24,475.488C2245.92,475.141,2256.08,473.738,2262.37,472.68L2262.37,320.762L2296.31,320.762zM2297.37,553.898C2297.37,565.789,2287.21,575.238,2275.3,575.238C2263.07,575.238,2252.91,565.789,2252.91,553.898C2252.91,542.34,2263.07,532.891,2275.3,532.891C2287.21,532.891,2297.37,542.34,2297.37,553.898L2297.37,553.898zM2213.03,370.84C2213.03,403.73,2191.31,414.59,2159.48,424.391C2132.87,432.789,2116.78,437.32,2116.78,452.379C2116.78,467.078,2127.6,474.43,2151.08,474.43C2170.69,474.43,2187.13,471.289,2201.82,466.391L2201.82,494.379C2188.89,498.238,2172.05,501.391,2148.97,501.391C2109.75,501.391,2083.5,483.18,2083.5,449.59C2083.5,418.77,2104.87,408.609,2133.58,399.16C2157.72,391.109,2178.38,386.93,2178.38,368.73C2178.38,353.691,2167.87,344.59,2139.16,344.59C2113.62,344.59,2095.41,351.93,2087.37,355.059L2078.27,329.512C2088.07,324.98,2109.4,317.281,2141.27,317.281C2184.67,317.281,2213.03,334.781,2213.03,370.84L2213.03,370.84zM2059.05,465.68L2059.05,497.891C2056.94,498.238,2052.37,498.93,2045.73,498.93C2022.99,498.93,2005.49,484.59,1995.69,464.289L1994.98,497.891L1962.41,497.891L1962.41,320.762L1996.39,320.762L1996.39,416.699C1996.39,438.73,2012.84,466.738,2046.78,466.738C2052.02,466.738,2057.29,466.031,2059.05,465.68L2059.05,465.68zM1879.83,423.34L1801.08,423.34C1803.18,457.281,1816.83,477.238,1843.43,477.238C1868.27,477.238,1879.83,460.441,1879.83,431.391L1879.83,423.34zM1915.53,419.469C1915.53,472.68,1891.39,502.09,1844.13,502.09C1793.37,502.09,1765.72,464.289,1765.72,408.961C1765.72,352.641,1796.53,316.578,1850.41,316.578C1872.84,316.578,1889.63,318.652,1904.32,323.219L1897.68,349.121C1887.52,346.309,1870.73,343.531,1855.34,343.531C1821.38,343.531,1804.57,363.102,1801.77,398.852L1914.83,398.852C1915.18,404.781,1915.53,412.129,1915.53,419.469L1915.53,419.469L1915.53,419.469"/>
      <path id="path22" fill="#a11c21" stroke="none" d="M3589.04,39.9414C3591.25,40.9219,3593.15,42.5,3594.75,44.6797C3596.34,46.8594,3597.14,49.3789,3597.14,52.25C3597.14,54.0703,3596.62,56.0586,3595.58,58.1992C3594.54,60.3516,3592.89,62.1602,3590.65,63.6211C3588.4,65.0898,3585.75,65.8203,3582.69,65.8203C3580.67,65.8203,3578.55,65.3711,3576.34,64.4492C3574.13,63.5391,3572.24,61.9492,3570.68,59.6719C3569.11,57.3906,3568.33,54.9219,3568.33,52.25C3568.33,50.3594,3568.71,48.5898,3569.46,46.9297C3570.2,45.2695,3571.23,43.8203,3572.53,42.5781C3573.83,41.3398,3575.35,40.3516,3577.07,39.6016C3578.8,38.8516,3580.67,38.4805,3582.69,38.4805C3584.71,38.4805,3586.82,38.9688,3589.04,39.9414zM3521.38,39.2617C3525.16,39.7813,3528.61,40.5,3531.74,41.4102L3528.32,55.8594C3527.01,55.3984,3525.16,54.9805,3522.75,54.5898C3520.34,54.1992,3517.8,54.0117,3515.13,54.0117C3509.86,54.0117,3506.13,55.3086,3503.95,57.9102C3501.77,60.5195,3500.68,64.75,3500.68,70.6094L3500.68,126.469L3526.95,126.469L3526.95,141.602L3500.68,141.602L3500.68,172.852C3492.8,168.879,3486.36,166.02,3481.35,164.262L3481.35,141.602L3465.52,141.602L3465.52,126.469L3481.35,126.469L3481.35,68.4609C3481.35,63.7695,3481.88,59.5703,3482.96,55.8594C3484.03,52.1484,3485.71,49.0117,3487.99,46.4414C3490.26,43.8594,3493.19,41.8984,3496.77,40.5313C3500.35,39.1602,3504.68,38.4805,3509.76,38.4805C3513.73,38.4805,3517.61,38.7383,3521.38,39.2617zM3412.96,162.648C3414.75,163.328,3416.43,164.711,3417.99,166.801C3419.55,168.879,3420.33,171.16,3420.33,173.629C3420.33,175.328,3419.85,177.148,3418.87,179.102C3417.89,181.059,3416.41,182.672,3414.43,183.941C3412.44,185.211,3410.21,185.84,3407.74,185.84C3405.91,185.84,3404.03,185.422,3402.07,184.57C3400.12,183.73,3398.44,182.309,3397.04,180.32C3395.64,178.34,3394.94,176.109,3394.94,173.629C3394.94,171.941,3395.28,170.379,3395.97,168.949C3396.65,167.512,3397.58,166.238,3398.75,165.141C3399.92,164.031,3401.27,163.172,3402.8,162.551C3404.33,161.93,3405.98,161.621,3407.74,161.621C3409.43,161.621,3411.17,161.961,3412.96,162.648zM3419.75,40.4297L3419.75,141.602L3387.13,141.602L3387.13,128.809C3389.93,128.621,3394.32,128.09,3400.31,127.25L3400.31,40.4297L3419.75,40.4297zM3288.62,121.68C3292.59,127.078,3298.35,129.789,3305.9,129.789C3313.07,129.789,3318.32,127.512,3321.68,122.949C3325.03,118.391,3326.7,111.949,3326.7,103.621L3326.7,99.0313L3281.78,99.0313C3282.37,108.73,3284.65,116.281,3288.62,121.68zM3327.05,38.9219C3331.96,39.5391,3336.53,40.5,3340.77,41.8008L3336.96,56.6406C3333.77,55.7305,3330.06,54.9688,3325.83,54.3516C3321.59,53.7305,3317.23,53.4219,3312.74,53.4219C3303.04,53.4219,3295.71,56.1406,3290.77,61.5703C3285.82,67.0117,3282.95,74.8398,3282.17,85.0586L3346.72,85.0586C3346.98,88.4414,3347.11,92.3789,3347.11,96.8789C3347.11,112.051,3343.7,123.699,3336.86,131.84C3330.02,139.98,3319.87,144.039,3306.39,144.039C3299.17,144.039,3292.75,142.762,3287.15,140.191C3281.55,137.609,3276.87,133.988,3273.09,129.301C3269.32,124.609,3266.45,119,3264.5,112.449C3262.54,105.91,3261.57,98.6992,3261.57,90.8203C3261.57,82.75,3262.64,75.4609,3264.79,68.9492C3266.94,62.4414,3270.08,56.8906,3274.21,52.3008C3278.35,47.7109,3283.41,44.1719,3289.4,41.6992C3295.39,39.2305,3302.23,37.9883,3309.91,37.9883C3316.42,37.9883,3322.13,38.3008,3327.05,38.9219zM3145.77,40.4297L3145.77,99.2188C3145.77,103.059,3146.58,107.102,3148.21,111.328C3149.84,115.559,3152.77,119.238,3157,122.371C3161.23,125.488,3165.95,127.051,3171.16,127.051C3177.67,127.051,3182.52,125.289,3185.71,121.781C3188.9,118.262,3190.5,112.699,3190.5,105.078L3190.5,40.4297L3209.93,40.4297L3209.93,110.648C3209.93,115.789,3208.99,120.922,3207.1,126.031C3205.21,131.141,3201.73,135.352,3196.65,138.672C3191.57,141.988,3185.06,143.648,3177.12,143.648C3169.44,143.648,3163.02,142.238,3157.88,139.41C3152.74,136.57,3148.7,132.852,3145.77,128.219L3145.77,187.402L3126.34,187.402L3126.34,40.4297L3145.77,40.4297zM3047.55,40.4297L3047.55,95.2188C3047.55,98.3398,3048.14,101.602,3049.31,104.98C3050.48,108.371,3052.27,111.461,3054.68,114.262C3057.09,117.059,3060.08,119.352,3063.67,121.141C3067.25,122.93,3071.48,123.828,3076.36,123.828C3079.42,123.828,3081.73,123.629,3083.29,123.238L3083.29,141.602C3081.54,141.988,3079,142.191,3075.68,142.191C3072.42,142.191,3069.04,141.59,3065.52,140.379C3062.01,139.18,3058.62,137.051,3055.36,133.988C3052.11,130.93,3049.34,127.078,3047.06,122.461L3046.67,141.602L3028.12,141.602L3028.12,40.4297L3047.55,40.4297zM2918.57,121.68C2922.54,127.078,2928.3,129.789,2935.86,129.789C2943.02,129.789,2948.27,127.512,2951.63,122.949C2954.98,118.391,2956.66,111.949,2956.66,103.621L2956.66,99.0313L2911.74,99.0313C2912.32,108.73,2914.6,116.281,2918.57,121.68zM2957,38.9219C2961.91,39.5391,2966.49,40.5,2970.72,41.8008L2966.91,56.6406C2963.72,55.7305,2960.01,54.9688,2955.78,54.3516C2951.55,53.7305,2947.18,53.4219,2942.69,53.4219C2932.99,53.4219,2925.67,56.1406,2920.72,61.5703C2915.77,67.0117,2912.91,74.8398,2912.13,85.0586L2976.68,85.0586C2976.94,88.4414,2977.07,92.3789,2977.07,96.8789C2977.07,112.051,2973.65,123.699,2966.81,131.84C2959.98,139.98,2949.82,144.039,2936.35,144.039C2929.12,144.039,2922.71,142.762,2917.11,140.191C2911.51,137.609,2906.82,133.988,2903.04,129.301C2899.27,124.609,2896.4,119,2894.45,112.449C2892.5,105.91,2891.52,98.6992,2891.52,90.8203C2891.52,82.75,2892.6,75.4609,2894.74,68.9492C2896.89,62.4414,2900.03,56.8906,2904.17,52.3008C2908.3,47.7109,2913.36,44.1719,2919.35,41.6992C2925.34,39.2305,2932.18,37.9883,2939.86,37.9883C2946.37,37.9883,2952.08,38.3008,2957,38.9219zM2775.72,40.4297L2775.72,99.2188C2775.72,103.059,2776.54,107.102,2778.17,111.328C2779.79,115.559,2782.72,119.238,2786.95,122.371C2791.19,125.488,2795.91,127.051,2801.12,127.051C2807.62,127.051,2812.47,125.289,2815.67,121.781C2818.85,118.262,2820.45,112.699,2820.45,105.078L2820.45,40.4297L2839.88,40.4297L2839.88,110.648C2839.88,115.789,2838.94,120.922,2837.05,126.031C2835.16,131.141,2831.68,135.352,2826.6,138.672C2821.53,141.988,2815.01,143.648,2807.07,143.648C2799.39,143.648,2792.98,142.238,2787.83,139.41C2782.69,136.57,2778.65,132.852,2775.72,128.219L2775.72,187.402L2756.29,187.402L2756.29,40.4297L2775.72,40.4297zM2698.75,40.2813C2703.4,41.2305,2707.58,42.3516,2711.29,43.6484L2706.7,58.7891C2704.95,58.0117,2702.12,57.2305,2698.21,56.4492C2694.3,55.6719,2689.94,55.2813,2685.12,55.2813C2675.23,55.2813,2667.79,58.1914,2662.81,64.0195C2657.83,69.8398,2655.34,78.8398,2655.34,91.0195C2655.34,103.391,2657.97,112.48,2663.25,118.309C2668.52,124.141,2676.27,127.051,2686.49,127.051C2688.57,127.051,2690.66,126.922,2692.74,126.66C2694.82,126.398,2696.79,126.109,2698.65,125.781C2700.5,125.461,2702.21,125.078,2703.78,124.66C2705.34,124.238,2706.64,123.891,2707.68,123.629L2707.68,139.648C2706.12,140.301,2702.95,141.07,2698.16,141.949C2693.37,142.82,2688.28,143.262,2682.88,143.262C2675.13,143.262,2668.26,142.059,2662.27,139.648C2656.28,137.238,2651.24,133.762,2647.13,129.199C2643.03,124.641,2639.91,119.129,2637.76,112.648C2635.61,106.172,2634.54,98.8906,2634.54,90.8203C2634.54,82.6797,2635.58,75.4102,2637.66,69C2639.74,62.5781,2642.8,57.1484,2646.84,52.6914C2650.88,48.2305,2655.86,44.8086,2661.78,42.4297C2667.71,40.0586,2674.48,38.8711,2682.1,38.8711C2688.54,38.8711,2694.09,39.3398,2698.75,40.2813zM2574.16,162.648C2575.95,163.328,2577.63,164.711,2579.19,166.801C2580.75,168.879,2581.53,171.16,2581.53,173.629C2581.53,175.328,2581.04,177.148,2580.07,179.102C2579.09,181.059,2577.61,182.672,2575.62,183.941C2573.64,185.211,2571.41,185.84,2568.94,185.84C2567.11,185.84,2565.22,185.422,2563.27,184.57C2561.32,183.73,2559.64,182.309,2558.24,180.32C2556.84,178.34,2556.14,176.109,2556.14,173.629C2556.14,171.941,2556.48,170.379,2557.17,168.949C2557.85,167.512,2558.78,166.238,2559.95,165.141C2561.12,164.031,2562.47,163.172,2564,162.551C2565.53,161.93,2567.18,161.621,2568.94,161.621C2570.63,161.621,2572.37,161.961,2574.16,162.648zM2580.95,40.4297L2580.95,141.602L2548.33,141.602L2548.33,128.809C2551.13,128.621,2555.52,128.09,2561.51,127.25L2561.51,40.4297L2580.95,40.4297zM2481.26,40.6289C2487.38,42.3789,2492.57,44.9688,2496.84,48.3906C2501.1,51.8086,2504.36,56.0195,2506.61,61.0391C2508.85,66.0508,2509.97,71.7813,2509.97,78.2188C2509.97,84.8711,2508.9,90.4297,2506.75,94.9219C2504.6,99.4219,2501.75,103.211,2498.21,106.301C2494.66,109.391,2490.54,111.98,2485.85,114.059C2481.17,116.148,2476.28,118.129,2471.21,120.02C2466.58,121.648,2462.35,123.211,2458.51,124.711C2454.67,126.211,2451.35,127.852,2448.55,129.641C2445.75,131.43,2443.58,133.5,2442.05,135.84C2440.52,138.191,2439.76,141.051,2439.76,144.441C2439.76,151.141,2442.18,156.281,2447.04,159.871C2451.88,163.441,2458.67,165.238,2467.4,165.238C2471.3,165.238,2475.29,164.98,2479.36,164.449C2483.43,163.93,2487.38,163.199,2491.22,162.262C2495.07,161.309,2498.65,160.219,2501.97,158.988L2501.97,176.66C2500.6,176.988,2498.34,177.59,2495.18,178.469C2492.02,179.352,2488.03,180.129,2483.22,180.809C2478.4,181.5,2473.19,181.84,2467.59,181.84C2460.23,181.84,2453.61,180.941,2447.72,179.148C2441.83,177.359,2436.83,174.809,2432.73,171.488C2428.63,168.172,2425.47,164.129,2423.26,159.379C2421.04,154.621,2419.94,149.32,2419.94,143.461C2419.94,139.809,2420.33,136.352,2421.11,133.059C2421.89,129.77,2423.5,126.48,2425.94,123.199C2428.38,119.91,2431.38,117.07,2434.93,114.699C2438.47,112.32,2441.99,110.391,2445.47,108.891C2448.95,107.391,2452.65,105.961,2456.56,104.59C2460.66,103.031,2465.23,101.25,2470.28,99.2695C2475.32,97.2813,2479.64,94.6094,2483.22,91.2617C2486.8,87.9102,2488.59,83.5,2488.59,78.0313C2488.59,74.7695,2487.95,71.3516,2486.68,67.7813C2485.41,64.1914,2482.42,61.1797,2477.7,58.7383C2472.98,56.3008,2466.39,55.0781,2457.92,55.0781C2453.76,55.0781,2449.26,55.4688,2444.45,56.25C2439.63,57.0313,2435.12,58.1094,2430.92,59.4688C2426.72,60.8398,2423.68,62.0117,2421.79,62.9883L2416.13,46.8789C2417.49,46.2305,2419.48,45.3984,2422.08,44.3906C2424.69,43.3789,2427.88,42.3984,2431.65,41.4609C2435.43,40.5117,2439.71,39.6992,2444.5,39.0195C2449.28,38.3281,2454.57,37.9883,2460.37,37.9883C2468.18,37.9883,2475.14,38.8711,2481.26,40.6289zM2237.8,39.9414C2240.01,40.9219,2241.91,42.5,2243.51,44.6797C2245.1,46.8594,2245.9,49.3789,2245.9,52.25C2245.9,54.0703,2245.38,56.0586,2244.34,58.1992C2243.3,60.3516,2241.65,62.1602,2239.41,63.6211C2237.16,65.0898,2234.51,65.8203,2231.45,65.8203C2229.43,65.8203,2227.31,65.3711,2225.1,64.4492C2222.89,63.5391,2221,61.9492,2219.44,59.6719C2217.87,57.3906,2217.09,54.9219,2217.09,52.25C2217.09,50.3594,2217.47,48.5898,2218.22,46.9297C2218.96,45.2695,2219.99,43.8203,2221.29,42.5781C2222.59,41.3398,2224.11,40.3516,2225.83,39.6016C2227.56,38.8516,2229.43,38.4805,2231.45,38.4805C2233.47,38.4805,2235.58,38.9688,2237.8,39.9414zM2112.92,121.68C2116.89,127.078,2122.65,129.789,2130.2,129.789C2137.36,129.789,2142.62,127.512,2145.97,122.949C2149.33,118.391,2151,111.949,2151,103.621L2151,99.0313L2106.08,99.0313C2106.67,108.73,2108.94,116.281,2112.92,121.68zM2151.34,38.9219C2156.26,39.5391,2160.83,40.5,2165.07,41.8008L2161.26,56.6406C2158.07,55.7305,2154.36,54.9688,2150.12,54.3516C2145.89,53.7305,2141.53,53.4219,2137.04,53.4219C2127.34,53.4219,2120.01,56.1406,2115.07,61.5703C2110.12,67.0117,2107.25,74.8398,2106.47,85.0586L2171.02,85.0586C2171.28,88.4414,2171.41,92.3789,2171.41,96.8789C2171.41,112.051,2167.99,123.699,2161.16,131.84C2154.32,139.98,2144.17,144.039,2130.69,144.039C2123.46,144.039,2117.05,142.762,2111.45,140.191C2105.85,137.609,2101.16,133.988,2097.39,129.301C2093.61,124.609,2090.75,119,2088.8,112.449C2086.84,105.91,2085.87,98.6992,2085.87,90.8203C2085.87,82.75,2086.94,75.4609,2089.09,68.9492C2091.24,62.4414,2094.38,56.8906,2098.51,52.3008C2102.65,47.7109,2107.71,44.1719,2113.7,41.6992C2119.69,39.2305,2126.52,37.9883,2134.21,37.9883C2140.72,37.9883,2146.43,38.3008,2151.34,38.9219L2151.34,38.9219zM2038.28,40.2813C2042.94,41.2305,2047.12,42.3516,2050.83,43.6484L2046.24,58.7891C2044.48,58.0117,2041.65,57.2305,2037.74,56.4492C2033.84,55.6719,2029.48,55.2813,2024.66,55.2813C2014.76,55.2813,2007.33,58.1914,2002.34,64.0195C1997.36,69.8398,1994.87,78.8398,1994.87,91.0195C1994.87,103.391,1997.51,112.48,2002.78,118.309C2008.06,124.141,2015.8,127.051,2026.03,127.051C2028.11,127.051,2030.19,126.922,2032.28,126.66C2034.36,126.398,2036.33,126.109,2038.18,125.781C2040.04,125.461,2041.75,125.078,2043.31,124.66C2044.87,124.238,2046.18,123.891,2047.22,123.629L2047.22,139.648C2045.66,140.301,2042.48,141.07,2037.7,141.949C2032.91,142.82,2027.82,143.262,2022.41,143.262C2014.66,143.262,2007.8,142.059,2001.81,139.648C1995.82,137.238,1990.77,133.762,1986.67,129.199C1982.57,124.641,1979.44,119.129,1977.3,112.648C1975.15,106.172,1974.07,98.8906,1974.07,90.8203C1974.07,82.6797,1975.11,75.4102,1977.2,69C1979.28,62.5781,1982.34,57.1484,1986.38,52.6914C1990.41,48.2305,1995.39,44.8086,2001.32,42.4297C2007.24,40.0586,2014.01,38.8711,2021.63,38.8711C2028.08,38.8711,2033.63,39.3398,2038.28,40.2813L2038.28,40.2813zM1913.7,162.648C1915.49,163.328,1917.16,164.711,1918.73,166.801C1920.29,168.879,1921.07,171.16,1921.07,173.629C1921.07,175.328,1920.58,177.148,1919.6,179.102C1918.63,181.059,1917.15,182.672,1915.16,183.941C1913.17,185.211,1910.94,185.84,1908.47,185.84C1906.65,185.84,1904.76,185.422,1902.81,184.57C1900.85,183.73,1899.18,182.309,1897.78,180.32C1896.38,178.34,1895.68,176.109,1895.68,173.629C1895.68,171.941,1896.02,170.379,1896.7,168.949C1897.39,167.512,1898.32,166.238,1899.49,165.141C1900.66,164.031,1902.01,163.172,1903.54,162.551C1905.07,161.93,1906.71,161.621,1908.47,161.621C1910.16,161.621,1911.9,161.961,1913.7,162.648zM1920.48,40.4297L1920.48,141.602L1887.87,141.602L1887.87,128.809C1890.66,128.621,1895.06,128.09,1901.05,127.25L1901.05,40.4297L1920.48,40.4297zM1819.53,40.4297C1825.91,54.3008,1832.45,70.1797,1839.16,88.0898C1845.86,105.988,1851.92,123.828,1857.32,141.602L1837.11,141.602C1833.92,129.559,1830.08,116.73,1825.58,103.129C1821.09,89.5195,1815.88,75.5508,1809.96,61.2305C1804.03,75.6211,1798.83,89.6992,1794.33,103.469C1789.84,117.238,1785.97,129.949,1782.71,141.602L1762.11,141.602C1767.05,125.391,1773.08,107.699,1780.17,88.5313C1787.27,69.3516,1793.85,53.3203,1799.9,40.4297L1819.53,40.4297zM1698.56,40.4297L1698.56,95.2188C1698.56,98.3398,1699.14,101.602,1700.32,104.98C1701.49,108.371,1703.28,111.461,1705.69,114.262C1708.09,117.059,1711.09,119.352,1714.67,121.141C1718.25,122.93,1722.48,123.828,1727.37,123.828C1730.43,123.828,1732.74,123.629,1734.3,123.238L1734.3,141.602C1732.54,141.988,1730,142.191,1726.68,142.191C1723.43,142.191,1720.04,141.59,1716.53,140.379C1713.01,139.18,1709.62,137.051,1706.37,133.988C1703.11,130.93,1700.35,127.078,1698.07,122.461L1697.68,141.602L1679.12,141.602L1679.12,40.4297L1698.56,40.4297zM1569.58,121.68C1573.55,127.078,1579.31,129.789,1586.86,129.789C1594.02,129.789,1599.28,127.512,1602.63,122.949C1605.99,118.391,1607.66,111.949,1607.66,103.621L1607.66,99.0313L1562.74,99.0313C1563.33,108.73,1565.61,116.281,1569.58,121.68zM1608,38.9219C1612.92,39.5391,1617.49,40.5,1621.73,41.8008L1617.92,56.6406C1614.73,55.7305,1611.02,54.9688,1606.78,54.3516C1602.55,53.7305,1598.19,53.4219,1593.7,53.4219C1584,53.4219,1576.67,56.1406,1571.73,61.5703C1566.78,67.0117,1563.91,74.8398,1563.13,85.0586L1627.68,85.0586C1627.94,88.4414,1628.07,92.3789,1628.07,96.8789C1628.07,112.051,1624.66,123.699,1617.82,131.84C1610.98,139.98,1600.83,144.039,1587.35,144.039C1580.12,144.039,1573.71,142.762,1568.11,140.191C1562.51,137.609,1557.82,133.988,1554.05,129.301C1550.27,124.609,1547.41,119,1545.46,112.449C1543.5,105.91,1542.53,98.6992,1542.53,90.8203C1542.53,82.75,1543.6,75.4609,1545.75,68.9492C1547.9,62.4414,1551.04,56.8906,1555.17,52.3008C1559.31,47.7109,1564.37,44.1719,1570.36,41.6992C1576.35,39.2305,1583.18,37.9883,1590.87,37.9883C1597.38,37.9883,1603.09,38.3008,1608,38.9219zM1469.01,40.6289C1475.13,42.3789,1480.33,44.9688,1484.59,48.3906C1488.85,51.8086,1492.11,56.0195,1494.36,61.0391C1496.6,66.0508,1497.73,71.7813,1497.73,78.2188C1497.73,84.8711,1496.65,90.4297,1494.5,94.9219C1492.35,99.4219,1489.51,103.211,1485.96,106.301C1482.41,109.391,1478.29,111.98,1473.6,114.059C1468.92,116.148,1464.03,118.129,1458.96,120.02C1454.33,121.648,1450.1,123.211,1446.26,124.711C1442.42,126.211,1439.1,127.852,1436.3,129.641C1433.5,131.43,1431.33,133.5,1429.81,135.84C1428.28,138.191,1427.51,141.051,1427.51,144.441C1427.51,151.141,1429.94,156.281,1434.79,159.871C1439.64,163.441,1446.42,165.238,1455.15,165.238C1459.05,165.238,1463.04,164.98,1467.11,164.449C1471.18,163.93,1475.13,163.199,1478.98,162.262C1482.82,161.309,1486.4,160.219,1489.72,158.988L1489.72,176.66C1488.35,176.988,1486.09,177.59,1482.93,178.469C1479.77,179.352,1475.78,180.129,1470.97,180.809C1466.15,181.5,1460.94,181.84,1455.34,181.84C1447.98,181.84,1441.36,180.941,1435.47,179.148C1429.58,177.359,1424.58,174.809,1420.48,171.488C1416.38,168.172,1413.22,164.129,1411.01,159.379C1408.79,154.621,1407.69,149.32,1407.69,143.461C1407.69,139.809,1408.08,136.352,1408.86,133.059C1409.64,129.77,1411.25,126.48,1413.69,123.199C1416.13,119.91,1419.13,117.07,1422.68,114.699C1426.22,112.32,1429.74,110.391,1433.22,108.891C1436.71,107.391,1440.4,105.961,1444.31,104.59C1448.41,103.031,1452.98,101.25,1458.03,99.2695C1463.07,97.2813,1467.39,94.6094,1470.97,91.2617C1474.55,87.9102,1476.34,83.5,1476.34,78.0313C1476.34,74.7695,1475.7,71.3516,1474.43,67.7813C1473.16,64.1914,1470.17,61.1797,1465.45,58.7383C1460.73,56.3008,1454.14,55.0781,1445.67,55.0781C1441.51,55.0781,1437.02,55.4688,1432.2,56.25C1427.38,57.0313,1422.87,58.1094,1418.67,59.4688C1414.47,60.8398,1411.43,62.0117,1409.54,62.9883L1403.88,46.8789C1405.24,46.2305,1407.23,45.3984,1409.83,44.3906C1412.44,43.3789,1415.63,42.3984,1419.41,41.4609C1423.18,40.5117,1427.46,39.6992,1432.25,39.0195C1437.03,38.3281,1442.32,37.9883,1448.12,37.9883C1455.93,37.9883,1462.89,38.8711,1469.01,40.6289zM1225.55,39.9414C1227.76,40.9219,1229.66,42.5,1231.26,44.6797C1232.85,46.8594,1233.65,49.3789,1233.65,52.25C1233.65,54.0703,1233.13,56.0586,1232.09,58.1992C1231.05,60.3516,1229.4,62.1602,1227.16,63.6211C1224.91,65.0898,1222.26,65.8203,1219.2,65.8203C1217.18,65.8203,1215.06,65.3711,1212.85,64.4492C1210.64,63.5391,1208.75,61.9492,1207.19,59.6719C1205.62,57.3906,1204.84,54.9219,1204.84,52.25C1204.84,50.3594,1205.22,48.5898,1205.97,46.9297C1206.71,45.2695,1207.74,43.8203,1209.04,42.5781C1210.34,41.3398,1211.86,40.3516,1213.58,39.6016C1215.31,38.8516,1217.18,38.4805,1219.2,38.4805C1221.22,38.4805,1223.33,38.9688,1225.55,39.9414zM1100.67,121.68C1104.64,127.078,1110.4,129.789,1117.95,129.789C1125.11,129.789,1130.37,127.512,1133.72,122.949C1137.08,118.391,1138.75,111.949,1138.75,103.621L1138.75,99.0313L1093.83,99.0313C1094.42,108.73,1096.7,116.281,1100.67,121.68zM1139.1,38.9219C1144.01,39.5391,1148.58,40.5,1152.82,41.8008L1149.01,56.6406C1145.82,55.7305,1142.11,54.9688,1137.87,54.3516C1133.64,53.7305,1129.28,53.4219,1124.79,53.4219C1115.09,53.4219,1107.76,56.1406,1102.82,61.5703C1097.87,67.0117,1095,74.8398,1094.22,85.0586L1158.77,85.0586C1159.03,88.4414,1159.16,92.3789,1159.16,96.8789C1159.16,112.051,1155.75,123.699,1148.91,131.84C1142.07,139.98,1131.92,144.039,1118.44,144.039C1111.21,144.039,1104.8,142.762,1099.2,140.191C1093.6,137.609,1088.92,133.988,1085.14,129.301C1081.36,124.609,1078.5,119,1076.55,112.449C1074.59,105.91,1073.62,98.6992,1073.62,90.8203C1073.62,82.75,1074.69,75.4609,1076.84,68.9492C1078.99,62.4414,1082.13,56.8906,1086.26,52.3008C1090.4,47.7109,1095.46,44.1719,1101.45,41.6992C1107.44,39.2305,1114.27,37.9883,1121.96,37.9883C1128.47,37.9883,1134.18,38.3008,1139.1,38.9219zM1003.86,40.3281C1008.91,41.5703,1013.22,43.4609,1016.8,46C1020.38,48.5391,1023.15,51.7305,1025.11,55.5703C1027.06,59.4102,1028.03,63.8984,1028.03,69.0391C1028.03,73.7305,1027.11,78.0586,1025.25,82.0313C1023.4,86,1020.24,89.3203,1015.78,91.9883C1011.32,94.6602,1005.18,97.1992,997.371,99.6094C993.59,100.781,990.191,101.871,987.172,102.879C984.141,103.891,981.578,104.98,979.5,106.148C977.422,107.328,975.801,108.66,974.672,110.16C973.531,111.648,972.961,113.48,972.961,115.629C972.961,119.859,974.551,123.02,977.738,125.102C980.93,127.18,985.879,128.219,992.59,128.219C998.25,128.219,1003.44,127.82,1008.16,127C1012.88,126.191,1017.36,125.07,1021.59,123.629L1021.59,139.648C1017.88,140.762,1013.58,141.699,1008.7,142.48C1003.82,143.262,998.051,143.648,991.41,143.648C985.809,143.648,980.699,143,976.078,141.699C971.461,140.398,967.52,138.512,964.27,136.039C961.012,133.559,958.488,130.469,956.699,126.762C954.91,123.051,954.012,118.82,954.012,114.059C954.012,109.641,954.73,105.891,956.16,102.828C957.59,99.7695,959.59,97.1719,962.172,95.0195C964.738,92.8711,967.762,91.0508,971.25,89.5508C974.73,88.0508,978.52,86.6211,982.621,85.2617C986.07,84.0195,989.852,82.75,993.949,81.4492C998.051,80.1406,1001.46,78.4297,1004.16,76.3203C1006.86,74.1992,1008.21,71.3906,1008.21,67.8711C1008.21,65.7188,1007.67,63.5391,1006.6,61.3281C1005.53,59.1211,1003.25,57.3398,999.762,56.0117C996.281,54.6719,991.609,54.0117,985.75,54.0117C982.102,54.0117,978.469,54.2695,974.859,54.7891C971.25,55.3086,968.07,55.9688,965.34,56.7891C962.609,57.6016,959.539,58.6914,956.16,60.0586L950.98,45.4102C952.352,44.7617,954.141,44.0391,956.359,43.2617C958.57,42.4805,961.191,41.7305,964.219,41.0195C967.238,40.3008,970.66,39.6992,974.469,39.2109C978.281,38.7188,982.461,38.4805,987.02,38.4805C993.199,38.4805,998.82,39.1016,1003.86,40.3281zM893.828,162.648C895.621,163.328,897.301,164.711,898.859,166.801C900.422,168.879,901.199,171.16,901.199,173.629C901.199,175.328,900.711,177.148,899.738,179.102C898.762,181.059,897.281,182.672,895.289,183.941C893.309,185.211,891.078,185.84,888.609,185.84C886.781,185.84,884.891,185.422,882.941,184.57C880.988,183.73,879.309,182.309,877.91,180.32C876.512,178.34,875.809,176.109,875.809,173.629C875.809,171.941,876.148,170.379,876.84,168.949C877.52,167.512,878.449,166.238,879.621,165.141C880.789,164.031,882.141,163.172,883.672,162.551C885.199,161.93,886.852,161.621,888.609,161.621C890.301,161.621,892.039,161.961,893.828,162.648zM900.621,40.4297L900.621,141.602L868,141.602L868,128.809C870.801,128.621,875.191,128.09,881.18,127.25L881.18,40.4297L900.621,40.4297zM769.488,121.68C773.461,127.078,779.219,129.789,786.77,129.789C793.93,129.789,799.191,127.512,802.539,122.949C805.898,118.391,807.57,111.949,807.57,103.621L807.57,99.0313L762.648,99.0313C763.238,108.73,765.52,116.281,769.488,121.68zM807.922,38.9219C812.828,39.5391,817.398,40.5,821.641,41.8008L817.828,56.6406C814.641,55.7305,810.93,54.9688,806.691,54.3516C802.461,53.7305,798.102,53.4219,793.609,53.4219C783.91,53.4219,776.578,56.1406,771.641,61.5703C766.691,67.0117,763.82,74.8398,763.039,85.0586L827.59,85.0586C827.852,88.4414,827.98,92.3789,827.98,96.8789C827.98,112.051,824.57,123.699,817.73,131.84C810.891,139.98,800.738,144.039,787.262,144.039C780.031,144.039,773.621,142.762,768.02,140.191C762.422,137.609,757.738,133.988,753.961,129.301C750.18,124.609,747.32,119,745.371,112.449C743.41,105.91,742.441,98.6992,742.441,90.8203C742.441,82.75,743.512,75.4609,745.66,68.9492C747.809,62.4414,750.949,56.8906,755.078,52.3008C759.219,47.7109,764.281,44.1719,770.27,41.6992C776.262,39.2305,783.09,37.9883,790.781,37.9883C797.289,37.9883,803,38.3008,807.922,38.9219zM670.879,40.4297L670.879,95.2188C670.879,98.3398,671.461,101.602,672.641,104.98C673.809,108.371,675.602,111.461,678.012,114.262C680.422,117.059,683.41,119.352,686.988,121.141C690.57,122.93,694.801,123.828,699.691,123.828C702.75,123.828,705.059,123.629,706.621,123.238L706.621,141.602C704.859,141.988,702.32,142.191,699,142.191C695.75,142.191,692.359,141.59,688.852,140.379C685.328,139.18,681.949,137.051,678.691,133.988C675.43,130.93,672.672,127.078,670.391,122.461L670,141.602L651.441,141.602L651.441,40.4297L670.879,40.4297zM539.75,56.7383C536.23,58.4297,533.012,60.7383,530.078,63.6719L530.078,89.6484C530.078,95.1211,530.621,100.16,531.691,104.789C532.77,109.41,534.352,113.379,536.43,116.699C538.512,120.02,541.078,122.609,544.141,124.461C547.199,126.32,550.691,127.25,554.59,127.25C559.02,127.25,563.121,126.121,566.898,123.879C570.672,121.629,573.539,117.762,575.488,112.262C577.441,106.762,578.422,100,578.422,91.9883C578.422,88.2813,578.191,84.7305,577.738,81.3516C577.281,77.9609,576.602,74.8086,575.691,71.8789C574.84,69.2109,573.57,66.5117,571.879,63.7695C570.18,61.0391,567.559,58.7617,564.02,56.9414C560.469,55.1094,556.352,54.1992,551.66,54.1992C547.238,54.1992,543.27,55.0508,539.75,56.7383zM530.078,0L530.078,46.5781C533.078,44.1094,536.66,42.1406,540.82,40.6797C544.988,39.2109,549.941,38.4805,555.672,38.4805C562.699,38.4805,568.93,39.6797,574.371,42.0898C579.801,44.5,584.359,48,588.039,52.5898C591.719,57.1797,594.5,62.8281,596.391,69.5313C598.281,76.2383,599.219,83.8516,599.219,92.3789C599.219,100.648,598.102,108.809,595.852,116.852C593.609,124.891,589.391,131.359,583.211,136.281C577.02,141.199,569.238,143.648,559.871,143.648C555.699,143.648,551.648,143.051,547.711,141.852C543.77,140.641,540.199,138.691,537.02,135.988C533.82,133.289,531.352,130.238,529.59,126.859L529.199,141.602L510.648,141.602L510.648,0L530.078,0zM431.859,40.4297L431.859,95.2188C431.859,98.3398,432.449,101.602,433.621,104.98C434.789,108.371,436.578,111.461,438.988,114.262C441.398,117.059,444.398,119.352,447.98,121.141C451.559,122.93,455.789,123.828,460.672,123.828C463.73,123.828,466.039,123.629,467.609,123.238L467.609,141.602C465.852,141.988,463.309,142.191,459.988,142.191C456.73,142.191,453.352,141.59,449.828,140.379C446.32,139.18,442.93,137.051,439.68,133.988C436.422,130.93,433.648,127.078,431.371,122.461L430.98,141.602L412.43,141.602L412.43,40.4297L431.859,40.4297zM304.641,55.0781C301.91,56.1914,299.852,58.0898,298.488,60.7891C297.121,63.4883,296.441,66.5117,296.441,69.8281C296.441,73.6016,297.121,76.7891,298.488,79.3984C299.852,82,301.922,84.1211,304.691,85.7383C307.461,87.3711,310.922,88.5313,315.09,89.2109C319.25,89.8906,324.172,90.2383,329.84,90.2383L337.059,90.2383L337.059,62.7891C335.891,61.5586,334.289,60.2383,332.281,58.8398C330.262,57.4414,327.512,56.1914,324.02,55.0781C320.539,53.9688,317.07,53.4219,313.621,53.4219C310.371,53.4219,307.371,53.9688,304.641,55.0781zM319.441,39.8906C323.441,40.8398,326.949,42.1094,329.98,43.6992C333.012,45.3008,335.5,47.0703,337.449,49.0313L337.84,40.4297L356.199,40.4297L356.199,110.059C356.199,115.922,355.441,120.961,353.91,125.199C352.379,129.43,350.02,132.91,346.828,135.648C343.641,138.379,339.578,140.398,334.672,141.699C329.75,143,323.941,143.648,317.238,143.648C313.852,143.648,310.238,143.469,306.398,143.121C302.559,142.762,299.398,142.352,296.93,141.898C294.449,141.441,290.48,140.5,285.012,139.059L285.012,123.238C289.238,124.738,293.672,126.039,298.289,127.148C302.91,128.262,307.961,128.809,313.43,128.809C317.789,128.809,321.891,128.309,325.73,127.301C329.57,126.289,332.422,124.398,334.281,121.629C336.129,118.859,337.059,114.941,337.059,109.871L337.059,104.398C336.738,104.398,336.07,104.379,335.059,104.352C334.051,104.309,332.988,104.301,331.891,104.301C330.781,104.301,329.719,104.281,328.711,104.25C327.699,104.219,327.07,104.199,326.809,104.199C320.879,104.07,315.531,103.648,310.738,102.93C305.961,102.211,301.641,101.109,297.801,99.6094C290.969,96.8789,285.789,93.0195,282.281,88.0391C278.762,83.0586,277,76.7305,277,69.0391C277,63.5117,277.828,58.8086,279.488,54.9297C281.148,51.0586,283.398,47.8984,286.23,45.4609C289.059,43.0195,292.379,41.2383,296.191,40.1406C300,39.0313,304.02,38.4805,308.25,38.4805C311.699,38.4805,315.43,38.9492,319.441,39.8906zM172.34,56.7383C168.82,58.4297,165.602,60.7383,162.672,63.6719L162.672,89.6484C162.672,95.1211,163.211,100.16,164.281,104.789C165.359,109.41,166.93,113.379,169.02,116.699C171.102,120.02,173.672,122.609,176.73,124.461C179.789,126.32,183.281,127.25,187.18,127.25C191.609,127.25,195.711,126.121,199.488,123.879C203.262,121.629,206.129,117.762,208.078,112.262C210.031,106.762,211.012,100,211.012,91.9883C211.012,88.2813,210.781,84.7305,210.328,81.3516C209.871,77.9609,209.191,74.8086,208.281,71.8789C207.43,69.2109,206.16,66.5117,204.469,63.7695C202.77,61.0391,200.148,58.7617,196.609,56.9414C193.059,55.1094,188.941,54.1992,184.25,54.1992C179.828,54.1992,175.859,55.0508,172.34,56.7383zM162.672,0L162.672,46.5781C165.672,44.1094,169.25,42.1406,173.41,40.6797C177.578,39.2109,182.531,38.4805,188.262,38.4805C195.289,38.4805,201.52,39.6797,206.961,42.0898C212.391,44.5,216.949,48,220.629,52.5898C224.309,57.1797,227.09,62.8281,228.98,69.5313C230.871,76.2383,231.809,83.8516,231.809,92.3789C231.809,100.648,230.691,108.809,228.441,116.852C226.199,124.891,221.98,131.359,215.801,136.281C209.609,141.199,201.828,143.648,192.461,143.648C188.289,143.648,184.238,143.051,180.301,141.852C176.359,140.641,172.789,138.691,169.609,135.988C166.41,133.289,163.941,130.238,162.18,126.859L161.789,141.602L143.238,141.602L143.238,0L162.672,0zM65.1406,40.6289C71.2617,42.3789,76.4492,44.9688,80.7109,48.3906C84.9805,51.8086,88.2305,56.0195,90.4805,61.0391C92.7188,66.0508,93.8516,71.7813,93.8516,78.2188C93.8516,84.8711,92.7695,90.4297,90.6211,94.9219C88.4805,99.4219,85.6289,103.211,82.0781,106.301C78.5313,109.391,74.4102,111.98,69.7305,114.059C65.0391,116.148,60.1602,118.129,55.0781,120.02C50.4492,121.648,46.2188,123.211,42.3789,124.711C38.5391,126.211,35.2188,127.852,32.418,129.641C29.6211,131.43,27.4609,133.5,25.9297,135.84C24.3984,138.191,23.6289,141.051,23.6289,144.441C23.6289,151.141,26.0586,156.281,30.9102,159.871C35.7617,163.441,42.5391,165.238,51.2695,165.238C55.1797,165.238,59.1602,164.98,63.2305,164.449C67.3008,163.93,71.2617,163.199,75.1016,162.262C78.9414,161.309,82.5195,160.219,85.8398,158.988L85.8398,176.66C84.4688,176.988,82.2109,177.59,79.0508,178.469C75.8906,179.352,71.9102,180.129,67.0898,180.809C62.2695,181.5,57.0586,181.84,51.4609,181.84C44.1094,181.84,37.4805,180.941,31.5898,179.148C25.6992,177.359,20.6992,174.809,16.6016,171.488C12.5,168.172,9.3398,164.129,7.1289,159.379C4.9102,154.621,3.8086,149.32,3.8086,143.461C3.8086,139.809,4.1992,136.352,4.9805,133.059C5.7617,129.77,7.3711,126.48,9.8086,123.199C12.2617,119.91,15.25,117.07,18.8008,114.699C22.3516,112.32,25.8594,110.391,29.3516,108.891C32.8281,107.391,36.5195,105.961,40.4297,104.59C44.5313,103.031,49.1016,101.25,54.1484,99.2695C59.1914,97.2813,63.5117,94.6094,67.0898,91.2617C70.6719,87.9102,72.4609,83.5,72.4609,78.0313C72.4609,74.7695,71.832,71.3516,70.5586,67.7813C69.2891,64.1914,66.2891,61.1797,61.5703,58.7383C56.8516,56.3008,50.2617,55.0781,41.8008,55.0781C37.6289,55.0781,33.1406,55.4688,28.3203,56.25C23.5,57.0313,18.9883,58.1094,14.7891,59.4688C10.6016,60.8398,7.5508,62.0117,5.6602,62.9883L0,46.8789C1.3711,46.2305,3.3516,45.3984,5.9609,44.3906C8.5586,43.3789,11.75,42.3984,15.5313,41.4609C19.3008,40.5117,23.5781,39.6992,28.3711,39.0195C33.1484,38.3281,38.4414,37.9883,44.2383,37.9883C52.0508,37.9883,59.0195,38.8711,65.1406,40.6289L65.1406,40.6289"/>
    </g>
  </g>
</svg>