<?xml version="1.0" encoding="UTF-8"?>
<svg id="Ebene_1" data-name="Ebene 1" xmlns="http://www.w3.org/2000/svg" viewBox="0 0 128 64">
  <defs>
    <style>
      .cls-1 {
        fill: #026830;
      }

      .cls-1, .cls-2 {
        stroke-width: 0px;
      }

      .cls-2 {
        fill: #e3051d;
      }
    </style>
  </defs>
  <path class="cls-1" d="M57.46,57.01h18.58c20.22,0,30.37-10.51,30.37-25.3v-.14c0-14.79-9.94-24.58-29.8-24.58h-19.15v50.02h0ZM74.19,43.32v-22.64h2.79c7.65,0,12.58,3.41,12.58,11.24v.15c0,7.83-4.93,11.24-12.58,11.24h-2.79Z"/>
  <path id="path34" class="cls-1" d="M110.58,57.01h16.68V6.99h-16.68v50.02Z"/>
  <path id="path34-2" class="cls-2" d="M17.43,40.34h16.68v-16.67h-16.68s0,16.67,0,16.67Z"/>
  <path id="path34-3" class="cls-1" d="M34.11,57.01h16.68V6.99h-16.68v50.02Z"/>
  <path id="path34-4" class="cls-1" d="M.74,57.01h16.68V6.99H.74v50.02Z"/>
</svg>